<svg xmlns="http://www.w3.org/2000/svg" width="160" height="147.09" viewBox="0 0 160 147.09">
  <g id="_58_percent" data-name="58 percent" transform="translate(-50 -533.995)">
    <rect id="Rectangle_210" data-name="Rectangle 210" width="160" height="147.09" transform="translate(50 533.995)" fill="none"/>
    <g id="Chart" transform="translate(-398.536 -19)">
      <path id="Path_22" data-name="Path 22" d="M0,10.486,7.173,0l3.551,1.874L4.284,13.645Z" transform="translate(472.04 671.893) rotate(16)" fill="#2b5e92"/>
      <path id="Path_51" data-name="Path 51" d="M0,10.486,7.173,0l3.551,1.874L4.284,13.645Z" transform="translate(478.334 680.015) rotate(7)" fill="#2c5b90"/>
      <path id="Path_52" data-name="Path 52" d="M0,10.64,7.511,0,10.64,1.878,4.381,13.769Z" transform="translate(485.463 686.311)" fill="#2d588d"/>
      <path id="Path_23" data-name="Path 23" d="M0,10.486,7.173,0l3.551,1.874L4.284,13.645Z" transform="translate(467.705 663.969) rotate(25)" fill="#296296"/>
      <path id="Path_24" data-name="Path 24" d="M0,10.486,7.173,0l3.551,1.874L4.284,13.645Z" transform="matrix(0.848, 0.53, -0.53, 0.848, 463.116, 655.029)" fill="#286599"/>
      <path id="Path_25" data-name="Path 25" d="M0,10.486,7.173,0l3.551,1.874L4.284,13.645Z" transform="translate(461.499 645.61) rotate(42)" fill="#27699c"/>
      <path id="Path_26" data-name="Path 26" d="M0,10.486,7.173,0l3.551,1.874L4.284,13.645Z" transform="translate(460.343 635.793) rotate(51)" fill="#256c9f"/>
      <path id="Path_27" data-name="Path 27" d="M0,10.486,7.173,0l3.551,1.874L4.284,13.645Z" transform="matrix(0.53, 0.848, -0.848, 0.53, 460.108, 626.077)" fill="#246fa2"/>
      <path id="Path_28" data-name="Path 28" d="M0,10.486,7.173,0l3.551,1.874L4.284,13.645Z" transform="translate(461.706 616.482) rotate(65)" fill="#2372a5"/>
      <path id="Path_29" data-name="Path 29" d="M0,10.486,7.173,0l3.551,1.874L4.284,13.645Z" transform="translate(465.124 607.003) rotate(72)" fill="#2276a9"/>
      <path id="Path_30" data-name="Path 30" d="M0,10.486,7.173,0l3.551,1.874L4.284,13.645Z" transform="translate(469.322 598.46) rotate(81)" fill="#207aac"/>
      <path id="Path_31" data-name="Path 31" d="M0,10.486,7.173,0l3.551,1.874L4.284,13.645Z" transform="matrix(-0.017, 1, -1, -0.017, 474.718, 590.819)" fill="#1f7daf"/>
      <path id="Path_32" data-name="Path 32" d="M0,10.486,7.173,0l3.551,1.874L4.284,13.645Z" transform="translate(481.013 583.07) rotate(99)" fill="#1e80b2"/>
      <path id="Path_33" data-name="Path 33" d="M0,10.486,7.173,0l3.551,1.874L4.284,13.645Z" transform="matrix(-0.276, 0.961, -0.961, -0.276, 488.983, 577.14)" fill="#1c83b5"/>
      <path id="Path_34" data-name="Path 34" d="M0,10.486,7.173,0l3.551,1.874L4.284,13.645Z" transform="translate(496.792 571.739) rotate(112)" fill="#1b87b8"/>
      <path id="Path_35" data-name="Path 35" d="M0,10.486,7.173,0l3.551,1.874L4.284,13.645Z" transform="matrix(-0.53, 0.848, -0.848, -0.53, 505.847, 567.59)" fill="#1a8abb"/>
      <path id="Path_36" data-name="Path 36" d="M0,10.486,7.173,0l3.551,1.874L4.284,13.645Z" transform="translate(515.275 565.196) rotate(131)" fill="#198ebe"/>
      <path id="Path_37" data-name="Path 37" d="M0,10.486,7.173,0l3.551,1.874L4.284,13.645Z" transform="matrix(-0.788, 0.616, -0.616, -0.788, 525.048, 564.338)" fill="#1791c1"/>
      <path id="Path_38" data-name="Path 38" d="M0,10.486,7.173,0l3.551,1.874L4.284,13.645Z" transform="translate(534.223 564.439) rotate(147)" fill="#1695c5"/>
      <path id="Path_39" data-name="Path 39" d="M0,10.486,7.173,0l3.551,1.874L4.284,13.645Z" transform="translate(544.393 566.18) rotate(155)" fill="#1598c7"/>
      <path id="Path_4610" data-name="Path 4610" d="M0,10.486,7.173,0l3.551,1.874L4.284,13.645Z" transform="matrix(-0.951, 0.309, -0.309, -0.951, 553.872, 568.346)" fill="#149bca"/>
    </g>
    <g id="Chart-2" data-name="Chart" transform="translate(-398.536 -19)">
      <text id="_58_" data-name="58%" transform="translate(502.376 642.867)" fill="#626262" font-size="24" font-family="Montserrat-Bold, Montserrat" font-weight="700"><tspan x="0" y="0">58%</tspan></text>
    </g>
  </g>
</svg>
