<svg xmlns="http://www.w3.org/2000/svg" width="160" height="147.086" viewBox="0 0 160 147.086">
  <g id="_89_percent" data-name="89 percent" transform="translate(0 0)">
    <path id="Path_22" data-name="Path 22" d="M0,10.486,7.173,0l3.551,1.874L4.284,13.645Z" transform="translate(23.504 118.898) rotate(16)" fill="#2b5e92"/>
    <path id="Path_51" data-name="Path 51" d="M0,10.486,7.173,0l3.551,1.874L4.284,13.645Z" transform="translate(29.798 127.02) rotate(7)" fill="#2c5b90"/>
    <path id="Path_52" data-name="Path 52" d="M0,10.64,7.511,0,10.64,1.878,4.381,13.769Z" transform="translate(36.927 133.317)" fill="#2d588d"/>
    <path id="Path_23" data-name="Path 23" d="M0,10.486,7.173,0l3.551,1.874L4.284,13.645Z" transform="translate(19.169 110.974) rotate(25)" fill="#296296"/>
    <path id="Path_24" data-name="Path 24" d="M0,10.486,7.173,0l3.551,1.874L4.284,13.645Z" transform="matrix(0.848, 0.53, -0.53, 0.848, 14.58, 102.034)" fill="#286599"/>
    <path id="Path_25" data-name="Path 25" d="M0,10.486,7.173,0l3.551,1.874L4.284,13.645Z" transform="translate(12.963 92.615) rotate(42)" fill="#27699c"/>
    <path id="Path_26" data-name="Path 26" d="M0,10.486,7.173,0l3.551,1.874L4.284,13.645Z" transform="translate(11.807 82.799) rotate(51)" fill="#256c9f"/>
    <path id="Path_27" data-name="Path 27" d="M0,10.486,7.173,0l3.551,1.874L4.284,13.645Z" transform="matrix(0.53, 0.848, -0.848, 0.53, 11.572, 73.082)" fill="#246fa2"/>
    <path id="Path_28" data-name="Path 28" d="M0,10.486,7.173,0l3.551,1.874L4.284,13.645Z" transform="translate(13.171 63.488) rotate(65)" fill="#2372a5"/>
    <path id="Path_29" data-name="Path 29" d="M0,10.486,7.173,0l3.551,1.874L4.284,13.645Z" transform="translate(16.589 54.009) rotate(72)" fill="#2276a9"/>
    <path id="Path_30" data-name="Path 30" d="M0,10.486,7.173,0l3.551,1.874L4.284,13.645Z" transform="translate(20.786 45.465) rotate(81)" fill="#207aac"/>
    <path id="Path_31" data-name="Path 31" d="M0,10.486,7.173,0l3.551,1.874L4.284,13.645Z" transform="matrix(-0.017, 1, -1, -0.017, 26.182, 37.824)" fill="#1f7daf"/>
    <path id="Path_32" data-name="Path 32" d="M0,10.486,7.173,0l3.551,1.874L4.284,13.645Z" transform="translate(32.478 30.075) rotate(99)" fill="#1e80b2"/>
    <path id="Path_33" data-name="Path 33" d="M0,10.486,7.173,0l3.551,1.874L4.284,13.645Z" transform="matrix(-0.276, 0.961, -0.961, -0.276, 40.447, 24.145)" fill="#1c83b5"/>
    <path id="Path_34" data-name="Path 34" d="M0,10.486,7.173,0l3.551,1.874L4.284,13.645Z" transform="translate(48.256 18.744) rotate(112)" fill="#1b87b8"/>
    <path id="Path_35" data-name="Path 35" d="M0,10.486,7.173,0l3.551,1.874L4.284,13.645Z" transform="matrix(-0.53, 0.848, -0.848, -0.53, 57.311, 14.595)" fill="#1a8abb"/>
    <path id="Path_36" data-name="Path 36" d="M0,10.486,7.173,0l3.551,1.874L4.284,13.645Z" transform="translate(66.739 12.201) rotate(131)" fill="#198ebe"/>
    <path id="Path_37" data-name="Path 37" d="M0,10.486,7.173,0l3.551,1.874L4.284,13.645Z" transform="matrix(-0.788, 0.616, -0.616, -0.788, 76.512, 11.343)" fill="#1791c1"/>
    <path id="Path_38" data-name="Path 38" d="M0,10.486,7.173,0l3.551,1.874L4.284,13.645Z" transform="translate(85.687 11.444) rotate(147)" fill="#1695c5"/>
    <path id="Path_39" data-name="Path 39" d="M0,10.486,7.173,0l3.551,1.874L4.284,13.645Z" transform="translate(95.857 13.185) rotate(155)" fill="#1598c7"/>
    <path id="Path_4610" data-name="Path 4610" d="M0,10.486,7.173,0l3.551,1.874L4.284,13.645Z" transform="matrix(-0.951, 0.309, -0.309, -0.951, 105.336, 15.352)" fill="#149bca"/>
    <path id="Path_41" data-name="Path 41" d="M0,10.486,7.173,0l3.551,1.874L4.284,13.645Z" transform="translate(114.082 19.323) rotate(169)" fill="#129fce"/>
    <path id="Path_42" data-name="Path 42" d="M0,10.486,7.173,0l3.551,1.874L4.284,13.645Z" transform="matrix(-0.999, 0.052, -0.052, -0.999, 121.991, 25.189)" fill="#11a2d1"/>
    <path id="Path_43" data-name="Path 43" d="M0,10.486,7.173,0l3.551,1.874L4.284,13.645Z" transform="matrix(-0.993, -0.122, 0.122, -0.993, 128.906, 31.714)" fill="#10a5d4"/>
    <path id="Path_44" data-name="Path 44" d="M0,10.486,7.173,0l3.551,1.874L4.284,13.645Z" transform="matrix(-0.97, -0.242, 0.242, -0.97, 135.478, 39.091)" fill="#0fa8d7"/>
    <path id="Path_45" data-name="Path 45" d="M0,10.486,7.173,0l3.551,1.874L4.284,13.645Z" transform="translate(140.601 47.645) rotate(-158)" fill="#0dacda"/>
    <path id="Path_46" data-name="Path 46" d="M0,10.486,7.173,0l3.551,1.874L4.284,13.645Z" transform="translate(144.9 56.057) rotate(-149)" fill="#0cb0dd"/>
    <path id="Path_47" data-name="Path 47" d="M0,10.486,7.173,0l3.551,1.874L4.284,13.645Z" transform="matrix(-0.766, -0.643, 0.643, -0.766, 147.295, 65.508)" fill="#0bb3e0"/>
    <path id="Path_48" data-name="Path 48" d="M0,10.486,7.173,0l3.551,1.874L4.284,13.645Z" transform="translate(148.149 75.31) rotate(-129)" fill="#09b6e3"/>
    <path id="Path_49" data-name="Path 49" d="M0,10.486,7.173,0l3.551,1.874L4.284,13.645Z" transform="translate(148.961 85.212) rotate(-126)" fill="#08b9e6"/>
    <path id="Path_50" data-name="Path 50" d="M0,10.486,7.173,0l3.551,1.874L4.284,13.645Z" transform="matrix(-0.485, -0.875, 0.875, -0.485, 147.335, 94.875)" fill="#07bdea"/>
    <text id="_89.5_" data-name="89.5%" transform="translate(46 91.872)" fill="#626262" font-size="24" font-family="Montserrat-Bold, Montserrat" font-weight="700"><tspan x="0" y="0">89.5%</tspan></text>
    <path id="Path_53" data-name="Path 53" d="M0,10.486,7.173,0l3.551,1.874L4.284,13.645Z" transform="matrix(-0.292, -0.956, 0.956, -0.292, 144.495, 103.388)" fill="#05c0ed"/>
    <path id="Path_4604" data-name="Path 4604" d="M0,10.486,7.173,0l3.551,1.874L4.284,13.645Z" transform="translate(140.019 112.091) rotate(-94)" fill="#04c3ef"/>
  </g>
</svg>
