<svg width="213" height="182" viewBox="0 0 213 182" fill="none" xmlns="http://www.w3.org/2000/svg">
<path opacity="0.5" d="M88.8057 177.936V173.636C90.9495 173.636 93.0212 172.913 95.0205 171.468C97.0439 170.022 98.0557 168.264 98.0557 166.192C98.0557 165.012 97.5739 164.422 96.6104 164.422C96.3936 164.422 95.96 164.494 95.3096 164.639C94.6351 164.783 94.1051 164.855 93.7197 164.855C92.3708 164.855 91.1061 164.326 89.9258 163.266C88.7695 162.182 88.1914 160.7 88.1914 158.821C88.1914 156.942 88.7936 155.365 89.998 154.088C91.2266 152.787 92.8887 152.137 94.9844 152.137C97.4655 152.137 99.4769 153.088 101.019 154.991C102.584 156.87 103.367 159.496 103.367 162.868C103.367 167.517 101.946 171.167 99.1035 173.816C96.2611 176.442 92.8285 177.815 88.8057 177.936ZM108.823 177.936V173.636C111.088 173.636 113.195 172.901 115.146 171.432C117.098 169.962 118.073 168.216 118.073 166.192C118.073 165.012 117.591 164.422 116.628 164.422C116.411 164.422 115.978 164.494 115.327 164.639C114.653 164.783 114.123 164.855 113.737 164.855C112.388 164.855 111.124 164.326 109.943 163.266C108.787 162.182 108.209 160.7 108.209 158.821C108.209 156.991 108.811 155.425 110.016 154.124C111.22 152.799 112.882 152.137 115.002 152.137C117.579 152.137 119.615 153.1 121.108 155.027C122.626 156.93 123.385 159.544 123.385 162.868C123.385 167.493 121.976 171.131 119.157 173.78C116.339 176.43 112.894 177.815 108.823 177.936Z" fill="#F6F6F6"/>
<path opacity="0.5" d="M103.078 16.1367V20.4727C100.814 20.4727 98.7061 21.2074 96.7549 22.6768C94.8037 24.1221 93.8281 25.8564 93.8281 27.8799C93.8281 29.0843 94.3099 29.6865 95.2734 29.6865C95.4902 29.6865 95.9238 29.6022 96.5742 29.4336C97.2487 29.2891 97.7907 29.2168 98.2002 29.2168C99.5251 29.2168 100.766 29.7588 101.922 30.8428C103.102 31.9027 103.692 33.3721 103.692 35.251C103.692 37.0817 103.09 38.6595 101.886 39.9844C100.681 41.2852 99.0312 41.9355 96.9355 41.9355C94.4303 41.9355 92.4069 40.9961 90.8652 39.1172C89.3236 37.2142 88.5527 34.5765 88.5527 31.2041C88.5527 26.555 89.9619 22.9176 92.7803 20.292C95.6227 17.6423 99.0553 16.2572 103.078 16.1367ZM122.915 16.1367V20.4727C120.771 20.4727 118.688 21.1953 116.664 22.6406C114.665 24.0618 113.665 25.8083 113.665 27.8799C113.665 29.0843 114.147 29.6865 115.11 29.6865C115.327 29.6865 115.761 29.6022 116.411 29.4336C117.086 29.2891 117.628 29.2168 118.037 29.2168C119.434 29.2168 120.699 29.7708 121.831 30.8789C122.963 31.987 123.529 33.4443 123.529 35.251C123.529 37.0817 122.927 38.6595 121.723 39.9844C120.518 41.2852 118.868 41.9355 116.772 41.9355C114.267 41.9355 112.244 40.9961 110.702 39.1172C109.16 37.2142 108.39 34.5765 108.39 31.2041C108.39 26.555 109.799 22.9176 112.617 20.292C115.46 17.6423 118.892 16.2572 122.915 16.1367Z" fill="#F6F6F6"/>
<path d="M30.3015 66.24C28.5015 66.24 27.0515 65.71 25.9515 64.65C24.8715 63.57 24.3315 62.13 24.3315 60.33V50.61C24.3315 48.83 24.8715 47.41 25.9515 46.35C27.0515 45.29 28.5015 44.76 30.3015 44.76C32.1215 44.76 33.5715 45.29 34.6515 46.35C35.7515 47.41 36.3015 48.83 36.3015 50.61V50.94C36.3015 51.04 36.2615 51.13 36.1815 51.21C36.1215 51.27 36.0415 51.3 35.9415 51.3L32.4315 51.45C32.1915 51.45 32.0715 51.34 32.0715 51.12V50.34C32.0715 49.76 31.9115 49.29 31.5915 48.93C31.2715 48.57 30.8415 48.39 30.3015 48.39C29.7815 48.39 29.3615 48.57 29.0415 48.93C28.7215 49.29 28.5615 49.76 28.5615 50.34V60.69C28.5615 61.27 28.7215 61.74 29.0415 62.1C29.3615 62.44 29.7815 62.61 30.3015 62.61C30.8415 62.61 31.2715 62.44 31.5915 62.1C31.9115 61.74 32.0715 61.27 32.0715 60.69V59.88C32.0715 59.78 32.1015 59.7 32.1615 59.64C32.2415 59.56 32.3315 59.52 32.4315 59.52L35.9415 59.67C36.0415 59.67 36.1215 59.71 36.1815 59.79C36.2615 59.85 36.3015 59.93 36.3015 60.03V60.33C36.3015 62.13 35.7515 63.57 34.6515 64.65C33.5515 65.71 32.1015 66.24 30.3015 66.24ZM45.5375 50.34C46.8975 50.34 47.9175 50.79 48.5975 51.69C49.2775 52.59 49.6175 53.85 49.6175 55.47V65.64C49.6175 65.74 49.5775 65.83 49.4975 65.91C49.4375 65.97 49.3575 66 49.2575 66H45.7475C45.6475 66 45.5575 65.97 45.4775 65.91C45.4175 65.83 45.3875 65.74 45.3875 65.64V55.8C45.3875 55.22 45.2675 54.77 45.0275 54.45C44.8075 54.13 44.4775 53.97 44.0375 53.97C43.5775 53.97 43.2175 54.14 42.9575 54.48C42.7175 54.8 42.5975 55.26 42.5975 55.86V65.64C42.5975 65.74 42.5575 65.83 42.4775 65.91C42.4175 65.97 42.3375 66 42.2375 66H38.7275C38.6275 66 38.5375 65.97 38.4575 65.91C38.3975 65.83 38.3675 65.74 38.3675 65.64V45.36C38.3675 45.26 38.3975 45.18 38.4575 45.12C38.5375 45.04 38.6275 45 38.7275 45H42.2375C42.3375 45 42.4175 45.04 42.4775 45.12C42.5575 45.18 42.5975 45.26 42.5975 45.36V51.51C42.5975 51.57 42.6175 51.6 42.6575 51.6C42.7175 51.6 42.7875 51.56 42.8675 51.48C43.5075 50.72 44.3975 50.34 45.5375 50.34ZM57.3655 50.34C59.0655 50.34 60.4455 50.8 61.5055 51.72C62.5655 52.64 63.0955 53.85 63.0955 55.35V65.64C63.0955 65.74 63.0555 65.83 62.9755 65.91C62.9155 65.97 62.8355 66 62.7355 66H59.2255C59.1255 66 59.0355 65.97 58.9555 65.91C58.8955 65.83 58.8655 65.74 58.8655 65.64V64.98C58.8655 64.92 58.8455 64.88 58.8055 64.86C58.7655 64.84 58.7255 64.86 58.6855 64.92C58.0255 65.76 57.0055 66.2 55.6255 66.24C54.4655 66.24 53.4555 65.92 52.5955 65.28C51.7555 64.64 51.3355 63.42 51.3355 61.62C51.3355 59.76 51.8455 58.48 52.8655 57.78C53.9055 57.08 55.3955 56.73 57.3355 56.73H58.7155C58.8155 56.73 58.8655 56.68 58.8655 56.58V55.83C58.8655 55.29 58.7155 54.85 58.4155 54.51C58.1355 54.15 57.7755 53.97 57.3355 53.97C56.9955 53.97 56.7055 54.08 56.4655 54.3C56.2455 54.5 56.1055 54.79 56.0455 55.17C56.0255 55.41 55.8955 55.53 55.6555 55.53L52.0555 55.5C51.8155 55.5 51.6955 55.38 51.6955 55.14C51.7955 53.68 52.3655 52.52 53.4055 51.66C54.4455 50.78 55.7655 50.34 57.3655 50.34ZM57.0655 62.97C57.5255 62.97 57.9355 62.82 58.2955 62.52C58.6755 62.2 58.8655 61.78 58.8655 61.26V59.85C58.8655 59.75 58.8155 59.7 58.7155 59.7H57.4855C56.9455 59.7 56.5055 59.86 56.1655 60.18C55.8455 60.48 55.6855 60.9 55.6855 61.44C55.6855 61.94 55.8055 62.32 56.0455 62.58C56.3055 62.84 56.6455 62.97 57.0655 62.97ZM65.4142 66C65.3142 66 65.2242 65.97 65.1442 65.91C65.0842 65.83 65.0542 65.74 65.0542 65.64V45.36C65.0542 45.26 65.0842 45.18 65.1442 45.12C65.2242 45.04 65.3142 45 65.4142 45H68.9242C69.0242 45 69.1042 45.04 69.1642 45.12C69.2442 45.18 69.2842 45.26 69.2842 45.36V65.64C69.2842 65.74 69.2442 65.83 69.1642 65.91C69.1042 65.97 69.0242 66 68.9242 66H65.4142ZM71.6837 66C71.5837 66 71.4937 65.97 71.4137 65.91C71.3537 65.83 71.3237 65.74 71.3237 65.64V45.36C71.3237 45.26 71.3537 45.18 71.4137 45.12C71.4937 45.04 71.5837 45 71.6837 45H75.1937C75.2937 45 75.3737 45.04 75.4337 45.12C75.5137 45.18 75.5537 45.26 75.5537 45.36V65.64C75.5537 65.74 75.5137 65.83 75.4337 65.91C75.3737 65.97 75.2937 66 75.1937 66H71.6837ZM88.8432 59.25C88.8432 59.35 88.8032 59.44 88.7232 59.52C88.6632 59.58 88.5832 59.61 88.4832 59.61H81.8832C81.7832 59.61 81.7332 59.66 81.7332 59.76V60.87C81.7332 61.37 81.8632 61.79 82.1232 62.13C82.4032 62.45 82.7532 62.61 83.1732 62.61C83.5532 62.61 83.8632 62.49 84.1032 62.25C84.3432 61.99 84.5032 61.67 84.5832 61.29C84.6432 61.09 84.7732 60.99 84.9732 60.99L88.4232 61.17C88.5232 61.17 88.6032 61.21 88.6632 61.29C88.7432 61.35 88.7732 61.44 88.7532 61.56C88.6132 63.1 88.0732 64.27 87.1332 65.07C86.2132 65.85 84.8932 66.24 83.1732 66.24C81.3932 66.24 80.0032 65.8 79.0032 64.92C78.0032 64.02 77.5032 62.78 77.5032 61.2V55.38C77.5032 53.86 78.0032 52.64 79.0032 51.72C80.0232 50.8 81.4132 50.34 83.1732 50.34C84.9332 50.34 86.3132 50.8 87.3132 51.72C88.3332 52.64 88.8432 53.86 88.8432 55.38V59.25ZM83.1732 53.97C82.7532 53.97 82.4032 54.13 82.1232 54.45C81.8632 54.77 81.7332 55.18 81.7332 55.68V56.85C81.7332 56.95 81.7832 57 81.8832 57H84.4632C84.5632 57 84.6132 56.95 84.6132 56.85V55.68C84.6132 55.18 84.4732 54.77 84.1932 54.45C83.9332 54.13 83.5932 53.97 83.1732 53.97ZM97.9496 50.34C99.3096 50.34 100.33 50.79 101.01 51.69C101.69 52.59 102.03 53.85 102.03 55.47V65.64C102.03 65.74 101.99 65.83 101.91 65.91C101.85 65.97 101.77 66 101.67 66H98.1596C98.0596 66 97.9696 65.97 97.8896 65.91C97.8296 65.83 97.7996 65.74 97.7996 65.64V55.8C97.7996 55.22 97.6796 54.77 97.4396 54.45C97.2196 54.13 96.8896 53.97 96.4496 53.97C95.9896 53.97 95.6296 54.14 95.3696 54.48C95.1296 54.8 95.0096 55.26 95.0096 55.86V65.64C95.0096 65.74 94.9696 65.83 94.8896 65.91C94.8296 65.97 94.7496 66 94.6496 66H91.1396C91.0396 66 90.9496 65.97 90.8696 65.91C90.8096 65.83 90.7796 65.74 90.7796 65.64V50.94C90.7796 50.84 90.8096 50.76 90.8696 50.7C90.9496 50.62 91.0396 50.58 91.1396 50.58H94.6496C94.7496 50.58 94.8296 50.62 94.8896 50.7C94.9696 50.76 95.0096 50.84 95.0096 50.94V51.51C95.0096 51.57 95.0296 51.6 95.0696 51.6C95.1296 51.6 95.1996 51.56 95.2796 51.48C95.9196 50.72 96.8096 50.34 97.9496 50.34ZM111.068 50.94C111.068 50.84 111.098 50.76 111.158 50.7C111.238 50.62 111.328 50.58 111.428 50.58H114.938C115.038 50.58 115.118 50.62 115.178 50.7C115.258 50.76 115.298 50.84 115.298 50.94V65.28C115.298 67.5 114.768 69.21 113.708 70.41C112.668 71.61 110.788 72.21 108.068 72.21C107.528 72.21 107.108 72.2 106.808 72.18C106.568 72.16 106.448 72.03 106.448 71.79V68.85C106.448 68.59 106.578 68.48 106.838 68.52C108.018 68.56 108.908 68.44 109.508 68.16C110.128 67.9 110.538 67.5 110.738 66.96C110.958 66.42 111.068 65.71 111.068 64.83C111.068 64.77 111.048 64.74 111.008 64.74C110.968 64.74 110.928 64.77 110.888 64.83C110.528 65.31 110.088 65.65 109.568 65.85C109.068 66.03 108.578 66.12 108.098 66.12C106.718 66.12 105.688 65.68 105.008 64.8C104.328 63.9 103.988 62.66 103.988 61.08V55.38C103.988 53.76 104.328 52.52 105.008 51.66C105.708 50.78 106.738 50.34 108.098 50.34C109.318 50.34 110.248 50.79 110.888 51.69C110.928 51.75 110.968 51.77 111.008 51.75C111.048 51.73 111.068 51.69 111.068 51.63V50.94ZM109.628 62.46C110.048 62.46 110.388 62.3 110.648 61.98C110.928 61.66 111.068 61.25 111.068 60.75V55.68C111.068 55.18 110.928 54.77 110.648 54.45C110.388 54.13 110.048 53.97 109.628 53.97C109.208 53.97 108.868 54.13 108.608 54.45C108.348 54.77 108.218 55.18 108.218 55.68V60.75C108.218 61.25 108.348 61.66 108.608 61.98C108.868 62.3 109.208 62.46 109.628 62.46ZM128.57 59.25C128.57 59.35 128.53 59.44 128.45 59.52C128.39 59.58 128.31 59.61 128.21 59.61H121.61C121.51 59.61 121.46 59.66 121.46 59.76V60.87C121.46 61.37 121.59 61.79 121.85 62.13C122.13 62.45 122.48 62.61 122.9 62.61C123.28 62.61 123.59 62.49 123.83 62.25C124.07 61.99 124.23 61.67 124.31 61.29C124.37 61.09 124.5 60.99 124.7 60.99L128.15 61.17C128.25 61.17 128.33 61.21 128.39 61.29C128.47 61.35 128.5 61.44 128.48 61.56C128.34 63.1 127.8 64.27 126.86 65.07C125.94 65.85 124.62 66.24 122.9 66.24C121.12 66.24 119.73 65.8 118.73 64.92C117.73 64.02 117.23 62.78 117.23 61.2V55.38C117.23 53.86 117.73 52.64 118.73 51.72C119.75 50.8 121.14 50.34 122.9 50.34C124.66 50.34 126.04 50.8 127.04 51.72C128.06 52.64 128.57 53.86 128.57 55.38V59.25ZM122.9 53.97C122.48 53.97 122.13 54.13 121.85 54.45C121.59 54.77 121.46 55.18 121.46 55.68V56.85C121.46 56.95 121.51 57 121.61 57H124.19C124.29 57 124.34 56.95 124.34 56.85V55.68C124.34 55.18 124.2 54.77 123.92 54.45C123.66 54.13 123.32 53.97 122.9 53.97ZM135.637 66.21C133.937 66.21 132.577 65.81 131.557 65.01C130.557 64.19 130.057 63.1 130.057 61.74V61.53C130.057 61.43 130.087 61.35 130.147 61.29C130.227 61.21 130.317 61.17 130.417 61.17H133.717C133.817 61.17 133.897 61.21 133.957 61.29C134.037 61.35 134.077 61.43 134.077 61.53V61.62C134.077 62.04 134.227 62.39 134.527 62.67C134.827 62.93 135.197 63.06 135.637 63.06C136.037 63.06 136.347 62.95 136.567 62.73C136.807 62.49 136.927 62.19 136.927 61.83C136.927 61.39 136.737 61.05 136.357 60.81C135.977 60.55 135.547 60.34 135.067 60.18C134.607 60 134.287 59.88 134.107 59.82C133.007 59.42 132.077 58.87 131.317 58.17C130.577 57.45 130.207 56.42 130.207 55.08C130.207 53.62 130.687 52.47 131.647 51.63C132.607 50.79 133.887 50.37 135.487 50.37C137.147 50.37 138.457 50.81 139.417 51.69C140.397 52.57 140.887 53.76 140.887 55.26C140.887 55.36 140.847 55.45 140.767 55.53C140.707 55.59 140.627 55.62 140.527 55.62H137.317C137.217 55.62 137.127 55.59 137.047 55.53C136.987 55.45 136.957 55.36 136.957 55.26V55.02C136.957 54.62 136.827 54.3 136.567 54.06C136.327 53.8 136.007 53.67 135.607 53.67C135.187 53.67 134.857 53.81 134.617 54.09C134.377 54.35 134.257 54.66 134.257 55.02C134.257 55.5 134.457 55.88 134.857 56.16C135.277 56.42 135.907 56.71 136.747 57.03C137.607 57.35 138.337 57.68 138.937 58.02C139.557 58.34 140.087 58.81 140.527 59.43C140.967 60.03 141.187 60.79 141.187 61.71C141.187 63.09 140.677 64.19 139.657 65.01C138.657 65.81 137.317 66.21 135.637 66.21ZM154.426 50.34C156.126 50.34 157.506 50.8 158.566 51.72C159.626 52.64 160.156 53.85 160.156 55.35V65.64C160.156 65.74 160.116 65.83 160.036 65.91C159.976 65.97 159.896 66 159.796 66H156.286C156.186 66 156.096 65.97 156.016 65.91C155.956 65.83 155.926 65.74 155.926 65.64V64.98C155.926 64.92 155.906 64.88 155.866 64.86C155.826 64.84 155.786 64.86 155.746 64.92C155.086 65.76 154.066 66.2 152.686 66.24C151.526 66.24 150.516 65.92 149.656 65.28C148.816 64.64 148.396 63.42 148.396 61.62C148.396 59.76 148.906 58.48 149.926 57.78C150.966 57.08 152.456 56.73 154.396 56.73H155.776C155.876 56.73 155.926 56.68 155.926 56.58V55.83C155.926 55.29 155.776 54.85 155.476 54.51C155.196 54.15 154.836 53.97 154.396 53.97C154.056 53.97 153.766 54.08 153.526 54.3C153.306 54.5 153.166 54.79 153.106 55.17C153.086 55.41 152.956 55.53 152.716 55.53L149.116 55.5C148.876 55.5 148.756 55.38 148.756 55.14C148.856 53.68 149.426 52.52 150.466 51.66C151.506 50.78 152.826 50.34 154.426 50.34ZM154.126 62.97C154.586 62.97 154.996 62.82 155.356 62.52C155.736 62.2 155.926 61.78 155.926 61.26V59.85C155.926 59.75 155.876 59.7 155.776 59.7H154.546C154.006 59.7 153.566 59.86 153.226 60.18C152.906 60.48 152.746 60.9 152.746 61.44C152.746 61.94 152.866 62.32 153.106 62.58C153.366 62.84 153.706 62.97 154.126 62.97ZM169.135 50.4C169.675 50.4 170.095 50.5 170.395 50.7C170.555 50.8 170.615 50.95 170.575 51.15L170.005 54.66C169.985 54.88 169.845 54.96 169.585 54.9C169.365 54.82 169.095 54.78 168.775 54.78C168.475 54.78 168.215 54.82 167.995 54.9C167.535 54.98 167.165 55.26 166.885 55.74C166.605 56.2 166.465 56.74 166.465 57.36V65.61C166.465 65.71 166.425 65.8 166.345 65.88C166.285 65.94 166.205 65.97 166.105 65.97H162.595C162.495 65.97 162.405 65.94 162.325 65.88C162.265 65.8 162.235 65.71 162.235 65.61V50.94C162.235 50.84 162.265 50.76 162.325 50.7C162.405 50.62 162.495 50.58 162.595 50.58H166.105C166.205 50.58 166.285 50.62 166.345 50.7C166.425 50.76 166.465 50.84 166.465 50.94V52.11C166.465 52.19 166.475 52.24 166.495 52.26C166.535 52.26 166.575 52.23 166.615 52.17C167.155 50.99 167.995 50.4 169.135 50.4ZM182.886 59.25C182.886 59.35 182.846 59.44 182.766 59.52C182.706 59.58 182.626 59.61 182.526 59.61H175.926C175.826 59.61 175.776 59.66 175.776 59.76V60.87C175.776 61.37 175.906 61.79 176.166 62.13C176.446 62.45 176.796 62.61 177.216 62.61C177.596 62.61 177.906 62.49 178.146 62.25C178.386 61.99 178.546 61.67 178.626 61.29C178.686 61.09 178.816 60.99 179.016 60.99L182.466 61.17C182.566 61.17 182.646 61.21 182.706 61.29C182.786 61.35 182.816 61.44 182.796 61.56C182.656 63.1 182.116 64.27 181.176 65.07C180.256 65.85 178.936 66.24 177.216 66.24C175.436 66.24 174.046 65.8 173.046 64.92C172.046 64.02 171.546 62.78 171.546 61.2V55.38C171.546 53.86 172.046 52.64 173.046 51.72C174.066 50.8 175.456 50.34 177.216 50.34C178.976 50.34 180.356 50.8 181.356 51.72C182.376 52.64 182.886 53.86 182.886 55.38V59.25ZM177.216 53.97C176.796 53.97 176.446 54.13 176.166 54.45C175.906 54.77 175.776 55.18 175.776 55.68V56.85C175.776 56.95 175.826 57 175.926 57H178.506C178.606 57 178.656 56.95 178.656 56.85V55.68C178.656 55.18 178.516 54.77 178.236 54.45C177.976 54.13 177.636 53.97 177.216 53.97ZM37.1339 102.24C35.3539 102.24 33.9539 101.79 32.9339 100.89C31.9339 99.99 31.4339 98.76 31.4339 97.2V91.38C31.4339 89.86 31.9439 88.64 32.9639 87.72C33.9839 86.8 35.3739 86.34 37.1339 86.34C38.9139 86.34 40.3139 86.8 41.3339 87.72C42.3539 88.64 42.8639 89.86 42.8639 91.38V97.2C42.8639 98.76 42.3539 99.99 41.3339 100.89C40.3339 101.79 38.9339 102.24 37.1339 102.24ZM37.1339 98.58C37.5739 98.58 37.9339 98.42 38.2139 98.1C38.4939 97.78 38.6339 97.37 38.6339 96.87V91.68C38.6339 91.18 38.4939 90.77 38.2139 90.45C37.9339 90.13 37.5739 89.97 37.1339 89.97C36.6939 89.97 36.3339 90.13 36.0539 90.45C35.7939 90.77 35.6639 91.18 35.6639 91.68V96.87C35.6639 97.37 35.7939 97.78 36.0539 98.1C36.3339 98.42 36.6939 98.58 37.1339 98.58ZM52.1154 86.34C53.4954 86.34 54.5354 86.79 55.2354 87.69C55.9554 88.57 56.3154 89.79 56.3154 91.35V97.2C56.3154 98.82 55.9554 100.07 55.2354 100.95C54.5154 101.81 53.4754 102.24 52.1154 102.24C51.6754 102.24 51.2154 102.16 50.7354 102C50.2554 101.82 49.8154 101.51 49.4154 101.07C49.3754 101.01 49.3354 100.99 49.2954 101.01C49.2554 101.03 49.2354 101.07 49.2354 101.13V107.22C49.2354 107.32 49.1954 107.4 49.1154 107.46C49.0554 107.54 48.9754 107.58 48.8754 107.58H45.3654C45.2654 107.58 45.1754 107.54 45.0954 107.46C45.0354 107.4 45.0054 107.32 45.0054 107.22V86.94C45.0054 86.84 45.0354 86.76 45.0954 86.7C45.1754 86.62 45.2654 86.58 45.3654 86.58H48.8754C48.9754 86.58 49.0554 86.62 49.1154 86.7C49.1954 86.76 49.2354 86.84 49.2354 86.94V87.42C49.2354 87.46 49.2554 87.48 49.2954 87.48C49.3754 87.48 49.4554 87.43 49.5354 87.33C50.2154 86.67 51.0754 86.34 52.1154 86.34ZM52.0854 91.68C52.0854 91.16 51.9554 90.74 51.6954 90.42C51.4354 90.1 51.0854 89.94 50.6454 89.94C50.2254 89.94 49.8854 90.1 49.6254 90.42C49.3654 90.74 49.2354 91.16 49.2354 91.68V96.87C49.2354 97.39 49.3654 97.81 49.6254 98.13C49.8854 98.45 50.2254 98.61 50.6454 98.61C51.0854 98.61 51.4354 98.45 51.6954 98.13C51.9554 97.81 52.0854 97.39 52.0854 96.87V91.68ZM65.5627 86.34C66.9427 86.34 67.9827 86.79 68.6827 87.69C69.4027 88.57 69.7627 89.79 69.7627 91.35V97.2C69.7627 98.82 69.4027 100.07 68.6827 100.95C67.9627 101.81 66.9227 102.24 65.5627 102.24C65.1227 102.24 64.6627 102.16 64.1827 102C63.7027 101.82 63.2627 101.51 62.8627 101.07C62.8227 101.01 62.7827 100.99 62.7427 101.01C62.7027 101.03 62.6827 101.07 62.6827 101.13V107.22C62.6827 107.32 62.6427 107.4 62.5627 107.46C62.5027 107.54 62.4227 107.58 62.3227 107.58H58.8127C58.7127 107.58 58.6227 107.54 58.5427 107.46C58.4827 107.4 58.4527 107.32 58.4527 107.22V86.94C58.4527 86.84 58.4827 86.76 58.5427 86.7C58.6227 86.62 58.7127 86.58 58.8127 86.58H62.3227C62.4227 86.58 62.5027 86.62 62.5627 86.7C62.6427 86.76 62.6827 86.84 62.6827 86.94V87.42C62.6827 87.46 62.7027 87.48 62.7427 87.48C62.8227 87.48 62.9027 87.43 62.9827 87.33C63.6627 86.67 64.5227 86.34 65.5627 86.34ZM65.5327 91.68C65.5327 91.16 65.4027 90.74 65.1427 90.42C64.8827 90.1 64.5327 89.94 64.0927 89.94C63.6727 89.94 63.3327 90.1 63.0727 90.42C62.8127 90.74 62.6827 91.16 62.6827 91.68V96.87C62.6827 97.39 62.8127 97.81 63.0727 98.13C63.3327 98.45 63.6727 98.61 64.0927 98.61C64.5327 98.61 64.8827 98.45 65.1427 98.13C65.4027 97.81 65.5327 97.39 65.5327 96.87V91.68ZM77.2999 102.24C75.5199 102.24 74.1199 101.79 73.0999 100.89C72.0999 99.99 71.5999 98.76 71.5999 97.2V91.38C71.5999 89.86 72.1099 88.64 73.1299 87.72C74.1499 86.8 75.5399 86.34 77.2999 86.34C79.0799 86.34 80.4799 86.8 81.4999 87.72C82.5199 88.64 83.0299 89.86 83.0299 91.38V97.2C83.0299 98.76 82.5199 99.99 81.4999 100.89C80.4999 101.79 79.0999 102.24 77.2999 102.24ZM77.2999 98.58C77.7399 98.58 78.0999 98.42 78.3799 98.1C78.6599 97.78 78.7999 97.37 78.7999 96.87V91.68C78.7999 91.18 78.6599 90.77 78.3799 90.45C78.0999 90.13 77.7399 89.97 77.2999 89.97C76.8599 89.97 76.4999 90.13 76.2199 90.45C75.9599 90.77 75.8299 91.18 75.8299 91.68V96.87C75.8299 97.37 75.9599 97.78 76.2199 98.1C76.4999 98.42 76.8599 98.58 77.2999 98.58ZM91.9814 86.4C92.5214 86.4 92.9414 86.5 93.2414 86.7C93.4014 86.8 93.4614 86.95 93.4214 87.15L92.8514 90.66C92.8314 90.88 92.6914 90.96 92.4314 90.9C92.2114 90.82 91.9414 90.78 91.6214 90.78C91.3214 90.78 91.0614 90.82 90.8414 90.9C90.3814 90.98 90.0114 91.26 89.7314 91.74C89.4514 92.2 89.3114 92.74 89.3114 93.36V101.61C89.3114 101.71 89.2714 101.8 89.1914 101.88C89.1314 101.94 89.0514 101.97 88.9514 101.97H85.4414C85.3414 101.97 85.2514 101.94 85.1714 101.88C85.1114 101.8 85.0814 101.71 85.0814 101.61V86.94C85.0814 86.84 85.1114 86.76 85.1714 86.7C85.2514 86.62 85.3414 86.58 85.4414 86.58H88.9514C89.0514 86.58 89.1314 86.62 89.1914 86.7C89.2714 86.76 89.3114 86.84 89.3114 86.94V88.11C89.3114 88.19 89.3214 88.24 89.3414 88.26C89.3814 88.26 89.4214 88.23 89.4614 88.17C90.0014 86.99 90.8414 86.4 91.9814 86.4ZM101.828 89.19C101.828 89.29 101.788 89.38 101.708 89.46C101.648 89.52 101.568 89.55 101.468 89.55H99.788C99.688 89.55 99.638 89.6 99.638 89.7V96.84C99.638 97.42 99.748 97.82 99.968 98.04C100.188 98.26 100.518 98.36 100.958 98.34H101.168C101.268 98.34 101.348 98.38 101.408 98.46C101.488 98.52 101.528 98.6 101.528 98.7V101.64C101.528 101.74 101.488 101.83 101.408 101.91C101.348 101.97 101.268 102 101.168 102H99.968C98.508 102 97.408 101.76 96.668 101.28C95.928 100.78 95.558 99.84 95.558 98.46V89.7C95.558 89.6 95.508 89.55 95.408 89.55H94.418C94.318 89.55 94.228 89.52 94.148 89.46C94.088 89.38 94.058 89.29 94.058 89.19V86.94C94.058 86.84 94.088 86.76 94.148 86.7C94.228 86.62 94.318 86.58 94.418 86.58H95.408C95.508 86.58 95.558 86.53 95.558 86.43V83.1C95.558 83 95.588 82.92 95.648 82.86C95.728 82.78 95.818 82.74 95.918 82.74H99.278C99.378 82.74 99.458 82.78 99.518 82.86C99.598 82.92 99.638 83 99.638 83.1V86.43C99.638 86.53 99.688 86.58 99.788 86.58H101.468C101.568 86.58 101.648 86.62 101.708 86.7C101.788 86.76 101.828 86.84 101.828 86.94V89.19ZM110.438 86.94C110.438 86.84 110.468 86.76 110.528 86.7C110.608 86.62 110.698 86.58 110.798 86.58H114.308C114.408 86.58 114.488 86.62 114.548 86.7C114.628 86.76 114.668 86.84 114.668 86.94V101.64C114.668 101.74 114.628 101.83 114.548 101.91C114.488 101.97 114.408 102 114.308 102H110.798C110.698 102 110.608 101.97 110.528 101.91C110.468 101.83 110.438 101.74 110.438 101.64V101.13C110.438 101.07 110.418 101.03 110.378 101.01C110.338 100.99 110.298 101.01 110.258 101.07C109.958 101.49 109.578 101.79 109.118 101.97C108.678 102.13 108.158 102.21 107.558 102.21C106.358 102.21 105.368 101.85 104.588 101.13C103.808 100.39 103.418 99.26 103.418 97.74V86.94C103.418 86.84 103.448 86.76 103.508 86.7C103.588 86.62 103.678 86.58 103.778 86.58H107.288C107.388 86.58 107.468 86.62 107.528 86.7C107.608 86.76 107.648 86.84 107.648 86.94V96.81C107.648 97.39 107.758 97.84 107.978 98.16C108.218 98.46 108.558 98.61 108.998 98.61C109.438 98.61 109.788 98.44 110.048 98.1C110.308 97.76 110.438 97.3 110.438 96.72V86.94ZM124.126 86.34C125.486 86.34 126.506 86.79 127.186 87.69C127.866 88.59 128.206 89.85 128.206 91.47V101.64C128.206 101.74 128.166 101.83 128.086 101.91C128.026 101.97 127.946 102 127.846 102H124.336C124.236 102 124.146 101.97 124.066 101.91C124.006 101.83 123.976 101.74 123.976 101.64V91.8C123.976 91.22 123.856 90.77 123.616 90.45C123.396 90.13 123.066 89.97 122.626 89.97C122.166 89.97 121.806 90.14 121.546 90.48C121.306 90.8 121.186 91.26 121.186 91.86V101.64C121.186 101.74 121.146 101.83 121.066 101.91C121.006 101.97 120.926 102 120.826 102H117.316C117.216 102 117.126 101.97 117.046 101.91C116.986 101.83 116.956 101.74 116.956 101.64V86.94C116.956 86.84 116.986 86.76 117.046 86.7C117.126 86.62 117.216 86.58 117.316 86.58H120.826C120.926 86.58 121.006 86.62 121.066 86.7C121.146 86.76 121.186 86.84 121.186 86.94V87.51C121.186 87.57 121.206 87.6 121.246 87.6C121.306 87.6 121.376 87.56 121.456 87.48C122.096 86.72 122.986 86.34 124.126 86.34ZM132.504 84.84C131.824 84.84 131.254 84.62 130.794 84.18C130.354 83.72 130.134 83.15 130.134 82.47C130.134 81.77 130.354 81.2 130.794 80.76C131.234 80.32 131.804 80.1 132.504 80.1C133.204 80.1 133.764 80.32 134.184 80.76C134.624 81.2 134.844 81.77 134.844 82.47C134.844 83.15 134.624 83.72 134.184 84.18C133.744 84.62 133.184 84.84 132.504 84.84ZM130.794 102C130.694 102 130.604 101.97 130.524 101.91C130.464 101.83 130.434 101.74 130.434 101.64V86.94C130.434 86.84 130.464 86.76 130.524 86.7C130.604 86.62 130.694 86.58 130.794 86.58H134.304C134.404 86.58 134.484 86.62 134.544 86.7C134.624 86.76 134.664 86.84 134.664 86.94V101.64C134.664 101.74 134.624 101.83 134.544 101.91C134.484 101.97 134.404 102 134.304 102H130.794ZM143.957 89.19C143.957 89.29 143.917 89.38 143.837 89.46C143.777 89.52 143.697 89.55 143.597 89.55H141.917C141.817 89.55 141.767 89.6 141.767 89.7V96.84C141.767 97.42 141.877 97.82 142.097 98.04C142.317 98.26 142.647 98.36 143.087 98.34H143.297C143.397 98.34 143.477 98.38 143.537 98.46C143.617 98.52 143.657 98.6 143.657 98.7V101.64C143.657 101.74 143.617 101.83 143.537 101.91C143.477 101.97 143.397 102 143.297 102H142.097C140.637 102 139.537 101.76 138.797 101.28C138.057 100.78 137.687 99.84 137.687 98.46V89.7C137.687 89.6 137.637 89.55 137.537 89.55H136.547C136.447 89.55 136.357 89.52 136.277 89.46C136.217 89.38 136.187 89.29 136.187 89.19V86.94C136.187 86.84 136.217 86.76 136.277 86.7C136.357 86.62 136.447 86.58 136.547 86.58H137.537C137.637 86.58 137.687 86.53 137.687 86.43V83.1C137.687 83 137.717 82.92 137.777 82.86C137.857 82.78 137.947 82.74 138.047 82.74H141.407C141.507 82.74 141.587 82.78 141.647 82.86C141.727 82.92 141.767 83 141.767 83.1V86.43C141.767 86.53 141.817 86.58 141.917 86.58H143.597C143.697 86.58 143.777 86.62 143.837 86.7C143.917 86.76 143.957 86.84 143.957 86.94V89.19ZM147.797 84.84C147.117 84.84 146.547 84.62 146.087 84.18C145.647 83.72 145.427 83.15 145.427 82.47C145.427 81.77 145.647 81.2 146.087 80.76C146.527 80.32 147.097 80.1 147.797 80.1C148.497 80.1 149.057 80.32 149.477 80.76C149.917 81.2 150.137 81.77 150.137 82.47C150.137 83.15 149.917 83.72 149.477 84.18C149.037 84.62 148.477 84.84 147.797 84.84ZM146.087 102C145.987 102 145.897 101.97 145.817 101.91C145.757 101.83 145.727 101.74 145.727 101.64V86.94C145.727 86.84 145.757 86.76 145.817 86.7C145.897 86.62 145.987 86.58 146.087 86.58H149.597C149.697 86.58 149.777 86.62 149.837 86.7C149.917 86.76 149.957 86.84 149.957 86.94V101.64C149.957 101.74 149.917 101.83 149.837 101.91C149.777 101.97 149.697 102 149.597 102H146.087ZM163.36 95.25C163.36 95.35 163.32 95.44 163.24 95.52C163.18 95.58 163.1 95.61 163 95.61H156.4C156.3 95.61 156.25 95.66 156.25 95.76V96.87C156.25 97.37 156.38 97.79 156.64 98.13C156.92 98.45 157.27 98.61 157.69 98.61C158.07 98.61 158.38 98.49 158.62 98.25C158.86 97.99 159.02 97.67 159.1 97.29C159.16 97.09 159.29 96.99 159.49 96.99L162.94 97.17C163.04 97.17 163.12 97.21 163.18 97.29C163.26 97.35 163.29 97.44 163.27 97.56C163.13 99.1 162.59 100.27 161.65 101.07C160.73 101.85 159.41 102.24 157.69 102.24C155.91 102.24 154.52 101.8 153.52 100.92C152.52 100.02 152.02 98.78 152.02 97.2V91.38C152.02 89.86 152.52 88.64 153.52 87.72C154.54 86.8 155.93 86.34 157.69 86.34C159.45 86.34 160.83 86.8 161.83 87.72C162.85 88.64 163.36 89.86 163.36 91.38V95.25ZM157.69 89.97C157.27 89.97 156.92 90.13 156.64 90.45C156.38 90.77 156.25 91.18 156.25 91.68V92.85C156.25 92.95 156.3 93 156.4 93H158.98C159.08 93 159.13 92.95 159.13 92.85V91.68C159.13 91.18 158.99 90.77 158.71 90.45C158.45 90.13 158.11 89.97 157.69 89.97ZM170.427 102.21C168.727 102.21 167.367 101.81 166.347 101.01C165.347 100.19 164.847 99.1 164.847 97.74V97.53C164.847 97.43 164.877 97.35 164.937 97.29C165.017 97.21 165.107 97.17 165.207 97.17H168.507C168.607 97.17 168.687 97.21 168.747 97.29C168.827 97.35 168.867 97.43 168.867 97.53V97.62C168.867 98.04 169.017 98.39 169.317 98.67C169.617 98.93 169.987 99.06 170.427 99.06C170.827 99.06 171.137 98.95 171.357 98.73C171.597 98.49 171.717 98.19 171.717 97.83C171.717 97.39 171.527 97.05 171.147 96.81C170.767 96.55 170.337 96.34 169.857 96.18C169.397 96 169.077 95.88 168.897 95.82C167.797 95.42 166.867 94.87 166.107 94.17C165.367 93.45 164.997 92.42 164.997 91.08C164.997 89.62 165.477 88.47 166.437 87.63C167.397 86.79 168.677 86.37 170.277 86.37C171.937 86.37 173.247 86.81 174.207 87.69C175.187 88.57 175.677 89.76 175.677 91.26C175.677 91.36 175.637 91.45 175.557 91.53C175.497 91.59 175.417 91.62 175.317 91.62H172.107C172.007 91.62 171.917 91.59 171.837 91.53C171.777 91.45 171.747 91.36 171.747 91.26V91.02C171.747 90.62 171.617 90.3 171.357 90.06C171.117 89.8 170.797 89.67 170.397 89.67C169.977 89.67 169.647 89.81 169.407 90.09C169.167 90.35 169.047 90.66 169.047 91.02C169.047 91.5 169.247 91.88 169.647 92.16C170.067 92.42 170.697 92.71 171.537 93.03C172.397 93.35 173.127 93.68 173.727 94.02C174.347 94.34 174.877 94.81 175.317 95.43C175.757 96.03 175.977 96.79 175.977 97.71C175.977 99.09 175.467 100.19 174.447 101.01C173.447 101.81 172.107 102.21 170.427 102.21ZM48.0122 120.84C47.3322 120.84 46.7622 120.62 46.3022 120.18C45.8622 119.72 45.6422 119.15 45.6422 118.47C45.6422 117.77 45.8622 117.2 46.3022 116.76C46.7422 116.32 47.3122 116.1 48.0122 116.1C48.7122 116.1 49.2722 116.32 49.6922 116.76C50.1322 117.2 50.3522 117.77 50.3522 118.47C50.3522 119.15 50.1322 119.72 49.6922 120.18C49.2522 120.62 48.6922 120.84 48.0122 120.84ZM46.3022 138C46.2022 138 46.1122 137.97 46.0322 137.91C45.9722 137.83 45.9422 137.74 45.9422 137.64V122.94C45.9422 122.84 45.9722 122.76 46.0322 122.7C46.1122 122.62 46.2022 122.58 46.3022 122.58H49.8122C49.9122 122.58 49.9922 122.62 50.0522 122.7C50.1322 122.76 50.1722 122.84 50.1722 122.94V137.64C50.1722 137.74 50.1322 137.83 50.0522 137.91C49.9922 137.97 49.9122 138 49.8122 138H46.3022ZM59.6147 122.34C60.9747 122.34 61.9947 122.79 62.6747 123.69C63.3547 124.59 63.6947 125.85 63.6947 127.47V137.64C63.6947 137.74 63.6547 137.83 63.5747 137.91C63.5147 137.97 63.4347 138 63.3347 138H59.8247C59.7247 138 59.6347 137.97 59.5547 137.91C59.4947 137.83 59.4647 137.74 59.4647 137.64V127.8C59.4647 127.22 59.3447 126.77 59.1047 126.45C58.8847 126.13 58.5547 125.97 58.1147 125.97C57.6547 125.97 57.2947 126.14 57.0347 126.48C56.7947 126.8 56.6747 127.26 56.6747 127.86V137.64C56.6747 137.74 56.6347 137.83 56.5547 137.91C56.4947 137.97 56.4147 138 56.3147 138H52.8047C52.7047 138 52.6147 137.97 52.5347 137.91C52.4747 137.83 52.4447 137.74 52.4447 137.64V122.94C52.4447 122.84 52.4747 122.76 52.5347 122.7C52.6147 122.62 52.7047 122.58 52.8047 122.58H56.3147C56.4147 122.58 56.4947 122.62 56.5547 122.7C56.6347 122.76 56.6747 122.84 56.6747 122.94V123.51C56.6747 123.57 56.6947 123.6 56.7347 123.6C56.7947 123.6 56.8647 123.56 56.9447 123.48C57.5847 122.72 58.4747 122.34 59.6147 122.34ZM78.7085 117.36C78.7085 117.26 78.7385 117.18 78.7985 117.12C78.8785 117.04 78.9685 117 79.0685 117H82.5785C82.6785 117 82.7585 117.04 82.8185 117.12C82.8985 117.18 82.9385 117.26 82.9385 117.36V137.64C82.9385 137.74 82.8985 137.83 82.8185 137.91C82.7585 137.97 82.6785 138 82.5785 138H79.0685C78.9685 138 78.8785 137.97 78.7985 137.91C78.7385 137.83 78.7085 137.74 78.7085 137.64V137.16C78.7085 137.1 78.6885 137.07 78.6485 137.07C78.6085 137.05 78.5685 137.06 78.5285 137.1C77.8485 137.86 76.9485 138.24 75.8285 138.24C74.4485 138.24 73.4085 137.8 72.7085 136.92C72.0085 136.02 71.6585 134.78 71.6585 133.2V127.38C71.6585 125.76 72.0085 124.52 72.7085 123.66C73.4285 122.78 74.4685 122.34 75.8285 122.34C76.2685 122.34 76.7285 122.43 77.2085 122.61C77.6885 122.77 78.1285 123.07 78.5285 123.51C78.5685 123.55 78.6085 123.57 78.6485 123.57C78.6885 123.55 78.7085 123.51 78.7085 123.45V117.36ZM77.2985 134.61C77.6585 134.61 77.9685 134.49 78.2285 134.25C78.4885 134.01 78.6485 133.69 78.7085 133.29V127.29C78.6485 126.89 78.4885 126.57 78.2285 126.33C77.9685 126.09 77.6585 125.97 77.2985 125.97C76.8785 125.97 76.5385 126.13 76.2785 126.45C76.0185 126.77 75.8885 127.18 75.8885 127.68V132.9C75.8885 133.4 76.0185 133.81 76.2785 134.13C76.5385 134.45 76.8785 134.61 77.2985 134.61ZM87.3579 120.84C86.6779 120.84 86.1079 120.62 85.6479 120.18C85.2079 119.72 84.9879 119.15 84.9879 118.47C84.9879 117.77 85.2079 117.2 85.6479 116.76C86.0879 116.32 86.6579 116.1 87.3579 116.1C88.0579 116.1 88.6179 116.32 89.0379 116.76C89.4779 117.2 89.6979 117.77 89.6979 118.47C89.6979 119.15 89.4779 119.72 89.0379 120.18C88.5979 120.62 88.0379 120.84 87.3579 120.84ZM85.6479 138C85.5479 138 85.4579 137.97 85.3779 137.91C85.3179 137.83 85.2879 137.74 85.2879 137.64V122.94C85.2879 122.84 85.3179 122.76 85.3779 122.7C85.4579 122.62 85.5479 122.58 85.6479 122.58H89.1579C89.2579 122.58 89.3379 122.62 89.3979 122.7C89.4779 122.76 89.5179 122.84 89.5179 122.94V137.64C89.5179 137.74 89.4779 137.83 89.3979 137.91C89.3379 137.97 89.2579 138 89.1579 138H85.6479ZM96.9504 138.21C95.2504 138.21 93.8904 137.81 92.8704 137.01C91.8704 136.19 91.3704 135.1 91.3704 133.74V133.53C91.3704 133.43 91.4004 133.35 91.4604 133.29C91.5404 133.21 91.6304 133.17 91.7304 133.17H95.0304C95.1304 133.17 95.2104 133.21 95.2704 133.29C95.3504 133.35 95.3904 133.43 95.3904 133.53V133.62C95.3904 134.04 95.5404 134.39 95.8404 134.67C96.1404 134.93 96.5104 135.06 96.9504 135.06C97.3504 135.06 97.6604 134.95 97.8804 134.73C98.1204 134.49 98.2404 134.19 98.2404 133.83C98.2404 133.39 98.0504 133.05 97.6704 132.81C97.2904 132.55 96.8604 132.34 96.3804 132.18C95.9204 132 95.6004 131.88 95.4204 131.82C94.3204 131.42 93.3904 130.87 92.6304 130.17C91.8904 129.45 91.5204 128.42 91.5204 127.08C91.5204 125.62 92.0004 124.47 92.9604 123.63C93.9204 122.79 95.2004 122.37 96.8004 122.37C98.4604 122.37 99.7704 122.81 100.73 123.69C101.71 124.57 102.2 125.76 102.2 127.26C102.2 127.36 102.16 127.45 102.08 127.53C102.02 127.59 101.94 127.62 101.84 127.62H98.6304C98.5304 127.62 98.4404 127.59 98.3604 127.53C98.3004 127.45 98.2704 127.36 98.2704 127.26V127.02C98.2704 126.62 98.1404 126.3 97.8804 126.06C97.6404 125.8 97.3204 125.67 96.9204 125.67C96.5004 125.67 96.1704 125.81 95.9304 126.09C95.6904 126.35 95.5704 126.66 95.5704 127.02C95.5704 127.5 95.7704 127.88 96.1704 128.16C96.5904 128.42 97.2204 128.71 98.0604 129.03C98.9204 129.35 99.6504 129.68 100.25 130.02C100.87 130.34 101.4 130.81 101.84 131.43C102.28 132.03 102.5 132.79 102.5 133.71C102.5 135.09 101.99 136.19 100.97 137.01C99.9704 137.81 98.6304 138.21 96.9504 138.21ZM111.024 122.94C111.024 122.84 111.054 122.76 111.114 122.7C111.194 122.62 111.284 122.58 111.384 122.58H114.894C114.994 122.58 115.074 122.62 115.134 122.7C115.214 122.76 115.254 122.84 115.254 122.94V137.28C115.254 139.5 114.724 141.21 113.664 142.41C112.624 143.61 110.744 144.21 108.024 144.21C107.484 144.21 107.064 144.2 106.764 144.18C106.524 144.16 106.404 144.03 106.404 143.79V140.85C106.404 140.59 106.534 140.48 106.794 140.52C107.974 140.56 108.864 140.44 109.464 140.16C110.084 139.9 110.494 139.5 110.694 138.96C110.914 138.42 111.024 137.71 111.024 136.83C111.024 136.77 111.004 136.74 110.964 136.74C110.924 136.74 110.884 136.77 110.844 136.83C110.484 137.31 110.044 137.65 109.524 137.85C109.024 138.03 108.534 138.12 108.054 138.12C106.674 138.12 105.644 137.68 104.964 136.8C104.284 135.9 103.944 134.66 103.944 133.08V127.38C103.944 125.76 104.284 124.52 104.964 123.66C105.664 122.78 106.694 122.34 108.054 122.34C109.274 122.34 110.204 122.79 110.844 123.69C110.884 123.75 110.924 123.77 110.964 123.75C111.004 123.73 111.024 123.69 111.024 123.63V122.94ZM109.584 134.46C110.004 134.46 110.344 134.3 110.604 133.98C110.884 133.66 111.024 133.25 111.024 132.75V127.68C111.024 127.18 110.884 126.77 110.604 126.45C110.344 126.13 110.004 125.97 109.584 125.97C109.164 125.97 108.824 126.13 108.564 126.45C108.304 126.77 108.174 127.18 108.174 127.68V132.75C108.174 133.25 108.304 133.66 108.564 133.98C108.824 134.3 109.164 134.46 109.584 134.46ZM124.296 122.94C124.296 122.84 124.326 122.76 124.386 122.7C124.466 122.62 124.556 122.58 124.656 122.58H128.166C128.266 122.58 128.346 122.62 128.406 122.7C128.486 122.76 128.526 122.84 128.526 122.94V137.64C128.526 137.74 128.486 137.83 128.406 137.91C128.346 137.97 128.266 138 128.166 138H124.656C124.556 138 124.466 137.97 124.386 137.91C124.326 137.83 124.296 137.74 124.296 137.64V137.13C124.296 137.07 124.276 137.03 124.236 137.01C124.196 136.99 124.156 137.01 124.116 137.07C123.816 137.49 123.436 137.79 122.976 137.97C122.536 138.13 122.016 138.21 121.416 138.21C120.216 138.21 119.226 137.85 118.446 137.13C117.666 136.39 117.276 135.26 117.276 133.74V122.94C117.276 122.84 117.306 122.76 117.366 122.7C117.446 122.62 117.536 122.58 117.636 122.58H121.146C121.246 122.58 121.326 122.62 121.386 122.7C121.466 122.76 121.506 122.84 121.506 122.94V132.81C121.506 133.39 121.616 133.84 121.836 134.16C122.076 134.46 122.416 134.61 122.856 134.61C123.296 134.61 123.646 134.44 123.906 134.1C124.166 133.76 124.296 133.3 124.296 132.72V122.94ZM132.944 120.84C132.264 120.84 131.694 120.62 131.234 120.18C130.794 119.72 130.574 119.15 130.574 118.47C130.574 117.77 130.794 117.2 131.234 116.76C131.674 116.32 132.244 116.1 132.944 116.1C133.644 116.1 134.204 116.32 134.624 116.76C135.064 117.2 135.284 117.77 135.284 118.47C135.284 119.15 135.064 119.72 134.624 120.18C134.184 120.62 133.624 120.84 132.944 120.84ZM131.234 138C131.134 138 131.044 137.97 130.964 137.91C130.904 137.83 130.874 137.74 130.874 137.64V122.94C130.874 122.84 130.904 122.76 130.964 122.7C131.044 122.62 131.134 122.58 131.234 122.58H134.744C134.844 122.58 134.924 122.62 134.984 122.7C135.064 122.76 135.104 122.84 135.104 122.94V137.64C135.104 137.74 135.064 137.83 134.984 137.91C134.924 137.97 134.844 138 134.744 138H131.234ZM142.536 138.21C140.836 138.21 139.476 137.81 138.456 137.01C137.456 136.19 136.956 135.1 136.956 133.74V133.53C136.956 133.43 136.986 133.35 137.046 133.29C137.126 133.21 137.216 133.17 137.316 133.17H140.616C140.716 133.17 140.796 133.21 140.856 133.29C140.936 133.35 140.976 133.43 140.976 133.53V133.62C140.976 134.04 141.126 134.39 141.426 134.67C141.726 134.93 142.096 135.06 142.536 135.06C142.936 135.06 143.246 134.95 143.466 134.73C143.706 134.49 143.826 134.19 143.826 133.83C143.826 133.39 143.636 133.05 143.256 132.81C142.876 132.55 142.446 132.34 141.966 132.18C141.506 132 141.186 131.88 141.006 131.82C139.906 131.42 138.976 130.87 138.216 130.17C137.476 129.45 137.106 128.42 137.106 127.08C137.106 125.62 137.586 124.47 138.546 123.63C139.506 122.79 140.786 122.37 142.386 122.37C144.046 122.37 145.356 122.81 146.316 123.69C147.296 124.57 147.786 125.76 147.786 127.26C147.786 127.36 147.746 127.45 147.666 127.53C147.606 127.59 147.526 127.62 147.426 127.62H144.216C144.116 127.62 144.026 127.59 143.946 127.53C143.886 127.45 143.856 127.36 143.856 127.26V127.02C143.856 126.62 143.726 126.3 143.466 126.06C143.226 125.8 142.906 125.67 142.506 125.67C142.086 125.67 141.756 125.81 141.516 126.09C141.276 126.35 141.156 126.66 141.156 127.02C141.156 127.5 141.356 127.88 141.756 128.16C142.176 128.42 142.806 128.71 143.646 129.03C144.506 129.35 145.236 129.68 145.836 130.02C146.456 130.34 146.986 130.81 147.426 131.43C147.866 132.03 148.086 132.79 148.086 133.71C148.086 135.09 147.576 136.19 146.556 137.01C145.556 137.81 144.216 138.21 142.536 138.21ZM160.87 131.25C160.87 131.35 160.83 131.44 160.75 131.52C160.69 131.58 160.61 131.61 160.51 131.61H153.91C153.81 131.61 153.76 131.66 153.76 131.76V132.87C153.76 133.37 153.89 133.79 154.15 134.13C154.43 134.45 154.78 134.61 155.2 134.61C155.58 134.61 155.89 134.49 156.13 134.25C156.37 133.99 156.53 133.67 156.61 133.29C156.67 133.09 156.8 132.99 157 132.99L160.45 133.17C160.55 133.17 160.63 133.21 160.69 133.29C160.77 133.35 160.8 133.44 160.78 133.56C160.64 135.1 160.1 136.27 159.16 137.07C158.24 137.85 156.92 138.24 155.2 138.24C153.42 138.24 152.03 137.8 151.03 136.92C150.03 136.02 149.53 134.78 149.53 133.2V127.38C149.53 125.86 150.03 124.64 151.03 123.72C152.05 122.8 153.44 122.34 155.2 122.34C156.96 122.34 158.34 122.8 159.34 123.72C160.36 124.64 160.87 125.86 160.87 127.38V131.25ZM155.2 125.97C154.78 125.97 154.43 126.13 154.15 126.45C153.89 126.77 153.76 127.18 153.76 127.68V128.85C153.76 128.95 153.81 129 153.91 129H156.49C156.59 129 156.64 128.95 156.64 128.85V127.68C156.64 127.18 156.5 126.77 156.22 126.45C155.96 126.13 155.62 125.97 155.2 125.97ZM164.938 138.12C164.258 138.12 163.688 137.9 163.228 137.46C162.788 137 162.568 136.43 162.568 135.75C162.568 135.05 162.788 134.48 163.228 134.04C163.668 133.6 164.238 133.38 164.938 133.38C165.638 133.38 166.208 133.6 166.648 134.04C167.088 134.48 167.308 135.05 167.308 135.75C167.308 136.43 167.078 137 166.618 137.46C166.178 137.9 165.618 138.12 164.938 138.12Z" fill="#F6F6F6"/>
</svg>
