<svg width="183" height="236" viewBox="0 0 183 236" fill="none" xmlns="http://www.w3.org/2000/svg">
<g opacity="0.1">
<path d="M160.618 225.174L177.93 160.564C179.296 155.466 176.271 150.227 171.173 148.861L106.564 131.549C101.466 130.183 96.2264 133.208 94.8605 138.306L77.5484 202.915C76.1825 208.013 79.2077 213.252 84.3052 214.618L148.915 231.93C154.012 233.296 159.252 230.271 160.618 225.174Z" stroke="#023246" stroke-width="2" stroke-linecap="round" stroke-linejoin="round"/>
<path d="M141.297 168.06C140.273 171.884 142.542 175.813 146.365 176.838C150.188 177.862 154.118 175.593 155.142 171.77C156.167 167.947 153.898 164.017 150.075 162.993C146.251 161.968 142.322 164.237 141.297 168.06Z" stroke="#023246" stroke-width="2" stroke-linecap="round" stroke-linejoin="round"/>
<path d="M102.765 219.565L132.023 202.673L94.8602 138.306" stroke="#023246" stroke-width="2" stroke-linecap="round" stroke-linejoin="round"/>
</g>
<g opacity="0.5">
<path d="M176.701 104.203L143.256 46.2754C140.618 41.705 134.774 40.1391 130.203 42.7778L72.2757 76.2222C67.7053 78.8609 66.1394 84.705 68.7781 89.2754L102.223 147.203C104.861 151.773 110.705 153.339 115.276 150.7L173.203 117.256C177.774 114.617 179.339 108.773 176.701 104.203Z" stroke="#023246" stroke-width="2" stroke-linecap="round" stroke-linejoin="round"/>
<path d="M122.654 77.4787C124.633 80.9064 129.016 82.0809 132.444 80.1018C135.871 78.1228 137.046 73.7397 135.067 70.312C133.088 66.8842 128.705 65.7098 125.277 67.6888C121.849 69.6678 120.675 74.0509 122.654 77.4787Z" stroke="#023246" stroke-width="2" stroke-linecap="round" stroke-linejoin="round"/>
<path d="M131.827 141.145L140.571 108.512L68.7785 89.2758" stroke="#023246" stroke-width="2" stroke-linecap="round" stroke-linejoin="round"/>
</g>
<path d="M77.4444 1H10.5556C5.27817 1 1 5.27817 1 10.5556V77.4444C1 82.7218 5.27817 87 10.5556 87H77.4444C82.7218 87 87 82.7218 87 77.4444V10.5556C87 5.27817 82.7218 1 77.4444 1Z" stroke="#023246" stroke-width="2" stroke-linecap="round" stroke-linejoin="round"/>
<path d="M27.278 34.4447C31.236 34.4447 34.4447 31.236 34.4447 27.278C34.4447 23.32 31.236 20.1113 27.278 20.1113C23.32 20.1113 20.1113 23.32 20.1113 27.278C20.1113 31.236 23.32 34.4447 27.278 34.4447Z" stroke="#023246" stroke-width="2" stroke-linecap="round" stroke-linejoin="round"/>
<path d="M87.0001 58.3342L63.1112 34.4453L10.5557 87.0009" stroke="#023246" stroke-width="2" stroke-linecap="round" stroke-linejoin="round"/>
</svg>
