<svg width="126" height="150" viewBox="0 0 126 150" fill="none" xmlns="http://www.w3.org/2000/svg">
<mask id="mask0" mask-type="alpha" maskUnits="userSpaceOnUse" x="0" y="0" width="126" height="150">
<rect width="126" height="150" fill="#C4C4C4"/>
</mask>
<g mask="url(#mask0)">
<path fill-rule="evenodd" clip-rule="evenodd" d="M26.1221 130.187C26.1221 130.187 32.626 160.286 35.7662 169.946H46.6304C46.6304 169.946 45.219 145.677 45.8134 137.359C45.8134 137.359 49.1615 137.746 50.1736 137.428V130.234L26.1221 130.187Z" fill="#151514"/>
<path fill-rule="evenodd" clip-rule="evenodd" d="M73.6759 130.187C73.6759 130.187 67.1283 160.286 63.9876 169.946H53.1235C53.1235 169.946 54.5786 145.677 53.9842 137.359C53.9842 137.359 50.7258 137.746 49.6677 137.428V130.234L73.6759 130.187Z" fill="#151514"/>
<path fill-rule="evenodd" clip-rule="evenodd" d="M13.9441 94.8383C15.7626 90.4008 18.6654 86.3359 22.6171 83.6199C21.7039 81.8869 20.3597 80.3831 18.739 79.2836C16.2015 77.558 15.0555 79.5435 13.594 81.374C11.9737 83.4064 10.5168 85.5626 9.25357 87.8361C6.75927 92.32 5.00655 97.2166 4.0897 102.264C3.57262 105.104 3.32006 107.992 3.35134 110.879C3.39781 115.375 4.09752 119.828 4.83956 124.266C4.83956 124.266 3.67475 129.618 4.32248 131.261C4.32248 131.261 4.66014 135.763 7.70234 137.373C7.70234 137.373 10.3848 139.113 10.6558 137.416C10.6558 137.416 14.5311 138.658 14.2394 135.611C14.2394 135.611 18.4271 136.924 17.6579 132.841C17.6579 132.841 20.8538 133.133 19.1774 129.864C19.1774 129.864 18.7634 129.12 18.6622 126.814C18.6622 126.814 18.4322 124.17 15.5353 123.323C15.5353 123.323 15.2322 122.674 13.2798 119.96C12.7471 119.198 12.3197 118.363 11.9972 117.5C10.987 114.765 10.9401 111.777 11.0955 108.866C11.3481 104.078 12.1292 99.2758 13.9441 94.8383Z" fill="#F4BD8D"/>
<path fill-rule="evenodd" clip-rule="evenodd" d="M89.7421 82.429L81.3313 91.2446L75.7727 89.1368L71.7309 119.707C71.7309 119.707 66.2082 122.79 50.6719 122.497C36.4141 122.572 28.1561 119.707 28.1561 119.707L24.8765 89.1368L19.3184 91.2446L10.9071 82.429L30.9268 69.5035L31.4752 69.1534H31.5143L48.5171 69.0991V69.0871L50.3094 69.0931L52.1054 69.0871V69.0991L69.1349 69.1534H69.1708L69.4592 69.3369L89.7421 82.429Z" fill="#FFFFFE"/>
<path fill-rule="evenodd" clip-rule="evenodd" d="M88.7118 79.4033L84.1607 94.2476L78.0947 91.5858L73.6843 130.191C73.6843 130.191 67.6574 134.085 50.7038 133.716C35.1451 133.809 26.1335 130.191 26.1335 130.191L22.5549 91.5858L16.4893 94.2476L12.1508 79.205L29.1568 66.7901L29.7553 66.347H29.7981L39.0668 71.5841L50.195 106.392L61.3932 71.2703L70.8515 66.347H70.8906L71.2052 66.5803L88.7118 79.4033Z" fill="#023246"/>
<path fill-rule="evenodd" clip-rule="evenodd" d="M50.2826 106.376L50.2511 106.342L50.2649 106.326L50.2826 106.376Z" fill="#2D373E"/>
<path fill-rule="evenodd" clip-rule="evenodd" d="M50.2165 106.306L50.2128 106.301L50.2214 106.291L50.2165 106.306Z" fill="#C7C6C1"/>
<path fill-rule="evenodd" clip-rule="evenodd" d="M50.2476 106.338L50.2434 106.334L50.2533 106.322L50.2476 106.338Z" fill="#2D373E"/>
<path fill-rule="evenodd" clip-rule="evenodd" d="M28.745 67.0905L29.5767 66.4216V66.4791L29.1567 66.7901L28.745 67.091" fill="#A7B1A8"/>
<path fill-rule="evenodd" clip-rule="evenodd" d="M29.5769 66.479V66.4215L29.7439 66.2877C29.7618 66.3074 29.7802 66.3272 29.7982 66.347H29.7554L29.5769 66.479Z" fill="#8E9F9C"/>
<path fill-rule="evenodd" clip-rule="evenodd" d="M47.4472 103.24L30.5865 84.5933L31.0028 84.2345L47.4472 103.24ZM32.7919 82.6925L33.7727 81.8469L28.8871 79.4704L28.745 67.0905L29.1567 66.7901L29.5767 66.4791L29.7552 66.347H29.798H29.7552L29.1567 66.7905C29.2708 66.9244 29.3872 67.0564 29.5054 67.1866L29.3821 79.0366L34.2143 81.5194L32.7919 82.6925Z" fill="#023246"/>
<path fill-rule="evenodd" clip-rule="evenodd" d="M50.2426 106.353L50.2479 106.337L50.2527 106.342L50.2426 106.353Z" fill="#2D373E"/>
<path fill-rule="evenodd" clip-rule="evenodd" d="M70.887 66.3481H70.8516C70.857 66.3427 70.8619 66.3373 70.8668 66.3318L70.887 66.3481Z" fill="#A7B1A8"/>
<path fill-rule="evenodd" clip-rule="evenodd" d="M50.2645 106.326L50.2604 106.313L69.4212 84.1953L66.1757 81.5193L71.0079 79.0365L70.8827 66.9597C70.9876 66.8396 71.0911 66.7177 71.1932 66.5953L71.7784 67.0659L71.6367 79.4459L66.7512 81.8224L69.9374 84.5688L50.2645 106.326Z" fill="#023246"/>
<path fill-rule="evenodd" clip-rule="evenodd" d="M50.2514 106.343L50.2469 106.338L50.2524 106.323L50.2613 106.313L50.2658 106.327L50.2514 106.343Z" fill="#242C31"/>
<path fill-rule="evenodd" clip-rule="evenodd" d="M63.3573 66.4646L60.161 84.6023L50.1267 74.8542L63.3573 66.4646Z" fill="#E7E5E1"/>
<path fill-rule="evenodd" clip-rule="evenodd" d="M36.829 66.4646L40.2829 84.3525L50.0572 74.8542L36.829 66.4646Z" fill="#E7E5E1"/>
<path fill-rule="evenodd" clip-rule="evenodd" d="M35.8382 61.7918L29.5109 66.6567L29.3821 79.0367L34.2143 81.5195L30.9687 84.1955L50.1829 106.402L35.8382 61.7918Z" fill="#023246"/>
<path fill-rule="evenodd" clip-rule="evenodd" d="M64.5524 61.7918L70.8796 66.6567L71.008 79.0367L66.1758 81.5195L69.4213 84.1955L50.1832 106.402L64.5524 61.7918Z" fill="#023246"/>
<path fill-rule="evenodd" clip-rule="evenodd" d="M50.094 75.8025C49.7651 75.8025 49.4444 75.7845 49.1334 75.7519L50.0194 74.8911C50.0691 74.893 50.1184 74.8939 50.1685 74.8948L51.0509 75.7523C50.7408 75.7845 50.4215 75.8025 50.094 75.8025Z" fill="#FFFFFE"/>
<path fill-rule="evenodd" clip-rule="evenodd" d="M29.5769 66.1012C28.6526 65.0564 27.8526 63.9054 27.2003 62.6721C27.8522 63.904 28.6522 65.0537 29.5769 66.1003V66.1012Z" fill="#A7B1A8"/>
<path fill-rule="evenodd" clip-rule="evenodd" d="M29.7439 66.2878C29.6878 66.2257 29.6321 66.164 29.5769 66.1014V66.1005C29.6321 66.1631 29.6882 66.2257 29.7439 66.2873V66.2878Z" fill="#8E9F9C"/>
<path fill-rule="evenodd" clip-rule="evenodd" d="M29.8013 66.3497L29.8003 66.3492C29.7817 66.3287 29.7626 66.3082 29.744 66.2876V66.2872C29.7607 66.3053 29.7774 66.3235 29.7936 66.3416C29.7965 66.3445 29.7989 66.3468 29.8013 66.3497Z" fill="#71807C"/>
<path fill-rule="evenodd" clip-rule="evenodd" d="M29.5057 67.1866C29.3875 67.0564 29.2711 66.9244 29.157 66.7905L29.7555 66.347H29.7983L29.7992 66.3475C29.8148 66.3645 29.8309 66.382 29.8461 66.399L29.5112 66.6566L29.5057 67.1866Z" fill="#242C31"/>
<path fill-rule="evenodd" clip-rule="evenodd" d="M70.8658 66.3318L70.8599 66.3267C72.6568 64.3633 73.9973 62.013 74.7417 59.4345C74.7458 59.4211 74.7495 59.4078 74.7532 59.394C74.75 59.4087 74.7467 59.4234 74.7435 59.4381C73.9992 62.0157 72.6618 64.3568 70.8658 66.3318Z" fill="#A7B1A8"/>
<path fill-rule="evenodd" clip-rule="evenodd" d="M71.1934 66.5954L70.8848 66.347H70.8908L71.2054 66.5803C71.2013 66.5853 71.1976 66.5904 71.1934 66.5954Z" fill="#2D373E"/>
<path fill-rule="evenodd" clip-rule="evenodd" d="M70.8317 66.3596C70.8376 66.3533 70.8435 66.3469 70.8489 66.3405C70.8533 66.336 70.8572 66.3316 70.8617 66.3267L70.8681 66.3321C70.8632 66.3375 70.8582 66.3429 70.8528 66.3483L70.8317 66.3596Z" fill="#838D85"/>
<path fill-rule="evenodd" clip-rule="evenodd" d="M70.8827 66.9598L70.8795 66.6566L70.6895 66.5108C70.7373 66.4598 70.7847 66.4087 70.8316 66.3576L70.8514 66.347H70.8845L71.1932 66.5955C71.0911 66.7178 70.9876 66.8397 70.8827 66.9598Z" fill="#242C31"/>
<path fill-rule="evenodd" clip-rule="evenodd" d="M75.3833 32.5604V54.8223C75.3833 56.4154 75.1653 57.9657 74.7416 59.4346C73.9959 62.0186 72.6512 64.3735 70.8479 66.3397C67.4519 70.0545 62.4564 72.4094 56.9075 72.4094C56.9075 72.4094 54.2039 74.8963 50.3221 74.8963C46.444 74.8963 43.7363 72.4094 43.7363 72.4094C38.1911 72.4094 33.1882 70.0545 29.7918 66.3397C26.963 63.2506 25.2397 59.217 25.2397 54.8223V32.5604C25.2397 31.3128 25.3856 30.0868 25.646 28.9132C27.4217 20.9708 34.8807 14.9613 43.7368 14.9613H56.9093C67.0788 14.9613 75.3833 22.8886 75.3833 32.5604Z" fill="#F4BD8D"/>
<path fill-rule="evenodd" clip-rule="evenodd" d="M61.0348 59.9853C60.1299 62.4326 57.8279 65.3621 52.1299 66.8269C52.1299 66.8269 43.7701 69.3718 39.853 60.4913C39.6924 60.1458 39.5466 59.781 39.4104 59.401C39.4104 59.401 49.147 64.1164 61.5261 55.9756C61.5261 55.9756 61.8477 57.7858 61.0348 59.9853Z" fill="#FFFFFE"/>
<path fill-rule="evenodd" clip-rule="evenodd" d="M39.7496 59.7524C39.8416 59.9866 39.9341 60.2037 40.0293 60.4089C43.831 69.0276 51.7367 66.7431 52.0702 66.6409C57.8192 65.1629 60.0182 62.169 60.8462 59.9176V59.918C61.4443 58.3107 61.4153 56.903 61.3661 56.3091C50.5985 63.2523 41.7521 60.5239 39.7496 59.7524ZM49.4623 67.3439C46.6142 67.3439 42.2075 66.3097 39.6755 60.5694C39.5219 60.2396 39.3751 59.878 39.2275 59.4667L39.0669 59.0196L39.4952 59.2261C39.5909 59.2726 49.2838 63.7933 61.4194 55.8127L61.666 55.6508L61.7157 55.9415C61.7295 56.0174 62.0423 57.8295 61.2143 60.0524V60.0528C60.3402 62.3912 58.081 65.4973 52.1769 67.015C52.1493 67.0232 51.0475 67.3439 49.4623 67.3439Z" fill="#F1CDB1"/>
<path fill-rule="evenodd" clip-rule="evenodd" d="M61.035 59.9854C60.1301 62.4328 57.8281 65.3623 52.1301 66.827C52.1301 66.827 43.7703 69.3719 39.8531 60.4914C43.9456 62.7488 52.7286 66.1503 61.035 59.9854Z" fill="#B53A2E"/>
<path fill-rule="evenodd" clip-rule="evenodd" d="M76.1802 54.6602L75.544 55.3728C75.544 55.3728 75.3121 43.872 74.5632 40.9885C74.5632 40.9885 72.8592 34.496 70.2186 33.2227C70.2186 33.2227 72.5409 25.2264 66.4735 22.5729C66.4735 22.5729 59.1143 30.0029 47.0923 29.9495C47.0923 29.9495 38.7215 30.5867 31.1374 25.3855C31.1374 25.3855 29.3396 28.3578 30.8007 32.2317C30.8007 32.2317 25.9128 37.3795 25.295 43.6953C25.295 43.6953 25.0447 51.958 25.4307 54.0829C25.4307 54.0829 24.9854 53.8823 23.2934 52.061C21.9289 50.5917 21.369 48.6986 20.8989 46.7955C19.4438 40.9089 19.4351 31.9093 20.7071 27.1015C20.7071 27.1015 22.5798 19.0348 24.2277 18.3981C24.2277 18.3981 20.4826 6.93464 21.2688 3.99806C21.2688 3.99806 23.4788 9.58816 30.8568 8.91591C30.8568 8.91591 27.7106 4.59951 28.4223 0C28.4223 0 34.0402 4.13952 39.9949 3.04275C39.9949 3.04275 43.78 2.63641 46.2316 1.70525C47.2703 1.31082 48.3385 0.989165 49.4394 0.797239C53.6303 0.0665676 62.5904 -0.733524 66.923 4.63484C66.923 4.63484 70.3497 8.19062 70.9114 11.7729C70.9114 11.7729 80.1245 18.221 80.574 29.472C80.574 29.472 81.3832 37.6371 80.3233 44.8307C79.9534 47.3392 79.1562 49.7737 77.9799 52.0495C77.4959 52.9866 76.8914 53.863 76.1802 54.6602Z" fill="#423D3A"/>
<path fill-rule="evenodd" clip-rule="evenodd" d="M23.2356 8.77438C23.2356 8.77438 30.6513 34.8144 57.6916 25.4743C57.6916 25.4743 31.0258 27.1723 23.2356 8.77438Z" fill="#5E5C58"/>
<path fill-rule="evenodd" clip-rule="evenodd" d="M30.5933 3.8978C30.5933 3.8978 39.0335 26.6933 62.5325 16.6674C62.5325 16.6674 38.8348 19.8448 30.5933 3.8978Z" fill="#5E5C58"/>
<path fill-rule="evenodd" clip-rule="evenodd" d="M38.1761 43.0107C37.6135 43.6042 37.3701 44.515 37.6613 45.2791C37.8702 45.828 38.3302 46.2608 38.8634 46.5083C39.3961 46.7554 39.9978 46.829 40.5844 46.7977C41.2694 46.7609 41.9617 46.5773 42.5128 46.1688C43.0639 45.7608 43.4554 45.1062 43.4449 44.4203C43.4347 43.7288 43.0166 43.0816 42.4447 42.6919C41.4819 42.0359 40.0236 41.9425 38.9743 42.4398C38.6766 42.5806 38.4029 42.772 38.1761 43.0107Z" fill="#34292E"/>
<path fill-rule="evenodd" clip-rule="evenodd" d="M40.9369 42.6494C40.6816 42.6361 40.4046 42.7331 40.2735 42.953C40.1323 43.1899 40.1958 43.4963 40.3076 43.7489C40.504 44.1905 40.8384 44.5701 41.2525 44.8199C41.5386 44.9924 41.9006 45.1028 42.2038 44.9629C42.4683 44.8406 42.6261 44.5438 42.6307 44.2522C42.6358 43.961 42.5069 43.6794 42.3243 43.4526C41.9903 43.0368 41.4848 42.6784 40.9369 42.6494Z" fill="#FFFFFE"/>
<path fill-rule="evenodd" clip-rule="evenodd" d="M58.3823 43.0107C57.8197 43.6042 57.5763 44.515 57.8671 45.2791C58.0764 45.828 58.536 46.2608 59.0692 46.5083C59.6023 46.7554 60.2036 46.829 60.7901 46.7977C61.4751 46.7609 62.1679 46.5773 62.7191 46.1688C63.2702 45.7608 63.6612 45.1062 63.6511 44.4203C63.6405 43.7288 63.2223 43.0816 62.6505 42.6919C61.6877 42.0359 60.2294 41.9425 59.18 42.4398C58.8828 42.5806 58.6087 42.772 58.3823 43.0107Z" fill="#34292E"/>
<path fill-rule="evenodd" clip-rule="evenodd" d="M61.1435 42.6494C60.8882 42.6361 60.6108 42.7331 60.4797 42.953C60.3384 43.1899 60.4019 43.4963 60.5142 43.7489C60.7106 44.1905 61.0451 44.5701 61.4591 44.8199C61.7448 44.9924 62.1068 45.1028 62.41 44.9629C62.675 44.8406 62.8323 44.5438 62.8374 44.2522C62.842 43.961 62.7132 43.6794 62.5305 43.4526C62.1965 43.0368 61.6909 42.6784 61.1435 42.6494Z" fill="#FFFFFE"/>
<path fill-rule="evenodd" clip-rule="evenodd" d="M70.5448 49.5993C68.8353 51.5425 66.6281 52.428 64.2074 52.4906C62.1984 52.4713 60.4806 51.9657 58.9497 50.8777C55.0403 48.1111 54.5122 42.7835 57.8074 39.3953C61.1527 35.9561 66.9041 35.9483 70.2573 39.3797C73.0552 42.2356 73.1914 46.5994 70.5448 49.5993ZM42.7537 50.8777C41.2227 51.9657 39.5049 52.4713 37.496 52.4906C35.0753 52.428 32.868 51.5425 31.1581 49.5993C28.512 46.5994 28.6482 42.2356 31.4461 39.3797C34.7993 35.9483 40.5501 35.9561 43.896 39.3953C47.1912 42.7835 46.6626 48.1111 42.7537 50.8777ZM75.8839 39.877C75.7561 39.3176 75.48 38.968 74.8387 38.8861C73.9178 38.7697 73.086 38.3616 72.309 37.8565C70.4753 36.6673 68.4972 35.8439 66.3212 35.5324C64.3629 35.2532 62.4431 35.4588 60.5197 35.8784C58.4445 36.3255 56.7967 37.4719 55.2698 38.8511C54.9395 39.1506 54.6212 39.4652 54.2982 39.7721C53.7352 40.3043 53.3073 40.3471 52.6545 39.9239C52.0602 39.5389 51.458 39.3332 50.8517 39.2826C50.2454 39.3332 49.6432 39.5389 49.0488 39.9239C48.3956 40.3471 47.9686 40.3043 47.4051 39.7721C47.0822 39.4652 46.7638 39.1506 46.4335 38.8511C44.9062 37.4719 43.2588 36.3255 41.1836 35.8784C39.2602 35.4588 37.3405 35.2532 35.3821 35.5324C33.2062 35.8439 31.2285 36.6673 29.3943 37.8565C28.6169 38.3616 27.7851 38.7697 26.8646 38.8861C26.2233 38.968 25.9473 39.3176 25.8194 39.877C25.7568 40.1645 25.7182 40.4562 25.6635 40.7474V41.851C25.8194 42.0299 25.9395 42.2668 26.1341 42.3832C26.8839 42.8382 27.2878 43.491 27.459 44.3379C27.6181 45.1305 27.7971 45.9273 28.0381 46.7006C28.7181 48.8922 29.8682 50.7342 31.8615 52.0048C34.3719 53.6057 37.0295 54.3169 39.9751 53.551C42.0775 53.0072 43.9737 52.0784 45.4854 50.4738C46.7367 49.1485 47.5178 47.5595 48.0657 45.8418C48.2364 45.3173 48.3684 44.7846 48.5395 44.2602C48.765 43.5687 49.2393 43.1138 49.9657 43.0282C50.2569 42.9974 50.5563 42.9781 50.8517 42.9702C51.147 42.9781 51.446 42.9974 51.7377 43.0282C52.4641 43.1138 52.9384 43.5687 53.1638 44.2602C53.3345 44.7846 53.467 45.3173 53.6376 45.8418C54.1855 47.5595 54.9667 49.1485 56.218 50.4738C57.7296 52.0784 59.6259 53.0072 61.7278 53.551C64.6734 54.3169 67.3315 53.6057 69.8419 52.0048C71.8352 50.7342 72.9853 48.8922 73.6652 46.7006C73.9063 45.9273 74.0852 45.1305 74.2444 44.3379C74.4151 43.491 74.8194 42.8382 75.5693 42.3832C75.7634 42.2668 75.884 42.0299 76.0394 41.851V40.7474C75.9852 40.4562 75.9465 40.1645 75.8839 39.877Z" fill="#2D2E2C"/>
<path fill-rule="evenodd" clip-rule="evenodd" d="M37.4958 52.491C35.0751 52.4285 32.8679 51.5429 31.1579 49.5997C29.8869 48.1584 29.2575 46.402 29.2571 44.6498C29.2571 42.7544 29.9922 40.8637 31.4459 39.3801C33.1195 37.6674 35.3911 36.8117 37.6619 36.8117C39.9413 36.8117 42.2199 37.6729 43.8958 39.3957C45.3536 40.8945 46.063 42.7728 46.0625 44.6415C46.0616 46.9964 44.9331 49.3357 42.7535 50.8781C41.2225 51.9661 39.5048 52.4717 37.4958 52.491ZM40.4648 42.1242C39.9399 42.1242 39.4201 42.2286 38.9739 42.4402C38.6762 42.581 38.4025 42.7724 38.1757 43.0111C37.6131 43.6046 37.3697 44.5154 37.6609 45.2795C37.8698 45.8284 38.3298 46.2613 38.863 46.5087C39.3198 46.7208 39.8272 46.805 40.3324 46.805C40.4161 46.805 40.5003 46.8027 40.584 46.7981C41.269 46.7613 41.9613 46.5778 42.5124 46.1692C43.0636 45.7612 43.455 45.1066 43.4445 44.4207C43.4343 43.7292 43.0162 43.082 42.4444 42.6923C41.8909 42.3151 41.1737 42.1242 40.4648 42.1242Z" fill="#FFEED2"/>
<path fill-rule="evenodd" clip-rule="evenodd" d="M40.3327 46.8048C39.8276 46.8048 39.3202 46.7207 38.8634 46.5086C38.3302 46.2611 37.8702 45.8282 37.6613 45.2794C37.3701 44.5152 37.6135 43.6044 38.1761 43.0109C38.4029 42.7722 38.6766 42.5808 38.9743 42.44C39.4205 42.2284 39.9403 42.124 40.4652 42.124C41.1741 42.124 41.8913 42.3149 42.4447 42.6921C43.0166 43.0818 43.4347 43.729 43.4449 44.4205C43.4554 45.1064 43.0639 45.761 42.5128 46.1691C41.9617 46.5776 41.2694 46.7611 40.5844 46.7979C40.5006 46.8025 40.4165 46.8048 40.3327 46.8048ZM40.8912 42.6484C40.6492 42.6484 40.3967 42.7464 40.2739 42.9529C40.1326 43.1899 40.1961 43.4963 40.3079 43.7488C40.5043 44.1904 40.8388 44.57 41.2528 44.8198C41.4479 44.9376 41.6788 45.0263 41.9019 45.0263C42.0059 45.0263 42.108 45.0075 42.2041 44.9629C42.4687 44.8405 42.6265 44.5438 42.6311 44.2521C42.6361 43.9609 42.5073 43.6793 42.3247 43.4525C41.9907 43.0367 41.4851 42.6783 40.9372 42.6493C40.922 42.6484 40.9064 42.6484 40.8912 42.6484Z" fill="#968F90"/>
<path fill-rule="evenodd" clip-rule="evenodd" d="M41.9016 45.0261C41.6784 45.0261 41.4475 44.9373 41.2525 44.8195C40.8384 44.5697 40.504 44.1902 40.3076 43.7486C40.1958 43.496 40.1323 43.1896 40.2735 42.9527C40.3963 42.7462 40.6489 42.6482 40.8909 42.6482C40.9061 42.6482 40.9217 42.6482 40.9369 42.6491C41.4848 42.6781 41.9903 43.0365 42.3243 43.4523C42.5069 43.6791 42.6358 43.9607 42.6307 44.2519C42.6261 44.5435 42.4683 44.8402 42.2038 44.9626C42.1076 45.0072 42.0055 45.0261 41.9016 45.0261Z" fill="#FFFFFE"/>
<path fill-rule="evenodd" clip-rule="evenodd" d="M64.2074 52.491C62.1984 52.4717 60.4806 51.9661 58.9496 50.8781C56.77 49.3357 55.6411 46.9964 55.6406 44.6415C55.6402 42.7728 56.3495 40.8945 57.8074 39.3957C59.4828 37.6734 61.7618 36.8117 64.0413 36.8117C66.3125 36.8117 68.5837 37.6674 70.2573 39.3801C71.711 40.8637 72.4461 42.7544 72.4456 44.6498C72.4456 46.402 71.8163 48.1584 70.5448 49.5997C68.8353 51.5429 66.6281 52.4285 64.2074 52.491ZM60.6711 42.1242C60.1466 42.1242 59.6264 42.2286 59.1801 42.4402C58.8829 42.581 58.6088 42.7724 58.3824 43.0111C57.8198 43.6046 57.5764 44.5154 57.8672 45.2795C58.0765 45.8284 58.5361 46.2613 59.0693 46.5087C59.5261 46.7208 60.0335 46.805 60.5386 46.805C60.6228 46.805 60.7065 46.8027 60.7902 46.7981C61.4752 46.7613 62.168 46.5778 62.7192 46.1692C63.2703 45.7612 63.6613 45.1066 63.6512 44.4207C63.6406 43.7292 63.2224 43.082 62.6506 42.6923C62.0972 42.3151 61.38 42.1242 60.6711 42.1242Z" fill="#FFEED2"/>
<path fill-rule="evenodd" clip-rule="evenodd" d="M60.5385 46.8048C60.0334 46.8048 59.526 46.7207 59.0692 46.5086C58.536 46.2611 58.0764 45.8282 57.8671 45.2794C57.5763 44.5152 57.8197 43.6044 58.3823 43.0109C58.6087 42.7722 58.8828 42.5808 59.18 42.44C59.6263 42.2284 60.1466 42.124 60.671 42.124C61.3799 42.124 62.0971 42.3149 62.6505 42.6921C63.2223 43.0818 63.6405 43.729 63.6511 44.4205C63.6612 45.1064 63.2702 45.761 62.7191 46.1691C62.1679 46.5776 61.4751 46.7611 60.7901 46.7979C60.7064 46.8025 60.6227 46.8048 60.5385 46.8048ZM61.097 42.6484C60.855 42.6484 60.6029 42.7464 60.4796 42.9529C60.3384 43.1899 60.4019 43.4963 60.5141 43.7488C60.7106 44.1904 61.045 44.57 61.459 44.8198C61.6541 44.9376 61.8846 45.0263 62.1081 45.0263C62.2116 45.0263 62.3138 45.0075 62.4099 44.9629C62.6749 44.8405 62.8322 44.5438 62.8373 44.2521C62.8419 43.9609 62.7131 43.6793 62.5305 43.4525C62.1965 43.0367 61.6909 42.6783 61.1434 42.6493C61.1278 42.6484 61.1126 42.6484 61.097 42.6484Z" fill="#968F90"/>
<path fill-rule="evenodd" clip-rule="evenodd" d="M62.1082 45.0261C61.8846 45.0261 61.6542 44.9373 61.4591 44.8195C61.0451 44.5697 60.7106 44.1902 60.5142 43.7486C60.4019 43.496 60.3384 43.1896 60.4797 42.9527C60.603 42.7462 60.8551 42.6482 61.097 42.6482C61.1127 42.6482 61.1279 42.6482 61.1435 42.6491C61.6909 42.6781 62.1965 43.0365 62.5305 43.4523C62.7132 43.6791 62.842 43.9607 62.8374 44.2519C62.8323 44.5435 62.675 44.8402 62.41 44.9626C62.3138 45.0072 62.2117 45.0261 62.1082 45.0261Z" fill="#FFFFFE"/>
<path fill-rule="evenodd" clip-rule="evenodd" d="M31.4119 33.208C31.4119 33.208 32.2615 30.9497 36.3287 30.6028C36.3287 30.6028 44.4994 29.9947 45.9458 32.685L39.5416 32.1532C39.0484 32.1122 38.5511 32.1007 38.0552 32.1233C36.6862 32.1849 33.8795 32.4071 31.4119 33.208Z" fill="#35322F"/>
<path fill-rule="evenodd" clip-rule="evenodd" d="M69.3897 33.208C69.3897 33.208 68.54 30.9497 64.4729 30.6028C64.4729 30.6028 56.3023 29.9947 54.8564 32.685L61.2601 32.1532C61.7532 32.1122 62.251 32.1007 62.7464 32.1233C64.1155 32.1849 66.9226 32.4071 69.3897 33.208Z" fill="#35322F"/>
<path fill-rule="evenodd" clip-rule="evenodd" d="M15.4534 97.1133C19.388 92.6607 20.4392 93.1023 24.3909 90.3858C23.4777 88.6528 19.5334 81.0729 18.7389 79.2833C17.1693 75.7461 16.3766 77.0204 13.1058 78.6209C10.8351 79.7328 6.17633 84.2347 4.91308 86.5082C2.41878 90.9921 1.45915 94.2188 0.541844 99.2667C0.0247669 102.107 -0.180408 107.38 0.185318 110.244C0.788882 114.965 2.1607 120.088 3.81222 123.65C3.81222 123.65 12.7364 121.703 15.8421 121.108C15.8421 121.108 13.0649 113.644 12.7336 110.519C12.2281 105.752 12.2791 100.706 15.4534 97.1133Z" fill="#023246"/>
<path fill-rule="evenodd" clip-rule="evenodd" d="M100.675 92.0315C94.9396 90.4798 94.3047 91.4265 89.5102 91.3341C89.3189 89.3844 88.4407 80.8849 88.1186 78.9532C87.4824 75.1363 88.8455 75.7638 92.4572 75.3001C94.9653 74.9785 101.333 76.1732 103.638 77.3762C108.189 79.7472 110.767 81.913 114.31 85.6223C116.305 87.7095 119.379 91.9993 120.649 94.5916C122.744 98.8653 124.418 103.898 125 107.781C125 107.781 116.477 111.066 113.557 112.279C113.557 112.279 111.768 104.519 110.324 101.728C108.122 97.4691 105.303 93.2841 100.675 92.0315Z" fill="#023246"/>
<path fill-rule="evenodd" clip-rule="evenodd" d="M115.498 148.097H61.926C60.7534 148.097 59.803 147.146 59.803 145.974V74.884C59.803 73.7118 60.7534 72.7614 61.926 72.7614H115.498C116.671 72.7614 117.621 73.7118 117.621 74.884V145.974C117.621 147.146 116.671 148.097 115.498 148.097Z" fill="#757575"/>
<path fill-rule="evenodd" clip-rule="evenodd" d="M65 141.433H112.394V78.242H65V141.433Z" fill="#FFFFFE"/>
<path fill-rule="evenodd" clip-rule="evenodd" d="M69 102.912H76.3679V95.5443H69V102.912Z" fill="#757575"/>
<path fill-rule="evenodd" clip-rule="evenodd" d="M69.1527 116.727H76.5206V109.359H69.1527V116.727Z" fill="#757575"/>
<path fill-rule="evenodd" clip-rule="evenodd" d="M69.1527 130.542H76.5206V123.174H69.1527V130.542Z" fill="#757575"/>
<path fill-rule="evenodd" clip-rule="evenodd" d="M97.3757 75.6416H81.183C79.9432 75.6416 78.938 76.6467 78.938 77.887V82.2154H99.6207V77.887C99.6207 76.6467 98.6155 75.6416 97.3757 75.6416Z" fill="#023246"/>
<path fill-rule="evenodd" clip-rule="evenodd" d="M90.6367 76.854H87.2711C86.2591 76.854 85.4305 76.026 85.4305 75.0139V71.5034C85.4305 69.5657 87.0163 67.9804 88.9539 67.9804C90.8916 67.9804 92.4769 69.5657 92.4769 71.5034V75.0139C92.4769 76.026 91.6488 76.854 90.6367 76.854Z" fill="#023246"/>
<path fill-rule="evenodd" clip-rule="evenodd" d="M90.6287 71.1795C90.6287 72.0991 89.8835 72.8443 88.9639 72.8443C88.0443 72.8443 87.2986 72.0991 87.2986 71.1795C87.2986 70.2599 88.0443 69.5142 88.9639 69.5142C89.8835 69.5142 90.6287 70.2599 90.6287 71.1795Z" fill="#FFFFFE"/>
<path fill-rule="evenodd" clip-rule="evenodd" d="M101.651 77.5524H76.5258C74.6396 77.5524 73.1105 79.0816 73.1105 80.9677V82.2153H105.066V80.9677C105.066 79.0816 103.537 77.5524 101.651 77.5524Z" fill="#023246"/>
<path fill-rule="evenodd" clip-rule="evenodd" d="M79.9877 96.0047H107.995V95.5443H79.9877V96.0047Z" fill="#757575"/>
<path fill-rule="evenodd" clip-rule="evenodd" d="M79.9877 99.4583H107.995V98.9983H79.9877V99.4583Z" fill="#757575"/>
<path fill-rule="evenodd" clip-rule="evenodd" d="M79.9877 102.912H107.995V102.452H79.9877V102.912Z" fill="#757575"/>
<path fill-rule="evenodd" clip-rule="evenodd" d="M79.9877 106.366H107.995V105.905H79.9877V106.366Z" fill="#757575"/>
<path fill-rule="evenodd" clip-rule="evenodd" d="M79.9877 109.819H107.995V109.359H79.9877V109.819Z" fill="#757575"/>
<path fill-rule="evenodd" clip-rule="evenodd" d="M79.9877 113.273H107.995V112.813H79.9877V113.273Z" fill="#757575"/>
<path fill-rule="evenodd" clip-rule="evenodd" d="M79.9877 116.727H107.995V116.267H79.9877V116.727Z" fill="#757575"/>
<path fill-rule="evenodd" clip-rule="evenodd" d="M79.9877 120.18H107.995V119.72H79.9877V120.18Z" fill="#757575"/>
<path fill-rule="evenodd" clip-rule="evenodd" d="M79.9877 123.634H107.995V123.174H79.9877V123.634Z" fill="#757575"/>
<path fill-rule="evenodd" clip-rule="evenodd" d="M79.9877 127.087H107.995V126.627H79.9877V127.087Z" fill="#757575"/>
<path fill-rule="evenodd" clip-rule="evenodd" d="M79.9877 130.541H107.995V130.081H79.9877V130.541Z" fill="#757575"/>
<path fill-rule="evenodd" clip-rule="evenodd" d="M124.672 109.081C124.672 109.081 124.825 114.557 123.884 116.051C123.884 116.051 122.718 120.413 119.43 121.431C119.43 121.431 116.471 122.643 116.52 120.926C116.52 120.926 112.481 121.428 113.333 118.488C113.333 118.488 108.974 119.002 110.487 115.132C110.487 115.132 107.292 114.827 109.545 111.926C109.545 111.926 110.09 111.271 110.616 109.024C110.616 109.024 111.333 106.468 114.336 106.172C114.336 106.172 114.754 105.591 117.176 103.286C117.84 102.636 126.224 104.858 124.672 109.081Z" fill="#F4BD8D"/>
<path fill-rule="evenodd" clip-rule="evenodd" d="M69.4622 96.78C69.4622 96.78 72.3401 98.2945 74.6582 102.539C74.6582 102.539 78.4751 93.7664 82.9319 88.9977L74.4627 98.3432C74.4627 98.3432 73.0596 98.127 69.4622 96.78Z" fill="#38C1F9"/>
<path fill-rule="evenodd" clip-rule="evenodd" d="M69.4622 110.397C69.4622 110.397 72.3401 111.911 74.6582 116.156C74.6582 116.156 78.4751 107.383 82.9319 102.615L74.4627 111.96C74.4627 111.96 73.0596 111.744 69.4622 110.397Z" fill="#38C1F9"/>
<path fill-rule="evenodd" clip-rule="evenodd" d="M69.4622 124.014C69.4622 124.014 72.3401 125.529 74.6582 129.773C74.6582 129.773 78.4751 121.001 82.9319 116.232L74.4627 125.577C74.4627 125.577 73.0596 125.361 69.4622 124.014Z" fill="#38C1F9"/>
<path d="M69.6705 85.7217C69.7035 85.7217 69.7313 85.7232 69.7538 85.7262C69.7763 85.7292 69.7965 85.7352 69.8145 85.7442C69.8325 85.7517 69.8498 85.763 69.8663 85.778C69.8828 85.793 69.9015 85.8132 69.9225 85.8387L71.4795 87.8075C71.4735 87.7445 71.469 87.6837 71.466 87.6252C71.463 87.5652 71.4615 87.509 71.4615 87.4565V85.7217H72.132V89H71.736C71.6775 89 71.628 88.991 71.5875 88.973C71.547 88.955 71.508 88.922 71.4705 88.874L69.9248 86.921C69.9293 86.978 69.933 87.0342 69.936 87.0897C69.939 87.1437 69.9405 87.1947 69.9405 87.2427V89H69.27V85.7217H69.6705ZM74.7819 85.7217V86.3067H73.4364V87.0717H74.4669V87.6342H73.4364V88.415H74.7819V89H72.6714V85.7217H74.7819ZM74.9683 85.7217H75.6073C75.6733 85.7217 75.7281 85.7367 75.7716 85.7667C75.8166 85.7967 75.8458 85.8365 75.8593 85.886L76.3093 87.596C76.3243 87.6515 76.3393 87.7107 76.3543 87.7737C76.3693 87.8367 76.3806 87.9027 76.3881 87.9717C76.4031 87.9012 76.4196 87.8352 76.4376 87.7737C76.4556 87.7107 76.4728 87.6515 76.4893 87.596L77.0203 85.886C77.0338 85.844 77.0623 85.8065 77.1058 85.7735C77.1508 85.739 77.2048 85.7217 77.2678 85.7217H77.4928C77.5588 85.7217 77.6128 85.7367 77.6548 85.7667C77.6983 85.7952 77.7283 85.835 77.7448 85.886L78.2713 87.596C78.2878 87.6485 78.3051 87.7047 78.3231 87.7647C78.3411 87.8232 78.3568 87.8862 78.3703 87.9537C78.3823 87.8877 78.3943 87.8247 78.4063 87.7647C78.4198 87.7047 78.4333 87.6485 78.4468 87.596L78.8968 85.886C78.9088 85.8425 78.9373 85.8042 78.9823 85.7712C79.0273 85.7382 79.0813 85.7217 79.1443 85.7217H79.7428L78.7303 89H78.0418L77.4253 86.9682C77.4148 86.9367 77.4036 86.9022 77.3916 86.8647C77.3811 86.8272 77.3706 86.7875 77.3601 86.7455C77.3496 86.7875 77.3383 86.8272 77.3263 86.8647C77.3158 86.9022 77.3053 86.9367 77.2948 86.9682L76.6693 89H75.9808L74.9683 85.7217ZM80.6367 85.7217H81.2487C81.3147 85.7217 81.3687 85.7367 81.4107 85.7667C81.4527 85.7967 81.4827 85.8365 81.5007 85.886L82.1352 87.641C82.1637 87.7175 82.1922 87.8007 82.2207 87.8907C82.2507 87.9807 82.2785 88.0752 82.304 88.1742C82.325 88.0752 82.349 87.9807 82.376 87.8907C82.4045 87.8007 82.4322 87.7175 82.4592 87.641L83.0892 85.886C83.1042 85.844 83.1335 85.8065 83.177 85.7735C83.2205 85.739 83.2737 85.7217 83.3367 85.7217H83.9532L82.6392 89H81.9507L80.6367 85.7217ZM87.3239 87.3597C87.3239 87.5967 87.2826 87.8172 87.2001 88.0212C87.1191 88.2252 87.0044 88.403 86.8559 88.5545C86.7074 88.7045 86.5281 88.8222 86.3181 88.9077C86.1096 88.9933 85.8779 89.036 85.6229 89.036C85.3679 89.036 85.1354 88.9933 84.9254 88.9077C84.7154 88.8222 84.5354 88.7045 84.3854 88.5545C84.2369 88.403 84.1214 88.2252 84.0389 88.0212C83.9579 87.8172 83.9174 87.5967 83.9174 87.3597C83.9174 87.1227 83.9579 86.9022 84.0389 86.6982C84.1214 86.4942 84.2369 86.3172 84.3854 86.1672C84.5354 86.0172 84.7154 85.8995 84.9254 85.814C85.1354 85.7285 85.3679 85.6857 85.6229 85.6857C85.8779 85.6857 86.1096 85.7292 86.3181 85.8162C86.5281 85.9017 86.7074 86.0195 86.8559 86.1695C87.0044 86.3195 87.1191 86.4965 87.2001 86.7005C87.2826 86.9045 87.3239 87.1242 87.3239 87.3597ZM86.5454 87.3597C86.5454 87.1977 86.5244 87.0522 86.4824 86.9232C86.4404 86.7927 86.3796 86.6825 86.3001 86.5925C86.2221 86.5025 86.1261 86.4335 86.0121 86.3855C85.8981 86.3375 85.7684 86.3135 85.6229 86.3135C85.4759 86.3135 85.3446 86.3375 85.2291 86.3855C85.1151 86.4335 85.0184 86.5025 84.9389 86.5925C84.8609 86.6825 84.8009 86.7927 84.7589 86.9232C84.7169 87.0522 84.6959 87.1977 84.6959 87.3597C84.6959 87.5232 84.7169 87.6702 84.7589 87.8007C84.8009 87.9297 84.8609 88.0392 84.9389 88.1292C85.0184 88.2192 85.1151 88.2882 85.2291 88.3362C85.3446 88.3827 85.4759 88.406 85.6229 88.406C85.7684 88.406 85.8981 88.3827 86.0121 88.3362C86.1261 88.2882 86.2221 88.2192 86.3001 88.1292C86.3796 88.0392 86.4404 87.9297 86.4824 87.8007C86.5244 87.6702 86.5454 87.5232 86.5454 87.3597ZM88.448 88.3925H89.663V89H87.6875V85.7217H88.448V88.3925ZM91.3845 88.3992C91.4865 88.3992 91.5772 88.3827 91.6567 88.3497C91.7377 88.3152 91.806 88.2665 91.8615 88.2035C91.917 88.1405 91.959 88.064 91.9875 87.974C92.0175 87.8825 92.0325 87.779 92.0325 87.6635V85.7217H92.793V87.6635C92.793 87.8645 92.76 88.049 92.694 88.217C92.6295 88.385 92.5365 88.5297 92.415 88.6512C92.2935 88.7727 92.1457 88.8672 91.9717 88.9347C91.7977 89.0023 91.602 89.036 91.3845 89.036C91.1655 89.036 90.969 89.0023 90.795 88.9347C90.621 88.8672 90.4732 88.7727 90.3517 88.6512C90.2302 88.5297 90.1372 88.385 90.0727 88.217C90.0082 88.049 89.976 87.8645 89.976 87.6635V85.7217H90.7365V87.6612C90.7365 87.7767 90.7507 87.8802 90.7792 87.9717C90.8092 88.0617 90.852 88.139 90.9075 88.2035C90.963 88.2665 91.0305 88.3152 91.11 88.3497C91.191 88.3827 91.2825 88.3992 91.3845 88.3992ZM93.6866 85.7217C93.7196 85.7217 93.7474 85.7232 93.7699 85.7262C93.7924 85.7292 93.8126 85.7352 93.8306 85.7442C93.8486 85.7517 93.8659 85.763 93.8824 85.778C93.8989 85.793 93.9176 85.8132 93.9386 85.8387L95.4956 87.8075C95.4896 87.7445 95.4851 87.6837 95.4821 87.6252C95.4791 87.5652 95.4776 87.509 95.4776 87.4565V85.7217H96.1481V89H95.7521C95.6936 89 95.6441 88.991 95.6036 88.973C95.5631 88.955 95.5241 88.922 95.4866 88.874L93.9409 86.921C93.9454 86.978 93.9491 87.0342 93.9521 87.0897C93.9551 87.1437 93.9566 87.1947 93.9566 87.2427V89H93.2861V85.7217H93.6866ZM99.068 85.7217V86.3247H98.1455V89H97.385V86.3247H96.4625V85.7217H99.068ZM101.492 85.7217V86.3067H100.146V87.0717H101.177V87.6342H100.146V88.415H101.492V89H99.3813V85.7217H101.492ZM104.036 85.7217V86.3067H102.691V87.0717H103.721V87.6342H102.691V88.415H104.036V89H101.926V85.7217H104.036ZM105.231 87.7872V89H104.47V85.7217H105.537C105.774 85.7217 105.975 85.7465 106.142 85.796C106.31 85.844 106.446 85.9115 106.551 85.9985C106.658 86.0855 106.735 86.1882 106.783 86.3067C106.831 86.4252 106.855 86.5542 106.855 86.6937C106.855 86.8002 106.841 86.9007 106.812 86.9952C106.784 87.0897 106.741 87.1775 106.684 87.2585C106.629 87.338 106.56 87.4092 106.477 87.4722C106.396 87.5352 106.302 87.587 106.196 87.6275C106.247 87.653 106.294 87.6845 106.338 87.722C106.383 87.7595 106.422 87.8052 106.455 87.8592L107.152 89H106.464C106.336 89 106.245 88.952 106.189 88.856L105.645 87.9042C105.621 87.8622 105.592 87.8322 105.559 87.8142C105.528 87.7962 105.483 87.7872 105.424 87.7872H105.231ZM105.231 87.263H105.537C105.64 87.263 105.728 87.2502 105.8 87.2247C105.873 87.1977 105.933 87.161 105.98 87.1145C106.026 87.068 106.06 87.014 106.081 86.9525C106.102 86.8895 106.113 86.822 106.113 86.75C106.113 86.606 106.065 86.4935 105.971 86.4125C105.878 86.3315 105.733 86.291 105.537 86.291H105.231V87.263Z" fill="#023246"/>
</g>
</svg>
