<svg xmlns="http://www.w3.org/2000/svg" xmlns:xlink="http://www.w3.org/1999/xlink" width="815" height="509" viewBox="0 0 815 509">
  <defs>
    <filter id="Box_2" x="20" y="154" width="162" height="72" filterUnits="userSpaceOnUse">
      <feOffset dy="3" input="SourceAlpha"/>
      <feGaussianBlur stdDeviation="3" result="blur"/>
      <feFlood flood-opacity="0.161"/>
      <feComposite operator="in" in2="blur"/>
      <feComposite in="SourceGraphic"/>
    </filter>
    <filter id="Box_4" x="219.368" y="154" width="162" height="72" filterUnits="userSpaceOnUse">
      <feOffset dy="3" input="SourceAlpha"/>
      <feGaussianBlur stdDeviation="3" result="blur-2"/>
      <feFlood flood-opacity="0.161"/>
      <feComposite operator="in" in2="blur-2"/>
      <feComposite in="SourceGraphic"/>
    </filter>
    <filter id="Box_5" x="420" y="89" width="162" height="72" filterUnits="userSpaceOnUse">
      <feOffset dy="3" input="SourceAlpha"/>
      <feGaussianBlur stdDeviation="3" result="blur-3"/>
      <feFlood flood-opacity="0.161"/>
      <feComposite operator="in" in2="blur-3"/>
      <feComposite in="SourceGraphic"/>
    </filter>
    <filter id="Box_4-2" x="621" y="154" width="162" height="72" filterUnits="userSpaceOnUse">
      <feOffset dy="3" input="SourceAlpha"/>
      <feGaussianBlur stdDeviation="3" result="blur-4"/>
      <feFlood flood-opacity="0.161"/>
      <feComposite operator="in" in2="blur-4"/>
      <feComposite in="SourceGraphic"/>
    </filter>
    <filter id="Box_4-3" x="620" y="89.032" width="162" height="72" filterUnits="userSpaceOnUse">
      <feOffset dy="3" input="SourceAlpha"/>
      <feGaussianBlur stdDeviation="3" result="blur-5"/>
      <feFlood flood-opacity="0.161"/>
      <feComposite operator="in" in2="blur-5"/>
      <feComposite in="SourceGraphic"/>
    </filter>
    <filter id="Box_3" x="219.584" y="90" width="162" height="72" filterUnits="userSpaceOnUse">
      <feOffset dy="3" input="SourceAlpha"/>
      <feGaussianBlur stdDeviation="3" result="blur-6"/>
      <feFlood flood-opacity="0.161"/>
      <feComposite operator="in" in2="blur-6"/>
      <feComposite in="SourceGraphic"/>
    </filter>
    <filter id="Box_1" x="20" y="90" width="162" height="72" filterUnits="userSpaceOnUse">
      <feOffset dy="3" input="SourceAlpha"/>
      <feGaussianBlur stdDeviation="3" result="blur-7"/>
      <feFlood flood-opacity="0.161"/>
      <feComposite operator="in" in2="blur-7"/>
      <feComposite in="SourceGraphic"/>
    </filter>
    <filter id="Opportunities_box_1" x="20" y="409.1" width="162" height="112" filterUnits="userSpaceOnUse">
      <feOffset dy="3" input="SourceAlpha"/>
      <feGaussianBlur stdDeviation="3" result="blur-8"/>
      <feFlood flood-opacity="0.161"/>
      <feComposite operator="in" in2="blur-8"/>
      <feComposite in="SourceGraphic"/>
    </filter>
    <filter id="Opportunities_box_2" x="219" y="409.1" width="162" height="112" filterUnits="userSpaceOnUse">
      <feOffset dy="3" input="SourceAlpha"/>
      <feGaussianBlur stdDeviation="3" result="blur-9"/>
      <feFlood flood-opacity="0.161"/>
      <feComposite operator="in" in2="blur-9"/>
      <feComposite in="SourceGraphic"/>
    </filter>
    <filter id="Opportunities_box_2-2" x="420" y="409.1" width="162" height="112" filterUnits="userSpaceOnUse">
      <feOffset dy="3" input="SourceAlpha"/>
      <feGaussianBlur stdDeviation="3" result="blur-10"/>
      <feFlood flood-opacity="0.161"/>
      <feComposite operator="in" in2="blur-10"/>
      <feComposite in="SourceGraphic"/>
    </filter>
    <filter id="Opportunities_box_2-3" x="621" y="409.1" width="162" height="112" filterUnits="userSpaceOnUse">
      <feOffset dy="3" input="SourceAlpha"/>
      <feGaussianBlur stdDeviation="3" result="blur-11"/>
      <feFlood flood-opacity="0.161"/>
      <feComposite operator="in" in2="blur-11"/>
      <feComposite in="SourceGraphic"/>
    </filter>
    <filter id="Box_4-4" x="420" y="155" width="162" height="72" filterUnits="userSpaceOnUse">
      <feOffset dy="3" input="SourceAlpha"/>
      <feGaussianBlur stdDeviation="3" result="blur-12"/>
      <feFlood flood-opacity="0.161"/>
      <feComposite operator="in" in2="blur-12"/>
      <feComposite in="SourceGraphic"/>
    </filter>
    <filter id="Box_4-5" x="420" y="221.032" width="162" height="72" filterUnits="userSpaceOnUse">
      <feOffset dy="3" input="SourceAlpha"/>
      <feGaussianBlur stdDeviation="3" result="blur-13"/>
      <feFlood flood-opacity="0.161"/>
      <feComposite operator="in" in2="blur-13"/>
      <feComposite in="SourceGraphic"/>
    </filter>
    <clipPath id="clip-case-TA-scenario">
      <rect width="815" height="509"/>
    </clipPath>
  </defs>
  <g id="case-TA-scenario" clip-path="url(#clip-case-TA-scenario)">
    <g id="journey_map" data-name="journey map" transform="translate(-643.043 -178)">
      <text id="The_Opportunities" data-name="The Opportunities" transform="translate(684.043 581.4)" font-size="14" font-family="Lato-Regular, Lato"><tspan x="0" y="0">The Opportunities</tspan></text>
      <g id="Group_456" data-name="Group 456" transform="translate(-0.469 -26)">
        <g transform="matrix(1, 0, 0, 1, 643.51, 204)" filter="url(#Box_2)">
          <rect id="Box_2-2" data-name="Box 2" width="144" height="54" rx="4" transform="translate(29 160)" fill="#0476bf"/>
        </g>
        <g id="experience_2" data-name="experience 2" transform="translate(663.512 379.513)">
          <ellipse id="Ellipse_5" data-name="Ellipse 5" cx="9.344" cy="9.344" rx="9.344" ry="9.344" fill="#5d5d5d"/>
          <text id="_2" data-name="2" transform="translate(5.537 12.385)" fill="#fff" font-size="11" font-family="HelveticaNeue-Medium, Helvetica Neue" font-weight="500"><tspan x="0" y="0">2</tspan></text>
        </g>
        <text id="Reservations_are_booked." data-name="Reservations are booked." transform="translate(690.043 374)" fill="#fff" font-size="12" font-family="Lato-Light, Lato" font-weight="300"><tspan x="0" y="12">Reservations are </tspan><tspan x="0" y="27">booked.</tspan></text>
      </g>
      <g id="Group_457" data-name="Group 457" transform="translate(27 18.968)">
        <g transform="matrix(1, 0, 0, 1, 616.04, 159.03)" filter="url(#Box_4)">
          <rect id="Box_4-6" data-name="Box 4" width="144" height="54" rx="4" transform="translate(228.37 160)" fill="#0476bf"/>
        </g>
        <g id="experience_4" data-name="experience 4" transform="translate(835.458 334.725)">
          <ellipse id="Ellipse_5-2" data-name="Ellipse 5" cx="9.344" cy="9.344" rx="9.344" ry="9.344" transform="translate(-0.416)" fill="#5d5d5d"/>
          <text id="_4" data-name="4" transform="translate(6.584 12.384)" fill="#fff" font-size="11" font-family="HelveticaNeue-Medium, Helvetica Neue" font-weight="500"><tspan x="0" y="0">4</tspan></text>
        </g>
        <text id="Zayah_finds_Travel_Flow_and_tries_it." data-name="Zayah finds Travel Flow and tries it." transform="translate(861.043 329.032)" fill="#fff" font-size="12" font-family="Lato-Light, Lato" font-weight="300"><tspan x="0" y="12">Zayah finds Travel Flow </tspan><tspan x="0" y="27">and tries it.</tspan></text>
      </g>
      <g id="Group_458" data-name="Group 458" transform="translate(228 -90)">
        <g transform="matrix(1, 0, 0, 1, 415.04, 268)" filter="url(#Box_5)">
          <rect id="Box_5-2" data-name="Box 5" width="144" height="54" rx="4" transform="translate(429 95)" fill="#0476bf"/>
        </g>
        <g id="experience_5" data-name="experience 5" transform="translate(835.458 380.884)">
          <ellipse id="Ellipse_5-3" data-name="Ellipse 5" cx="9.344" cy="9.344" rx="9.344" ry="9.344" transform="translate(-0.416)" fill="#5d5d5d"/>
          <text id="_5" data-name="5" transform="translate(5.584 12.385)" fill="#fff" font-size="11" font-family="HelveticaNeue-Medium, Helvetica Neue" font-weight="500"><tspan x="0" y="0">5</tspan></text>
        </g>
        <text id="Info_is_transferred_to_Travel_Flow." data-name="Info is transferred 
to Travel Flow." transform="translate(861.043 373)" fill="#fff" font-size="12" font-family="Lato-Light, Lato" font-weight="300"><tspan x="0" y="12">Info is transferred </tspan><tspan x="0" y="27">to Travel Flow.</tspan></text>
      </g>
      <text id="The_Experience" data-name="The Experience" transform="translate(697.043 240.418)" font-size="14" font-family="Lato-Regular, Lato"><tspan x="0" y="0">The Experience</tspan></text>
      <rect id="Experience_frame" data-name="Experience frame" width="815" height="339.295" rx="14" transform="translate(643.043 219)" fill="none"/>
      <g id="Group_467" data-name="Group 467" transform="translate(-49 19)">
        <g id="Group_463" data-name="Group 463" transform="translate(0 -0.032)">
          <g transform="matrix(1, 0, 0, 1, 692.04, 159.03)" filter="url(#Box_4-2)">
            <rect id="Box_4-7" data-name="Box 4" width="144" height="54" rx="4" transform="translate(630 160)" fill="#0476bf"/>
          </g>
          <text id="The_family_enjoys_their_trip." data-name="The family enjoys their trip." transform="translate(1339.043 324.709)" fill="#fff" font-size="12" font-family="Lato-Light, Lato" font-weight="300"><tspan x="0" y="12">The family enjoys their </tspan><tspan x="0" y="27">trip.</tspan></text>
        </g>
        <g id="experience_9" data-name="experience 9" transform="translate(1312.681 337)">
          <ellipse id="Ellipse_262" data-name="Ellipse 262" cx="9.344" cy="9.344" rx="9.344" ry="9.344" transform="translate(0.362)" fill="#5d5d5d"/>
          <text id="_9" data-name="9" transform="translate(6.362 13.297)" fill="#fff" font-size="11" font-family="HelveticaNeue-Medium, Helvetica Neue" font-weight="500" opacity="0.9"><tspan x="0" y="0">9</tspan></text>
        </g>
      </g>
      <g id="Group_466" data-name="Group 466" transform="translate(-51 -1)">
        <g id="Group_462" data-name="Group 462">
          <g transform="matrix(1, 0, 0, 1, 694.04, 179)" filter="url(#Box_4-3)">
            <rect id="Box_4-8" data-name="Box 4" width="144" height="54" rx="4" transform="translate(629 95.03)" fill="#0476bf"/>
          </g>
          <text id="Accesses_itinerary_during_trip" data-name="Accesses itinerary during trip" transform="translate(1340.043 284.276)" fill="#fff" font-size="12" font-family="Lato-Light, Lato" font-weight="300"><tspan x="0" y="12">Accesses itinerary </tspan><tspan x="0" y="27">during trip</tspan></text>
        </g>
        <g id="experience_8" data-name="experience 8" transform="translate(1314.069 292)">
          <ellipse id="Ellipse_4" data-name="Ellipse 4" cx="9.344" cy="9.344" rx="9.344" ry="9.344" transform="translate(-0.026)" fill="#5d5d5d"/>
          <text id="_8" data-name="8" transform="translate(5.974 14)" fill="#fff" font-size="11" font-family="HelveticaNeue-Medium, Helvetica Neue" font-weight="500"><tspan x="0" y="0">8</tspan></text>
        </g>
      </g>
      <g id="Group_459" data-name="Group 459" transform="translate(27.584)">
        <g transform="matrix(1, 0, 0, 1, 615.46, 178)" filter="url(#Box_3)">
          <rect id="Box_3-2" data-name="Box 3" width="144" height="54" rx="4" transform="translate(228.58 96)" fill="#0476bf"/>
        </g>
        <text id="There_is_so_much_to_keep_track_of_and_it_feels_overwhelming" data-name="There is so much to keep track of and it feels overwhelming" transform="translate(861.043 277)" fill="#fff" font-size="12" font-family="Lato-Light, Lato" font-weight="300"><tspan x="0" y="12">There is so much to </tspan><tspan x="0" y="27">keep track of and it </tspan><tspan x="0" y="42">feels overwhelming</tspan></text>
        <g id="experience_3" data-name="experience 3" transform="translate(835.458 285.763)">
          <ellipse id="Ellipse_5-4" data-name="Ellipse 5" cx="9.344" cy="9.344" rx="9.344" ry="9.344" fill="#5d5d5d"/>
          <text id="_3" data-name="3" transform="translate(6.229 12.384)" fill="#fff" font-size="11" font-family="HelveticaNeue-Medium, Helvetica Neue" font-weight="500"><tspan x="0" y="0">3</tspan></text>
        </g>
      </g>
      <g id="Group_469" data-name="Group 469" transform="translate(-0.469)">
        <g transform="matrix(1, 0, 0, 1, 643.51, 178)" filter="url(#Box_1)">
          <rect id="Box_1-2" data-name="Box 1" width="144" height="54" rx="4" transform="translate(29 96)" fill="#0476bf"/>
        </g>
        <text id="Everyone_agrees_on_Australia_after_looking_at_pictures" data-name="Everyone agrees on Australia after looking at pictures" transform="translate(690.043 277)" fill="#fff" font-size="12" font-family="Lato-Light, Lato" font-weight="300"><tspan x="0" y="12">Everyone agrees on </tspan><tspan x="0" y="27">Australia after looking </tspan><tspan x="0" y="42">at pictures</tspan></text>
        <g id="experience_1" data-name="experience 1" transform="translate(663.512 285.56)">
          <ellipse id="Ellipse_4-2" data-name="Ellipse 4" cx="9.344" cy="9.344" rx="9.344" ry="9.344" fill="#5d5d5d"/>
          <text id="_1" data-name="1" transform="translate(6.229 12.384)" fill="#fff" font-size="11" font-family="HelveticaNeue-Medium, Helvetica Neue" font-weight="500"><tspan x="0" y="0">1</tspan></text>
        </g>
      </g>
      <g id="Group_418" data-name="Group 418" transform="translate(678.043 247.491)">
        <text id="Idea_Reservations" data-name="Idea &amp; Reservations" transform="translate(66 15.225)" fill="#5d5d5d" font-size="14" font-family="Lato-Light, Lato" font-weight="300"><tspan x="-59.356" y="0">Idea &amp; Reservations</tspan></text>
      </g>
      <g id="Group_419" data-name="Group 419" transform="translate(872.043 247.491)">
        <text id="Finding_the_Solution" data-name="Finding the Solution" transform="translate(67 15.225)" fill="#5d5d5d" font-size="14" font-family="Lato-Light, Lato" font-weight="300"><tspan x="-59.444" y="0">Finding the Solution</tspan></text>
      </g>
      <text id="Preparation" transform="translate(1139.043 262.716)" fill="#5d5d5d" font-size="14" font-family="Lato-Light, Lato" font-weight="300"><tspan x="-35.403" y="0">Preparation</tspan></text>
      <g id="Group_420" data-name="Group 420" transform="translate(1273.043 247.491)">
        <text id="Trip_is_successful" data-name="Trip is successful" transform="translate(66 15.225)" fill="#5d5d5d" font-size="14" font-family="Lato-Light, Lato" font-weight="300"><tspan x="-49.56" y="0">Trip is successful</tspan></text>
      </g>
      <g id="Group_472" data-name="Group 472" transform="translate(9 11)">
        <g transform="matrix(1, 0, 0, 1, 634.04, 167)" filter="url(#Opportunities_box_1)">
          <rect id="Opportunities_box_1-2" data-name="Opportunities box 1" width="144" height="94" rx="4" transform="translate(29 415.1)" fill="#fff"/>
        </g>
        <text id="_Create_Instagram_account_w_enticing_photos._Access_reservations_booked_elsewhere" data-name="• Create Instagram 
   account w/enticing 
   photos.
• Access reservations 
   booked elsewhere" transform="translate(675.043 589.865)" fill="#5d5d5d" font-size="12" font-family="Lato-Light, Lato" font-weight="300"><tspan x="0" y="12">• Create Instagram </tspan><tspan x="0" y="27" xml:space="preserve">   account w/enticing </tspan><tspan x="0" y="42" xml:space="preserve">   photos.</tspan><tspan x="0" y="57">• Access reservations </tspan><tspan x="0" y="72" xml:space="preserve">   booked elsewhere</tspan></text>
      </g>
      <g id="Group_471" data-name="Group 471" transform="translate(-14 11)">
        <g transform="matrix(1, 0, 0, 1, 657.04, 167)" filter="url(#Opportunities_box_2)">
          <rect id="Opportunities_box_2-4" data-name="Opportunities box 2" width="144" height="94" rx="4" transform="translate(228 415.1)" fill="#fff"/>
        </g>
        <text id="_Hierarchy_to_manage_and_view_information_App_availability_ID_key_partnerships_w_travel_related_corp." data-name="• Hierarchy to manage 
   and view information 
• App availability 
• ID key partnerships 
   w/ travel related corp." transform="translate(897.043 589.865)" fill="#5d5d5d" font-size="12" font-family="Lato-Light, Lato" font-weight="300"><tspan x="0" y="12">• Hierarchy to manage </tspan><tspan x="0" y="27" xml:space="preserve">   and view information </tspan><tspan x="0" y="42">• App availability </tspan><tspan x="0" y="57">• ID key partnerships </tspan><tspan x="0" y="72" xml:space="preserve">   w/ travel related corp.</tspan></text>
      </g>
      <g id="Group_468" data-name="Group 468" transform="translate(0 42)">
        <path id="Journey_Curve" data-name="Journey Curve" d="M-4.418,400.913s8.1-9.812,79.309-9.66,84.34,30.074,108.059,41.663,54.148,10.146,87.532-15.5,55.555-59.737,84.727-60c41.478-2.11,53.587,53.627,96.221,75.5s73.545-32.249,100.78-35.74,60.432,14.46,81.592,13.974c13.458-.309,36.826-3.156,69.782-20.437,18.537-9.72,25.545-19.087,25.489-19.967" transform="translate(676.897 71.168)" fill="none" stroke="#0476bf" stroke-linejoin="round" stroke-width="2"/>
        <g id="jounrey_9" data-name="jounrey 9" transform="translate(1394.016 435.169)">
          <ellipse id="Ellipse_250" data-name="Ellipse 250" cx="9.344" cy="9.344" rx="9.344" ry="9.344" transform="translate(0.027)" fill="#5d5d5d"/>
          <text id="_9-2" data-name="9" transform="translate(6.027 12.384)" fill="#fff" font-size="11" font-family="Avenir-Medium, Avenir" font-weight="500"><tspan x="0" y="0">9</tspan></text>
        </g>
        <g id="journey_8" data-name="journey 8" transform="translate(1253.961 460.741)">
          <ellipse id="Ellipse_249" data-name="Ellipse 249" cx="9.344" cy="9.344" rx="9.344" ry="9.344" transform="translate(0.082)" fill="#5d5d5d"/>
          <text id="_7" data-name="7" transform="translate(6.082 13.259)" fill="#fff" font-size="11" font-family="Avenir-Medium, Avenir" font-weight="500"><tspan x="0" y="0">7</tspan></text>
        </g>
        <g id="journey_6" data-name="journey 6" transform="translate(1073.445 452.405)">
          <ellipse id="Ellipse_261" data-name="Ellipse 261" cx="9.344" cy="9.344" rx="9.344" ry="9.344" transform="translate(-0.402)" fill="#5d5d5d"/>
          <text id="_5-2" data-name="5" transform="translate(6.598 13.595)" fill="#fff" font-size="11" font-family="Avenir-Medium, Avenir" font-weight="500"><tspan x="0" y="0">5</tspan></text>
        </g>
        <g id="journey_7" data-name="journey 7" transform="translate(1176.2 484.707)">
          <ellipse id="Ellipse_248" data-name="Ellipse 248" cx="9.344" cy="9.344" rx="9.344" ry="9.344" transform="translate(-0.157)" fill="#5d5d5d"/>
          <text id="_6" data-name="6" transform="translate(6.843 13.293)" fill="#fff" font-size="11" font-family="Avenir-Medium, Avenir" font-weight="500"><tspan x="0" y="0">6</tspan></text>
        </g>
        <g id="journey_5" data-name="journey 5" transform="translate(1023.456 418.02)">
          <ellipse id="Ellipse_5-5" data-name="Ellipse 5" cx="9.344" cy="9.344" rx="9.344" ry="9.344" transform="translate(-0.413)" fill="#5d5d5d"/>
          <text id="_4-2" data-name="4" transform="translate(6.587 12.98)" fill="#fff" font-size="11" font-family="Avenir-Medium, Avenir" font-weight="500"><tspan x="0" y="0">4</tspan></text>
        </g>
        <g id="journey_4" data-name="journey 4" transform="translate(1345.87 465.323)">
          <ellipse id="Ellipse_5-6" data-name="Ellipse 5" cx="9.344" cy="9.344" rx="9.344" ry="9.344" transform="translate(0.173)" fill="#5d5d5d"/>
          <text id="_8-2" data-name="8" transform="translate(6.173 12.384)" fill="#fff" font-size="11" font-family="Avenir-Medium, Avenir" font-weight="500"><tspan x="0" y="0">8</tspan></text>
        </g>
        <g id="journey_3" data-name="journey 3" transform="translate(875.897 500.085)">
          <ellipse id="Ellipse_5-7" data-name="Ellipse 5" cx="9.344" cy="9.344" rx="9.344" ry="9.344" fill="#5d5d5d"/>
          <text id="_3-2" data-name="3" transform="translate(6.229 12.384)" fill="#fff" font-size="11" font-family="Avenir-Medium, Avenir" font-weight="500"><tspan x="0" y="0">3</tspan></text>
        </g>
        <g id="journey_2" data-name="journey 2" transform="translate(745.061 453.324)">
          <ellipse id="Ellipse_5-8" data-name="Ellipse 5" cx="9.344" cy="9.344" rx="9.344" ry="9.344" transform="translate(-0.018)" fill="#5d5d5d"/>
          <text id="_2-2" data-name="2" transform="translate(5.982 12.384)" fill="#fff" font-size="11" font-family="Avenir-Medium, Avenir" font-weight="500"><tspan x="0" y="0">2</tspan></text>
        </g>
        <g id="journey_1" data-name="journey 1" transform="translate(663.043 462.979)">
          <ellipse id="Ellipse_4-3" data-name="Ellipse 4" cx="9.344" cy="9.344" rx="9.344" ry="9.344" fill="#5d5d5d"/>
          <text id="_1-2" data-name="1" transform="translate(6.229 12.384)" fill="#fff" font-size="11" font-family="Avenir-Medium, Avenir" font-weight="500"><tspan x="0" y="0">1</tspan></text>
        </g>
        <g id="face" transform="translate(999.519 403.224)">
          <ellipse id="Ellipse_257" data-name="Ellipse 257" cx="2.381" cy="1.739" rx="2.381" ry="1.739" transform="translate(0 13.467)" fill="#ffc3bf"/>
          <ellipse id="Ellipse_258" data-name="Ellipse 258" cx="2.381" cy="1.739" rx="2.381" ry="1.739" transform="translate(18.331 13.089)" fill="#ffc3bf"/>
          <path id="Path_4402" data-name="Path 4402" d="M157.149,60.767c-.919-2.966-4.454-3.247-6.836-1.557a3.776,3.776,0,0,0-1.385,3.8,3.931,3.931,0,0,0,5.285,2.522C156.115,64.906,157.79,62.841,157.149,60.767Zm-2.238,3.577a3.641,3.641,0,0,1-4.351,0,3.017,3.017,0,0,1-.807-3.368c.532-1.463,2.362-2.162,3.795-2.111a.251.251,0,0,0,.115-.03,2.8,2.8,0,0,1,2.4,1.312C157.107,61.665,156.251,63.4,154.911,64.343Z" transform="translate(-148.424 -52.726)"/>
          <path id="Path_4403" data-name="Path 4403" d="M156.138,65.432a3.641,3.641,0,0,1-4.351,0,3.017,3.017,0,0,1-.807-3.368c.532-1.463,2.362-2.162,3.795-2.111a.251.251,0,0,0,.115-.03,2.8,2.8,0,0,1,2.4,1.312C158.334,62.753,157.478,64.492,156.138,65.432Z" transform="translate(-149.651 -53.814)" fill="#fff"/>
          <path id="Path_4404" data-name="Path 4404" d="M196.726,61.358c-.853-3.066-4.463-3.622-6.837-2.183a4.157,4.157,0,0,0-1.37,4.224c.55,2.316,3.042,2.939,5.08,2.419C195.52,65.325,197.31,63.456,196.726,61.358Zm-2.96,3.628a3.489,3.489,0,0,1-4.173-.934,3.339,3.339,0,0,1-.046-3.6,3.264,3.264,0,0,1,1.8-1.312c1.678-.393,3.613-.112,4.539,2.008C196.642,62.882,195.29,64.373,193.766,64.986Z" transform="translate(-173.052 -52.879)"/>
          <path id="Path_4405" data-name="Path 4405" d="M194.827,65.928a3.489,3.489,0,0,1-4.173-.934,3.339,3.339,0,0,1-.046-3.6,3.264,3.264,0,0,1,1.8-1.312c1.678-.393,3.613-.112,4.539,2.008C197.7,63.824,196.351,65.314,194.827,65.928Z" transform="translate(-174.113 -53.821)" fill="#fff"/>
          <path id="Path_4406" data-name="Path 4406" d="M157.154,46.235c-.272-1.034-2.168-1.164-3.005-1.264a7.3,7.3,0,0,0-5.431,1.875c-.527.52-.13.8.172.786,1.294-.042,2.582-.205,3.879-.215.714-.006,1.428.151,2.141.2C155.8,47.68,157.5,47.55,157.154,46.235Zm-1.282.68a4.383,4.383,0,0,1-.934.015c-.478-.021-.952-.094-1.424-.16a18.3,18.3,0,0,0-3.852.13c2.062-.986,4.315-1.854,6.54-.726C156.656,46.522,156.241,46.918,155.873,46.915Z" transform="translate(-148.209 -44.493)"/>
          <path id="Path_4407" data-name="Path 4407" d="M157.849,48.076a4.383,4.383,0,0,1-.934.015c-.478-.021-.952-.094-1.424-.16a18.3,18.3,0,0,0-3.852.13c2.062-.986,4.315-1.854,6.54-.726C158.632,47.683,158.217,48.079,157.849,48.076Z" transform="translate(-150.185 -45.653)" fill="#845123"/>
          <path id="Path_4408" data-name="Path 4408" d="M197.561,44.9a7.5,7.5,0,0,0-5.452-.968c-.738.206-2.431.581-2.4,1.56.037,1.246,1.624,1.131,2.416.955.638-.142,1.245-.384,1.9-.475,1.186-.166,2.4-.2,3.592-.336C197.894,45.609,198.181,45.3,197.561,44.9Zm-4.39.587c-.415.124-.826.254-1.255.339a4.043,4.043,0,0,1-.855.112c-.336.054-.819-.251-.5-.629,1.727-1.333,4.013-.847,6.16-.23A16.6,16.6,0,0,0,193.171,45.488Z" transform="translate(-173.866 -43.761)"/>
          <path id="Path_4409" data-name="Path 4409" d="M197.947,46.231a16.6,16.6,0,0,0-3.547.408c-.415.124-.826.254-1.255.339a4.042,4.042,0,0,1-.855.112c-.336.054-.819-.251-.5-.629C193.514,45.128,195.8,45.614,197.947,46.231Z" transform="translate(-175.095 -44.912)" fill="#845123"/>
          <path id="Path_4410" data-name="Path 4410" d="M160.824,65.155a1.481,1.481,0,0,0-1.366-1.165,1.661,1.661,0,0,0-1.82,1.707,1.639,1.639,0,0,0,1.91,1.692A1.784,1.784,0,0,0,160.824,65.155Z" transform="translate(-153.915 -56.334)"/>
          <path id="Path_4411" data-name="Path 4411" d="M195.321,65.155a1.481,1.481,0,0,0-1.366-1.165,1.661,1.661,0,0,0-1.821,1.707,1.64,1.64,0,0,0,1.911,1.692A1.784,1.784,0,0,0,195.321,65.155Z" transform="translate(-175.373 -56.334)"/>
          <path id="Path_4412" data-name="Path 4412" d="M177.384,70.668c-.335.125-1.377.542-1.507-.192a15.038,15.038,0,0,1-.059-1.518c-.1-1.367.077-2.739-.014-4.107-.02-.306-.516-.329-.542-.018a23.868,23.868,0,0,0-.046,5.994c.191,1.064,1.84.945,2.461.374A.308.308,0,0,0,177.384,70.668Z" transform="translate(-164.74 -56.73)"/>
          <path id="Path_4413" data-name="Path 4413" d="M171.387,83.89a2.209,2.209,0,0,0-2.057-.814.274.274,0,0,0,.053.523,2.631,2.631,0,0,1,.447.107c-1.478,1.625-2.249,2.76-3.913,3.76a11.851,11.851,0,0,1-6.089,1.521,15.87,15.87,0,0,1-6.177-1.183,9.79,9.79,0,0,1-2.543-1.662,11.225,11.225,0,0,1-1.757-2.245c.13-.084.255-.169.376-.247.373-.241-.035-.786-.408-.553a4.541,4.541,0,0,1-1.261.644c-.284.076-.2.5.056.544a1.319,1.319,0,0,0,.775-.131,9.534,9.534,0,0,0,3.761,3.978,14.824,14.824,0,0,0,6.74,1.6,12.546,12.546,0,0,0,6.522-1.419,10.462,10.462,0,0,0,4.478-4.336,3.834,3.834,0,0,1,.514.376C171.188,84.6,171.65,84.171,171.387,83.89Z" transform="translate(-147.847 -68.178)"/>
        </g>
        <g id="face-2" data-name="face" transform="translate(865.569 465.712)">
          <path id="Path_4386" data-name="Path 4386" d="M39.969,82.237c0,1.059-1.175,1.917-2.625,1.917s-2.626-.858-2.626-1.917,1.176-1.917,2.626-1.917S39.969,81.178,39.969,82.237Z" transform="translate(-34.474 -62.095)" fill="#ffc3bf"/>
          <path id="Path_4387" data-name="Path 4387" d="M88.469,81.237c0,1.059-1.175,1.917-2.625,1.917s-2.626-.858-2.626-1.917,1.176-1.917,2.626-1.917S88.469,80.178,88.469,81.237Z" transform="translate(-62.763 -61.512)" fill="#ffc3bf"/>
          <path id="Path_4388" data-name="Path 4388" d="M43.325,60.694c-1.01-3.27-4.907-3.58-7.534-1.717a4.164,4.164,0,0,0-1.527,4.194,4.334,4.334,0,0,0,5.828,2.781C42.188,65.257,44.035,62.98,43.325,60.694Zm-2.464,3.944a4.015,4.015,0,0,1-4.8,0,3.328,3.328,0,0,1-.89-3.714c.587-1.614,2.6-2.384,4.184-2.327a.252.252,0,0,0,.123-.033,3.094,3.094,0,0,1,2.651,1.447C43.282,61.684,42.338,63.6,40.862,64.637Z" transform="translate(-34.132 -48.979)"/>
          <path id="Path_4389" data-name="Path 4389" d="M42.013,65.658a4.015,4.015,0,0,1-4.8,0,3.328,3.328,0,0,1-.89-3.714c.587-1.614,2.6-2.384,4.184-2.327a.252.252,0,0,0,.123-.033,3.094,3.094,0,0,1,2.651,1.447C44.433,62.7,43.49,64.621,42.013,65.658Z" transform="translate(-35.283 -50)" fill="#fff"/>
          <path id="Path_4390" data-name="Path 4390" d="M82.9,61.32c-.943-3.38-4.923-3.994-7.541-2.407a4.584,4.584,0,0,0-1.507,4.657c.607,2.554,3.354,3.24,5.6,2.667C81.574,65.694,83.547,63.634,82.9,61.32Zm-3.264,4a3.853,3.853,0,0,1-4.6-1.03,3.681,3.681,0,0,1-.046-3.967,3.583,3.583,0,0,1,1.98-1.447c1.85-.433,3.98-.123,5,2.214C82.811,63,81.32,64.644,79.64,65.321Z" transform="translate(-57.225 -49.123)"/>
          <path id="Path_4391" data-name="Path 4391" d="M80.633,66.2a3.853,3.853,0,0,1-4.6-1.03,3.681,3.681,0,0,1-.046-3.967,3.583,3.583,0,0,1,1.98-1.447c1.85-.433,3.98-.123,5,2.214C83.8,63.884,82.314,65.527,80.633,66.2Z" transform="translate(-58.218 -50.006)" fill="#fff"/>
          <path id="Path_4392" data-name="Path 4392" d="M41.924,36.8c-.951-.7-2.671.493-3.461.983a8.061,8.061,0,0,0-3.38,5.357c-.094.81.436.77.69.557,1.087-.93,2.081-1.957,3.191-2.86.61-.5,1.333-.853,1.98-1.3C41.751,38.978,43.127,37.692,41.924,36.8Zm-.637,1.467a4.554,4.554,0,0,1-.793.657c-.424.313-.884.577-1.334.847a19.817,19.817,0,0,0-3.227,2.767c1.094-2.27,2.434-4.571,5.127-5.134C41.691,37.392,41.607,38.018,41.287,38.268Z" transform="translate(-34.68 -36.585)"/>
          <path id="Path_4393" data-name="Path 4393" d="M42.492,39.415a4.554,4.554,0,0,1-.793.657c-.424.313-.884.577-1.334.847a19.817,19.817,0,0,0-3.227,2.767c1.094-2.27,2.434-4.571,5.127-5.134C42.9,38.538,42.812,39.165,42.492,39.415Z" transform="translate(-35.885 -37.732)" fill="#845123"/>
          <path id="Path_4394" data-name="Path 4394" d="M84.782,43.812a8.257,8.257,0,0,0-2.93-5.357c-.683-.49-2.177-1.687-3-.987-1.043.893.15,2.18.85,2.737.56.45,1.187.807,1.717,1.3.963.9,1.827,1.93,2.767,2.857C84.406,44.582,84.866,44.619,84.782,43.812Zm-3.533-3.37c-.39-.27-.791-.537-1.157-.847a4.558,4.558,0,0,1-.69-.657c-.277-.25-.347-.877.2-.863,2.337.563,3.5,2.86,4.451,5.131A18.546,18.546,0,0,0,81.249,40.442Z" transform="translate(-59.977 -36.975)"/>
          <path id="Path_4395" data-name="Path 4395" d="M85.1,44.354a18.547,18.547,0,0,0-2.8-2.764c-.39-.27-.791-.537-1.157-.847a4.559,4.559,0,0,1-.69-.657c-.277-.25-.347-.877.2-.863C82.985,39.787,84.148,42.084,85.1,44.354Z" transform="translate(-61.026 -38.124)" fill="#845123"/>
          <path id="Path_4396" data-name="Path 4396" d="M61.824,90.374a5.74,5.74,0,0,0-3.953-2.054c-2.411-.353-6.368.48-7.037,4.16a2.162,2.162,0,0,0,1.343,2.484,2.786,2.786,0,0,0,1.914-.213c1.243-.453,2.014-1.217,3.45-.993,1.5.233,2.853,1.143,4.224-.007C62.828,92.858,62.471,91.367,61.824,90.374Zm-7.737-.737a9.377,9.377,0,0,1,2.184-.567,5.956,5.956,0,0,1,3.26.5c-.533.857-2.714.78-3.614.9-.69.093-2.5.567-3.17.023A4.2,4.2,0,0,1,54.087,89.637Zm6.164,3.924c-.987.147-2.034-.5-3.011-.65a3.9,3.9,0,0,0-2.29.527c-.383.19-.756.393-1.147.57-1.316.6-2.55-.213-2.19-1.514a4.6,4.6,0,0,1,.75-1.57c.593.83,2.22.437,3.1.35,1.374-.137,3.861.01,4.7-1.333C61.654,91.027,62.387,93.241,60.251,93.561Z" transform="translate(-43.854 -66.718)"/>
          <path id="Path_4397" data-name="Path 4397" d="M61.3,95.933c-.987.147-2.034-.5-3.011-.65A3.9,3.9,0,0,0,56,95.81c-.383.19-.756.393-1.147.57-1.316.6-2.55-.213-2.19-1.514a4.6,4.6,0,0,1,.75-1.57c.593.83,2.22.437,3.1.35,1.374-.137,3.861.01,4.7-1.333C62.7,93.4,63.437,95.613,61.3,95.933Z" transform="translate(-44.904 -69.091)" fill="#c92727"/>
          <path id="Path_4398" data-name="Path 4398" d="M62.256,90.644c-.533.857-2.714.78-3.614.9-.69.093-2.5.567-3.17.023a4.2,4.2,0,0,1,1.34-.857A9.377,9.377,0,0,1,59,90.147,5.956,5.956,0,0,1,62.256,90.644Z" transform="translate(-46.579 -67.795)" fill="#fff"/>
          <path id="Path_4399" data-name="Path 4399" d="M46.473,64.937a1.633,1.633,0,0,0-1.506-1.284,1.833,1.833,0,0,0-2.007,1.882A1.808,1.808,0,0,0,45.067,67.4,1.967,1.967,0,0,0,46.473,64.937Z" transform="translate(-39.279 -52.363)"/>
          <path id="Path_4400" data-name="Path 4400" d="M80.971,64.937a1.634,1.634,0,0,0-1.506-1.284,1.833,1.833,0,0,0-2.007,1.882A1.808,1.808,0,0,0,79.564,67.4,1.967,1.967,0,0,0,80.971,64.937Z" transform="translate(-59.401 -52.363)"/>
          <path id="Path_4401" data-name="Path 4401" d="M62.947,70.95c-.369.138-1.517.6-1.662-.212a16.7,16.7,0,0,1-.065-1.674c-.111-1.506.085-3.02-.015-4.528-.022-.338-.568-.363-.6-.02a26.335,26.335,0,0,0-.051,6.608c.211,1.173,2.029,1.042,2.713.412A.34.34,0,0,0,62.947,70.95Z" transform="translate(-49.43 -52.734)"/>
        </g>
        <g id="face-3" data-name="face" transform="translate(1251.809 427.702)">
          <path id="Path_4588" data-name="Path 4588" d="M41.066,398.777c0,.969-1.076,1.755-2.4,1.755s-2.4-.786-2.4-1.755,1.076-1.755,2.4-1.755S41.066,397.808,41.066,398.777Z" transform="translate(-36.044 -379.757)" fill="#ffc3bf"/>
          <path id="Path_4589" data-name="Path 4589" d="M89.566,397.777c0,.969-1.076,1.755-2.4,1.755s-2.4-.786-2.4-1.755,1.076-1.755,2.4-1.755S89.566,396.808,89.566,397.777Z" transform="translate(-66.038 -379.138)" fill="#ffc3bf"/>
          <path id="Path_4590" data-name="Path 4590" d="M44.377,376.538c-.928-2.995-4.493-3.279-6.9-1.572a3.81,3.81,0,0,0-1.4,3.837,3.965,3.965,0,0,0,5.336,2.549C43.333,380.714,45.027,378.629,44.377,376.538Zm-2.256,3.611a3.677,3.677,0,0,1-4.393,0,3.047,3.047,0,0,1-.818-3.4c.54-1.474,2.387-2.179,3.834-2.127a.237.237,0,0,0,.113-.031,2.826,2.826,0,0,1,2.427,1.325C44.334,377.445,43.47,379.2,42.121,380.15Z" transform="translate(-35.859 -365.47)"/>
          <path id="Path_4591" data-name="Path 4591" d="M44.5,376.994a2.826,2.826,0,0,0-2.427-1.325.237.237,0,0,1-.113.031c-1.447-.052-3.294.653-3.834,2.127a3.047,3.047,0,0,0,.818,3.4,3.677,3.677,0,0,0,4.393,0C44.686,380.282,45.55,378.526,44.5,376.994Zm-2.027,3.669a1.657,1.657,0,0,1-1.929-1.709,1.678,1.678,0,0,1,1.838-1.722,1.492,1.492,0,0,1,1.38,1.175A1.8,1.8,0,0,1,42.473,380.663Z" transform="translate(-37.075 -366.552)" fill="#fff"/>
          <path id="Path_4592" data-name="Path 4592" d="M83.952,377.133c-.861-3.1-4.506-3.657-6.9-2.2a4.185,4.185,0,0,0-1.38,4.261c.556,2.339,3.068,2.971,5.125,2.446C82.737,381.138,84.544,379.251,83.952,377.133Zm-2.985,3.66a3.526,3.526,0,0,1-4.216-.94,3.371,3.371,0,0,1-.043-3.632,3.3,3.3,0,0,1,1.81-1.328c1.694-.4,3.648-.11,4.585,2.03C83.869,378.671,82.5,380.173,80.966,380.792Z" transform="translate(-60.341 -365.621)"/>
          <path id="Path_4593" data-name="Path 4593" d="M84.158,377.854c-.937-2.14-2.891-2.427-4.585-2.03a3.3,3.3,0,0,0-1.81,1.328,3.371,3.371,0,0,0,.043,3.632,3.526,3.526,0,0,0,4.216.94C83.557,381.105,84.924,379.6,84.158,377.854Zm-4.2,2.811a1.657,1.657,0,0,1-1.929-1.709,1.678,1.678,0,0,1,1.838-1.722,1.492,1.492,0,0,1,1.38,1.175A1.8,1.8,0,0,1,79.958,380.666Z" transform="translate(-61.397 -366.554)" fill="#fff"/>
          <path id="Path_4594" data-name="Path 4594" d="M43.721,357.031c-.586-.91-2.445-.437-3.282-.272a7.373,7.373,0,0,0-4.622,3.5c-.342.665.125.8.412.7,1.227-.446,2.412-1,3.654-1.42.684-.232,1.419-.3,2.119-.479C42.873,358.841,44.469,358.182,43.721,357.031ZM42.7,358.084a4.5,4.5,0,0,1-.891.309c-.464.128-.943.208-1.416.293a18.574,18.574,0,0,0-3.657,1.331c1.67-1.59,3.559-3.132,6.05-2.747C43.331,357.461,43.059,357.971,42.7,358.084Z" transform="translate(-35.698 -354.69)"/>
          <path id="Path_4595" data-name="Path 4595" d="M44.394,359.251a4.5,4.5,0,0,1-.891.309c-.464.128-.943.208-1.416.293a18.576,18.576,0,0,0-3.657,1.331c1.67-1.59,3.559-3.132,6.05-2.747C45.02,358.629,44.748,359.139,44.394,359.251Z" transform="translate(-37.387 -355.858)" fill="#845123"/>
          <path id="Path_4596" data-name="Path 4596" d="M84.4,356.1a7.554,7.554,0,0,0-4.036-3.868c-.733-.241-2.366-.876-2.891-.037-.665,1.068.733,1.862,1.5,2.158.614.238,1.261.376,1.859.663,1.09.525,2.125,1.181,3.205,1.734C84.284,356.878,84.7,356.784,84.4,356.1Zm-4.014-1.969c-.415-.128-.836-.25-1.242-.419a4.033,4.033,0,0,1-.781-.384c-.314-.143-.546-.672-.067-.809,2.195-.153,3.843,1.535,5.3,3.257A16.657,16.657,0,0,0,80.386,354.131Z" transform="translate(-61.425 -351.775)"/>
          <path id="Path_4597" data-name="Path 4597" d="M84.761,356.967a16.658,16.658,0,0,0-3.205-1.645c-.415-.128-.836-.25-1.242-.419a4.034,4.034,0,0,1-.781-.384c-.314-.143-.546-.672-.067-.809C81.66,353.557,83.308,355.246,84.761,356.967Z" transform="translate(-62.595 -352.966)" fill="#845123"/>
          <path id="Path_4598" data-name="Path 4598" d="M46.713,383.169a1.657,1.657,0,0,1-1.929-1.709,1.678,1.678,0,0,1,1.838-1.722A1.492,1.492,0,0,1,48,380.913,1.8,1.8,0,0,1,46.713,383.169Z" transform="translate(-41.315 -369.057)"/>
          <path id="Path_4599" data-name="Path 4599" d="M81.209,383.169a1.657,1.657,0,0,1-1.929-1.709,1.678,1.678,0,0,1,1.838-1.722,1.492,1.492,0,0,1,1.38,1.175A1.8,1.8,0,0,1,81.209,383.169Z" transform="translate(-62.648 -369.057)"/>
          <path id="Path_4600" data-name="Path 4600" d="M64.554,386.471c-.338.126-1.39.548-1.522-.194a15.3,15.3,0,0,1-.06-1.533c-.1-1.38.077-2.766-.014-4.146-.02-.309-.52-.332-.547-.018a24.133,24.133,0,0,0-.047,6.051c.193,1.074,1.858.955,2.484.377A.311.311,0,0,0,64.554,386.471Z" transform="translate(-52.078 -369.45)"/>
          <path id="Path_4601" data-name="Path 4601" d="M64.523,405.084A2.47,2.47,0,0,0,60.2,404a2.592,2.592,0,0,0-.7,2.286,2.3,2.3,0,0,0,3.013,1.825A2.641,2.641,0,0,0,64.523,405.084Zm-2.289,2.3a1.513,1.513,0,0,1-1.978-1.178c-.342-1.621.754-2.317,2.115-2.4a1.794,1.794,0,0,1,1.438,1.758A1.945,1.945,0,0,1,62.234,407.388Z" transform="translate(-50.395 -383.521)"/>
          <path id="Path_4602" data-name="Path 4602" d="M63.417,408.532a1.513,1.513,0,0,1-1.978-1.178c-.342-1.621.754-2.317,2.115-2.4a1.794,1.794,0,0,1,1.438,1.758A1.945,1.945,0,0,1,63.417,408.532Z" transform="translate(-51.578 -384.665)" fill="#c92727"/>
        </g>
        <g id="face-4" data-name="face" transform="translate(1096.078 440.915)">
          <path id="Path_4588-2" data-name="Path 4588" d="M41.066,398.777c0,.969-1.076,1.755-2.4,1.755s-2.4-.786-2.4-1.755,1.076-1.755,2.4-1.755S41.066,397.808,41.066,398.777Z" transform="translate(-36.044 -379.757)" fill="#ffc3bf"/>
          <path id="Path_4589-2" data-name="Path 4589" d="M89.566,397.777c0,.969-1.076,1.755-2.4,1.755s-2.4-.786-2.4-1.755,1.076-1.755,2.4-1.755S89.566,396.808,89.566,397.777Z" transform="translate(-66.038 -379.138)" fill="#ffc3bf"/>
          <path id="Path_4590-2" data-name="Path 4590" d="M44.377,376.538c-.928-2.995-4.493-3.279-6.9-1.572a3.81,3.81,0,0,0-1.4,3.837,3.965,3.965,0,0,0,5.336,2.549C43.333,380.714,45.027,378.629,44.377,376.538Zm-2.256,3.611a3.677,3.677,0,0,1-4.393,0,3.047,3.047,0,0,1-.818-3.4c.54-1.474,2.387-2.179,3.834-2.127a.237.237,0,0,0,.113-.031,2.826,2.826,0,0,1,2.427,1.325C44.334,377.445,43.47,379.2,42.121,380.15Z" transform="translate(-35.859 -365.47)"/>
          <path id="Path_4591-2" data-name="Path 4591" d="M44.5,376.994a2.826,2.826,0,0,0-2.427-1.325.237.237,0,0,1-.113.031c-1.447-.052-3.294.653-3.834,2.127a3.047,3.047,0,0,0,.818,3.4,3.677,3.677,0,0,0,4.393,0C44.686,380.282,45.55,378.526,44.5,376.994Zm-2.027,3.669a1.657,1.657,0,0,1-1.929-1.709,1.678,1.678,0,0,1,1.838-1.722,1.492,1.492,0,0,1,1.38,1.175A1.8,1.8,0,0,1,42.473,380.663Z" transform="translate(-37.075 -366.552)" fill="#fff"/>
          <path id="Path_4592-2" data-name="Path 4592" d="M83.952,377.133c-.861-3.1-4.506-3.657-6.9-2.2a4.185,4.185,0,0,0-1.38,4.261c.556,2.339,3.068,2.971,5.125,2.446C82.737,381.138,84.544,379.251,83.952,377.133Zm-2.985,3.66a3.526,3.526,0,0,1-4.216-.94,3.371,3.371,0,0,1-.043-3.632,3.3,3.3,0,0,1,1.81-1.328c1.694-.4,3.648-.11,4.585,2.03C83.869,378.671,82.5,380.173,80.966,380.792Z" transform="translate(-60.341 -365.621)"/>
          <path id="Path_4593-2" data-name="Path 4593" d="M84.158,377.854c-.937-2.14-2.891-2.427-4.585-2.03a3.3,3.3,0,0,0-1.81,1.328,3.371,3.371,0,0,0,.043,3.632,3.526,3.526,0,0,0,4.216.94C83.557,381.105,84.924,379.6,84.158,377.854Zm-4.2,2.811a1.657,1.657,0,0,1-1.929-1.709,1.678,1.678,0,0,1,1.838-1.722,1.492,1.492,0,0,1,1.38,1.175A1.8,1.8,0,0,1,79.958,380.666Z" transform="translate(-61.397 -366.554)" fill="#fff"/>
          <path id="Path_4594-2" data-name="Path 4594" d="M43.721,357.031c-.586-.91-2.445-.437-3.282-.272a7.373,7.373,0,0,0-4.622,3.5c-.342.665.125.8.412.7,1.227-.446,2.412-1,3.654-1.42.684-.232,1.419-.3,2.119-.479C42.873,358.841,44.469,358.182,43.721,357.031ZM42.7,358.084a4.5,4.5,0,0,1-.891.309c-.464.128-.943.208-1.416.293a18.574,18.574,0,0,0-3.657,1.331c1.67-1.59,3.559-3.132,6.05-2.747C43.331,357.461,43.059,357.971,42.7,358.084Z" transform="translate(-35.698 -354.69)"/>
          <path id="Path_4595-2" data-name="Path 4595" d="M44.394,359.251a4.5,4.5,0,0,1-.891.309c-.464.128-.943.208-1.416.293a18.576,18.576,0,0,0-3.657,1.331c1.67-1.59,3.559-3.132,6.05-2.747C45.02,358.629,44.748,359.139,44.394,359.251Z" transform="translate(-37.387 -355.858)" fill="#845123"/>
          <path id="Path_4596-2" data-name="Path 4596" d="M84.4,356.1a7.554,7.554,0,0,0-4.036-3.868c-.733-.241-2.366-.876-2.891-.037-.665,1.068.733,1.862,1.5,2.158.614.238,1.261.376,1.859.663,1.09.525,2.125,1.181,3.205,1.734C84.284,356.878,84.7,356.784,84.4,356.1Zm-4.014-1.969c-.415-.128-.836-.25-1.242-.419a4.033,4.033,0,0,1-.781-.384c-.314-.143-.546-.672-.067-.809,2.195-.153,3.843,1.535,5.3,3.257A16.657,16.657,0,0,0,80.386,354.131Z" transform="translate(-61.425 -351.775)"/>
          <path id="Path_4597-2" data-name="Path 4597" d="M84.761,356.967a16.658,16.658,0,0,0-3.205-1.645c-.415-.128-.836-.25-1.242-.419a4.034,4.034,0,0,1-.781-.384c-.314-.143-.546-.672-.067-.809C81.66,353.557,83.308,355.246,84.761,356.967Z" transform="translate(-62.595 -352.966)" fill="#845123"/>
          <path id="Path_4598-2" data-name="Path 4598" d="M46.713,383.169a1.657,1.657,0,0,1-1.929-1.709,1.678,1.678,0,0,1,1.838-1.722A1.492,1.492,0,0,1,48,380.913,1.8,1.8,0,0,1,46.713,383.169Z" transform="translate(-41.315 -369.057)"/>
          <path id="Path_4599-2" data-name="Path 4599" d="M81.209,383.169a1.657,1.657,0,0,1-1.929-1.709,1.678,1.678,0,0,1,1.838-1.722,1.492,1.492,0,0,1,1.38,1.175A1.8,1.8,0,0,1,81.209,383.169Z" transform="translate(-62.648 -369.057)"/>
          <path id="Path_4600-2" data-name="Path 4600" d="M64.554,386.471c-.338.126-1.39.548-1.522-.194a15.3,15.3,0,0,1-.06-1.533c-.1-1.38.077-2.766-.014-4.146-.02-.309-.52-.332-.547-.018a24.133,24.133,0,0,0-.047,6.051c.193,1.074,1.858.955,2.484.377A.311.311,0,0,0,64.554,386.471Z" transform="translate(-52.078 -369.45)"/>
          <path id="Path_4601-2" data-name="Path 4601" d="M64.523,405.084A2.47,2.47,0,0,0,60.2,404a2.592,2.592,0,0,0-.7,2.286,2.3,2.3,0,0,0,3.013,1.825A2.641,2.641,0,0,0,64.523,405.084Zm-2.289,2.3a1.513,1.513,0,0,1-1.978-1.178c-.342-1.621.754-2.317,2.115-2.4a1.794,1.794,0,0,1,1.438,1.758A1.945,1.945,0,0,1,62.234,407.388Z" transform="translate(-50.395 -383.521)"/>
          <path id="Path_4602-2" data-name="Path 4602" d="M63.417,408.532a1.513,1.513,0,0,1-1.978-1.178c-.342-1.621.754-2.317,2.115-2.4a1.794,1.794,0,0,1,1.438,1.758A1.945,1.945,0,0,1,63.417,408.532Z" transform="translate(-51.578 -384.665)" fill="#c92727"/>
        </g>
        <g id="face-5" data-name="face" transform="translate(1387.111 465.199)">
          <path id="Path_4578" data-name="Path 4578" d="M147.469,382.174c0,1-1.106,1.8-2.47,1.8s-2.47-.807-2.47-1.8,1.106-1.8,2.47-1.8S147.469,381.178,147.469,382.174Z" transform="translate(-141.381 -370.281)" fill="#ffc3bf"/>
          <path id="Path_4579" data-name="Path 4579" d="M195.969,381.174c0,1-1.106,1.8-2.47,1.8s-2.47-.807-2.47-1.8,1.106-1.8,2.47-1.8S195.969,380.178,195.969,381.174Z" transform="translate(-170.863 -369.673)" fill="#ffc3bf"/>
          <path id="Path_4580" data-name="Path 4580" d="M166.62,386.159a2.292,2.292,0,0,0-2.134-.844.284.284,0,0,0,.055.543,2.656,2.656,0,0,1,.464.111c-1.533,1.686-2.332,2.864-4.059,3.9a12.3,12.3,0,0,1-6.317,1.579,16.486,16.486,0,0,1-6.408-1.227,10.16,10.16,0,0,1-2.639-1.725,11.625,11.625,0,0,1-1.822-2.328c.134-.087.265-.176.389-.256.387-.25-.036-.816-.423-.574a4.74,4.74,0,0,1-1.309.668c-.295.079-.211.517.058.563a1.368,1.368,0,0,0,.8-.136,9.894,9.894,0,0,0,3.9,4.127,15.375,15.375,0,0,0,6.992,1.662,13.015,13.015,0,0,0,6.767-1.472,10.853,10.853,0,0,0,4.646-4.5,4.028,4.028,0,0,1,.533.39C166.414,386.9,166.893,386.452,166.62,386.159Z" transform="translate(-141.2 -373.248)"/>
          <path id="Path_4581" data-name="Path 4581" d="M148.625,356.179c-.276-1.076-2.246-1.218-3.115-1.324a7.565,7.565,0,0,0-5.64,1.92c-.546.536-.138.825.176.816,1.343-.038,2.679-.2,4.025-.2.743,0,1.481.163,2.221.217C147.213,357.672,148.979,357.543,148.625,356.179Zm-1.333.7a4.352,4.352,0,0,1-.969.01c-.5-.022-.985-.1-1.474-.17a18.973,18.973,0,0,0-4,.116c2.143-1.014,4.483-1.9,6.789-.722C148.1,356.473,147.674,356.885,147.291,356.878Z" transform="translate(-139.601 -354.747)"/>
          <path id="Path_4582" data-name="Path 4582" d="M149.223,358.013a4.352,4.352,0,0,1-.969.01c-.5-.022-.985-.1-1.474-.17a18.973,18.973,0,0,0-4,.116c2.143-1.014,4.483-1.9,6.789-.722C150.036,357.609,149.606,358.02,149.223,358.013Z" transform="translate(-141.534 -355.883)" fill="#845123"/>
          <path id="Path_4583" data-name="Path 4583" d="M191.163,356.288a7.768,7.768,0,0,0-5.521-1.584c-.781.132-2.569.335-2.645,1.352-.1,1.289,1.553,1.343,2.39,1.242.671-.075,1.324-.26,2.011-.285,1.239-.044,2.5.06,3.742.044C191.43,357.054,191.759,356.771,191.163,356.288Zm-4.593.132a13.4,13.4,0,0,1-1.333.214,4.046,4.046,0,0,1-.894.025c-.351.019-.818-.348-.448-.7,1.926-1.189,4.231-.442,6.378.427A17.362,17.362,0,0,0,186.571,356.42Z" transform="translate(-165.978 -354.64)"/>
          <path id="Path_4584" data-name="Path 4584" d="M191.459,357.465a17.362,17.362,0,0,0-3.7.038,13.4,13.4,0,0,1-1.333.214,4.046,4.046,0,0,1-.894.025c-.351.019-.818-.348-.448-.7C187.008,355.85,189.313,356.6,191.459,357.465Z" transform="translate(-167.165 -355.723)" fill="#845123"/>
          <path id="Path_4585" data-name="Path 4585" d="M172.288,375.322c-.351.119-1.444.52-1.557-.245a15.754,15.754,0,0,1-.015-1.576c-.063-1.421.165-2.838.112-4.259a.285.285,0,0,0-.561-.035,24.8,24.8,0,0,0-.233,6.214c.165,1.109,1.879,1.037,2.54.463A.319.319,0,0,0,172.288,375.322Z" transform="translate(-158.026 -363.359)"/>
          <path id="Path_4586" data-name="Path 4586" d="M146.741,367.652a.291.291,0,0,0-.2.522c.744.566,1.76.871,2.243,1.68a4.184,4.184,0,0,0-4.592,1.347c-.2.193.1.455.308.38.745-.265,1.369-.739,2.154-.959a4.727,4.727,0,0,1,2.607.124.4.4,0,0,0,.526-.427A3.668,3.668,0,0,0,146.741,367.652Z" transform="translate(-142.354 -362.549)"/>
          <path id="Path_4587" data-name="Path 4587" d="M189.6,367.5a.293.293,0,0,1,.2.525c-.757.558-1.791.851-2.283,1.656a4.331,4.331,0,0,1,4.669,1.4c.2.2-.1.456-.314.378-.757-.275-1.392-.756-2.19-.987a4.874,4.874,0,0,0-2.653.093c-.269.069-.6-.121-.535-.434A3.662,3.662,0,0,1,189.6,367.5Z" transform="translate(-168.104 -362.46)"/>
        </g>
        <g id="face-6" data-name="face" transform="translate(670.461 435.602)">
          <ellipse id="Ellipse_257-2" data-name="Ellipse 257" cx="2.601" cy="1.899" rx="2.601" ry="1.899" transform="translate(0 14.711)" fill="#ffc3bf"/>
          <ellipse id="Ellipse_258-2" data-name="Ellipse 258" cx="2.601" cy="1.899" rx="2.601" ry="1.899" transform="translate(20.024 14.298)" fill="#ffc3bf"/>
          <path id="Path_4402-2" data-name="Path 4402" d="M157.919,61.006c-1-3.24-4.865-3.547-7.467-1.7a4.125,4.125,0,0,0-1.513,4.155,4.294,4.294,0,0,0,5.773,2.755C156.789,65.528,158.619,63.272,157.919,61.006Zm-2.444,3.907a3.978,3.978,0,0,1-4.753,0,3.3,3.3,0,0,1-.881-3.679c.581-1.6,2.58-2.362,4.145-2.305a.275.275,0,0,0,.126-.033,3.06,3.06,0,0,1,2.622,1.433C157.873,61.987,156.938,63.886,155.475,64.913Z" transform="translate(-148.388 -52.223)"/>
          <path id="Path_4403-2" data-name="Path 4403" d="M156.633,65.94a3.978,3.978,0,0,1-4.753,0A3.3,3.3,0,0,1,151,62.261c.581-1.6,2.58-2.362,4.145-2.305a.275.275,0,0,0,.126-.033,3.06,3.06,0,0,1,2.622,1.433C159.031,63.014,158.1,64.914,156.633,65.94Z" transform="translate(-149.547 -53.251)" fill="#fff"/>
          <path id="Path_4404-2" data-name="Path 4404" d="M197.495,61.629c-.931-3.349-4.875-3.957-7.468-2.385a4.54,4.54,0,0,0-1.5,4.614c.6,2.53,3.323,3.21,5.549,2.642C196.177,65.963,198.132,63.922,197.495,61.629Zm-3.233,3.963a3.811,3.811,0,0,1-4.558-1.021,3.648,3.648,0,0,1-.05-3.93,3.566,3.566,0,0,1,1.962-1.433c1.833-.429,3.947-.122,4.958,2.193C197.4,63.294,195.926,64.922,194.261,65.593Z" transform="translate(-171.635 -52.367)"/>
          <path id="Path_4405-2" data-name="Path 4405" d="M195.263,66.482a3.811,3.811,0,0,1-4.558-1.021,3.648,3.648,0,0,1-.05-3.93,3.566,3.566,0,0,1,1.962-1.433c1.833-.429,3.947-.122,4.958,2.193C198.4,64.183,196.927,65.811,195.263,66.482Z" transform="translate(-172.637 -53.256)" fill="#fff"/>
          <path id="Path_4406-2" data-name="Path 4406" d="M157.957,46.355c-.3-1.13-2.368-1.272-3.283-1.381a7.97,7.97,0,0,0-5.932,2.048c-.575.568-.142.869.188.858,1.413-.046,2.821-.224,4.237-.235.779-.007,1.559.165,2.338.218C156.477,47.934,158.337,47.792,157.957,46.355Zm-1.4.743a4.788,4.788,0,0,1-1.021.017c-.522-.023-1.04-.1-1.556-.175a19.988,19.988,0,0,0-4.208.142c2.253-1.077,4.713-2.025,7.144-.793C157.412,46.669,156.959,47.1,156.557,47.1Z" transform="translate(-148.185 -44.452)"/>
          <path id="Path_4407-2" data-name="Path 4407" d="M158.422,48.193a4.787,4.787,0,0,1-1.021.017c-.522-.023-1.04-.1-1.556-.175a19.988,19.988,0,0,0-4.208.142c2.253-1.077,4.713-2.025,7.144-.793C159.277,47.764,158.825,48.2,158.422,48.193Z" transform="translate(-150.051 -45.547)" fill="#845123"/>
          <path id="Path_4408-2" data-name="Path 4408" d="M198.286,45.007a8.194,8.194,0,0,0-5.955-1.057c-.806.225-2.655.634-2.622,1.7.04,1.361,1.774,1.235,2.639,1.044.7-.156,1.36-.419,2.074-.519,1.3-.182,2.622-.215,3.924-.367C198.649,45.78,198.963,45.446,198.286,45.007Zm-4.8.641c-.453.135-.9.277-1.371.37a4.415,4.415,0,0,1-.934.122c-.367.059-.9-.274-.549-.687,1.886-1.457,4.383-.925,6.728-.251A18.13,18.13,0,0,0,193.491,45.648Z" transform="translate(-172.403 -43.761)"/>
          <path id="Path_4409-2" data-name="Path 4409" d="M198.525,46.289a18.13,18.13,0,0,0-3.874.446c-.453.135-.9.277-1.371.37a4.416,4.416,0,0,1-.934.122c-.367.059-.9-.274-.549-.687C193.682,45.083,196.18,45.615,198.525,46.289Z" transform="translate(-173.563 -44.848)" fill="#845123"/>
          <path id="Path_4410-2" data-name="Path 4410" d="M161.119,65.264a1.618,1.618,0,0,0-1.492-1.272,1.815,1.815,0,0,0-1.988,1.864,1.791,1.791,0,0,0,2.087,1.848A1.949,1.949,0,0,0,161.119,65.264Z" transform="translate(-153.572 -55.628)"/>
          <path id="Path_4411-2" data-name="Path 4411" d="M195.616,65.264a1.618,1.618,0,0,0-1.492-1.272,1.815,1.815,0,0,0-1.989,1.864,1.791,1.791,0,0,0,2.087,1.848A1.948,1.948,0,0,0,195.616,65.264Z" transform="translate(-173.826 -55.628)"/>
          <path id="Path_4412-2" data-name="Path 4412" d="M177.6,71.227c-.366.136-1.5.592-1.646-.21a16.429,16.429,0,0,1-.065-1.658c-.11-1.493.084-2.992-.015-4.486-.022-.334-.564-.359-.592-.019a26.072,26.072,0,0,0-.051,6.547c.209,1.162,2.01,1.033,2.688.408A.336.336,0,0,0,177.6,71.227Z" transform="translate(-163.789 -56.003)"/>
          <path id="Path_4413-2" data-name="Path 4413" d="M173.557,83.971a2.413,2.413,0,0,0-2.247-.889.3.3,0,0,0,.058.571,2.872,2.872,0,0,1,.488.117c-1.614,1.775-2.456,3.015-4.274,4.107a12.945,12.945,0,0,1-6.651,1.662,17.335,17.335,0,0,1-6.747-1.292,10.694,10.694,0,0,1-2.778-1.815,12.262,12.262,0,0,1-1.919-2.452c.142-.091.279-.185.41-.27.407-.263-.038-.859-.446-.6a4.96,4.96,0,0,1-1.377.7c-.31.083-.222.545.061.594a1.44,1.44,0,0,0,.846-.143A10.414,10.414,0,0,0,153.09,88.6a16.193,16.193,0,0,0,7.362,1.75,13.7,13.7,0,0,0,7.125-1.55,11.428,11.428,0,0,0,4.891-4.737,4.19,4.19,0,0,1,.561.41C173.34,84.747,173.844,84.278,173.557,83.971Z" transform="translate(-147.844 -66.809)"/>
        </g>
      </g>
      <g id="Group_470" data-name="Group 470" transform="translate(-27 11)">
        <g transform="matrix(1, 0, 0, 1, 670.04, 167)" filter="url(#Opportunities_box_2-2)">
          <rect id="Opportunities_box_2-5" data-name="Opportunities box 2" width="144" height="94" rx="4" transform="translate(429 415.1)" fill="#fff"/>
        </g>
        <text id="_Easy_way_to_transfer_reservations_Create_ambassador_program._Use_personable_tone_" data-name="• Easy way to transfer 
   reservations
• Create ambassador 
   program.
• Use personable tone 

" transform="translate(1111.043 589.865)" fill="#5d5d5d" font-size="12" font-family="Lato-Light, Lato" font-weight="300"><tspan x="0" y="12">• Easy way to transfer </tspan><tspan x="0" y="27" xml:space="preserve">   reservations</tspan><tspan x="0" y="42">• Create ambassador </tspan><tspan x="0" y="57" xml:space="preserve">   program.</tspan><tspan x="0" y="72">• Use personable tone </tspan></text>
      </g>
      <g id="Group_473" data-name="Group 473" transform="translate(174 11)">
        <g transform="matrix(1, 0, 0, 1, 469.04, 167)" filter="url(#Opportunities_box_2-3)">
          <rect id="Opportunities_box_2-6" data-name="Opportunities box 2" width="144" height="94" rx="4" transform="translate(630 415.1)" fill="#fff"/>
        </g>
        <text id="_Access_info_without_Wi-fi_Partner_with_local_businesses_for_in_App_advertisements_" data-name="• Access info without 
   Wi-fi
• Partner with local 
  businesses for in 
  App advertisements
" transform="translate(1111.043 589.865)" fill="#5d5d5d" font-size="12" font-family="Lato-Light, Lato" font-weight="300"><tspan x="0" y="12">• Access info without </tspan><tspan x="0" y="27" xml:space="preserve">   Wi-fi</tspan><tspan x="0" y="42">• Partner with local </tspan><tspan x="0" y="57" xml:space="preserve">  businesses for in </tspan><tspan x="0" y="72" xml:space="preserve">  App advertisements</tspan></text>
      </g>
      <g id="Group_464" data-name="Group 464" transform="translate(-34 65)">
        <g id="Group_460" data-name="Group 460">
          <g transform="matrix(1, 0, 0, 1, 677.04, 113)" filter="url(#Box_4-4)">
            <rect id="Box_4-9" data-name="Box 4" width="144" height="54" rx="4" transform="translate(429 161)" fill="#0476bf"/>
          </g>
          <text id="Destination_on-boarding." data-name="Destination on-boarding." transform="translate(1123.043 283)" fill="#fff" font-size="12" font-family="Lato-Light, Lato" font-weight="300"><tspan x="0" y="12">Destination on-</tspan><tspan x="0" y="27">boarding.</tspan></text>
        </g>
        <ellipse id="Ellipse_4-4" data-name="Ellipse 4" cx="9.344" cy="9.344" rx="9.344" ry="9.344" transform="translate(1097.043 292)" fill="#5d5d5d"/>
        <text id="_6-2" data-name="6" transform="translate(1103.042 306)" fill="#fff" font-size="11" font-family="HelveticaNeue-Medium, Helvetica Neue" font-weight="500"><tspan x="0" y="0">6</tspan></text>
      </g>
      <g id="Group_465" data-name="Group 465" transform="translate(-34 86)">
        <g id="Group_461" data-name="Group 461">
          <g transform="matrix(1, 0, 0, 1, 677.04, 92)" filter="url(#Box_4-5)">
            <rect id="Box_4-10" data-name="Box 4" width="144" height="54" rx="4" transform="translate(429 227.03)" fill="#0476bf"/>
          </g>
          <text id="Receive_reminder_to_get_visa" data-name="Receive reminder to get visa" transform="translate(1123.043 324.709)" fill="#fff" font-size="12" font-family="Lato-Light, Lato" font-weight="300"><tspan x="0" y="12">Receive reminder to </tspan><tspan x="0" y="27">get visa</tspan></text>
        </g>
        <g id="experience_7" data-name="experience 7" transform="translate(1096.502 336.661)">
          <ellipse id="Ellipse_227" data-name="Ellipse 227" cx="9.344" cy="9.344" rx="9.344" ry="9.344" transform="translate(-0.459)" fill="#5d5d5d"/>
          <text id="_7-2" data-name="7" transform="translate(5.541 13.339)" fill="#fff" font-size="11" font-family="HelveticaNeue-Medium, Helvetica Neue" font-weight="500"><tspan x="0" y="0">7</tspan></text>
        </g>
      </g>
    </g>
    <text id="SCENARIO" transform="translate(362)" fill="#040505" font-size="18" font-family="Lato-Regular, Lato"><tspan x="0" y="18">SCENARIO</tspan></text>
  </g>
</svg>
