<svg width="250" height="250" viewBox="0 0 250 250" fill="none" xmlns="http://www.w3.org/2000/svg">
<path d="M147.199 91.8191C147.599 92.7191 163.799 120.019 166.099 123.019C168.399 126.019 169.999 125.719 168.399 122.219C166.799 118.719 150.299 84.1191 150.299 84.1191" fill="#D4E2EA"/>
<path d="M147.199 91.8191C147.599 92.7191 163.799 120.019 166.099 123.019C168.399 126.019 169.999 125.719 168.399 122.219C166.799 118.719 150.299 84.1191 150.299 84.1191" stroke="black" stroke-width="0.2" stroke-miterlimit="10"/>
<path d="M107.399 140.919C105.999 142.719 89.6992 187.019 89.6992 187.419C89.6992 187.819 90.5992 189.719 92.6992 190.519C93.5992 190.819 96.4992 191.019 97.3992 189.319C98.2992 187.819 120.099 145.219 119.599 144.519C117.699 141.919 115.199 141.119 113.599 140.619C110.299 139.519 107.399 140.919 107.399 140.919Z" fill="#023246"/>
<path d="M135.499 138.519C134.899 138.719 134.499 139.219 134.099 139.619C133.699 140.119 133.299 140.519 132.699 140.719C132.099 140.919 131.399 140.519 131.299 139.919C131.299 139.519 131.499 139.219 131.699 138.919C132.499 137.819 133.199 136.319 132.399 135.219C132.199 134.919 131.799 134.619 131.499 134.419C129.799 133.319 127.999 132.519 126.199 131.719C122.799 130.319 119.399 129.119 115.899 128.119C114.199 127.619 112.499 127.119 110.799 126.619C109.099 126.119 106.999 124.719 105.299 125.619C103.899 126.419 103.199 128.419 102.499 129.719C101.599 131.219 100.799 132.719 100.099 134.219C99.3987 135.519 98.7987 137.019 99.1987 138.519C99.3987 139.419 100.099 140.219 100.799 140.919C102.999 142.919 105.999 143.619 108.799 144.319C113.699 145.419 118.499 146.619 123.399 147.719C124.199 147.919 125.099 148.119 125.799 147.619C126.599 147.019 126.899 145.619 127.899 145.719C128.699 145.819 128.899 146.919 128.699 147.619C128.499 148.419 127.999 149.119 128.099 149.919C128.299 151.219 129.999 151.519 131.299 151.519C132.099 151.519 132.999 151.519 133.699 151.019C133.999 150.719 134.299 150.319 134.499 149.919C135.599 147.819 136.699 145.719 137.599 143.519C137.999 142.419 138.499 141.319 138.199 140.119C137.699 139.219 136.599 138.119 135.499 138.519Z" fill="#D4E2EA"/>
<path d="M135.499 138.52C134.899 138.82 134.399 139.62 133.899 139.92C132.899 140.32 131.799 139.72 131.899 138.72C131.799 139.22 132.999 136.22 132.499 137.62C132.899 136.62 132.799 135.72 131.999 134.92C130.499 133.52 128.099 132.72 126.199 131.92C123.999 131.02 121.699 130.12 119.399 129.42C117.099 128.62 114.799 128.02 112.499 127.32C110.699 126.82 108.499 125.52 106.599 125.52C103.599 125.52 102.099 130.42 100.899 132.52C99.0993 135.82 97.6993 138.92 101.199 141.62C104.599 144.22 109.499 144.72 113.499 145.62C116.299 146.22 118.999 146.92 121.799 147.52C122.899 147.82 124.599 148.42 125.599 147.72C126.499 147.12 125.699 146.72 127.299 147.32C128.899 147.92 128.199 147.62 127.899 148.82C127.799 149.32 127.599 149.32 127.699 150.02C127.899 150.82 128.499 151.22 129.199 151.42C133.399 152.92 134.599 149.32 136.099 146.12C137.199 144.22 139.899 138.12 135.499 138.52C135.399 138.52 135.399 138.52 135.499 138.52C135.999 138.52 137.799 142.22 137.799 142.52C137.799 142.92 137.499 143.42 137.399 143.72C136.999 144.82 136.499 145.92 135.999 146.92C134.899 149.12 133.799 151.52 130.999 151.62C129.099 151.62 128.499 149.72 128.499 148.12C128.499 147.72 128.799 147.42 128.699 147.02C128.699 146.62 128.599 146.22 128.299 145.92C127.899 145.62 127.599 145.82 127.299 145.92C127.099 146.02 126.999 146.32 126.799 146.42C125.699 147.32 125.099 148.12 123.499 147.82C119.399 147.02 115.399 145.92 111.299 144.92C107.899 144.12 102.599 143.52 100.299 140.52C98.0993 137.52 100.099 134.52 101.599 131.72C102.299 130.42 102.999 128.82 103.799 127.62C104.799 126.22 106.499 125.22 108.199 125.72C108.899 125.92 109.599 126.22 110.299 126.52C111.999 127.12 113.899 127.52 115.599 128.12C119.499 129.32 123.299 130.52 127.099 132.22C129.899 133.42 133.399 134.52 131.999 138.62C131.799 139.22 131.199 139.52 131.499 140.22C132.299 142.22 134.799 138.82 135.499 138.52C135.499 138.42 135.499 138.52 135.499 138.52Z" fill="black"/>
<path d="M83.2 163.819C83.2 163.819 98.4 157.519 102 158.619C105.6 159.819 110.1 164.219 110.8 165.519C111.3 166.419 111.2 167.919 110.4 168.719C109.9 169.219 108.2 169.119 108.2 169.119C108.2 169.119 109.6 170.419 108.8 171.719C107.8 173.419 106.6 172.819 106.6 172.819C106.6 172.819 107.3 174.019 106.8 175.019C105.9 176.919 103.9 175.919 103.9 175.919C103.9 175.919 105.2 177.419 104.9 178.119C103.9 180.119 101.8 179.419 101.8 179.419C101.8 179.419 100.1 178.419 98.2 177.619C96.3 176.819 89 178.619 85.2 177.919C83.4 177.619 82.3 175.919 81 173.019" fill="#EEEEEE"/>
<path d="M83.2 163.819C83.2 163.819 98.4 157.519 102 158.619C105.6 159.819 110.1 164.219 110.8 165.519C111.3 166.419 111.2 167.919 110.4 168.719C109.9 169.219 108.2 169.119 108.2 169.119C108.2 169.119 109.6 170.419 108.8 171.719C107.8 173.419 106.6 172.819 106.6 172.819C106.6 172.819 107.3 174.019 106.8 175.019C105.9 176.919 103.9 175.919 103.9 175.919C103.9 175.919 105.2 177.419 104.9 178.119C103.9 180.119 101.8 179.419 101.8 179.419C101.8 179.419 100.1 178.419 98.2 177.619C96.3 176.819 89 178.619 85.2 177.919C83.4 177.619 82.3 175.919 81 173.019" stroke="black" stroke-width="0.2" stroke-miterlimit="10"/>
<path d="M137.8 105.32C137.8 105.32 140.2 102.42 140.8 101.42C142.8 98.3198 144.5 94.5198 147.1 91.8198C149.2 89.7198 152.1 89.4198 154.8 88.7198C156.4 88.3198 158.3 87.9198 159.6 89.0198C161.3 90.4198 160.6 93.2198 161 95.4198C161.3 97.0198 162.3 98.4198 162.6 100.12C162.8 101.32 162.5 102.62 162.2 103.82C161.6 106.32 161 109.02 159.3 110.92C156.9 113.52 153.8 113.62 150.6 114.22C147.3 114.92 144.5 115.52 141 115.32C140.2 115.32 139.5 115.22 138.8 114.82C138.1 114.42 137.6 113.72 137.7 112.92" fill="#EEEEEE"/>
<path d="M137.8 105.42C140.3 102.42 142.1 99.12 144.2 95.82C146.4 92.42 148.6 90.32 152.6 89.32C154 89.02 155.6 88.42 157 88.42C158.9 88.32 160.6 90.12 160.7 91.92C160.8 92.52 160.7 93.12 160.8 93.72C160.9 97.02 163 99.52 162.4 102.92C161.8 106.12 160.9 109.82 158.2 111.92C155.5 113.92 138.2 118.02 137.9 113.12C137.9 113.02 137.8 113.02 137.8 113.12C137.9 116.02 141.9 115.62 143.9 115.52C147.7 115.32 152.1 114.62 155.8 113.42C158.6 112.52 160.4 110.52 161.4 107.72C162.1 106.02 162.6 103.92 162.8 102.12C163 99.92 162 98.42 161.4 96.42C160.7 94.12 161.9 90.12 159.2 88.82C158.1 88.32 156.8 88.52 155.7 88.72C153.8 89.12 151.6 89.52 149.8 90.32C146.5 91.72 144.7 95.12 143 98.12C141.3 100.52 139.7 102.92 137.8 105.42C137.8 105.42 137.7 105.42 137.8 105.42Z" fill="black"/>
<path d="M150.299 97.119C150.299 97.119 133.599 71.0191 132.299 68.7191C130.999 66.4191 138.499 57.8191 139.599 60.5191C140.699 63.2191 154.499 93.7191 154.499 93.7191C154.499 93.7191 153.799 96.619 150.299 97.119Z" fill="#D4E2EA" stroke="black" stroke-width="0.2" stroke-miterlimit="10"/>
</svg>
