<?xml version="1.0" encoding="utf-8"?>
<!-- Generator: Adobe Illustrator 19.0.0, SVG Export Plug-In . SVG Version: 6.00 Build 0)  -->
<svg version="1.1" id="Layer_1" xmlns="http://www.w3.org/2000/svg" xmlns:xlink="http://www.w3.org/1999/xlink" x="0px" y="0px"
	 viewBox="0 0 161.5 145.4" style="enable-background:new 0 0 161.5 145.4;" xml:space="preserve">
<style type="text/css">
	.st0{fill:#D4E2EA;stroke:#000000;stroke-width:0.2;stroke-miterlimit:10;}
	.st1{fill:#023246;}
	.st2{fill:#D4E2EA;}
	.st3{fill:#EEEEEE;stroke:#000000;stroke-width:0.2;stroke-miterlimit:10;}
	.st4{fill:#EEEEEE;}
</style>
<path id="XMLID_464_" class="st0" d="M104.1,36.8c0.4,0.9,16.6,28.2,18.9,31.2s3.9,2.7,2.3-0.8c-1.6-3.5-18.1-38.1-18.1-38.1"/>
<g id="XMLID_1327_">
	<path id="XMLID_1313_" class="st1" d="M64.3,85.9c-1.4,1.8-17.7,46.1-17.7,46.5c0,0.4,0.9,2.3,3,3.1c0.9,0.3,3.8,0.5,4.7-1.2
		c0.9-1.5,22.7-44.1,22.2-44.8c-1.9-2.6-4.4-3.4-6-3.9C67.2,84.5,64.3,85.9,64.3,85.9z"/>
	<g id="XMLID_456_">
		<path id="XMLID_30_" class="st2" d="M92.4,83.5c-0.6,0.2-1,0.7-1.4,1.1c-0.4,0.5-0.8,0.9-1.4,1.1c-0.6,0.2-1.3-0.2-1.4-0.8
			c0-0.4,0.2-0.7,0.4-1c0.8-1.1,1.5-2.6,0.7-3.7c-0.2-0.3-0.6-0.6-0.9-0.8c-1.7-1.1-3.5-1.9-5.3-2.7c-3.4-1.4-6.8-2.6-10.3-3.6
			c-1.7-0.5-3.4-1-5.1-1.5c-1.7-0.5-3.8-1.9-5.5-1c-1.4,0.8-2.1,2.8-2.8,4.1c-0.9,1.5-1.7,3-2.4,4.5c-0.7,1.3-1.3,2.8-0.9,4.3
			c0.2,0.9,0.9,1.7,1.6,2.4c2.2,2,5.2,2.7,8,3.4c4.9,1.1,9.7,2.3,14.6,3.4c0.8,0.2,1.7,0.4,2.4-0.1c0.8-0.6,1.1-2,2.1-1.9
			c0.8,0.1,1,1.2,0.8,1.9c-0.2,0.8-0.7,1.5-0.6,2.3c0.2,1.3,1.9,1.6,3.2,1.6c0.8,0,1.7,0,2.4-0.5c0.3-0.3,0.6-0.7,0.8-1.1
			c1.1-2.1,2.2-4.2,3.1-6.4c0.4-1.1,0.9-2.2,0.6-3.4C94.6,84.2,93.5,83.1,92.4,83.5z"/>
		<g id="XMLID_25_">
			<path id="XMLID_29_" d="M92.4,83.5c-0.6,0.3-1.1,1.1-1.6,1.4c-1,0.4-2.1-0.2-2-1.2c-0.1,0.5,1.1-2.5,0.6-1.1
				c0.4-1,0.3-1.9-0.5-2.7c-1.5-1.4-3.9-2.2-5.8-3c-2.2-0.9-4.5-1.8-6.8-2.5c-2.3-0.8-4.6-1.4-6.9-2.1c-1.8-0.5-4-1.8-5.9-1.8
				c-3,0-4.5,4.9-5.7,7c-1.8,3.3-3.2,6.4,0.3,9.1c3.4,2.6,8.3,3.1,12.3,4c2.8,0.6,5.5,1.3,8.3,1.9c1.1,0.3,2.8,0.9,3.8,0.2
				c0.9-0.6,0.1-1,1.7-0.4c1.6,0.6,0.9,0.3,0.6,1.5c-0.1,0.5-0.3,0.5-0.2,1.2c0.2,0.8,0.8,1.2,1.5,1.4c4.2,1.5,5.4-2.1,6.9-5.3
				C94.1,89.2,96.8,83.1,92.4,83.5C92.3,83.5,92.3,83.5,92.4,83.5c0.5,0,2.3,3.7,2.3,4c0,0.4-0.3,0.9-0.4,1.2
				c-0.4,1.1-0.9,2.2-1.4,3.2c-1.1,2.2-2.2,4.6-5,4.7c-1.9,0-2.5-1.9-2.5-3.5c0-0.4,0.3-0.7,0.2-1.1c0-0.4-0.1-0.8-0.4-1.1
				c-0.4-0.3-0.7-0.1-1,0c-0.2,0.1-0.3,0.4-0.5,0.5c-1.1,0.9-1.7,1.7-3.3,1.4c-4.1-0.8-8.1-1.9-12.2-2.9c-3.4-0.8-8.7-1.4-11-4.4
				c-2.2-3-0.2-6,1.3-8.8c0.7-1.3,1.4-2.9,2.2-4.1c1-1.4,2.7-2.4,4.4-1.9c0.7,0.2,1.4,0.5,2.1,0.8c1.7,0.6,3.6,1,5.3,1.6
				c3.9,1.2,7.7,2.4,11.5,4.1c2.8,1.2,6.3,2.3,4.9,6.4c-0.2,0.6-0.8,0.9-0.5,1.6C89.2,87.2,91.7,83.8,92.4,83.5
				C92.4,83.5,92.4,83.4,92.4,83.5z"/>
		</g>
	</g>
</g>
<path id="XMLID_1325_" class="st3" d="M40.1,108.8c0,0,15.2-6.3,18.8-5.2c3.6,1.2,8.1,5.6,8.8,6.9c0.5,0.9,0.4,2.4-0.4,3.2
	c-0.5,0.5-2.2,0.4-2.2,0.4s1.4,1.3,0.6,2.6c-1,1.7-2.2,1.1-2.2,1.1s0.7,1.2,0.2,2.2c-0.9,1.9-2.9,0.9-2.9,0.9s1.3,1.5,1,2.2
	c-1,2-3.1,1.3-3.1,1.3s-1.7-1-3.6-1.8c-1.9-0.8-9.2,1-13,0.3c-1.8-0.3-2.9-2-4.2-4.9"/>
<g id="XMLID_396_">
	<path id="XMLID_17_" class="st4" d="M94.7,50.3c0,0,2.4-2.9,3-3.9c2-3.1,3.7-6.9,6.3-9.6c2.1-2.1,5-2.4,7.7-3.1
		c1.6-0.4,3.5-0.8,4.8,0.3c1.7,1.4,1,4.2,1.4,6.4c0.3,1.6,1.3,3,1.6,4.7c0.2,1.2-0.1,2.5-0.4,3.7c-0.6,2.5-1.2,5.2-2.9,7.1
		c-2.4,2.6-5.5,2.7-8.7,3.3c-3.3,0.7-6.1,1.3-9.6,1.1c-0.8,0-1.5-0.1-2.2-0.5c-0.7-0.4-1.2-1.1-1.1-1.9"/>
	<g id="XMLID_12_">
		<path id="XMLID_16_" d="M94.7,50.4c2.5-3,4.3-6.3,6.4-9.6c2.2-3.4,4.4-5.5,8.4-6.5c1.4-0.3,3-0.9,4.4-0.9c1.9-0.1,3.6,1.7,3.7,3.5
			c0.1,0.6,0,1.2,0.1,1.8c0.1,3.3,2.2,5.8,1.6,9.2c-0.6,3.2-1.5,6.9-4.2,9c-2.7,2-20,6.1-20.3,1.2c0-0.1-0.1-0.1-0.1,0
			c0.1,2.9,4.1,2.5,6.1,2.4c3.8-0.2,8.2-0.9,11.9-2.1c2.8-0.9,4.6-2.9,5.6-5.7c0.7-1.7,1.2-3.8,1.4-5.6c0.2-2.2-0.8-3.7-1.4-5.7
			c-0.7-2.3,0.5-6.3-2.2-7.6c-1.1-0.5-2.4-0.3-3.5-0.1c-1.9,0.4-4.1,0.8-5.9,1.6c-3.3,1.4-5.1,4.8-6.8,7.8
			C98.2,45.5,96.6,47.9,94.7,50.4C94.6,50.4,94.7,50.4,94.7,50.4L94.7,50.4z"/>
	</g>
</g>
<path id="XMLID_461_" class="st0" d="M107.2,42.1c0,0-16.7-26.1-18-28.4s6.2-10.9,7.3-8.2c1.1,2.7,14.9,33.2,14.9,33.2
	S110.7,41.6,107.2,42.1z"/>
</svg>
