<svg width="227" height="66" viewBox="0 0 227 66" fill="none" xmlns="http://www.w3.org/2000/svg">
<path d="M223.117 58.272C223.376 58.1776 223.51 57.8906 223.415 57.6311L221.876 53.4025C221.782 53.143 221.495 53.0092 221.235 53.1037C220.976 53.1981 220.842 53.4851 220.937 53.7446L222.305 57.5033L218.546 58.8714C218.286 58.9658 218.153 59.2528 218.247 59.5123C218.342 59.7717 218.628 59.9055 218.888 59.8111L223.117 58.272ZM113.789 7.45315L116.058 8.51153L116.481 7.60522L114.211 6.54685L113.789 7.45315ZM120.598 10.6283L125.137 12.745L125.56 11.8387L121.02 9.72198L120.598 10.6283ZM129.677 14.8618L134.216 16.9786L134.639 16.0723L130.099 13.9555L129.677 14.8618ZM138.755 19.0953L143.295 21.2121L143.717 20.3058L139.178 18.189L138.755 19.0953ZM147.834 23.3288L152.374 25.4456L152.796 24.5393L148.257 22.4225L147.834 23.3288ZM156.913 27.5623L161.452 29.6791L161.875 28.7728L157.336 26.656L156.913 27.5623ZM165.992 31.7959L170.531 33.9126L170.954 33.0063L166.414 30.8895L165.992 31.7959ZM175.071 36.0294L179.61 38.1461L180.033 37.2398L175.493 35.1231L175.071 36.0294ZM184.149 40.2629L188.689 42.3796L189.111 41.4733L184.572 39.3566L184.149 40.2629ZM193.228 44.4964L197.768 46.6132L198.19 45.7069L193.651 43.5901L193.228 44.4964ZM202.307 48.7299L206.846 50.8467L207.269 49.9404L202.73 47.8236L202.307 48.7299ZM211.386 52.9634L215.925 55.0802L216.348 54.1739L211.808 52.0571L211.386 52.9634ZM220.465 57.1969L222.734 58.2553L223.157 57.349L220.887 56.2906L220.465 57.1969ZM223.288 58.7419C223.807 58.553 224.074 57.9791 223.885 57.4601L220.807 49.0029C220.618 48.4839 220.044 48.2163 219.525 48.4052C219.006 48.5941 218.739 49.168 218.928 49.6869L221.664 57.2045L214.146 59.9406C213.627 60.1295 213.36 60.7034 213.549 61.2224C213.738 61.7413 214.311 62.0089 214.83 61.82L223.288 58.7419ZM113.577 7.90631L115.847 8.96469L116.692 7.15207L114.423 6.09369L113.577 7.90631ZM120.386 11.0814L124.926 13.1982L125.771 11.3856L121.232 9.26883L120.386 11.0814ZM129.465 15.315L134.005 17.4317L134.85 15.6191L130.311 13.5023L129.465 15.315ZM138.544 19.5485L143.083 21.6652L143.929 19.8526L139.389 17.7359L138.544 19.5485ZM147.623 23.782L152.162 25.8987L153.008 24.0861L148.468 21.9694L147.623 23.782ZM156.702 28.0155L161.241 30.1323L162.086 28.3196L157.547 26.2029L156.702 28.0155ZM165.78 32.249L170.32 34.3658L171.165 32.5532L166.626 30.4364L165.78 32.249ZM174.859 36.4825L179.399 38.5993L180.244 36.7867L175.705 34.6699L174.859 36.4825ZM183.938 40.716L188.477 42.8328L189.323 41.0202L184.783 38.9034L183.938 40.716ZM193.017 44.9496L197.556 47.0663L198.402 45.2537L193.862 43.1369L193.017 44.9496ZM202.096 49.1831L206.635 51.2998L207.48 49.4872L202.941 47.3705L202.096 49.1831ZM211.174 53.4166L215.714 55.5333L216.559 53.7207L212.02 51.604L211.174 53.4166ZM220.253 57.6501L222.523 58.7085L223.368 56.8959L221.099 55.8375L220.253 57.6501Z" fill="#D4D4CE"/>
<path d="M4.82872 58.272C4.56923 58.1776 4.43544 57.8906 4.52988 57.6311L6.06898 53.4025C6.16342 53.143 6.45034 53.0092 6.70983 53.1037C6.96932 53.1981 7.10311 53.4851 7.00867 53.7446L5.64059 57.5033L9.39936 58.8714C9.65885 58.9658 9.79264 59.2528 9.69819 59.5123C9.60375 59.7717 9.31683 59.9055 9.05734 59.8111L4.82872 58.272ZM114.157 7.45315L111.887 8.51153L111.464 7.60522L113.734 6.54685L114.157 7.45315ZM107.348 10.6283L102.808 12.745L102.386 11.8387L106.925 9.72198L107.348 10.6283ZM98.2687 14.8618L93.7293 16.9786L93.3067 16.0723L97.8461 13.9555L98.2687 14.8618ZM89.1899 19.0953L84.6505 21.2121L84.2279 20.3058L88.7673 18.189L89.1899 19.0953ZM80.1111 23.3288L75.5717 25.4456L75.1491 24.5393L79.6885 22.4225L80.1111 23.3288ZM71.0323 27.5623L66.4929 29.6791L66.0703 28.7728L70.6097 26.656L71.0323 27.5623ZM61.9535 31.7959L57.4141 33.9126L56.9915 33.0063L61.5309 30.8895L61.9535 31.7959ZM52.8747 36.0294L48.3353 38.1461L47.9127 37.2398L52.4521 35.1231L52.8747 36.0294ZM43.7959 40.2629L39.2565 42.3796L38.8339 41.4733L43.3733 39.3566L43.7959 40.2629ZM34.7171 44.4964L30.1777 46.6132L29.7551 45.7069L34.2945 43.5901L34.7171 44.4964ZM25.6383 48.7299L21.0989 50.8467L20.6763 49.9404L25.2157 47.8236L25.6383 48.7299ZM16.5595 52.9634L12.0201 55.0802L11.5975 54.1739L16.1369 52.0571L16.5595 52.9634ZM7.48072 57.1969L5.21104 58.2553L4.78842 57.349L7.0581 56.2906L7.48072 57.1969ZM4.65771 58.7419C4.13873 58.553 3.87115 57.9791 4.06004 57.4601L7.13822 49.0029C7.32711 48.4839 7.90095 48.2163 8.41993 48.4052C8.93891 48.5941 9.2065 49.168 9.01761 49.6869L6.28144 57.2045L13.799 59.9406C14.318 60.1295 14.5855 60.7034 14.3967 61.2224C14.2078 61.7413 13.6339 62.0089 13.1149 61.82L4.65771 58.7419ZM114.368 7.90631L112.098 8.96469L111.253 7.15207L113.523 6.09369L114.368 7.90631ZM107.559 11.0814L103.019 13.1982L102.174 11.3856L106.714 9.26883L107.559 11.0814ZM98.48 15.315L93.9406 17.4317L93.0954 15.6191L97.6348 13.5023L98.48 15.315ZM89.4012 19.5485L84.8618 21.6652L84.0166 19.8526L88.556 17.7359L89.4012 19.5485ZM80.3224 23.782L75.783 25.8987L74.9378 24.0861L79.4772 21.9694L80.3224 23.782ZM71.2436 28.0155L66.7042 30.1323L65.859 28.3196L70.3984 26.2029L71.2436 28.0155ZM62.1648 32.249L57.6254 34.3658L56.7802 32.5532L61.3196 30.4364L62.1648 32.249ZM53.086 36.4825L48.5466 38.5993L47.7014 36.7867L52.2408 34.6699L53.086 36.4825ZM44.0072 40.716L39.4678 42.8328L38.6226 41.0202L43.162 38.9034L44.0072 40.716ZM34.9284 44.9496L30.389 47.0663L29.5438 45.2537L34.0832 43.1369L34.9284 44.9496ZM25.8496 49.1831L21.3102 51.2998L20.465 49.4872L25.0044 47.3705L25.8496 49.1831ZM16.7708 53.4166L12.2314 55.5333L11.3862 53.7207L15.9256 51.604L16.7708 53.4166ZM7.69203 57.6501L5.42235 58.7085L4.57711 56.8959L6.84679 55.8375L7.69203 57.6501Z" fill="#D4D4CE"/>
<path d="M113.646 65.3536C113.842 65.5488 114.158 65.5488 114.354 65.3536L117.536 62.1716C117.731 61.9763 117.731 61.6597 117.536 61.4645C117.34 61.2692 117.024 61.2692 116.828 61.4645L114 64.2929L111.172 61.4645C110.976 61.2692 110.66 61.2692 110.464 61.4645C110.269 61.6597 110.269 61.9763 110.464 62.1716L113.646 65.3536ZM113.5 7L113.5 9.41667L114.5 9.41667L114.5 7L113.5 7ZM113.5 14.25L113.5 19.0833L114.5 19.0833L114.5 14.25L113.5 14.25ZM113.5 23.9167L113.5 28.75L114.5 28.75L114.5 23.9167L113.5 23.9167ZM113.5 33.5833L113.5 38.4167L114.5 38.4167L114.5 33.5833L113.5 33.5833ZM113.5 43.25L113.5 48.0833L114.5 48.0833L114.5 43.25L113.5 43.25ZM113.5 52.9167L113.5 57.75L114.5 57.75L114.5 52.9167L113.5 52.9167ZM113.5 62.5833L113.5 65L114.5 65L114.5 62.5833L113.5 62.5833ZM113.293 65.7071C113.683 66.0976 114.317 66.0976 114.707 65.7071L121.071 59.3431C121.462 58.9526 121.462 58.3195 121.071 57.9289C120.681 57.5384 120.047 57.5384 119.657 57.9289L114 63.5858L108.343 57.9289C107.953 57.5384 107.319 57.5384 106.929 57.9289C106.538 58.3195 106.538 58.9526 106.929 59.3431L113.293 65.7071ZM113 7L113 9.41667L115 9.41667L115 7L113 7ZM113 14.25L113 19.0833L115 19.0833L115 14.25L113 14.25ZM113 23.9167L113 28.75L115 28.75L115 23.9167L113 23.9167ZM113 33.5833L113 38.4167L115 38.4167L115 33.5833L113 33.5833ZM113 43.25L113 48.0833L115 48.0833L115 43.25L113 43.25ZM113 52.9167L113 57.75L115 57.75L115 52.9167L113 52.9167ZM113 62.5833L113 65L115 65L115 62.5833L113 62.5833Z" fill="#D4D4CE"/>
</svg>
