<?xml version="1.0" encoding="utf-8"?>
<!-- Generator: Adobe Illustrator 19.0.0, SVG Export Plug-In . SVG Version: 6.00 Build 0)  -->
<svg version="1.1" id="Layer_1" xmlns="http://www.w3.org/2000/svg" xmlns:xlink="http://www.w3.org/1999/xlink" x="0px" y="0px"
	 viewBox="-423 229 112 104" style="enable-background:new -423 229 112 104;" xml:space="preserve">
<style type="text/css">
	.st0{fill:#E8E8E8;}
	.st1{fill:#B0B0B0;}
	.st2{fill:#F6F6F6;}
	.st3{fill:#112129;}
</style>
<g id="Layer_4">
	<g id="XMLID_872_">
		<g id="XMLID_887_">
			<path id="XMLID_892_" class="st0" d="M-367.7,310.4c5.1-1.3,10.1-2.9,15.1-5.2c0.2,0.4,0.5,0.7,0.5,1c0,0.3-0.2,0.7-0.5,1
				c-0.3,0.3-0.6,0.5-1,0.6c-3.6,1.9-7.2,3.7-11.3,4.1c-0.6,0.1-1.1,0-1.7,0C-367.1,311.9-367.3,311.6-367.7,310.4z"/>
			<path id="XMLID_891_" class="st0" d="M-353.3,301.6c0.5,1,0,1.5-0.6,1.8c-1,0.6-2,1.2-3.1,1.6c-3.2,1.1-6.4,2.1-9.6,3.2
				c-0.4,0.1-0.8,0.3-1.1,0.1c-0.4-0.2-0.8-0.6-1-0.9c-0.2-0.5,0.1-0.9,0.6-1.1c0.4-0.1,0.7-0.2,1.1-0.3c3.9-1,7.8-2,11.5-3.7
				C-354.7,301.9-354,301.8-353.3,301.6z"/>
			<path id="XMLID_890_" class="st0" d="M-365.5,314.5c2.9-0.9,5.3-1.5,7.6-2.4c2.2-0.8,4.4-1.8,6.7-2.8c0,0.5,0.2,0.9,0.1,1
				c-0.6,1-1.4,1.9-2.5,2.2c-2.7,0.9-5.3,1.8-8,2.5c-0.9,0.3-1.9,0.3-2.9,0.3C-364.8,315.4-365.1,314.9-365.5,314.5z"/>
			<path id="XMLID_889_" class="st1" d="M-352.4,315c-0.1,0.6,0,1.3-0.3,1.5c-2.3,1.8-4.9,2.6-7.8,2.4c-0.2,0-0.4-0.2-0.5-0.3
				c-0.1-0.2-0.2-0.5-0.3-0.8C-359.4,316.7-354.8,315.2-352.4,315z"/>
			<path id="XMLID_888_" class="st2" d="M-355.8,264.3c-6.8-4.3-14-5.4-21.6-2.1c-4.2,1.8-7.3,4.6-9,8.9c-0.7,1.7-1.1,3.5-1.5,5.3
				c-1.3,5.9,0.6,10.9,5,14.9c0.9,0.9,1.9,1.7,2.9,2.4c2.6,2,5.3,3.9,8.3,5.2c0.8,0.3,1.4,0.7,2,1.3c0.3,0.6,0.6,1.2,1,1.6
				c0.1,0.2,0.1,0.4,0.2,0.6c0.1,0.5,0.4,1,0.6,1.5c0.9,0.1,11.3-3.7,11.5-4c0.3-0.4,0.5-0.9,0.4-1.3c-0.3-2.4,0.4-4.4,1.9-6.2
				c3.4-4.2,5.1-9.1,5.4-14.4C-348.5,272.3-350.7,267.5-355.8,264.3z"/>
		</g>
		<path id="XMLID_877_" class="st3" d="M-350.5,313.3c0.7,3.3,0.8,4.4-2.8,6.2c-1.8,0.9-3.7,1.3-5.6,1.4s-3.4-0.5-4-2.6
			c0-0.2-0.2-0.3-0.4-0.5c-0.2,0-0.5-0.1-0.8-0.1c-1.7-0.1-2.8-0.8-3-2.5c-0.1-0.8-0.5-1.4-1.1-1.9c-1-0.8-1.5-2-1.6-3.3
			c-0.2-1.8-0.7-3.3-0.2-5s-0.5-3.2-2.4-4.1c-4-1.9-7.5-4.4-10.9-7.2c-2.5-2-4.3-4.4-5.6-7.3c-1.2-2.6-1.7-5.3-1.3-8.2
			c0.2-1.7,0.6-3.4,1-5.1c1.7-6.4,5.7-10.8,12-13.2c9.2-3.6,17.5-1.7,25.1,4.2c4.1,3.2,6,7.7,6.1,13c0,5.5-1.4,10.5-4.5,15.1
			c-0.5,0.7-1.2,1.3-1.6,2c-0.5,0.8-1.1,1.6-1.3,2.5c-0.3,1.1-0.3,2.3,1.1,2.9c1,0.4,1.2,1.5,1.3,2.4c0.1,1,0.3,1.8,0.7,2.7
			c0.7,1.6,1.1,3.3,1.5,4.9c0.2,0.8,0,1.5-0.5,2.2C-349.7,312.3-350.1,312.8-350.5,313.3z M-365.8,272.6c0.3-0.3,0.5-0.5,0.8-0.7
			c3.6-2.6,7.3-1.4,8.8,2.8c0.7,1.8,0.5,3.6-0.1,5.4c-0.6,1.6-1.2,3.3-1.7,4.9c-1.6,5.2-0.9,10.3,0.5,15.5c0.5-0.2,0.9-0.3,1.1-0.5
			c0.3-0.4,0.5-0.9,0.4-1.3c-0.3-2.4,0.4-4.4,1.9-6.2c3.4-4.2,5.1-9.1,5.4-14.4c0.2-5.9-2-10.6-7-13.8c-6.8-4.3-14-5.4-21.6-2.1
			c-4.2,1.8-7.3,4.6-9,8.9c-0.7,1.7-1.1,3.5-1.5,5.3c-1.3,5.9,0.6,10.9,5,14.9c0.8,0.9,1.8,1.7,2.8,2.4c2.6,2,5.3,3.9,8.3,5.2
			c1.6,0.7,2.8,1.7,3.1,3.5c0.1,0.5,0.4,1,0.6,1.5c1,0.2,1.7,0,2.2-0.8c-0.4-2.1-1-4.1-2.5-5.7c-1.4-1.5-2.8-3-4.2-4.4
			c-1.4-1.3-3-2.4-4.5-3.7c-2-1.7-3.7-3.7-4.6-6.2c-1-2.9-0.1-5.1,2.7-6.4c1.5-0.7,3-0.7,4.4-0.5
			C-370.6,272.2-369.5,271.7-365.8,272.6z M-375.4,278.5c-1.4-0.5-2.2,0-3.1,0.5c-1.3,0.7-1.6,1.5-1.3,2.9c0.3,1.3,0.8,2.6,1.8,3.6
			c1,1.1,2,2.1,3.1,3c1.7,1.5,3.6,2.9,5.3,4.5c2.5,2.3,4.5,5.1,5.4,8.4c0.2,0.5,0.5,1,0.7,1.4c1.3-0.4,2.5-0.8,3.8-1.2
			c-0.1-0.8-0.1-1.4-0.3-2.1c-0.3-1.4-0.6-2.8-0.8-4.3c-0.5-3.8-0.5-7.5,0.7-11.2c0.6-1.7,1.1-3.5,1.7-5.2c0.6-1.7,0.3-3.3-0.7-4.7
			c-0.6-0.9-1.5-1.5-2.7-1.5c-1.2,0-2,0.6-2.4,1.8c0.4,0.9,0.9,1.8,1.3,2.7c0.4,1,0.7,2,0.9,3s-0.1,1.9-1,2.5s-2.1,0.5-3-0.2
			c-1-0.7-1.5-1.8-1.5-3c0-1,0.1-1.9,0.2-2.9c0-0.5,0.1-1.1,0.1-1.5c-0.7-0.7-1.4-0.8-2-0.5c-1.4,0.7-2.6,1.6-3.2,3.2
			c0.5,0.6,1.1,1.2,1.4,1.9c0.6,1.2,1.2,2.5,1.4,3.8c0.3,1.6-1.3,2.8-2.8,2.1c-0.8-0.4-1.4-1-2-1.6
			C-375.5,282.2-375.7,280.4-375.4,278.5z M-367.7,310.4c0.4,1.2,0.6,1.6,1.1,1.6c0.6,0.1,1.1,0.1,1.7,0c4.1-0.5,7.7-2.3,11.3-4.1
			c0.3-0.2,0.7-0.4,1-0.6c0.2-0.3,0.5-0.6,0.5-1c0-0.3-0.3-0.6-0.5-1C-357.6,307.5-362.6,309-367.7,310.4z M-353.3,301.6
			c-0.7,0.2-1.4,0.3-2.1,0.6c-3.7,1.7-7.6,2.6-11.5,3.7c-0.4,0.1-0.7,0.2-1.1,0.3c-0.5,0.2-0.8,0.7-0.6,1.1c0.2,0.4,0.6,0.8,1,0.9
			c0.3,0.1,0.8,0,1.1-0.1c3.2-1,6.4-2.1,9.6-3.2c1.1-0.4,2.1-1,3.1-1.6C-353.3,303-352.8,302.5-353.3,301.6z M-365.5,314.5
			c0.4,0.4,0.7,1,1,1c1,0,1.9,0,2.9-0.3c2.7-0.8,5.3-1.7,8-2.5c1.2-0.4,1.9-1.2,2.5-2.2c0.1-0.2,0-0.5-0.1-1c-2.3,1-4.4,2-6.7,2.8
			C-360.3,313-362.7,313.6-365.5,314.5z M-352.4,315c-2.4,0.3-7,1.8-8.8,2.8c0.1,0.3,0.1,0.5,0.3,0.8c0.1,0.2,0.3,0.3,0.5,0.3
			c2.9,0.2,5.5-0.6,7.8-2.4C-352.4,316.3-352.5,315.5-352.4,315z M-364.6,280.5c0.6-1.6,0.6-1.6-0.8-2.3
			C-365.1,279-364.9,279.7-364.6,280.5z M-371.8,282.5c-0.2-1.1-0.6-1.6-1.4-2.2C-373.1,281.3-373,282.1-371.8,282.5z"/>
		<path id="XMLID_876_" class="st2" d="M-372,248.8c-0.5-0.7-1-1.2-1.1-1.6c-0.3-1.3-0.6-2.7-0.6-4c-0.1-1.6,0.1-3.3,0.1-4.9
			c0-0.5,0.2-0.9,0.4-1.4c0.2-0.5,1.2-0.5,1.4,0c0.2,0.3,0.4,0.7,0.4,1.1c0,3.2-0.1,6.4-0.1,9.6C-371.5,247.7-371.7,248-372,248.8z"
			/>
		<path id="XMLID_875_" class="st2" d="M-352.5,250c0.1-1,0.1-1.5,0.2-1.9c0.6-1.6,1.6-3.1,2.8-4.3c0.2-0.3,0.6-0.4,1-0.6
			c0.5-0.2,1.3,0.4,1.2,0.9c0,0.4-0.1,0.8-0.3,1.1c-1,1.4-2.1,2.7-3.2,4C-351.1,249.5-351.6,249.6-352.5,250z"/>
		<path id="XMLID_874_" class="st2" d="M-384,251.4c-0.6,0.1-0.8,0.2-0.9,0.1c-2-1.3-2.9-3.3-3.4-5.4c-0.2-0.7,0.2-1.2,0.7-1.4
			c0.7-0.2,1.2,0.1,1.4,0.7C-385.3,247.3-384.6,249.2-384,251.4z"/>
		<path id="XMLID_873_" class="st2" d="M-395.1,262.7c-2.5,0.2-4.2-1-5.7-2.6c-0.1-0.1-0.1-0.2-0.1-0.3c-0.1-0.5-0.2-1,0.3-1.3
			c0.3-0.2,0.8-0.3,1.1-0.1c1.7,0.9,3.3,2,4.4,3.7C-395.2,262.2-395.2,262.3-395.1,262.7z"/>
	</g>
</g>
</svg>
