<?xml version="1.0" encoding="utf-8"?>
<!-- Generator: Adobe Illustrator 19.0.0, SVG Export Plug-In . SVG Version: 6.00 Build 0)  -->
<svg version="1.1" id="Layer_1" xmlns="http://www.w3.org/2000/svg" xmlns:xlink="http://www.w3.org/1999/xlink" x="0px" y="0px"
	 viewBox="-423 229 112 104" style="enable-background:new -423 229 112 104;" xml:space="preserve">
<style type="text/css">
	.st0{fill:#8AB631;}
	.st1{fill:#023246;}
	.st2{display:none;opacity:0.2;}
	.st3{display:inline;fill:#6D4C41;}
	.st4{display:none;opacity:0.5;}
	.st5{display:inline;fill:#FFFFFF;}
	.st6{fill:#C0C0C0;}
	.st7{opacity:0.5;}
	.st8{display:none;fill:#FFFFFF;}
	.st9{fill:#A0A0A0;}
	.st10{display:none;}
	.st11{display:inline;fill:#318AB6;}
	.st12{fill:#F6F6F6;}
	.st13{display:inline;opacity:0.2;}
	.st14{fill:#6D4C41;}
	.st15{fill:#4DD0E1;}
	.st16{display:inline;opacity:0.5;}
	.st17{fill:#FFFFFF;}
	.st18{display:none;fill:none;}
</style>
<g id="Layer_2">
	<g id="XMLID_1071_">
		<g id="XMLID_1166_">
			<path id="XMLID_1069_" class="st0" d="M-387.2,277.4c0,0-17.5,14.4-9.3,39.3c0.6,1.9,3.1,1.9,3.8,0.1c1.1-3.2,3.3-7.1,7.5-10.5
				C-385.3,306.3-389.6,286.4-387.2,277.4z"/>
			<path id="XMLID_1167_" class="st1" d="M-394.6,319.6L-394.6,319.6c-1.5,0-2.8-1-3.2-2.4c-1.9-5.9-2.6-11.7-2.1-17.3
				c0.5-4.5,1.7-8.8,3.7-12.9c3.5-6.9,7.9-10.6,8.1-10.8c0.5-0.4,1.2-0.4,1.7-0.1c0.5,0.4,0.7,1,0.6,1.6c-2.3,8.5,1.9,27.9,1.9,28.1
				c0.1,0.6-0.1,1.1-0.5,1.5c-3.3,2.7-5.7,6.1-7,9.9C-391.9,318.7-393.2,319.6-394.6,319.6z M-389.2,281.7c-1.4,1.7-3,4-4.5,6.9
				c-4.2,8.5-4.7,17.8-1.4,27.7c0.1,0.4,0.4,0.4,0.5,0.4l0,0c0.1,0,0.4-0.1,0.5-0.4c1.4-4.1,3.8-7.6,7.2-10.6
				C-387.5,302.3-389.8,290.3-389.2,281.7z"/>
		</g>
		<g id="XMLID_1164_" class="st2">
			<path id="XMLID_1066_" class="st3" d="M-391.5,281.6c0,0,2,29.2-6.9,29.6l2.8,6.7l2.9-1.2l6-8.5c0,0-4.1-25.3-1.2-28.1
				L-391.5,281.6z"/>
		</g>
		<g id="XMLID_1162_" class="st4">
			<path id="XMLID_1065_" class="st5" d="M-392.1,289c0.9-1.8,1.8-3.3,2.8-4.6c0-0.9,0-1.8,0.1-2.7c-1.4,1.7-3,4-4.5,6.9
				c-4.2,8.5-4.7,17.8-1.4,27.7c0.1,0.4,0.4,0.4,0.5,0.4s0.4,0,0.5-0.4c0.1-0.2,0.2-0.4,0.2-0.6C-396.7,306.1-396.2,297.2-392.1,289
				z"/>
		</g>
		<g id="XMLID_1157_">
			<path id="XMLID_1064_" class="st0" d="M-346.8,277.4c0,0,17.5,14.4,9.3,39.3c-0.6,1.9-3.1,1.9-3.8,0.1c-1.1-3.2-3.3-7.1-7.5-10.5
				C-348.7,306.3-344.4,286.4-346.8,277.4z"/>
			<path id="XMLID_1158_" class="st1" d="M-339.4,319.6c-1.5,0-2.7-0.9-3.2-2.3c-1.3-3.8-3.7-7.1-7-9.9c-0.4-0.4-0.6-0.9-0.5-1.5
				c0-0.2,4.2-19.6,1.9-28.1c-0.2-0.6,0.1-1.3,0.6-1.6c0.5-0.4,1.2-0.3,1.7,0.1c0.2,0.2,4.7,3.9,8.1,10.8c2,4.1,3.3,8.4,3.7,12.9
				c0.6,5.6-0.1,11.4-2.1,17.3C-336.6,318.7-337.9,319.6-339.4,319.6C-339.3,319.6-339.3,319.6-339.4,319.6z M-347.1,305.7
				c3.4,3,5.8,6.5,7.2,10.6c0.1,0.3,0.4,0.4,0.5,0.4c0.2,0,0.4-0.1,0.5-0.4c3.3-9.9,2.8-19.2-1.4-27.7c-1.4-2.9-3.1-5.2-4.5-6.9
				C-344.2,290.3-346.4,302.3-347.1,305.7z"/>
		</g>
		<g id="XMLID_1155_" class="st4">
			<path id="XMLID_1061_" class="st5" d="M-344.6,284.4c3.1,3.8,7.5,10.9,7.9,20.7c0.4-11.3-4.6-19.3-8-23.4
				C-344.7,282.5-344.6,283.4-344.6,284.4z"/>
		</g>
		<g id="XMLID_1150_">
			<rect id="XMLID_1060_" x="-381.4" y="302.1" class="st6" width="28.8" height="13.1"/>
			<path id="XMLID_1151_" class="st1" d="M-352.6,316.4h-28.8c-0.7,0-1.2-0.6-1.2-1.3v-13c0-0.7,0.5-1.3,1.2-1.3h28.8
				c0.7,0,1.2,0.6,1.2,1.3v13.1C-351.4,315.9-351.9,316.4-352.6,316.4z M-380.2,313.9h26.3v-10.6h-26.3V313.9z"/>
		</g>
		<g id="XMLID_1148_" class="st2">
			<path id="XMLID_1057_" class="st3" d="M-353.1,309.8c0,0-14,1.8-28.2,1.8l0.4,0.8h28.1L-353.1,309.8z"/>
		</g>
		<g id="XMLID_1146_" class="st2">
			<path id="XMLID_1056_" class="st3" d="M-380.9,311.6c0,0,17.1-4.6,28.1,0.5v-2.3l-14.6-3.3l-13.1,2.8L-380.9,311.6z"/>
		</g>
		<g id="XMLID_1144_" class="st7">
			<rect id="XMLID_1055_" x="-380.2" y="303.3" class="st8" width="2.8" height="10.6"/>
		</g>
		<g id="XMLID_1139_">
			<path id="XMLID_1054_" class="st9" d="M-351.8,319h-30.4c-1.1,0-1.9-1.1-1.5-2.2l0,0c0.7-2,2.4-3.3,4.4-3.3h24.6
				c1.9,0,3.7,1.3,4.4,3.3l0,0C-349.9,317.8-350.7,319-351.8,319z"/>
			<path id="XMLID_1140_" class="st1" d="M-351.8,320.2h-30.4c-0.9,0-1.8-0.5-2.3-1.2c-0.5-0.8-0.6-1.8-0.3-2.7l0,0
				c0.9-2.4,3.1-4.1,5.5-4.1h24.6c2.4,0,4.7,1.6,5.5,4.1l0,0c0.3,0.9,0.2,1.9-0.3,2.7C-350,319.8-350.9,320.2-351.8,320.2z
				 M-379.2,314.7c-1.4,0-2.7,1-3.2,2.4l0,0c-0.1,0.2,0,0.3,0,0.3s0.1,0.2,0.3,0.2h30.4c0.2,0,0.2-0.1,0.3-0.2
				c0.1-0.1,0.1-0.2,0-0.3l0,0c-0.5-1.5-1.8-2.4-3.2-2.4H-379.2z"/>
		</g>
		<g id="XMLID_1137_" class="st2">
			<path id="XMLID_1051_" class="st3" d="M-353.3,314.6c0,0-0.4,1.7-30.1,3l1.8,1.4h30.3C-351.2,318.9-349.6,315.9-353.3,314.6z"/>
		</g>
		<g id="XMLID_1135_" class="st4">
			<path id="XMLID_1050_" class="st5" d="M-378,317.5L-378,317.5c0.5-1.5,1.8-2.5,3.3-2.5h21.3c-0.4-0.2-0.8-0.3-1.3-0.3h-22.5
				c-1.4,0-2.7,1-3.2,2.4l0,0c-0.1,0.2,0,0.3,0,0.3c0,0.1,0.1,0.2,0.3,0.2L-378,317.5C-378,317.6-378,317.6-378,317.5z"/>
		</g>
		<g id="XMLID_1130_" class="st10">
			<path id="XMLID_1049_" class="st11" d="M-373,240.7c-8.1,12.4-20.6,37.8-13.6,67.8c0.3,1.4,1.8,2.1,3,1.6
				c3.2-1.4,9.2-3.5,16.1-3.5h1c6.8,0,12.9,2.2,16.1,3.5c1.3,0.5,2.7-0.2,3-1.6c7-29.9-5.5-55.3-13.5-67.8
				C-363.8,236.2-370.1,236.2-373,240.7z"/>
			<path id="XMLID_1131_" class="st3" d="M-349.5,311.7c-0.5,0-1-0.1-1.4-0.3c-2.9-1.3-8.9-3.4-15.5-3.4h-1
				c-6.6,0-12.6,2.1-15.5,3.4c-1,0.4-2.1,0.4-3.1-0.1c-0.9-0.5-1.6-1.4-1.9-2.5c-7.2-30.5,5.5-56.3,13.7-69l0,0c1.6-2.5,4.3-4,7.2-4
				s5.6,1.5,7.2,4c8.2,12.7,20.9,38.5,13.7,69c-0.3,1.1-0.9,2-1.9,2.5C-348.4,311.6-349,311.7-349.5,311.7z M-367.5,305h1
				c7.1,0,13.5,2.3,16.6,3.7c0.3,0.1,0.6,0,0.7,0c0.1-0.1,0.3-0.2,0.4-0.5c6.9-29.4-5.4-54.4-13.3-66.6c-1.1-1.7-2.9-2.7-4.9-2.7
				s-3.8,1-4.9,2.7c-7.9,12.3-20.2,37.3-13.3,66.6c0.1,0.3,0.3,0.5,0.4,0.5c0.1,0.1,0.4,0.2,0.7,0C-381,307.3-374.6,305-367.5,305z"
				/>
		</g>
		<g id="XMLID_1125_">
			<path id="XMLID_1046_" class="st12" d="M-373,240.7c-8.1,12.4-20.6,37.8-13.6,67.8c0.3,1.4,1.8,2.1,3,1.6
				c3.2-1.4,9.2-3.5,16.1-3.5h1c6.8,0,12.9,2.2,16.1,3.5c1.3,0.5,2.7-0.2,3-1.6c7-29.9-5.5-55.3-13.5-67.8
				C-363.8,236.2-370.1,236.2-373,240.7z"/>
			<path id="XMLID_1126_" class="st1" d="M-349.5,311.7c-0.5,0-1-0.1-1.4-0.3c-2.9-1.3-8.9-3.4-15.5-3.4h-1
				c-6.6,0-12.6,2.1-15.5,3.4c-1,0.4-2.1,0.4-3.1-0.1c-0.9-0.5-1.6-1.4-1.9-2.5c-7.2-30.5,5.5-56.3,13.7-69l0,0c1.6-2.5,4.3-4,7.2-4
				s5.6,1.5,7.2,4c8.2,12.7,20.9,38.5,13.7,69c-0.3,1.1-0.9,2-1.9,2.5C-348.4,311.6-349,311.7-349.5,311.7z M-367.5,305h1
				c7.1,0,13.5,2.3,16.6,3.7c0.3,0.1,0.6,0,0.7,0c0.1-0.1,0.3-0.2,0.4-0.5c6.9-29.4-5.4-54.4-13.3-66.6c-1.1-1.7-2.9-2.7-4.9-2.7
				s-3.8,1-4.9,2.7c-7.9,12.3-20.2,37.3-13.3,66.6c0.1,0.3,0.3,0.5,0.4,0.5c0.1,0.1,0.4,0.2,0.7,0C-381,307.3-374.6,305-367.5,305z"
				/>
		</g>
		<g id="XMLID_1123_" class="st10">
			<path id="XMLID_1043_" class="st11" d="M-348.8,308.1c6.9-29.4-5.4-54.4-13.3-66.6c-1.1-1.7-2.9-2.7-4.9-2.7s-3.8,1-4.9,2.7
				c-7.9,12.3-20.2,37.3-13.3,66.6c0.1,0.3,0.3,0.5,0.4,0.5c0.1,0.1,0.4,0.2,0.7,0c3.1-1.4,9.5-3.7,16.6-3.7h1
				c7.1,0,13.5,2.3,16.6,3.7c0.3,0.1,0.6,0,0.7,0C-349.1,308.6-348.8,308.4-348.8,308.1z"/>
		</g>
		<g id="XMLID_1118_" class="st10">
			<g id="XMLID_1121_" class="st13">
				<path id="XMLID_1042_" class="st14" d="M-350.4,308c5.5-23.3-1.1-43.8-8-57.4l-9-1.7l0,0c0.8,3,11.2,42.3-13.9,58.6v0.1
					c3.4-1.2,8.4-2.5,13.8-2.5h1c6.6,0,12.5,2,15.9,3.3C-350.5,308.3-350.4,308.1-350.4,308z"/>
			</g>
			<g id="XMLID_1119_" class="st13">
				<path id="XMLID_1041_" class="st14" d="M-349.8,308.7c-0.1-0.1-0.3-0.1-0.5-0.2C-350.2,308.5-350,308.6-349.8,308.7z"/>
			</g>
		</g>
		<g id="XMLID_1116_">
			<path id="XMLID_1040_" class="st0" d="M-356.6,251.1c-1.9-3.7-3.8-7-5.5-9.6c-1.1-1.7-2.9-2.7-4.9-2.7s-3.8,1-4.9,2.7
				c-1.7,2.7-3.7,5.9-5.6,9.7C-373.6,250.1-365.2,248.3-356.6,251.1z"/>
		</g>
		<g id="XMLID_1114_" class="st4">
			<path id="XMLID_1039_" class="st5" d="M-367,241.8c0.7-1.1,1.6-1.8,2.7-2.3c-0.5-0.3-1.1-0.5-1.7-0.6c-1.6,0.3-2.9,1.2-3.9,2.6
				c-7.9,12.3-20.2,37.3-13.3,66.6v0.1c0.7-0.3,1.6-0.6,2.6-0.9C-386.9,278.4-374.8,253.9-367,241.8z"/>
		</g>
		<g id="XMLID_1109_">
			<ellipse id="XMLID_1038_" class="st0" cx="-367" cy="304.6" rx="4.3" ry="20.1"/>
			<path id="XMLID_1110_" class="st1" d="M-367,326.2c-1.1,0-2.1-0.8-2.9-2.4c-0.6-1.1-1.1-2.7-1.5-4.7c-0.8-3.9-1.3-9.1-1.3-14.5
				c0-5.4,0.5-10.6,1.3-14.5c0.4-2,0.9-3.5,1.5-4.7c0.8-1.6,1.8-2.4,2.9-2.4s2.1,0.8,2.9,2.4c0.6,1.1,1.1,2.7,1.5,4.7
				c0.8,3.9,1.3,9.1,1.3,14.5c0,5.4-0.5,10.6-1.3,14.5c-0.4,2-0.9,3.5-1.5,4.7C-364.8,325.4-365.8,326.2-367,326.2z M-367,286.1
				c-0.4,0.5-1.1,2-1.8,5.4c-0.7,3.6-1,8.2-1,13s0.4,9.5,1,13c0.7,3.5,1.4,5,1.8,5.4c0.4-0.5,1.1-2,1.8-5.4c0.7-3.6,1-8.2,1-13
				s-0.4-9.5-1-13C-365.8,288.1-366.6,286.6-367,286.1z"/>
		</g>
		<g id="XMLID_1107_" class="st4">
			<path id="XMLID_1035_" class="st5" d="M-368.6,304.6c0-8.8,1.2-14.9,2.2-17.4c-0.2-0.5-0.4-0.9-0.6-1.1
				c-1.1,1.2-2.8,7.8-2.8,18.5s1.7,17.3,2.8,18.5c0.2-0.2,0.4-0.6,0.6-1.1C-367.4,319.5-368.6,313.4-368.6,304.6z"/>
		</g>
		<g id="XMLID_1105_" class="st2">
			<path id="XMLID_1034_" class="st3" d="M-365.8,260.6c-4.8,0-8.7,4.1-8.7,9.1s3.9,9.1,8.7,9.1s8.7-4.1,8.7-9.1
				S-360.9,260.6-365.8,260.6z"/>
		</g>
		<g id="XMLID_1100_">
			<ellipse id="XMLID_1033_" class="st15" cx="-367" cy="268.4" rx="7.7" ry="8"/>
			<path id="XMLID_1101_" class="st1" d="M-367,277.5c-4.8,0-8.7-4.1-8.7-9.1s3.9-9.1,8.7-9.1c4.8,0,8.7,4.1,8.7,9.1
				S-362.2,277.5-367,277.5z M-367,261.5c-3.7,0-6.7,3.1-6.7,7c0,3.9,3,7,6.7,7s6.7-3.1,6.7-7C-360.3,264.6-363.3,261.5-367,261.5z"
				/>
		</g>
		<g id="XMLID_1098_">
			<path id="XMLID_1030_" class="st1" d="M-379.6,253c-0.4,0-0.8-0.3-0.9-0.7c-0.2-0.5,0.1-1.2,0.6-1.4c0.1-0.1,3.4-1.4,8.2-2
				c4.5-0.6,11.2-0.8,17.8,2c0.5,0.2,0.8,0.8,0.6,1.4c-0.2,0.5-0.8,0.8-1.3,0.6c-12-5-24.4,0-24.5,0C-379.4,253-379.5,253-379.6,253
				z"/>
		</g>
		<g id="XMLID_1096_" class="st2">
			<path id="XMLID_1029_" class="st3" d="M-364,238.7c0,0,5.7,11-13.4,11l-0.8,0.8c0,0,17.5-3.4,23.6,0.8
				C-354.7,251.4-360,238.3-364,238.7z"/>
		</g>
		<g id="XMLID_1089_" class="st10">
			<g id="XMLID_1094_" class="st16">
				<path id="XMLID_1028_" class="st17" d="M-363,268.1c0,0-0.7,4.8-4.9,4.6c0,0,0.7,0.5,1.8,0.5C-363.6,273.1-362,270.5-363,268.1
					L-363,268.1z"/>
			</g>
			<g id="XMLID_1092_" class="st16">
				<path id="XMLID_1027_" class="st17" d="M-365.5,267.1c-0.8,1-2.1,1.1-3.1,0.3c-1-0.8-1.1-2.2-0.3-3.2s2.1-1.1,3.1-0.3
					C-364.8,264.7-364.7,266.2-365.5,267.1z"/>
			</g>
			<g id="XMLID_1090_" class="st16">
				<path id="XMLID_1026_" class="st17" d="M-369.9,269.4c-0.3,0.3-0.7,0.4-1.1,0.1c-0.3-0.3-0.4-0.8-0.1-1.1
					c0.3-0.3,0.7-0.4,1.1-0.1C-369.7,268.6-369.6,269.1-369.9,269.4z"/>
			</g>
		</g>
		<g id="XMLID_1087_" class="st2">
			<path id="XMLID_1025_" class="st3" d="M-366.1,286.9c0,0,2.4,24.5-5.3,25.8c0,0,0.8,11.8,4.5,11.8
				C-366.9,324.5-359.2,311-366.1,286.9z"/>
		</g>
		<g id="XMLID_1085_" class="st2">
			<path id="XMLID_1024_" class="st3" d="M-342.5,282.5c0,0,2.3,16.2-2.2,28l-2.2-2.7c0,0,3.8-21.1,1.4-27.9L-342.5,282.5z"/>
		</g>
		<g id="XMLID_1083_" class="st2">
			<path id="XMLID_1023_" class="st3" d="M-337,292.2c0,0-0.4,20.7-9.4,13.5l-0.4,2.1c0,0,5.2,6.3,6.9,10.3l1.9-0.6
				C-338,317.5-334.1,304-337,292.2z"/>
		</g>
		<g id="XMLID_1078_">
			<g id="XMLID_1081_">
				<ellipse id="XMLID_1022_" class="st1" cx="-382" cy="303" rx="1.4" ry="1.5"/>
			</g>
			<g id="XMLID_1079_">
				<ellipse id="XMLID_1021_" class="st1" cx="-352" cy="303" rx="1.4" ry="1.5"/>
			</g>
		</g>
		<g id="XMLID_1075_">
			<line id="XMLID_1020_" class="st18" x1="-367.1" y1="276.5" x2="-367.1" y2="284.2"/>
			<path id="XMLID_1019_" class="st1" d="M-367.1,285c-0.4,0-0.8-0.4-0.8-0.8v-7.7c0-0.5,0.4-0.8,0.8-0.8s0.8,0.4,0.8,0.8v7.6
				C-366.3,284.6-366.6,285-367.1,285z"/>
		</g>
		<g id="XMLID_1072_">
			<line id="XMLID_1018_" class="st18" x1="-367.1" y1="249.9" x2="-367.1" y2="260.5"/>
			<path id="XMLID_1017_" class="st1" d="M-367.1,261.3c-0.4,0-0.8-0.4-0.8-0.8v-10.6c0-0.5,0.4-0.8,0.8-0.8s0.8,0.4,0.8,0.8v10.6
				C-366.3,260.9-366.6,261.3-367.1,261.3z"/>
		</g>
	</g>
</g>
</svg>
