<?xml version="1.0" encoding="utf-8"?>
<!-- Generator: Adobe Illustrator 19.0.0, SVG Export Plug-In . SVG Version: 6.00 Build 0)  -->
<svg version="1.1" id="Layer_1" xmlns="http://www.w3.org/2000/svg" xmlns:xlink="http://www.w3.org/1999/xlink" x="0px" y="0px"
	 viewBox="-423 229 112 104" style="enable-background:new -423 229 112 104;" xml:space="preserve">
<style type="text/css">
	.st0{display:none;}
	.st1{display:inline;fill:#8AB631;}
	.st2{display:inline;fill:#112129;}
	.st3{fill:#692DBA;}
	.st4{fill:#F6F6F6;}
	.st5{fill:#B0B0B0;}
	.st6{fill:#E8E8E8;}
	.st7{fill:#112129;}
</style>
<g id="Layer_1_1_">
	<g id="XMLID_1070_" class="st0">
		<path class="st1" d="M-215.5,256.7c0,0.6,0.1,0.8,0,1c-2.5,6.1-4.9,12.2-7.4,18.3c-1.7,4-3.5,7.9-5.4,11.9
			c-2.7,5.7-5.6,11.4-8.4,17.1c-0.3,0.6-0.6,1.1-0.9,1.6c-0.2,0-0.3,0-0.4,0s-0.2,0-0.3-0.1c-5.4-5.3-10.7-10.6-16.2-16
			c0.3-0.3,0.7-0.8,1.2-1.2c7.7-6.5,15.3-13.1,22.6-20.1c4.4-4.2,9.1-8,13.9-11.6C-216.5,257.3-216.1,257.1-215.5,256.7z"/>
		<path class="st1" d="M-220.2,253.8c-3.1,2-6.2,3.1-9.1,4.4c-3.1,1.4-6.2,2.7-9.2,4.2c-2.9,1.4-5.9,3-8.7,4.5
			c-3,1.6-5.9,3.2-8.9,4.9c-2.9,1.6-5.7,3.2-8.5,4.8c-0.8-0.2-1.5-0.3-2.2-0.5c-2.4-2.9-4.8-5.9-7.3-8.8c-2.5-2.8-5.1-5.6-7.8-8.5
			c1.3-0.7,2.4-0.8,3.5-0.8c5.9,0,11.8-0.7,17.7-1.3c3.2-0.3,6.3-0.4,9.5-0.7c9.9-0.8,19.8-1.6,29.7-2.4
			C-221.3,253.6-221,253.7-220.2,253.8z"/>
		<path class="st1" d="M-264.9,279.5c1.2-0.8,2.3-1.7,3.5-2.3c13.4-7.7,27.2-14.6,41.4-20.7c0.3-0.1,0.6-0.2,0.9-0.3
			c0.2,0.7-0.4,0.9-0.8,1.2c-6,4.6-11.5,9.7-17,14.8c-5.9,5.5-12,10.8-18,16.1c-0.4,0.4-0.8,0.8-1.2,1c-2.2,0.5-3.2,2.3-4.2,4
			c-0.7,1.2-1.3,2.4-2,3.6c-0.2,0.3-0.5,0.6-1,1.3C-264.2,291.7-264.5,285.6-264.9,279.5z"/>
		<path class="st1" d="M-254.7,293.7c-1.7,0.9-3.3,1.8-4.9,2.7c-0.4-1.1,0.3-1.7,0.7-2.4c0.5-0.8,1.1-1.5,1.8-2.2
			c0.2-0.2,0.9-0.1,1.1,0.1C-255.5,292.4-255.2,293-254.7,293.7z"/>
		<path class="st2" d="M-283.1,256.6c2.4-0.2,4.9-0.4,7.3-0.7c3.5-0.3,7-0.6,10.4-0.9c3.6-0.3,7.2-0.7,10.8-1
			c7.6-0.6,15.2-1.2,22.8-1.8c5-0.4,9.9-0.9,14.9-1.4c1.2-0.1,2.3-0.3,3.5-0.4c0.8-0.1,1.6,0,2.7,0c-0.1,0.8,0,1.5-0.2,2
			c-0.4,1.1-0.9,2.2-1.3,3.2c-2.5,6.3-5,12.6-7.6,18.9c-1.7,4.1-3.4,8.2-5.3,12.2c-3.1,6.6-6.4,13.1-9.7,19.7
			c-0.5,1.1-0.9,2.2-2.5,2.4c-2.9-1.6-5.2-4.3-7.8-6.6c-2.6-2.3-5.1-4.8-7.7-7.2c-0.8,0.3-1.5,0.5-2.1,0.9c-1.6,1-3.2,2.1-4.7,3.2
			c-0.8,0.6-1.5,1.2-2.3,1.8c-2.3,1.7-3.3,1.3-3.6-1.7c-0.5-5.8-1-11.6-1.3-17.4c-0.1-1.9-0.6-3.4-1.9-4.8c-4.1-4.5-8-9-12-13.5
			c-0.8-1-1.6-1.9-2.5-2.9C-284.3,259.4-284.3,258.2-283.1,256.6z M-215.5,256.7c-0.6,0.4-1,0.6-1.3,0.9c-4.8,3.6-9.5,7.4-13.9,11.6
			c-7.3,7-14.9,13.6-22.6,20.1c-0.5,0.4-0.8,0.9-1.2,1.2c5.5,5.4,10.8,10.7,16.2,16c0.1,0.1,0.2,0.1,0.3,0.1c0.1,0,0.2,0,0.4,0
			c0.3-0.5,0.6-1,0.9-1.6c2.8-5.7,5.6-11.4,8.4-17.1c1.9-3.9,3.7-7.9,5.4-11.9c2.6-6,5-12.2,7.4-18.3
			C-215.4,257.5-215.5,257.3-215.5,256.7z M-220.2,253.8c-0.7-0.1-1-0.1-1.3-0.1c-9.9,0.8-19.8,1.6-29.7,2.4
			c-3.2,0.3-6.3,0.3-9.5,0.7c-5.9,0.6-11.8,1.3-17.7,1.3c-1.1,0-2.2,0.1-3.5,0.8c2.7,2.9,5.3,5.6,7.8,8.5s4.9,5.8,7.3,8.8
			c0.7,0.2,1.4,0.3,2.2,0.5c2.8-1.6,5.7-3.2,8.5-4.8c3-1.7,5.9-3.3,8.9-4.9c2.9-1.5,5.8-3.1,8.7-4.5c3-1.5,6.2-2.8,9.2-4.2
			C-226.4,256.8-223.3,255.7-220.2,253.8z M-264.9,279.5c0.4,6.1,0.8,12.2,1.6,18.7c0.6-0.7,0.8-1,1-1.3c0.7-1.2,1.2-2.5,2-3.6
			c1.1-1.7,2-3.5,4.2-4c0.5-0.1,0.9-0.6,1.2-1c6-5.4,12.1-10.7,18-16.1c5.5-5.1,11-10.2,17-14.8c0.4-0.3,0.9-0.5,0.8-1.2
			c-0.3,0.1-0.6,0.1-0.9,0.3c-14.2,6.1-28,13-41.4,20.7C-262.6,277.8-263.7,278.6-264.9,279.5z M-254.7,293.7
			c-0.5-0.7-0.9-1.3-1.4-1.8c-0.2-0.2-0.9-0.3-1.1-0.1c-0.7,0.6-1.3,1.4-1.8,2.2c-0.4,0.7-1.1,1.3-0.7,2.4
			C-258,295.5-256.4,294.6-254.7,293.7z"/>
		<path class="st2" d="M-292.2,316.4c0-0.4-0.2-0.8-0.1-1.2c0.3-1,0.4-2.1,1-3c3.1-5.4,7.3-9.8,12.6-13.1c0.7-0.4,1.5-0.8,2.3-1
			c0.6-0.2,1.3,0.1,1.4,1.2c-1.2,0.8-2.4,1.7-3.7,2.6c-1.3,1-2.6,2.1-3.8,3.3c-1.1,1.1-2.2,2.2-3.3,3.4c-1.1,1.3-2.1,2.6-3.1,4
			c-0.9,1.3-1.8,2.6-2.6,3.9C-291.8,316.5-292,316.4-292.2,316.4z"/>
		<path class="st2" d="M-289,327.7c-0.3-1.6,0.3-2.8,0.9-4c3.1-6.2,7.3-11.6,12.3-16.4c0.6-0.6,1.4-1,2.1-1.4
			c0.2-0.1,0.6,0.1,0.8,0.3c0.2,0.2,0.3,0.6,0.1,0.9c-0.2,0.5-0.6,0.9-1,1.2c-5,5.2-9.3,11-13.4,16.9
			C-287.7,326.1-288.3,326.9-289,327.7z"/>
		<path class="st2" d="M-271.6,313.4c1.1-2.7,3.1-4.6,5.2-6.3c0.3-0.2,0.8-0.3,1.2-0.4c0.2,0,0.4,0.1,0.5,0.2s0.1,0.4,0.1,0.6
			c0,0.2-0.2,0.4-0.3,0.5c-1.7,1.7-3.3,3.5-5,5.2C-270.4,313.6-270.8,314-271.6,313.4z"/>
	</g>
	<g id="XMLID_906_">
		<path id="XMLID_915_" class="st3" d="M-382.8,314.3c-1.7,0.7-2.8-0.2-3.8-1.3c-1.4-1.7-2.8-3.4-4.1-5.2c-1.6-2-2.6-4.4-3.4-6.8
			c-0.4-1.1-0.8-2.2-1.3-3.3c-0.8-2-0.8-4,0.5-5.8c-0.3-0.5-0.8-0.3-1.1-0.2c-1.2,0.6-2.5,1.1-3.7,1.8c-2.3,1.4-4.6,2.8-6.6,4.7
			c-0.9,0.8-1.8,1.5-2.8,2.2c-0.2,0.2-0.5,0.2-0.8,0.2c-0.5,1.2-1,2.4-1.4,3.5c0.1,0.4,0.3,0.8,0.4,1.2c1.5,3.7,3.9,7,6.6,9.8
			c3,3.1,6.5,5.8,10.3,7.8c0.2,0.1,0.3,0.1,0.5,0.2c0.5-0.4,1-0.8,1.5-1.2c0.6-0.4,1.2-0.7,1.8-1c3.2-1.5,5.7-3.9,8.5-6.4
			C-382.3,314.5-382.6,314.2-382.8,314.3z"/>
		<path id="XMLID_914_" class="st4" d="M-359.2,284.5c1.2,0.8,2.1,0.4,3-0.1c1.7-0.9,3-2.2,4.2-3.6c0.5-0.6,1-1.1,1.8-2.1
			c-0.1,0.9-0.1,1.3-0.2,1.8c-0.6,3.1-2.3,5.6-4.9,7.4c-1.1,0.8-2.3,1.5-3.4,2.2c-0.4,0.3-0.9,0.5-0.8,1.3c0.8,0.5,1.7,0.2,2.6-0.1
			c2-0.8,3.7-2,5.2-3.5c0.5-0.5,0.9-0.9,1.6-1.6c0.1,2.6-1,4.4-2.7,5.7c-0.9,0.7-1.9,1.2-2.8,1.7c-0.7,0.4-1.4,0.7-2,1.1
			c-0.6,0.3-0.8,0.9-0.5,1.3s0.7,0.4,1.1,0.3c0.9-0.2,1.8-0.4,3-0.7c-0.5,0.6-0.7,1-0.9,1.2c-2.3,2.3-5,4.1-8.1,5.2
			c-1.2,0.4-2.3,1-3.5,1.4c-1.8,0.6-3.6,1.1-5.3,1.8c-2.2,0.8-4.4,1.7-6.6,2.6c-1-0.3-1.6-0.8-2.1-1.7c-0.3-0.6-0.8-1.1-1.1-1.7
			c-1.6-3-3.2-6-4.1-9.3c-0.7-2.5-0.4-4.6,1.5-6.5c2.4-2.4,4.1-5.2,5.4-8.3c0.8-1.9,1.6-3.7,2.6-5.5c2-3.6,4.5-6.7,8.3-8.7
			c0.4-0.2,0.8-0.4,1.2-0.5c0.1-0.1,0.3,0,0.6,0c0.2,1-0.3,1.9-0.5,2.8c-0.3,1.1-0.7,2.1-0.9,3.2c-0.3,1-0.5,1.9-0.7,2.9
			c2.7,1.4,5.6,1.5,8.5,1.2c1.5-0.2,2.8-0.9,3.8-1.9c0.9-0.9,2.3-1.5,2.6-3.1c-0.5-0.1-0.9-0.2-1.5-0.3c0.1-1.2,0.4-2.4,0.9-3.7
			c1.9,2.2,3,4.2,3.3,6.8c0.1,0.9,0,1.7-0.4,2.4c-1.3,2.7-3.4,4.8-5.8,6.6C-357.7,283.1-358.6,283.4-359.2,284.5z"/>
		<path id="XMLID_913_" class="st5" d="M-350,239.8c0.4-0.4,0.9-0.8,1.1-1c1.4,0,2.2,0.5,2.9,1.1c0.5,0.3,0.9,0.8,1.1,1.4
			c0.8,2.5,1.6,5,2.3,7.5c0.4,1.3,0.3,2.5-0.7,3.5c-0.9,1-1.7,2.1-2.6,3.1c-0.4,0.5-1,0.9-1.4,1.5c-1.1,1.8-2.9,2.7-4.8,3
			c-1.5,0.3-2.3,1.1-2.7,2.4c-0.6,2-1.3,4-1.8,6.1c-0.4,1.3-0.7,2.6-1,3.9c-0.2,0.6-0.6,1.1-1.2,1.2c-2.2,0.4-4.4,0.5-6.6,0
			c-0.1,0-0.2-0.2-0.5-0.4c0.4-1.6,0.9-3.3,1.3-5c0.5-2.1,1-4.1,1.5-6.2c0.2-0.7,0.3-1.3,0.4-2c0.3-1.4,0-2.5-1.2-3.4
			c-0.5-0.4-0.9-0.9-1.4-1.1c-1.2-0.6-1.5-1.7-1.7-2.9c-0.2-1.8-0.4-3.5-0.2-5.3c0.1-1.7,0.2-3.4,0.3-5.1c0-0.8,0.3-1.4,1-1.9
			c0.8-0.5,1.5-1.1,2.3-1.6c1.4-1.1,3-1.9,4.8-2.1c1.3-0.2,1.4-0.1,2.1,1.7c-1.3,1.1-2.7,2.2-4,3.3c-2.6,2.2-2.1,1.8-1.5,4.5
			c0.3,1.2,0.5,2.5,0.8,3.7c0.3,1.1,0.6,2.1,0.9,3.1c1.4,0.8,2.8,1.2,4.2,1.3c0.4,0,0.9,0,1.3,0.2c1.7,0.7,2.9-0.1,4.1-1.2
			c0.9-0.9,1.9-1.7,2.8-2.5c0.7-0.6,1-1.4,0.8-2.3c-0.2-0.8-0.5-1.6-0.7-2.4C-348.5,243.9-349.1,242.1-350,239.8z"/>
		<path id="XMLID_912_" class="st6" d="M-387,289c0,0.3,0,0.5,0,0.6c-1.3,2.6-0.8,5.1-0.1,7.7c1.1,3.7,3.1,7,5.1,10.2
			c0.6,1,1.6,1.7,2.5,2.5c0.8-0.2,1.4-0.3,2.4-0.5c-0.4,0.5-0.6,0.9-0.8,1c-1.5,0.7-2.9,1.3-4.4,1.9c-1.1,0.4-2.1,0.2-3-0.7
			c-2.1-2.2-4-4.6-5.3-7.4c-0.8-1.8-1.7-3.5-2.5-5.3c-0.3-0.6-0.5-1.3-0.6-1.9c-0.5-2.2,0.1-4,1.9-5.4c0.7-0.5,1.4-1.3,2-1.9
			s1.2-0.9,2-1C-387.6,288.8-387.3,289-387,289z"/>
		<path id="XMLID_907_" class="st7" d="M-355.1,238.9c-1.8,1.5-3.5,2.9-5.2,4.3c0,2.7,0.7,5.3,1.4,7.8c1.7,1.1,3.7,0.9,5.5,1.3
			c0.3,0.1,0.8-0.3,1.1-0.6c1.1-1,2.2-2.1,3.4-3.2c-0.2-0.8-0.5-1.6-0.7-2.4c-0.5-1.6-1.1-3.2-1.6-4.8c-0.4-1.4,0.2-2.5,1.1-3.4
			c0.8-0.7,1.8-0.9,2.8-0.4c0.8,0.4,1.7,0.8,2.5,1.3c0.7,0.5,1.2,1.2,1.5,2c0.7,2,1.4,4,2,6c0.3,0.9,0.5,1.8,0.8,2.7
			c0.4,1.2,0.2,2.2-0.6,3.1c-1.7,2-3.1,4.3-5.1,6c-1,0.8-1.9,1.6-3.2,2.1c-1.2,0.4-2.3,1.1-3.2,2c-0.5,0.5-0.9,1-0.9,1.9
			c0.4,0.6,0.9,1.3,1.5,1.9c1.8,2.3,3.3,4.7,3.2,7.8c0,0.7,0.3,1.5,0.4,2.2c0.1,1.2,0.4,2.4,0.1,3.5c-0.4,1.8-0.3,3.5-0.1,5.3
			c0.4,2.9-0.2,5.6-2.4,7.7c-0.5,0.5-0.7,1.1-0.9,1.8c-0.3,1.3-1,2.3-1.9,3.3c-2.5,2.7-5.6,4.6-8.9,6.2c-0.3,0.1-0.6,0.3-1,0.3
			c-3.4,0.5-6.5,2-9.7,3c-0.3,0.1-0.6,0.2-1,0.3c-0.7,0.3-1.1,0.7-1.3,1.5c-0.1,0.5-0.3,1-0.5,1.4c-0.2,0.6-0.5,1.1-1.1,1.3
			c-1.2,0.4-1.9,1.4-2.4,2.5c-0.6,1.2-1.4,2.1-2.4,2.9c-2.6,2.2-5.2,4.3-8.4,5.7c-0.8,0.3-1.5,0.8-2.2,1.2c-0.3,0.2-0.6,0.3-0.9,0.3
			c-0.3,0-0.6-0.2-0.8-0.5c-0.1-0.1,0-0.5,0.2-0.7c0.6-0.6,1.3-1.1,2-1.6c0.6-0.4,1.2-0.7,1.8-1c3.2-1.5,5.7-3.9,8.5-6.4
			c-0.5-0.2-0.9-0.5-1.1-0.4c-1.7,0.7-2.8-0.2-3.8-1.3c-1.4-1.7-2.8-3.4-4.1-5.2c-1.6-2-2.6-4.4-3.4-6.8c-0.4-1.1-0.8-2.2-1.3-3.3
			c-0.8-2-0.8-4,0.5-5.8c-0.3-0.5-0.8-0.3-1.1-0.2c-1.2,0.6-2.5,1.1-3.7,1.8c-2.3,1.4-4.6,2.8-6.6,4.7c-0.9,0.8-1.8,1.5-2.8,2.2
			c-0.5,0.3-1.1,0.2-1.4-0.2c-0.3-0.5-0.2-1,0.2-1.4c1.1-1,2.2-1.9,3.3-2.8c2.3-2.1,4.9-3.6,7.6-5c2.2-1.1,4.3-1.9,6.9-1.4
			c1.9-1.6,3.8-3.4,6.7-2.1c1.7-1.9,3.2-3.8,4.3-6c1.8-3.4,3.5-6.8,5.2-10.2c1.7-3.3,4.4-5.6,7.7-7.1c0.9-0.4,2-0.4,3.2-0.7
			c0.7-1.6,1-3.4,1.5-5.1c-0.5-1-1.4-1.4-2.1-1.9c-1.9-1.3-2.8-3.2-2.8-5.4c0-3.1,0.2-6.1,0.4-9.2c0-0.4,0.1-0.8,0.2-1.3
			c0.1-0.9,0.6-1.5,1.4-2c0.9-0.6,1.9-1.2,2.7-1.8c1.7-1.3,3.5-2,5.6-2.3c2-0.3,3.3,0.6,3.6,2.6
			C-355.1,237.7-355.1,238.3-355.1,238.9z M-359.2,284.5c0.5-1.1,1.5-1.4,2.2-1.9c2.4-1.8,4.5-3.9,5.8-6.6c0.4-0.8,0.5-1.6,0.4-2.4
			c-0.2-2.6-1.4-4.7-3.3-6.8c-0.6,1.3-0.8,2.5-0.9,3.7c0.5,0.1,0.9,0.2,1.5,0.3c-0.3,1.7-1.7,2.2-2.6,3.1c-1,1-2.3,1.7-3.8,1.9
			c-2.9,0.3-5.7,0.2-8.5-1.2c0.2-1,0.4-2,0.7-2.9c0.3-1.1,0.6-2.1,0.9-3.2c0.3-0.9,0.8-1.8,0.5-2.8c-0.3,0-0.5-0.1-0.6,0
			c-0.4,0.1-0.8,0.3-1.2,0.5c-3.7,2-6.3,5.1-8.3,8.7c-1,1.8-1.8,3.7-2.6,5.5c-1.3,3.1-3.1,5.9-5.4,8.3c-1.9,1.9-2.2,4-1.5,6.5
			c1,3.3,2.5,6.3,4.1,9.3c0.3,0.6,0.8,1.1,1.1,1.7c0.5,0.9,1.1,1.4,2.1,1.7c2.2-0.9,4.4-1.8,6.6-2.6c1.7-0.6,3.5-1.1,5.3-1.8
			c1.2-0.4,2.3-1,3.5-1.4c3.1-1.1,5.8-2.8,8.1-5.2c0.3-0.3,0.5-0.6,0.9-1.2c-1.3,0.3-2.2,0.4-3,0.7c-0.4,0.1-0.8,0.2-1.1-0.3
			c-0.3-0.3,0-0.9,0.5-1.3c0.7-0.4,1.3-0.7,2-1.1c1-0.5,2-1,2.8-1.7c1.7-1.4,2.8-3.1,2.7-5.7c-0.7,0.7-1.1,1.1-1.6,1.6
			c-1.5,1.5-3.2,2.8-5.2,3.5c-0.8,0.3-1.7,0.6-2.6,0.1c-0.1-0.8,0.4-1,0.8-1.3c1.1-0.8,2.3-1.4,3.4-2.2c2.6-1.8,4.3-4.3,4.9-7.4
			c0.1-0.4,0.1-0.9,0.2-1.8c-0.8,0.9-1.3,1.5-1.8,2.1c-1.2,1.4-2.6,2.7-4.2,3.6C-357.1,284.9-358,285.3-359.2,284.5z M-350,239.8
			c0.8,2.3,1.5,4,2.1,5.8c0.3,0.8,0.6,1.6,0.7,2.4c0.2,0.9-0.1,1.6-0.8,2.3c-1,0.8-1.9,1.7-2.8,2.5c-1.2,1.1-2.4,1.9-4.1,1.2
			c-0.4-0.2-0.8-0.1-1.3-0.2c-1.5-0.1-2.8-0.5-4.2-1.3c-0.3-1-0.6-2-0.9-3.1c-0.3-1.2-0.6-2.5-0.8-3.7c-0.6-2.7-1.1-2.2,1.5-4.5
			c1.3-1.1,2.7-2.2,4-3.3c-0.7-1.8-0.8-1.9-2.1-1.7c-1.8,0.3-3.4,1.1-4.8,2.1c-0.7,0.6-1.5,1.2-2.3,1.6s-1,1.1-1,1.9
			c-0.1,1.7-0.1,3.4-0.3,5.1c-0.1,1.8,0,3.6,0.2,5.3c0.2,1.3,0.5,2.3,1.7,2.9c0.5,0.3,0.9,0.8,1.4,1.1c1.2,0.9,1.4,2,1.2,3.4
			c-0.1,0.7-0.2,1.3-0.4,2c-0.5,2.1-1,4.1-1.5,6.2c-0.4,1.7-0.9,3.4-1.3,5c0.2,0.2,0.3,0.4,0.5,0.4c2.2,0.6,4.4,0.4,6.6,0
			c0.6-0.1,1-0.5,1.2-1.2c0.3-1.3,0.7-2.6,1-3.9c0.6-2,1.2-4.1,1.8-6.1c0.4-1.3,1.2-2.1,2.7-2.4c2-0.3,3.7-1.2,4.8-3
			c0.4-0.6,0.9-1,1.4-1.5c0.9-1,1.7-2.1,2.6-3.1c1-1.1,1.1-2.2,0.7-3.5c-0.8-2.5-1.5-5-2.3-7.5c-0.2-0.5-0.6-1-1.1-1.4
			c-0.7-0.5-1.6-1-2.9-1.1C-349.1,239-349.5,239.4-350,239.8z M-387,289c-0.3-0.1-0.6-0.3-0.9-0.2c-0.8,0.1-1.4,0.4-2,1
			c-0.7,0.7-1.3,1.4-2,1.9c-1.9,1.4-2.4,3.2-1.9,5.4c0.1,0.7,0.4,1.3,0.6,1.9c0.8,1.8,1.6,3.5,2.5,5.3c1.3,2.8,3.2,5.1,5.3,7.4
			c0.9,0.9,1.9,1.1,3,0.7c1.5-0.6,3-1.2,4.4-1.9c0.2-0.1,0.4-0.4,0.8-1c-1,0.2-1.6,0.3-2.4,0.5c-0.8-0.8-1.9-1.5-2.5-2.5
			c-2-3.2-4-6.5-5.1-10.2c-0.8-2.6-1.2-5.1,0.1-7.7C-387,289.5-387,289.3-387,289z"/>
	</g>
</g>
</svg>
