<?xml version="1.0" encoding="utf-8"?>
<!-- Generator: Adobe Illustrator 19.0.0, SVG Export Plug-In . SVG Version: 6.00 Build 0)  -->
<svg version="1.1" xmlns="http://www.w3.org/2000/svg" xmlns:xlink="http://www.w3.org/1999/xlink" x="0px" y="0px"
	 viewBox="0 0 112 104" style="enable-background:new 0 0 112 104;" xml:space="preserve">
<style type="text/css">
	.st0{display:none;}
	.st1{display:inline;fill-rule:evenodd;clip-rule:evenodd;fill:#8AB631;}
	.st2{display:inline;fill-rule:evenodd;clip-rule:evenodd;fill:#112129;}
	.st3{fill-rule:evenodd;clip-rule:evenodd;fill:#023246;}
	.st4{fill-rule:evenodd;clip-rule:evenodd;fill:#F6F6F6;}
	.st5{fill-rule:evenodd;clip-rule:evenodd;fill:#00C1FA;}
	.st6{fill:#F6F6F6;}
	.st7{fill-rule:evenodd;clip-rule:evenodd;fill:#112129;}
</style>
<g id="Layer_1">
	<g id="XMLID_1070_" class="st0">
		<path class="st1" d="M465.4,29.2c0,0.6,0.1,0.8,0,1c-2.5,6.1-4.9,12.2-7.4,18.3c-1.7,4-3.5,7.9-5.4,11.9
			c-2.7,5.7-5.6,11.4-8.4,17.1c-0.3,0.6-0.6,1.1-0.9,1.6c-0.2,0-0.3,0-0.4,0c-0.1,0-0.2,0-0.3-0.1c-5.4-5.3-10.7-10.6-16.2-16
			c0.3-0.3,0.7-0.8,1.2-1.2c7.7-6.5,15.3-13.1,22.6-20.1c4.4-4.2,9.1-8,13.9-11.6C464.4,29.8,464.8,29.6,465.4,29.2z"/>
		<path class="st1" d="M460.7,26.3c-3.1,2-6.2,3.1-9.1,4.4c-3.1,1.4-6.2,2.7-9.2,4.2c-2.9,1.4-5.9,3-8.7,4.5c-3,1.6-5.9,3.2-8.9,4.9
			c-2.9,1.6-5.7,3.2-8.5,4.8c-0.8-0.2-1.5-0.3-2.2-0.5c-2.4-2.9-4.8-5.9-7.3-8.8c-2.5-2.8-5.1-5.6-7.8-8.5c1.3-0.7,2.4-0.8,3.5-0.8
			c5.9,0,11.8-0.7,17.7-1.3c3.2-0.3,6.3-0.4,9.5-0.7c9.9-0.8,19.8-1.6,29.7-2.4C459.6,26.1,459.9,26.2,460.7,26.3z"/>
		<path class="st1" d="M416,52c1.2-0.8,2.3-1.7,3.5-2.3c13.4-7.7,27.2-14.6,41.4-20.7c0.3-0.1,0.6-0.2,0.9-0.3
			c0.2,0.7-0.4,0.9-0.8,1.2c-6,4.6-11.5,9.7-17,14.8c-5.9,5.5-12,10.8-18,16.1c-0.4,0.4-0.8,0.8-1.2,1c-2.2,0.5-3.2,2.3-4.2,4
			c-0.7,1.2-1.3,2.4-2,3.6c-0.2,0.3-0.5,0.6-1,1.3C416.7,64.2,416.4,58.1,416,52z"/>
		<path class="st1" d="M426.2,66.2c-1.7,0.9-3.3,1.8-4.9,2.7c-0.4-1.1,0.3-1.7,0.7-2.4c0.5-0.8,1.1-1.5,1.8-2.2
			c0.2-0.2,0.9-0.1,1.1,0.1C425.4,64.9,425.7,65.5,426.2,66.2z"/>
		<path class="st2" d="M397.8,29.1c2.4-0.2,4.9-0.4,7.3-0.7c3.5-0.3,7-0.6,10.4-0.9c3.6-0.3,7.2-0.7,10.8-1
			c7.6-0.6,15.2-1.2,22.8-1.8c5-0.4,9.9-0.9,14.9-1.4c1.2-0.1,2.3-0.3,3.5-0.4c0.8-0.1,1.6,0,2.7,0c-0.1,0.8,0,1.5-0.2,2
			c-0.4,1.1-0.9,2.2-1.3,3.2c-2.5,6.3-5,12.6-7.6,18.9c-1.7,4.1-3.4,8.2-5.3,12.2c-3.1,6.6-6.4,13.1-9.7,19.7
			c-0.5,1.1-0.9,2.2-2.5,2.4c-2.9-1.6-5.2-4.3-7.8-6.6c-2.6-2.3-5.1-4.8-7.7-7.2c-0.8,0.3-1.5,0.5-2.1,0.9c-1.6,1-3.2,2.1-4.7,3.2
			c-0.8,0.6-1.5,1.2-2.3,1.8c-2.3,1.7-3.3,1.3-3.6-1.7c-0.5-5.8-1-11.6-1.3-17.4c-0.1-1.9-0.6-3.4-1.9-4.8c-4.1-4.5-8-9-12-13.5
			c-0.8-1-1.6-1.9-2.5-2.9C396.6,31.9,396.6,30.7,397.8,29.1z M465.4,29.2c-0.6,0.4-1,0.6-1.3,0.9c-4.8,3.6-9.5,7.4-13.9,11.6
			c-7.3,7-14.9,13.6-22.6,20.1c-0.5,0.4-0.8,0.9-1.2,1.2c5.5,5.4,10.8,10.7,16.2,16c0.1,0.1,0.2,0.1,0.3,0.1c0.1,0,0.2,0,0.4,0
			c0.3-0.5,0.6-1,0.9-1.6c2.8-5.7,5.6-11.4,8.4-17.1c1.9-3.9,3.7-7.9,5.4-11.9c2.6-6,5-12.2,7.4-18.3
			C465.5,30,465.4,29.8,465.4,29.2z M460.7,26.3c-0.7-0.1-1-0.1-1.3-0.1c-9.9,0.8-19.8,1.6-29.7,2.4c-3.2,0.3-6.3,0.3-9.5,0.7
			c-5.9,0.6-11.8,1.3-17.7,1.3c-1.1,0-2.2,0.1-3.5,0.8c2.7,2.9,5.3,5.6,7.8,8.5c2.5,2.9,4.9,5.8,7.3,8.8c0.7,0.2,1.4,0.3,2.2,0.5
			c2.8-1.6,5.7-3.2,8.5-4.8c3-1.7,5.9-3.3,8.9-4.9c2.9-1.5,5.8-3.1,8.7-4.5c3-1.5,6.2-2.8,9.2-4.2C454.5,29.3,457.6,28.2,460.7,26.3
			z M416,52c0.4,6.1,0.8,12.2,1.6,18.7c0.6-0.7,0.8-1,1-1.3c0.7-1.2,1.2-2.5,2-3.6c1.1-1.7,2-3.5,4.2-4c0.5-0.1,0.9-0.6,1.2-1
			c6-5.4,12.1-10.7,18-16.1c5.5-5.1,11-10.2,17-14.8c0.4-0.3,0.9-0.5,0.8-1.2c-0.3,0.1-0.6,0.1-0.9,0.3c-14.2,6.1-28,13-41.4,20.7
			C418.3,50.3,417.2,51.1,416,52z M426.2,66.2c-0.5-0.7-0.9-1.3-1.4-1.8c-0.2-0.2-0.9-0.3-1.1-0.1c-0.7,0.6-1.3,1.4-1.8,2.2
			c-0.4,0.7-1.1,1.3-0.7,2.4C422.9,68,424.5,67.1,426.2,66.2z"/>
		<path class="st2" d="M388.7,88.9c0-0.4-0.2-0.8-0.1-1.2c0.3-1,0.4-2.1,1-3c3.1-5.4,7.3-9.8,12.6-13.1c0.7-0.4,1.5-0.8,2.3-1
			c0.6-0.2,1.3,0.1,1.4,1.2c-1.2,0.8-2.4,1.7-3.7,2.6c-1.3,1-2.6,2.1-3.8,3.3c-1.1,1.1-2.2,2.2-3.3,3.4c-1.1,1.3-2.1,2.6-3.1,4
			c-0.9,1.3-1.8,2.6-2.6,3.9C389.1,89,388.9,88.9,388.7,88.9z"/>
		<path class="st2" d="M391.9,100.2c-0.3-1.6,0.3-2.8,0.9-4c3.1-6.2,7.3-11.6,12.3-16.4c0.6-0.6,1.4-1,2.1-1.4
			c0.2-0.1,0.6,0.1,0.8,0.3c0.2,0.2,0.3,0.6,0.1,0.9c-0.2,0.5-0.6,0.9-1,1.2c-5,5.2-9.3,11-13.4,16.9
			C393.2,98.6,392.6,99.4,391.9,100.2z"/>
		<path class="st2" d="M409.3,85.9c1.1-2.7,3.1-4.6,5.2-6.3c0.3-0.2,0.8-0.3,1.2-0.4c0.2,0,0.4,0.1,0.5,0.2c0.1,0.1,0.1,0.4,0.1,0.6
			c0,0.2-0.2,0.4-0.3,0.5c-1.7,1.7-3.3,3.5-5,5.2C410.5,86.1,410.1,86.5,409.3,85.9z"/>
	</g>
</g>
<g id="Layer_4">
</g>
<g id="Layer_3">
	<g id="XMLID_929_">
		<g id="XMLID_942_">
			<path id="XMLID_951_" class="st3" d="M100.9,80.3c-2.8-2.1-5.8-3.9-8.9-5.5c-2-1.1-4-2.2-6-3.3c-0.7-0.4-1.3-0.7-2.2-1.2
				c-0.2,0.6-0.5,1.1-0.6,1.7c-1,4.3-2.8,8.2-4.9,12c-1.1,2-2.5,3.8-4.4,5.4c1.9,1.5,3.9,2.6,5.9,3.6c1.9,1,4,2,5.9,2.9
				c1.8,0.9,3.7,1.6,5.6,2.9c0.9-0.8,1.8-1.6,2.6-2.5c2.1-2.2,3.9-4.8,5.2-7.5c1.2-2.5,2.2-5.1,2.7-7.9
				C101.6,80.8,101.3,80.5,100.9,80.3z"/>
			<path id="XMLID_950_" class="st4" d="M69.5,85c-3.9-0.8-7.3-0.2-10.7,0.7c-1.9,0.5-3.8,1-5.7,1.4c-2.7,0.5-5.4,0.5-8.1-0.3
				c-2.3-0.7-4.4-1.8-5.8-3.9c-0.2-0.3-0.3-0.7-0.5-1.1c0.6-0.5,1.1-0.1,1.5,0c1.9,0.5,3.8,0.9,5.8,0.9c1.4,0,2.8-0.2,4-1.1
				c-0.5-0.7-1.2-0.4-1.7-0.4c-3.4-0.1-6.7-0.9-9.9-2.1c-3.1-1.2-5.1-3.6-6.1-6.8c-0.1-0.3-0.1-0.7-0.2-1c0-0.2,0-0.3,0.1-0.6
				c0.8,0,1.3,0.7,1.9,1.1c2.7,1.9,5.7,2.9,9.1,2.8c1.1,0,2.2,0,3.2-1.1c-0.6-0.1-1-0.1-1.4-0.2c-1.8-0.3-3.7-0.5-5.5-1
				c-4.8-1.4-7.8-4.6-9.3-9.3c-0.3-1.1-0.3-1.2-0.1-3c0.8-0.1,0.9,0.6,1.2,1.1c1.4,2.1,3.3,3.6,5.5,4.8c2.9,1.6,6,1.8,9,0.3
				c0.2-0.1,0.4-0.3,0.8-0.6c-0.4-0.1-0.7-0.3-1-0.3c-0.8,0-1.5,0.1-2.3,0.1c-4.4,0-7.8-2-10.4-5.5c-1.7-2.4-2-5-1-7.7
				c0.4-1.1,1.1-1.9,2.2-2.3c0.8,0.8,0.8,0.8,1.3,2.1c0,0.2,0,0.3-0.1,0.5c-1,2.4-0.6,3.7,1.7,4.8c3.4,1.6,6.9,1.6,10.3,0
				c1.4-0.6,1.9-1.8,1.8-3.5c-0.7,0.3-1.3,0.6-1.8,0.8c-0.2-0.1-0.3-0.1-0.3-0.2c-0.2-0.3-0.4-0.6-0.5-0.9c-0.9-1.7-1.8-3.4-2.7-5.2
				c0.8-0.7,1.6-1,2.6-0.8c2.5,0.5,5,1.1,7.4,1.7c1.9,0.5,3.6,1.6,5,2.9c1.5,1.3,2.9,2.6,4.3,4c1.6,1.6,3,3.4,4.6,5.1
				c1.1,1.2,2.3,2.2,3.7,3.1c1.2,0.7,2.4,1.5,3.6,2.4c0.5,0.4,1,0.9,1.5,1.4c0.7,0.7,0.8,1.5,0.5,2.3c-0.6,1.5-1,3.1-1.7,4.5
				c-1,2.1-2.1,4.1-3.2,6.1c-0.4,0.7-0.8,1.5-1.2,2.2C70.5,83.9,70,84.4,69.5,85z"/>
			<path id="XMLID_947_" class="st5" d="M32.9,38.8c-1.5,0.5-3.1,1-4.6,1.5c-2.9,1.1-5.8,0.8-8.7,0c-1.5-0.4-2.9-1-4.3-1.5
				c-2-0.8-3.6-2.2-4.8-4c-2.1-3.2-3.7-6.7-4.1-10.6c-0.3-2.7,0.2-5.2,1.3-7.7c1.4-3.1,3.6-5.8,6.2-7.9c2.8-2.3,6-3.5,9.6-3.5
				c6,0,11.1,2.2,15,6.9c3.6,4.4,4.9,9.4,3.7,15c-0.2,0.7-0.4,1.5-0.5,2.2c-0.7,3.9-3.2,6.5-6.5,8.4c-0.7,0.4-1.5,0.7-2.3,1.1
				C32.9,38.7,32.9,38.8,32.9,38.8z M30.6,36.2C30.6,36.2,30.6,36.3,30.6,36.2c0.8-0.3,1.6-0.6,2.3-1.1c4.2-2.3,6.6-5.8,6.7-10.6
				c0-1.9,0-3.8-0.4-5.6c-0.8-3.9-3-7-6.6-9C27.4,7.1,22,7.2,16.8,10c-3,1.6-5.1,4.1-6,7.5c-0.4,1.6-0.8,3.1-0.9,4.7
				c-0.2,2.4,0,4.7,1,7c1.5,3.5,4.1,5.8,7.4,7.4c3.3,1.7,6.8,2,10.3,0.5C29.2,36.9,29.9,36.6,30.6,36.2z"/>
			<path id="XMLID_946_" class="st4" d="M71,87.5c2.2-4.7,4.7-9.4,6.7-14.2c0.8-1.9,1.4-3.8,1.2-5.9c2.1,0.7,3,2,2.5,3.9
				c-1.1,5.1-3.3,9.8-6.2,14.1c-0.7,1-1.4,1.9-2.5,2.5C72.1,88.1,71.9,88.1,71,87.5z"/>
			<path id="XMLID_945_" class="st4" d="M33.2,41c0.9-0.7,1.8-1.1,2.7-1.4c1.9,2,4.2,6.1,4.7,8.4c-0.6,0.3-1.1,0.6-1.7,0.9
				c-0.6,0.3-1.2,0.5-1.8,0.7C35.7,47.8,33.8,43.5,33.2,41z"/>
			<path id="XMLID_944_" class="st3" d="M45.4,55.8c-2,1.4-4,1-6.2,0.5c-0.5-1.2-1-2.3-1.4-3.5c-0.4-1.2-0.1-1.7,1-2.2
				c0.3-0.2,0.6-0.3,0.9-0.4c1.7-0.7,2.8-0.4,3.7,1.1C44.3,52.6,45.1,54.1,45.4,55.8z"/>
			<path id="XMLID_943_" class="st6" d="M29.5,10.8c-4.5-1.8-8.8-1.1-12.9,1.3c-0.6,0.3-1.1,0.8-1.5,1.4c-2.1,3-3.8,6.2-3.7,10.1
				c0.1,2.4,0.6,4.5,1.8,6.5c1.6,2.7,4,4.3,6.7,5.6c2.4,1.1,4.9,1.4,7.4,0.2c0.8-0.4,1.6-0.6,2.4-1c0.9-0.5,1.9-1.1,2.9-1.6
				c1.3-0.7,2.2-1.7,3-3c1.8-3,2.1-6.2,1.7-9.6C36.6,15.9,34,12.6,29.5,10.8z"/>
		</g>
		<path id="XMLID_935_" class="st7" d="M77.4,65.8c1.8-0.9,3.2-0.4,4.4,1.2c0.4,0.5,1.1,0.8,1.7,1c1.1,0.6,2.3,1.1,3.4,1.6
			c2.6,1.3,5.1,2.7,7.6,4.1c2.4,1.3,4.8,2.6,6.9,4.4c0.6,0.5,1.2,1.1,1.8,1.8c0.3,0.3,0.4,0.8,0,1.1c-0.2,0.2-0.7,0.2-0.9,0.1
			c-0.5-0.2-0.9-0.5-1.3-0.8c-2.8-2.1-5.8-3.9-8.9-5.5c-2-1.1-4-2.2-6-3.3c-0.7-0.4-1.3-0.7-2.2-1.2c-0.2,0.6-0.5,1.1-0.6,1.7
			c-1,4.3-2.8,8.2-4.9,12c-1.1,2-2.5,3.8-4.4,5.4c1.9,1.5,3.9,2.6,5.9,3.6c1.9,1,4,2,5.9,2.9c2,1,4.2,1.8,6.3,3.4
			c-0.6,0.1-0.9,0.2-1.2,0.2c-1.3-0.3-2.6-0.6-3.9-1.1c-4.4-1.5-8.4-3.6-12.3-6.1c-0.5-0.3-1-0.6-1.4-1c-0.7-0.8-1.5-1.4-2.7-1.7
			c-0.7-0.2-1.2-0.9-1.7-1.5c-0.3-0.4-0.4-0.9-0.7-1.4c-3.5-0.5-6.8-0.4-10.1,0.9c-2.5,1-5,1.6-7.7,1.8c-2.2,0.1-4.4-0.1-6.5-0.9
			c-3.7-1.4-6.8-3.6-7.4-8c-0.4-0.3-0.7-0.5-1.1-0.7c-3.6-2.3-5-5.6-5-9.7c0-1.1-0.2-2.1-0.7-3.1c-0.6-1.1-0.9-2.4-1.3-3.6
			c-0.5-1.7-0.4-3.4,0.6-4.9c0.4-0.6,0.5-1.2,0.4-1.9c-0.1-0.6-0.1-1.2,0-1.8c0.4-2.7,1.2-5.2,4.2-6C33.6,47.1,32.4,44,31,42
			c-1.3-0.2-2.6,0.3-3.9,0.6c-3,0.7-5.8,0.5-8.8-0.4c-5.7-1.6-9.6-5.1-11.9-10.6C5.7,29.8,5,28,4.6,26.1c-1-5.4,0.3-10.1,3.9-14.2
			c1-1.2,2-2.3,3-3.4c2.6-2.8,5.9-4.5,9.7-5.1c8.1-1.2,18.2,3.1,22,12.9c1.3,3.3,1.4,6.6,0.8,10c-0.3,1.6-0.6,3.2-0.9,4.7
			c-0.1,0.4-0.3,0.8-0.4,1.2c-0.1,0.3-0.4,0.6-0.5,0.9c-0.9,2-2.1,3.9-4.2,5c0.4,1.7,1.6,2.9,2.3,4.3c0.7,1.4,1.5,2.7,2.3,4.1
			c0.6,0,1.2,0.1,1.7-0.2c1.1-0.5,2.1-0.5,3.2-0.4c6.3,0.5,11.6,3,15.9,7.6c1.3,1.4,2.6,2.9,3.8,4.4c1.6,2.1,3.5,3.9,5.9,5.2
			C74.5,63.9,75.9,64.9,77.4,65.8z M69.5,85c0.5-0.6,1-1.1,1.4-1.8c0.5-0.7,0.8-1.5,1.2-2.2c1.1-2,2.2-4,3.2-6.1
			c0.7-1.4,1.2-3,1.7-4.5c0.3-0.9,0.1-1.7-0.5-2.3c-0.5-0.5-0.9-1-1.5-1.4c-1.2-0.8-2.4-1.6-3.6-2.4c-1.4-0.8-2.6-1.9-3.7-3.1
			c-1.5-1.7-3-3.5-4.6-5.1c-1.3-1.4-2.8-2.7-4.3-4c-1.5-1.3-3.1-2.4-5-2.9c-2.4-0.7-4.9-1.2-7.4-1.7c-1-0.2-1.8,0.1-2.6,0.8
			c0.9,1.8,1.8,3.5,2.7,5.2c0.2,0.3,0.3,0.6,0.5,0.9c0,0.1,0.1,0.1,0.3,0.2c0.5-0.2,1.1-0.5,1.8-0.8c0.1,1.7-0.4,2.9-1.8,3.5
			c-3.4,1.6-6.9,1.7-10.3,0c-2.3-1.1-2.7-2.3-1.7-4.8c0.1-0.2,0.1-0.3,0.1-0.5c-0.4-1.3-0.5-1.3-1.3-2.1c-1.2,0.3-1.8,1.2-2.2,2.3
			c-1.1,2.7-0.8,5.4,1,7.7c2.6,3.5,5.9,5.5,10.4,5.5c0.8,0,1.5-0.1,2.3-0.1c0.3,0,0.6,0.2,1,0.3c-0.4,0.3-0.5,0.5-0.8,0.6
			c-3.1,1.5-6.1,1.3-9-0.3c-2.2-1.2-4.1-2.7-5.5-4.8c-0.3-0.4-0.4-1.1-1.2-1.1c-0.3,1.8-0.3,1.9,0.1,3c1.5,4.7,4.6,7.9,9.3,9.3
			c1.8,0.5,3.7,0.7,5.5,1c0.4,0.1,0.8,0.1,1.4,0.2c-1.1,1-2.2,1.1-3.2,1.1c-3.3,0.1-6.3-0.9-9.1-2.8c-0.6-0.4-1-1.1-1.9-1.1
			c0,0.2-0.1,0.4-0.1,0.6c0,0.3,0.1,0.7,0.2,1c1,3.2,2.9,5.5,6.1,6.8c3.2,1.3,6.5,2,9.9,2.1c0.6,0,1.2-0.3,1.7,0.4
			c-1.2,0.9-2.6,1.1-4,1.1c-2,0-3.9-0.4-5.8-0.9c-0.4-0.1-0.9-0.5-1.5,0c0.2,0.3,0.3,0.7,0.5,1.1c1.4,2.1,3.5,3.1,5.8,3.9
			c2.6,0.8,5.4,0.8,8.1,0.3c1.9-0.4,3.8-0.9,5.7-1.4C62.2,84.8,65.6,84.3,69.5,85z M32.9,38.8c0,0,0-0.1,0-0.1
			c0.8-0.4,1.6-0.7,2.3-1.1c3.3-1.9,5.8-4.5,6.5-8.4c0.1-0.7,0.4-1.5,0.5-2.2c1.2-5.6-0.2-10.6-3.7-15c-3.8-4.7-8.9-6.9-15-6.9
			c-3.6,0-6.8,1.2-9.6,3.5c-2.6,2.2-4.8,4.8-6.2,7.9c-1.1,2.5-1.6,5-1.3,7.7c0.4,3.9,2,7.3,4.1,10.6c1.2,1.8,2.8,3.2,4.8,4
			c1.4,0.6,2.8,1.1,4.3,1.5c2.9,0.8,5.8,1.1,8.7,0C29.8,39.8,31.4,39.3,32.9,38.8z M71,87.5c0.9,0.6,1.1,0.6,1.7,0.3
			c1.1-0.6,1.8-1.5,2.5-2.5c2.9-4.3,5.1-9,6.2-14.1c0.4-1.9-0.5-3.2-2.5-3.9c0.2,2.1-0.4,4-1.2,5.9C75.7,78.1,73.3,82.7,71,87.5z
			 M33.2,41c0.6,2.6,2.5,6.8,3.9,8.6c0.6-0.2,1.2-0.4,1.8-0.7c0.6-0.3,1.2-0.6,1.7-0.9c-0.5-2.3-2.9-6.5-4.7-8.4
			C35,39.8,34.1,40.3,33.2,41z M45.4,55.8c-0.3-1.7-1.2-3.2-2-4.6c-0.9-1.5-2-1.8-3.7-1.1c-0.3,0.1-0.6,0.3-0.9,0.4
			c-1.1,0.5-1.4,1.1-1,2.2c0.4,1.2,0.9,2.3,1.4,3.5C41.4,56.8,43.4,57.2,45.4,55.8z"/>
		<path id="XMLID_932_" class="st7" d="M30.6,36.2c-0.7,0.3-1.4,0.7-2.1,1c-3.5,1.5-7,1.2-10.3-0.5c-3.3-1.7-5.9-4-7.4-7.4
			c-1-2.3-1.1-4.6-1-7c0.1-1.6,0.5-3.2,0.9-4.7c0.9-3.4,3-5.9,6-7.5c5.2-2.8,10.6-2.9,15.8,0c3.5,2,5.7,5,6.6,9
			c0.4,1.8,0.5,3.7,0.4,5.6c-0.1,4.8-2.5,8.3-6.7,10.6C32.2,35.6,31.4,35.9,30.6,36.2C30.6,36.3,30.6,36.2,30.6,36.2z M29.7,34.9
			c0.9-0.5,1.9-1.1,2.9-1.6c1.3-0.7,2.2-1.7,3-3c1.8-3,2.1-6.2,1.7-9.6c-0.6-4.8-3.3-8.1-7.7-9.9c-4.5-1.8-8.8-1.1-12.9,1.3
			c-0.6,0.3-1.1,0.8-1.5,1.4c-2.1,3-3.8,6.2-3.7,10.1c0.1,2.4,0.6,4.5,1.8,6.5c1.6,2.7,4,4.3,6.7,5.6c2.4,1.1,4.9,1.4,7.4,0.2
			C28.1,35.5,28.9,35.2,29.7,34.9z"/>
		<path id="XMLID_931_" class="st7" d="M26.6,27.7c-0.2-0.4-0.5-0.9-0.5-1.3c0.6-3.2,1.2-6.5,1.8-9.7c0-0.2,0.2-0.5,0.4-0.6
			c0.1-0.1,0.3-0.2,0.4-0.1c0.1,0,0.3,0.2,0.3,0.3c0,0.5,0,1-0.1,1.5c-0.4,2.8-0.9,5.7-1.3,8.5C27.5,26.8,27.4,27.4,26.6,27.7z"/>
		<path id="XMLID_930_" class="st7" d="M31.5,23.7c-0.7-2-0.6-3.1,0.6-5.2c0.1,0.1,0.4,0.1,0.4,0.2C32.7,20.2,32.4,21.7,31.5,23.7z"
			/>
	</g>
</g>
<g id="Layer_2">
</g>
</svg>
