<svg width="43" height="43" viewBox="0 0 43 43" fill="none" xmlns="http://www.w3.org/2000/svg">
<path d="M37.3333 0H4.66667C2.08934 0 0 2.08934 0 4.66667V37.3333C0 39.9107 2.08934 42 4.66667 42H37.3333C39.9107 42 42 39.9107 42 37.3333V4.66667C42 2.08934 39.9107 0 37.3333 0Z" fill="#F6F6F6"/>
<path d="M12.833 16.334C14.766 16.334 16.333 14.767 16.333 12.834C16.333 10.901 14.766 9.33398 12.833 9.33398C10.9 9.33398 9.33301 10.901 9.33301 12.834C9.33301 14.767 10.9 16.334 12.833 16.334Z" fill="#F6F6F6" stroke="#023246" stroke-width="2" stroke-linecap="round" stroke-linejoin="round"/>
<path d="M42.0003 28.0007L30.3337 16.334L4.66699 42.0007" fill="#F6F6F6"/>
<path d="M42.0003 28.0007L30.3337 16.334L4.66699 42.0007" stroke="#023246" stroke-width="2" stroke-linecap="round" stroke-linejoin="round"/>
</svg>
