<svg width="201" height="16" viewBox="0 0 201 16" fill="none" xmlns="http://www.w3.org/2000/svg">
<path d="M0.646447 7.64646C0.451184 7.84173 0.451184 8.15831 0.646447 8.35357L3.82843 11.5356C4.02369 11.7308 4.34027 11.7308 4.53553 11.5356C4.7308 11.3403 4.7308 11.0237 4.53553 10.8284L1.70711 8.00002L4.53553 5.17159C4.7308 4.97633 4.7308 4.65975 4.53553 4.46448C4.34027 4.26922 4.02369 4.26922 3.82843 4.46448L0.646447 7.64646ZM201 7.5L198.5 7.5L198.5 8.5L201 8.5L201 7.5ZM193.5 7.5L188.5 7.5L188.5 8.5L193.5 8.5L193.5 7.5ZM183.5 7.5L178.5 7.5L178.5 8.5L183.5 8.5L183.5 7.5ZM173.5 7.5L168.5 7.5L168.5 8.5L173.5 8.5L173.5 7.5ZM163.5 7.5L158.5 7.5L158.5 8.5L163.5 8.5L163.5 7.5ZM153.5 7.5L148.5 7.5L148.5 8.5L153.5 8.5L153.5 7.5ZM143.5 7.50001L138.5 7.50001L138.5 8.50001L143.5 8.50001L143.5 7.50001ZM133.5 7.50001L128.5 7.50001L128.5 8.50001L133.5 8.50001L133.5 7.50001ZM123.5 7.50001L118.5 7.50001L118.5 8.50001L123.5 8.50001L123.5 7.50001ZM113.5 7.50001L108.5 7.50001L108.5 8.50001L113.5 8.50001L113.5 7.50001ZM103.5 7.50001L98.5 7.50001L98.5 8.50001L103.5 8.50001L103.5 7.50001ZM93.5 7.50001L88.5 7.50001L88.5 8.50001L93.5 8.50001L93.5 7.50001ZM83.5 7.50001L78.5 7.50001L78.5 8.50001L83.5 8.50001L83.5 7.50001ZM73.5 7.50001L68.5 7.50001L68.5 8.50001L73.5 8.50001L73.5 7.50001ZM63.5 7.50001L58.5 7.50001L58.5 8.50001L63.5 8.50001L63.5 7.50001ZM53.5 7.50001L48.5 7.50001L48.5 8.50001L53.5 8.50001L53.5 7.50001ZM43.5 7.50001L38.5 7.50001L38.5 8.50001L43.5 8.50001L43.5 7.50001ZM33.5 7.50001L28.5 7.50002L28.5 8.50002L33.5 8.50001L33.5 7.50001ZM23.5 7.50002L18.5 7.50002L18.5 8.50002L23.5 8.50002L23.5 7.50002ZM13.5 7.50002L8.5 7.50002L8.5 8.50002L13.5 8.50002L13.5 7.50002ZM3.5 7.50002L1 7.50002L1 8.50002L3.5 8.50002L3.5 7.50002ZM0.292893 7.29291C-0.0976311 7.68344 -0.097631 8.3166 0.292893 8.70712L6.65685 15.0711C7.04738 15.4616 7.68054 15.4616 8.07107 15.0711C8.46159 14.6806 8.46159 14.0474 8.07107 13.6569L2.41421 8.00002L8.07107 2.34316C8.46159 1.95264 8.46159 1.31947 8.07107 0.928949C7.68054 0.538425 7.04738 0.538425 6.65685 0.928949L0.292893 7.29291ZM201 7L198.5 7L198.5 9L201 9L201 7ZM193.5 7L188.5 7L188.5 9L193.5 9L193.5 7ZM183.5 7L178.5 7L178.5 9L183.5 9L183.5 7ZM173.5 7L168.5 7L168.5 9L173.5 9L173.5 7ZM163.5 7L158.5 7L158.5 9L163.5 9L163.5 7ZM153.5 7L148.5 7L148.5 9L153.5 9L153.5 7ZM143.5 7.00001L138.5 7.00001L138.5 9.00001L143.5 9.00001L143.5 7.00001ZM133.5 7.00001L128.5 7.00001L128.5 9.00001L133.5 9.00001L133.5 7.00001ZM123.5 7.00001L118.5 7.00001L118.5 9.00001L123.5 9.00001L123.5 7.00001ZM113.5 7.00001L108.5 7.00001L108.5 9.00001L113.5 9.00001L113.5 7.00001ZM103.5 7.00001L98.5 7.00001L98.5 9.00001L103.5 9.00001L103.5 7.00001ZM93.5 7.00001L88.5 7.00001L88.5 9.00001L93.5 9.00001L93.5 7.00001ZM83.5 7.00001L78.5 7.00001L78.5 9.00001L83.5 9.00001L83.5 7.00001ZM73.5 7.00001L68.5 7.00001L68.5 9.00001L73.5 9.00001L73.5 7.00001ZM63.5 7.00001L58.5 7.00001L58.5 9.00001L63.5 9.00001L63.5 7.00001ZM53.5 7.00001L48.5 7.00001L48.5 9.00001L53.5 9.00001L53.5 7.00001ZM43.5 7.00001L38.5 7.00001L38.5 9.00001L43.5 9.00001L43.5 7.00001ZM33.5 7.00001L28.5 7.00002L28.5 9.00002L33.5 9.00001L33.5 7.00001ZM23.5 7.00002L18.5 7.00002L18.5 9.00002L23.5 9.00002L23.5 7.00002ZM13.5 7.00002L8.5 7.00002L8.5 9.00002L13.5 9.00002L13.5 7.00002ZM3.5 7.00002L1 7.00002L1 9.00002L3.5 9.00002L3.5 7.00002Z" fill="#D4D4CE"/>
</svg>
