<svg width="38" height="38" viewBox="0 0 38 38" fill="none" xmlns="http://www.w3.org/2000/svg">
<path fill-rule="evenodd" clip-rule="evenodd" d="M19 38C29.4934 38 38 29.4934 38 19C38 8.50659 29.4934 0 19 0C8.50659 0 0 8.50659 0 19C0 29.4934 8.50659 38 19 38ZM12.2157 13.9858V30.4H7.1136V13.9858H12.2157ZM6.97933 9.42078C6.94577 7.94385 8.0199 6.83615 9.66467 6.83615C11.3094 6.83615 12.35 7.94385 12.3836 9.42078C12.3836 10.8306 11.3094 11.9718 9.6311 11.9718C8.0199 11.9718 6.94577 10.8306 6.97933 9.42078ZM20.7556 30.4H15.6534V19.2222C15.6534 17.1747 15.5863 15.4292 15.5192 13.9858H19.95L20.1849 16.2348H20.2856C20.957 15.1942 22.6353 13.6166 25.3542 13.6166C28.7109 13.6166 31.2284 15.832 31.2284 20.6656V30.4H26.1262V21.3034C26.1262 19.1887 25.3878 17.7453 23.5416 17.7453C22.1318 17.7453 21.2926 18.7188 20.957 19.6586C20.8227 19.9607 20.7556 20.4642 20.7556 20.9342V30.4Z" fill="#023246"/>
</svg>
