<svg width="38" height="38" viewBox="0 0 38 38" fill="none" xmlns="http://www.w3.org/2000/svg">
<path fill-rule="evenodd" clip-rule="evenodd" d="M19 38C29.4934 38 38 29.4934 38 19C38 8.50659 29.4934 0 19 0C8.50659 0 0 8.50659 0 19C0 29.4934 8.50659 38 19 38ZM12.2137 13.9852V30.3993H7.11159V13.9852H12.2137ZM6.97733 9.42018C6.94376 7.94325 8.01789 6.83555 9.66266 6.83555C11.3074 6.83555 12.348 7.94325 12.3816 9.42018C12.3816 10.83 11.3074 11.9712 9.62909 11.9712C8.01789 11.9712 6.94376 10.83 6.97733 9.42018ZM20.7536 30.3993H15.6514V19.2216C15.6514 17.1741 15.5843 15.4286 15.5172 13.9852H19.948L20.1829 16.2342H20.2836C20.955 15.1936 22.6333 13.616 25.3522 13.616C28.7089 13.616 31.2264 15.8314 31.2264 20.665V30.3993H26.1242V21.3028C26.1242 19.1881 25.3858 17.7447 23.5396 17.7447C22.1298 17.7447 21.2906 18.7181 20.955 19.658C20.8207 19.9601 20.7536 20.4636 20.7536 20.9335V30.3993Z" fill="#287094"/>
</svg>
