<svg width="44" height="44" viewBox="0 0 44 44" fill="none" xmlns="http://www.w3.org/2000/svg">
<path fill-rule="evenodd" clip-rule="evenodd" d="M22 44C34.1503 44 44 34.1503 44 22C44 9.84974 34.1503 0 22 0C9.84974 0 0 9.84974 0 22C0 34.1503 9.84974 44 22 44ZM14.1442 16.1934V35.1992H8.23643V16.1934H14.1442ZM8.08096 10.9076C8.0421 9.19744 9.28583 7.91484 11.1903 7.91484C13.0948 7.91484 14.2996 9.19744 14.3385 10.9076C14.3385 12.54 13.0948 13.8614 11.1514 13.8614C9.28583 13.8614 8.0421 12.54 8.08096 10.9076ZM24.0324 35.1992H18.1247V22.2566C18.1247 19.8858 18.0469 17.8647 17.9692 16.1934H23.0996L23.3717 18.7975H23.4883C24.2656 17.5926 26.2089 15.7659 29.3571 15.7659C33.2438 15.7659 36.1588 18.3311 36.1588 23.9279V35.1992H30.2511V24.6664C30.2511 22.2178 29.396 20.5465 27.2583 20.5465C25.6259 20.5465 24.6543 21.6736 24.2656 22.7619C24.1101 23.1117 24.0324 23.6947 24.0324 24.2388V35.1992Z" fill="#38C1F9"/>
</svg>
