<svg width="30" height="30" viewBox="0 0 30 30" fill="none" xmlns="http://www.w3.org/2000/svg">
<path fill-rule="evenodd" clip-rule="evenodd" d="M15 30C23.2843 30 30 23.2843 30 15C30 6.71573 23.2843 0 15 0C6.71573 0 0 6.71573 0 15C0 23.2843 6.71573 30 15 30ZM9.64437 11.041V23.9995H5.61637V11.041H9.64437ZM5.51037 7.43699C5.48387 6.27098 6.33187 5.39648 7.63037 5.39648C8.92887 5.39648 9.75037 6.27098 9.77687 7.43699C9.77687 8.54998 8.92887 9.45098 7.60387 9.45098C6.33187 9.45098 5.48387 8.54998 5.51037 7.43699ZM16.3863 23.9995H12.3583V15.175C12.3583 13.5585 12.3053 12.1805 12.2523 11.041H15.7503L15.9358 12.8165H16.0153C16.5453 11.995 17.8703 10.7495 20.0168 10.7495C22.6668 10.7495 24.6543 12.4985 24.6543 16.3145V23.9995H20.6263V16.818C20.6263 15.1485 20.0433 14.009 18.5858 14.009C17.4728 14.009 16.8103 14.7775 16.5453 15.5195C16.4393 15.758 16.3863 16.1555 16.3863 16.5265V23.9995Z" fill="#38C1F9"/>
</svg>
