<svg width="240" height="94" viewBox="0 0 240 94" fill="none" xmlns="http://www.w3.org/2000/svg">
<path d="M41.5867 8.50527L58.5957 8.50527L67.1002 23.2355L58.5957 37.9657L41.5867 37.9657L33.0822 23.2355L41.5867 8.50527Z" fill="#023246"/>
<path d="M14.7302 55.056L31.7392 55.056L40.2437 69.7863L31.7392 84.5165L14.7302 84.5165L6.22572 69.7863L14.7302 55.056Z" fill="#023246"/>
<path d="M41.5867 39.39L58.5957 39.39L67.1002 54.1203L58.5957 68.8505L41.5867 68.8505L33.0822 54.1203L41.5867 39.39Z" fill="#023246"/>
<path d="M68.4431 55.056L85.4521 55.056L93.9566 69.7863L85.4521 84.5165L68.4431 84.5165L59.9386 69.7863L68.4431 55.056Z" fill="#023246"/>
<path d="M92.436 28.938V49H90.056V34.258C90.056 34.062 90.0607 33.852 90.07 33.628C90.0887 33.404 90.1073 33.1753 90.126 32.942L83.238 45.486C83.0233 45.906 82.6967 46.116 82.258 46.116H81.866C81.4273 46.116 81.1007 45.906 80.886 45.486L73.858 32.886C73.914 33.3807 73.942 33.838 73.942 34.258V49H71.562V28.938H73.564C73.8067 28.938 73.9933 28.9613 74.124 29.008C74.2547 29.0547 74.3807 29.1853 74.502 29.4L81.432 41.748C81.544 41.972 81.6513 42.2053 81.754 42.448C81.866 42.6907 81.9687 42.938 82.062 43.19C82.1553 42.938 82.2533 42.6907 82.356 42.448C82.4587 42.196 82.5707 41.958 82.692 41.734L89.496 29.4C89.608 29.1853 89.7293 29.0547 89.86 29.008C90 28.9613 90.1913 28.938 90.434 28.938H92.436ZM100.282 49H97.5659V28.938H100.282V49ZM121.71 39.354V47.054C120.702 47.782 119.624 48.328 118.476 48.692C117.337 49.0467 116.086 49.224 114.724 49.224C113.109 49.224 111.653 48.9767 110.356 48.482C109.058 47.978 107.948 47.278 107.024 46.382C106.109 45.4767 105.404 44.394 104.91 43.134C104.415 41.874 104.168 40.488 104.168 38.976C104.168 37.4453 104.406 36.05 104.882 34.79C105.367 33.53 106.053 32.452 106.94 31.556C107.826 30.6507 108.904 29.9507 110.174 29.456C111.443 28.9613 112.862 28.714 114.43 28.714C115.223 28.714 115.96 28.7747 116.642 28.896C117.323 29.008 117.953 29.176 118.532 29.4C119.11 29.6147 119.647 29.8807 120.142 30.198C120.636 30.506 121.098 30.856 121.528 31.248L120.758 32.48C120.636 32.6667 120.478 32.788 120.282 32.844C120.095 32.8907 119.885 32.844 119.652 32.704C119.428 32.5733 119.171 32.4147 118.882 32.228C118.592 32.0413 118.238 31.864 117.818 31.696C117.407 31.5187 116.917 31.3693 116.348 31.248C115.788 31.1267 115.12 31.066 114.346 31.066C113.216 31.066 112.194 31.2527 111.28 31.626C110.365 31.99 109.586 32.5173 108.942 33.208C108.298 33.8893 107.803 34.72 107.458 35.7C107.112 36.6707 106.94 37.7627 106.94 38.976C106.94 40.236 107.117 41.3653 107.472 42.364C107.836 43.3533 108.349 44.198 109.012 44.898C109.684 45.5887 110.496 46.116 111.448 46.48C112.4 46.844 113.468 47.026 114.654 47.026C115.587 47.026 116.413 46.9233 117.132 46.718C117.86 46.5033 118.569 46.2093 119.26 45.836V41.426H116.138C115.96 41.426 115.816 41.3747 115.704 41.272C115.601 41.1693 115.55 41.0433 115.55 40.894V39.354H121.71ZM133.609 46.844C134.439 46.844 135.181 46.704 135.835 46.424C136.488 46.144 137.039 45.752 137.487 45.248C137.944 44.744 138.289 44.142 138.523 43.442C138.765 42.742 138.887 41.972 138.887 41.132V28.938H141.589V41.132C141.589 42.2893 141.402 43.3627 141.029 44.352C140.665 45.3413 140.137 46.2 139.447 46.928C138.765 47.6467 137.93 48.2113 136.941 48.622C135.951 49.0327 134.841 49.238 133.609 49.238C132.377 49.238 131.266 49.0327 130.277 48.622C129.287 48.2113 128.447 47.6467 127.757 46.928C127.066 46.2 126.534 45.3413 126.161 44.352C125.797 43.3627 125.615 42.2893 125.615 41.132V28.938H128.317V41.118C128.317 41.958 128.433 42.728 128.667 43.428C128.909 44.128 129.255 44.73 129.703 45.234C130.16 45.738 130.715 46.1347 131.369 46.424C132.031 46.704 132.778 46.844 133.609 46.844ZM158.833 46.788L158.819 49H146.457V28.938H158.819V31.15H149.173V37.814H156.985V39.942H149.173V46.788H158.833ZM173.999 46.718V49H162.617V28.938H165.319V46.718H173.999Z" fill="#023246"/>
<path d="M107.12 70.654C107.904 70.654 108.595 70.5607 109.192 70.374C109.799 70.178 110.303 69.9073 110.704 69.562C111.115 69.2073 111.423 68.7873 111.628 68.302C111.833 67.8167 111.936 67.28 111.936 66.692C111.936 65.4973 111.544 64.5967 110.76 63.99C109.976 63.3833 108.8 63.08 107.232 63.08H104.264V70.654H107.12ZM116.388 81H113.98C113.485 81 113.121 80.8087 112.888 80.426L107.68 73.258C107.521 73.034 107.349 72.8753 107.162 72.782C106.985 72.6793 106.705 72.628 106.322 72.628H104.264V81H101.562V60.938H107.232C108.501 60.938 109.598 61.0687 110.522 61.33C111.446 61.582 112.207 61.9507 112.804 62.436C113.411 62.9213 113.859 63.5093 114.148 64.2C114.437 64.8813 114.582 65.6467 114.582 66.496C114.582 67.2053 114.47 67.868 114.246 68.484C114.022 69.1 113.695 69.6553 113.266 70.15C112.846 70.6353 112.328 71.0507 111.712 71.396C111.105 71.7413 110.415 72.0027 109.64 72.18C109.985 72.376 110.284 72.6607 110.536 73.034L116.388 81ZM126.749 78.844C127.58 78.844 128.322 78.704 128.975 78.424C129.629 78.144 130.179 77.752 130.627 77.248C131.085 76.744 131.43 76.142 131.663 75.442C131.906 74.742 132.027 73.972 132.027 73.132V60.938H134.729V73.132C134.729 74.2893 134.543 75.3627 134.169 76.352C133.805 77.3413 133.278 78.2 132.587 78.928C131.906 79.6467 131.071 80.2113 130.081 80.622C129.092 81.0327 127.981 81.238 126.749 81.238C125.517 81.238 124.407 81.0327 123.417 80.622C122.428 80.2113 121.588 79.6467 120.897 78.928C120.207 78.2 119.675 77.3413 119.301 76.352C118.937 75.3627 118.755 74.2893 118.755 73.132V60.938H121.457V73.118C121.457 73.958 121.574 74.728 121.807 75.428C122.05 76.128 122.395 76.73 122.843 77.234C123.301 77.738 123.856 78.1347 124.509 78.424C125.172 78.704 125.919 78.844 126.749 78.844ZM156.985 70.976C156.985 72.4787 156.747 73.846 156.271 75.078C155.795 76.31 155.123 77.3647 154.255 78.242C153.387 79.1193 152.342 79.8007 151.119 80.286C149.906 80.762 148.562 81 147.087 81H139.597V60.938H147.087C148.562 60.938 149.906 61.1807 151.119 61.666C152.342 62.142 153.387 62.8233 154.255 63.71C155.123 64.5873 155.795 65.642 156.271 66.874C156.747 68.106 156.985 69.4733 156.985 70.976ZM154.199 70.976C154.199 69.744 154.031 68.6427 153.695 67.672C153.359 66.7013 152.883 65.88 152.267 65.208C151.651 64.536 150.904 64.0227 150.027 63.668C149.15 63.3133 148.17 63.136 147.087 63.136H142.313V78.802H147.087C148.17 78.802 149.15 78.6247 150.027 78.27C150.904 77.9153 151.651 77.4067 152.267 76.744C152.883 76.072 153.359 75.2507 153.695 74.28C154.031 73.3093 154.199 72.208 154.199 70.976ZM178.286 70.976C178.286 72.4787 178.048 73.846 177.572 75.078C177.096 76.31 176.424 77.3647 175.556 78.242C174.688 79.1193 173.643 79.8007 172.42 80.286C171.207 80.762 169.863 81 168.388 81H160.898V60.938H168.388C169.863 60.938 171.207 61.1807 172.42 61.666C173.643 62.142 174.688 62.8233 175.556 63.71C176.424 64.5873 177.096 65.642 177.572 66.874C178.048 68.106 178.286 69.4733 178.286 70.976ZM175.5 70.976C175.5 69.744 175.332 68.6427 174.996 67.672C174.66 66.7013 174.184 65.88 173.568 65.208C172.952 64.536 172.205 64.0227 171.328 63.668C170.451 63.3133 169.471 63.136 168.388 63.136H163.614V78.802H168.388C169.471 78.802 170.451 78.6247 171.328 78.27C172.205 77.9153 172.952 77.4067 173.568 76.744C174.184 76.072 174.66 75.2507 174.996 74.28C175.332 73.3093 175.5 72.208 175.5 70.976ZM200.735 70.976C200.735 72.4787 200.497 73.86 200.021 75.12C199.545 76.3707 198.873 77.4487 198.005 78.354C197.137 79.2593 196.091 79.964 194.869 80.468C193.655 80.9627 192.311 81.21 190.837 81.21C189.362 81.21 188.018 80.9627 186.805 80.468C185.591 79.964 184.551 79.2593 183.683 78.354C182.815 77.4487 182.143 76.3707 181.667 75.12C181.191 73.86 180.953 72.4787 180.953 70.976C180.953 69.4733 181.191 68.0967 181.667 66.846C182.143 65.586 182.815 64.5033 183.683 63.598C184.551 62.6833 185.591 61.974 186.805 61.47C188.018 60.966 189.362 60.714 190.837 60.714C192.311 60.714 193.655 60.966 194.869 61.47C196.091 61.974 197.137 62.6833 198.005 63.598C198.873 64.5033 199.545 65.586 200.021 66.846C200.497 68.0967 200.735 69.4733 200.735 70.976ZM197.949 70.976C197.949 69.744 197.781 68.638 197.445 67.658C197.109 66.678 196.633 65.852 196.017 65.18C195.401 64.4987 194.654 63.976 193.777 63.612C192.899 63.248 191.919 63.066 190.837 63.066C189.763 63.066 188.788 63.248 187.911 63.612C187.033 63.976 186.282 64.4987 185.657 65.18C185.041 65.852 184.565 66.678 184.229 67.658C183.893 68.638 183.725 69.744 183.725 70.976C183.725 72.208 183.893 73.314 184.229 74.294C184.565 75.2647 185.041 76.0907 185.657 76.772C186.282 77.444 187.033 77.962 187.911 78.326C188.788 78.6807 189.763 78.858 190.837 78.858C191.919 78.858 192.899 78.6807 193.777 78.326C194.654 77.962 195.401 77.444 196.017 76.772C196.633 76.0907 197.109 75.2647 197.445 74.294C197.781 73.314 197.949 72.208 197.949 70.976ZM218.705 76.856C218.854 76.856 218.985 76.9167 219.097 77.038L220.175 78.2C219.353 79.152 218.355 79.894 217.179 80.426C216.012 80.958 214.598 81.224 212.937 81.224C211.499 81.224 210.193 80.9767 209.017 80.482C207.841 79.978 206.837 79.278 206.007 78.382C205.176 77.4767 204.532 76.394 204.075 75.134C203.617 73.874 203.389 72.488 203.389 70.976C203.389 69.464 203.627 68.078 204.103 66.818C204.579 65.558 205.246 64.4753 206.105 63.57C206.973 62.6647 208.009 61.9647 209.213 61.47C210.417 60.966 211.747 60.714 213.203 60.714C214.631 60.714 215.891 60.9427 216.983 61.4C218.075 61.8573 219.036 62.478 219.867 63.262L218.971 64.508C218.915 64.6013 218.84 64.6807 218.747 64.746C218.663 64.802 218.546 64.83 218.397 64.83C218.229 64.83 218.023 64.7413 217.781 64.564C217.538 64.3773 217.221 64.172 216.829 63.948C216.437 63.724 215.947 63.5233 215.359 63.346C214.771 63.1593 214.047 63.066 213.189 63.066C212.153 63.066 211.205 63.248 210.347 63.612C209.488 63.9667 208.746 64.4847 208.121 65.166C207.505 65.8473 207.024 66.678 206.679 67.658C206.333 68.638 206.161 69.744 206.161 70.976C206.161 72.2267 206.338 73.342 206.693 74.322C207.057 75.302 207.547 76.1327 208.163 76.814C208.788 77.486 209.521 77.9993 210.361 78.354C211.21 78.7087 212.125 78.886 213.105 78.886C213.702 78.886 214.239 78.8533 214.715 78.788C215.2 78.7133 215.643 78.6013 216.045 78.452C216.455 78.3027 216.833 78.116 217.179 77.892C217.533 77.6587 217.883 77.3833 218.229 77.066C218.387 76.926 218.546 76.856 218.705 76.856ZM226.026 69.73H227.048C227.402 69.73 227.687 69.688 227.902 69.604C228.116 69.5107 228.312 69.3567 228.49 69.142L235.168 61.582C235.354 61.3393 235.55 61.1713 235.756 61.078C235.961 60.9847 236.213 60.938 236.512 60.938H238.808L231.164 69.576C230.977 69.8 230.795 69.9867 230.618 70.136C230.45 70.276 230.268 70.3927 230.072 70.486C230.324 70.57 230.552 70.696 230.758 70.864C230.963 71.0227 231.164 71.2327 231.36 71.494L239.34 81H236.988C236.81 81 236.656 80.9907 236.526 80.972C236.404 80.944 236.297 80.9067 236.204 80.86C236.11 80.804 236.026 80.7433 235.952 80.678C235.886 80.6033 235.821 80.5193 235.756 80.426L228.84 72.46C228.653 72.2267 228.452 72.0633 228.238 71.97C228.023 71.8673 227.696 71.816 227.258 71.816H226.026V81H223.324V60.938H226.026V69.73Z" fill="#023246"/>
</svg>
