<svg width="44" height="44" viewBox="0 0 44 44" fill="none" xmlns="http://www.w3.org/2000/svg">
<path d="M21.968 0C9.83831 0 0 9.84907 0 22.008C0 31.023 5.41588 38.7547 13.1551 42.1713C13.091 40.6314 13.1391 38.7867 13.5397 37.1185C13.9563 35.338 16.3758 25.1199 16.3758 25.1199C16.3758 25.1199 15.6708 23.7083 15.6708 21.6391C15.6708 18.3828 17.5615 15.9446 19.917 15.9446C21.9199 15.9446 22.8813 17.4524 22.8813 19.249C22.8813 21.2541 21.5994 24.2698 20.9425 27.0609C20.3977 29.4028 22.1122 31.2957 24.4195 31.2957C28.5856 31.2957 31.3897 25.938 31.3897 19.6019C31.3897 14.7736 28.1369 11.1644 22.2403 11.1644C15.5747 11.1644 11.4246 16.1371 11.4246 21.7032C11.4246 23.6281 11.9854 24.9756 12.8667 26.0182C13.2673 26.4995 13.3314 26.6919 13.1872 27.2373C13.075 27.6384 12.8347 28.6168 12.7385 29.0018C12.5943 29.5633 12.1457 29.7557 11.6329 29.5472C8.55644 28.296 7.13037 24.9275 7.13037 21.1418C7.13037 14.8859 12.402 7.39482 22.8492 7.39482C31.2454 7.39482 36.7735 13.4743 36.7735 20.0029C36.7735 28.6329 31.9825 35.0813 24.9162 35.0813C22.5448 35.0813 20.3176 33.798 19.5484 32.3383C19.5484 32.3383 18.2666 37.4072 17.9942 38.3857C17.5295 40.086 16.6162 41.7703 15.783 43.1017C17.7538 43.6792 19.8529 44 22.016 44C34.1617 44 44 34.1509 44 21.992C43.9519 9.84907 34.1136 0 21.968 0Z" fill="#38C1F9"/>
</svg>
