<svg width="434" height="176" viewBox="0 0 434 176" fill="none" xmlns="http://www.w3.org/2000/svg">
<path opacity="0.1" d="M379.806 171.936V167.636C381.95 167.636 384.021 166.913 386.021 165.468C388.044 164.022 389.056 162.264 389.056 160.192C389.056 159.012 388.574 158.422 387.61 158.422C387.394 158.422 386.96 158.494 386.31 158.639C385.635 158.783 385.105 158.855 384.72 158.855C383.371 158.855 382.106 158.326 380.926 157.266C379.77 156.182 379.191 154.7 379.191 152.821C379.191 150.942 379.794 149.365 380.998 148.088C382.227 146.787 383.889 146.137 385.984 146.137C388.465 146.137 390.477 147.088 392.019 148.991C393.584 150.87 394.367 153.496 394.367 156.868C394.367 161.517 392.946 165.167 390.104 167.816C387.261 170.442 383.828 171.815 379.806 171.936ZM399.823 171.936V167.636C402.088 167.636 404.195 166.901 406.146 165.432C408.098 163.962 409.073 162.216 409.073 160.192C409.073 159.012 408.591 158.422 407.628 158.422C407.411 158.422 406.978 158.494 406.327 158.639C405.653 158.783 405.123 158.855 404.737 158.855C403.388 158.855 402.124 158.326 400.943 157.266C399.787 156.182 399.209 154.7 399.209 152.821C399.209 150.991 399.811 149.425 401.016 148.124C402.22 146.799 403.882 146.137 406.002 146.137C408.579 146.137 410.615 147.1 412.108 149.027C413.626 150.93 414.385 153.544 414.385 156.868C414.385 161.493 412.976 165.131 410.157 167.78C407.339 170.43 403.894 171.815 399.823 171.936Z" fill="#333333"/>
<path opacity="0.1" d="M19.0781 16.1367V20.4727C16.8138 20.4727 14.7061 21.2074 12.7549 22.6768C10.8037 24.1221 9.82812 25.8564 9.82812 27.8799C9.82812 29.0843 10.3099 29.6865 11.2734 29.6865C11.4902 29.6865 11.9238 29.6022 12.5742 29.4336C13.2487 29.2891 13.7907 29.2168 14.2002 29.2168C15.5251 29.2168 16.7656 29.7588 17.9219 30.8428C19.1022 31.9027 19.6924 33.3721 19.6924 35.251C19.6924 37.0817 19.0902 38.6595 17.8857 39.9844C16.6813 41.2852 15.0312 41.9355 12.9355 41.9355C10.4303 41.9355 8.4069 40.9961 6.86523 39.1172C5.32357 37.2142 4.55273 34.5765 4.55273 31.2041C4.55273 26.555 5.96191 22.9176 8.78027 20.292C11.6227 17.6423 15.0553 16.2572 19.0781 16.1367ZM38.915 16.1367V20.4727C36.7712 20.4727 34.6875 21.1953 32.6641 22.6406C30.6647 24.0618 29.665 25.8083 29.665 27.8799C29.665 29.0843 30.1468 29.6865 31.1104 29.6865C31.3271 29.6865 31.7607 29.6022 32.4111 29.4336C33.0856 29.2891 33.6276 29.2168 34.0371 29.2168C35.4342 29.2168 36.6989 29.7708 37.8311 30.8789C38.9632 31.987 39.5293 33.4443 39.5293 35.251C39.5293 37.0817 38.9271 38.6595 37.7227 39.9844C36.5182 41.2852 34.8682 41.9355 32.7725 41.9355C30.2673 41.9355 28.2438 40.9961 26.7021 39.1172C25.1605 37.2142 24.3896 34.5765 24.3896 31.2041C24.3896 26.555 25.7988 22.9176 28.6172 20.292C31.4596 17.6423 34.8923 16.2572 38.915 16.1367Z" fill="#333333"/>
<path d="M5.68 66C5.58 66 5.49 65.97 5.41 65.91C5.35 65.83 5.32 65.74 5.32 65.64V45.36C5.32 45.26 5.35 45.18 5.41 45.12C5.49 45.04 5.58 45 5.68 45H9.19C9.29 45 9.37 45.04 9.43 45.12C9.51 45.18 9.55 45.26 9.55 45.36V52.92C9.55 53 9.57 53.05 9.61 53.07C9.67 53.07 9.71 53.03 9.73 52.95L13.6 45.27C13.7 45.09 13.84 45 14.02 45H17.74C17.88 45 17.97 45.04 18.01 45.12C18.07 45.18 18.07 45.28 18.01 45.42L13.57 54.06C13.55 54.14 13.54 54.2 13.54 54.24L18.25 65.58C18.27 65.62 18.28 65.68 18.28 65.76C18.28 65.92 18.18 66 17.98 66H14.23C14.01 66 13.87 65.91 13.81 65.73L10.69 57.87C10.67 57.81 10.64 57.79 10.6 57.81C10.56 57.81 10.52 57.83 10.48 57.87L9.61 59.43C9.57 59.51 9.55 59.57 9.55 59.61V65.64C9.55 65.74 9.51 65.83 9.43 65.91C9.37 65.97 9.29 66 9.19 66H5.68ZM27.0463 50.34C28.4063 50.34 29.4263 50.79 30.1063 51.69C30.7863 52.59 31.1263 53.85 31.1263 55.47V65.64C31.1263 65.74 31.0863 65.83 31.0063 65.91C30.9463 65.97 30.8663 66 30.7663 66H27.2563C27.1563 66 27.0663 65.97 26.9863 65.91C26.9263 65.83 26.8963 65.74 26.8963 65.64V55.8C26.8963 55.22 26.7763 54.77 26.5363 54.45C26.3163 54.13 25.9863 53.97 25.5463 53.97C25.0863 53.97 24.7263 54.14 24.4663 54.48C24.2263 54.8 24.1063 55.26 24.1063 55.86V65.64C24.1063 65.74 24.0663 65.83 23.9863 65.91C23.9263 65.97 23.8463 66 23.7463 66H20.2363C20.1363 66 20.0463 65.97 19.9663 65.91C19.9063 65.83 19.8763 65.74 19.8763 65.64V50.94C19.8763 50.84 19.9063 50.76 19.9663 50.7C20.0463 50.62 20.1363 50.58 20.2363 50.58H23.7463C23.8463 50.58 23.9263 50.62 23.9863 50.7C24.0663 50.76 24.1063 50.84 24.1063 50.94V51.51C24.1063 51.57 24.1263 51.6 24.1663 51.6C24.2263 51.6 24.2963 51.56 24.3763 51.48C25.0163 50.72 25.9063 50.34 27.0463 50.34ZM38.7843 66.24C37.0043 66.24 35.6043 65.79 34.5843 64.89C33.5843 63.99 33.0843 62.76 33.0843 61.2V55.38C33.0843 53.86 33.5943 52.64 34.6143 51.72C35.6343 50.8 37.0243 50.34 38.7843 50.34C40.5643 50.34 41.9643 50.8 42.9843 51.72C44.0043 52.64 44.5143 53.86 44.5143 55.38V61.2C44.5143 62.76 44.0043 63.99 42.9843 64.89C41.9843 65.79 40.5843 66.24 38.7843 66.24ZM38.7843 62.58C39.2243 62.58 39.5843 62.42 39.8643 62.1C40.1443 61.78 40.2843 61.37 40.2843 60.87V55.68C40.2843 55.18 40.1443 54.77 39.8643 54.45C39.5843 54.13 39.2243 53.97 38.7843 53.97C38.3443 53.97 37.9843 54.13 37.7043 54.45C37.4443 54.77 37.3143 55.18 37.3143 55.68V60.87C37.3143 61.37 37.4443 61.78 37.7043 62.1C37.9843 62.42 38.3443 62.58 38.7843 62.58ZM49.067 66C48.847 66 48.717 65.89 48.677 65.67L45.437 50.94V50.82C45.437 50.64 45.547 50.55 45.767 50.55H49.097C49.337 50.55 49.467 50.66 49.487 50.88L50.777 59.1C50.797 59.16 50.827 59.19 50.867 59.19C50.907 59.19 50.937 59.16 50.957 59.1L52.277 50.88C52.297 50.66 52.427 50.55 52.667 50.55H55.637C55.877 50.55 56.007 50.66 56.027 50.88L57.437 59.13C57.457 59.19 57.487 59.22 57.527 59.22C57.567 59.2 57.597 59.16 57.617 59.1L58.877 50.88C58.897 50.66 59.027 50.55 59.267 50.55L62.567 50.61C62.827 50.61 62.927 50.74 62.867 51L59.657 65.67C59.617 65.89 59.487 66 59.267 66H55.847C55.607 66 55.477 65.89 55.457 65.67L54.167 58.05C54.147 57.99 54.117 57.96 54.077 57.96C54.037 57.96 54.007 57.99 53.987 58.05L52.757 65.67C52.737 65.89 52.607 66 52.367 66H49.067ZM64.7355 66C64.6355 66 64.5455 65.97 64.4655 65.91C64.4055 65.83 64.3755 65.74 64.3755 65.64V45.36C64.3755 45.26 64.4055 45.18 64.4655 45.12C64.5455 45.04 64.6355 45 64.7355 45H68.2455C68.3455 45 68.4255 45.04 68.4855 45.12C68.5655 45.18 68.6055 45.26 68.6055 45.36V65.64C68.6055 65.74 68.5655 65.83 68.4855 65.91C68.4255 65.97 68.3455 66 68.2455 66H64.7355ZM81.895 59.25C81.895 59.35 81.855 59.44 81.775 59.52C81.715 59.58 81.635 59.61 81.535 59.61H74.935C74.835 59.61 74.785 59.66 74.785 59.76V60.87C74.785 61.37 74.915 61.79 75.175 62.13C75.455 62.45 75.805 62.61 76.225 62.61C76.605 62.61 76.915 62.49 77.155 62.25C77.395 61.99 77.555 61.67 77.635 61.29C77.695 61.09 77.825 60.99 78.025 60.99L81.475 61.17C81.575 61.17 81.655 61.21 81.715 61.29C81.795 61.35 81.825 61.44 81.805 61.56C81.665 63.1 81.125 64.27 80.185 65.07C79.265 65.85 77.945 66.24 76.225 66.24C74.445 66.24 73.055 65.8 72.055 64.92C71.055 64.02 70.555 62.78 70.555 61.2V55.38C70.555 53.86 71.055 52.64 72.055 51.72C73.075 50.8 74.465 50.34 76.225 50.34C77.985 50.34 79.365 50.8 80.365 51.72C81.385 52.64 81.895 53.86 81.895 55.38V59.25ZM76.225 53.97C75.805 53.97 75.455 54.13 75.175 54.45C74.915 54.77 74.785 55.18 74.785 55.68V56.85C74.785 56.95 74.835 57 74.935 57H77.515C77.615 57 77.665 56.95 77.665 56.85V55.68C77.665 55.18 77.525 54.77 77.245 54.45C76.985 54.13 76.645 53.97 76.225 53.97ZM90.6714 45.36C90.6714 45.26 90.7014 45.18 90.7614 45.12C90.8414 45.04 90.9314 45 91.0314 45H94.5414C94.6414 45 94.7214 45.04 94.7814 45.12C94.8614 45.18 94.9014 45.26 94.9014 45.36V65.64C94.9014 65.74 94.8614 65.83 94.7814 65.91C94.7214 65.97 94.6414 66 94.5414 66H91.0314C90.9314 66 90.8414 65.97 90.7614 65.91C90.7014 65.83 90.6714 65.74 90.6714 65.64V65.16C90.6714 65.1 90.6514 65.07 90.6114 65.07C90.5714 65.05 90.5314 65.06 90.4914 65.1C89.8114 65.86 88.9114 66.24 87.7914 66.24C86.4114 66.24 85.3714 65.8 84.6714 64.92C83.9714 64.02 83.6214 62.78 83.6214 61.2V55.38C83.6214 53.76 83.9714 52.52 84.6714 51.66C85.3914 50.78 86.4314 50.34 87.7914 50.34C88.2314 50.34 88.6914 50.43 89.1714 50.61C89.6514 50.77 90.0914 51.07 90.4914 51.51C90.5314 51.55 90.5714 51.57 90.6114 51.57C90.6514 51.55 90.6714 51.51 90.6714 51.45V45.36ZM89.2614 62.61C89.6214 62.61 89.9314 62.49 90.1914 62.25C90.4514 62.01 90.6114 61.69 90.6714 61.29V55.29C90.6114 54.89 90.4514 54.57 90.1914 54.33C89.9314 54.09 89.6214 53.97 89.2614 53.97C88.8414 53.97 88.5014 54.13 88.2414 54.45C87.9814 54.77 87.8514 55.18 87.8514 55.68V60.9C87.8514 61.4 87.9814 61.81 88.2414 62.13C88.5014 62.45 88.8414 62.61 89.2614 62.61ZM104.061 50.94C104.061 50.84 104.091 50.76 104.151 50.7C104.231 50.62 104.321 50.58 104.421 50.58H107.931C108.031 50.58 108.111 50.62 108.171 50.7C108.251 50.76 108.291 50.84 108.291 50.94V65.28C108.291 67.5 107.761 69.21 106.701 70.41C105.661 71.61 103.781 72.21 101.061 72.21C100.521 72.21 100.101 72.2 99.8008 72.18C99.5608 72.16 99.4408 72.03 99.4408 71.79V68.85C99.4408 68.59 99.5708 68.48 99.8308 68.52C101.011 68.56 101.901 68.44 102.501 68.16C103.121 67.9 103.531 67.5 103.731 66.96C103.951 66.42 104.061 65.71 104.061 64.83C104.061 64.77 104.041 64.74 104.001 64.74C103.961 64.74 103.921 64.77 103.881 64.83C103.521 65.31 103.081 65.65 102.561 65.85C102.061 66.03 101.571 66.12 101.091 66.12C99.7108 66.12 98.6808 65.68 98.0008 64.8C97.3208 63.9 96.9808 62.66 96.9808 61.08V55.38C96.9808 53.76 97.3208 52.52 98.0008 51.66C98.7008 50.78 99.7308 50.34 101.091 50.34C102.311 50.34 103.241 50.79 103.881 51.69C103.921 51.75 103.961 51.77 104.001 51.75C104.041 51.73 104.061 51.69 104.061 51.63V50.94ZM102.621 62.46C103.041 62.46 103.381 62.3 103.641 61.98C103.921 61.66 104.061 61.25 104.061 60.75V55.68C104.061 55.18 103.921 54.77 103.641 54.45C103.381 54.13 103.041 53.97 102.621 53.97C102.201 53.97 101.861 54.13 101.601 54.45C101.341 54.77 101.211 55.18 101.211 55.68V60.75C101.211 61.25 101.341 61.66 101.601 61.98C101.861 62.3 102.201 62.46 102.621 62.46ZM121.563 59.25C121.563 59.35 121.523 59.44 121.443 59.52C121.383 59.58 121.303 59.61 121.203 59.61H114.603C114.503 59.61 114.453 59.66 114.453 59.76V60.87C114.453 61.37 114.583 61.79 114.843 62.13C115.123 62.45 115.473 62.61 115.893 62.61C116.273 62.61 116.583 62.49 116.823 62.25C117.063 61.99 117.223 61.67 117.303 61.29C117.363 61.09 117.493 60.99 117.693 60.99L121.143 61.17C121.243 61.17 121.323 61.21 121.383 61.29C121.463 61.35 121.493 61.44 121.473 61.56C121.333 63.1 120.793 64.27 119.853 65.07C118.933 65.85 117.613 66.24 115.893 66.24C114.113 66.24 112.723 65.8 111.723 64.92C110.723 64.02 110.223 62.78 110.223 61.2V55.38C110.223 53.86 110.723 52.64 111.723 51.72C112.743 50.8 114.133 50.34 115.893 50.34C117.653 50.34 119.033 50.8 120.033 51.72C121.053 52.64 121.563 53.86 121.563 55.38V59.25ZM115.893 53.97C115.473 53.97 115.123 54.13 114.843 54.45C114.583 54.77 114.453 55.18 114.453 55.68V56.85C114.453 56.95 114.503 57 114.603 57H117.183C117.283 57 117.333 56.95 117.333 56.85V55.68C117.333 55.18 117.193 54.77 116.913 54.45C116.653 54.13 116.313 53.97 115.893 53.97ZM134.965 66.24C133.205 66.24 131.815 65.79 130.795 64.89C129.795 63.99 129.295 62.76 129.295 61.2V55.38C129.295 53.86 129.795 52.64 130.795 51.72C131.815 50.8 133.205 50.34 134.965 50.34C136.725 50.34 138.105 50.79 139.105 51.69C140.125 52.59 140.635 53.76 140.635 55.2V55.74C140.635 55.84 140.595 55.93 140.515 56.01C140.455 56.07 140.375 56.1 140.275 56.1L136.765 56.25C136.525 56.25 136.405 56.13 136.405 55.89V55.53C136.405 55.09 136.265 54.72 135.985 54.42C135.725 54.12 135.385 53.97 134.965 53.97C134.525 53.97 134.175 54.13 133.915 54.45C133.655 54.77 133.525 55.19 133.525 55.71V60.87C133.525 61.39 133.655 61.81 133.915 62.13C134.175 62.45 134.525 62.61 134.965 62.61C135.385 62.61 135.725 62.46 135.985 62.16C136.265 61.84 136.405 61.47 136.405 61.05V60.66C136.405 60.56 136.435 60.48 136.495 60.42C136.575 60.34 136.665 60.3 136.765 60.3L140.275 60.33C140.375 60.33 140.455 60.37 140.515 60.45C140.595 60.51 140.635 60.59 140.635 60.69V61.38C140.635 62.86 140.125 64.04 139.105 64.92C138.105 65.8 136.725 66.24 134.965 66.24ZM148.003 66.24C146.223 66.24 144.823 65.79 143.803 64.89C142.803 63.99 142.303 62.76 142.303 61.2V55.38C142.303 53.86 142.813 52.64 143.833 51.72C144.853 50.8 146.243 50.34 148.003 50.34C149.783 50.34 151.183 50.8 152.203 51.72C153.223 52.64 153.733 53.86 153.733 55.38V61.2C153.733 62.76 153.223 63.99 152.203 64.89C151.203 65.79 149.803 66.24 148.003 66.24ZM148.003 62.58C148.443 62.58 148.803 62.42 149.083 62.1C149.363 61.78 149.503 61.37 149.503 60.87V55.68C149.503 55.18 149.363 54.77 149.083 54.45C148.803 54.13 148.443 53.97 148.003 53.97C147.563 53.97 147.203 54.13 146.923 54.45C146.663 54.77 146.533 55.18 146.533 55.68V60.87C146.533 61.37 146.663 61.78 146.923 62.1C147.203 62.42 147.563 62.58 148.003 62.58ZM169.795 50.34C171.155 50.34 172.175 50.8 172.855 51.72C173.535 52.64 173.875 53.93 173.875 55.59V65.64C173.875 65.74 173.835 65.83 173.755 65.91C173.695 65.97 173.615 66 173.515 66H170.005C169.905 66 169.815 65.97 169.735 65.91C169.675 65.83 169.645 65.74 169.645 65.64V55.86C169.645 55.26 169.525 54.8 169.285 54.48C169.045 54.14 168.725 53.97 168.325 53.97C167.885 53.97 167.535 54.14 167.275 54.48C167.035 54.8 166.915 55.26 166.915 55.86V65.64C166.915 65.74 166.875 65.83 166.795 65.91C166.735 65.97 166.655 66 166.555 66H163.075C162.975 66 162.885 65.97 162.805 65.91C162.745 65.83 162.715 65.74 162.715 65.64V55.86C162.715 55.26 162.595 54.8 162.355 54.48C162.115 54.14 161.795 53.97 161.395 53.97C160.955 53.97 160.605 54.14 160.345 54.48C160.105 54.8 159.985 55.26 159.985 55.86V65.64C159.985 65.74 159.945 65.83 159.865 65.91C159.805 65.97 159.725 66 159.625 66H156.115C156.015 66 155.925 65.97 155.845 65.91C155.785 65.83 155.755 65.74 155.755 65.64V50.94C155.755 50.84 155.785 50.76 155.845 50.7C155.925 50.62 156.015 50.58 156.115 50.58H159.625C159.725 50.58 159.805 50.62 159.865 50.7C159.945 50.76 159.985 50.84 159.985 50.94V51.33C159.985 51.39 160.005 51.43 160.045 51.45C160.085 51.47 160.125 51.46 160.165 51.42C160.565 51.02 161.005 50.74 161.485 50.58C161.965 50.42 162.425 50.34 162.865 50.34C164.425 50.34 165.545 50.96 166.225 52.2L166.285 52.23C166.345 52.23 166.415 52.17 166.495 52.05C166.915 51.41 167.415 50.97 167.995 50.73C168.595 50.47 169.195 50.34 169.795 50.34ZM187.159 59.25C187.159 59.35 187.119 59.44 187.039 59.52C186.979 59.58 186.899 59.61 186.799 59.61H180.199C180.099 59.61 180.049 59.66 180.049 59.76V60.87C180.049 61.37 180.179 61.79 180.439 62.13C180.719 62.45 181.069 62.61 181.489 62.61C181.869 62.61 182.179 62.49 182.419 62.25C182.659 61.99 182.819 61.67 182.899 61.29C182.959 61.09 183.089 60.99 183.289 60.99L186.739 61.17C186.839 61.17 186.919 61.21 186.979 61.29C187.059 61.35 187.089 61.44 187.069 61.56C186.929 63.1 186.389 64.27 185.449 65.07C184.529 65.85 183.209 66.24 181.489 66.24C179.709 66.24 178.319 65.8 177.319 64.92C176.319 64.02 175.819 62.78 175.819 61.2V55.38C175.819 53.86 176.319 52.64 177.319 51.72C178.339 50.8 179.729 50.34 181.489 50.34C183.249 50.34 184.629 50.8 185.629 51.72C186.649 52.64 187.159 53.86 187.159 55.38V59.25ZM181.489 53.97C181.069 53.97 180.719 54.13 180.439 54.45C180.179 54.77 180.049 55.18 180.049 55.68V56.85C180.049 56.95 180.099 57 180.199 57H182.779C182.879 57 182.929 56.95 182.929 56.85V55.68C182.929 55.18 182.789 54.77 182.509 54.45C182.249 54.13 181.909 53.97 181.489 53.97ZM194.226 66.21C192.526 66.21 191.166 65.81 190.146 65.01C189.146 64.19 188.646 63.1 188.646 61.74V61.53C188.646 61.43 188.676 61.35 188.736 61.29C188.816 61.21 188.906 61.17 189.006 61.17H192.306C192.406 61.17 192.486 61.21 192.546 61.29C192.626 61.35 192.666 61.43 192.666 61.53V61.62C192.666 62.04 192.816 62.39 193.116 62.67C193.416 62.93 193.786 63.06 194.226 63.06C194.626 63.06 194.936 62.95 195.156 62.73C195.396 62.49 195.516 62.19 195.516 61.83C195.516 61.39 195.326 61.05 194.946 60.81C194.566 60.55 194.136 60.34 193.656 60.18C193.196 60 192.876 59.88 192.696 59.82C191.596 59.42 190.666 58.87 189.906 58.17C189.166 57.45 188.796 56.42 188.796 55.08C188.796 53.62 189.276 52.47 190.236 51.63C191.196 50.79 192.476 50.37 194.076 50.37C195.736 50.37 197.046 50.81 198.006 51.69C198.986 52.57 199.476 53.76 199.476 55.26C199.476 55.36 199.436 55.45 199.356 55.53C199.296 55.59 199.216 55.62 199.116 55.62H195.906C195.806 55.62 195.716 55.59 195.636 55.53C195.576 55.45 195.546 55.36 195.546 55.26V55.02C195.546 54.62 195.416 54.3 195.156 54.06C194.916 53.8 194.596 53.67 194.196 53.67C193.776 53.67 193.446 53.81 193.206 54.09C192.966 54.35 192.846 54.66 192.846 55.02C192.846 55.5 193.046 55.88 193.446 56.16C193.866 56.42 194.496 56.71 195.336 57.03C196.196 57.35 196.926 57.68 197.526 58.02C198.146 58.34 198.676 58.81 199.116 59.43C199.556 60.03 199.776 60.79 199.776 61.71C199.776 63.09 199.266 64.19 198.246 65.01C197.246 65.81 195.906 66.21 194.226 66.21ZM214.545 50.34C215.905 50.34 216.935 50.78 217.635 51.66C218.355 52.52 218.715 53.76 218.715 55.38V61.2C218.715 62.78 218.365 64.02 217.665 64.92C216.965 65.8 215.925 66.24 214.545 66.24C213.425 66.24 212.525 65.86 211.845 65.1C211.805 65.06 211.765 65.05 211.725 65.07C211.685 65.07 211.665 65.1 211.665 65.16V65.64C211.665 65.74 211.625 65.83 211.545 65.91C211.485 65.97 211.405 66 211.305 66H207.795C207.695 66 207.605 65.97 207.525 65.91C207.465 65.83 207.435 65.74 207.435 65.64V45.36C207.435 45.26 207.465 45.18 207.525 45.12C207.605 45.04 207.695 45 207.795 45H211.305C211.405 45 211.485 45.04 211.545 45.12C211.625 45.18 211.665 45.26 211.665 45.36V51.45C211.665 51.49 211.685 51.51 211.725 51.51C211.805 51.51 211.885 51.46 211.965 51.36C212.645 50.68 213.505 50.34 214.545 50.34ZM214.485 55.68C214.485 55.18 214.355 54.77 214.095 54.45C213.835 54.13 213.495 53.97 213.075 53.97C212.715 53.97 212.405 54.09 212.145 54.33C211.885 54.57 211.725 54.89 211.665 55.29V61.29C211.725 61.69 211.885 62.01 212.145 62.25C212.405 62.49 212.715 62.61 213.075 62.61C213.495 62.61 213.835 62.45 214.095 62.13C214.355 61.81 214.485 61.4 214.485 60.9V55.68ZM220.589 71.97C220.549 71.97 220.509 71.93 220.469 71.85C220.429 71.79 220.409 71.71 220.409 71.61V68.85C220.409 68.61 220.499 68.49 220.679 68.49C221.719 68.47 222.459 68.3 222.899 67.98C223.339 67.68 223.589 67.05 223.649 66.09L223.619 65.91L219.839 50.94V50.82C219.839 50.64 219.949 50.55 220.169 50.55H223.949C224.189 50.55 224.319 50.66 224.339 50.88L225.719 59.79C225.739 59.87 225.769 59.91 225.809 59.91C225.849 59.91 225.879 59.87 225.899 59.79L227.219 50.88C227.239 50.66 227.369 50.55 227.609 50.55L231.389 50.61C231.669 50.61 231.779 50.74 231.719 51L227.759 66.57C227.359 68.03 226.929 69.12 226.469 69.84C226.029 70.58 225.369 71.12 224.489 71.46C223.629 71.8 222.379 71.97 220.739 71.97H220.589ZM246.301 53.19C246.301 53.29 246.261 53.38 246.181 53.46C246.121 53.52 246.041 53.55 245.941 53.55H244.261C244.161 53.55 244.111 53.6 244.111 53.7V60.84C244.111 61.42 244.221 61.82 244.441 62.04C244.661 62.26 244.991 62.36 245.431 62.34H245.641C245.741 62.34 245.821 62.38 245.881 62.46C245.961 62.52 246.001 62.6 246.001 62.7V65.64C246.001 65.74 245.961 65.83 245.881 65.91C245.821 65.97 245.741 66 245.641 66H244.441C242.981 66 241.881 65.76 241.141 65.28C240.401 64.78 240.031 63.84 240.031 62.46V53.7C240.031 53.6 239.981 53.55 239.881 53.55H238.891C238.791 53.55 238.701 53.52 238.621 53.46C238.561 53.38 238.531 53.29 238.531 53.19V50.94C238.531 50.84 238.561 50.76 238.621 50.7C238.701 50.62 238.791 50.58 238.891 50.58H239.881C239.981 50.58 240.031 50.53 240.031 50.43V47.1C240.031 47 240.061 46.92 240.121 46.86C240.201 46.78 240.291 46.74 240.391 46.74H243.751C243.851 46.74 243.931 46.78 243.991 46.86C244.071 46.92 244.111 47 244.111 47.1V50.43C244.111 50.53 244.161 50.58 244.261 50.58H245.941C246.041 50.58 246.121 50.62 246.181 50.7C246.261 50.76 246.301 50.84 246.301 50.94V53.19ZM253.591 50.34C255.291 50.34 256.671 50.8 257.731 51.72C258.791 52.64 259.321 53.85 259.321 55.35V65.64C259.321 65.74 259.281 65.83 259.201 65.91C259.141 65.97 259.061 66 258.961 66H255.451C255.351 66 255.261 65.97 255.181 65.91C255.121 65.83 255.091 65.74 255.091 65.64V64.98C255.091 64.92 255.071 64.88 255.031 64.86C254.991 64.84 254.951 64.86 254.911 64.92C254.251 65.76 253.231 66.2 251.851 66.24C250.691 66.24 249.681 65.92 248.821 65.28C247.981 64.64 247.561 63.42 247.561 61.62C247.561 59.76 248.071 58.48 249.091 57.78C250.131 57.08 251.621 56.73 253.561 56.73H254.941C255.041 56.73 255.091 56.68 255.091 56.58V55.83C255.091 55.29 254.941 54.85 254.641 54.51C254.361 54.15 254.001 53.97 253.561 53.97C253.221 53.97 252.931 54.08 252.691 54.3C252.471 54.5 252.331 54.79 252.271 55.17C252.251 55.41 252.121 55.53 251.881 55.53L248.281 55.5C248.041 55.5 247.921 55.38 247.921 55.14C248.021 53.68 248.591 52.52 249.631 51.66C250.671 50.78 251.991 50.34 253.591 50.34ZM253.291 62.97C253.751 62.97 254.161 62.82 254.521 62.52C254.901 62.2 255.091 61.78 255.091 61.26V59.85C255.091 59.75 255.041 59.7 254.941 59.7H253.711C253.171 59.7 252.731 59.86 252.391 60.18C252.071 60.48 251.911 60.9 251.911 61.44C251.911 61.94 252.031 62.32 252.271 62.58C252.531 62.84 252.871 62.97 253.291 62.97ZM261.76 66C261.66 66 261.57 65.97 261.49 65.91C261.43 65.83 261.4 65.74 261.4 65.64V45.36C261.4 45.26 261.43 45.18 261.49 45.12C261.57 45.04 261.66 45 261.76 45H265.27C265.37 45 265.45 45.04 265.51 45.12C265.59 45.18 265.63 45.26 265.63 45.36V55.29C265.63 55.37 265.65 55.42 265.69 55.44C265.73 55.44 265.77 55.41 265.81 55.35L268.42 50.82C268.5 50.66 268.65 50.58 268.87 50.58H272.47C272.61 50.58 272.7 50.62 272.74 50.7C272.8 50.78 272.79 50.88 272.71 51L269.47 56.04C269.43 56.12 269.42 56.19 269.44 56.25L273.1 65.58C273.12 65.62 273.13 65.67 273.13 65.73C273.13 65.91 273.02 66 272.8 66H269.17C268.97 66 268.84 65.9 268.78 65.7L266.86 59.76C266.84 59.7 266.81 59.67 266.77 59.67C266.73 59.65 266.7 59.67 266.68 59.73L265.69 61.29C265.65 61.37 265.63 61.43 265.63 61.47V65.64C265.63 65.74 265.59 65.83 265.51 65.91C265.45 65.97 265.37 66 265.27 66H261.76ZM277.006 48.84C276.326 48.84 275.756 48.62 275.296 48.18C274.856 47.72 274.636 47.15 274.636 46.47C274.636 45.77 274.856 45.2 275.296 44.76C275.736 44.32 276.306 44.1 277.006 44.1C277.706 44.1 278.266 44.32 278.686 44.76C279.126 45.2 279.346 45.77 279.346 46.47C279.346 47.15 279.126 47.72 278.686 48.18C278.246 48.62 277.686 48.84 277.006 48.84ZM275.296 66C275.196 66 275.106 65.97 275.026 65.91C274.966 65.83 274.936 65.74 274.936 65.64V50.94C274.936 50.84 274.966 50.76 275.026 50.7C275.106 50.62 275.196 50.58 275.296 50.58H278.806C278.906 50.58 278.986 50.62 279.046 50.7C279.126 50.76 279.166 50.84 279.166 50.94V65.64C279.166 65.74 279.126 65.83 279.046 65.91C278.986 65.97 278.906 66 278.806 66H275.296ZM288.609 50.34C289.969 50.34 290.989 50.79 291.669 51.69C292.349 52.59 292.689 53.85 292.689 55.47V65.64C292.689 65.74 292.649 65.83 292.569 65.91C292.509 65.97 292.429 66 292.329 66H288.819C288.719 66 288.629 65.97 288.549 65.91C288.489 65.83 288.459 65.74 288.459 65.64V55.8C288.459 55.22 288.339 54.77 288.099 54.45C287.879 54.13 287.549 53.97 287.109 53.97C286.649 53.97 286.289 54.14 286.029 54.48C285.789 54.8 285.669 55.26 285.669 55.86V65.64C285.669 65.74 285.629 65.83 285.549 65.91C285.489 65.97 285.409 66 285.309 66H281.799C281.699 66 281.609 65.97 281.529 65.91C281.469 65.83 281.439 65.74 281.439 65.64V50.94C281.439 50.84 281.469 50.76 281.529 50.7C281.609 50.62 281.699 50.58 281.799 50.58H285.309C285.409 50.58 285.489 50.62 285.549 50.7C285.629 50.76 285.669 50.84 285.669 50.94V51.51C285.669 51.57 285.689 51.6 285.729 51.6C285.789 51.6 285.859 51.56 285.939 51.48C286.579 50.72 287.469 50.34 288.609 50.34ZM301.727 50.94C301.727 50.84 301.757 50.76 301.817 50.7C301.897 50.62 301.987 50.58 302.087 50.58H305.597C305.697 50.58 305.777 50.62 305.837 50.7C305.917 50.76 305.957 50.84 305.957 50.94V65.28C305.957 67.5 305.427 69.21 304.367 70.41C303.327 71.61 301.447 72.21 298.727 72.21C298.187 72.21 297.767 72.2 297.467 72.18C297.227 72.16 297.107 72.03 297.107 71.79V68.85C297.107 68.59 297.237 68.48 297.497 68.52C298.677 68.56 299.567 68.44 300.167 68.16C300.787 67.9 301.197 67.5 301.397 66.96C301.617 66.42 301.727 65.71 301.727 64.83C301.727 64.77 301.707 64.74 301.667 64.74C301.627 64.74 301.587 64.77 301.547 64.83C301.187 65.31 300.747 65.65 300.227 65.85C299.727 66.03 299.237 66.12 298.757 66.12C297.377 66.12 296.347 65.68 295.667 64.8C294.987 63.9 294.647 62.66 294.647 61.08V55.38C294.647 53.76 294.987 52.52 295.667 51.66C296.367 50.78 297.397 50.34 298.757 50.34C299.977 50.34 300.907 50.79 301.547 51.69C301.587 51.75 301.627 51.77 301.667 51.75C301.707 51.73 301.727 51.69 301.727 51.63V50.94ZM300.287 62.46C300.707 62.46 301.047 62.3 301.307 61.98C301.587 61.66 301.727 61.25 301.727 60.75V55.68C301.727 55.18 301.587 54.77 301.307 54.45C301.047 54.13 300.707 53.97 300.287 53.97C299.867 53.97 299.527 54.13 299.267 54.45C299.007 54.77 298.877 55.18 298.877 55.68V60.75C298.877 61.25 299.007 61.66 299.267 61.98C299.527 62.3 299.867 62.46 300.287 62.46ZM321.125 53.19C321.125 53.29 321.085 53.38 321.005 53.46C320.945 53.52 320.865 53.55 320.765 53.55H319.085C318.985 53.55 318.935 53.6 318.935 53.7V60.84C318.935 61.42 319.045 61.82 319.265 62.04C319.485 62.26 319.815 62.36 320.255 62.34H320.465C320.565 62.34 320.645 62.38 320.705 62.46C320.785 62.52 320.825 62.6 320.825 62.7V65.64C320.825 65.74 320.785 65.83 320.705 65.91C320.645 65.97 320.565 66 320.465 66H319.265C317.805 66 316.705 65.76 315.965 65.28C315.225 64.78 314.855 63.84 314.855 62.46V53.7C314.855 53.6 314.805 53.55 314.705 53.55H313.715C313.615 53.55 313.525 53.52 313.445 53.46C313.385 53.38 313.355 53.29 313.355 53.19V50.94C313.355 50.84 313.385 50.76 313.445 50.7C313.525 50.62 313.615 50.58 313.715 50.58H314.705C314.805 50.58 314.855 50.53 314.855 50.43V47.1C314.855 47 314.885 46.92 314.945 46.86C315.025 46.78 315.115 46.74 315.215 46.74H318.575C318.675 46.74 318.755 46.78 318.815 46.86C318.895 46.92 318.935 47 318.935 47.1V50.43C318.935 50.53 318.985 50.58 319.085 50.58H320.765C320.865 50.58 320.945 50.62 321.005 50.7C321.085 50.76 321.125 50.84 321.125 50.94V53.19ZM330.005 50.34C331.365 50.34 332.385 50.79 333.065 51.69C333.745 52.59 334.085 53.85 334.085 55.47V65.64C334.085 65.74 334.045 65.83 333.965 65.91C333.905 65.97 333.825 66 333.725 66H330.215C330.115 66 330.025 65.97 329.945 65.91C329.885 65.83 329.855 65.74 329.855 65.64V55.8C329.855 55.22 329.735 54.77 329.495 54.45C329.275 54.13 328.945 53.97 328.505 53.97C328.045 53.97 327.685 54.14 327.425 54.48C327.185 54.8 327.065 55.26 327.065 55.86V65.64C327.065 65.74 327.025 65.83 326.945 65.91C326.885 65.97 326.805 66 326.705 66H323.195C323.095 66 323.005 65.97 322.925 65.91C322.865 65.83 322.835 65.74 322.835 65.64V45.36C322.835 45.26 322.865 45.18 322.925 45.12C323.005 45.04 323.095 45 323.195 45H326.705C326.805 45 326.885 45.04 326.945 45.12C327.025 45.18 327.065 45.26 327.065 45.36V51.51C327.065 51.57 327.085 51.6 327.125 51.6C327.185 51.6 327.255 51.56 327.335 51.48C327.975 50.72 328.865 50.34 330.005 50.34ZM338.383 48.84C337.703 48.84 337.133 48.62 336.673 48.18C336.233 47.72 336.013 47.15 336.013 46.47C336.013 45.77 336.233 45.2 336.673 44.76C337.113 44.32 337.683 44.1 338.383 44.1C339.083 44.1 339.643 44.32 340.063 44.76C340.503 45.2 340.723 45.77 340.723 46.47C340.723 47.15 340.503 47.72 340.063 48.18C339.623 48.62 339.063 48.84 338.383 48.84ZM336.673 66C336.573 66 336.483 65.97 336.403 65.91C336.343 65.83 336.313 65.74 336.313 65.64V50.94C336.313 50.84 336.343 50.76 336.403 50.7C336.483 50.62 336.573 50.58 336.673 50.58H340.183C340.283 50.58 340.363 50.62 340.423 50.7C340.503 50.76 340.543 50.84 340.543 50.94V65.64C340.543 65.74 340.503 65.83 340.423 65.91C340.363 65.97 340.283 66 340.183 66H336.673ZM349.986 50.34C351.346 50.34 352.366 50.79 353.046 51.69C353.726 52.59 354.066 53.85 354.066 55.47V65.64C354.066 65.74 354.026 65.83 353.946 65.91C353.886 65.97 353.806 66 353.706 66H350.196C350.096 66 350.006 65.97 349.926 65.91C349.866 65.83 349.836 65.74 349.836 65.64V55.8C349.836 55.22 349.716 54.77 349.476 54.45C349.256 54.13 348.926 53.97 348.486 53.97C348.026 53.97 347.666 54.14 347.406 54.48C347.166 54.8 347.046 55.26 347.046 55.86V65.64C347.046 65.74 347.006 65.83 346.926 65.91C346.866 65.97 346.786 66 346.686 66H343.176C343.076 66 342.986 65.97 342.906 65.91C342.846 65.83 342.816 65.74 342.816 65.64V50.94C342.816 50.84 342.846 50.76 342.906 50.7C342.986 50.62 343.076 50.58 343.176 50.58H346.686C346.786 50.58 346.866 50.62 346.926 50.7C347.006 50.76 347.046 50.84 347.046 50.94V51.51C347.046 51.57 347.066 51.6 347.106 51.6C347.166 51.6 347.236 51.56 347.316 51.48C347.956 50.72 348.846 50.34 349.986 50.34ZM363.104 50.94C363.104 50.84 363.134 50.76 363.194 50.7C363.274 50.62 363.364 50.58 363.464 50.58H366.974C367.074 50.58 367.154 50.62 367.214 50.7C367.294 50.76 367.334 50.84 367.334 50.94V65.28C367.334 67.5 366.804 69.21 365.744 70.41C364.704 71.61 362.824 72.21 360.104 72.21C359.564 72.21 359.144 72.2 358.844 72.18C358.604 72.16 358.484 72.03 358.484 71.79V68.85C358.484 68.59 358.614 68.48 358.874 68.52C360.054 68.56 360.944 68.44 361.544 68.16C362.164 67.9 362.574 67.5 362.774 66.96C362.994 66.42 363.104 65.71 363.104 64.83C363.104 64.77 363.084 64.74 363.044 64.74C363.004 64.74 362.964 64.77 362.924 64.83C362.564 65.31 362.124 65.65 361.604 65.85C361.104 66.03 360.614 66.12 360.134 66.12C358.754 66.12 357.724 65.68 357.044 64.8C356.364 63.9 356.024 62.66 356.024 61.08V55.38C356.024 53.76 356.364 52.52 357.044 51.66C357.744 50.78 358.774 50.34 360.134 50.34C361.354 50.34 362.284 50.79 362.924 51.69C362.964 51.75 363.004 51.77 363.044 51.75C363.084 51.73 363.104 51.69 363.104 51.63V50.94ZM361.664 62.46C362.084 62.46 362.424 62.3 362.684 61.98C362.964 61.66 363.104 61.25 363.104 60.75V55.68C363.104 55.18 362.964 54.77 362.684 54.45C362.424 54.13 362.084 53.97 361.664 53.97C361.244 53.97 360.904 54.13 360.644 54.45C360.384 54.77 360.254 55.18 360.254 55.68V60.75C360.254 61.25 360.384 61.66 360.644 61.98C360.904 62.3 361.244 62.46 361.664 62.46ZM374.636 66.21C372.936 66.21 371.576 65.81 370.556 65.01C369.556 64.19 369.056 63.1 369.056 61.74V61.53C369.056 61.43 369.086 61.35 369.146 61.29C369.226 61.21 369.316 61.17 369.416 61.17H372.716C372.816 61.17 372.896 61.21 372.956 61.29C373.036 61.35 373.076 61.43 373.076 61.53V61.62C373.076 62.04 373.226 62.39 373.526 62.67C373.826 62.93 374.196 63.06 374.636 63.06C375.036 63.06 375.346 62.95 375.566 62.73C375.806 62.49 375.926 62.19 375.926 61.83C375.926 61.39 375.736 61.05 375.356 60.81C374.976 60.55 374.546 60.34 374.066 60.18C373.606 60 373.286 59.88 373.106 59.82C372.006 59.42 371.076 58.87 370.316 58.17C369.576 57.45 369.206 56.42 369.206 55.08C369.206 53.62 369.686 52.47 370.646 51.63C371.606 50.79 372.886 50.37 374.486 50.37C376.146 50.37 377.456 50.81 378.416 51.69C379.396 52.57 379.886 53.76 379.886 55.26C379.886 55.36 379.846 55.45 379.766 55.53C379.706 55.59 379.626 55.62 379.526 55.62H376.316C376.216 55.62 376.126 55.59 376.046 55.53C375.986 55.45 375.956 55.36 375.956 55.26V55.02C375.956 54.62 375.826 54.3 375.566 54.06C375.326 53.8 375.006 53.67 374.606 53.67C374.186 53.67 373.856 53.81 373.616 54.09C373.376 54.35 373.256 54.66 373.256 55.02C373.256 55.5 373.456 55.88 373.856 56.16C374.276 56.42 374.906 56.71 375.746 57.03C376.606 57.35 377.336 57.68 377.936 58.02C378.556 58.34 379.086 58.81 379.526 59.43C379.966 60.03 380.186 60.79 380.186 61.71C380.186 63.09 379.676 64.19 378.656 65.01C377.656 65.81 376.316 66.21 374.636 66.21ZM10.72 86.34C12.42 86.34 13.8 86.8 14.86 87.72C15.92 88.64 16.45 89.85 16.45 91.35V101.64C16.45 101.74 16.41 101.83 16.33 101.91C16.27 101.97 16.19 102 16.09 102H12.58C12.48 102 12.39 101.97 12.31 101.91C12.25 101.83 12.22 101.74 12.22 101.64V100.98C12.22 100.92 12.2 100.88 12.16 100.86C12.12 100.84 12.08 100.86 12.04 100.92C11.38 101.76 10.36 102.2 8.98 102.24C7.82 102.24 6.81 101.92 5.95 101.28C5.11 100.64 4.69 99.42 4.69 97.62C4.69 95.76 5.2 94.48 6.22 93.78C7.26 93.08 8.75 92.73 10.69 92.73H12.07C12.17 92.73 12.22 92.68 12.22 92.58V91.83C12.22 91.29 12.07 90.85 11.77 90.51C11.49 90.15 11.13 89.97 10.69 89.97C10.35 89.97 10.06 90.08 9.82 90.3C9.6 90.5 9.46 90.79 9.4 91.17C9.38 91.41 9.25 91.53 9.01 91.53L5.41 91.5C5.17 91.5 5.05 91.38 5.05 91.14C5.15 89.68 5.72 88.52 6.76 87.66C7.8 86.78 9.12 86.34 10.72 86.34ZM10.42 98.97C10.88 98.97 11.29 98.82 11.65 98.52C12.03 98.2 12.22 97.78 12.22 97.26V95.85C12.22 95.75 12.17 95.7 12.07 95.7H10.84C10.3 95.7 9.86 95.86 9.52 96.18C9.2 96.48 9.04 96.9 9.04 97.44C9.04 97.94 9.16 98.32 9.4 98.58C9.66 98.84 10 98.97 10.42 98.97ZM25.7287 86.34C27.1087 86.34 28.1487 86.79 28.8487 87.69C29.5687 88.57 29.9287 89.79 29.9287 91.35V97.2C29.9287 98.82 29.5687 100.07 28.8487 100.95C28.1287 101.81 27.0887 102.24 25.7287 102.24C25.2887 102.24 24.8287 102.16 24.3487 102C23.8687 101.82 23.4287 101.51 23.0287 101.07C22.9887 101.01 22.9487 100.99 22.9087 101.01C22.8687 101.03 22.8487 101.07 22.8487 101.13V107.22C22.8487 107.32 22.8087 107.4 22.7287 107.46C22.6687 107.54 22.5887 107.58 22.4887 107.58H18.9787C18.8787 107.58 18.7887 107.54 18.7087 107.46C18.6487 107.4 18.6187 107.32 18.6187 107.22V86.94C18.6187 86.84 18.6487 86.76 18.7087 86.7C18.7887 86.62 18.8787 86.58 18.9787 86.58H22.4887C22.5887 86.58 22.6687 86.62 22.7287 86.7C22.8087 86.76 22.8487 86.84 22.8487 86.94V87.42C22.8487 87.46 22.8687 87.48 22.9087 87.48C22.9887 87.48 23.0687 87.43 23.1487 87.33C23.8287 86.67 24.6887 86.34 25.7287 86.34ZM25.6987 91.68C25.6987 91.16 25.5687 90.74 25.3087 90.42C25.0487 90.1 24.6987 89.94 24.2587 89.94C23.8387 89.94 23.4987 90.1 23.2387 90.42C22.9787 90.74 22.8487 91.16 22.8487 91.68V96.87C22.8487 97.39 22.9787 97.81 23.2387 98.13C23.4987 98.45 23.8387 98.61 24.2587 98.61C24.6987 98.61 25.0487 98.45 25.3087 98.13C25.5687 97.81 25.6987 97.39 25.6987 96.87V91.68ZM37.5559 86.34C39.2559 86.34 40.6359 86.8 41.6959 87.72C42.7559 88.64 43.2859 89.85 43.2859 91.35V101.64C43.2859 101.74 43.2459 101.83 43.1659 101.91C43.1059 101.97 43.0259 102 42.9259 102H39.4159C39.3159 102 39.2259 101.97 39.1459 101.91C39.0859 101.83 39.0559 101.74 39.0559 101.64V100.98C39.0559 100.92 39.0359 100.88 38.9959 100.86C38.9559 100.84 38.9159 100.86 38.8759 100.92C38.2159 101.76 37.1959 102.2 35.8159 102.24C34.6559 102.24 33.6459 101.92 32.7859 101.28C31.9459 100.64 31.5259 99.42 31.5259 97.62C31.5259 95.76 32.0359 94.48 33.0559 93.78C34.0959 93.08 35.5859 92.73 37.5259 92.73H38.9059C39.0059 92.73 39.0559 92.68 39.0559 92.58V91.83C39.0559 91.29 38.9059 90.85 38.6059 90.51C38.3259 90.15 37.9659 89.97 37.5259 89.97C37.1859 89.97 36.8959 90.08 36.6559 90.3C36.4359 90.5 36.2959 90.79 36.2359 91.17C36.2159 91.41 36.0859 91.53 35.8459 91.53L32.2459 91.5C32.0059 91.5 31.8859 91.38 31.8859 91.14C31.9859 89.68 32.5559 88.52 33.5959 87.66C34.6359 86.78 35.9559 86.34 37.5559 86.34ZM37.2559 98.97C37.7159 98.97 38.1259 98.82 38.4859 98.52C38.8659 98.2 39.0559 97.78 39.0559 97.26V95.85C39.0559 95.75 39.0059 95.7 38.9059 95.7H37.6759C37.1359 95.7 36.6959 95.86 36.3559 96.18C36.0359 96.48 35.8759 96.9 35.8759 97.44C35.8759 97.94 35.9959 98.32 36.2359 98.58C36.4959 98.84 36.8359 98.97 37.2559 98.97ZM52.2646 86.4C52.8046 86.4 53.2246 86.5 53.5246 86.7C53.6846 86.8 53.7446 86.95 53.7046 87.15L53.1346 90.66C53.1146 90.88 52.9746 90.96 52.7146 90.9C52.4946 90.82 52.2246 90.78 51.9046 90.78C51.6046 90.78 51.3446 90.82 51.1246 90.9C50.6646 90.98 50.2946 91.26 50.0146 91.74C49.7346 92.2 49.5946 92.74 49.5946 93.36V101.61C49.5946 101.71 49.5546 101.8 49.4746 101.88C49.4146 101.94 49.3346 101.97 49.2346 101.97H45.7246C45.6246 101.97 45.5346 101.94 45.4546 101.88C45.3946 101.8 45.3646 101.71 45.3646 101.61V86.94C45.3646 86.84 45.3946 86.76 45.4546 86.7C45.5346 86.62 45.6246 86.58 45.7246 86.58H49.2346C49.3346 86.58 49.4146 86.62 49.4746 86.7C49.5546 86.76 49.5946 86.84 49.5946 86.94V88.11C49.5946 88.19 49.6046 88.24 49.6246 88.26C49.6646 88.26 49.7046 88.23 49.7446 88.17C50.2846 86.99 51.1246 86.4 52.2646 86.4ZM62.1112 89.19C62.1112 89.29 62.0712 89.38 61.9912 89.46C61.9312 89.52 61.8512 89.55 61.7512 89.55H60.0712C59.9712 89.55 59.9212 89.6 59.9212 89.7V96.84C59.9212 97.42 60.0312 97.82 60.2512 98.04C60.4712 98.26 60.8012 98.36 61.2412 98.34H61.4512C61.5512 98.34 61.6312 98.38 61.6912 98.46C61.7712 98.52 61.8112 98.6 61.8112 98.7V101.64C61.8112 101.74 61.7712 101.83 61.6912 101.91C61.6312 101.97 61.5512 102 61.4512 102H60.2512C58.7912 102 57.6912 101.76 56.9512 101.28C56.2112 100.78 55.8412 99.84 55.8412 98.46V89.7C55.8412 89.6 55.7912 89.55 55.6912 89.55H54.7012C54.6012 89.55 54.5112 89.52 54.4312 89.46C54.3712 89.38 54.3412 89.29 54.3412 89.19V86.94C54.3412 86.84 54.3712 86.76 54.4312 86.7C54.5112 86.62 54.6012 86.58 54.7012 86.58H55.6912C55.7912 86.58 55.8412 86.53 55.8412 86.43V83.1C55.8412 83 55.8712 82.92 55.9312 82.86C56.0112 82.78 56.1012 82.74 56.2012 82.74H59.5612C59.6612 82.74 59.7412 82.78 59.8012 82.86C59.8812 82.92 59.9212 83 59.9212 83.1V86.43C59.9212 86.53 59.9712 86.58 60.0712 86.58H61.7512C61.8512 86.58 61.9312 86.62 61.9912 86.7C62.0712 86.76 62.1112 86.84 62.1112 86.94V89.19ZM63.9416 104.94C63.8216 104.94 63.7216 104.9 63.6416 104.82C63.5816 104.76 63.5616 104.67 63.5816 104.55L64.2416 97.59C64.2816 97.37 64.4016 97.26 64.6016 97.26H67.6616C67.9416 97.26 68.0516 97.39 67.9916 97.65L66.4016 104.61C66.3416 104.83 66.2116 104.94 66.0116 104.94H63.9416ZM81.7356 86.34C83.4356 86.34 84.8156 86.8 85.8756 87.72C86.9356 88.64 87.4656 89.85 87.4656 91.35V101.64C87.4656 101.74 87.4256 101.83 87.3456 101.91C87.2856 101.97 87.2056 102 87.1056 102H83.5956C83.4956 102 83.4056 101.97 83.3256 101.91C83.2656 101.83 83.2356 101.74 83.2356 101.64V100.98C83.2356 100.92 83.2156 100.88 83.1756 100.86C83.1356 100.84 83.0956 100.86 83.0556 100.92C82.3956 101.76 81.3756 102.2 79.9956 102.24C78.8356 102.24 77.8256 101.92 76.9656 101.28C76.1256 100.64 75.7056 99.42 75.7056 97.62C75.7056 95.76 76.2156 94.48 77.2356 93.78C78.2756 93.08 79.7656 92.73 81.7056 92.73H83.0856C83.1856 92.73 83.2356 92.68 83.2356 92.58V91.83C83.2356 91.29 83.0856 90.85 82.7856 90.51C82.5056 90.15 82.1456 89.97 81.7056 89.97C81.3656 89.97 81.0756 90.08 80.8356 90.3C80.6156 90.5 80.4756 90.79 80.4156 91.17C80.3956 91.41 80.2656 91.53 80.0256 91.53L76.4256 91.5C76.1856 91.5 76.0656 91.38 76.0656 91.14C76.1656 89.68 76.7356 88.52 77.7756 87.66C78.8156 86.78 80.1356 86.34 81.7356 86.34ZM81.4356 98.97C81.8956 98.97 82.3056 98.82 82.6656 98.52C83.0456 98.2 83.2356 97.78 83.2356 97.26V95.85C83.2356 95.75 83.1856 95.7 83.0856 95.7H81.8556C81.3156 95.7 80.8756 95.86 80.5356 96.18C80.2156 96.48 80.0556 96.9 80.0556 97.44C80.0556 97.94 80.1756 98.32 80.4156 98.58C80.6756 98.84 81.0156 98.97 81.4356 98.97ZM96.7143 86.34C98.0743 86.34 99.0943 86.79 99.7743 87.69C100.454 88.59 100.794 89.85 100.794 91.47V101.64C100.794 101.74 100.754 101.83 100.674 101.91C100.614 101.97 100.534 102 100.434 102H96.9243C96.8243 102 96.7343 101.97 96.6543 101.91C96.5943 101.83 96.5643 101.74 96.5643 101.64V91.8C96.5643 91.22 96.4443 90.77 96.2043 90.45C95.9843 90.13 95.6543 89.97 95.2143 89.97C94.7543 89.97 94.3943 90.14 94.1343 90.48C93.8943 90.8 93.7743 91.26 93.7743 91.86V101.64C93.7743 101.74 93.7343 101.83 93.6543 101.91C93.5943 101.97 93.5143 102 93.4143 102H89.9043C89.8043 102 89.7143 101.97 89.6343 101.91C89.5743 101.83 89.5443 101.74 89.5443 101.64V86.94C89.5443 86.84 89.5743 86.76 89.6343 86.7C89.7143 86.62 89.8043 86.58 89.9043 86.58H93.4143C93.5143 86.58 93.5943 86.62 93.6543 86.7C93.7343 86.76 93.7743 86.84 93.7743 86.94V87.51C93.7743 87.57 93.7943 87.6 93.8343 87.6C93.8943 87.6 93.9643 87.56 94.0443 87.48C94.6843 86.72 95.5743 86.34 96.7143 86.34ZM108.542 86.34C110.242 86.34 111.622 86.8 112.682 87.72C113.742 88.64 114.272 89.85 114.272 91.35V101.64C114.272 101.74 114.232 101.83 114.152 101.91C114.092 101.97 114.012 102 113.912 102H110.402C110.302 102 110.212 101.97 110.132 101.91C110.072 101.83 110.042 101.74 110.042 101.64V100.98C110.042 100.92 110.022 100.88 109.982 100.86C109.942 100.84 109.902 100.86 109.862 100.92C109.202 101.76 108.182 102.2 106.802 102.24C105.642 102.24 104.632 101.92 103.772 101.28C102.932 100.64 102.512 99.42 102.512 97.62C102.512 95.76 103.022 94.48 104.042 93.78C105.082 93.08 106.572 92.73 108.512 92.73H109.892C109.992 92.73 110.042 92.68 110.042 92.58V91.83C110.042 91.29 109.892 90.85 109.592 90.51C109.312 90.15 108.952 89.97 108.512 89.97C108.172 89.97 107.882 90.08 107.642 90.3C107.422 90.5 107.282 90.79 107.222 91.17C107.202 91.41 107.072 91.53 106.832 91.53L103.232 91.5C102.992 91.5 102.872 91.38 102.872 91.14C102.972 89.68 103.542 88.52 104.582 87.66C105.622 86.78 106.942 86.34 108.542 86.34ZM108.242 98.97C108.702 98.97 109.112 98.82 109.472 98.52C109.852 98.2 110.042 97.78 110.042 97.26V95.85C110.042 95.75 109.992 95.7 109.892 95.7H108.662C108.122 95.7 107.682 95.86 107.342 96.18C107.022 96.48 106.862 96.9 106.862 97.44C106.862 97.94 106.982 98.32 107.222 98.58C107.482 98.84 107.822 98.97 108.242 98.97ZM116.591 102C116.491 102 116.401 101.97 116.321 101.91C116.261 101.83 116.231 101.74 116.231 101.64V81.36C116.231 81.26 116.261 81.18 116.321 81.12C116.401 81.04 116.491 81 116.591 81H120.101C120.201 81 120.281 81.04 120.341 81.12C120.421 81.18 120.461 81.26 120.461 81.36V101.64C120.461 101.74 120.421 101.83 120.341 101.91C120.281 101.97 120.201 102 120.101 102H116.591ZM122.62 107.97C122.58 107.97 122.54 107.93 122.5 107.85C122.46 107.79 122.44 107.71 122.44 107.61V104.85C122.44 104.61 122.53 104.49 122.71 104.49C123.75 104.47 124.49 104.3 124.93 103.98C125.37 103.68 125.62 103.05 125.68 102.09L125.65 101.91L121.87 86.94V86.82C121.87 86.64 121.98 86.55 122.2 86.55H125.98C126.22 86.55 126.35 86.66 126.37 86.88L127.75 95.79C127.77 95.87 127.8 95.91 127.84 95.91C127.88 95.91 127.91 95.87 127.93 95.79L129.25 86.88C129.27 86.66 129.4 86.55 129.64 86.55L133.42 86.61C133.7 86.61 133.81 86.74 133.75 87L129.79 102.57C129.39 104.03 128.96 105.12 128.5 105.84C128.06 106.58 127.4 107.12 126.52 107.46C125.66 107.8 124.41 107.97 122.77 107.97H122.62ZM139.997 102.21C138.297 102.21 136.937 101.81 135.917 101.01C134.917 100.19 134.417 99.1 134.417 97.74V97.53C134.417 97.43 134.447 97.35 134.507 97.29C134.587 97.21 134.677 97.17 134.777 97.17H138.077C138.177 97.17 138.257 97.21 138.317 97.29C138.397 97.35 138.437 97.43 138.437 97.53V97.62C138.437 98.04 138.587 98.39 138.887 98.67C139.187 98.93 139.557 99.06 139.997 99.06C140.397 99.06 140.707 98.95 140.927 98.73C141.167 98.49 141.287 98.19 141.287 97.83C141.287 97.39 141.097 97.05 140.717 96.81C140.337 96.55 139.907 96.34 139.427 96.18C138.967 96 138.647 95.88 138.467 95.82C137.367 95.42 136.437 94.87 135.677 94.17C134.937 93.45 134.567 92.42 134.567 91.08C134.567 89.62 135.047 88.47 136.007 87.63C136.967 86.79 138.247 86.37 139.847 86.37C141.507 86.37 142.817 86.81 143.777 87.69C144.757 88.57 145.247 89.76 145.247 91.26C145.247 91.36 145.207 91.45 145.127 91.53C145.067 91.59 144.987 91.62 144.887 91.62H141.677C141.577 91.62 141.487 91.59 141.407 91.53C141.347 91.45 141.317 91.36 141.317 91.26V91.02C141.317 90.62 141.187 90.3 140.927 90.06C140.687 89.8 140.367 89.67 139.967 89.67C139.547 89.67 139.217 89.81 138.977 90.09C138.737 90.35 138.617 90.66 138.617 91.02C138.617 91.5 138.817 91.88 139.217 92.16C139.637 92.42 140.267 92.71 141.107 93.03C141.967 93.35 142.697 93.68 143.297 94.02C143.917 94.34 144.447 94.81 144.887 95.43C145.327 96.03 145.547 96.79 145.547 97.71C145.547 99.09 145.037 100.19 144.017 101.01C143.017 101.81 141.677 102.21 139.997 102.21ZM149.331 84.84C148.651 84.84 148.081 84.62 147.621 84.18C147.181 83.72 146.961 83.15 146.961 82.47C146.961 81.77 147.181 81.2 147.621 80.76C148.061 80.32 148.631 80.1 149.331 80.1C150.031 80.1 150.591 80.32 151.011 80.76C151.451 81.2 151.671 81.77 151.671 82.47C151.671 83.15 151.451 83.72 151.011 84.18C150.571 84.62 150.011 84.84 149.331 84.84ZM147.621 102C147.521 102 147.431 101.97 147.351 101.91C147.291 101.83 147.261 101.74 147.261 101.64V86.94C147.261 86.84 147.291 86.76 147.351 86.7C147.431 86.62 147.521 86.58 147.621 86.58H151.131C151.231 86.58 151.311 86.62 151.371 86.7C151.451 86.76 151.491 86.84 151.491 86.94V101.64C151.491 101.74 151.451 101.83 151.371 101.91C151.311 101.97 151.231 102 151.131 102H147.621ZM158.923 102.21C157.223 102.21 155.863 101.81 154.843 101.01C153.843 100.19 153.343 99.1 153.343 97.74V97.53C153.343 97.43 153.373 97.35 153.433 97.29C153.513 97.21 153.603 97.17 153.703 97.17H157.003C157.103 97.17 157.183 97.21 157.243 97.29C157.323 97.35 157.363 97.43 157.363 97.53V97.62C157.363 98.04 157.513 98.39 157.813 98.67C158.113 98.93 158.483 99.06 158.923 99.06C159.323 99.06 159.633 98.95 159.853 98.73C160.093 98.49 160.213 98.19 160.213 97.83C160.213 97.39 160.023 97.05 159.643 96.81C159.263 96.55 158.833 96.34 158.353 96.18C157.893 96 157.573 95.88 157.393 95.82C156.293 95.42 155.363 94.87 154.603 94.17C153.863 93.45 153.493 92.42 153.493 91.08C153.493 89.62 153.973 88.47 154.933 87.63C155.893 86.79 157.173 86.37 158.773 86.37C160.433 86.37 161.743 86.81 162.703 87.69C163.683 88.57 164.173 89.76 164.173 91.26C164.173 91.36 164.133 91.45 164.053 91.53C163.993 91.59 163.913 91.62 163.813 91.62H160.603C160.503 91.62 160.413 91.59 160.333 91.53C160.273 91.45 160.243 91.36 160.243 91.26V91.02C160.243 90.62 160.113 90.3 159.853 90.06C159.613 89.8 159.293 89.67 158.893 89.67C158.473 89.67 158.143 89.81 157.903 90.09C157.663 90.35 157.543 90.66 157.543 91.02C157.543 91.5 157.743 91.88 158.143 92.16C158.563 92.42 159.193 92.71 160.033 93.03C160.893 93.35 161.623 93.68 162.223 94.02C162.843 94.34 163.373 94.81 163.813 95.43C164.253 96.03 164.473 96.79 164.473 97.71C164.473 99.09 163.963 100.19 162.943 101.01C161.943 101.81 160.603 102.21 158.923 102.21ZM168.346 102.12C167.666 102.12 167.096 101.9 166.636 101.46C166.196 101 165.976 100.43 165.976 99.75C165.976 99.05 166.196 98.48 166.636 98.04C167.076 97.6 167.646 97.38 168.346 97.38C169.046 97.38 169.616 97.6 170.056 98.04C170.496 98.48 170.716 99.05 170.716 99.75C170.716 100.43 170.486 101 170.026 101.46C169.586 101.9 169.026 102.12 168.346 102.12ZM191.052 96.21C191.052 98.07 190.492 99.5 189.372 100.5C188.252 101.5 186.802 102 185.022 102H179.352C179.252 102 179.162 101.97 179.082 101.91C179.022 101.83 178.992 101.74 178.992 101.64V81.36C178.992 81.26 179.022 81.18 179.082 81.12C179.162 81.04 179.252 81 179.352 81H184.362C186.362 81 187.922 81.48 189.042 82.44C190.182 83.4 190.752 84.83 190.752 86.73C190.752 88.71 190.072 90.15 188.712 91.05C188.632 91.11 188.622 91.17 188.682 91.23C190.262 92.35 191.052 94.01 191.052 96.21ZM183.372 84.63C183.272 84.63 183.222 84.68 183.222 84.78V89.49C183.222 89.59 183.272 89.64 183.372 89.64H184.452C185.132 89.64 185.662 89.43 186.042 89.01C186.422 88.57 186.612 87.96 186.612 87.18C186.612 86.36 186.422 85.73 186.042 85.29C185.682 84.85 185.152 84.63 184.452 84.63H183.372ZM184.692 98.34C185.352 98.34 185.872 98.1 186.252 97.62C186.632 97.14 186.822 96.46 186.822 95.58C186.822 94.7 186.632 94 186.252 93.48C185.872 92.96 185.362 92.7 184.722 92.7H183.372C183.272 92.7 183.222 92.75 183.222 92.85V98.19C183.222 98.29 183.272 98.34 183.372 98.34H184.692ZM199.804 86.94C199.804 86.84 199.834 86.76 199.894 86.7C199.974 86.62 200.064 86.58 200.164 86.58H203.674C203.774 86.58 203.854 86.62 203.914 86.7C203.994 86.76 204.034 86.84 204.034 86.94V101.64C204.034 101.74 203.994 101.83 203.914 101.91C203.854 101.97 203.774 102 203.674 102H200.164C200.064 102 199.974 101.97 199.894 101.91C199.834 101.83 199.804 101.74 199.804 101.64V101.13C199.804 101.07 199.784 101.03 199.744 101.01C199.704 100.99 199.664 101.01 199.624 101.07C199.324 101.49 198.944 101.79 198.484 101.97C198.044 102.13 197.524 102.21 196.924 102.21C195.724 102.21 194.734 101.85 193.954 101.13C193.174 100.39 192.784 99.26 192.784 97.74V86.94C192.784 86.84 192.814 86.76 192.874 86.7C192.954 86.62 193.044 86.58 193.144 86.58H196.654C196.754 86.58 196.834 86.62 196.894 86.7C196.974 86.76 197.014 86.84 197.014 86.94V96.81C197.014 97.39 197.124 97.84 197.344 98.16C197.584 98.46 197.924 98.61 198.364 98.61C198.804 98.61 199.154 98.44 199.414 98.1C199.674 97.76 199.804 97.3 199.804 96.72V86.94ZM213.342 89.19C213.342 89.29 213.302 89.38 213.222 89.46C213.162 89.52 213.082 89.55 212.982 89.55H211.302C211.202 89.55 211.152 89.6 211.152 89.7V96.84C211.152 97.42 211.262 97.82 211.482 98.04C211.702 98.26 212.032 98.36 212.472 98.34H212.682C212.782 98.34 212.862 98.38 212.922 98.46C213.002 98.52 213.042 98.6 213.042 98.7V101.64C213.042 101.74 213.002 101.83 212.922 101.91C212.862 101.97 212.782 102 212.682 102H211.482C210.022 102 208.922 101.76 208.182 101.28C207.442 100.78 207.072 99.84 207.072 98.46V89.7C207.072 89.6 207.022 89.55 206.922 89.55H205.932C205.832 89.55 205.742 89.52 205.662 89.46C205.602 89.38 205.572 89.29 205.572 89.19V86.94C205.572 86.84 205.602 86.76 205.662 86.7C205.742 86.62 205.832 86.58 205.932 86.58H206.922C207.022 86.58 207.072 86.53 207.072 86.43V83.1C207.072 83 207.102 82.92 207.162 82.86C207.242 82.78 207.332 82.74 207.432 82.74H210.792C210.892 82.74 210.972 82.78 211.032 82.86C211.112 82.92 211.152 83 211.152 83.1V86.43C211.152 86.53 211.202 86.58 211.302 86.58H212.982C213.082 86.58 213.162 86.62 213.222 86.7C213.302 86.76 213.342 86.84 213.342 86.94V89.19ZM224.028 102C223.808 102 223.678 101.89 223.638 101.67L220.398 86.94V86.82C220.398 86.64 220.508 86.55 220.728 86.55H224.058C224.298 86.55 224.428 86.66 224.448 86.88L225.738 95.1C225.758 95.16 225.788 95.19 225.828 95.19C225.868 95.19 225.898 95.16 225.918 95.1L227.238 86.88C227.258 86.66 227.388 86.55 227.628 86.55H230.598C230.838 86.55 230.968 86.66 230.988 86.88L232.398 95.13C232.418 95.19 232.448 95.22 232.488 95.22C232.528 95.2 232.558 95.16 232.578 95.1L233.838 86.88C233.858 86.66 233.988 86.55 234.228 86.55L237.528 86.61C237.788 86.61 237.888 86.74 237.828 87L234.618 101.67C234.578 101.89 234.448 102 234.228 102H230.808C230.568 102 230.438 101.89 230.418 101.67L229.128 94.05C229.108 93.99 229.078 93.96 229.038 93.96C228.998 93.96 228.968 93.99 228.948 94.05L227.718 101.67C227.698 101.89 227.568 102 227.328 102H224.028ZM241.586 84.84C240.906 84.84 240.336 84.62 239.876 84.18C239.436 83.72 239.216 83.15 239.216 82.47C239.216 81.77 239.436 81.2 239.876 80.76C240.316 80.32 240.886 80.1 241.586 80.1C242.286 80.1 242.846 80.32 243.266 80.76C243.706 81.2 243.926 81.77 243.926 82.47C243.926 83.15 243.706 83.72 243.266 84.18C242.826 84.62 242.266 84.84 241.586 84.84ZM239.876 102C239.776 102 239.686 101.97 239.606 101.91C239.546 101.83 239.516 101.74 239.516 101.64V86.94C239.516 86.84 239.546 86.76 239.606 86.7C239.686 86.62 239.776 86.58 239.876 86.58H243.386C243.486 86.58 243.566 86.62 243.626 86.7C243.706 86.76 243.746 86.84 243.746 86.94V101.64C243.746 101.74 243.706 101.83 243.626 101.91C243.566 101.97 243.486 102 243.386 102H239.876ZM251.179 102.21C249.479 102.21 248.119 101.81 247.099 101.01C246.099 100.19 245.599 99.1 245.599 97.74V97.53C245.599 97.43 245.629 97.35 245.689 97.29C245.769 97.21 245.859 97.17 245.959 97.17H249.259C249.359 97.17 249.439 97.21 249.499 97.29C249.579 97.35 249.619 97.43 249.619 97.53V97.62C249.619 98.04 249.769 98.39 250.069 98.67C250.369 98.93 250.739 99.06 251.179 99.06C251.579 99.06 251.889 98.95 252.109 98.73C252.349 98.49 252.469 98.19 252.469 97.83C252.469 97.39 252.279 97.05 251.899 96.81C251.519 96.55 251.089 96.34 250.609 96.18C250.149 96 249.829 95.88 249.649 95.82C248.549 95.42 247.619 94.87 246.859 94.17C246.119 93.45 245.749 92.42 245.749 91.08C245.749 89.62 246.229 88.47 247.189 87.63C248.149 86.79 249.429 86.37 251.029 86.37C252.689 86.37 253.999 86.81 254.959 87.69C255.939 88.57 256.429 89.76 256.429 91.26C256.429 91.36 256.389 91.45 256.309 91.53C256.249 91.59 256.169 91.62 256.069 91.62H252.859C252.759 91.62 252.669 91.59 252.589 91.53C252.529 91.45 252.499 91.36 252.499 91.26V91.02C252.499 90.62 252.369 90.3 252.109 90.06C251.869 89.8 251.549 89.67 251.149 89.67C250.729 89.67 250.399 89.81 250.159 90.09C249.919 90.35 249.799 90.66 249.799 91.02C249.799 91.5 249.999 91.88 250.399 92.16C250.819 92.42 251.449 92.71 252.289 93.03C253.149 93.35 253.879 93.68 254.479 94.02C255.099 94.34 255.629 94.81 256.069 95.43C256.509 96.03 256.729 96.79 256.729 97.71C256.729 99.09 256.219 100.19 255.199 101.01C254.199 101.81 252.859 102.21 251.179 102.21ZM265.222 81.36C265.222 81.26 265.252 81.18 265.312 81.12C265.392 81.04 265.482 81 265.582 81H269.092C269.192 81 269.272 81.04 269.332 81.12C269.412 81.18 269.452 81.26 269.452 81.36V101.64C269.452 101.74 269.412 101.83 269.332 101.91C269.272 101.97 269.192 102 269.092 102H265.582C265.482 102 265.392 101.97 265.312 101.91C265.252 101.83 265.222 101.74 265.222 101.64V101.16C265.222 101.1 265.202 101.07 265.162 101.07C265.122 101.05 265.082 101.06 265.042 101.1C264.362 101.86 263.462 102.24 262.342 102.24C260.962 102.24 259.922 101.8 259.222 100.92C258.522 100.02 258.172 98.78 258.172 97.2V91.38C258.172 89.76 258.522 88.52 259.222 87.66C259.942 86.78 260.982 86.34 262.342 86.34C262.782 86.34 263.242 86.43 263.722 86.61C264.202 86.77 264.642 87.07 265.042 87.51C265.082 87.55 265.122 87.57 265.162 87.57C265.202 87.55 265.222 87.51 265.222 87.45V81.36ZM263.812 98.61C264.172 98.61 264.482 98.49 264.742 98.25C265.002 98.01 265.162 97.69 265.222 97.29V91.29C265.162 90.89 265.002 90.57 264.742 90.33C264.482 90.09 264.172 89.97 263.812 89.97C263.392 89.97 263.052 90.13 262.792 90.45C262.532 90.77 262.402 91.18 262.402 91.68V96.9C262.402 97.4 262.532 97.81 262.792 98.13C263.052 98.45 263.392 98.61 263.812 98.61ZM277.232 102.24C275.452 102.24 274.052 101.79 273.032 100.89C272.032 99.99 271.532 98.76 271.532 97.2V91.38C271.532 89.86 272.042 88.64 273.062 87.72C274.082 86.8 275.472 86.34 277.232 86.34C279.012 86.34 280.412 86.8 281.432 87.72C282.452 88.64 282.962 89.86 282.962 91.38V97.2C282.962 98.76 282.452 99.99 281.432 100.89C280.432 101.79 279.032 102.24 277.232 102.24ZM277.232 98.58C277.672 98.58 278.032 98.42 278.312 98.1C278.592 97.78 278.732 97.37 278.732 96.87V91.68C278.732 91.18 278.592 90.77 278.312 90.45C278.032 90.13 277.672 89.97 277.232 89.97C276.792 89.97 276.432 90.13 276.152 90.45C275.892 90.77 275.762 91.18 275.762 91.68V96.87C275.762 97.37 275.892 97.78 276.152 98.1C276.432 98.42 276.792 98.58 277.232 98.58ZM299.023 86.34C300.383 86.34 301.403 86.8 302.083 87.72C302.763 88.64 303.103 89.93 303.103 91.59V101.64C303.103 101.74 303.063 101.83 302.983 101.91C302.923 101.97 302.843 102 302.743 102H299.233C299.133 102 299.043 101.97 298.963 101.91C298.903 101.83 298.873 101.74 298.873 101.64V91.86C298.873 91.26 298.753 90.8 298.513 90.48C298.273 90.14 297.953 89.97 297.553 89.97C297.113 89.97 296.763 90.14 296.503 90.48C296.263 90.8 296.143 91.26 296.143 91.86V101.64C296.143 101.74 296.103 101.83 296.023 101.91C295.963 101.97 295.883 102 295.783 102H292.303C292.203 102 292.113 101.97 292.033 101.91C291.973 101.83 291.943 101.74 291.943 101.64V91.86C291.943 91.26 291.823 90.8 291.583 90.48C291.343 90.14 291.023 89.97 290.623 89.97C290.183 89.97 289.833 90.14 289.573 90.48C289.333 90.8 289.213 91.26 289.213 91.86V101.64C289.213 101.74 289.173 101.83 289.093 101.91C289.033 101.97 288.953 102 288.853 102H285.343C285.243 102 285.153 101.97 285.073 101.91C285.013 101.83 284.983 101.74 284.983 101.64V86.94C284.983 86.84 285.013 86.76 285.073 86.7C285.153 86.62 285.243 86.58 285.343 86.58H288.853C288.953 86.58 289.033 86.62 289.093 86.7C289.173 86.76 289.213 86.84 289.213 86.94V87.33C289.213 87.39 289.233 87.43 289.273 87.45C289.313 87.47 289.353 87.46 289.393 87.42C289.793 87.02 290.233 86.74 290.713 86.58C291.193 86.42 291.653 86.34 292.093 86.34C293.653 86.34 294.773 86.96 295.453 88.2L295.513 88.23C295.573 88.23 295.643 88.17 295.723 88.05C296.143 87.41 296.643 86.97 297.223 86.73C297.823 86.47 298.423 86.34 299.023 86.34ZM316.723 102.24C314.963 102.24 313.573 101.79 312.553 100.89C311.553 99.99 311.053 98.76 311.053 97.2V91.38C311.053 89.86 311.553 88.64 312.553 87.72C313.573 86.8 314.963 86.34 316.723 86.34C318.483 86.34 319.863 86.79 320.863 87.69C321.883 88.59 322.393 89.76 322.393 91.2V91.74C322.393 91.84 322.353 91.93 322.273 92.01C322.213 92.07 322.133 92.1 322.033 92.1L318.523 92.25C318.283 92.25 318.163 92.13 318.163 91.89V91.53C318.163 91.09 318.023 90.72 317.743 90.42C317.483 90.12 317.143 89.97 316.723 89.97C316.283 89.97 315.933 90.13 315.673 90.45C315.413 90.77 315.283 91.19 315.283 91.71V96.87C315.283 97.39 315.413 97.81 315.673 98.13C315.933 98.45 316.283 98.61 316.723 98.61C317.143 98.61 317.483 98.46 317.743 98.16C318.023 97.84 318.163 97.47 318.163 97.05V96.66C318.163 96.56 318.193 96.48 318.253 96.42C318.333 96.34 318.423 96.3 318.523 96.3L322.033 96.33C322.133 96.33 322.213 96.37 322.273 96.45C322.353 96.51 322.393 96.59 322.393 96.69V97.38C322.393 98.86 321.883 100.04 320.863 100.92C319.863 101.8 318.483 102.24 316.723 102.24ZM329.761 102.24C327.981 102.24 326.581 101.79 325.561 100.89C324.561 99.99 324.061 98.76 324.061 97.2V91.38C324.061 89.86 324.571 88.64 325.591 87.72C326.611 86.8 328.001 86.34 329.761 86.34C331.541 86.34 332.941 86.8 333.961 87.72C334.981 88.64 335.491 89.86 335.491 91.38V97.2C335.491 98.76 334.981 99.99 333.961 100.89C332.961 101.79 331.561 102.24 329.761 102.24ZM329.761 98.58C330.201 98.58 330.561 98.42 330.841 98.1C331.121 97.78 331.261 97.37 331.261 96.87V91.68C331.261 91.18 331.121 90.77 330.841 90.45C330.561 90.13 330.201 89.97 329.761 89.97C329.321 89.97 328.961 90.13 328.681 90.45C328.421 90.77 328.291 91.18 328.291 91.68V96.87C328.291 97.37 328.421 97.78 328.681 98.1C328.961 98.42 329.321 98.58 329.761 98.58ZM351.552 86.34C352.912 86.34 353.932 86.8 354.612 87.72C355.292 88.64 355.632 89.93 355.632 91.59V101.64C355.632 101.74 355.592 101.83 355.512 101.91C355.452 101.97 355.372 102 355.272 102H351.762C351.662 102 351.572 101.97 351.492 101.91C351.432 101.83 351.402 101.74 351.402 101.64V91.86C351.402 91.26 351.282 90.8 351.042 90.48C350.802 90.14 350.482 89.97 350.082 89.97C349.642 89.97 349.292 90.14 349.032 90.48C348.792 90.8 348.672 91.26 348.672 91.86V101.64C348.672 101.74 348.632 101.83 348.552 101.91C348.492 101.97 348.412 102 348.312 102H344.832C344.732 102 344.642 101.97 344.562 101.91C344.502 101.83 344.472 101.74 344.472 101.64V91.86C344.472 91.26 344.352 90.8 344.112 90.48C343.872 90.14 343.552 89.97 343.152 89.97C342.712 89.97 342.362 90.14 342.102 90.48C341.862 90.8 341.742 91.26 341.742 91.86V101.64C341.742 101.74 341.702 101.83 341.622 101.91C341.562 101.97 341.482 102 341.382 102H337.872C337.772 102 337.682 101.97 337.602 101.91C337.542 101.83 337.512 101.74 337.512 101.64V86.94C337.512 86.84 337.542 86.76 337.602 86.7C337.682 86.62 337.772 86.58 337.872 86.58H341.382C341.482 86.58 341.562 86.62 341.622 86.7C341.702 86.76 341.742 86.84 341.742 86.94V87.33C341.742 87.39 341.762 87.43 341.802 87.45C341.842 87.47 341.882 87.46 341.922 87.42C342.322 87.02 342.762 86.74 343.242 86.58C343.722 86.42 344.182 86.34 344.622 86.34C346.182 86.34 347.302 86.96 347.982 88.2L348.042 88.23C348.102 88.23 348.172 88.17 348.252 88.05C348.672 87.41 349.172 86.97 349.752 86.73C350.352 86.47 350.952 86.34 351.552 86.34ZM368.916 95.25C368.916 95.35 368.876 95.44 368.796 95.52C368.736 95.58 368.656 95.61 368.556 95.61H361.956C361.856 95.61 361.806 95.66 361.806 95.76V96.87C361.806 97.37 361.936 97.79 362.196 98.13C362.476 98.45 362.826 98.61 363.246 98.61C363.626 98.61 363.936 98.49 364.176 98.25C364.416 97.99 364.576 97.67 364.656 97.29C364.716 97.09 364.846 96.99 365.046 96.99L368.496 97.17C368.596 97.17 368.676 97.21 368.736 97.29C368.816 97.35 368.846 97.44 368.826 97.56C368.686 99.1 368.146 100.27 367.206 101.07C366.286 101.85 364.966 102.24 363.246 102.24C361.466 102.24 360.076 101.8 359.076 100.92C358.076 100.02 357.576 98.78 357.576 97.2V91.38C357.576 89.86 358.076 88.64 359.076 87.72C360.096 86.8 361.486 86.34 363.246 86.34C365.006 86.34 366.386 86.8 367.386 87.72C368.406 88.64 368.916 89.86 368.916 91.38V95.25ZM363.246 89.97C362.826 89.97 362.476 90.13 362.196 90.45C361.936 90.77 361.806 91.18 361.806 91.68V92.85C361.806 92.95 361.856 93 361.956 93H364.536C364.636 93 364.686 92.95 364.686 92.85V91.68C364.686 91.18 364.546 90.77 364.266 90.45C364.006 90.13 363.666 89.97 363.246 89.97ZM375.984 102.21C374.284 102.21 372.924 101.81 371.904 101.01C370.904 100.19 370.404 99.1 370.404 97.74V97.53C370.404 97.43 370.434 97.35 370.494 97.29C370.574 97.21 370.664 97.17 370.764 97.17H374.064C374.164 97.17 374.244 97.21 374.304 97.29C374.384 97.35 374.424 97.43 374.424 97.53V97.62C374.424 98.04 374.574 98.39 374.874 98.67C375.174 98.93 375.544 99.06 375.984 99.06C376.384 99.06 376.694 98.95 376.914 98.73C377.154 98.49 377.274 98.19 377.274 97.83C377.274 97.39 377.084 97.05 376.704 96.81C376.324 96.55 375.894 96.34 375.414 96.18C374.954 96 374.634 95.88 374.454 95.82C373.354 95.42 372.424 94.87 371.664 94.17C370.924 93.45 370.554 92.42 370.554 91.08C370.554 89.62 371.034 88.47 371.994 87.63C372.954 86.79 374.234 86.37 375.834 86.37C377.494 86.37 378.804 86.81 379.764 87.69C380.744 88.57 381.234 89.76 381.234 91.26C381.234 91.36 381.194 91.45 381.114 91.53C381.054 91.59 380.974 91.62 380.874 91.62H377.664C377.564 91.62 377.474 91.59 377.394 91.53C377.334 91.45 377.304 91.36 377.304 91.26V91.02C377.304 90.62 377.174 90.3 376.914 90.06C376.674 89.8 376.354 89.67 375.954 89.67C375.534 89.67 375.204 89.81 374.964 90.09C374.724 90.35 374.604 90.66 374.604 91.02C374.604 91.5 374.804 91.88 375.204 92.16C375.624 92.42 376.254 92.71 377.094 93.03C377.954 93.35 378.684 93.68 379.284 94.02C379.904 94.34 380.434 94.81 380.874 95.43C381.314 96.03 381.534 96.79 381.534 97.71C381.534 99.09 381.024 100.19 380.004 101.01C379.004 101.81 377.664 102.21 375.984 102.21ZM396.303 86.34C397.663 86.34 398.693 86.78 399.393 87.66C400.113 88.52 400.473 89.76 400.473 91.38V97.2C400.473 98.78 400.123 100.02 399.423 100.92C398.723 101.8 397.683 102.24 396.303 102.24C395.183 102.24 394.283 101.86 393.603 101.1C393.563 101.06 393.523 101.05 393.483 101.07C393.443 101.07 393.423 101.1 393.423 101.16V101.64C393.423 101.74 393.383 101.83 393.303 101.91C393.243 101.97 393.163 102 393.063 102H389.553C389.453 102 389.363 101.97 389.283 101.91C389.223 101.83 389.193 101.74 389.193 101.64V81.36C389.193 81.26 389.223 81.18 389.283 81.12C389.363 81.04 389.453 81 389.553 81H393.063C393.163 81 393.243 81.04 393.303 81.12C393.383 81.18 393.423 81.26 393.423 81.36V87.45C393.423 87.49 393.443 87.51 393.483 87.51C393.563 87.51 393.643 87.46 393.723 87.36C394.403 86.68 395.263 86.34 396.303 86.34ZM396.243 91.68C396.243 91.18 396.113 90.77 395.853 90.45C395.593 90.13 395.253 89.97 394.833 89.97C394.473 89.97 394.163 90.09 393.903 90.33C393.643 90.57 393.483 90.89 393.423 91.29V97.29C393.483 97.69 393.643 98.01 393.903 98.25C394.163 98.49 394.473 98.61 394.833 98.61C395.253 98.61 395.593 98.45 395.853 98.13C396.113 97.81 396.243 97.4 396.243 96.9V91.68ZM402.347 107.97C402.307 107.97 402.267 107.93 402.227 107.85C402.187 107.79 402.167 107.71 402.167 107.61V104.85C402.167 104.61 402.257 104.49 402.437 104.49C403.477 104.47 404.217 104.3 404.657 103.98C405.097 103.68 405.347 103.05 405.407 102.09L405.377 101.91L401.597 86.94V86.82C401.597 86.64 401.707 86.55 401.927 86.55H405.707C405.947 86.55 406.077 86.66 406.097 86.88L407.477 95.79C407.497 95.87 407.527 95.91 407.567 95.91C407.607 95.91 407.637 95.87 407.657 95.79L408.977 86.88C408.997 86.66 409.127 86.55 409.367 86.55L413.147 86.61C413.427 86.61 413.537 86.74 413.477 87L409.517 102.57C409.117 104.03 408.687 105.12 408.227 105.84C407.787 106.58 407.127 107.12 406.247 107.46C405.387 107.8 404.137 107.97 402.497 107.97H402.347ZM12.34 122.34C13.72 122.34 14.76 122.79 15.46 123.69C16.18 124.57 16.54 125.79 16.54 127.35V133.2C16.54 134.82 16.18 136.07 15.46 136.95C14.74 137.81 13.7 138.24 12.34 138.24C11.9 138.24 11.44 138.16 10.96 138C10.48 137.82 10.04 137.51 9.64 137.07C9.6 137.01 9.56 136.99 9.52 137.01C9.48 137.03 9.46 137.07 9.46 137.13V143.22C9.46 143.32 9.42 143.4 9.34 143.46C9.28 143.54 9.2 143.58 9.1 143.58H5.59C5.49 143.58 5.4 143.54 5.32 143.46C5.26 143.4 5.23 143.32 5.23 143.22V122.94C5.23 122.84 5.26 122.76 5.32 122.7C5.4 122.62 5.49 122.58 5.59 122.58H9.1C9.2 122.58 9.28 122.62 9.34 122.7C9.42 122.76 9.46 122.84 9.46 122.94V123.42C9.46 123.46 9.48 123.48 9.52 123.48C9.6 123.48 9.68 123.43 9.76 123.33C10.44 122.67 11.3 122.34 12.34 122.34ZM12.31 127.68C12.31 127.16 12.18 126.74 11.92 126.42C11.66 126.1 11.31 125.94 10.87 125.94C10.45 125.94 10.11 126.1 9.85 126.42C9.59 126.74 9.46 127.16 9.46 127.68V132.87C9.46 133.39 9.59 133.81 9.85 134.13C10.11 134.45 10.45 134.61 10.87 134.61C11.31 134.61 11.66 134.45 11.92 134.13C12.18 133.81 12.31 133.39 12.31 132.87V127.68ZM25.4873 122.94C25.4873 122.84 25.5173 122.76 25.5773 122.7C25.6573 122.62 25.7473 122.58 25.8473 122.58H29.3573C29.4573 122.58 29.5373 122.62 29.5973 122.7C29.6773 122.76 29.7173 122.84 29.7173 122.94V137.64C29.7173 137.74 29.6773 137.83 29.5973 137.91C29.5373 137.97 29.4573 138 29.3573 138H25.8473C25.7473 138 25.6573 137.97 25.5773 137.91C25.5173 137.83 25.4873 137.74 25.4873 137.64V137.13C25.4873 137.07 25.4673 137.03 25.4273 137.01C25.3873 136.99 25.3473 137.01 25.3073 137.07C25.0073 137.49 24.6273 137.79 24.1673 137.97C23.7273 138.13 23.2073 138.21 22.6073 138.21C21.4073 138.21 20.4173 137.85 19.6373 137.13C18.8573 136.39 18.4673 135.26 18.4673 133.74V122.94C18.4673 122.84 18.4973 122.76 18.5573 122.7C18.6373 122.62 18.7273 122.58 18.8273 122.58H22.3373C22.4373 122.58 22.5173 122.62 22.5773 122.7C22.6573 122.76 22.6973 122.84 22.6973 122.94V132.81C22.6973 133.39 22.8073 133.84 23.0273 134.16C23.2673 134.46 23.6073 134.61 24.0473 134.61C24.4873 134.61 24.8373 134.44 25.0973 134.1C25.3573 133.76 25.4873 133.3 25.4873 132.72V122.94ZM39.0252 125.19C39.0252 125.29 38.9852 125.38 38.9052 125.46C38.8452 125.52 38.7652 125.55 38.6652 125.55H36.9852C36.8852 125.55 36.8352 125.6 36.8352 125.7V132.84C36.8352 133.42 36.9452 133.82 37.1652 134.04C37.3852 134.26 37.7152 134.36 38.1552 134.34H38.3652C38.4652 134.34 38.5452 134.38 38.6052 134.46C38.6852 134.52 38.7252 134.6 38.7252 134.7V137.64C38.7252 137.74 38.6852 137.83 38.6052 137.91C38.5452 137.97 38.4652 138 38.3652 138H37.1652C35.7052 138 34.6052 137.76 33.8652 137.28C33.1252 136.78 32.7552 135.84 32.7552 134.46V125.7C32.7552 125.6 32.7052 125.55 32.6052 125.55H31.6152C31.5152 125.55 31.4252 125.52 31.3452 125.46C31.2852 125.38 31.2552 125.29 31.2552 125.19V122.94C31.2552 122.84 31.2852 122.76 31.3452 122.7C31.4252 122.62 31.5152 122.58 31.6152 122.58H32.6052C32.7052 122.58 32.7552 122.53 32.7552 122.43V119.1C32.7552 119 32.7852 118.92 32.8452 118.86C32.9252 118.78 33.0152 118.74 33.1152 118.74H36.4752C36.5752 118.74 36.6552 118.78 36.7152 118.86C36.7952 118.92 36.8352 119 36.8352 119.1V122.43C36.8352 122.53 36.8852 122.58 36.9852 122.58H38.6652C38.7652 122.58 38.8452 122.62 38.9052 122.7C38.9852 122.76 39.0252 122.84 39.0252 122.94V125.19ZM47.7557 125.19C47.7557 125.29 47.7157 125.38 47.6357 125.46C47.5757 125.52 47.4957 125.55 47.3957 125.55H45.7157C45.6157 125.55 45.5657 125.6 45.5657 125.7V132.84C45.5657 133.42 45.6757 133.82 45.8957 134.04C46.1157 134.26 46.4457 134.36 46.8857 134.34H47.0957C47.1957 134.34 47.2757 134.38 47.3357 134.46C47.4157 134.52 47.4557 134.6 47.4557 134.7V137.64C47.4557 137.74 47.4157 137.83 47.3357 137.91C47.2757 137.97 47.1957 138 47.0957 138H45.8957C44.4357 138 43.3357 137.76 42.5957 137.28C41.8557 136.78 41.4857 135.84 41.4857 134.46V125.7C41.4857 125.6 41.4357 125.55 41.3357 125.55H40.3457C40.2457 125.55 40.1557 125.52 40.0757 125.46C40.0157 125.38 39.9857 125.29 39.9857 125.19V122.94C39.9857 122.84 40.0157 122.76 40.0757 122.7C40.1557 122.62 40.2457 122.58 40.3457 122.58H41.3357C41.4357 122.58 41.4857 122.53 41.4857 122.43V119.1C41.4857 119 41.5157 118.92 41.5757 118.86C41.6557 118.78 41.7457 118.74 41.8457 118.74H45.2057C45.3057 118.74 45.3857 118.78 45.4457 118.86C45.5257 118.92 45.5657 119 45.5657 119.1V122.43C45.5657 122.53 45.6157 122.58 45.7157 122.58H47.3957C47.4957 122.58 47.5757 122.62 47.6357 122.7C47.7157 122.76 47.7557 122.84 47.7557 122.94V125.19ZM51.5962 120.84C50.9162 120.84 50.3462 120.62 49.8862 120.18C49.4462 119.72 49.2262 119.15 49.2262 118.47C49.2262 117.77 49.4462 117.2 49.8862 116.76C50.3262 116.32 50.8962 116.1 51.5962 116.1C52.2962 116.1 52.8562 116.32 53.2762 116.76C53.7162 117.2 53.9362 117.77 53.9362 118.47C53.9362 119.15 53.7162 119.72 53.2762 120.18C52.8362 120.62 52.2762 120.84 51.5962 120.84ZM49.8862 138C49.7862 138 49.6962 137.97 49.6162 137.91C49.5562 137.83 49.5262 137.74 49.5262 137.64V122.94C49.5262 122.84 49.5562 122.76 49.6162 122.7C49.6962 122.62 49.7862 122.58 49.8862 122.58H53.3962C53.4962 122.58 53.5762 122.62 53.6362 122.7C53.7162 122.76 53.7562 122.84 53.7562 122.94V137.64C53.7562 137.74 53.7162 137.83 53.6362 137.91C53.5762 137.97 53.4962 138 53.3962 138H49.8862ZM63.1987 122.34C64.5587 122.34 65.5787 122.79 66.2587 123.69C66.9387 124.59 67.2787 125.85 67.2787 127.47V137.64C67.2787 137.74 67.2387 137.83 67.1587 137.91C67.0987 137.97 67.0187 138 66.9187 138H63.4087C63.3087 138 63.2187 137.97 63.1387 137.91C63.0787 137.83 63.0487 137.74 63.0487 137.64V127.8C63.0487 127.22 62.9287 126.77 62.6887 126.45C62.4687 126.13 62.1387 125.97 61.6987 125.97C61.2387 125.97 60.8787 126.14 60.6187 126.48C60.3787 126.8 60.2587 127.26 60.2587 127.86V137.64C60.2587 137.74 60.2187 137.83 60.1387 137.91C60.0787 137.97 59.9987 138 59.8987 138H56.3887C56.2887 138 56.1987 137.97 56.1187 137.91C56.0587 137.83 56.0287 137.74 56.0287 137.64V122.94C56.0287 122.84 56.0587 122.76 56.1187 122.7C56.1987 122.62 56.2887 122.58 56.3887 122.58H59.8987C59.9987 122.58 60.0787 122.62 60.1387 122.7C60.2187 122.76 60.2587 122.84 60.2587 122.94V123.51C60.2587 123.57 60.2787 123.6 60.3187 123.6C60.3787 123.6 60.4487 123.56 60.5287 123.48C61.1687 122.72 62.0587 122.34 63.1987 122.34ZM76.3166 122.94C76.3166 122.84 76.3466 122.76 76.4066 122.7C76.4866 122.62 76.5766 122.58 76.6766 122.58H80.1866C80.2866 122.58 80.3666 122.62 80.4266 122.7C80.5066 122.76 80.5466 122.84 80.5466 122.94V137.28C80.5466 139.5 80.0166 141.21 78.9566 142.41C77.9166 143.61 76.0366 144.21 73.3166 144.21C72.7766 144.21 72.3566 144.2 72.0566 144.18C71.8166 144.16 71.6966 144.03 71.6966 143.79V140.85C71.6966 140.59 71.8266 140.48 72.0866 140.52C73.2666 140.56 74.1566 140.44 74.7566 140.16C75.3766 139.9 75.7866 139.5 75.9866 138.96C76.2066 138.42 76.3166 137.71 76.3166 136.83C76.3166 136.77 76.2966 136.74 76.2566 136.74C76.2166 136.74 76.1766 136.77 76.1366 136.83C75.7766 137.31 75.3366 137.65 74.8166 137.85C74.3166 138.03 73.8266 138.12 73.3466 138.12C71.9666 138.12 70.9366 137.68 70.2566 136.8C69.5766 135.9 69.2366 134.66 69.2366 133.08V127.38C69.2366 125.76 69.5766 124.52 70.2566 123.66C70.9566 122.78 71.9866 122.34 73.3466 122.34C74.5666 122.34 75.4966 122.79 76.1366 123.69C76.1766 123.75 76.2166 123.77 76.2566 123.75C76.2966 123.73 76.3166 123.69 76.3166 123.63V122.94ZM74.8766 134.46C75.2966 134.46 75.6366 134.3 75.8966 133.98C76.1766 133.66 76.3166 133.25 76.3166 132.75V127.68C76.3166 127.18 76.1766 126.77 75.8966 126.45C75.6366 126.13 75.2966 125.97 74.8766 125.97C74.4566 125.97 74.1166 126.13 73.8566 126.45C73.5966 126.77 73.4666 127.18 73.4666 127.68V132.75C73.4666 133.25 73.5966 133.66 73.8566 133.98C74.1166 134.3 74.4566 134.46 74.8766 134.46ZM95.7147 125.19C95.7147 125.29 95.6747 125.38 95.5947 125.46C95.5347 125.52 95.4547 125.55 95.3547 125.55H93.6747C93.5747 125.55 93.5247 125.6 93.5247 125.7V132.84C93.5247 133.42 93.6347 133.82 93.8547 134.04C94.0747 134.26 94.4047 134.36 94.8447 134.34H95.0547C95.1547 134.34 95.2347 134.38 95.2947 134.46C95.3747 134.52 95.4147 134.6 95.4147 134.7V137.64C95.4147 137.74 95.3747 137.83 95.2947 137.91C95.2347 137.97 95.1547 138 95.0547 138H93.8547C92.3947 138 91.2947 137.76 90.5547 137.28C89.8147 136.78 89.4447 135.84 89.4447 134.46V125.7C89.4447 125.6 89.3947 125.55 89.2947 125.55H88.3047C88.2047 125.55 88.1147 125.52 88.0347 125.46C87.9747 125.38 87.9447 125.29 87.9447 125.19V122.94C87.9447 122.84 87.9747 122.76 88.0347 122.7C88.1147 122.62 88.2047 122.58 88.3047 122.58H89.2947C89.3947 122.58 89.4447 122.53 89.4447 122.43V119.1C89.4447 119 89.4747 118.92 89.5347 118.86C89.6147 118.78 89.7047 118.74 89.8047 118.74H93.1647C93.2647 118.74 93.3447 118.78 93.4047 118.86C93.4847 118.92 93.5247 119 93.5247 119.1V122.43C93.5247 122.53 93.5747 122.58 93.6747 122.58H95.3547C95.4547 122.58 95.5347 122.62 95.5947 122.7C95.6747 122.76 95.7147 122.84 95.7147 122.94V125.19ZM104.595 122.34C105.955 122.34 106.975 122.79 107.655 123.69C108.335 124.59 108.675 125.85 108.675 127.47V137.64C108.675 137.74 108.635 137.83 108.555 137.91C108.495 137.97 108.415 138 108.315 138H104.805C104.705 138 104.615 137.97 104.535 137.91C104.475 137.83 104.445 137.74 104.445 137.64V127.8C104.445 127.22 104.325 126.77 104.085 126.45C103.865 126.13 103.535 125.97 103.095 125.97C102.635 125.97 102.275 126.14 102.015 126.48C101.775 126.8 101.655 127.26 101.655 127.86V137.64C101.655 137.74 101.615 137.83 101.535 137.91C101.475 137.97 101.395 138 101.295 138H97.7852C97.6852 138 97.5952 137.97 97.5152 137.91C97.4552 137.83 97.4252 137.74 97.4252 137.64V117.36C97.4252 117.26 97.4552 117.18 97.5152 117.12C97.5952 117.04 97.6852 117 97.7852 117H101.295C101.395 117 101.475 117.04 101.535 117.12C101.615 117.18 101.655 117.26 101.655 117.36V123.51C101.655 123.57 101.675 123.6 101.715 123.6C101.775 123.6 101.845 123.56 101.925 123.48C102.565 122.72 103.455 122.34 104.595 122.34ZM112.973 120.84C112.293 120.84 111.723 120.62 111.263 120.18C110.823 119.72 110.603 119.15 110.603 118.47C110.603 117.77 110.823 117.2 111.263 116.76C111.703 116.32 112.273 116.1 112.973 116.1C113.673 116.1 114.233 116.32 114.653 116.76C115.093 117.2 115.313 117.77 115.313 118.47C115.313 119.15 115.093 119.72 114.653 120.18C114.213 120.62 113.653 120.84 112.973 120.84ZM111.263 138C111.163 138 111.073 137.97 110.993 137.91C110.933 137.83 110.903 137.74 110.903 137.64V122.94C110.903 122.84 110.933 122.76 110.993 122.7C111.073 122.62 111.163 122.58 111.263 122.58H114.773C114.873 122.58 114.953 122.62 115.013 122.7C115.093 122.76 115.133 122.84 115.133 122.94V137.64C115.133 137.74 115.093 137.83 115.013 137.91C114.953 137.97 114.873 138 114.773 138H111.263ZM124.576 122.34C125.936 122.34 126.956 122.79 127.636 123.69C128.316 124.59 128.656 125.85 128.656 127.47V137.64C128.656 137.74 128.616 137.83 128.536 137.91C128.476 137.97 128.396 138 128.296 138H124.786C124.686 138 124.596 137.97 124.516 137.91C124.456 137.83 124.426 137.74 124.426 137.64V127.8C124.426 127.22 124.306 126.77 124.066 126.45C123.846 126.13 123.516 125.97 123.076 125.97C122.616 125.97 122.256 126.14 121.996 126.48C121.756 126.8 121.636 127.26 121.636 127.86V137.64C121.636 137.74 121.596 137.83 121.516 137.91C121.456 137.97 121.376 138 121.276 138H117.766C117.666 138 117.576 137.97 117.496 137.91C117.436 137.83 117.406 137.74 117.406 137.64V122.94C117.406 122.84 117.436 122.76 117.496 122.7C117.576 122.62 117.666 122.58 117.766 122.58H121.276C121.376 122.58 121.456 122.62 121.516 122.7C121.596 122.76 121.636 122.84 121.636 122.94V123.51C121.636 123.57 121.656 123.6 121.696 123.6C121.756 123.6 121.826 123.56 121.906 123.48C122.546 122.72 123.436 122.34 124.576 122.34ZM137.694 122.94C137.694 122.84 137.724 122.76 137.784 122.7C137.864 122.62 137.954 122.58 138.054 122.58H141.564C141.664 122.58 141.744 122.62 141.804 122.7C141.884 122.76 141.924 122.84 141.924 122.94V137.28C141.924 139.5 141.394 141.21 140.334 142.41C139.294 143.61 137.414 144.21 134.694 144.21C134.154 144.21 133.734 144.2 133.434 144.18C133.194 144.16 133.074 144.03 133.074 143.79V140.85C133.074 140.59 133.204 140.48 133.464 140.52C134.644 140.56 135.534 140.44 136.134 140.16C136.754 139.9 137.164 139.5 137.364 138.96C137.584 138.42 137.694 137.71 137.694 136.83C137.694 136.77 137.674 136.74 137.634 136.74C137.594 136.74 137.554 136.77 137.514 136.83C137.154 137.31 136.714 137.65 136.194 137.85C135.694 138.03 135.204 138.12 134.724 138.12C133.344 138.12 132.314 137.68 131.634 136.8C130.954 135.9 130.614 134.66 130.614 133.08V127.38C130.614 125.76 130.954 124.52 131.634 123.66C132.334 122.78 133.364 122.34 134.724 122.34C135.944 122.34 136.874 122.79 137.514 123.69C137.554 123.75 137.594 123.77 137.634 123.75C137.674 123.73 137.694 123.69 137.694 123.63V122.94ZM136.254 134.46C136.674 134.46 137.014 134.3 137.274 133.98C137.554 133.66 137.694 133.25 137.694 132.75V127.68C137.694 127.18 137.554 126.77 137.274 126.45C137.014 126.13 136.674 125.97 136.254 125.97C135.834 125.97 135.494 126.13 135.234 126.45C134.974 126.77 134.844 127.18 134.844 127.68V132.75C134.844 133.25 134.974 133.66 135.234 133.98C135.494 134.3 135.834 134.46 136.254 134.46ZM149.226 138.21C147.526 138.21 146.166 137.81 145.146 137.01C144.146 136.19 143.646 135.1 143.646 133.74V133.53C143.646 133.43 143.676 133.35 143.736 133.29C143.816 133.21 143.906 133.17 144.006 133.17H147.306C147.406 133.17 147.486 133.21 147.546 133.29C147.626 133.35 147.666 133.43 147.666 133.53V133.62C147.666 134.04 147.816 134.39 148.116 134.67C148.416 134.93 148.786 135.06 149.226 135.06C149.626 135.06 149.936 134.95 150.156 134.73C150.396 134.49 150.516 134.19 150.516 133.83C150.516 133.39 150.326 133.05 149.946 132.81C149.566 132.55 149.136 132.34 148.656 132.18C148.196 132 147.876 131.88 147.696 131.82C146.596 131.42 145.666 130.87 144.906 130.17C144.166 129.45 143.796 128.42 143.796 127.08C143.796 125.62 144.276 124.47 145.236 123.63C146.196 122.79 147.476 122.37 149.076 122.37C150.736 122.37 152.046 122.81 153.006 123.69C153.986 124.57 154.476 125.76 154.476 127.26C154.476 127.36 154.436 127.45 154.356 127.53C154.296 127.59 154.216 127.62 154.116 127.62H150.906C150.806 127.62 150.716 127.59 150.636 127.53C150.576 127.45 150.546 127.36 150.546 127.26V127.02C150.546 126.62 150.416 126.3 150.156 126.06C149.916 125.8 149.596 125.67 149.196 125.67C148.776 125.67 148.446 125.81 148.206 126.09C147.966 126.35 147.846 126.66 147.846 127.02C147.846 127.5 148.046 127.88 148.446 128.16C148.866 128.42 149.496 128.71 150.336 129.03C151.196 129.35 151.926 129.68 152.526 130.02C153.146 130.34 153.676 130.81 154.116 131.43C154.556 132.03 154.776 132.79 154.776 133.71C154.776 135.09 154.266 136.19 153.246 137.01C152.246 137.81 150.906 138.21 149.226 138.21ZM169.455 125.19C169.455 125.29 169.415 125.38 169.335 125.46C169.275 125.52 169.195 125.55 169.095 125.55H167.415C167.315 125.55 167.265 125.6 167.265 125.7V132.84C167.265 133.42 167.375 133.82 167.595 134.04C167.815 134.26 168.145 134.36 168.585 134.34H168.795C168.895 134.34 168.975 134.38 169.035 134.46C169.115 134.52 169.155 134.6 169.155 134.7V137.64C169.155 137.74 169.115 137.83 169.035 137.91C168.975 137.97 168.895 138 168.795 138H167.595C166.135 138 165.035 137.76 164.295 137.28C163.555 136.78 163.185 135.84 163.185 134.46V125.7C163.185 125.6 163.135 125.55 163.035 125.55H162.045C161.945 125.55 161.855 125.52 161.775 125.46C161.715 125.38 161.685 125.29 161.685 125.19V122.94C161.685 122.84 161.715 122.76 161.775 122.7C161.855 122.62 161.945 122.58 162.045 122.58H163.035C163.135 122.58 163.185 122.53 163.185 122.43V119.1C163.185 119 163.215 118.92 163.275 118.86C163.355 118.78 163.445 118.74 163.545 118.74H166.905C167.005 118.74 167.085 118.78 167.145 118.86C167.225 118.92 167.265 119 167.265 119.1V122.43C167.265 122.53 167.315 122.58 167.415 122.58H169.095C169.195 122.58 169.275 122.62 169.335 122.7C169.415 122.76 169.455 122.84 169.455 122.94V125.19ZM176.655 138.24C174.875 138.24 173.475 137.79 172.455 136.89C171.455 135.99 170.955 134.76 170.955 133.2V127.38C170.955 125.86 171.465 124.64 172.485 123.72C173.505 122.8 174.895 122.34 176.655 122.34C178.435 122.34 179.835 122.8 180.855 123.72C181.875 124.64 182.385 125.86 182.385 127.38V133.2C182.385 134.76 181.875 135.99 180.855 136.89C179.855 137.79 178.455 138.24 176.655 138.24ZM176.655 134.58C177.095 134.58 177.455 134.42 177.735 134.1C178.015 133.78 178.155 133.37 178.155 132.87V127.68C178.155 127.18 178.015 126.77 177.735 126.45C177.455 126.13 177.095 125.97 176.655 125.97C176.215 125.97 175.855 126.13 175.575 126.45C175.315 126.77 175.185 127.18 175.185 127.68V132.87C175.185 133.37 175.315 133.78 175.575 134.1C175.855 134.42 176.215 134.58 176.655 134.58ZM191.307 122.94C191.307 122.84 191.337 122.76 191.397 122.7C191.477 122.62 191.567 122.58 191.667 122.58H195.177C195.277 122.58 195.357 122.62 195.417 122.7C195.497 122.76 195.537 122.84 195.537 122.94V137.28C195.537 139.5 195.007 141.21 193.947 142.41C192.907 143.61 191.027 144.21 188.307 144.21C187.767 144.21 187.347 144.2 187.047 144.18C186.807 144.16 186.687 144.03 186.687 143.79V140.85C186.687 140.59 186.817 140.48 187.077 140.52C188.257 140.56 189.147 140.44 189.747 140.16C190.367 139.9 190.777 139.5 190.977 138.96C191.197 138.42 191.307 137.71 191.307 136.83C191.307 136.77 191.287 136.74 191.247 136.74C191.207 136.74 191.167 136.77 191.127 136.83C190.767 137.31 190.327 137.65 189.807 137.85C189.307 138.03 188.817 138.12 188.337 138.12C186.957 138.12 185.927 137.68 185.247 136.8C184.567 135.9 184.227 134.66 184.227 133.08V127.38C184.227 125.76 184.567 124.52 185.247 123.66C185.947 122.78 186.977 122.34 188.337 122.34C189.557 122.34 190.487 122.79 191.127 123.69C191.167 123.75 191.207 123.77 191.247 123.75C191.287 123.73 191.307 123.69 191.307 123.63V122.94ZM189.867 134.46C190.287 134.46 190.627 134.3 190.887 133.98C191.167 133.66 191.307 133.25 191.307 132.75V127.68C191.307 127.18 191.167 126.77 190.887 126.45C190.627 126.13 190.287 125.97 189.867 125.97C189.447 125.97 189.107 126.13 188.847 126.45C188.587 126.77 188.457 127.18 188.457 127.68V132.75C188.457 133.25 188.587 133.66 188.847 133.98C189.107 134.3 189.447 134.46 189.867 134.46ZM208.809 131.25C208.809 131.35 208.769 131.44 208.689 131.52C208.629 131.58 208.549 131.61 208.449 131.61H201.849C201.749 131.61 201.699 131.66 201.699 131.76V132.87C201.699 133.37 201.829 133.79 202.089 134.13C202.369 134.45 202.719 134.61 203.139 134.61C203.519 134.61 203.829 134.49 204.069 134.25C204.309 133.99 204.469 133.67 204.549 133.29C204.609 133.09 204.739 132.99 204.939 132.99L208.389 133.17C208.489 133.17 208.569 133.21 208.629 133.29C208.709 133.35 208.739 133.44 208.719 133.56C208.579 135.1 208.039 136.27 207.099 137.07C206.179 137.85 204.859 138.24 203.139 138.24C201.359 138.24 199.969 137.8 198.969 136.92C197.969 136.02 197.469 134.78 197.469 133.2V127.38C197.469 125.86 197.969 124.64 198.969 123.72C199.989 122.8 201.379 122.34 203.139 122.34C204.899 122.34 206.279 122.8 207.279 123.72C208.299 124.64 208.809 125.86 208.809 127.38V131.25ZM203.139 125.97C202.719 125.97 202.369 126.13 202.089 126.45C201.829 126.77 201.699 127.18 201.699 127.68V128.85C201.699 128.95 201.749 129 201.849 129H204.429C204.529 129 204.579 128.95 204.579 128.85V127.68C204.579 127.18 204.439 126.77 204.159 126.45C203.899 126.13 203.559 125.97 203.139 125.97ZM217.678 125.19C217.678 125.29 217.638 125.38 217.558 125.46C217.498 125.52 217.418 125.55 217.318 125.55H215.638C215.538 125.55 215.488 125.6 215.488 125.7V132.84C215.488 133.42 215.598 133.82 215.818 134.04C216.038 134.26 216.368 134.36 216.808 134.34H217.018C217.118 134.34 217.198 134.38 217.258 134.46C217.338 134.52 217.378 134.6 217.378 134.7V137.64C217.378 137.74 217.338 137.83 217.258 137.91C217.198 137.97 217.118 138 217.018 138H215.818C214.358 138 213.258 137.76 212.518 137.28C211.778 136.78 211.408 135.84 211.408 134.46V125.7C211.408 125.6 211.358 125.55 211.258 125.55H210.268C210.168 125.55 210.078 125.52 209.998 125.46C209.938 125.38 209.908 125.29 209.908 125.19V122.94C209.908 122.84 209.938 122.76 209.998 122.7C210.078 122.62 210.168 122.58 210.268 122.58H211.258C211.358 122.58 211.408 122.53 211.408 122.43V119.1C211.408 119 211.438 118.92 211.498 118.86C211.578 118.78 211.668 118.74 211.768 118.74H215.128C215.228 118.74 215.308 118.78 215.368 118.86C215.448 118.92 215.488 119 215.488 119.1V122.43C215.488 122.53 215.538 122.58 215.638 122.58H217.318C217.418 122.58 217.498 122.62 217.558 122.7C217.638 122.76 217.678 122.84 217.678 122.94V125.19ZM226.558 122.34C227.918 122.34 228.938 122.79 229.618 123.69C230.298 124.59 230.638 125.85 230.638 127.47V137.64C230.638 137.74 230.598 137.83 230.518 137.91C230.458 137.97 230.378 138 230.278 138H226.768C226.668 138 226.578 137.97 226.498 137.91C226.438 137.83 226.408 137.74 226.408 137.64V127.8C226.408 127.22 226.288 126.77 226.048 126.45C225.828 126.13 225.498 125.97 225.058 125.97C224.598 125.97 224.238 126.14 223.978 126.48C223.738 126.8 223.618 127.26 223.618 127.86V137.64C223.618 137.74 223.578 137.83 223.498 137.91C223.438 137.97 223.358 138 223.258 138H219.748C219.648 138 219.558 137.97 219.478 137.91C219.418 137.83 219.388 137.74 219.388 137.64V117.36C219.388 117.26 219.418 117.18 219.478 117.12C219.558 117.04 219.648 117 219.748 117H223.258C223.358 117 223.438 117.04 223.498 117.12C223.578 117.18 223.618 117.26 223.618 117.36V123.51C223.618 123.57 223.638 123.6 223.678 123.6C223.738 123.6 223.808 123.56 223.888 123.48C224.528 122.72 225.418 122.34 226.558 122.34ZM243.936 131.25C243.936 131.35 243.896 131.44 243.816 131.52C243.756 131.58 243.676 131.61 243.576 131.61H236.976C236.876 131.61 236.826 131.66 236.826 131.76V132.87C236.826 133.37 236.956 133.79 237.216 134.13C237.496 134.45 237.846 134.61 238.266 134.61C238.646 134.61 238.956 134.49 239.196 134.25C239.436 133.99 239.596 133.67 239.676 133.29C239.736 133.09 239.866 132.99 240.066 132.99L243.516 133.17C243.616 133.17 243.696 133.21 243.756 133.29C243.836 133.35 243.866 133.44 243.846 133.56C243.706 135.1 243.166 136.27 242.226 137.07C241.306 137.85 239.986 138.24 238.266 138.24C236.486 138.24 235.096 137.8 234.096 136.92C233.096 136.02 232.596 134.78 232.596 133.2V127.38C232.596 125.86 233.096 124.64 234.096 123.72C235.116 122.8 236.506 122.34 238.266 122.34C240.026 122.34 241.406 122.8 242.406 123.72C243.426 124.64 243.936 125.86 243.936 127.38V131.25ZM238.266 125.97C237.846 125.97 237.496 126.13 237.216 126.45C236.956 126.77 236.826 127.18 236.826 127.68V128.85C236.826 128.95 236.876 129 236.976 129H239.556C239.656 129 239.706 128.95 239.706 128.85V127.68C239.706 127.18 239.566 126.77 239.286 126.45C239.026 126.13 238.686 125.97 238.266 125.97ZM252.772 122.4C253.312 122.4 253.732 122.5 254.032 122.7C254.192 122.8 254.252 122.95 254.212 123.15L253.642 126.66C253.622 126.88 253.482 126.96 253.222 126.9C253.002 126.82 252.732 126.78 252.412 126.78C252.112 126.78 251.852 126.82 251.632 126.9C251.172 126.98 250.802 127.26 250.522 127.74C250.242 128.2 250.102 128.74 250.102 129.36V137.61C250.102 137.71 250.062 137.8 249.982 137.88C249.922 137.94 249.842 137.97 249.742 137.97H246.232C246.132 137.97 246.042 137.94 245.962 137.88C245.902 137.8 245.872 137.71 245.872 137.61V122.94C245.872 122.84 245.902 122.76 245.962 122.7C246.042 122.62 246.132 122.58 246.232 122.58H249.742C249.842 122.58 249.922 122.62 249.982 122.7C250.062 122.76 250.102 122.84 250.102 122.94V124.11C250.102 124.19 250.112 124.24 250.132 124.26C250.172 124.26 250.212 124.23 250.252 124.17C250.792 122.99 251.632 122.4 252.772 122.4ZM257.819 138.12C257.139 138.12 256.569 137.9 256.109 137.46C255.669 137 255.449 136.43 255.449 135.75C255.449 135.05 255.669 134.48 256.109 134.04C256.549 133.6 257.119 133.38 257.819 133.38C258.519 133.38 259.089 133.6 259.529 134.04C259.969 134.48 260.189 135.05 260.189 135.75C260.189 136.43 259.959 137 259.499 137.46C259.059 137.9 258.499 138.12 257.819 138.12Z" fill="black"/>
<path d="M272.905 133.824C272.569 133.824 272.281 133.776 272.041 133.68C271.801 133.572 271.507 133.416 271.159 133.212C270.883 133.056 270.655 132.942 270.475 132.87C270.307 132.786 270.115 132.744 269.899 132.744C269.347 132.744 268.915 132.99 268.603 133.482C268.543 133.602 268.459 133.626 268.351 133.554L267.865 133.266C267.769 133.206 267.739 133.122 267.775 133.014C267.967 132.594 268.237 132.258 268.585 132.006C268.945 131.742 269.347 131.61 269.791 131.61C270.079 131.61 270.331 131.652 270.547 131.736C270.775 131.82 271.009 131.94 271.249 132.096C271.573 132.3 271.849 132.45 272.077 132.546C272.305 132.642 272.563 132.69 272.851 132.69C273.091 132.69 273.289 132.63 273.445 132.51C273.613 132.39 273.781 132.21 273.949 131.97C274.021 131.874 274.105 131.856 274.201 131.916L274.723 132.258C274.819 132.318 274.837 132.396 274.777 132.492C274.249 133.38 273.625 133.824 272.905 133.824ZM282.429 138.144C281.541 138.144 280.821 137.868 280.269 137.316C279.717 136.752 279.441 136.014 279.441 135.102V133.59C279.441 133.47 279.501 133.41 279.621 133.41H280.539C280.659 133.41 280.719 133.47 280.719 133.59V135.12C280.719 135.684 280.875 136.146 281.187 136.506C281.499 136.854 281.913 137.028 282.429 137.028C282.933 137.028 283.341 136.854 283.653 136.506C283.977 136.146 284.139 135.684 284.139 135.12V125.58C284.139 125.46 284.199 125.4 284.319 125.4H285.237C285.357 125.4 285.417 125.46 285.417 125.58V135.102C285.417 136.014 285.141 136.752 284.589 137.316C284.037 137.868 283.317 138.144 282.429 138.144ZM290.435 138.144C289.571 138.144 288.881 137.892 288.365 137.388C287.861 136.884 287.609 136.218 287.609 135.39V131.52C287.609 130.704 287.867 130.038 288.383 129.522C288.899 129.006 289.583 128.748 290.435 128.748C291.299 128.748 291.989 129.006 292.505 129.522C293.021 130.038 293.279 130.704 293.279 131.52V135.39C293.279 136.218 293.021 136.884 292.505 137.388C291.989 137.892 291.299 138.144 290.435 138.144ZM290.435 137.01C290.891 137.01 291.263 136.854 291.551 136.542C291.851 136.23 292.001 135.816 292.001 135.3V131.592C292.001 131.076 291.851 130.662 291.551 130.35C291.263 130.026 290.891 129.864 290.435 129.864C289.979 129.864 289.607 130.026 289.319 130.35C289.031 130.662 288.887 131.076 288.887 131.592V135.3C288.887 135.816 289.031 136.23 289.319 136.542C289.607 136.854 289.979 137.01 290.435 137.01ZM298.518 128.766C299.25 128.766 299.814 129.018 300.21 129.522C300.618 130.026 300.822 130.728 300.822 131.628V137.82C300.822 137.94 300.762 138 300.642 138H299.724C299.604 138 299.544 137.94 299.544 137.82V131.736C299.544 131.148 299.412 130.692 299.148 130.368C298.896 130.044 298.542 129.882 298.086 129.882C297.606 129.882 297.228 130.056 296.952 130.404C296.688 130.752 296.556 131.226 296.556 131.826V137.82C296.556 137.94 296.496 138 296.376 138H295.458C295.338 138 295.278 137.94 295.278 137.82V125.58C295.278 125.46 295.338 125.4 295.458 125.4H296.376C296.496 125.4 296.556 125.46 296.556 125.58V129.648C296.556 129.672 296.568 129.69 296.592 129.702C296.616 129.714 296.634 129.702 296.646 129.666C296.862 129.366 297.132 129.144 297.456 129C297.792 128.844 298.146 128.766 298.518 128.766ZM306.147 128.766C306.879 128.766 307.443 129.018 307.839 129.522C308.247 130.026 308.451 130.728 308.451 131.628V137.82C308.451 137.94 308.391 138 308.271 138H307.353C307.233 138 307.173 137.94 307.173 137.82V131.736C307.173 131.148 307.041 130.692 306.777 130.368C306.525 130.044 306.171 129.882 305.715 129.882C305.235 129.882 304.857 130.056 304.581 130.404C304.317 130.752 304.185 131.226 304.185 131.826V137.82C304.185 137.94 304.125 138 304.005 138H303.087C302.967 138 302.907 137.94 302.907 137.82V129.072C302.907 128.952 302.967 128.892 303.087 128.892H304.005C304.125 128.892 304.185 128.952 304.185 129.072V129.648C304.185 129.672 304.197 129.69 304.221 129.702C304.245 129.714 304.263 129.702 304.275 129.666C304.491 129.366 304.761 129.144 305.085 129C305.421 128.844 305.775 128.766 306.147 128.766ZM319.089 138C318.981 138 318.915 137.946 318.891 137.838L318.441 135.606C318.441 135.582 318.429 135.564 318.405 135.552C318.393 135.54 318.375 135.534 318.351 135.534H315.093C315.069 135.534 315.045 135.54 315.021 135.552C315.009 135.564 315.003 135.582 315.003 135.606L314.553 137.838C314.541 137.946 314.475 138 314.355 138H313.437C313.377 138 313.329 137.982 313.293 137.946C313.269 137.91 313.263 137.862 313.275 137.802L315.975 125.562C315.999 125.454 316.065 125.4 316.173 125.4H317.253C317.373 125.4 317.439 125.454 317.451 125.562L320.187 137.802V137.838C320.187 137.946 320.133 138 320.025 138H319.089ZM315.237 134.418C315.237 134.466 315.255 134.49 315.291 134.49H318.135C318.171 134.49 318.189 134.466 318.189 134.418L316.749 127.344C316.737 127.308 316.725 127.29 316.713 127.29C316.701 127.29 316.689 127.308 316.677 127.344L315.237 134.418ZM322.134 137.964C321.834 137.964 321.588 137.868 321.396 137.676C321.216 137.484 321.126 137.244 321.126 136.956C321.126 136.656 321.216 136.416 321.396 136.236C321.588 136.044 321.834 135.948 322.134 135.948C322.422 135.948 322.662 136.044 322.854 136.236C323.046 136.416 323.142 136.656 323.142 136.956C323.142 137.244 323.046 137.484 322.854 137.676C322.662 137.868 322.422 137.964 322.134 137.964ZM334.241 125.526C334.277 125.442 334.349 125.4 334.457 125.4H335.393C335.513 125.4 335.573 125.46 335.573 125.58V137.82C335.573 137.94 335.513 138 335.393 138H334.475C334.355 138 334.295 137.94 334.295 137.82V128.172C334.295 128.136 334.283 128.118 334.259 128.118C334.247 128.118 334.229 128.13 334.205 128.154L332.333 132.042C332.297 132.126 332.237 132.168 332.153 132.168C332.057 132.168 331.991 132.126 331.955 132.042L330.083 128.172C330.059 128.148 330.035 128.136 330.011 128.136C329.999 128.136 329.993 128.154 329.993 128.19V137.82C329.993 137.94 329.933 138 329.813 138H328.895C328.775 138 328.715 137.94 328.715 137.82V125.58C328.715 125.46 328.775 125.4 328.895 125.4H329.831C329.939 125.4 330.011 125.442 330.047 125.526L332.099 129.684C332.111 129.708 332.129 129.72 332.153 129.72C332.177 129.72 332.195 129.708 332.207 129.684L334.241 125.526ZM340.568 138.144C339.704 138.144 339.014 137.892 338.498 137.388C337.994 136.884 337.742 136.218 337.742 135.39V131.52C337.742 130.704 338 130.038 338.516 129.522C339.032 129.006 339.716 128.748 340.568 128.748C341.432 128.748 342.122 129.006 342.638 129.522C343.154 130.038 343.412 130.704 343.412 131.52V135.39C343.412 136.218 343.154 136.884 342.638 137.388C342.122 137.892 341.432 138.144 340.568 138.144ZM340.568 137.01C341.024 137.01 341.396 136.854 341.684 136.542C341.984 136.23 342.134 135.816 342.134 135.3V131.592C342.134 131.076 341.984 130.662 341.684 130.35C341.396 130.026 341.024 129.864 340.568 129.864C340.112 129.864 339.74 130.026 339.452 130.35C339.164 130.662 339.02 131.076 339.02 131.592V135.3C339.02 135.816 339.164 136.23 339.452 136.542C339.74 136.854 340.112 137.01 340.568 137.01ZM348.489 128.802C348.789 128.802 349.047 128.868 349.263 129C349.347 129.048 349.377 129.126 349.353 129.234L349.137 130.17C349.125 130.278 349.053 130.314 348.921 130.278C348.777 130.206 348.597 130.17 348.381 130.17C348.285 130.17 348.213 130.176 348.165 130.188C347.733 130.212 347.379 130.44 347.103 130.872C346.826 131.292 346.688 131.808 346.688 132.42V137.82C346.688 137.94 346.629 138 346.509 138H345.591C345.471 138 345.411 137.94 345.411 137.82V129.072C345.411 128.952 345.471 128.892 345.591 128.892H346.509C346.629 128.892 346.688 128.952 346.688 129.072V130.152C346.688 130.188 346.694 130.206 346.707 130.206C346.731 130.206 346.755 130.194 346.779 130.17C347.127 129.258 347.697 128.802 348.489 128.802ZM353.744 128.802C354.044 128.802 354.302 128.868 354.518 129C354.602 129.048 354.632 129.126 354.608 129.234L354.392 130.17C354.38 130.278 354.308 130.314 354.176 130.278C354.032 130.206 353.852 130.17 353.636 130.17C353.54 130.17 353.468 130.176 353.42 130.188C352.988 130.212 352.634 130.44 352.358 130.872C352.082 131.292 351.944 131.808 351.944 132.42V137.82C351.944 137.94 351.884 138 351.764 138H350.846C350.726 138 350.666 137.94 350.666 137.82V129.072C350.666 128.952 350.726 128.892 350.846 128.892H351.764C351.884 128.892 351.944 128.952 351.944 129.072V130.152C351.944 130.188 351.95 130.206 351.962 130.206C351.986 130.206 352.01 130.194 352.034 130.17C352.382 129.258 352.952 128.802 353.744 128.802ZM356.696 127.236C356.396 127.236 356.15 127.14 355.958 126.948C355.778 126.756 355.688 126.516 355.688 126.228C355.688 125.928 355.778 125.688 355.958 125.508C356.15 125.316 356.396 125.22 356.696 125.22C356.984 125.22 357.218 125.316 357.398 125.508C357.59 125.688 357.686 125.928 357.686 126.228C357.686 126.516 357.59 126.756 357.398 126.948C357.218 127.14 356.984 127.236 356.696 127.236ZM356.246 138C356.126 138 356.066 137.94 356.066 137.82V129.072C356.066 128.952 356.126 128.892 356.246 128.892H357.164C357.284 128.892 357.344 128.952 357.344 129.072V137.82C357.344 137.94 357.284 138 357.164 138H356.246ZM362.042 138.09C361.214 138.09 360.548 137.88 360.044 137.46C359.552 137.028 359.306 136.458 359.306 135.75V135.624C359.306 135.504 359.366 135.444 359.486 135.444H360.35C360.47 135.444 360.53 135.504 360.53 135.624V135.732C360.53 136.116 360.668 136.44 360.944 136.704C361.232 136.968 361.604 137.1 362.06 137.1C362.492 137.1 362.84 136.968 363.104 136.704C363.368 136.44 363.5 136.104 363.5 135.696C363.5 135.384 363.416 135.126 363.248 134.922C363.08 134.706 362.882 134.538 362.654 134.418C362.438 134.298 362.108 134.142 361.664 133.95C361.196 133.758 360.806 133.572 360.494 133.392C360.194 133.2 359.93 132.936 359.702 132.6C359.486 132.252 359.378 131.814 359.378 131.286C359.378 130.518 359.612 129.912 360.08 129.468C360.56 129.024 361.202 128.802 362.006 128.802C362.822 128.802 363.47 129.03 363.95 129.486C364.43 129.942 364.67 130.548 364.67 131.304V131.358C364.67 131.478 364.61 131.538 364.49 131.538H363.662C363.542 131.538 363.482 131.478 363.482 131.358V131.25C363.482 130.842 363.344 130.506 363.068 130.242C362.804 129.978 362.456 129.846 362.024 129.846C361.592 129.846 361.244 129.984 360.98 130.26C360.728 130.524 360.602 130.854 360.602 131.25C360.602 131.538 360.68 131.784 360.836 131.988C360.992 132.18 361.184 132.342 361.412 132.474C361.64 132.594 361.958 132.744 362.366 132.924C362.858 133.14 363.26 133.344 363.572 133.536C363.896 133.728 364.178 133.998 364.418 134.346C364.658 134.694 364.778 135.126 364.778 135.642C364.778 136.386 364.532 136.98 364.04 137.424C363.548 137.868 362.882 138.09 362.042 138.09ZM369.027 138.144C368.163 138.144 367.473 137.892 366.957 137.388C366.453 136.884 366.201 136.218 366.201 135.39V131.52C366.201 130.704 366.459 130.038 366.975 129.522C367.491 129.006 368.175 128.748 369.027 128.748C369.891 128.748 370.581 129.006 371.097 129.522C371.613 130.038 371.871 130.704 371.871 131.52V135.39C371.871 136.218 371.613 136.884 371.097 137.388C370.581 137.892 369.891 138.144 369.027 138.144ZM369.027 137.01C369.483 137.01 369.855 136.854 370.143 136.542C370.443 136.23 370.593 135.816 370.593 135.3V131.592C370.593 131.076 370.443 130.662 370.143 130.35C369.855 130.026 369.483 129.864 369.027 129.864C368.571 129.864 368.199 130.026 367.911 130.35C367.623 130.662 367.479 131.076 367.479 131.592V135.3C367.479 135.816 367.623 136.23 367.911 136.542C368.199 136.854 368.571 137.01 369.027 137.01ZM377.109 128.766C377.841 128.766 378.405 129.018 378.801 129.522C379.209 130.026 379.413 130.728 379.413 131.628V137.82C379.413 137.94 379.353 138 379.233 138H378.315C378.195 138 378.135 137.94 378.135 137.82V131.736C378.135 131.148 378.003 130.692 377.739 130.368C377.487 130.044 377.133 129.882 376.677 129.882C376.197 129.882 375.819 130.056 375.543 130.404C375.279 130.752 375.147 131.226 375.147 131.826V137.82C375.147 137.94 375.087 138 374.967 138H374.049C373.929 138 373.869 137.94 373.869 137.82V129.072C373.869 128.952 373.929 128.892 374.049 128.892H374.967C375.087 128.892 375.147 128.952 375.147 129.072V129.648C375.147 129.672 375.159 129.69 375.183 129.702C375.207 129.714 375.225 129.702 375.237 129.666C375.453 129.366 375.723 129.144 376.047 129C376.383 128.844 376.737 128.766 377.109 128.766Z" fill="#757575"/>
</svg>
