<svg width="76" height="430" viewBox="0 0 76 430" fill="none" xmlns="http://www.w3.org/2000/svg">
<path opacity="0.1" d="M74.412 36.6316C75.204 37.0636 75.6 37.7116 75.6 38.5756L75.6 55.4236C75.6 55.9276 75.456 56.3236 75.168 56.6116C74.88 56.8996 74.484 57.0436 73.98 57.0436L1.62 57.0436C1.116 57.0436 0.719997 56.8996 0.431997 56.6116C0.143997 56.3236 -2.5321e-06 55.9276 -2.51007e-06 55.4236L-1.76417e-06 38.3596C-1.74214e-06 37.8556 0.143998 37.4596 0.431998 37.1716C0.719998 36.8836 1.116 36.7396 1.62 36.7396L45.576 36.7396C45.864 36.7396 46.044 36.6316 46.116 36.4156C46.188 36.2716 46.08 36.1276 45.792 35.9836L35.424 29.8276L33.48 28.7476L33.48 28.6396L45.792 21.5116C46.08 21.3676 46.188 21.1876 46.116 20.9716C46.116 20.8276 45.936 20.7556 45.576 20.7556L1.62 20.7556C1.116 20.7556 0.719999 20.6116 0.431999 20.3236C0.143999 20.0356 -9.45897e-07 19.6396 -9.23866e-07 19.1356L-1.77975e-07 2.07159C-1.55944e-07 1.56759 0.144 1.17159 0.432 0.883589C0.72 0.595589 1.116 0.451589 1.62 0.451589L73.98 0.451592C74.484 0.451592 74.88 0.595592 75.168 0.883592C75.456 1.17159 75.6 1.56759 75.6 2.07159L75.6 18.9196C75.6 19.8556 75.204 20.5036 74.412 20.8636L60.588 28.4236C60.372 28.5676 60.228 28.7116 60.156 28.8556C60.156 29.0716 60.3 29.2156 60.588 29.2876L74.412 36.6316ZM-4.29174e-06 96.1835C-4.24453e-06 95.1035 0.503996 94.5275 1.512 94.4555L9.612 93.2675C9.756 93.2675 9.9 93.1955 10.044 93.0515C10.188 92.9075 10.26 92.7275 10.26 92.5115L10.26 83.0075C10.26 82.7915 10.188 82.6115 10.044 82.4675C9.9 82.3235 9.756 82.2515 9.612 82.2515L1.512 81.1715C0.503996 81.0995 -3.60722e-06 80.5235 -3.56001e-06 79.4435L-2.81884e-06 62.4875C-2.76848e-06 61.3355 0.575997 60.8675 1.728 61.0835L74.196 76.4195C75.132 76.6355 75.6 77.2475 75.6 78.2555L75.6 97.9115C75.6 98.9195 75.132 99.5315 74.196 99.7475L1.72799 115.083L1.29599 115.083C0.431995 115.083 -5.09585e-06 114.579 -5.05179e-06 113.571L-4.29174e-06 96.1835ZM26.46 84.6275C26.028 84.6275 25.812 84.8075 25.812 85.1675L25.812 90.2435C25.812 90.7475 26.028 90.9275 26.46 90.7835L45.9 87.8675C46.188 87.7955 46.332 87.6875 46.332 87.5435C46.332 87.3995 46.188 87.2915 45.9 87.2195L26.46 84.6275ZM-5.33622e-06 120.078C-5.31104e-06 119.502 0.143995 119.07 0.431995 118.782C0.791995 118.566 1.25999 118.566 1.83599 118.782L37.368 132.93C37.656 133.074 37.944 133.074 38.232 132.93L73.764 118.782C73.98 118.71 74.232 118.674 74.52 118.674C75.24 118.674 75.6 119.142 75.6 120.078L75.6 137.358C75.6 137.79 75.456 138.186 75.168 138.546C74.952 138.906 74.628 139.122 74.196 139.194L59.4 143.514C59.112 143.658 58.968 143.802 58.968 143.946C58.968 144.162 59.112 144.306 59.4 144.378L74.196 148.698C74.628 148.77 74.952 148.986 75.168 149.346C75.456 149.706 75.6 150.102 75.6 150.534L75.6 167.706C75.6 168.282 75.42 168.678 75.06 168.894C74.772 169.182 74.34 169.218 73.764 169.002L38.232 154.854C37.944 154.71 37.656 154.71 37.368 154.854L1.83599 169.002C1.61999 169.074 1.36799 169.11 1.07999 169.11C0.359993 169.11 -7.45902e-06 168.642 -7.41811e-06 167.706L-6.67221e-06 150.642C-6.65333e-06 150.21 0.107993 149.814 0.323993 149.454C0.611993 149.094 0.971993 148.878 1.40399 148.806L16.092 144.378C16.38 144.306 16.524 144.162 16.524 143.946C16.524 143.802 16.38 143.658 16.092 143.514L1.40399 139.086C0.971994 139.014 0.611994 138.798 0.323994 138.438C0.107994 138.078 -6.10571e-06 137.682 -6.08683e-06 137.25L-5.33622e-06 120.078ZM-7.75767e-06 175.475C-7.73564e-06 174.971 0.143992 174.575 0.431992 174.287C0.719992 173.999 1.11599 173.855 1.61999 173.855L73.98 173.855C74.484 173.855 74.88 173.999 75.168 174.287C75.456 174.575 75.6 174.971 75.6 175.475L75.6 192.539C75.6 193.043 75.456 193.439 75.168 193.727C74.88 194.015 74.484 194.159 73.98 194.159L1.61999 194.159C1.11599 194.159 0.719991 194.015 0.431991 193.727C0.143991 193.439 -8.52559e-06 193.043 -8.50356e-06 192.539L-7.75767e-06 175.475ZM74.412 235.44C75.204 235.872 75.6 236.52 75.6 237.384L75.6 254.232C75.6 254.736 75.456 255.132 75.168 255.42C74.88 255.708 74.484 255.852 73.98 255.852L1.61999 255.852C1.11599 255.852 0.719989 255.708 0.431989 255.42C0.143989 255.132 -1.12223e-05 254.736 -1.12003e-05 254.232L-1.04544e-05 237.168C-1.04323e-05 236.664 0.14399 236.268 0.43199 235.98C0.71999 235.692 1.11599 235.548 1.61999 235.548L45.576 235.548C45.864 235.548 46.044 235.44 46.116 235.224C46.188 235.08 46.08 234.936 45.792 234.792L35.424 228.636L33.48 227.556L33.48 227.448L45.792 220.32C46.08 220.176 46.188 219.996 46.116 219.78C46.116 219.636 45.936 219.564 45.576 219.564L1.61999 219.564C1.11599 219.564 0.71999 219.42 0.43199 219.132C0.14399 218.844 -9.6361e-06 218.448 -9.61407e-06 217.944L-8.86817e-06 200.88C-8.84614e-06 200.376 0.143991 199.98 0.431991 199.692C0.719991 199.404 1.11599 199.26 1.61999 199.26L73.98 199.26C74.484 199.26 74.88 199.404 75.168 199.692C75.456 199.98 75.6 200.376 75.6 200.88L75.6 217.728C75.6 218.664 75.204 219.312 74.412 219.672L60.588 227.232C60.372 227.376 60.228 227.52 60.156 227.664C60.156 227.88 60.3 228.024 60.588 228.096L74.412 235.44ZM-1.15657e-05 262.592C-1.15437e-05 262.088 0.143988 261.692 0.431989 261.404C0.719989 261.116 1.11599 260.972 1.61999 260.972L73.98 260.972C74.484 260.972 74.88 261.116 75.168 261.404C75.456 261.692 75.6 262.088 75.6 262.592L75.6 279.656C75.6 280.16 75.456 280.556 75.168 280.844C74.88 281.132 74.484 281.276 73.98 281.276L1.61999 281.276C1.11599 281.276 0.719988 281.132 0.431988 280.844C0.143988 280.556 -1.23336e-05 280.16 -1.23116e-05 279.656L-1.15657e-05 262.592ZM-1.26337e-05 287.025C-1.26117e-05 286.521 0.143987 286.125 0.431987 285.837C0.719987 285.549 1.11599 285.405 1.61999 285.405L16.308 285.405C16.956 285.405 17.64 285.585 18.36 285.945L57.456 306.573C57.96 306.789 58.212 306.645 58.212 306.141L58.212 287.025C58.212 286.521 58.356 286.125 58.644 285.837C58.932 285.549 59.328 285.405 59.832 285.405L73.98 285.405C74.484 285.405 74.88 285.549 75.168 285.837C75.456 286.125 75.6 286.521 75.6 287.025L75.6 326.769C75.6 327.273 75.456 327.669 75.168 327.957C74.88 328.245 74.484 328.389 73.98 328.389L59.292 328.389C58.644 328.389 57.96 328.209 57.24 327.849L18.144 307.005C17.64 306.789 17.388 306.933 17.388 307.437L17.388 326.769C17.388 327.273 17.244 327.669 16.956 327.957C16.668 328.245 16.272 328.389 15.768 328.389L1.61999 328.389C1.11599 328.389 0.719986 328.245 0.431986 327.957C0.143986 327.669 -1.4393e-05 327.273 -1.4371e-05 326.769L-1.26337e-05 287.025ZM59.832 375.891C59.328 375.891 58.932 375.747 58.644 375.459C58.356 375.171 58.212 374.775 58.212 374.271L58.212 353.643C58.212 353.211 57.996 352.995 57.564 352.995L47.196 352.995C46.764 352.995 46.548 353.211 46.548 353.643L46.548 364.335C46.548 364.839 46.404 365.235 46.116 365.523C45.828 365.811 45.432 365.955 44.928 365.955L30.78 365.955C30.276 365.955 29.88 365.811 29.592 365.523C29.304 365.235 29.16 364.839 29.16 364.335L29.16 353.643C29.16 353.211 28.944 352.995 28.512 352.995L18.036 352.995C17.604 352.995 17.388 353.211 17.388 353.643L17.388 374.271C17.388 374.775 17.244 375.171 16.956 375.459C16.668 375.747 16.272 375.891 15.768 375.891L1.61998 375.891C1.11598 375.891 0.719984 375.747 0.431984 375.459C0.143984 375.171 -1.64694e-05 374.775 -1.64473e-05 374.271L-1.47006e-05 334.311C-1.46786e-05 333.807 0.143985 333.411 0.431985 333.123C0.719985 332.835 1.11599 332.691 1.61999 332.691L73.98 332.691C74.484 332.691 74.88 332.835 75.168 333.123C75.456 333.411 75.6 333.807 75.6 334.311L75.6 374.271C75.6 374.775 75.456 375.171 75.168 375.459C74.88 375.747 74.484 375.891 73.98 375.891L59.832 375.891ZM-1.80162e-05 410.163C-1.79753e-05 409.227 0.467982 408.651 1.40398 408.435L28.512 401.847C28.872 401.703 29.052 401.559 29.052 401.415C29.052 401.127 28.836 400.983 28.404 400.983L1.61998 400.983C1.11598 400.983 0.719982 400.839 0.431982 400.551C0.143982 400.263 -1.75662e-05 399.867 -1.75441e-05 399.363L-1.67982e-05 382.299C-1.67762e-05 381.795 0.143983 381.399 0.431983 381.111C0.719983 380.823 1.11598 380.679 1.61998 380.679L73.98 380.679C74.484 380.679 74.88 380.823 75.168 381.111C75.456 381.399 75.6 381.795 75.6 382.299L75.6 406.599C75.6 410.919 74.556 414.735 72.468 418.047C70.452 421.431 67.608 424.059 63.936 425.931C60.336 427.803 56.196 428.739 51.516 428.739C47.556 428.739 43.992 428.055 40.824 426.687C37.728 425.319 35.208 423.339 33.264 420.747C33.048 420.459 32.76 420.351 32.4 420.423L1.83598 429.171C1.69198 429.243 1.51198 429.279 1.29598 429.279C0.431981 429.279 -1.88298e-05 428.775 -1.87857e-05 427.767L-1.80162e-05 410.163ZM58.212 401.631C58.212 401.199 57.996 400.983 57.564 400.983L45.144 400.983C44.712 400.983 44.496 401.199 44.496 401.631L44.496 403.035C44.496 404.619 45.072 405.915 46.224 406.923C47.448 407.931 49.14 408.435 51.3 408.435C53.532 408.435 55.224 407.931 56.376 406.923C57.6 405.987 58.212 404.691 58.212 403.035L58.212 401.631Z" fill="#333333"/>
</svg>
