<svg width="122" height="429" viewBox="0 0 122 429" fill="none" xmlns="http://www.w3.org/2000/svg">
<path opacity="0.1" d="M-2.58191e-06 57.0672C-2.50629e-06 55.3372 0.807331 54.4145 2.422 54.2992L15.397 52.3962C15.6277 52.3962 15.8583 52.2809 16.089 52.0502C16.3197 51.8195 16.435 51.5312 16.435 51.1852L16.435 35.9612C16.435 35.6152 16.3197 35.3269 16.089 35.0962C15.8583 34.8655 15.6277 34.7502 15.397 34.7502L2.422 33.0202C0.807332 32.9049 -1.48541e-06 31.9822 -1.40979e-06 30.2522L-2.22544e-07 3.09121C-1.41882e-07 1.24588 0.922667 0.496211 2.768 0.842211L118.851 25.4082C120.35 25.7542 121.1 26.7346 121.1 28.3492L121.1 59.8352C121.1 61.4499 120.35 62.4302 118.851 62.7762L2.768 87.3422L2.076 87.3422C0.691996 87.3422 -3.86998e-06 86.5349 -3.7994e-06 84.9202L-2.58191e-06 57.0672ZM42.385 38.5562C41.693 38.5562 41.347 38.8445 41.347 39.4212L41.347 47.5522C41.347 48.3595 41.693 48.6479 42.385 48.4172L73.525 43.7462C73.9863 43.6309 74.217 43.4579 74.217 43.2272C74.217 42.9965 73.9863 42.8235 73.525 42.7082L42.385 38.5562ZM-4.33064e-06 97.0735C-4.29535e-06 96.2661 0.230662 95.6318 0.691996 95.1705C1.15333 94.7091 1.78766 94.4785 2.595 94.4785L118.505 94.4785C119.312 94.4785 119.947 94.7091 120.408 95.1705C120.869 95.6318 121.1 96.2661 121.1 97.0735L121.1 131.154C121.1 138.766 119.658 145.456 116.775 151.222C113.892 157.104 109.797 161.66 104.492 164.889C99.302 168.119 93.3047 169.733 86.5 169.733L34.6 169.733C27.7953 169.733 21.7403 168.119 16.435 164.889C11.245 161.66 7.20833 157.104 4.32499 151.222C1.44166 145.456 -6.1531e-06 138.766 -5.82037e-06 131.154L-4.33064e-06 97.0735ZM28.891 127.002C28.199 127.002 27.853 127.348 27.853 128.04L28.026 130.462C28.1413 132.308 29.0063 133.865 30.621 135.133C32.2357 136.402 34.3117 137.094 36.849 137.209L84.424 137.209C87.0767 137.209 89.2103 136.575 90.825 135.306C92.4397 134.038 93.247 132.365 93.247 130.289L93.247 128.04C93.247 127.348 92.901 127.002 92.209 127.002L28.891 127.002ZM-1.01144e-05 229.391C-1.00388e-05 227.661 0.807323 226.739 2.42199 226.623L15.397 224.72C15.6277 224.72 15.8583 224.605 16.089 224.374C16.3197 224.144 16.435 223.855 16.435 223.509L16.435 208.285C16.435 207.939 16.3197 207.651 16.089 207.42C15.8583 207.19 15.6277 207.074 15.397 207.074L2.42199 205.344C0.807324 205.229 -9.01794e-06 204.306 -8.94232e-06 202.576L-7.75508e-06 175.415C-7.67441e-06 173.57 0.922659 172.82 2.76799 173.166L118.851 197.732C120.35 198.078 121.1 199.059 121.1 200.673L121.1 232.159C121.1 233.774 120.35 234.754 118.851 235.1L2.76799 259.666L2.07599 259.666C0.691989 259.666 -1.14025e-05 258.859 -1.13319e-05 257.244L-1.01144e-05 229.391ZM42.385 210.88C41.693 210.88 41.347 211.169 41.347 211.745L41.347 219.876C41.347 220.684 41.693 220.972 42.385 220.741L73.525 216.07C73.9863 215.955 74.217 215.782 74.217 215.551C74.217 215.321 73.9863 215.148 73.525 215.032L42.385 210.88ZM121.1 307.977C121.1 314.897 119.428 321.009 116.083 326.315C112.854 331.735 108.298 335.945 102.416 338.944C96.534 341.942 89.787 343.442 82.175 343.442C74.7937 343.442 68.2773 342 62.626 339.117C56.9747 336.349 52.592 332.427 49.478 327.353C46.4793 322.278 44.98 316.396 44.98 309.707L44.98 300.019C44.98 299.327 44.634 298.981 43.942 298.981L2.59499 298.981C1.78765 298.981 1.15332 298.75 0.691987 298.289C0.230654 297.827 -1.30781e-05 297.193 -1.30429e-05 296.386L-1.1848e-05 269.052C-1.18128e-05 268.244 0.230655 267.61 0.691988 267.149C1.15332 266.687 1.78766 266.457 2.59499 266.457L118.505 266.457C119.312 266.457 119.947 266.687 120.408 267.149C120.869 267.61 121.1 268.244 121.1 269.052L121.1 307.977ZM70.065 302.268C70.065 304.92 70.9877 306.996 72.833 308.496C74.7937 310.11 77.677 310.918 81.483 310.918C85.289 310.918 88.1723 310.11 90.133 308.496C92.209 306.996 93.247 304.92 93.247 302.268L93.247 300.019C93.247 299.327 92.901 298.981 92.209 298.981L71.103 298.981C70.411 298.981 70.065 299.327 70.065 300.019L70.065 302.268ZM121.1 426.213C121.1 427.02 120.869 427.654 120.408 428.116C119.947 428.577 119.312 428.808 118.505 428.808L95.842 428.808C95.0347 428.808 94.4003 428.577 93.939 428.116C93.4777 427.654 93.247 427.02 93.247 426.213L93.247 405.799C93.247 405.107 92.901 404.761 92.209 404.761L2.59498 404.761C1.78765 404.761 1.15332 404.53 0.691982 404.069C0.230649 403.607 -1.77019e-05 402.973 -1.76666e-05 402.166L-1.64718e-05 374.832C-1.64365e-05 374.024 0.23065 373.39 0.691984 372.929C1.15332 372.467 1.78765 372.237 2.59498 372.237L92.209 372.237C92.901 372.237 93.247 371.891 93.247 371.199L93.247 351.304C93.247 350.496 93.4777 349.862 93.939 349.401C94.4003 348.939 95.0347 348.709 95.842 348.709L118.505 348.709C119.312 348.709 119.947 348.939 120.408 349.401C120.869 349.862 121.1 350.496 121.1 351.304L121.1 426.213Z" fill="#333333"/>
</svg>
