<svg width="97" height="549" viewBox="0 0 97 549" fill="none" xmlns="http://www.w3.org/2000/svg">
<path opacity="0.1" d="M95.082 47.2237C96.094 47.7757 96.6 48.6037 96.6 49.7077L96.6 71.2357C96.6 71.8797 96.416 72.3857 96.048 72.7537C95.68 73.1217 95.174 73.3057 94.53 73.3057L2.07 73.3057C1.426 73.3057 0.919997 73.1217 0.551997 72.7537C0.183997 72.3857 -3.22938e-06 71.8797 -3.20123e-06 71.2357L-2.24815e-06 49.4317C-2.22e-06 48.7877 0.183998 48.2817 0.551998 47.9137C0.919998 47.5457 1.426 47.3617 2.07 47.3617L58.236 47.3617C58.604 47.3617 58.834 47.2237 58.926 46.9477C59.018 46.7637 58.88 46.5797 58.512 46.3957L45.264 38.5297L42.78 37.1497L42.78 37.0117L58.512 27.9037C58.88 27.7197 59.018 27.4897 58.926 27.2137C58.926 27.0297 58.696 26.9377 58.236 26.9377L2.07 26.9377C1.426 26.9377 0.919999 26.7537 0.551999 26.3857C0.183999 26.0177 -1.20257e-06 25.5117 -1.17442e-06 24.8677L-2.21342e-07 3.0637C-1.93191e-07 2.4197 0.184 1.9137 0.552 1.5457C0.92 1.1777 1.426 0.993697 2.07 0.993697L94.53 0.993701C95.174 0.993701 95.68 1.1777 96.048 1.5457C96.416 1.9137 96.6 2.4197 96.6 3.0637L96.6 24.5917C96.6 25.7877 96.094 26.6157 95.082 27.0757L77.418 36.7357C77.142 36.9197 76.958 37.1037 76.866 37.2877C76.866 37.5637 77.05 37.7477 77.418 37.8397L95.082 47.2237ZM-5.47781e-06 123.318C-5.41749e-06 121.938 0.643995 121.202 1.93199 121.11L12.282 119.592C12.466 119.592 12.65 119.5 12.834 119.316C13.018 119.132 13.11 118.902 13.11 118.626L13.11 106.482C13.11 106.206 13.018 105.976 12.834 105.792C12.65 105.608 12.466 105.516 12.282 105.516L1.932 104.136C0.643995 104.044 -4.60315e-06 103.308 -4.54283e-06 101.928L-3.59578e-06 80.2618C-3.53143e-06 78.7898 0.735997 78.1918 2.208 78.4678L94.806 98.0638C96.002 98.3398 96.6 99.1218 96.6 100.41L96.6 125.526C96.6 126.814 96.002 127.596 94.806 127.872L2.20799 147.468L1.65599 147.468C0.551993 147.468 -6.50529e-06 146.824 -6.44899e-06 145.536L-5.47781e-06 123.318ZM33.81 108.552C33.258 108.552 32.982 108.782 32.982 109.242L32.982 115.728C32.982 116.372 33.258 116.602 33.81 116.418L58.65 112.692C59.018 112.6 59.202 112.462 59.202 112.278C59.202 112.094 59.018 111.956 58.65 111.864L33.81 108.552ZM-6.81243e-06 153.85C-6.78026e-06 153.114 0.183993 152.562 0.551993 152.194C1.01199 151.918 1.60999 151.918 2.34599 152.194L47.748 170.272C48.116 170.456 48.484 170.456 48.852 170.272L94.254 152.194C94.53 152.102 94.852 152.056 95.22 152.056C96.14 152.056 96.6 152.654 96.6 153.85L96.6 175.93C96.6 176.482 96.416 176.988 96.048 177.448C95.772 177.908 95.358 178.184 94.806 178.276L75.9 183.796C75.532 183.98 75.348 184.164 75.348 184.348C75.348 184.624 75.532 184.808 75.9 184.9L94.806 190.42C95.358 190.512 95.772 190.788 96.048 191.248C96.416 191.708 96.6 192.214 96.6 192.766L96.6 214.708C96.6 215.444 96.37 215.95 95.91 216.226C95.542 216.594 94.99 216.64 94.254 216.364L48.852 198.286C48.484 198.102 48.116 198.102 47.748 198.286L2.34599 216.364C2.06999 216.456 1.74799 216.502 1.37999 216.502C0.45999 216.502 -9.5249e-06 215.904 -9.47262e-06 214.708L-8.51954e-06 192.904C-8.49541e-06 192.352 0.137992 191.846 0.413992 191.386C0.781992 190.926 1.24199 190.65 1.79399 190.558L20.562 184.9C20.93 184.808 21.114 184.624 21.114 184.348C21.114 184.164 20.93 183.98 20.562 183.796L1.79399 178.138C1.24199 178.046 0.781992 177.77 0.413992 177.31C0.137992 176.85 -7.79568e-06 176.344 -7.77155e-06 175.792L-6.81243e-06 153.85ZM-9.90651e-06 224.635C-9.87836e-06 223.991 0.18399 223.485 0.55199 223.117C0.91999 222.749 1.42599 222.565 2.06999 222.565L94.53 222.565C95.174 222.565 95.68 222.749 96.048 223.117C96.416 223.485 96.6 223.991 96.6 224.635L96.6 246.439C96.6 247.083 96.416 247.589 96.048 247.957C95.68 248.325 95.174 248.509 94.53 248.509L2.06999 248.509C1.42599 248.509 0.919989 248.325 0.551989 247.957C0.183989 247.589 -1.08877e-05 247.083 -1.08596e-05 246.439L-9.90651e-06 224.635ZM95.082 301.257C96.094 301.809 96.6 302.637 96.6 303.741L96.6 325.269C96.6 325.913 96.416 326.419 96.048 326.787C95.68 327.155 95.174 327.339 94.53 327.339L2.06999 327.339C1.42599 327.339 0.919986 327.155 0.551986 326.787C0.183986 326.419 -1.43335e-05 325.913 -1.43054e-05 325.269L-1.33523e-05 303.465C-1.33241e-05 302.821 0.183987 302.315 0.551987 301.947C0.919987 301.579 1.42599 301.395 2.06999 301.395L58.236 301.395C58.604 301.395 58.834 301.257 58.926 300.981C59.018 300.797 58.88 300.613 58.512 300.429L45.264 292.563L42.78 291.183L42.78 291.045L58.512 281.937C58.88 281.753 59.018 281.523 58.926 281.247C58.926 281.063 58.696 280.971 58.236 280.971L2.06999 280.971C1.42599 280.971 0.919988 280.787 0.551988 280.419C0.183988 280.051 -1.23067e-05 279.545 -1.22786e-05 278.901L-1.13255e-05 257.097C-1.12973e-05 256.453 0.183989 255.947 0.551989 255.579C0.919989 255.211 1.42599 255.027 2.06999 255.027L94.53 255.027C95.174 255.027 95.68 255.211 96.048 255.579C96.416 255.947 96.6 256.453 96.6 257.097L96.6 278.625C96.6 279.821 96.094 280.649 95.082 281.109L77.418 290.769C77.142 290.953 76.958 291.137 76.866 291.321C76.866 291.597 77.05 291.781 77.418 291.873L95.082 301.257ZM-1.47723e-05 335.951C-1.47442e-05 335.307 0.183985 334.801 0.551985 334.433C0.919985 334.065 1.42599 333.881 2.06999 333.881L94.53 333.881C95.174 333.881 95.68 334.065 96.048 334.433C96.416 334.801 96.6 335.307 96.6 335.951L96.6 357.755C96.6 358.399 96.416 358.905 96.048 359.273C95.68 359.641 95.174 359.825 94.53 359.825L2.06998 359.825C1.42598 359.825 0.919984 359.641 0.551984 359.273C0.183984 358.905 -1.57535e-05 358.399 -1.57254e-05 357.755L-1.47723e-05 335.951ZM-1.6137e-05 367.171C-1.61088e-05 366.527 0.183984 366.021 0.551984 365.653C0.919984 365.285 1.42598 365.101 2.06998 365.101L20.838 365.101C21.666 365.101 22.54 365.331 23.46 365.791L73.416 392.149C74.06 392.425 74.382 392.241 74.382 391.597L74.382 367.171C74.382 366.527 74.566 366.021 74.934 365.653C75.302 365.285 75.808 365.101 76.452 365.101L94.53 365.101C95.174 365.101 95.68 365.285 96.048 365.653C96.416 366.021 96.6 366.527 96.6 367.171L96.6 417.955C96.6 418.599 96.416 419.105 96.048 419.473C95.68 419.841 95.174 420.025 94.53 420.025L75.762 420.025C74.934 420.025 74.06 419.795 73.14 419.335L23.184 392.701C22.54 392.425 22.218 392.609 22.218 393.253L22.218 417.955C22.218 418.599 22.034 419.105 21.666 419.473C21.298 419.841 20.792 420.025 20.148 420.025L2.06998 420.025C1.42598 420.025 0.919982 419.841 0.551982 419.473C0.183982 419.105 -1.8385e-05 418.599 -1.83568e-05 417.955L-1.6137e-05 367.171ZM76.452 480.722C75.808 480.722 75.302 480.538 74.934 480.17C74.566 479.802 74.382 479.296 74.382 478.652L74.382 452.294C74.382 451.742 74.106 451.466 73.554 451.466L60.306 451.466C59.754 451.466 59.478 451.742 59.478 452.294L59.478 465.956C59.478 466.6 59.294 467.106 58.926 467.474C58.558 467.842 58.052 468.026 57.408 468.026L39.33 468.026C38.686 468.026 38.18 467.842 37.812 467.474C37.444 467.106 37.26 466.6 37.26 465.956L37.26 452.294C37.26 451.742 36.984 451.466 36.432 451.466L23.046 451.466C22.494 451.466 22.218 451.742 22.218 452.294L22.218 478.652C22.218 479.296 22.034 479.802 21.666 480.17C21.298 480.538 20.792 480.722 20.148 480.722L2.06998 480.722C1.42598 480.722 0.919979 480.538 0.551979 480.17C0.183979 479.802 -2.10381e-05 479.296 -2.10099e-05 478.652L-1.8778e-05 427.592C-1.87499e-05 426.948 0.183981 426.442 0.551981 426.074C0.919981 425.706 1.42598 425.522 2.06998 425.522L94.53 425.522C95.174 425.522 95.68 425.706 96.048 426.074C96.416 426.442 96.6 426.948 96.6 427.592L96.6 478.652C96.6 479.296 96.416 479.802 96.048 480.17C95.68 480.538 95.174 480.722 94.53 480.722L76.452 480.722ZM-2.30147e-05 524.514C-2.29624e-05 523.318 0.597977 522.582 1.79398 522.306L36.432 513.888C36.892 513.704 37.122 513.52 37.122 513.336C37.122 512.968 36.846 512.784 36.294 512.784L2.06998 512.784C1.42598 512.784 0.919978 512.6 0.551978 512.232C0.183978 511.864 -2.24396e-05 511.358 -2.24114e-05 510.714L-2.14584e-05 488.91C-2.14302e-05 488.266 0.183979 487.76 0.551979 487.392C0.919979 487.024 1.42598 486.84 2.06998 486.84L94.53 486.84C95.174 486.84 95.68 487.024 96.048 487.392C96.416 487.76 96.6 488.266 96.6 488.91L96.6 519.96C96.6 525.48 95.266 530.356 92.598 534.588C90.022 538.912 86.388 542.27 81.696 544.662C77.096 547.054 71.806 548.25 65.826 548.25C60.766 548.25 56.212 547.376 52.164 545.628C48.208 543.88 44.988 541.35 42.504 538.038C42.228 537.67 41.86 537.532 41.4 537.624L2.34598 548.802C2.16198 548.894 1.93198 548.94 1.65598 548.94C0.551976 548.94 -2.40542e-05 548.296 -2.39979e-05 547.008L-2.30147e-05 524.514ZM74.382 513.612C74.382 513.06 74.106 512.784 73.554 512.784L57.684 512.784C57.132 512.784 56.856 513.06 56.856 513.612L56.856 515.406C56.856 517.43 57.592 519.086 59.064 520.374C60.628 521.662 62.79 522.306 65.55 522.306C68.402 522.306 70.564 521.662 72.036 520.374C73.6 519.178 74.382 517.522 74.382 515.406L74.382 513.612Z" fill="#333333"/>
</svg>
