<svg width="201" height="16" viewBox="0 0 201 16" fill="none" xmlns="http://www.w3.org/2000/svg">
<path d="M200.354 8.35357C200.549 8.15831 200.549 7.84173 200.354 7.64646L197.172 4.46448C196.976 4.26922 196.66 4.26922 196.464 4.46448C196.269 4.65975 196.269 4.97633 196.464 5.17159L199.293 8.00002L196.464 10.8284C196.269 11.0237 196.269 11.3403 196.464 11.5356C196.66 11.7308 196.976 11.7308 197.172 11.5356L200.354 8.35357ZM-4.37114e-08 8.5L2.5 8.5L2.5 7.5L4.37114e-08 7.5L-4.37114e-08 8.5ZM7.5 8.5L12.5 8.5L12.5 7.5L7.5 7.5L7.5 8.5ZM17.5 8.5L22.5 8.5L22.5 7.5L17.5 7.5L17.5 8.5ZM27.5 8.5L32.5 8.5L32.5 7.5L27.5 7.5L27.5 8.5ZM37.5 8.5L42.5 8.5L42.5 7.5L37.5 7.5L37.5 8.5ZM47.5 8.5L52.5 8.5L52.5 7.5L47.5 7.5L47.5 8.5ZM57.5 8.50001L62.5 8.50001L62.5 7.50001L57.5 7.50001L57.5 8.50001ZM67.5 8.50001L72.5 8.50001L72.5 7.50001L67.5 7.50001L67.5 8.50001ZM77.5 8.50001L82.5 8.50001L82.5 7.50001L77.5 7.50001L77.5 8.50001ZM87.5 8.50001L92.5 8.50001L92.5 7.50001L87.5 7.50001L87.5 8.50001ZM97.5 8.50001L102.5 8.50001L102.5 7.50001L97.5 7.50001L97.5 8.50001ZM107.5 8.50001L112.5 8.50001L112.5 7.50001L107.5 7.50001L107.5 8.50001ZM117.5 8.50001L122.5 8.50001L122.5 7.50001L117.5 7.50001L117.5 8.50001ZM127.5 8.50001L132.5 8.50001L132.5 7.50001L127.5 7.50001L127.5 8.50001ZM137.5 8.50001L142.5 8.50001L142.5 7.50001L137.5 7.50001L137.5 8.50001ZM147.5 8.50001L152.5 8.50001L152.5 7.50001L147.5 7.50001L147.5 8.50001ZM157.5 8.50001L162.5 8.50001L162.5 7.50001L157.5 7.50001L157.5 8.50001ZM167.5 8.50001L172.5 8.50002L172.5 7.50002L167.5 7.50001L167.5 8.50001ZM177.5 8.50002L182.5 8.50002L182.5 7.50002L177.5 7.50002L177.5 8.50002ZM187.5 8.50002L192.5 8.50002L192.5 7.50002L187.5 7.50002L187.5 8.50002ZM197.5 8.50002L200 8.50002L200 7.50002L197.5 7.50002L197.5 8.50002ZM200.707 8.70712C201.098 8.3166 201.098 7.68344 200.707 7.29291L194.343 0.928949C193.953 0.538425 193.319 0.538425 192.929 0.928949C192.538 1.31947 192.538 1.95264 192.929 2.34316L198.586 8.00002L192.929 13.6569C192.538 14.0474 192.538 14.6806 192.929 15.0711C193.319 15.4616 193.953 15.4616 194.343 15.0711L200.707 8.70712ZM-8.74228e-08 9L2.5 9L2.5 7L8.74228e-08 7L-8.74228e-08 9ZM7.5 9L12.5 9L12.5 7L7.5 7L7.5 9ZM17.5 9L22.5 9L22.5 7L17.5 7L17.5 9ZM27.5 9L32.5 9L32.5 7L27.5 7L27.5 9ZM37.5 9L42.5 9L42.5 7L37.5 7L37.5 9ZM47.5 9L52.5 9L52.5 7L47.5 7L47.5 9ZM57.5 9.00001L62.5 9.00001L62.5 7.00001L57.5 7.00001L57.5 9.00001ZM67.5 9.00001L72.5 9.00001L72.5 7.00001L67.5 7.00001L67.5 9.00001ZM77.5 9.00001L82.5 9.00001L82.5 7.00001L77.5 7.00001L77.5 9.00001ZM87.5 9.00001L92.5 9.00001L92.5 7.00001L87.5 7.00001L87.5 9.00001ZM97.5 9.00001L102.5 9.00001L102.5 7.00001L97.5 7.00001L97.5 9.00001ZM107.5 9.00001L112.5 9.00001L112.5 7.00001L107.5 7.00001L107.5 9.00001ZM117.5 9.00001L122.5 9.00001L122.5 7.00001L117.5 7.00001L117.5 9.00001ZM127.5 9.00001L132.5 9.00001L132.5 7.00001L127.5 7.00001L127.5 9.00001ZM137.5 9.00001L142.5 9.00001L142.5 7.00001L137.5 7.00001L137.5 9.00001ZM147.5 9.00001L152.5 9.00001L152.5 7.00001L147.5 7.00001L147.5 9.00001ZM157.5 9.00001L162.5 9.00001L162.5 7.00001L157.5 7.00001L157.5 9.00001ZM167.5 9.00001L172.5 9.00002L172.5 7.00002L167.5 7.00001L167.5 9.00001ZM177.5 9.00002L182.5 9.00002L182.5 7.00002L177.5 7.00002L177.5 9.00002ZM187.5 9.00002L192.5 9.00002L192.5 7.00002L187.5 7.00002L187.5 9.00002ZM197.5 9.00002L200 9.00002L200 7.00002L197.5 7.00002L197.5 9.00002Z" fill="#D4D4CE"/>
</svg>
