<svg width="65" height="21" viewBox="0 0 65 21" fill="none" xmlns="http://www.w3.org/2000/svg">
<path d="M12.472 17.64C12.6747 17.6613 12.776 17.72 12.776 17.816C12.776 17.848 12.7493 17.88 12.696 17.912C12.1947 18.1573 11.8213 17.784 11.576 16.792C11.1707 15.1813 11.1173 12.488 11.416 8.712C11.576 6.76 11.7947 5.03733 12.072 3.544C11.592 4.184 11.0747 5 10.52 5.992C9.96533 6.97333 9.464 7.90133 9.016 8.776C8.57867 9.65067 8.14667 10.4933 7.72 11.304C7.304 12.104 6.92 12.728 6.568 13.176C6.22667 13.6133 5.93867 13.8053 5.704 13.752C5.48 13.6987 5.42667 13.1653 5.544 12.152C5.66133 11.128 5.84267 10.0187 6.088 8.824C6.344 7.61867 6.536 6.504 6.664 5.48C6.80267 4.44533 6.776 3.89067 6.584 3.816C6.44533 3.77333 6.08267 4.36 5.496 5.576C4.90933 6.792 4.25333 8.232 3.528 9.896C2.81333 11.5493 2.376 12.5307 2.216 12.84C1.94933 14.088 1.64533 15.6453 1.304 17.512C1.29333 17.608 1.24533 17.672 1.16 17.704C1.07467 17.736 0.994667 17.7253 0.92 17.672C0.845333 17.6293 0.813333 17.56 0.824 17.464C1.048 15.7573 1.33067 14.0827 1.672 12.44C1.66133 12.4187 1.66133 12.392 1.672 12.36C1.68267 12.328 1.69333 12.3013 1.704 12.28C2.472 8.728 3.48 5.54933 4.728 2.744C4.376 3.11733 3.98133 3.43733 3.544 3.704C3.416 3.77867 3.30933 3.76267 3.224 3.656C3.13867 3.54933 3.14933 3.44267 3.256 3.336C4.312 2.32267 5 1.64533 5.32 1.304C5.42667 1.176 5.53867 1.176 5.656 1.304C5.656 1.304 5.656 1.30933 5.656 1.32C5.66667 1.32 5.672 1.32533 5.672 1.336C5.704 1.368 5.71467 1.40533 5.704 1.448C5.704 1.46933 5.69867 1.48533 5.688 1.496C5.528 2.008 5.128 3.16533 4.488 4.968C3.85867 6.76 3.40533 8.15733 3.128 9.16C3.11733 9.18133 3.10667 9.21333 3.096 9.256C3.08533 9.288 3.07467 9.32533 3.064 9.368C3.05333 9.4 3.04267 9.432 3.032 9.464C5.25067 4.84533 6.552 2.63733 6.936 2.84C7.224 2.98933 7.31467 3.608 7.208 4.696C7.10133 5.77333 6.91467 6.92533 6.648 8.152C6.392 9.37867 6.17333 10.504 5.992 11.528C5.81067 12.552 5.77867 13.0853 5.896 13.128C6.04533 13.1707 6.30667 12.904 6.68 12.328C7.05333 11.752 7.48 11.0053 7.96 10.088C8.45067 9.16 8.94667 8.21067 9.448 7.24C9.96 6.25867 10.4773 5.33067 11 4.456C11.5333 3.57067 11.9707 2.952 12.312 2.6C12.376 2.536 12.4507 2.53067 12.536 2.584C12.6213 2.63733 12.6587 2.70133 12.648 2.776C12.424 4.088 12.2213 5.88 12.04 8.152C11.8693 10.424 11.8 12.5627 11.832 14.568C11.8747 16.5627 12.088 17.5867 12.472 17.64ZM13.8 9.336C13.8213 9.304 13.8533 9.288 13.896 9.288C13.9493 9.27733 13.992 9.288 14.024 9.32C14.0667 9.34133 14.0773 9.37333 14.056 9.416C13.992 9.59733 13.944 9.864 13.912 10.216C13.8907 10.568 13.8747 10.952 13.864 11.368C13.8533 11.7733 13.848 11.9973 13.848 12.04C13.848 12.1147 13.8053 12.1573 13.72 12.168C13.6347 12.1787 13.5813 12.152 13.56 12.088C13.432 11.672 13.384 11.208 13.416 10.696C13.4587 10.1733 13.5867 9.72 13.8 9.336ZM14.248 8.104C14.28 8.18933 14.264 8.264 14.2 8.328C14.1467 8.38133 14.0773 8.41333 13.992 8.424C13.928 8.424 13.8853 8.40267 13.864 8.36C13.8427 8.30667 13.8427 8.25333 13.864 8.2C13.8853 8.14667 13.928 8.12 13.992 8.12C14.0027 8.09867 14.0133 8.08267 14.024 8.072C14.0453 8.01867 14.0827 7.99733 14.136 8.008C14.1893 8.01867 14.2267 8.05067 14.248 8.104ZM20.6041 9.816C20.6895 9.784 20.7375 9.81067 20.7481 9.896C20.7695 9.97067 20.7428 10.024 20.6681 10.056C19.6868 10.4613 18.7801 10.9787 17.9481 11.608C17.8308 13.7307 17.4415 15.496 16.7801 16.904C16.6841 17.1067 16.5508 17.3253 16.3801 17.56C16.2201 17.7947 16.0228 18.0293 15.7881 18.264C15.5535 18.4987 15.3135 18.6853 15.0681 18.824C14.8228 18.9733 14.5615 19.0427 14.2841 19.032C14.0068 19.0213 13.7508 18.904 13.5161 18.68C13.3348 18.5093 13.2281 18.2853 13.1961 18.008C13.1641 17.7307 13.2068 17.4267 13.3241 17.096C13.4415 16.776 13.5748 16.4613 13.7241 16.152C13.8628 15.8533 14.0495 15.5333 14.2841 15.192C14.5081 14.8507 14.6895 14.5893 14.8281 14.408C14.9561 14.216 15.1001 14.024 15.2601 13.832C15.9321 12.968 16.7161 12.2 17.6121 11.528C17.7081 10.44 17.7188 9.66133 17.6441 9.192C17.5801 9.29867 17.5161 9.38933 17.4521 9.464C17.4628 9.464 17.4735 9.46933 17.4841 9.48C17.4948 9.48 17.5001 9.48 17.5001 9.48C17.5321 9.49067 17.5428 9.51733 17.5321 9.56C17.5321 9.592 17.5161 9.61333 17.4841 9.624C17.4415 9.63467 17.3775 9.656 17.2921 9.688C16.9188 10.1893 16.5295 10.6373 16.1241 11.032C16.1028 11.0533 16.0441 11.1173 15.9481 11.224C15.8521 11.3307 15.7668 11.416 15.6921 11.48C15.6281 11.5333 15.5481 11.592 15.4521 11.656C15.3561 11.72 15.2655 11.7413 15.1801 11.72C15.1055 11.6987 15.0468 11.6347 15.0041 11.528C14.8868 11.272 14.9241 10.9787 15.1161 10.648C15.3188 10.3067 15.5481 10.0347 15.8041 9.832C16.2735 9.45867 16.7268 9.30933 17.1641 9.384C17.2495 9.256 17.3348 9.128 17.4201 9C17.3881 8.97867 17.3828 8.94667 17.4041 8.904C17.4148 8.872 17.4308 8.83467 17.4521 8.792C17.4948 8.68533 17.5481 8.616 17.6121 8.584C17.6228 8.584 17.6441 8.57867 17.6761 8.568L17.7081 8.552C17.7508 8.52 17.7935 8.504 17.8361 8.504C17.9001 8.504 17.9375 8.53067 17.9481 8.584C17.9695 8.616 17.9748 8.65333 17.9641 8.696C17.9855 9.67733 17.9855 10.5413 17.9641 11.288C18.7961 10.7013 19.6761 10.2107 20.6041 9.816ZM16.6681 10.024C16.6895 10.0027 16.7161 9.97067 16.7481 9.928C16.7908 9.87467 16.8121 9.848 16.8121 9.848C16.5241 9.944 16.2948 10.0613 16.1241 10.2C15.9215 10.36 15.7455 10.552 15.5961 10.776C15.5001 10.9253 15.4468 11.0373 15.4361 11.112C15.4255 11.1547 15.4095 11.1973 15.3881 11.24C15.3881 11.2613 15.3881 11.272 15.3881 11.272C15.3881 11.272 15.3935 11.2667 15.4041 11.256C15.4361 11.256 15.4575 11.2507 15.4681 11.24C15.5321 11.2293 15.6015 11.1867 15.6761 11.112C15.7615 11.0373 15.8521 10.9413 15.9481 10.824C16.0548 10.7067 16.1188 10.6373 16.1401 10.616C16.3215 10.424 16.4975 10.2267 16.6681 10.024ZM14.2841 18.28C14.6148 18.3547 14.9241 18.3173 15.2121 18.168C15.5001 18.0293 15.7508 17.7947 15.9641 17.464C16.1881 17.144 16.3908 16.7707 16.5721 16.344C16.7535 15.928 16.9081 15.4587 17.0361 14.936C17.1641 14.4133 17.2708 13.9067 17.3561 13.416C17.4415 12.9147 17.5108 12.4027 17.5641 11.88C17.0948 12.264 16.6681 12.6587 16.2841 13.064C16.1028 13.2453 15.9055 13.464 15.6921 13.72C15.4895 13.9653 15.2495 14.2747 14.9721 14.648C14.6948 15.0107 14.4601 15.368 14.2681 15.72C14.0655 16.0827 13.9055 16.4347 13.7881 16.776C13.6601 17.128 13.6388 17.4373 13.7241 17.704C13.7988 17.9707 13.9855 18.1627 14.2841 18.28ZM25.4984 10.312C25.509 10.312 25.5144 10.3173 25.5144 10.328C25.5144 10.3387 25.509 10.3547 25.4984 10.376C25.3917 10.5893 25.3224 10.7227 25.2904 10.776C25.269 10.8187 25.237 10.8293 25.1944 10.808C25.1517 10.7867 25.1357 10.7547 25.1464 10.712C24.8157 10.9787 24.453 11.224 24.0584 11.448C23.6637 11.6613 23.3597 11.752 23.1464 11.72C22.9864 11.688 22.8584 11.5973 22.7624 11.448C22.6664 11.288 22.6077 11.1227 22.5864 10.952C22.565 10.7707 22.5437 10.6053 22.5224 10.456C22.501 10.3067 22.469 10.2267 22.4264 10.216C22.3304 10.2053 22.1864 10.296 21.9944 10.488C21.8024 10.68 21.6157 10.8933 21.4344 11.128C21.253 11.352 21.0557 11.5387 20.8424 11.688C20.629 11.8373 20.4584 11.8693 20.3304 11.784C20.2024 11.6773 20.1384 11.528 20.1384 11.336C20.1384 11.1333 20.1864 10.8987 20.2824 10.632C20.389 10.3653 20.4957 10.136 20.6024 9.944C20.709 9.74133 20.805 9.58133 20.8904 9.464C20.9224 9.41067 20.965 9.4 21.0184 9.432C21.0824 9.45333 21.109 9.496 21.0984 9.56C21.0877 9.624 21.0557 9.74667 21.0024 9.928C20.949 10.0987 20.8957 10.2693 20.8424 10.44C20.789 10.6107 20.7357 10.792 20.6824 10.984C20.6397 11.176 20.613 11.32 20.6024 11.416C20.6024 11.512 20.6237 11.5813 20.6664 11.624C20.709 11.6347 20.7837 11.5813 20.8904 11.464C21.0077 11.3467 21.1357 11.2027 21.2744 11.032C21.413 10.8507 21.5464 10.6747 21.6744 10.504C21.813 10.3227 21.941 10.1733 22.0584 10.056C22.1864 9.928 22.2824 9.85867 22.3464 9.848C22.4744 9.848 22.5597 9.98133 22.6024 10.248C22.6557 10.504 22.7197 10.776 22.7944 11.064C22.8797 11.3413 23.029 11.496 23.2424 11.528C23.4024 11.5387 23.6264 11.4747 23.9144 11.336C24.213 11.1973 24.4957 11.032 24.7624 10.84C25.029 10.6373 25.237 10.4507 25.3864 10.28C25.429 10.2267 25.4664 10.2373 25.4984 10.312ZM28.1635 9.592C28.1848 9.54933 28.2168 9.53333 28.2595 9.544C28.3128 9.544 28.3502 9.56 28.3715 9.592C28.3928 9.624 28.3928 9.66133 28.3715 9.704C27.9768 10.2907 27.5395 10.7867 27.0595 11.192C27.0488 11.2027 27.0008 11.2453 26.9155 11.32C26.8408 11.384 26.7875 11.4267 26.7555 11.448C26.7342 11.4693 26.6862 11.512 26.6115 11.576C26.5368 11.6293 26.4782 11.672 26.4355 11.704C26.4035 11.7253 26.3502 11.7573 26.2755 11.8C26.2115 11.8427 26.1528 11.88 26.0995 11.912C26.0462 11.9333 25.9875 11.9547 25.9235 11.976C25.8595 11.9973 25.8008 12.0133 25.7475 12.024C25.4702 12.0667 25.2622 12.008 25.1235 11.848C24.9742 11.6773 24.9048 11.4747 24.9155 11.24C24.9262 11.0053 24.9742 10.7813 25.0595 10.568C25.1128 10.472 25.1822 10.3493 25.2675 10.2C25.3635 10.04 25.4862 9.864 25.6355 9.672C25.7848 9.46933 25.9342 9.304 26.0835 9.176C26.2328 9.048 26.3822 8.952 26.5315 8.888C26.6915 8.824 26.8302 8.85067 26.9475 8.968C27.0542 9.05333 27.1075 9.14933 27.1075 9.256C27.1182 9.36267 27.0862 9.464 27.0115 9.56C26.9475 9.656 26.8622 9.752 26.7555 9.848C26.6488 9.93333 26.5208 10.0187 26.3715 10.104C26.2328 10.1787 26.0995 10.248 25.9715 10.312C25.8542 10.3653 25.7368 10.4187 25.6195 10.472C25.4702 10.792 25.4062 11.0853 25.4275 11.352C25.4595 11.6187 25.6195 11.7253 25.9075 11.672C26.1422 11.6187 26.5208 11.352 27.0435 10.872C27.5662 10.3813 27.9395 9.95467 28.1635 9.592ZM26.3235 9.368C26.2382 9.37867 26.1048 9.53333 25.9235 9.832C25.9342 9.832 25.9395 9.832 25.9395 9.832C26.2488 9.58667 26.4035 9.44267 26.4035 9.4C26.3928 9.37867 26.3662 9.368 26.3235 9.368ZM32.2586 9.512C32.3013 9.45867 32.3493 9.448 32.4026 9.48C32.4666 9.512 32.4826 9.56 32.4506 9.624C32.3653 9.784 32.1893 10.1307 31.9226 10.664C31.6666 11.1867 31.464 11.5813 31.3146 11.848C31.1653 12.1147 30.968 12.4613 30.7226 12.888C30.4773 13.304 30.232 13.672 29.9866 13.992C29.7413 14.312 29.4906 14.6 29.2346 14.856C28.968 15.1227 28.7546 15.24 28.5946 15.208C28.4346 15.176 28.2853 14.984 28.1466 14.632C27.9653 14.152 27.8586 13.592 27.8266 12.952C27.7946 12.312 27.8053 11.7627 27.8586 11.304C27.9013 10.8453 27.976 10.2747 28.0826 9.592C28.488 7.192 29.1066 5.24 29.9386 3.736C29.9706 3.68267 30.0186 3.672 30.0826 3.704C30.1573 3.72533 30.184 3.768 30.1626 3.832C29.7573 4.89867 29.3786 6.22667 29.0266 7.816C28.6746 9.39467 28.456 10.856 28.3706 12.2C28.296 13.544 28.504 14.3387 28.9946 14.584C29.1226 14.6373 29.3306 14.4827 29.6186 14.12C29.9173 13.7467 30.2373 13.2667 30.5786 12.68C30.9306 12.0827 31.192 11.6187 31.3626 11.288C31.544 10.9573 31.6986 10.6747 31.8266 10.44C31.8373 10.184 31.9173 10.0293 32.0666 9.976C32.024 9.92267 32.0186 9.86933 32.0506 9.816L32.2586 9.512ZM45.9291 13.992C45.9398 13.928 45.9718 13.8853 46.0251 13.864C46.0785 13.832 46.1265 13.832 46.1691 13.864C46.2225 13.8853 46.2491 13.928 46.2491 13.992C46.2065 14.8453 45.7211 15.56 44.7931 16.136C43.7798 16.776 42.6225 17.0213 41.3211 16.872C39.6891 16.6907 38.3878 15.9173 37.4171 14.552C36.9371 13.8693 36.5691 13.0587 36.3131 12.12C35.6518 15.608 35.4278 18.3707 35.6411 20.408C35.6518 20.504 35.6145 20.5733 35.5291 20.616C35.4545 20.6587 35.3745 20.6587 35.2891 20.616C35.2145 20.5733 35.1665 20.504 35.1451 20.408C35.0385 19.4587 35.0545 18.0827 35.1931 16.28C35.3318 14.4773 35.5771 12.6267 35.9291 10.728C35.7798 10.5893 35.6465 10.4347 35.5291 10.264C35.4225 10.1253 35.4545 10.04 35.6251 10.008C35.7851 9.96533 35.9185 10.008 36.0251 10.136C36.0358 10.1467 36.0411 10.152 36.0411 10.152C36.6491 7.03733 37.3958 4.648 38.2811 2.984C38.1958 3.03733 38.1211 3.08 38.0571 3.112C37.9505 3.144 37.8651 3.11733 37.8011 3.032C37.7478 2.936 37.7425 2.84533 37.7851 2.76C37.9025 2.504 38.1318 2.24267 38.4731 1.976C38.5158 1.944 38.6171 1.87467 38.7771 1.768C38.9371 1.65067 39.0545 1.55467 39.1291 1.48C39.1611 1.32 39.2625 1.288 39.4331 1.384C39.4331 1.384 39.4385 1.37867 39.4491 1.368C39.4598 1.35733 39.4705 1.34667 39.4811 1.336C39.5025 1.31467 39.5291 1.30933 39.5611 1.32C39.5931 1.32 39.6198 1.336 39.6411 1.368C39.6625 1.38933 39.6678 1.416 39.6571 1.448C39.6465 1.448 39.6145 1.50133 39.5611 1.608C39.5611 1.608 39.5558 1.61333 39.5451 1.624C39.5451 1.63467 39.5451 1.64 39.5451 1.64C39.5238 1.71467 39.4758 1.8 39.4011 1.896C38.9745 2.728 38.5318 3.848 38.0731 5.256C37.6145 6.65333 37.1985 8.15733 36.8251 9.768C37.2091 8.76533 37.6838 7.67733 38.2491 6.504C38.8251 5.33067 39.4278 4.20533 40.0571 3.128C40.6865 2.05067 41.2945 1.21867 41.8811 0.631999C42.4678 0.0346657 42.9211 -0.130667 43.2411 0.136C43.5185 0.359999 43.6891 0.711999 43.7531 1.192C43.8171 1.672 43.7798 2.21067 43.6411 2.808C43.5131 3.40533 43.3105 4.05067 43.0331 4.744C42.7558 5.42667 42.4251 6.09867 42.0411 6.76C41.6678 7.42133 41.2465 8.05067 40.7771 8.648C40.3185 9.23467 39.8491 9.736 39.3691 10.152C38.8998 10.5573 38.4198 10.8507 37.9291 11.032C37.4385 11.2133 36.9851 11.2347 36.5691 11.096V11.112C36.5585 11.1227 36.5478 11.1333 36.5371 11.144C37.0598 13.4053 38.1371 14.968 39.7691 15.832C40.9638 16.472 42.2011 16.6267 43.4811 16.296C44.5158 16.0293 45.2411 15.528 45.6571 14.792C45.7958 14.536 45.8865 14.2693 45.9291 13.992ZM42.7131 0.823999C42.4891 0.76 42.2065 0.893333 41.8651 1.224C41.5345 1.544 41.1771 2.008 40.7931 2.616C40.4091 3.224 40.0198 3.88 39.6251 4.584C39.2411 5.27733 38.8571 6.02933 38.4731 6.84C38.0891 7.65067 37.7638 8.35467 37.4971 8.952C37.2305 9.54933 36.9851 10.104 36.7611 10.616C37.7958 10.7547 38.9531 9.99733 40.2331 8.344C41.2998 6.968 42.1211 5.44267 42.6971 3.768C43.2305 2.264 43.3051 1.32 42.9211 0.935999C42.8571 0.882666 42.7878 0.845332 42.7131 0.823999ZM48.1078 10.312C48.1184 10.312 48.1238 10.3173 48.1238 10.328C48.1238 10.3387 48.1184 10.3547 48.1078 10.376C48.0011 10.5893 47.9318 10.7227 47.8998 10.776C47.8784 10.8187 47.8464 10.8293 47.8038 10.808C47.7611 10.7867 47.7451 10.7547 47.7558 10.712C47.4251 10.9787 47.0624 11.224 46.6678 11.448C46.2731 11.6613 45.9691 11.752 45.7558 11.72C45.5958 11.688 45.4678 11.5973 45.3718 11.448C45.2758 11.288 45.2171 11.1227 45.1957 10.952C45.1744 10.7707 45.1531 10.6053 45.1318 10.456C45.1104 10.3067 45.0784 10.2267 45.0358 10.216C44.9398 10.2053 44.7958 10.296 44.6038 10.488C44.4118 10.68 44.2251 10.8933 44.0438 11.128C43.8624 11.352 43.6651 11.5387 43.4518 11.688C43.2384 11.8373 43.0678 11.8693 42.9398 11.784C42.8117 11.6773 42.7477 11.528 42.7477 11.336C42.7477 11.1333 42.7957 10.8987 42.8918 10.632C42.9984 10.3653 43.1051 10.136 43.2118 9.944C43.3184 9.74133 43.4144 9.58133 43.4998 9.464C43.5318 9.41067 43.5744 9.4 43.6278 9.432C43.6918 9.45333 43.7184 9.496 43.7078 9.56C43.6971 9.624 43.6651 9.74667 43.6118 9.928C43.5584 10.0987 43.5051 10.2693 43.4518 10.44C43.3984 10.6107 43.3451 10.792 43.2918 10.984C43.2491 11.176 43.2224 11.32 43.2118 11.416C43.2118 11.512 43.2331 11.5813 43.2758 11.624C43.3184 11.6347 43.3931 11.5813 43.4998 11.464C43.6171 11.3467 43.7451 11.2027 43.8838 11.032C44.0224 10.8507 44.1558 10.6747 44.2838 10.504C44.4224 10.3227 44.5504 10.1733 44.6678 10.056C44.7958 9.928 44.8918 9.85867 44.9557 9.848C45.0838 9.848 45.1691 9.98133 45.2118 10.248C45.2651 10.504 45.3291 10.776 45.4038 11.064C45.4891 11.3413 45.6384 11.496 45.8518 11.528C46.0118 11.5387 46.2358 11.4747 46.5238 11.336C46.8224 11.1973 47.1051 11.032 47.3718 10.84C47.6384 10.6373 47.8464 10.4507 47.9958 10.28C48.0384 10.2267 48.0758 10.2373 48.1078 10.312ZM51.7649 3.192C51.8182 3.16 51.8715 3.16533 51.9249 3.208C51.9782 3.25067 51.9942 3.304 51.9729 3.368C51.6315 4.456 51.2155 5.544 50.7249 6.632C49.9142 10.1413 49.7169 13.5493 50.1329 16.856C50.1435 16.9307 50.1009 16.9733 50.0049 16.984C49.9195 17.0053 49.8715 16.9733 49.8609 16.888C49.4875 14.1467 49.4662 11.5813 49.7969 9.192C49.8289 8.91467 49.8769 8.60533 49.9409 8.264C49.7275 8.66933 49.5035 9.08 49.2689 9.496C49.3115 9.51733 49.3435 9.53867 49.3649 9.56C49.4395 9.61333 49.4609 9.68267 49.4289 9.768C49.3969 9.84267 49.3382 9.86933 49.2529 9.848C49.1995 9.82667 49.1409 9.816 49.0769 9.816C48.5755 10.6587 48.0475 11.4693 47.4929 12.248C47.4609 12.2907 47.4182 12.312 47.3649 12.312C47.3115 12.3013 47.2742 12.2693 47.2529 12.216C47.1355 11.8853 47.1409 11.4693 47.2689 10.968C47.3969 10.4667 47.6262 10.0453 47.9569 9.704C48.2982 9.36267 48.6555 9.256 49.0289 9.384C49.2742 8.94667 49.4715 8.58933 49.6209 8.312C49.7809 8.01333 49.9515 7.66667 50.1329 7.272C50.2929 6.54667 50.4849 5.848 50.7089 5.176C50.7302 5.10133 50.7675 4.96267 50.8209 4.76C50.8849 4.55733 50.9382 4.39733 50.9809 4.28C51.0235 4.152 51.0769 4.01333 51.1409 3.864C51.2155 3.704 51.3009 3.57067 51.3969 3.464C51.5035 3.34667 51.6262 3.256 51.7649 3.192ZM48.1169 10.888C48.2875 10.632 48.5009 10.2853 48.7569 9.848C48.3835 9.976 48.0689 10.2853 47.8129 10.776C47.4609 11.4587 47.3382 11.7733 47.4449 11.72C47.5622 11.6667 47.7862 11.3893 48.1169 10.888ZM54.8899 3.192C54.9432 3.16 54.9965 3.16533 55.0499 3.208C55.1032 3.25067 55.1192 3.304 55.0979 3.368C54.7565 4.456 54.3405 5.544 53.8499 6.632C53.0392 10.1413 52.8419 13.5493 53.2579 16.856C53.2685 16.9307 53.2259 16.9733 53.1299 16.984C53.0445 17.0053 52.9965 16.9733 52.9859 16.888C52.6125 14.1467 52.5912 11.5813 52.9219 9.192C52.9539 8.91467 53.0019 8.60533 53.0659 8.264C52.8525 8.66933 52.6285 9.08 52.3939 9.496C52.4365 9.51733 52.4685 9.53867 52.4899 9.56C52.5645 9.61333 52.5859 9.68267 52.5539 9.768C52.5219 9.84267 52.4632 9.86933 52.3779 9.848C52.3245 9.82667 52.2659 9.816 52.2019 9.816C51.7005 10.6587 51.1725 11.4693 50.6179 12.248C50.5859 12.2907 50.5432 12.312 50.4899 12.312C50.4365 12.3013 50.3992 12.2693 50.3779 12.216C50.2605 11.8853 50.2659 11.4693 50.3939 10.968C50.5219 10.4667 50.7512 10.0453 51.0819 9.704C51.4232 9.36267 51.7805 9.256 52.1539 9.384C52.3992 8.94667 52.5965 8.58933 52.7459 8.312C52.9059 8.01333 53.0765 7.66667 53.2579 7.272C53.4179 6.54667 53.6099 5.848 53.8339 5.176C53.8552 5.10133 53.8925 4.96267 53.9459 4.76C54.0099 4.55733 54.0632 4.39733 54.1059 4.28C54.1485 4.152 54.2019 4.01333 54.2659 3.864C54.3405 3.704 54.4259 3.57067 54.5219 3.464C54.6285 3.34667 54.7512 3.256 54.8899 3.192ZM51.2419 10.888C51.4125 10.632 51.6259 10.2853 51.8819 9.848C51.5085 9.976 51.1939 10.2853 50.9379 10.776C50.5859 11.4587 50.4632 11.7733 50.5699 11.72C50.6872 11.6667 50.9112 11.3893 51.2419 10.888ZM57.6149 9.4C57.6682 9.32533 57.7215 9.32533 57.7749 9.4C57.8069 9.432 57.8069 9.464 57.7749 9.496C57.1775 10.3707 56.3349 10.856 55.2469 10.952C55.0015 11.656 54.6389 12.008 54.1589 12.008C54.0095 11.9973 53.9402 11.832 53.9509 11.512C53.9615 11.1813 54.0362 10.8507 54.1749 10.52C54.0042 10.2107 54.0149 9.86933 54.2069 9.496C54.2602 9.368 54.3402 9.26133 54.4469 9.176C54.5535 9.09067 54.6602 9.04267 54.7669 9.032C54.8735 9.01067 54.9749 9.02133 55.0709 9.064C55.1775 9.096 55.2629 9.16533 55.3269 9.272C55.4015 9.368 55.4442 9.496 55.4549 9.656C55.4762 9.976 55.4282 10.3387 55.3109 10.744C56.1962 10.6587 56.9642 10.2107 57.6149 9.4ZM54.1429 11.768C54.2602 11.8 54.3775 11.736 54.4949 11.576C54.6122 11.416 54.7189 11.208 54.8149 10.952C54.6122 10.92 54.4469 10.84 54.3189 10.712C54.2229 10.9147 54.1535 11.1227 54.1109 11.336C54.0789 11.5493 54.0895 11.6933 54.1429 11.768ZM54.8789 10.712C54.9322 10.4987 54.9695 10.296 54.9909 10.104C54.8095 10.1147 54.6389 10.2267 54.4789 10.44C54.5962 10.5787 54.7295 10.6693 54.8789 10.712ZM54.3509 10.216C54.5429 9.928 54.7562 9.79467 54.9909 9.816C54.9695 9.45333 54.8469 9.32533 54.6229 9.432C54.4629 9.50667 54.3615 9.61867 54.3189 9.768C54.2762 9.91733 54.2869 10.0667 54.3509 10.216ZM60.3861 10.072C60.4288 10.04 60.4661 10.0507 60.4981 10.104C60.5408 10.1573 60.5408 10.2 60.4981 10.232C59.6235 10.904 58.7115 11.448 57.7621 11.864C57.7515 11.864 57.7301 11.8693 57.6981 11.88C57.5488 11.9547 57.4261 12.008 57.3301 12.04C57.2448 12.0613 57.1328 12.0827 56.9941 12.104C56.8661 12.1253 56.7541 12.104 56.6581 12.04C56.5728 11.976 56.4981 11.8693 56.4341 11.72C56.3168 11.4 56.4395 10.8987 56.8021 10.216C57.1435 9.576 57.4741 9.22933 57.7941 9.176C57.9648 9.144 58.1035 9.24 58.2101 9.464C58.2315 9.51733 58.2315 9.56 58.2101 9.592C58.2101 9.60267 58.1995 9.61867 58.1781 9.64C58.1675 9.65067 58.1568 9.66133 58.1461 9.672C58.1248 9.69333 58.0928 9.704 58.0501 9.704C58.0181 9.704 58.0021 9.688 58.0021 9.656C57.9915 9.496 57.8421 9.58133 57.5541 9.912C57.1275 10.424 56.9035 10.8773 56.8821 11.272C56.8715 11.4747 56.9355 11.608 57.0741 11.672C57.3088 11.7893 57.7941 11.6507 58.5301 11.256C59.2661 10.8507 59.8848 10.456 60.3861 10.072ZM64.4168 10.344C64.4701 10.28 64.5234 10.2747 64.5768 10.328C64.6301 10.3707 64.6354 10.424 64.5928 10.488C64.4861 10.648 64.3634 10.8187 64.2248 11C64.0861 11.1707 63.9154 11.368 63.7128 11.592C63.5208 11.8053 63.3288 12.008 63.1368 12.2C62.9448 12.3813 62.7368 12.552 62.5128 12.712C62.2888 12.872 62.0701 13 61.8568 13.096C61.6541 13.1813 61.4461 13.2187 61.2328 13.208C61.0301 13.1973 60.8488 13.1333 60.6888 13.016C60.5181 12.8773 60.3848 12.6 60.2888 12.184C60.1501 13.2507 60.0808 14.264 60.0808 15.224C60.0808 15.3093 60.0381 15.352 59.9527 15.352C59.8674 15.352 59.8247 15.3093 59.8247 15.224C59.8034 14.168 59.8407 13.1067 59.9367 12.04C59.9047 12.0827 59.8621 12.0933 59.8087 12.072C59.7554 12.0507 59.7181 12.0187 59.6967 11.976C59.6754 11.9333 59.6807 11.8907 59.7127 11.848C59.8621 11.6773 59.9527 11.5707 59.9848 11.528C60.2728 8.968 60.8861 6.53067 61.8248 4.216C61.8568 4.14133 61.9154 4.12533 62.0008 4.168C62.0861 4.2 62.1181 4.25867 62.0968 4.344C61.7341 5.58133 61.4301 6.67467 61.1848 7.624C60.9394 8.57333 60.7314 9.50667 60.5608 10.424C60.8594 9.51733 61.1581 8.808 61.4568 8.296C61.7661 7.784 62.0541 7.68267 62.3207 7.992C62.6088 8.33333 61.9794 9.48 60.4328 11.432C60.4968 11.432 60.5288 11.4693 60.5288 11.544C60.5714 12.248 60.7154 12.68 60.9608 12.84C61.6648 13.2987 62.7794 12.52 64.3048 10.504C64.3581 10.4293 64.3954 10.376 64.4168 10.344ZM61.8568 8.152C61.5794 8.09867 61.1688 8.968 60.6248 10.76C61.8301 9.26667 62.2408 8.39733 61.8568 8.152Z" fill="#EEEEEE"/>
</svg>
