<svg width="49" height="17" viewBox="0 0 49 17" fill="none" xmlns="http://www.w3.org/2000/svg">
<path d="M9.604 13.98C9.756 13.996 9.832 14.04 9.832 14.112C9.832 14.136 9.812 14.16 9.772 14.184C9.396 14.368 9.116 14.088 8.932 13.344C8.628 12.136 8.588 10.116 8.812 7.284C8.932 5.82 9.096 4.528 9.304 3.408C8.944 3.888 8.556 4.5 8.14 5.244C7.724 5.98 7.348 6.676 7.012 7.332C6.684 7.988 6.36 8.62 6.04 9.228C5.728 9.828 5.44 10.296 5.176 10.632C4.92 10.96 4.704 11.104 4.528 11.064C4.36 11.024 4.32 10.624 4.408 9.864C4.496 9.096 4.632 8.264 4.816 7.368C5.008 6.464 5.152 5.628 5.248 4.86C5.352 4.084 5.332 3.668 5.188 3.612C5.084 3.58 4.812 4.02 4.372 4.932C3.932 5.844 3.44 6.924 2.896 8.172C2.36 9.412 2.032 10.148 1.912 10.38C1.712 11.316 1.484 12.484 1.228 13.884C1.22 13.956 1.184 14.004 1.12 14.028C1.056 14.052 0.996 14.044 0.94 14.004C0.884 13.972 0.86 13.92 0.868 13.848C1.036 12.568 1.248 11.312 1.504 10.08C1.496 10.064 1.496 10.044 1.504 10.02C1.512 9.996 1.52 9.976 1.528 9.96C2.104 7.296 2.86 4.912 3.796 2.808C3.532 3.088 3.236 3.328 2.908 3.528C2.812 3.584 2.732 3.572 2.668 3.492C2.604 3.412 2.612 3.332 2.692 3.252C3.484 2.492 4 1.984 4.24 1.728C4.32 1.632 4.404 1.632 4.492 1.728C4.492 1.728 4.492 1.732 4.492 1.74C4.5 1.74 4.504 1.744 4.504 1.752C4.528 1.776 4.536 1.804 4.528 1.836C4.528 1.852 4.524 1.864 4.516 1.872C4.396 2.256 4.096 3.124 3.616 4.476C3.144 5.82 2.804 6.868 2.596 7.62C2.588 7.636 2.58 7.66 2.572 7.692C2.564 7.716 2.556 7.744 2.548 7.776C2.54 7.8 2.532 7.824 2.524 7.848C4.188 4.384 5.164 2.728 5.452 2.88C5.668 2.992 5.736 3.456 5.656 4.272C5.576 5.08 5.436 5.944 5.236 6.864C5.044 7.784 4.88 8.628 4.744 9.396C4.608 10.164 4.584 10.564 4.672 10.596C4.784 10.628 4.98 10.428 5.26 9.996C5.54 9.564 5.86 9.004 6.22 8.316C6.588 7.62 6.96 6.908 7.336 6.18C7.72 5.444 8.108 4.748 8.5 4.092C8.9 3.428 9.228 2.964 9.484 2.7C9.532 2.652 9.588 2.648 9.652 2.688C9.716 2.728 9.744 2.776 9.736 2.832C9.568 3.816 9.416 5.16 9.28 6.864C9.152 8.568 9.1 10.172 9.124 11.676C9.156 13.172 9.316 13.94 9.604 13.98ZM10.6 7.752C10.616 7.728 10.64 7.716 10.672 7.716C10.712 7.708 10.744 7.716 10.768 7.74C10.8 7.756 10.808 7.78 10.792 7.812C10.744 7.948 10.708 8.148 10.684 8.412C10.668 8.676 10.656 8.964 10.648 9.276C10.64 9.58 10.636 9.748 10.636 9.78C10.636 9.836 10.604 9.868 10.54 9.876C10.476 9.884 10.436 9.864 10.42 9.816C10.324 9.504 10.288 9.156 10.312 8.772C10.344 8.38 10.44 8.04 10.6 7.752ZM10.936 6.828C10.96 6.892 10.948 6.948 10.9 6.996C10.86 7.036 10.808 7.06 10.744 7.068C10.696 7.068 10.664 7.052 10.648 7.02C10.632 6.98 10.632 6.94 10.648 6.9C10.664 6.86 10.696 6.84 10.744 6.84C10.752 6.824 10.76 6.812 10.768 6.804C10.784 6.764 10.812 6.748 10.852 6.756C10.892 6.764 10.92 6.788 10.936 6.828ZM15.7031 8.112C15.7671 8.088 15.8031 8.108 15.8111 8.172C15.8271 8.228 15.8071 8.268 15.7511 8.292C15.0151 8.596 14.3351 8.984 13.7111 9.456C13.6231 11.048 13.3311 12.372 12.8351 13.428C12.7631 13.58 12.6631 13.744 12.5351 13.92C12.4151 14.096 12.2671 14.272 12.0911 14.448C11.9151 14.624 11.7351 14.764 11.5511 14.868C11.3671 14.98 11.1711 15.032 10.9631 15.024C10.7551 15.016 10.5631 14.928 10.3871 14.76C10.2511 14.632 10.1711 14.464 10.1471 14.256C10.1231 14.048 10.1551 13.82 10.2431 13.572C10.3311 13.332 10.4311 13.096 10.5431 12.864C10.6471 12.64 10.7871 12.4 10.9631 12.144C11.1311 11.888 11.2671 11.692 11.3711 11.556C11.4671 11.412 11.5751 11.268 11.6951 11.124C12.1991 10.476 12.7871 9.9 13.4591 9.396C13.5311 8.58 13.5391 7.996 13.4831 7.644C13.4351 7.724 13.3871 7.792 13.3391 7.848C13.3471 7.848 13.3551 7.852 13.3631 7.86C13.3711 7.86 13.3751 7.86 13.3751 7.86C13.3991 7.868 13.4071 7.888 13.3991 7.92C13.3991 7.944 13.3871 7.96 13.3631 7.968C13.3311 7.976 13.2831 7.992 13.2191 8.016C12.9391 8.392 12.6471 8.728 12.3431 9.024C12.3271 9.04 12.2831 9.088 12.2111 9.168C12.1391 9.248 12.0751 9.312 12.0191 9.36C11.9711 9.4 11.9111 9.444 11.8391 9.492C11.7671 9.54 11.6991 9.556 11.6351 9.54C11.5791 9.524 11.5351 9.476 11.5031 9.396C11.4151 9.204 11.4431 8.984 11.5871 8.736C11.7391 8.48 11.9111 8.276 12.1031 8.124C12.4551 7.844 12.7951 7.732 13.1231 7.788C13.1871 7.692 13.2511 7.596 13.3151 7.5C13.2911 7.484 13.2871 7.46 13.3031 7.428C13.3111 7.404 13.3231 7.376 13.3391 7.344C13.3711 7.264 13.4111 7.212 13.4591 7.188C13.4671 7.188 13.4831 7.184 13.5071 7.176L13.5311 7.164C13.5631 7.14 13.5951 7.128 13.6271 7.128C13.6751 7.128 13.7031 7.148 13.7111 7.188C13.7271 7.212 13.7311 7.24 13.7231 7.272C13.7391 8.008 13.7391 8.656 13.7231 9.216C14.3471 8.776 15.0071 8.408 15.7031 8.112ZM12.7511 8.268C12.7671 8.252 12.7871 8.228 12.8111 8.196C12.8431 8.156 12.8591 8.136 12.8591 8.136C12.6431 8.208 12.4711 8.296 12.3431 8.4C12.1911 8.52 12.0591 8.664 11.9471 8.832C11.8751 8.944 11.8351 9.028 11.8271 9.084C11.8191 9.116 11.8071 9.148 11.7911 9.18C11.7911 9.196 11.7911 9.204 11.7911 9.204C11.7911 9.204 11.7951 9.2 11.8031 9.192C11.8271 9.192 11.8431 9.188 11.8511 9.18C11.8991 9.172 11.9511 9.14 12.0071 9.084C12.0711 9.028 12.1391 8.956 12.2111 8.868C12.2911 8.78 12.3391 8.728 12.3551 8.712C12.4911 8.568 12.6231 8.42 12.7511 8.268ZM10.9631 14.46C11.2111 14.516 11.4431 14.488 11.6591 14.376C11.8751 14.272 12.0631 14.096 12.2231 13.848C12.3911 13.608 12.5431 13.328 12.6791 13.008C12.8151 12.696 12.9311 12.344 13.0271 11.952C13.1231 11.56 13.2031 11.18 13.2671 10.812C13.3311 10.436 13.3831 10.052 13.4231 9.66C13.0711 9.948 12.7511 10.244 12.4631 10.548C12.3271 10.684 12.1791 10.848 12.0191 11.04C11.8671 11.224 11.6871 11.456 11.4791 11.736C11.2711 12.008 11.0951 12.276 10.9511 12.54C10.7991 12.812 10.6791 13.076 10.5911 13.332C10.4951 13.596 10.4791 13.828 10.5431 14.028C10.5991 14.228 10.7391 14.372 10.9631 14.46ZM19.3738 8.484C19.3818 8.484 19.3858 8.488 19.3858 8.496C19.3858 8.504 19.3818 8.516 19.3738 8.532C19.2938 8.692 19.2418 8.792 19.2178 8.832C19.2018 8.864 19.1778 8.872 19.1458 8.856C19.1138 8.84 19.1018 8.816 19.1098 8.784C18.8618 8.984 18.5898 9.168 18.2938 9.336C17.9978 9.496 17.7698 9.564 17.6098 9.54C17.4898 9.516 17.3938 9.448 17.3218 9.336C17.2498 9.216 17.2058 9.092 17.1898 8.964C17.1738 8.828 17.1578 8.704 17.1418 8.592C17.1258 8.48 17.1018 8.42 17.0698 8.412C16.9978 8.404 16.8898 8.472 16.7458 8.616C16.6018 8.76 16.4618 8.92 16.3258 9.096C16.1898 9.264 16.0418 9.404 15.8818 9.516C15.7218 9.628 15.5938 9.652 15.4978 9.588C15.4018 9.508 15.3538 9.396 15.3538 9.252C15.3538 9.1 15.3898 8.924 15.4618 8.724C15.5418 8.524 15.6218 8.352 15.7018 8.208C15.7818 8.056 15.8538 7.936 15.9178 7.848C15.9418 7.808 15.9738 7.8 16.0138 7.824C16.0618 7.84 16.0818 7.872 16.0738 7.92C16.0658 7.968 16.0418 8.06 16.0018 8.196C15.9618 8.324 15.9218 8.452 15.8818 8.58C15.8418 8.708 15.8018 8.844 15.7618 8.988C15.7298 9.132 15.7098 9.24 15.7018 9.312C15.7018 9.384 15.7178 9.436 15.7498 9.468C15.7818 9.476 15.8378 9.436 15.9178 9.348C16.0058 9.26 16.1018 9.152 16.2058 9.024C16.3098 8.888 16.4098 8.756 16.5058 8.628C16.6098 8.492 16.7058 8.38 16.7938 8.292C16.8898 8.196 16.9618 8.144 17.0098 8.136C17.1058 8.136 17.1698 8.236 17.2018 8.436C17.2418 8.628 17.2898 8.832 17.3458 9.048C17.4098 9.256 17.5218 9.372 17.6818 9.396C17.8018 9.404 17.9698 9.356 18.1858 9.252C18.4098 9.148 18.6218 9.024 18.8218 8.88C19.0218 8.728 19.1778 8.588 19.2898 8.46C19.3218 8.42 19.3498 8.428 19.3738 8.484ZM21.3726 7.944C21.3886 7.912 21.4126 7.9 21.4446 7.908C21.4846 7.908 21.5126 7.92 21.5286 7.944C21.5446 7.968 21.5446 7.996 21.5286 8.028C21.2326 8.468 20.9046 8.84 20.5446 9.144C20.5366 9.152 20.5006 9.184 20.4366 9.24C20.3806 9.288 20.3406 9.32 20.3166 9.336C20.3006 9.352 20.2646 9.384 20.2086 9.432C20.1526 9.472 20.1086 9.504 20.0766 9.528C20.0526 9.544 20.0126 9.568 19.9566 9.6C19.9086 9.632 19.8646 9.66 19.8246 9.684C19.7846 9.7 19.7406 9.716 19.6926 9.732C19.6446 9.748 19.6006 9.76 19.5606 9.768C19.3526 9.8 19.1966 9.756 19.0926 9.636C18.9806 9.508 18.9286 9.356 18.9366 9.18C18.9446 9.004 18.9806 8.836 19.0446 8.676C19.0846 8.604 19.1366 8.512 19.2006 8.4C19.2726 8.28 19.3646 8.148 19.4766 8.004C19.5886 7.852 19.7006 7.728 19.8126 7.632C19.9246 7.536 20.0366 7.464 20.1486 7.416C20.2686 7.368 20.3726 7.388 20.4606 7.476C20.5406 7.54 20.5806 7.612 20.5806 7.692C20.5886 7.772 20.5646 7.848 20.5086 7.92C20.4606 7.992 20.3966 8.064 20.3166 8.136C20.2366 8.2 20.1406 8.264 20.0286 8.328C19.9246 8.384 19.8246 8.436 19.7286 8.484C19.6406 8.524 19.5526 8.564 19.4646 8.604C19.3526 8.844 19.3046 9.064 19.3206 9.264C19.3446 9.464 19.4646 9.544 19.6806 9.504C19.8566 9.464 20.1406 9.264 20.5326 8.904C20.9246 8.536 21.2046 8.216 21.3726 7.944ZM19.9926 7.776C19.9286 7.784 19.8286 7.9 19.6926 8.124C19.7006 8.124 19.7046 8.124 19.7046 8.124C19.9366 7.94 20.0526 7.832 20.0526 7.8C20.0446 7.784 20.0246 7.776 19.9926 7.776ZM24.444 7.884C24.476 7.844 24.512 7.836 24.552 7.86C24.6 7.884 24.612 7.92 24.588 7.968C24.524 8.088 24.392 8.348 24.192 8.748C24 9.14 23.848 9.436 23.736 9.636C23.624 9.836 23.476 10.096 23.292 10.416C23.108 10.728 22.924 11.004 22.74 11.244C22.556 11.484 22.368 11.7 22.176 11.892C21.976 12.092 21.816 12.18 21.696 12.156C21.576 12.132 21.464 11.988 21.36 11.724C21.224 11.364 21.144 10.944 21.12 10.464C21.096 9.984 21.104 9.572 21.144 9.228C21.176 8.884 21.232 8.456 21.312 7.944C21.616 6.144 22.08 4.68 22.704 3.552C22.728 3.512 22.764 3.504 22.812 3.528C22.868 3.544 22.888 3.576 22.872 3.624C22.568 4.424 22.284 5.42 22.02 6.612C21.756 7.796 21.592 8.892 21.528 9.9C21.472 10.908 21.628 11.504 21.996 11.688C22.092 11.728 22.248 11.612 22.464 11.34C22.688 11.06 22.928 10.7 23.184 10.26C23.448 9.812 23.644 9.464 23.772 9.216C23.908 8.968 24.024 8.756 24.12 8.58C24.128 8.388 24.188 8.272 24.3 8.232C24.268 8.192 24.264 8.152 24.288 8.112L24.444 7.884ZM34.6968 11.244C34.7048 11.196 34.7288 11.164 34.7688 11.148C34.8088 11.124 34.8448 11.124 34.8768 11.148C34.9168 11.164 34.9368 11.196 34.9368 11.244C34.9048 11.884 34.5408 12.42 33.8448 12.852C33.0848 13.332 32.2168 13.516 31.2408 13.404C30.0168 13.268 29.0408 12.688 28.3128 11.664C27.9528 11.152 27.6768 10.544 27.4848 9.84C26.9888 12.456 26.8208 14.528 26.9808 16.056C26.9888 16.128 26.9608 16.18 26.8968 16.212C26.8408 16.244 26.7808 16.244 26.7168 16.212C26.6608 16.18 26.6248 16.128 26.6088 16.056C26.5288 15.344 26.5408 14.312 26.6448 12.96C26.7488 11.608 26.9328 10.22 27.1968 8.796C27.0848 8.692 26.9848 8.576 26.8968 8.448C26.8168 8.344 26.8408 8.28 26.9688 8.256C27.0888 8.224 27.1888 8.256 27.2688 8.352C27.2768 8.36 27.2808 8.364 27.2808 8.364C27.7368 6.028 28.2968 4.236 28.9608 2.988C28.8968 3.028 28.8408 3.06 28.7928 3.084C28.7128 3.108 28.6488 3.088 28.6008 3.024C28.5608 2.952 28.5568 2.884 28.5888 2.82C28.6768 2.628 28.8488 2.432 29.1048 2.232C29.1368 2.208 29.2128 2.156 29.3328 2.076C29.4528 1.988 29.5408 1.916 29.5968 1.86C29.6208 1.74 29.6968 1.716 29.8248 1.788C29.8248 1.788 29.8288 1.784 29.8368 1.776C29.8448 1.768 29.8528 1.76 29.8608 1.752C29.8768 1.736 29.8968 1.732 29.9208 1.74C29.9448 1.74 29.9648 1.752 29.9808 1.776C29.9968 1.792 30.0008 1.812 29.9928 1.836C29.9848 1.836 29.9608 1.876 29.9208 1.956C29.9208 1.956 29.9168 1.96 29.9088 1.968C29.9088 1.976 29.9088 1.98 29.9088 1.98C29.8928 2.036 29.8568 2.1 29.8008 2.172C29.4808 2.796 29.1488 3.636 28.8048 4.692C28.4608 5.74 28.1488 6.868 27.8688 8.076C28.1568 7.324 28.5128 6.508 28.9368 5.628C29.3688 4.748 29.8208 3.904 30.2928 3.096C30.7648 2.288 31.2208 1.664 31.6608 1.224C32.1008 0.775999 32.4408 0.651999 32.6808 0.852C32.8888 1.02 33.0168 1.284 33.0648 1.644C33.1128 2.004 33.0848 2.408 32.9808 2.856C32.8848 3.304 32.7328 3.788 32.5248 4.308C32.3168 4.82 32.0688 5.324 31.7808 5.82C31.5008 6.316 31.1848 6.788 30.8328 7.236C30.4888 7.676 30.1368 8.052 29.7768 8.364C29.4248 8.668 29.0648 8.888 28.6968 9.024C28.3288 9.16 27.9888 9.176 27.6768 9.072V9.084C27.6688 9.092 27.6608 9.1 27.6528 9.108C28.0448 10.804 28.8528 11.976 30.0768 12.624C30.9728 13.104 31.9008 13.22 32.8608 12.972C33.6368 12.772 34.1808 12.396 34.4928 11.844C34.5968 11.652 34.6648 11.452 34.6968 11.244ZM32.2848 1.368C32.1168 1.32 31.9048 1.42 31.6488 1.668C31.4008 1.908 31.1328 2.256 30.8448 2.712C30.5568 3.168 30.2648 3.66 29.9688 4.188C29.6808 4.708 29.3928 5.272 29.1048 5.88C28.8168 6.488 28.5728 7.016 28.3728 7.464C28.1728 7.912 27.9888 8.328 27.8208 8.712C28.5968 8.816 29.4648 8.248 30.4248 7.008C31.2248 5.976 31.8408 4.832 32.2728 3.576C32.6728 2.448 32.7288 1.74 32.4408 1.452C32.3928 1.412 32.3408 1.384 32.2848 1.368ZM36.3308 8.484C36.3388 8.484 36.3428 8.488 36.3428 8.496C36.3428 8.504 36.3388 8.516 36.3308 8.532C36.2508 8.692 36.1988 8.792 36.1748 8.832C36.1588 8.864 36.1348 8.872 36.1028 8.856C36.0708 8.84 36.0588 8.816 36.0668 8.784C35.8188 8.984 35.5468 9.168 35.2508 9.336C34.9548 9.496 34.7268 9.564 34.5668 9.54C34.4468 9.516 34.3508 9.448 34.2788 9.336C34.2068 9.216 34.1628 9.092 34.1468 8.964C34.1308 8.828 34.1148 8.704 34.0988 8.592C34.0828 8.48 34.0588 8.42 34.0268 8.412C33.9548 8.404 33.8468 8.472 33.7028 8.616C33.5588 8.76 33.4188 8.92 33.2828 9.096C33.1468 9.264 32.9988 9.404 32.8388 9.516C32.6788 9.628 32.5508 9.652 32.4548 9.588C32.3588 9.508 32.3108 9.396 32.3108 9.252C32.3108 9.1 32.3468 8.924 32.4188 8.724C32.4988 8.524 32.5788 8.352 32.6588 8.208C32.7388 8.056 32.8108 7.936 32.8748 7.848C32.8988 7.808 32.9308 7.8 32.9708 7.824C33.0188 7.84 33.0388 7.872 33.0308 7.92C33.0228 7.968 32.9988 8.06 32.9588 8.196C32.9188 8.324 32.8788 8.452 32.8388 8.58C32.7988 8.708 32.7588 8.844 32.7188 8.988C32.6868 9.132 32.6668 9.24 32.6588 9.312C32.6588 9.384 32.6748 9.436 32.7068 9.468C32.7388 9.476 32.7948 9.436 32.8748 9.348C32.9628 9.26 33.0588 9.152 33.1628 9.024C33.2668 8.888 33.3668 8.756 33.4628 8.628C33.5668 8.492 33.6628 8.38 33.7508 8.292C33.8468 8.196 33.9188 8.144 33.9668 8.136C34.0628 8.136 34.1268 8.236 34.1588 8.436C34.1988 8.628 34.2468 8.832 34.3028 9.048C34.3668 9.256 34.4788 9.372 34.6388 9.396C34.7588 9.404 34.9268 9.356 35.1428 9.252C35.3668 9.148 35.5788 9.024 35.7788 8.88C35.9788 8.728 36.1348 8.588 36.2468 8.46C36.2788 8.42 36.3068 8.428 36.3308 8.484ZM39.0737 3.144C39.1137 3.12 39.1537 3.124 39.1937 3.156C39.2337 3.188 39.2457 3.228 39.2297 3.276C38.9737 4.092 38.6617 4.908 38.2937 5.724C37.6857 8.356 37.5377 10.912 37.8497 13.392C37.8577 13.448 37.8257 13.48 37.7537 13.488C37.6897 13.504 37.6537 13.48 37.6457 13.416C37.3657 11.36 37.3497 9.436 37.5977 7.644C37.6217 7.436 37.6577 7.204 37.7057 6.948C37.5457 7.252 37.3777 7.56 37.2017 7.872C37.2337 7.888 37.2577 7.904 37.2737 7.92C37.3297 7.96 37.3457 8.012 37.3217 8.076C37.2977 8.132 37.2537 8.152 37.1897 8.136C37.1497 8.12 37.1057 8.112 37.0577 8.112C36.6817 8.744 36.2857 9.352 35.8697 9.936C35.8457 9.968 35.8137 9.984 35.7737 9.984C35.7337 9.976 35.7057 9.952 35.6897 9.912C35.6017 9.664 35.6057 9.352 35.7017 8.976C35.7977 8.6 35.9697 8.284 36.2177 8.028C36.4737 7.772 36.7417 7.692 37.0217 7.788C37.2057 7.46 37.3537 7.192 37.4657 6.984C37.5857 6.76 37.7137 6.5 37.8497 6.204C37.9697 5.66 38.1137 5.136 38.2817 4.632C38.2977 4.576 38.3257 4.472 38.3657 4.32C38.4137 4.168 38.4537 4.048 38.4857 3.96C38.5177 3.864 38.5577 3.76 38.6057 3.648C38.6617 3.528 38.7257 3.428 38.7977 3.348C38.8777 3.26 38.9697 3.192 39.0737 3.144ZM36.3377 8.916C36.4657 8.724 36.6257 8.464 36.8177 8.136C36.5377 8.232 36.3017 8.464 36.1097 8.832C35.8457 9.344 35.7537 9.58 35.8337 9.54C35.9217 9.5 36.0897 9.292 36.3377 8.916ZM41.4174 3.144C41.4574 3.12 41.4974 3.124 41.5374 3.156C41.5774 3.188 41.5894 3.228 41.5734 3.276C41.3174 4.092 41.0054 4.908 40.6374 5.724C40.0294 8.356 39.8814 10.912 40.1934 13.392C40.2014 13.448 40.1694 13.48 40.0974 13.488C40.0334 13.504 39.9974 13.48 39.9894 13.416C39.7094 11.36 39.6934 9.436 39.9414 7.644C39.9654 7.436 40.0014 7.204 40.0494 6.948C39.8894 7.252 39.7214 7.56 39.5454 7.872C39.5774 7.888 39.6014 7.904 39.6174 7.92C39.6734 7.96 39.6894 8.012 39.6654 8.076C39.6414 8.132 39.5974 8.152 39.5334 8.136C39.4934 8.12 39.4494 8.112 39.4014 8.112C39.0254 8.744 38.6294 9.352 38.2134 9.936C38.1894 9.968 38.1574 9.984 38.1174 9.984C38.0774 9.976 38.0494 9.952 38.0334 9.912C37.9454 9.664 37.9494 9.352 38.0454 8.976C38.1414 8.6 38.3134 8.284 38.5614 8.028C38.8174 7.772 39.0854 7.692 39.3654 7.788C39.5494 7.46 39.6974 7.192 39.8094 6.984C39.9294 6.76 40.0574 6.5 40.1934 6.204C40.3134 5.66 40.4574 5.136 40.6254 4.632C40.6414 4.576 40.6694 4.472 40.7094 4.32C40.7574 4.168 40.7974 4.048 40.8294 3.96C40.8614 3.864 40.9014 3.76 40.9494 3.648C41.0054 3.528 41.0694 3.428 41.1414 3.348C41.2214 3.26 41.3134 3.192 41.4174 3.144ZM38.6814 8.916C38.8094 8.724 38.9694 8.464 39.1614 8.136C38.8814 8.232 38.6454 8.464 38.4534 8.832C38.1894 9.344 38.0974 9.58 38.1774 9.54C38.2654 9.5 38.4334 9.292 38.6814 8.916ZM43.4612 7.8C43.5012 7.744 43.5412 7.744 43.5812 7.8C43.6052 7.824 43.6052 7.848 43.5812 7.872C43.1332 8.528 42.5012 8.892 41.6852 8.964C41.5012 9.492 41.2292 9.756 40.8692 9.756C40.7572 9.748 40.7052 9.624 40.7132 9.384C40.7212 9.136 40.7772 8.888 40.8812 8.64C40.7532 8.408 40.7612 8.152 40.9052 7.872C40.9452 7.776 41.0052 7.696 41.0852 7.632C41.1652 7.568 41.2452 7.532 41.3252 7.524C41.4052 7.508 41.4812 7.516 41.5532 7.548C41.6332 7.572 41.6972 7.624 41.7452 7.704C41.8012 7.776 41.8332 7.872 41.8412 7.992C41.8572 8.232 41.8212 8.504 41.7332 8.808C42.3972 8.744 42.9732 8.408 43.4612 7.8ZM40.8572 9.576C40.9452 9.6 41.0332 9.552 41.1212 9.432C41.2092 9.312 41.2892 9.156 41.3612 8.964C41.2092 8.94 41.0852 8.88 40.9892 8.784C40.9172 8.936 40.8652 9.092 40.8332 9.252C40.8092 9.412 40.8172 9.52 40.8572 9.576ZM41.4092 8.784C41.4492 8.624 41.4772 8.472 41.4932 8.328C41.3572 8.336 41.2292 8.42 41.1092 8.58C41.1972 8.684 41.2972 8.752 41.4092 8.784ZM41.0132 8.412C41.1572 8.196 41.3172 8.096 41.4932 8.112C41.4772 7.84 41.3852 7.744 41.2172 7.824C41.0972 7.88 41.0212 7.964 40.9892 8.076C40.9572 8.188 40.9652 8.3 41.0132 8.412ZM45.5396 8.304C45.5716 8.28 45.5996 8.288 45.6236 8.328C45.6556 8.368 45.6556 8.4 45.6236 8.424C44.9676 8.928 44.2836 9.336 43.5716 9.648C43.5636 9.648 43.5476 9.652 43.5236 9.66C43.4116 9.716 43.3196 9.756 43.2476 9.78C43.1836 9.796 43.0996 9.812 42.9956 9.828C42.8996 9.844 42.8156 9.828 42.7436 9.78C42.6796 9.732 42.6236 9.652 42.5756 9.54C42.4876 9.3 42.5796 8.924 42.8516 8.412C43.1076 7.932 43.3556 7.672 43.5956 7.632C43.7236 7.608 43.8276 7.68 43.9076 7.848C43.9236 7.888 43.9236 7.92 43.9076 7.944C43.9076 7.952 43.8996 7.964 43.8836 7.98C43.8756 7.988 43.8676 7.996 43.8596 8.004C43.8436 8.02 43.8196 8.028 43.7876 8.028C43.7636 8.028 43.7516 8.016 43.7516 7.992C43.7436 7.872 43.6316 7.936 43.4156 8.184C43.0956 8.568 42.9276 8.908 42.9116 9.204C42.9036 9.356 42.9516 9.456 43.0556 9.504C43.2316 9.592 43.5956 9.488 44.1476 9.192C44.6996 8.888 45.1636 8.592 45.5396 8.304ZM48.5626 8.508C48.6026 8.46 48.6426 8.456 48.6826 8.496C48.7226 8.528 48.7266 8.568 48.6946 8.616C48.6146 8.736 48.5226 8.864 48.4186 9C48.3146 9.128 48.1866 9.276 48.0346 9.444C47.8906 9.604 47.7466 9.756 47.6026 9.9C47.4586 10.036 47.3026 10.164 47.1346 10.284C46.9666 10.404 46.8026 10.5 46.6426 10.572C46.4906 10.636 46.3346 10.664 46.1746 10.656C46.0226 10.648 45.8866 10.6 45.7666 10.512C45.6386 10.408 45.5386 10.2 45.4666 9.888C45.3626 10.688 45.3106 11.448 45.3106 12.168C45.3106 12.232 45.2786 12.264 45.2146 12.264C45.1506 12.264 45.1186 12.232 45.1186 12.168C45.1026 11.376 45.1306 10.58 45.2026 9.78C45.1786 9.812 45.1466 9.82 45.1066 9.804C45.0666 9.788 45.0386 9.764 45.0226 9.732C45.0066 9.7 45.0106 9.668 45.0346 9.636C45.1466 9.508 45.2146 9.428 45.2386 9.396C45.4546 7.476 45.9146 5.648 46.6186 3.912C46.6426 3.856 46.6866 3.844 46.7506 3.876C46.8146 3.9 46.8386 3.944 46.8226 4.008C46.5506 4.936 46.3226 5.756 46.1386 6.468C45.9546 7.18 45.7986 7.88 45.6706 8.568C45.8946 7.888 46.1186 7.356 46.3426 6.972C46.5746 6.588 46.7906 6.512 46.9906 6.744C47.2066 7 46.7346 7.86 45.5746 9.324C45.6226 9.324 45.6466 9.352 45.6466 9.408C45.6786 9.936 45.7866 10.26 45.9706 10.38C46.4986 10.724 47.3346 10.14 48.4786 8.628C48.5186 8.572 48.5466 8.532 48.5626 8.508ZM46.6426 6.864C46.4346 6.824 46.1266 7.476 45.7186 8.82C46.6226 7.7 46.9306 7.048 46.6426 6.864Z" fill="black"/>
</svg>
