<svg width="492" height="417" viewBox="0 0 492 417" fill="none" xmlns="http://www.w3.org/2000/svg">
<path d="M21.4144 153.568C17.9591 153.568 15.1664 152.503 13.0364 150.373C10.9537 148.196 9.91239 145.308 9.91239 141.711V114.447C9.91239 110.897 10.9537 108.057 13.0364 105.927C15.1664 103.797 17.9591 102.732 21.4144 102.732C24.9171 102.732 27.7097 103.797 29.7924 105.927C31.9224 108.057 32.9874 110.897 32.9874 114.447V115.796C32.9874 116.033 32.9164 116.222 32.7744 116.364C32.6324 116.506 32.4667 116.577 32.2774 116.577L29.9344 116.719C29.4611 116.719 29.2244 116.482 29.2244 116.009V114.234C29.2244 111.773 28.5144 109.808 27.0944 108.341C25.6744 106.826 23.7811 106.069 21.4144 106.069C19.0951 106.069 17.2254 106.826 15.8054 108.341C14.3854 109.808 13.6754 111.773 13.6754 114.234V141.995C13.6754 144.456 14.3854 146.444 15.8054 147.959C17.2254 149.474 19.0951 150.231 21.4144 150.231C23.7337 150.231 25.6034 149.474 27.0234 147.959C28.4907 146.444 29.2244 144.456 29.2244 141.995V140.362C29.2244 139.889 29.4611 139.652 29.9344 139.652L32.2774 139.794C32.7507 139.794 32.9874 140.031 32.9874 140.504V141.711C32.9874 145.308 31.9224 148.196 29.7924 150.373C27.7097 152.503 24.9171 153.568 21.4144 153.568ZM52.6832 116.932C53.8666 116.932 54.8842 117.169 55.7362 117.642C56.0676 117.831 56.1859 118.139 56.0912 118.565L55.5232 120.979C55.3812 121.405 55.0736 121.523 54.6002 121.334C53.8429 121.05 52.9199 120.932 51.8312 120.979C49.9379 121.026 48.3996 121.973 47.2162 123.819C46.0329 125.665 45.4412 127.937 45.4412 130.635V152.29C45.4412 152.763 45.2046 153 44.7312 153H42.3882C41.9149 153 41.6782 152.763 41.6782 152.29V117.926C41.6782 117.453 41.9149 117.216 42.3882 117.216H44.7312C45.2046 117.216 45.4412 117.453 45.4412 117.926V122.328C45.4412 122.47 45.4886 122.541 45.5832 122.541C45.6779 122.541 45.7489 122.47 45.7962 122.328C46.4589 120.624 47.3582 119.299 48.4942 118.352C49.6776 117.405 51.0739 116.932 52.6832 116.932ZM81.882 135.747C81.882 136.22 81.6453 136.457 81.172 136.457H64.842C64.6527 136.457 64.558 136.552 64.558 136.741V142.776C64.558 144.953 65.1733 146.752 66.404 148.172C67.682 149.545 69.315 150.231 71.303 150.231C72.9597 150.231 74.3797 149.734 75.563 148.74C76.7463 147.746 77.5273 146.444 77.906 144.835C78.048 144.409 78.3083 144.196 78.687 144.196L80.959 144.338C81.1483 144.338 81.314 144.385 81.456 144.48C81.598 144.575 81.6453 144.717 81.598 144.906V145.19C81.1247 147.793 79.9887 149.852 78.19 151.367C76.3913 152.834 74.0957 153.568 71.303 153.568C68.179 153.568 65.6467 152.598 63.706 150.657C61.7653 148.669 60.795 146.113 60.795 142.989V127.298C60.795 124.174 61.7653 121.618 63.706 119.63C65.6467 117.642 68.179 116.648 71.303 116.648C74.4743 116.648 77.0303 117.642 78.971 119.63C80.9117 121.618 81.882 124.174 81.882 127.298V135.747ZM71.303 119.985C69.315 119.985 67.682 120.695 66.404 122.115C65.1733 123.488 64.558 125.286 64.558 127.511V132.907C64.558 133.096 64.6527 133.191 64.842 133.191H77.835C78.0243 133.191 78.119 133.096 78.119 132.907V127.511C78.119 125.286 77.48 123.488 76.202 122.115C74.9713 120.695 73.3383 119.985 71.303 119.985ZM99.5937 116.648C102.812 116.648 105.321 117.737 107.12 119.914C108.966 122.044 109.889 124.908 109.889 128.505V152.29C109.889 152.763 109.652 153 109.179 153H106.836C106.362 153 106.126 152.763 106.126 152.29V149.734C106.126 149.592 106.078 149.521 105.984 149.521C105.936 149.474 105.865 149.497 105.771 149.592C104.019 152.243 101.274 153.568 97.5347 153.568C95.026 153.568 92.8487 152.834 91.0027 151.367C89.1567 149.9 88.2337 147.32 88.2337 143.628C88.2337 139.699 89.3224 136.812 91.4997 134.966C93.7244 133.12 96.659 132.197 100.304 132.197H105.842C106.031 132.197 106.126 132.102 106.126 131.913V128.647C106.126 125.996 105.534 123.89 104.351 122.328C103.167 120.766 101.534 119.985 99.4517 119.985C97.8424 119.985 96.4224 120.506 95.1917 121.547C94.0084 122.588 93.322 123.937 93.1327 125.594C93.1327 126.067 92.896 126.304 92.4227 126.304L89.8667 126.162C89.63 126.162 89.4407 126.091 89.2987 125.949C89.204 125.807 89.1804 125.641 89.2277 125.452C89.5117 122.801 90.624 120.671 92.5647 119.062C94.5054 117.453 96.8484 116.648 99.5937 116.648ZM98.3157 150.231C100.446 150.231 102.268 149.545 103.783 148.172C105.345 146.799 106.126 144.859 106.126 142.35V135.605C106.126 135.416 106.031 135.321 105.842 135.321H100.304C97.8424 135.321 95.8544 136.007 94.3397 137.38C92.8724 138.705 92.1387 140.693 92.1387 143.344C92.1387 145.663 92.7067 147.391 93.8427 148.527C94.9787 149.663 96.4697 150.231 98.3157 150.231ZM130.145 119.488C130.145 119.961 129.908 120.198 129.435 120.198H123.755C123.565 120.198 123.471 120.293 123.471 120.482V143.344C123.471 145.711 123.873 147.367 124.678 148.314C125.482 149.213 126.76 149.663 128.512 149.663H129.222C129.695 149.663 129.932 149.9 129.932 150.373V152.29C129.932 152.763 129.695 153 129.222 153H127.802C125.151 153 123.139 152.385 121.767 151.154C120.441 149.923 119.779 147.628 119.779 144.267V120.482C119.779 120.293 119.684 120.198 119.495 120.198H116.584C116.11 120.198 115.874 119.961 115.874 119.488V117.926C115.874 117.453 116.11 117.216 116.584 117.216H119.495C119.684 117.216 119.779 117.121 119.779 116.932V108.98C119.779 108.507 120.015 108.27 120.489 108.27H122.761C123.234 108.27 123.471 108.507 123.471 108.98V116.932C123.471 117.121 123.565 117.216 123.755 117.216H129.435C129.908 117.216 130.145 117.453 130.145 117.926V119.488ZM139.569 110.045C138.528 110.045 137.676 109.714 137.013 109.051C136.351 108.388 136.019 107.536 136.019 106.495C136.019 105.454 136.351 104.602 137.013 103.939C137.676 103.276 138.528 102.945 139.569 102.945C140.611 102.945 141.463 103.276 142.125 103.939C142.788 104.602 143.119 105.454 143.119 106.495C143.119 107.536 142.788 108.388 142.125 109.051C141.463 109.714 140.611 110.045 139.569 110.045ZM138.433 153C137.96 153 137.723 152.763 137.723 152.29V117.926C137.723 117.453 137.96 117.216 138.433 117.216H140.776C141.25 117.216 141.486 117.453 141.486 117.926V152.29C141.486 152.763 141.25 153 140.776 153H138.433ZM163.289 116.719C166.176 116.719 168.401 117.689 169.963 119.63C171.525 121.571 172.306 124.292 172.306 127.795V152.29C172.306 152.763 172.069 153 171.596 153H169.253C168.78 153 168.543 152.763 168.543 152.29V128.15C168.543 125.594 167.975 123.606 166.839 122.186C165.703 120.766 164.117 120.056 162.082 120.056C159.999 120.056 158.366 120.813 157.183 122.328C156 123.843 155.408 125.925 155.408 128.576V152.29C155.408 152.763 155.171 153 154.698 153H152.355C151.882 153 151.645 152.763 151.645 152.29V117.926C151.645 117.453 151.882 117.216 152.355 117.216H154.698C155.171 117.216 155.408 117.453 155.408 117.926V120.624C155.408 120.766 155.432 120.837 155.479 120.837C155.574 120.837 155.668 120.79 155.763 120.695C157.372 118.044 159.881 116.719 163.289 116.719ZM197.651 117.926C197.651 117.453 197.887 117.216 198.361 117.216H200.775C201.248 117.216 201.485 117.453 201.485 117.926V152.574C201.485 157.449 200.372 161.165 198.148 163.721C195.923 166.277 192.349 167.46 187.427 167.271C186.953 167.271 186.717 167.034 186.717 166.561V164.644C186.717 164.171 187.024 163.934 187.64 163.934C191.237 163.934 193.793 162.964 195.308 161.023C196.87 159.082 197.651 156.171 197.651 152.29V149.592C197.651 149.45 197.603 149.379 197.509 149.379C197.414 149.332 197.343 149.379 197.296 149.521C196.491 150.799 195.45 151.769 194.172 152.432C192.941 153.047 191.568 153.355 190.054 153.355C187.119 153.355 184.776 152.385 183.025 150.444C181.321 148.456 180.469 145.876 180.469 142.705V127.298C180.469 124.127 181.321 121.571 183.025 119.63C184.776 117.642 187.119 116.648 190.054 116.648C191.568 116.648 192.965 116.979 194.243 117.642C195.521 118.305 196.538 119.251 197.296 120.482C197.39 120.577 197.461 120.624 197.509 120.624C197.603 120.624 197.651 120.553 197.651 120.411V117.926ZM191.048 150.018C192.988 150.018 194.574 149.332 195.805 147.959C197.035 146.586 197.651 144.788 197.651 142.563V127.511C197.651 125.286 197.035 123.488 195.805 122.115C194.574 120.695 192.988 119.985 191.048 119.985C189.06 119.985 187.427 120.695 186.149 122.115C184.871 123.488 184.232 125.286 184.232 127.511V142.563C184.232 144.74 184.871 146.539 186.149 147.959C187.427 149.332 189.06 150.018 191.048 150.018ZM37.5841 238.355C34.5074 238.355 32.0224 237.527 30.1291 235.87C28.2831 234.166 27.3601 231.989 27.3601 229.338V228.912C27.3601 228.439 27.5968 228.202 28.0701 228.202H30.2711C30.7444 228.202 30.9811 228.439 30.9811 228.912V229.338C30.9811 231.042 31.5964 232.462 32.8271 233.598C34.0578 234.734 35.6434 235.302 37.5841 235.302C39.4774 235.302 40.9921 234.734 42.1281 233.598C43.3114 232.415 43.9031 230.9 43.9031 229.054C43.9031 227.681 43.5718 226.545 42.9091 225.646C42.2464 224.747 41.4181 224.037 40.4241 223.516C39.4301 222.948 38.0811 222.309 36.3771 221.599C34.5311 220.842 33.0164 220.108 31.8331 219.398C30.6498 218.641 29.6321 217.623 28.7801 216.345C27.9754 215.02 27.5731 213.363 27.5731 211.375C27.5731 208.488 28.4724 206.192 30.2711 204.488C32.0698 202.784 34.4601 201.932 37.4421 201.932C40.4714 201.932 42.8854 202.808 44.6841 204.559C46.4828 206.31 47.3821 208.582 47.3821 211.375V211.588C47.3821 212.061 47.1454 212.298 46.6721 212.298H44.5421C44.0688 212.298 43.8321 212.061 43.8321 211.588V211.233C43.8321 209.482 43.2404 208.014 42.0571 206.831C40.8738 205.648 39.3354 205.056 37.4421 205.056C35.5488 205.056 34.0341 205.648 32.8981 206.831C31.7621 207.967 31.1941 209.458 31.1941 211.304C31.1941 212.582 31.5018 213.647 32.1171 214.499C32.7324 215.351 33.4898 216.037 34.3891 216.558C35.3358 217.079 36.6374 217.718 38.2941 218.475C40.2348 219.28 41.8204 220.061 43.0511 220.818C44.3291 221.528 45.4178 222.546 46.3171 223.871C47.2164 225.196 47.6661 226.877 47.6661 228.912C47.6661 231.752 46.7431 234.048 44.8971 235.799C43.0511 237.503 40.6134 238.355 37.5841 238.355ZM52.7354 252.2C52.6407 252.2 52.546 252.129 52.4514 251.987C52.3567 251.845 52.3094 251.679 52.3094 251.49V249.644C52.3094 249.171 52.546 248.934 53.0194 248.934H53.0904C54.5104 248.887 55.599 248.579 56.3564 248.011C57.161 247.49 57.8237 246.496 58.3444 245.029C58.9124 243.562 59.504 241.29 60.1194 238.213C60.1667 238.118 60.1667 238.047 60.1194 238C60.1194 237.905 60.1194 237.834 60.1194 237.787L51.0314 202.997L50.9604 202.784C50.9604 202.405 51.197 202.216 51.6704 202.216H54.1554C54.5814 202.216 54.8417 202.429 54.9364 202.855L61.9654 232.462C62.0127 232.604 62.06 232.675 62.1074 232.675C62.1547 232.675 62.202 232.604 62.2494 232.462L69.2074 202.855C69.302 202.429 69.5624 202.216 69.9884 202.216L72.5444 202.287C72.781 202.287 72.9467 202.358 73.0414 202.5C73.1834 202.642 73.207 202.831 73.1124 203.068L63.1014 241.621C62.2967 244.698 61.492 246.97 60.6874 248.437C59.93 249.904 58.9834 250.898 57.8474 251.419C56.7114 251.94 55.1257 252.2 53.0904 252.2H52.7354ZM90.9716 201.719C93.859 201.719 96.0836 202.689 97.6456 204.63C99.2076 206.571 99.9886 209.292 99.9886 212.795V237.29C99.9886 237.763 99.752 238 99.2786 238H96.9357C96.4623 238 96.2256 237.763 96.2256 237.29V213.15C96.2256 210.594 95.6576 208.606 94.5216 207.186C93.3856 205.766 91.8 205.056 89.7646 205.056C87.682 205.056 86.049 205.813 84.8656 207.328C83.6823 208.843 83.0906 210.925 83.0906 213.576V237.29C83.0906 237.763 82.854 238 82.3806 238H80.0376C79.5643 238 79.3276 237.763 79.3276 237.29V202.926C79.3276 202.453 79.5643 202.216 80.0376 202.216H82.3806C82.854 202.216 83.0906 202.453 83.0906 202.926V205.624C83.0906 205.766 83.1143 205.837 83.1616 205.837C83.2563 205.837 83.351 205.79 83.4456 205.695C85.055 203.044 87.5636 201.719 90.9716 201.719ZM129.238 220.747C129.238 221.22 129.002 221.457 128.528 221.457H112.198C112.009 221.457 111.914 221.552 111.914 221.741V227.776C111.914 229.953 112.53 231.752 113.76 233.172C115.038 234.545 116.671 235.231 118.659 235.231C120.316 235.231 121.736 234.734 122.919 233.74C124.103 232.746 124.884 231.444 125.262 229.835C125.404 229.409 125.665 229.196 126.043 229.196L128.315 229.338C128.505 229.338 128.67 229.385 128.812 229.48C128.954 229.575 129.002 229.717 128.954 229.906V230.19C128.481 232.793 127.345 234.852 125.546 236.367C123.748 237.834 121.452 238.568 118.659 238.568C115.535 238.568 113.003 237.598 111.062 235.657C109.122 233.669 108.151 231.113 108.151 227.989V212.298C108.151 209.174 109.122 206.618 111.062 204.63C113.003 202.642 115.535 201.648 118.659 201.648C121.831 201.648 124.387 202.642 126.327 204.63C128.268 206.618 129.238 209.174 129.238 212.298V220.747ZM118.659 204.985C116.671 204.985 115.038 205.695 113.76 207.115C112.53 208.488 111.914 210.286 111.914 212.511V217.907C111.914 218.096 112.009 218.191 112.198 218.191H125.191C125.381 218.191 125.475 218.096 125.475 217.907V212.511C125.475 210.286 124.836 208.488 123.558 207.115C122.328 205.695 120.695 204.985 118.659 204.985ZM148.436 201.932C149.619 201.932 150.637 202.169 151.489 202.642C151.82 202.831 151.939 203.139 151.844 203.565L151.276 205.979C151.134 206.405 150.826 206.523 150.353 206.334C149.596 206.05 148.673 205.932 147.584 205.979C145.691 206.026 144.152 206.973 142.969 208.819C141.786 210.665 141.194 212.937 141.194 215.635V237.29C141.194 237.763 140.957 238 140.484 238H138.141C137.668 238 137.431 237.763 137.431 237.29V202.926C137.431 202.453 137.668 202.216 138.141 202.216H140.484C140.957 202.216 141.194 202.453 141.194 202.926V207.328C141.194 207.47 141.241 207.541 141.336 207.541C141.431 207.541 141.502 207.47 141.549 207.328C142.212 205.624 143.111 204.299 144.247 203.352C145.43 202.405 146.827 201.932 148.436 201.932ZM173.73 202.926C173.73 202.453 173.967 202.216 174.44 202.216H176.854C177.327 202.216 177.564 202.453 177.564 202.926V237.574C177.564 242.449 176.452 246.165 174.227 248.721C172.002 251.277 168.429 252.46 163.506 252.271C163.033 252.271 162.796 252.034 162.796 251.561V249.644C162.796 249.171 163.104 248.934 163.719 248.934C167.316 248.934 169.872 247.964 171.387 246.023C172.949 244.082 173.73 241.171 173.73 237.29V234.592C173.73 234.45 173.683 234.379 173.588 234.379C173.493 234.332 173.422 234.379 173.375 234.521C172.57 235.799 171.529 236.769 170.251 237.432C169.02 238.047 167.648 238.355 166.133 238.355C163.198 238.355 160.855 237.385 159.104 235.444C157.4 233.456 156.548 230.876 156.548 227.705V212.298C156.548 209.127 157.4 206.571 159.104 204.63C160.855 202.642 163.198 201.648 166.133 201.648C167.648 201.648 169.044 201.979 170.322 202.642C171.6 203.305 172.618 204.251 173.375 205.482C173.47 205.577 173.541 205.624 173.588 205.624C173.683 205.624 173.73 205.553 173.73 205.411V202.926ZM167.127 235.018C169.068 235.018 170.653 234.332 171.884 232.959C173.115 231.586 173.73 229.788 173.73 227.563V212.511C173.73 210.286 173.115 208.488 171.884 207.115C170.653 205.695 169.068 204.985 167.127 204.985C165.139 204.985 163.506 205.695 162.228 207.115C160.95 208.488 160.311 210.286 160.311 212.511V227.563C160.311 229.74 160.95 231.539 162.228 232.959C163.506 234.332 165.139 235.018 167.127 235.018ZM183.572 252.2C183.478 252.2 183.383 252.129 183.288 251.987C183.194 251.845 183.146 251.679 183.146 251.49V249.644C183.146 249.171 183.383 248.934 183.856 248.934H183.927C185.347 248.887 186.436 248.579 187.193 248.011C187.998 247.49 188.661 246.496 189.181 245.029C189.749 243.562 190.341 241.29 190.956 238.213C191.004 238.118 191.004 238.047 190.956 238C190.956 237.905 190.956 237.834 190.956 237.787L181.868 202.997L181.797 202.784C181.797 202.405 182.034 202.216 182.507 202.216H184.992C185.418 202.216 185.679 202.429 185.773 202.855L192.802 232.462C192.85 232.604 192.897 232.675 192.944 232.675C192.992 232.675 193.039 232.604 193.086 232.462L200.044 202.855C200.139 202.429 200.399 202.216 200.825 202.216L203.381 202.287C203.618 202.287 203.784 202.358 203.878 202.5C204.02 202.642 204.044 202.831 203.949 203.068L193.938 241.621C193.134 244.698 192.329 246.97 191.524 248.437C190.767 249.904 189.82 250.898 188.684 251.419C187.548 251.94 185.963 252.2 183.927 252.2H183.572ZM36.4719 289.488C36.4719 289.961 36.2353 290.198 35.7619 290.198H30.0819C29.8926 290.198 29.7979 290.293 29.7979 290.482V313.344C29.7979 315.711 30.2003 317.367 31.0049 318.314C31.8096 319.213 33.0876 319.663 34.8389 319.663H35.5489C36.0223 319.663 36.2589 319.9 36.2589 320.373V322.29C36.2589 322.763 36.0223 323 35.5489 323H34.1289C31.4783 323 29.4666 322.385 28.0939 321.154C26.7686 319.923 26.1059 317.628 26.1059 314.267V290.482C26.1059 290.293 26.0113 290.198 25.8219 290.198H22.9109C22.4376 290.198 22.2009 289.961 22.2009 289.488V287.926C22.2009 287.453 22.4376 287.216 22.9109 287.216H25.8219C26.0113 287.216 26.1059 287.121 26.1059 286.932V278.98C26.1059 278.507 26.3426 278.27 26.8159 278.27H29.0879C29.5613 278.27 29.7979 278.507 29.7979 278.98V286.932C29.7979 287.121 29.8926 287.216 30.0819 287.216H35.7619C36.2353 287.216 36.4719 287.453 36.4719 287.926V289.488ZM55.0556 286.719C57.943 286.719 60.1676 287.689 61.7296 289.63C63.2916 291.571 64.0726 294.292 64.0726 297.795V322.29C64.0726 322.763 63.836 323 63.3626 323H61.0196C60.5463 323 60.3096 322.763 60.3096 322.29V298.15C60.3096 295.594 59.7416 293.606 58.6056 292.186C57.4696 290.766 55.884 290.056 53.8486 290.056C51.766 290.056 50.133 290.813 48.9496 292.328C47.7663 293.843 47.1746 295.925 47.1746 298.576V322.29C47.1746 322.763 46.938 323 46.4646 323H44.1216C43.6483 323 43.4116 322.763 43.4116 322.29V274.01C43.4116 273.537 43.6483 273.3 44.1216 273.3H46.4646C46.938 273.3 47.1746 273.537 47.1746 274.01V290.624C47.1746 290.766 47.1983 290.837 47.2456 290.837C47.3403 290.837 47.435 290.79 47.5296 290.695C49.139 288.044 51.6476 286.719 55.0556 286.719ZM84.0924 286.932C85.2757 286.932 86.2934 287.169 87.1454 287.642C87.4767 287.831 87.5951 288.139 87.5004 288.565L86.9324 290.979C86.7904 291.405 86.4827 291.523 86.0094 291.334C85.2521 291.05 84.3291 290.932 83.2404 290.979C81.3471 291.026 79.8087 291.973 78.6254 293.819C77.4421 295.665 76.8504 297.937 76.8504 300.635V322.29C76.8504 322.763 76.6137 323 76.1404 323H73.7974C73.3241 323 73.0874 322.763 73.0874 322.29V287.926C73.0874 287.453 73.3241 287.216 73.7974 287.216H76.1404C76.6137 287.216 76.8504 287.453 76.8504 287.926V292.328C76.8504 292.47 76.8977 292.541 76.9924 292.541C77.0871 292.541 77.1581 292.47 77.2054 292.328C77.8681 290.624 78.7674 289.299 79.9034 288.352C81.0867 287.405 82.4831 286.932 84.0924 286.932ZM102.712 323.568C99.5408 323.568 96.9848 322.598 95.0442 320.657C93.1508 318.669 92.2042 316.089 92.2042 312.918V297.298C92.2042 294.174 93.1745 291.618 95.1152 289.63C97.0558 287.642 99.5882 286.648 102.712 286.648C105.931 286.648 108.51 287.642 110.451 289.63C112.392 291.571 113.362 294.127 113.362 297.298V312.918C113.362 316.089 112.392 318.669 110.451 320.657C108.51 322.598 105.931 323.568 102.712 323.568ZM102.712 320.231C104.747 320.231 106.404 319.545 107.682 318.172C108.96 316.752 109.599 314.953 109.599 312.776V297.511C109.599 295.286 108.96 293.488 107.682 292.115C106.404 290.695 104.747 289.985 102.712 289.985C100.724 289.985 99.0912 290.695 97.8132 292.115C96.5825 293.488 95.9672 295.286 95.9672 297.511V312.776C95.9672 314.953 96.5825 316.752 97.8132 318.172C99.0912 319.545 100.724 320.231 102.712 320.231ZM138.37 287.926C138.37 287.453 138.607 287.216 139.08 287.216H141.423C141.897 287.216 142.133 287.453 142.133 287.926V322.29C142.133 322.763 141.897 323 141.423 323H139.08C138.607 323 138.37 322.763 138.37 322.29V319.734C138.37 319.592 138.323 319.521 138.228 319.521C138.181 319.474 138.11 319.497 138.015 319.592C136.501 322.195 134.087 323.497 130.773 323.497C127.933 323.497 125.685 322.645 124.028 320.941C122.372 319.19 121.543 316.586 121.543 313.131V287.926C121.543 287.453 121.78 287.216 122.253 287.216H124.596C125.07 287.216 125.306 287.453 125.306 287.926V312.279C125.306 314.882 125.851 316.847 126.939 318.172C128.075 319.497 129.661 320.16 131.696 320.16C133.779 320.16 135.412 319.403 136.595 317.888C137.779 316.373 138.37 314.291 138.37 311.64V287.926ZM167.975 287.926C167.975 287.453 168.212 287.216 168.685 287.216H171.099C171.572 287.216 171.809 287.453 171.809 287.926V322.574C171.809 327.449 170.697 331.165 168.472 333.721C166.247 336.277 162.674 337.46 157.751 337.271C157.278 337.271 157.041 337.034 157.041 336.561V334.644C157.041 334.171 157.349 333.934 157.964 333.934C161.561 333.934 164.117 332.964 165.632 331.023C167.194 329.082 167.975 326.171 167.975 322.29V319.592C167.975 319.45 167.928 319.379 167.833 319.379C167.738 319.332 167.667 319.379 167.62 319.521C166.815 320.799 165.774 321.769 164.496 322.432C163.265 323.047 161.893 323.355 160.378 323.355C157.443 323.355 155.1 322.385 153.349 320.444C151.645 318.456 150.793 315.876 150.793 312.705V297.298C150.793 294.127 151.645 291.571 153.349 289.63C155.1 287.642 157.443 286.648 160.378 286.648C161.893 286.648 163.289 286.979 164.567 287.642C165.845 288.305 166.863 289.251 167.62 290.482C167.715 290.577 167.786 290.624 167.833 290.624C167.928 290.624 167.975 290.553 167.975 290.411V287.926ZM161.372 320.018C163.313 320.018 164.898 319.332 166.129 317.959C167.36 316.586 167.975 314.788 167.975 312.563V297.511C167.975 295.286 167.36 293.488 166.129 292.115C164.898 290.695 163.313 289.985 161.372 289.985C159.384 289.985 157.751 290.695 156.473 292.115C155.195 293.488 154.556 295.286 154.556 297.511V312.563C154.556 314.74 155.195 316.539 156.473 317.959C157.751 319.332 159.384 320.018 161.372 320.018ZM192.133 286.719C195.02 286.719 197.245 287.689 198.807 289.63C200.369 291.571 201.15 294.292 201.15 297.795V322.29C201.15 322.763 200.913 323 200.44 323H198.097C197.623 323 197.387 322.763 197.387 322.29V298.15C197.387 295.594 196.819 293.606 195.683 292.186C194.547 290.766 192.961 290.056 190.926 290.056C188.843 290.056 187.21 290.813 186.027 292.328C184.843 293.843 184.252 295.925 184.252 298.576V322.29C184.252 322.763 184.015 323 183.542 323H181.199C180.725 323 180.489 322.763 180.489 322.29V274.01C180.489 273.537 180.725 273.3 181.199 273.3H183.542C184.015 273.3 184.252 273.537 184.252 274.01V290.624C184.252 290.766 184.275 290.837 184.323 290.837C184.417 290.837 184.512 290.79 184.607 290.695C186.216 288.044 188.725 286.719 192.133 286.719Z" fill="#023246"/>
<path opacity="0.1" d="M353 38.7522C353 38.1036 353.185 37.5939 353.556 37.2232C353.927 36.8525 354.436 36.6672 355.085 36.6672L448.215 36.6672C448.864 36.6672 449.373 36.8526 449.744 37.2232C450.115 37.5939 450.3 38.1036 450.3 38.7522L450.3 66.1352C450.3 72.2512 449.142 77.6259 446.825 82.2592C444.508 86.9852 441.219 90.6456 436.956 93.2402C432.786 95.8349 427.967 97.1322 422.5 97.1322L380.8 97.1322C375.333 97.1322 370.468 95.8349 366.205 93.2402C362.035 90.6456 358.792 86.9852 356.475 82.2592C354.158 77.6259 353 72.2512 353 66.1352L353 38.7522ZM376.213 62.7992C375.657 62.7992 375.379 63.0772 375.379 63.6332L375.518 65.5792C375.611 67.0619 376.306 68.3129 377.603 69.3322C378.9 70.3516 380.568 70.9076 382.607 71.0002L420.832 71.0002C422.963 71.0002 424.678 70.4906 425.975 69.4712C427.272 68.4519 427.921 67.1082 427.921 65.4402L427.921 63.6332C427.921 63.0772 427.643 62.7992 427.087 62.7992L376.213 62.7992ZM384.692 161.267C384.043 161.267 383.534 161.081 383.163 160.711C382.792 160.34 382.607 159.83 382.607 159.182L382.607 129.714C382.607 129.158 382.329 128.88 381.773 128.88L378.715 128.88C377.418 128.88 376.352 129.158 375.518 129.714C374.684 130.362 374.267 131.15 374.267 132.077C374.267 133.003 374.591 133.698 375.24 134.162C375.889 134.718 376.723 135.088 377.742 135.274C379.039 135.737 379.642 136.525 379.549 137.637L378.159 158.904C377.974 160.294 377.232 160.942 375.935 160.85C367.78 160.386 361.711 157.792 357.726 153.066C353.834 148.432 351.888 141.436 351.888 132.077C351.888 122.81 354.019 115.582 358.282 110.393C362.637 105.296 368.753 102.748 376.63 102.748L401.65 102.748C409.156 102.748 415.133 105.342 419.581 110.532C424.122 115.721 426.392 122.903 426.392 132.077C426.392 141.251 424.122 148.386 419.581 153.483C415.133 158.672 409.156 161.267 401.65 161.267L384.692 161.267ZM404.013 132.077C404.013 131.15 403.596 130.362 402.762 129.714C401.928 129.158 400.862 128.88 399.565 128.88L396.229 128.88C395.673 128.88 395.395 129.158 395.395 129.714L395.395 134.301C395.395 134.857 395.673 135.135 396.229 135.135L399.565 135.135C400.862 135.135 401.928 134.857 402.762 134.301C403.596 133.745 404.013 133.003 404.013 132.077ZM351.888 194.498C351.888 185.602 353.973 178.467 358.143 173.092C362.313 167.81 367.827 165.169 374.684 165.169L375.101 165.169C375.75 165.169 376.259 165.355 376.63 165.725C377.001 166.096 377.186 166.606 377.186 167.254L377.186 188.104C377.186 188.753 377.001 189.263 376.63 189.633C376.352 190.004 375.935 190.189 375.379 190.189C373.989 190.189 372.923 190.606 372.182 191.44C371.441 192.274 371.07 193.201 371.07 194.22C371.07 195.054 371.302 195.703 371.765 196.166C372.321 196.63 372.97 196.861 373.711 196.861C375.101 196.861 376.12 196.166 376.769 194.776C377.51 193.386 378.344 191.07 379.271 187.826C379.549 186.714 379.92 185.417 380.383 183.934C381.958 179.023 384.507 174.807 388.028 171.285C391.642 167.857 396.553 166.142 402.762 166.142C409.99 166.142 415.735 168.644 419.998 173.648C424.261 178.652 426.392 185.232 426.392 193.386C426.392 201.912 424.075 208.723 419.442 213.819C414.809 218.916 408.693 221.464 401.094 221.464C400.723 221.464 400.399 221.279 400.121 220.908C399.843 220.538 399.704 220.028 399.704 219.379L399.704 199.224C399.704 198.576 399.889 198.066 400.26 197.695C400.631 197.325 401.14 197.139 401.789 197.139L402.623 197.139C403.735 197.139 404.615 196.815 405.264 196.166C405.913 195.61 406.237 194.915 406.237 194.081C406.237 193.155 405.866 192.413 405.125 191.857C404.384 191.394 403.55 191.162 402.623 191.162C400.77 191.162 399.333 192.043 398.314 193.803C397.295 195.657 396.368 198.02 395.534 200.892C393.588 207.564 391.086 212.939 388.028 217.016C384.97 221.094 380.29 223.132 373.989 223.132C367.132 223.132 361.711 220.491 357.726 215.209C353.834 210.02 351.888 203.116 351.888 194.498ZM430.145 240.018C430.145 236.218 431.35 233.068 433.759 230.566C436.261 228.156 439.412 226.952 443.211 226.952C447.103 226.952 450.254 228.156 452.663 230.566C455.072 233.068 456.277 236.218 456.277 240.018C456.277 243.817 455.072 246.921 452.663 249.331C450.254 251.833 447.103 253.084 443.211 253.084C439.504 253.084 436.4 251.833 433.898 249.331C431.396 246.921 430.145 243.817 430.145 240.018ZM353 229.315C353 228.666 353.185 228.156 353.556 227.786C353.927 227.415 354.436 227.23 355.085 227.23L423.195 227.23C423.844 227.23 424.353 227.415 424.724 227.786C425.095 228.156 425.28 228.666 425.28 229.315L425.28 251.277C425.28 251.925 425.095 252.435 424.724 252.806C424.353 253.176 423.844 253.362 423.195 253.362L355.085 253.362C354.436 253.362 353.927 253.176 353.556 252.806C353.185 252.435 353 251.925 353 251.277L353 229.315ZM423.195 290.556C423.844 290.556 424.353 290.741 424.724 291.112C425.095 291.483 425.28 291.992 425.28 292.641L425.28 314.603C425.28 315.252 425.095 315.761 424.724 316.132C424.353 316.503 423.844 316.688 423.195 316.688L357.726 316.688C350.776 316.688 344.845 315.669 339.934 313.63C335.023 311.684 331.131 308.024 328.258 302.649C325.293 297.274 323.81 289.722 323.81 279.992C323.81 276.378 323.903 273.552 324.088 271.513C324.088 270.123 324.783 269.428 326.173 269.428L344.66 269.428C346.143 269.428 346.791 270.169 346.606 271.652L346.467 275.127C346.467 280.316 347.208 283.977 348.691 286.108C350.081 288.332 352.166 289.722 354.946 290.278C355.224 290.278 355.456 289.954 355.641 289.305C355.826 288.749 355.826 288.332 355.641 288.054C353.139 285.459 351.888 281.892 351.888 277.351C351.888 270.679 354.019 265.814 358.282 262.756C362.545 259.791 368.661 258.308 376.63 258.308L401.65 258.308C409.897 258.308 416.06 259.837 420.137 262.895C424.307 265.953 426.392 270.772 426.392 277.351C426.392 282.726 424.353 286.803 420.276 289.583C419.905 289.768 419.72 289.954 419.72 290.139C419.813 290.417 420.044 290.556 420.415 290.556L423.195 290.556ZM374.267 287.359C374.267 288.286 374.684 289.027 375.518 289.583C376.352 290.232 377.418 290.556 378.715 290.556L399.565 290.556C400.862 290.556 401.928 290.232 402.762 289.583C403.596 289.027 404.013 288.286 404.013 287.359C404.013 286.432 403.596 285.691 402.762 285.135C401.928 284.672 400.862 284.44 399.565 284.44L378.715 284.44C377.418 284.44 376.352 284.672 375.518 285.135C374.684 285.691 374.267 286.432 374.267 287.359ZM426.392 361.441C426.392 374.599 418.052 381.179 401.372 381.179L355.085 381.179C354.436 381.179 353.927 380.993 353.556 380.623C353.185 380.252 353 379.742 353 379.094L353 357.132C353 356.483 353.185 355.973 353.556 355.603C353.927 355.232 354.436 355.047 355.085 355.047L399.565 355.047C402.53 355.047 404.013 354.074 404.013 352.128C404.013 349.996 402.53 348.931 399.565 348.931L355.085 348.931C354.436 348.931 353.927 348.745 353.556 348.375C353.185 348.004 353 347.494 353 346.846L353 324.884C353 324.235 353.185 323.725 353.556 323.355C353.927 322.984 354.436 322.799 355.085 322.799L423.195 322.799C423.844 322.799 424.353 322.984 424.724 323.355C425.095 323.725 425.28 324.235 425.28 324.884L425.28 346.846C425.28 347.494 425.095 348.004 424.724 348.375C424.353 348.745 423.844 348.931 423.195 348.931L421.11 348.931C420.925 348.931 420.832 349.023 420.832 349.209C420.832 349.672 421.249 350.228 422.083 350.877C424.956 353.564 426.392 357.085 426.392 361.441Z" fill="#333333"/>
<rect x="305.676" y="0.5" width="185.823" height="416" stroke="#023246"/>
</svg>
