<svg width="848" height="437" viewBox="0 0 848 437" fill="none" xmlns="http://www.w3.org/2000/svg">
<mask id="mask0" mask-type="alpha" maskUnits="userSpaceOnUse" x="0" y="0" width="848" height="437">
<rect width="848" height="437" fill="#C4C4C4"/>
</mask>
<g mask="url(#mask0)">
<rect opacity="0.1" width="651" height="437" fill="#F6F6F6"/>
<path d="M408.213 148.512C404.927 148.512 402.282 147.509 400.277 145.504C398.314 143.499 397.333 140.811 397.333 137.44V113.696C397.333 110.368 398.314 107.701 400.277 105.696C402.282 103.691 404.927 102.688 408.213 102.688C411.541 102.688 414.186 103.691 416.149 105.696C418.154 107.659 419.157 110.325 419.157 113.696V114.784C419.157 115.211 418.943 115.424 418.517 115.424L415.189 115.616C414.762 115.616 414.549 115.403 414.549 114.976V113.376C414.549 111.371 413.973 109.749 412.821 108.512C411.669 107.275 410.133 106.656 408.213 106.656C406.335 106.656 404.799 107.275 403.605 108.512C402.453 109.749 401.877 111.371 401.877 113.376V137.824C401.877 139.829 402.453 141.451 403.605 142.688C404.799 143.925 406.335 144.544 408.213 144.544C410.133 144.544 411.669 143.925 412.821 142.688C413.973 141.451 414.549 139.829 414.549 137.824V136.224C414.549 135.797 414.762 135.584 415.189 135.584L418.517 135.776C418.943 135.776 419.157 135.989 419.157 136.416V137.44C419.157 140.811 418.154 143.499 416.149 145.504C414.143 147.509 411.498 148.512 408.213 148.512ZM437.223 115.296C438.29 115.296 439.207 115.531 439.975 116C440.274 116.171 440.38 116.448 440.295 116.832L439.527 120.16C439.484 120.544 439.228 120.672 438.759 120.544C438.247 120.288 437.607 120.16 436.839 120.16C436.498 120.16 436.242 120.181 436.071 120.224C434.535 120.309 433.276 121.12 432.295 122.656C431.314 124.149 430.823 125.984 430.823 128.16V147.36C430.823 147.787 430.61 148 430.183 148H426.919C426.492 148 426.279 147.787 426.279 147.36V116.256C426.279 115.829 426.492 115.616 426.919 115.616H430.183C430.61 115.616 430.823 115.829 430.823 116.256V120.096C430.823 120.224 430.844 120.288 430.887 120.288C430.972 120.288 431.058 120.245 431.143 120.16C432.38 116.917 434.407 115.296 437.223 115.296ZM464.045 132.896C464.045 133.323 463.831 133.536 463.405 133.536H448.812C448.642 133.536 448.557 133.621 448.557 133.792V138.464C448.557 140.256 449.047 141.728 450.029 142.88C451.053 143.989 452.375 144.544 453.997 144.544C455.362 144.544 456.514 144.139 457.453 143.328C458.434 142.475 459.074 141.387 459.373 140.064C459.501 139.68 459.735 139.488 460.077 139.488L463.277 139.616C463.447 139.616 463.597 139.68 463.725 139.808C463.853 139.936 463.895 140.107 463.853 140.32C463.511 142.837 462.466 144.843 460.717 146.336C459.01 147.787 456.77 148.512 453.997 148.512C450.967 148.512 448.535 147.616 446.701 145.824C444.909 144.032 444.013 141.664 444.013 138.72V124.896C444.013 121.995 444.909 119.648 446.701 117.856C448.535 116.021 450.967 115.104 453.997 115.104C457.069 115.104 459.501 116.021 461.293 117.856C463.127 119.648 464.045 121.995 464.045 124.896V132.896ZM453.997 119.072C452.375 119.072 451.053 119.648 450.029 120.8C449.047 121.909 448.557 123.381 448.557 125.216V129.504C448.557 129.675 448.642 129.76 448.812 129.76H459.309C459.479 129.76 459.565 129.675 459.565 129.504V125.216C459.565 123.381 459.053 121.909 458.029 120.8C457.005 119.648 455.661 119.072 453.997 119.072ZM480.001 115.104C482.988 115.104 485.377 116.085 487.169 118.048C488.961 119.968 489.857 122.549 489.857 125.792V147.36C489.857 147.787 489.644 148 489.217 148H485.953C485.526 148 485.313 147.787 485.313 147.36V145.44C485.313 145.355 485.27 145.312 485.185 145.312C485.142 145.269 485.078 145.291 484.993 145.376C483.414 147.467 481.046 148.512 477.889 148.512C475.542 148.512 473.494 147.851 471.745 146.528C470.038 145.163 469.185 142.773 469.185 139.36C469.185 135.733 470.23 133.088 472.321 131.424C474.412 129.717 477.164 128.864 480.577 128.864H485.057C485.228 128.864 485.313 128.779 485.313 128.608V126.112C485.313 123.979 484.822 122.272 483.841 120.992C482.86 119.712 481.537 119.072 479.873 119.072C478.593 119.072 477.484 119.499 476.545 120.352C475.649 121.205 475.116 122.293 474.945 123.616C474.945 124.043 474.732 124.256 474.305 124.256L470.721 124.192C470.508 124.192 470.337 124.128 470.209 124C470.124 123.872 470.102 123.723 470.145 123.552C470.358 121.035 471.382 119.008 473.217 117.472C475.052 115.893 477.313 115.104 480.001 115.104ZM478.849 144.544C480.598 144.544 482.113 143.989 483.393 142.88C484.673 141.728 485.313 140.149 485.313 138.144V132.768C485.313 132.597 485.228 132.512 485.057 132.512H480.513C478.465 132.512 476.844 133.067 475.649 134.176C474.454 135.243 473.857 136.843 473.857 138.976C473.857 140.853 474.305 142.261 475.201 143.2C476.14 144.096 477.356 144.544 478.849 144.544ZM508.359 118.368C508.359 118.795 508.145 119.008 507.719 119.008H502.855C502.684 119.008 502.599 119.093 502.599 119.264V138.848C502.599 140.811 502.94 142.176 503.623 142.944C504.305 143.669 505.351 144.011 506.759 143.968H507.399C507.825 143.968 508.039 144.181 508.039 144.608V147.36C508.039 147.787 507.825 148 507.399 148H505.799C503.281 148 501.361 147.467 500.039 146.4C498.759 145.291 498.119 143.221 498.119 140.192V119.264C498.119 119.093 498.033 119.008 497.863 119.008H495.367C494.94 119.008 494.727 118.795 494.727 118.368V116.256C494.727 115.829 494.94 115.616 495.367 115.616H497.863C498.033 115.616 498.119 115.531 498.119 115.36V108.192C498.119 107.765 498.332 107.552 498.759 107.552H501.959C502.385 107.552 502.599 107.765 502.599 108.192V115.36C502.599 115.531 502.684 115.616 502.855 115.616H507.719C508.145 115.616 508.359 115.829 508.359 116.256V118.368ZM516.781 109.728C515.714 109.728 514.84 109.387 514.157 108.704C513.517 108.021 513.197 107.168 513.197 106.144C513.197 105.077 513.517 104.224 514.157 103.584C514.84 102.901 515.714 102.56 516.781 102.56C517.805 102.56 518.637 102.901 519.277 103.584C519.96 104.224 520.301 105.077 520.301 106.144C520.301 107.168 519.96 108.021 519.277 108.704C518.637 109.387 517.805 109.728 516.781 109.728ZM515.181 148C514.754 148 514.541 147.787 514.541 147.36V116.256C514.541 115.829 514.754 115.616 515.181 115.616H518.445C518.872 115.616 519.085 115.829 519.085 116.256V147.36C519.085 147.787 518.872 148 518.445 148H515.181ZM538.862 115.168C541.464 115.168 543.47 116.064 544.878 117.856C546.328 119.648 547.054 122.144 547.054 125.344V147.36C547.054 147.787 546.84 148 546.414 148H543.15C542.723 148 542.51 147.787 542.51 147.36V125.728C542.51 123.637 542.04 122.016 541.102 120.864C540.206 119.712 538.947 119.136 537.326 119.136C535.619 119.136 534.275 119.755 533.294 120.992C532.355 122.229 531.885 123.915 531.885 126.048V147.36C531.885 147.787 531.672 148 531.246 148H527.982C527.555 148 527.342 147.787 527.342 147.36V116.256C527.342 115.829 527.555 115.616 527.982 115.616H531.246C531.672 115.616 531.885 115.829 531.885 116.256V118.304C531.885 118.389 531.928 118.453 532.014 118.496C532.099 118.539 532.163 118.496 532.206 118.368C532.974 117.301 533.934 116.512 535.086 116C536.28 115.445 537.539 115.168 538.862 115.168ZM569.187 116.256C569.187 115.829 569.4 115.616 569.827 115.616H573.091C573.517 115.616 573.731 115.829 573.731 116.256V147.36C573.731 151.925 572.664 155.381 570.531 157.728C568.44 160.117 564.92 161.205 559.97 160.992C559.544 160.949 559.331 160.715 559.331 160.288V157.536C559.331 157.109 559.544 156.896 559.97 156.896C563.384 156.981 565.773 156.192 567.139 154.528C568.504 152.907 569.187 150.389 569.187 146.976V145.056C569.187 144.971 569.144 144.907 569.059 144.864C569.016 144.821 568.952 144.843 568.867 144.928C568.141 145.995 567.203 146.805 566.051 147.36C564.941 147.915 563.747 148.192 562.467 148.192C559.779 148.192 557.645 147.296 556.067 145.504C554.531 143.712 553.763 141.344 553.763 138.4V124.896C553.763 121.909 554.531 119.541 556.067 117.792C557.645 116 559.779 115.104 562.467 115.104C563.747 115.104 564.941 115.381 566.051 115.936C567.203 116.448 568.141 117.237 568.867 118.304C568.952 118.432 569.016 118.496 569.059 118.496C569.144 118.453 569.187 118.368 569.187 118.24V116.256ZM563.811 144.224C565.389 144.224 566.669 143.669 567.651 142.56C568.675 141.408 569.187 139.936 569.187 138.144V125.216C569.187 123.381 568.675 121.909 567.651 120.8C566.669 119.648 565.389 119.072 563.811 119.072C562.189 119.072 560.867 119.648 559.843 120.8C558.819 121.909 558.307 123.381 558.307 125.216V138.144C558.307 139.936 558.819 141.408 559.843 142.56C560.867 143.669 562.189 144.224 563.811 144.224ZM421.727 225.32C418.783 225.32 416.415 224.573 414.623 223.08C412.874 221.544 411.999 219.517 411.999 217V216.552C411.999 216.125 412.212 215.912 412.639 215.912H415.711C416.138 215.912 416.351 216.125 416.351 216.552V216.936C416.351 218.301 416.842 219.453 417.823 220.392C418.847 221.331 420.17 221.8 421.791 221.8C423.327 221.8 424.564 221.331 425.503 220.392C426.442 219.453 426.911 218.259 426.911 216.808C426.911 215.699 426.612 214.781 426.015 214.056C425.418 213.288 424.714 212.691 423.903 212.264C423.135 211.837 421.962 211.283 420.383 210.6C418.719 209.917 417.332 209.256 416.223 208.616C415.156 207.933 414.218 206.995 413.407 205.8C412.639 204.563 412.255 203.005 412.255 201.128C412.255 198.397 413.087 196.243 414.751 194.664C416.458 193.085 418.74 192.296 421.599 192.296C424.5 192.296 426.804 193.107 428.511 194.728C430.218 196.349 431.071 198.504 431.071 201.192V201.384C431.071 201.811 430.858 202.024 430.431 202.024H427.487C427.06 202.024 426.847 201.811 426.847 201.384V201C426.847 199.549 426.356 198.355 425.375 197.416C424.436 196.477 423.199 196.008 421.663 196.008C420.127 196.008 418.89 196.499 417.951 197.48C417.055 198.419 416.607 199.592 416.607 201C416.607 202.024 416.884 202.899 417.439 203.624C417.994 204.307 418.676 204.883 419.487 205.352C420.298 205.779 421.428 206.312 422.879 206.952C424.628 207.72 426.058 208.445 427.167 209.128C428.319 209.811 429.322 210.771 430.175 212.008C431.028 213.245 431.455 214.781 431.455 216.616C431.455 219.261 430.58 221.373 428.831 222.952C427.082 224.531 424.714 225.32 421.727 225.32ZM435.566 237.8C435.481 237.8 435.395 237.736 435.31 237.608C435.225 237.48 435.182 237.331 435.182 237.16V234.6C435.182 234.173 435.395 233.96 435.822 233.96C437.145 233.917 438.169 233.661 438.894 233.192C439.662 232.723 440.281 231.891 440.75 230.696C441.219 229.501 441.689 227.667 442.158 225.192C442.201 225.107 442.201 225.043 442.158 225C442.158 224.915 442.158 224.851 442.158 224.808L434.03 193.32L433.966 193.128C433.966 192.787 434.179 192.616 434.606 192.616H438.062C438.489 192.616 438.723 192.808 438.766 193.192L444.398 218.344C444.441 218.472 444.483 218.536 444.526 218.536C444.569 218.536 444.611 218.472 444.654 218.344L450.222 193.192C450.307 192.808 450.542 192.616 450.926 192.616L454.51 192.68C454.723 192.68 454.873 192.744 454.958 192.872C455.086 193 455.107 193.171 455.022 193.384L446.126 227.816C445.358 230.675 444.59 232.787 443.822 234.152C443.097 235.517 442.137 236.456 440.942 236.968C439.747 237.523 438.062 237.8 435.886 237.8H435.566ZM471.737 192.168C474.339 192.168 476.345 193.064 477.753 194.856C479.203 196.648 479.929 199.144 479.929 202.344V224.36C479.929 224.787 479.715 225 479.289 225H476.025C475.598 225 475.385 224.787 475.385 224.36V202.728C475.385 200.637 474.915 199.016 473.977 197.864C473.081 196.712 471.822 196.136 470.201 196.136C468.494 196.136 467.15 196.755 466.169 197.992C465.23 199.229 464.76 200.915 464.76 203.048V224.36C464.76 224.787 464.547 225 464.121 225H460.857C460.43 225 460.217 224.787 460.217 224.36V193.256C460.217 192.829 460.43 192.616 460.857 192.616H464.121C464.547 192.616 464.76 192.829 464.76 193.256V195.304C464.76 195.389 464.803 195.453 464.889 195.496C464.974 195.539 465.038 195.496 465.081 195.368C465.849 194.301 466.809 193.512 467.961 193C469.155 192.445 470.414 192.168 471.737 192.168ZM506.67 209.896C506.67 210.323 506.456 210.536 506.03 210.536H491.438C491.267 210.536 491.182 210.621 491.182 210.792V215.464C491.182 217.256 491.672 218.728 492.654 219.88C493.678 220.989 495 221.544 496.622 221.544C497.987 221.544 499.139 221.139 500.078 220.328C501.059 219.475 501.699 218.387 501.998 217.064C502.126 216.68 502.36 216.488 502.702 216.488L505.902 216.616C506.072 216.616 506.222 216.68 506.35 216.808C506.478 216.936 506.52 217.107 506.478 217.32C506.136 219.837 505.091 221.843 503.342 223.336C501.635 224.787 499.395 225.512 496.622 225.512C493.592 225.512 491.16 224.616 489.326 222.824C487.534 221.032 486.638 218.664 486.638 215.72V201.896C486.638 198.995 487.534 196.648 489.326 194.856C491.16 193.021 493.592 192.104 496.622 192.104C499.694 192.104 502.126 193.021 503.918 194.856C505.752 196.648 506.67 198.995 506.67 201.896V209.896ZM496.622 196.072C495 196.072 493.678 196.648 492.654 197.8C491.672 198.909 491.182 200.381 491.182 202.216V206.504C491.182 206.675 491.267 206.76 491.438 206.76H501.934C502.104 206.76 502.19 206.675 502.19 206.504V202.216C502.19 200.381 501.678 198.909 500.654 197.8C499.63 196.648 498.286 196.072 496.622 196.072ZM524.348 192.296C525.415 192.296 526.332 192.531 527.1 193C527.399 193.171 527.505 193.448 527.42 193.832L526.652 197.16C526.609 197.544 526.353 197.672 525.884 197.544C525.372 197.288 524.732 197.16 523.964 197.16C523.623 197.16 523.367 197.181 523.196 197.224C521.66 197.309 520.401 198.12 519.42 199.656C518.439 201.149 517.948 202.984 517.948 205.16V224.36C517.948 224.787 517.735 225 517.308 225H514.044C513.617 225 513.404 224.787 513.404 224.36V193.256C513.404 192.829 513.617 192.616 514.044 192.616H517.308C517.735 192.616 517.948 192.829 517.948 193.256V197.096C517.948 197.224 517.969 197.288 518.012 197.288C518.097 197.288 518.183 197.245 518.268 197.16C519.505 193.917 521.532 192.296 524.348 192.296ZM546.499 193.256C546.499 192.829 546.712 192.616 547.139 192.616H550.403C550.83 192.616 551.043 192.829 551.043 193.256V224.36C551.043 228.925 549.976 232.381 547.843 234.728C545.752 237.117 542.232 238.205 537.283 237.992C536.856 237.949 536.643 237.715 536.643 237.288V234.536C536.643 234.109 536.856 233.896 537.283 233.896C540.696 233.981 543.086 233.192 544.451 231.528C545.816 229.907 546.499 227.389 546.499 223.976V222.056C546.499 221.971 546.456 221.907 546.371 221.864C546.328 221.821 546.264 221.843 546.179 221.928C545.454 222.995 544.515 223.805 543.363 224.36C542.254 224.915 541.059 225.192 539.779 225.192C537.091 225.192 534.958 224.296 533.379 222.504C531.843 220.712 531.075 218.344 531.075 215.4V201.896C531.075 198.909 531.843 196.541 533.379 194.792C534.958 193 537.091 192.104 539.779 192.104C541.059 192.104 542.254 192.381 543.363 192.936C544.515 193.448 545.454 194.237 546.179 195.304C546.264 195.432 546.328 195.496 546.371 195.496C546.456 195.453 546.499 195.368 546.499 195.24V193.256ZM541.123 221.224C542.702 221.224 543.982 220.669 544.963 219.56C545.987 218.408 546.499 216.936 546.499 215.144V202.216C546.499 200.381 545.987 198.909 544.963 197.8C543.982 196.648 542.702 196.072 541.123 196.072C539.502 196.072 538.179 196.648 537.155 197.8C536.131 198.909 535.619 200.381 535.619 202.216V215.144C535.619 216.936 536.131 218.408 537.155 219.56C538.179 220.669 539.502 221.224 541.123 221.224ZM556.254 237.8C556.168 237.8 556.083 237.736 555.998 237.608C555.912 237.48 555.87 237.331 555.87 237.16V234.6C555.87 234.173 556.083 233.96 556.51 233.96C557.832 233.917 558.856 233.661 559.582 233.192C560.35 232.723 560.968 231.891 561.438 230.696C561.907 229.501 562.376 227.667 562.845 225.192C562.888 225.107 562.888 225.043 562.845 225C562.845 224.915 562.845 224.851 562.845 224.808L554.718 193.32L554.654 193.128C554.654 192.787 554.867 192.616 555.294 192.616H558.75C559.176 192.616 559.411 192.808 559.454 193.192L565.086 218.344C565.128 218.472 565.171 218.536 565.214 218.536C565.256 218.536 565.299 218.472 565.342 218.344L570.91 193.192C570.995 192.808 571.23 192.616 571.614 192.616L575.198 192.68C575.411 192.68 575.56 192.744 575.646 192.872C575.774 193 575.795 193.171 575.71 193.384L566.814 227.816C566.046 230.675 565.278 232.787 564.51 234.152C563.784 235.517 562.824 236.456 561.63 236.968C560.435 237.523 558.75 237.8 556.574 237.8H556.254ZM422.421 272.368C422.421 272.795 422.208 273.008 421.781 273.008H416.917C416.746 273.008 416.661 273.093 416.661 273.264V292.848C416.661 294.811 417.002 296.176 417.685 296.944C418.368 297.669 419.413 298.011 420.821 297.968H421.461C421.888 297.968 422.101 298.181 422.101 298.608V301.36C422.101 301.787 421.888 302 421.461 302H419.861C417.344 302 415.424 301.467 414.101 300.4C412.821 299.291 412.181 297.221 412.181 294.192V273.264C412.181 273.093 412.096 273.008 411.925 273.008H409.429C409.002 273.008 408.789 272.795 408.789 272.368V270.256C408.789 269.829 409.002 269.616 409.429 269.616H411.925C412.096 269.616 412.181 269.531 412.181 269.36V262.192C412.181 261.765 412.394 261.552 412.821 261.552H416.021C416.448 261.552 416.661 261.765 416.661 262.192V269.36C416.661 269.531 416.746 269.616 416.917 269.616H421.781C422.208 269.616 422.421 269.829 422.421 270.256V272.368ZM439.612 269.168C442.214 269.168 444.22 270.064 445.628 271.856C447.078 273.648 447.804 276.144 447.804 279.344V301.36C447.804 301.787 447.59 302 447.164 302H443.9C443.473 302 443.26 301.787 443.26 301.36V279.728C443.26 277.637 442.79 276.016 441.852 274.864C440.956 273.712 439.697 273.136 438.076 273.136C436.369 273.136 435.025 273.755 434.044 274.992C433.105 276.229 432.635 277.915 432.635 280.048V301.36C432.635 301.787 432.422 302 431.996 302H428.732C428.305 302 428.092 301.787 428.092 301.36V257.84C428.092 257.413 428.305 257.2 428.732 257.2H431.996C432.422 257.2 432.635 257.413 432.635 257.84V272.304C432.635 272.389 432.678 272.453 432.764 272.496C432.849 272.539 432.913 272.496 432.956 272.368C433.724 271.301 434.684 270.512 435.836 270C437.03 269.445 438.289 269.168 439.612 269.168ZM466.161 269.296C467.227 269.296 468.145 269.531 468.913 270C469.211 270.171 469.318 270.448 469.233 270.832L468.465 274.16C468.422 274.544 468.166 274.672 467.697 274.544C467.185 274.288 466.545 274.16 465.777 274.16C465.435 274.16 465.179 274.181 465.009 274.224C463.473 274.309 462.214 275.12 461.233 276.656C460.251 278.149 459.76 279.984 459.76 282.16V301.36C459.76 301.787 459.547 302 459.121 302H455.857C455.43 302 455.217 301.787 455.217 301.36V270.256C455.217 269.829 455.43 269.616 455.857 269.616H459.121C459.547 269.616 459.76 269.829 459.76 270.256V274.096C459.76 274.224 459.782 274.288 459.825 274.288C459.91 274.288 459.995 274.245 460.081 274.16C461.318 270.917 463.345 269.296 466.161 269.296ZM482.998 302.512C479.926 302.512 477.473 301.616 475.638 299.824C473.846 298.032 472.95 295.664 472.95 292.72V278.96C472.95 276.059 473.867 273.691 475.702 271.856C477.537 270.021 479.969 269.104 482.998 269.104C486.07 269.104 488.523 270.021 490.358 271.856C492.193 273.691 493.11 276.059 493.11 278.96V292.72C493.11 295.664 492.193 298.032 490.358 299.824C488.523 301.616 486.07 302.512 482.998 302.512ZM482.998 298.48C484.619 298.48 485.942 297.925 486.966 296.816C488.033 295.707 488.566 294.235 488.566 292.4V279.216C488.566 277.381 488.033 275.909 486.966 274.8C485.942 273.648 484.619 273.072 482.998 273.072C481.377 273.072 480.054 273.648 479.03 274.8C478.006 275.909 477.494 277.381 477.494 279.216V292.4C477.494 294.235 478.006 295.707 479.03 296.816C480.054 297.925 481.377 298.48 482.998 298.48ZM515.001 270.256C515.001 269.829 515.214 269.616 515.641 269.616H518.905C519.331 269.616 519.545 269.829 519.545 270.256V301.36C519.545 301.787 519.331 302 518.905 302H515.641C515.214 302 515.001 301.787 515.001 301.36V299.184C515.001 299.056 514.958 298.992 514.873 298.992C514.83 298.992 514.766 299.035 514.681 299.12C513.358 301.339 511.225 302.448 508.281 302.448C505.721 302.448 503.673 301.68 502.137 300.144C500.643 298.565 499.897 296.197 499.897 293.04V270.256C499.897 269.829 500.11 269.616 500.536 269.616H503.801C504.227 269.616 504.441 269.829 504.441 270.256V292.016C504.441 294.149 504.867 295.771 505.72 296.88C506.617 297.947 507.897 298.48 509.561 298.48C511.267 298.48 512.59 297.861 513.529 296.624C514.51 295.387 515.001 293.701 515.001 291.568V270.256ZM542.062 270.256C542.062 269.829 542.275 269.616 542.702 269.616H545.966C546.392 269.616 546.606 269.829 546.606 270.256V301.36C546.606 305.925 545.539 309.381 543.406 311.728C541.315 314.117 537.795 315.205 532.845 314.992C532.419 314.949 532.206 314.715 532.206 314.288V311.536C532.206 311.109 532.419 310.896 532.845 310.896C536.259 310.981 538.648 310.192 540.014 308.528C541.379 306.907 542.062 304.389 542.062 300.976V299.056C542.062 298.971 542.019 298.907 541.934 298.864C541.891 298.821 541.827 298.843 541.742 298.928C541.016 299.995 540.078 300.805 538.926 301.36C537.816 301.915 536.622 302.192 535.342 302.192C532.654 302.192 530.52 301.296 528.942 299.504C527.406 297.712 526.638 295.344 526.638 292.4V278.896C526.638 275.909 527.406 273.541 528.942 271.792C530.52 270 532.654 269.104 535.342 269.104C536.622 269.104 537.816 269.381 538.926 269.936C540.078 270.448 541.016 271.237 541.742 272.304C541.827 272.432 541.891 272.496 541.934 272.496C542.019 272.453 542.062 272.368 542.062 272.24V270.256ZM536.686 298.224C538.264 298.224 539.544 297.669 540.526 296.56C541.55 295.408 542.062 293.936 542.062 292.144V279.216C542.062 277.381 541.55 275.909 540.526 274.8C539.544 273.648 538.264 273.072 536.686 273.072C535.064 273.072 533.742 273.648 532.718 274.8C531.694 275.909 531.182 277.381 531.182 279.216V292.144C531.182 293.936 531.694 295.408 532.718 296.56C533.742 297.669 535.064 298.224 536.686 298.224ZM565.299 269.168C567.902 269.168 569.907 270.064 571.315 271.856C572.766 273.648 573.491 276.144 573.491 279.344V301.36C573.491 301.787 573.278 302 572.851 302H569.587C569.16 302 568.947 301.787 568.947 301.36V279.728C568.947 277.637 568.478 276.016 567.539 274.864C566.643 273.712 565.384 273.136 563.763 273.136C562.056 273.136 560.712 273.755 559.731 274.992C558.792 276.229 558.323 277.915 558.323 280.048V301.36C558.323 301.787 558.11 302 557.683 302H554.419C553.992 302 553.779 301.787 553.779 301.36V257.84C553.779 257.413 553.992 257.2 554.419 257.2H557.683C558.11 257.2 558.323 257.413 558.323 257.84V272.304C558.323 272.389 558.366 272.453 558.451 272.496C558.536 272.539 558.6 272.496 558.643 272.368C559.411 271.301 560.371 270.512 561.523 270C562.718 269.445 563.976 269.168 565.299 269.168Z" fill="#287094"/>
<path opacity="0.1" d="M719 4.23118C719 3.42384 719.231 2.78951 719.692 2.32818C720.153 1.86684 720.788 1.63618 721.595 1.63618L837.505 1.63618C838.312 1.63618 838.947 1.86685 839.408 2.32818C839.869 2.78951 840.1 3.42385 840.1 4.23118L840.1 38.3122C840.1 45.9242 838.658 52.6135 835.775 58.3802C832.892 64.2622 828.797 68.8179 823.492 72.0472C818.302 75.2765 812.305 76.8912 805.5 76.8912L753.6 76.8912C746.795 76.8912 740.74 75.2765 735.435 72.0472C730.245 68.8178 726.208 64.2622 723.325 58.3802C720.442 52.6135 719 45.9242 719 38.3122L719 4.23118ZM747.891 34.1602C747.199 34.1602 746.853 34.5062 746.853 35.1982L747.026 37.6202C747.141 39.4655 748.006 41.0225 749.621 42.2912C751.236 43.5598 753.312 44.2518 755.849 44.3672L803.424 44.3672C806.077 44.3672 808.21 43.7328 809.825 42.4642C811.44 41.1955 812.247 39.5232 812.247 37.4472L812.247 35.1982C812.247 34.5062 811.901 34.1602 811.209 34.1602L747.891 34.1602ZM758.444 156.713C757.637 156.713 757.002 156.482 756.541 156.021C756.08 155.56 755.849 154.925 755.849 154.118L755.849 117.442C755.849 116.75 755.503 116.404 754.811 116.404L751.005 116.404C749.39 116.404 748.064 116.75 747.026 117.442C745.988 118.249 745.469 119.23 745.469 120.383C745.469 121.536 745.873 122.401 746.68 122.978C747.487 123.67 748.525 124.131 749.794 124.362C751.409 124.939 752.158 125.919 752.043 127.303L750.313 153.772C750.082 155.502 749.16 156.309 747.545 156.194C737.396 155.617 729.841 152.388 724.882 146.506C720.038 140.739 717.616 132.032 717.616 120.383C717.616 108.85 720.269 99.8538 725.574 93.3951C730.995 87.0518 738.607 83.8801 748.41 83.8801L779.55 83.8801C788.892 83.8801 796.331 87.1094 801.867 93.5681C807.518 100.027 810.344 108.965 810.344 120.383C810.344 131.801 807.518 140.682 801.867 147.025C796.331 153.484 788.892 156.713 779.55 156.713L758.444 156.713ZM782.491 120.383C782.491 119.23 781.972 118.249 780.934 117.442C779.896 116.75 778.57 116.404 776.955 116.404L772.803 116.404C772.111 116.404 771.765 116.75 771.765 117.442L771.765 123.151C771.765 123.843 772.111 124.189 772.803 124.189L776.955 124.189C778.57 124.189 779.896 123.843 780.934 123.151C781.972 122.459 782.491 121.536 782.491 120.383ZM717.616 198.074C717.616 187.002 720.211 178.121 725.401 171.432C730.591 164.858 737.453 161.571 745.988 161.571L746.507 161.571C747.314 161.571 747.949 161.801 748.41 162.263C748.871 162.724 749.102 163.358 749.102 164.166L749.102 190.116C749.102 190.923 748.871 191.557 748.41 192.019C748.064 192.48 747.545 192.711 746.853 192.711C745.123 192.711 743.797 193.23 742.874 194.268C741.951 195.306 741.49 196.459 741.49 197.728C741.49 198.766 741.778 199.573 742.355 200.15C743.047 200.726 743.854 201.015 744.777 201.015C746.507 201.015 747.776 200.15 748.583 198.42C749.506 196.69 750.544 193.806 751.697 189.77C752.043 188.386 752.504 186.771 753.081 184.926C755.042 178.813 758.213 173.565 762.596 169.183C767.094 164.915 773.207 162.782 780.934 162.782C789.93 162.782 797.081 165.896 802.386 172.124C807.691 178.352 810.344 186.54 810.344 196.69C810.344 207.3 807.461 215.777 801.694 222.121C795.927 228.464 788.315 231.636 778.858 231.636C778.397 231.636 777.993 231.405 777.647 230.944C777.301 230.482 777.128 229.848 777.128 229.041L777.128 203.956C777.128 203.148 777.359 202.514 777.82 202.053C778.281 201.591 778.916 201.361 779.723 201.361L780.761 201.361C782.145 201.361 783.241 200.957 784.048 200.15C784.855 199.458 785.259 198.593 785.259 197.555C785.259 196.401 784.798 195.479 783.875 194.787C782.952 194.21 781.914 193.922 780.761 193.922C778.454 193.922 776.667 195.017 775.398 197.209C774.129 199.515 772.976 202.456 771.938 206.032C769.516 214.336 766.402 221.025 762.596 226.1C758.79 231.174 752.966 233.712 745.123 233.712C736.588 233.712 729.841 230.425 724.882 223.851C720.038 217.392 717.616 208.8 717.616 198.074ZM815.015 254.727C815.015 249.998 816.514 246.077 819.513 242.963C822.627 239.964 826.548 238.465 831.277 238.465C836.121 238.465 840.042 239.964 843.041 242.963C846.04 246.077 847.539 249.998 847.539 254.727C847.539 259.456 846.04 263.319 843.041 266.318C840.042 269.432 836.121 270.989 831.277 270.989C826.664 270.989 822.8 269.432 819.686 266.318C816.572 263.319 815.015 259.456 815.015 254.727ZM719 241.406C719 240.599 719.231 239.964 719.692 239.503C720.153 239.042 720.788 238.811 721.595 238.811L806.365 238.811C807.172 238.811 807.807 239.042 808.268 239.503C808.729 239.964 808.96 240.599 808.96 241.406L808.96 268.74C808.96 269.547 808.729 270.182 808.268 270.643C807.807 271.104 807.172 271.335 806.365 271.335L721.595 271.335C720.788 271.335 720.153 271.104 719.692 270.643C719.231 270.182 719 269.547 719 268.74L719 241.406ZM806.365 317.627C807.172 317.627 807.807 317.858 808.268 318.319C808.729 318.781 808.96 319.415 808.96 320.222L808.96 347.556C808.96 348.364 808.729 348.998 808.268 349.459C807.807 349.921 807.172 350.151 806.365 350.151L724.882 350.151C716.232 350.151 708.851 348.883 702.738 346.345C696.625 343.923 691.781 339.368 688.206 332.678C684.515 325.989 682.67 316.589 682.67 304.479C682.67 299.981 682.785 296.464 683.016 293.926C683.016 292.196 683.881 291.331 685.611 291.331L708.62 291.331C710.465 291.331 711.273 292.254 711.042 294.099L710.869 298.424C710.869 304.883 711.792 309.439 713.637 312.091C715.367 314.859 717.962 316.589 721.422 317.281C721.768 317.281 722.056 316.878 722.287 316.07C722.518 315.378 722.518 314.859 722.287 314.513C719.173 311.284 717.616 306.844 717.616 301.192C717.616 292.888 720.269 286.833 725.574 283.027C730.879 279.337 738.491 277.491 748.41 277.491L779.55 277.491C789.815 277.491 797.484 279.394 802.559 283.2C807.749 287.006 810.344 293.004 810.344 301.192C810.344 307.882 807.807 312.956 802.732 316.416C802.271 316.647 802.04 316.878 802.04 317.108C802.155 317.454 802.444 317.627 802.905 317.627L806.365 317.627ZM745.469 313.648C745.469 314.802 745.988 315.724 747.026 316.416C748.064 317.224 749.39 317.627 751.005 317.627L776.955 317.627C778.57 317.627 779.896 317.224 780.934 316.416C781.972 315.724 782.491 314.802 782.491 313.648C782.491 312.495 781.972 311.572 780.934 310.88C779.896 310.304 778.57 310.015 776.955 310.015L751.005 310.015C749.39 310.015 748.064 310.304 747.026 310.88C745.988 311.572 745.469 312.495 745.469 313.648ZM810.344 405.851C810.344 422.228 799.964 430.417 779.204 430.417L721.595 430.417C720.788 430.417 720.153 430.186 719.692 429.725C719.231 429.263 719 428.629 719 427.822L719 400.488C719 399.68 719.231 399.046 719.692 398.585C720.153 398.123 720.788 397.893 721.595 397.893L776.955 397.893C780.646 397.893 782.491 396.682 782.491 394.26C782.491 391.607 780.646 390.281 776.955 390.281L721.595 390.281C720.788 390.281 720.153 390.05 719.692 389.589C719.231 389.127 719 388.493 719 387.686L719 360.352C719 359.544 719.231 358.91 719.692 358.449C720.153 357.987 720.788 357.757 721.595 357.757L806.365 357.757C807.172 357.757 807.807 357.987 808.268 358.449C808.729 358.91 808.96 359.544 808.96 360.352L808.96 387.686C808.96 388.493 808.729 389.127 808.268 389.589C807.807 390.05 807.172 390.281 806.365 390.281L803.77 390.281C803.539 390.281 803.424 390.396 803.424 390.627C803.424 391.203 803.943 391.895 804.981 392.703C808.556 396.047 810.344 400.43 810.344 405.851Z" fill="#333333"/>
</g>
</svg>
