<svg width="484" height="234" viewBox="0 0 484 234" fill="none" xmlns="http://www.w3.org/2000/svg">
<mask id="mask0" mask-type="alpha" maskUnits="userSpaceOnUse" x="0" y="0" width="484" height="234">
<rect width="484" height="234" fill="#C4C4C4"/>
</mask>
<g mask="url(#mask0)">
<rect width="371" height="234" fill="#287094"/>
<path d="M192.461 67C192.108 67 191.931 66.8233 191.931 66.47V30.43C191.931 30.0767 192.108 29.9 192.461 29.9H195.164C195.518 29.9 195.694 30.0767 195.694 30.43V66.47C195.694 66.8233 195.518 67 195.164 67H192.461ZM213.557 67C213.204 67 213.027 66.8233 213.027 66.47V30.43C213.027 30.0767 213.204 29.9 213.557 29.9H216.26C216.614 29.9 216.79 30.0767 216.79 30.43V66.47C216.79 66.8233 216.614 67 216.26 67H213.557ZM230.659 67.424C228.115 67.424 226.083 66.682 224.564 65.198C223.08 63.714 222.338 61.753 222.338 59.315V47.92C222.338 45.5173 223.097 43.5563 224.617 42.037C226.136 40.5177 228.15 39.758 230.659 39.758C233.203 39.758 235.234 40.5177 236.754 42.037C238.273 43.5563 239.033 45.5173 239.033 47.92V59.315C239.033 61.753 238.273 63.714 236.754 65.198C235.234 66.682 233.203 67.424 230.659 67.424ZM230.659 64.085C232.001 64.085 233.097 63.6257 233.945 62.707C234.828 61.7883 235.269 60.5693 235.269 59.05V48.132C235.269 46.6127 234.828 45.3937 233.945 44.475C233.097 43.521 232.001 43.044 230.659 43.044C229.316 43.044 228.221 43.521 227.373 44.475C226.525 45.3937 226.101 46.6127 226.101 48.132V59.05C226.101 60.5693 226.525 61.7883 227.373 62.707C228.221 63.6257 229.316 64.085 230.659 64.085ZM249.44 67C249.122 67 248.928 66.841 248.857 66.523L242.285 40.765L242.232 40.553C242.232 40.3057 242.391 40.182 242.709 40.182H245.783C246.101 40.182 246.295 40.341 246.366 40.659L250.924 60.746C250.959 60.852 250.995 60.905 251.03 60.905C251.065 60.905 251.101 60.852 251.136 60.746L255.641 40.659C255.712 40.341 255.906 40.182 256.224 40.182L259.298 40.235C259.475 40.235 259.598 40.288 259.669 40.394C259.775 40.5 259.793 40.6413 259.722 40.818L253.203 66.523C253.168 66.841 252.973 67 252.62 67H249.44ZM279.919 54.492C279.919 54.8453 279.742 55.022 279.389 55.022H267.305C267.163 55.022 267.093 55.0927 267.093 55.234V59.103C267.093 60.587 267.499 61.806 268.312 62.76C269.16 63.6787 270.255 64.138 271.598 64.138C272.728 64.138 273.682 63.8023 274.46 63.131C275.272 62.4243 275.802 61.5233 276.05 60.428C276.156 60.11 276.35 59.951 276.633 59.951L279.283 60.057C279.424 60.057 279.548 60.11 279.654 60.216C279.76 60.322 279.795 60.4633 279.76 60.64C279.477 62.7247 278.611 64.3853 277.163 65.622C275.749 66.8233 273.894 67.424 271.598 67.424C269.089 67.424 267.075 66.682 265.556 65.198C264.072 63.714 263.33 61.753 263.33 59.315V47.867C263.33 45.4643 264.072 43.521 265.556 42.037C267.075 40.5177 269.089 39.758 271.598 39.758C274.142 39.758 276.156 40.5177 277.64 42.037C279.159 43.521 279.919 45.4643 279.919 47.867V54.492ZM271.598 43.044C270.255 43.044 269.16 43.521 268.312 44.475C267.499 45.3937 267.093 46.6127 267.093 48.132V51.683C267.093 51.8243 267.163 51.895 267.305 51.895H275.997C276.138 51.895 276.209 51.8243 276.209 51.683V48.132C276.209 46.6127 275.785 45.3937 274.937 44.475C274.089 43.521 272.976 43.044 271.598 43.044ZM305.54 42.461C305.54 42.8143 305.363 42.991 305.01 42.991H300.982C300.841 42.991 300.77 43.0617 300.77 43.203V59.421C300.77 61.0463 301.053 62.177 301.618 62.813C302.183 63.4137 303.049 63.6963 304.215 63.661H304.745C305.098 63.661 305.275 63.8377 305.275 64.191V66.47C305.275 66.8233 305.098 67 304.745 67H303.42C301.335 67 299.745 66.5583 298.65 65.675C297.59 64.7563 297.06 63.0427 297.06 60.534V43.203C297.06 43.0617 296.989 42.991 296.848 42.991H294.781C294.428 42.991 294.251 42.8143 294.251 42.461V40.712C294.251 40.3587 294.428 40.182 294.781 40.182H296.848C296.989 40.182 297.06 40.1113 297.06 39.97V34.034C297.06 33.6807 297.237 33.504 297.59 33.504H300.24C300.593 33.504 300.77 33.6807 300.77 34.034V39.97C300.77 40.1113 300.841 40.182 300.982 40.182H305.01C305.363 40.182 305.54 40.3587 305.54 40.712V42.461ZM317.974 67.424C315.43 67.424 313.398 66.682 311.879 65.198C310.395 63.714 309.653 61.753 309.653 59.315V47.92C309.653 45.5173 310.413 43.5563 311.932 42.037C313.451 40.5177 315.465 39.758 317.974 39.758C320.518 39.758 322.55 40.5177 324.069 42.037C325.588 43.5563 326.348 45.5173 326.348 47.92V59.315C326.348 61.753 325.588 63.714 324.069 65.198C322.55 66.682 320.518 67.424 317.974 67.424ZM317.974 64.085C319.317 64.085 320.412 63.6257 321.26 62.707C322.143 61.7883 322.585 60.5693 322.585 59.05V48.132C322.585 46.6127 322.143 45.3937 321.26 44.475C320.412 43.521 319.317 43.044 317.974 43.044C316.631 43.044 315.536 43.521 314.688 44.475C313.84 45.3937 313.416 46.6127 313.416 48.132V59.05C313.416 60.5693 313.84 61.7883 314.688 62.707C315.536 63.6257 316.631 64.085 317.974 64.085ZM224.343 131.424C221.834 131.424 219.82 130.682 218.301 129.198C216.817 127.714 216.075 125.753 216.075 123.315V111.867C216.075 109.464 216.834 107.521 218.354 106.037C219.873 104.518 221.869 103.758 224.343 103.758C226.003 103.758 227.47 104.094 228.742 104.765C230.014 105.436 230.985 106.337 231.657 107.468C232.363 108.563 232.717 109.782 232.717 111.125V111.655C232.717 112.008 232.54 112.185 232.187 112.185L229.484 112.291C229.13 112.291 228.954 112.114 228.954 111.761V111.39C228.954 110.224 228.512 109.217 227.629 108.369C226.781 107.486 225.685 107.044 224.343 107.044C223 107.044 221.905 107.521 221.057 108.475C220.244 109.394 219.838 110.613 219.838 112.132V123.05C219.838 124.569 220.244 125.806 221.057 126.76C221.905 127.679 223 128.138 224.343 128.138C225.685 128.138 226.781 127.714 227.629 126.866C228.512 125.983 228.954 124.958 228.954 123.792V123.421C228.954 123.068 229.13 122.891 229.484 122.891L232.187 122.944C232.54 122.944 232.717 123.121 232.717 123.474V124.057C232.717 126.177 231.939 127.944 230.385 129.357C228.865 130.735 226.851 131.424 224.343 131.424ZM247.045 103.917C247.928 103.917 248.688 104.111 249.324 104.5C249.571 104.641 249.66 104.871 249.589 105.189L248.953 107.945C248.918 108.263 248.706 108.369 248.317 108.263C247.893 108.051 247.363 107.945 246.727 107.945C246.444 107.945 246.232 107.963 246.091 107.998C244.819 108.069 243.777 108.74 242.964 110.012C242.151 111.249 241.745 112.768 241.745 114.57V130.47C241.745 130.823 241.568 131 241.215 131H238.512C238.159 131 237.982 130.823 237.982 130.47V104.712C237.982 104.359 238.159 104.182 238.512 104.182H241.215C241.568 104.182 241.745 104.359 241.745 104.712V107.892C241.745 107.998 241.763 108.051 241.798 108.051C241.869 108.051 241.939 108.016 242.01 107.945C243.035 105.26 244.713 103.917 247.045 103.917ZM269.257 118.492C269.257 118.845 269.08 119.022 268.727 119.022H256.643C256.501 119.022 256.431 119.093 256.431 119.234V123.103C256.431 124.587 256.837 125.806 257.65 126.76C258.498 127.679 259.593 128.138 260.936 128.138C262.066 128.138 263.02 127.802 263.798 127.131C264.61 126.424 265.14 125.523 265.388 124.428C265.494 124.11 265.688 123.951 265.971 123.951L268.621 124.057C268.762 124.057 268.886 124.11 268.992 124.216C269.098 124.322 269.133 124.463 269.098 124.64C268.815 126.725 267.949 128.385 266.501 129.622C265.087 130.823 263.232 131.424 260.936 131.424C258.427 131.424 256.413 130.682 254.894 129.198C253.41 127.714 252.668 125.753 252.668 123.315V111.867C252.668 109.464 253.41 107.521 254.894 106.037C256.413 104.518 258.427 103.758 260.936 103.758C263.48 103.758 265.494 104.518 266.978 106.037C268.497 107.521 269.257 109.464 269.257 111.867V118.492ZM260.936 107.044C259.593 107.044 258.498 107.521 257.65 108.475C256.837 109.394 256.431 110.613 256.431 112.132V115.683C256.431 115.824 256.501 115.895 256.643 115.895H265.335C265.476 115.895 265.547 115.824 265.547 115.683V112.132C265.547 110.613 265.123 109.394 264.275 108.475C263.427 107.521 262.314 107.044 260.936 107.044ZM282.471 103.758C284.944 103.758 286.923 104.571 288.407 106.196C289.891 107.786 290.633 109.924 290.633 112.609V130.47C290.633 130.823 290.456 131 290.103 131H287.4C287.046 131 286.87 130.823 286.87 130.47V128.88C286.87 128.809 286.834 128.774 286.764 128.774C286.728 128.739 286.675 128.756 286.605 128.827C285.297 130.558 283.336 131.424 280.722 131.424C278.778 131.424 277.082 130.876 275.634 129.781C274.22 128.65 273.514 126.672 273.514 123.845C273.514 120.842 274.379 118.651 276.111 117.273C277.842 115.86 280.121 115.153 282.948 115.153H286.658C286.799 115.153 286.87 115.082 286.87 114.941V112.874C286.87 111.107 286.463 109.694 285.651 108.634C284.838 107.574 283.743 107.044 282.365 107.044C281.305 107.044 280.386 107.397 279.609 108.104C278.867 108.811 278.425 109.712 278.284 110.807C278.284 111.16 278.107 111.337 277.754 111.337L274.786 111.284C274.609 111.284 274.468 111.231 274.362 111.125C274.291 111.019 274.273 110.895 274.309 110.754C274.485 108.669 275.333 106.991 276.853 105.719C278.372 104.412 280.245 103.758 282.471 103.758ZM281.517 128.138C282.965 128.138 284.22 127.679 285.28 126.76C286.34 125.806 286.87 124.499 286.87 122.838V118.386C286.87 118.245 286.799 118.174 286.658 118.174H282.895C281.199 118.174 279.856 118.633 278.867 119.552C277.877 120.435 277.383 121.76 277.383 123.527C277.383 125.082 277.754 126.248 278.496 127.025C279.273 127.767 280.28 128.138 281.517 128.138ZM305.954 106.461C305.954 106.814 305.777 106.991 305.424 106.991H301.396C301.255 106.991 301.184 107.062 301.184 107.203V123.421C301.184 125.046 301.467 126.177 302.032 126.813C302.597 127.414 303.463 127.696 304.629 127.661H305.159C305.512 127.661 305.689 127.838 305.689 128.191V130.47C305.689 130.823 305.512 131 305.159 131H303.834C301.749 131 300.159 130.558 299.064 129.675C298.004 128.756 297.474 127.043 297.474 124.534V107.203C297.474 107.062 297.403 106.991 297.262 106.991H295.195C294.842 106.991 294.665 106.814 294.665 106.461V104.712C294.665 104.359 294.842 104.182 295.195 104.182H297.262C297.403 104.182 297.474 104.111 297.474 103.97V98.034C297.474 97.6807 297.651 97.504 298.004 97.504H300.654C301.007 97.504 301.184 97.6807 301.184 98.034V103.97C301.184 104.111 301.255 104.182 301.396 104.182H305.424C305.777 104.182 305.954 104.359 305.954 104.712V106.461ZM326.656 118.492C326.656 118.845 326.479 119.022 326.126 119.022H314.042C313.901 119.022 313.83 119.093 313.83 119.234V123.103C313.83 124.587 314.236 125.806 315.049 126.76C315.897 127.679 316.992 128.138 318.335 128.138C319.466 128.138 320.42 127.802 321.197 127.131C322.01 126.424 322.54 125.523 322.787 124.428C322.893 124.11 323.087 123.951 323.37 123.951L326.02 124.057C326.161 124.057 326.285 124.11 326.391 124.216C326.497 124.322 326.532 124.463 326.497 124.64C326.214 126.725 325.349 128.385 323.9 129.622C322.487 130.823 320.632 131.424 318.335 131.424C315.826 131.424 313.812 130.682 312.293 129.198C310.809 127.714 310.067 125.753 310.067 123.315V111.867C310.067 109.464 310.809 107.521 312.293 106.037C313.812 104.518 315.826 103.758 318.335 103.758C320.879 103.758 322.893 104.518 324.377 106.037C325.896 107.521 326.656 109.464 326.656 111.867V118.492ZM318.335 107.044C316.992 107.044 315.897 107.521 315.049 108.475C314.236 109.394 313.83 110.613 313.83 112.132V115.683C313.83 115.824 313.901 115.895 314.042 115.895H322.734C322.875 115.895 322.946 115.824 322.946 115.683V112.132C322.946 110.613 322.522 109.394 321.674 108.475C320.826 107.521 319.713 107.044 318.335 107.044ZM200.415 195.265C197.977 195.265 196.016 194.647 194.532 193.41C193.083 192.138 192.359 190.46 192.359 188.375V188.004C192.359 187.651 192.535 187.474 192.889 187.474H195.433C195.786 187.474 195.963 187.651 195.963 188.004V188.322C195.963 189.453 196.369 190.407 197.182 191.184C198.03 191.961 199.125 192.35 200.468 192.35C201.74 192.35 202.764 191.961 203.542 191.184C204.319 190.407 204.708 189.417 204.708 188.216C204.708 187.297 204.46 186.538 203.966 185.937C203.471 185.301 202.888 184.806 202.217 184.453C201.581 184.1 200.609 183.64 199.302 183.075C197.924 182.51 196.775 181.962 195.857 181.432C194.973 180.867 194.196 180.089 193.525 179.1C192.889 178.075 192.571 176.786 192.571 175.231C192.571 172.97 193.26 171.185 194.638 169.878C196.051 168.571 197.941 167.917 200.309 167.917C202.711 167.917 204.619 168.588 206.033 169.931C207.446 171.274 208.153 173.058 208.153 175.284V175.443C208.153 175.796 207.976 175.973 207.623 175.973H205.185C204.831 175.973 204.655 175.796 204.655 175.443V175.125C204.655 173.924 204.248 172.934 203.436 172.157C202.658 171.38 201.634 170.991 200.362 170.991C199.09 170.991 198.065 171.397 197.288 172.21C196.546 172.987 196.175 173.959 196.175 175.125C196.175 175.973 196.404 176.697 196.864 177.298C197.323 177.863 197.888 178.34 198.56 178.729C199.231 179.082 200.167 179.524 201.369 180.054C202.817 180.69 204.001 181.291 204.92 181.856C205.874 182.421 206.704 183.216 207.411 184.241C208.117 185.266 208.471 186.538 208.471 188.057C208.471 190.248 207.746 191.997 206.298 193.304C204.849 194.611 202.888 195.265 200.415 195.265ZM211.875 205.6C211.804 205.6 211.734 205.547 211.663 205.441C211.592 205.335 211.557 205.211 211.557 205.07V202.95C211.557 202.597 211.734 202.42 212.087 202.42C213.182 202.385 214.03 202.173 214.631 201.784C215.267 201.395 215.779 200.706 216.168 199.717C216.557 198.728 216.945 197.208 217.334 195.159C217.369 195.088 217.369 195.035 217.334 195C217.334 194.929 217.334 194.876 217.334 194.841L210.603 168.765L210.55 168.606C210.55 168.323 210.727 168.182 211.08 168.182H213.942C214.295 168.182 214.49 168.341 214.525 168.659L219.189 189.488C219.224 189.594 219.26 189.647 219.295 189.647C219.33 189.647 219.366 189.594 219.401 189.488L224.012 168.659C224.083 168.341 224.277 168.182 224.595 168.182L227.563 168.235C227.74 168.235 227.863 168.288 227.934 168.394C228.04 168.5 228.058 168.641 227.987 168.818L220.62 197.332C219.984 199.699 219.348 201.448 218.712 202.579C218.111 203.71 217.316 204.487 216.327 204.911C215.338 205.37 213.942 205.6 212.14 205.6H211.875ZM241.829 167.811C243.984 167.811 245.645 168.553 246.811 170.037C248.012 171.521 248.613 173.588 248.613 176.238V194.47C248.613 194.823 248.436 195 248.083 195H245.38C245.026 195 244.85 194.823 244.85 194.47V176.556C244.85 174.825 244.461 173.482 243.684 172.528C242.942 171.574 241.899 171.097 240.557 171.097C239.143 171.097 238.03 171.609 237.218 172.634C236.44 173.659 236.052 175.054 236.052 176.821V194.47C236.052 194.823 235.875 195 235.522 195H232.819C232.465 195 232.289 194.823 232.289 194.47V168.712C232.289 168.359 232.465 168.182 232.819 168.182H235.522C235.875 168.182 236.052 168.359 236.052 168.712V170.408C236.052 170.479 236.087 170.532 236.158 170.567C236.228 170.602 236.281 170.567 236.317 170.461C236.953 169.578 237.748 168.924 238.702 168.5C239.691 168.041 240.733 167.811 241.829 167.811ZM270.758 182.492C270.758 182.845 270.581 183.022 270.228 183.022H258.144C258.002 183.022 257.932 183.093 257.932 183.234V187.103C257.932 188.587 258.338 189.806 259.151 190.76C259.999 191.679 261.094 192.138 262.437 192.138C263.567 192.138 264.521 191.802 265.299 191.131C266.111 190.424 266.641 189.523 266.889 188.428C266.995 188.11 267.189 187.951 267.472 187.951L270.122 188.057C270.263 188.057 270.387 188.11 270.493 188.216C270.599 188.322 270.634 188.463 270.599 188.64C270.316 190.725 269.45 192.385 268.002 193.622C266.588 194.823 264.733 195.424 262.437 195.424C259.928 195.424 257.914 194.682 256.395 193.198C254.911 191.714 254.169 189.753 254.169 187.315V175.867C254.169 173.464 254.911 171.521 256.395 170.037C257.914 168.518 259.928 167.758 262.437 167.758C264.981 167.758 266.995 168.518 268.479 170.037C269.998 171.521 270.758 173.464 270.758 175.867V182.492ZM262.437 171.044C261.094 171.044 259.999 171.521 259.151 172.475C258.338 173.394 257.932 174.613 257.932 176.132V179.683C257.932 179.824 258.002 179.895 258.144 179.895H266.836C266.977 179.895 267.048 179.824 267.048 179.683V176.132C267.048 174.613 266.624 173.394 265.776 172.475C264.928 171.521 263.815 171.044 262.437 171.044ZM285.398 167.917C286.281 167.917 287.041 168.111 287.677 168.5C287.924 168.641 288.012 168.871 287.942 169.189L287.306 171.945C287.27 172.263 287.058 172.369 286.67 172.263C286.246 172.051 285.716 171.945 285.08 171.945C284.797 171.945 284.585 171.963 284.444 171.998C283.172 172.069 282.129 172.74 281.317 174.012C280.504 175.249 280.098 176.768 280.098 178.57V194.47C280.098 194.823 279.921 195 279.568 195H276.865C276.511 195 276.335 194.823 276.335 194.47V168.712C276.335 168.359 276.511 168.182 276.865 168.182H279.568C279.921 168.182 280.098 168.359 280.098 168.712V171.892C280.098 171.998 280.115 172.051 280.151 172.051C280.221 172.051 280.292 172.016 280.363 171.945C281.387 169.26 283.066 167.917 285.398 167.917ZM303.741 168.712C303.741 168.359 303.918 168.182 304.271 168.182H306.974C307.328 168.182 307.504 168.359 307.504 168.712V194.47C307.504 198.251 306.621 201.113 304.854 203.056C303.123 205.035 300.208 205.936 296.109 205.759C295.756 205.724 295.579 205.529 295.579 205.176V202.897C295.579 202.544 295.756 202.367 296.109 202.367C298.936 202.438 300.915 201.784 302.045 200.406C303.176 199.063 303.741 196.979 303.741 194.152V192.562C303.741 192.491 303.706 192.438 303.635 192.403C303.6 192.368 303.547 192.385 303.476 192.456C302.876 193.339 302.098 194.011 301.144 194.47C300.226 194.929 299.236 195.159 298.176 195.159C295.95 195.159 294.184 194.417 292.876 192.933C291.604 191.449 290.968 189.488 290.968 187.05V175.867C290.968 173.394 291.604 171.433 292.876 169.984C294.184 168.5 295.95 167.758 298.176 167.758C299.236 167.758 300.226 167.988 301.144 168.447C302.098 168.871 302.876 169.525 303.476 170.408C303.547 170.514 303.6 170.567 303.635 170.567C303.706 170.532 303.741 170.461 303.741 170.355V168.712ZM299.289 191.873C300.597 191.873 301.657 191.414 302.469 190.495C303.317 189.541 303.741 188.322 303.741 186.838V176.132C303.741 174.613 303.317 173.394 302.469 172.475C301.657 171.521 300.597 171.044 299.289 171.044C297.947 171.044 296.851 171.521 296.003 172.475C295.155 173.394 294.731 174.613 294.731 176.132V186.838C294.731 188.322 295.155 189.541 296.003 190.495C296.851 191.414 297.947 191.873 299.289 191.873ZM311.819 205.6C311.749 205.6 311.678 205.547 311.607 205.441C311.537 205.335 311.501 205.211 311.501 205.07V202.95C311.501 202.597 311.678 202.42 312.031 202.42C313.127 202.385 313.975 202.173 314.575 201.784C315.211 201.395 315.724 200.706 316.112 199.717C316.501 198.728 316.89 197.208 317.278 195.159C317.314 195.088 317.314 195.035 317.278 195C317.278 194.929 317.278 194.876 317.278 194.841L310.547 168.765L310.494 168.606C310.494 168.323 310.671 168.182 311.024 168.182H313.886C314.24 168.182 314.434 168.341 314.469 168.659L319.133 189.488C319.169 189.594 319.204 189.647 319.239 189.647C319.275 189.647 319.31 189.594 319.345 189.488L323.956 168.659C324.027 168.341 324.221 168.182 324.539 168.182L327.507 168.235C327.684 168.235 327.808 168.288 327.878 168.394C327.984 168.5 328.002 168.641 327.931 168.818L320.564 197.332C319.928 199.699 319.292 201.448 318.656 202.579C318.056 203.71 317.261 204.487 316.271 204.911C315.282 205.37 313.886 205.6 312.084 205.6H311.819Z" fill="#F6F6F6"/>
<path opacity="0.1" d="M413 -0.014672C413 -0.458005 413.127 -0.806339 413.38 -1.05967C413.633 -1.31301 413.982 -1.43967 414.425 -1.43967L478.075 -1.43967C478.518 -1.43967 478.867 -1.313 479.12 -1.05967C479.373 -0.806336 479.5 -0.458002 479.5 -0.0146691L479.5 18.7003C479.5 22.8803 478.708 26.5537 477.125 29.7203C475.542 32.9503 473.293 35.452 470.38 37.2253C467.53 38.9987 464.237 39.8853 460.5 39.8853L432 39.8853C428.263 39.8853 424.938 38.9987 422.025 37.2253C419.175 35.452 416.958 32.9503 415.375 29.7203C413.792 26.5537 413 22.8803 413 18.7003L413 -0.014672ZM428.865 16.4203C428.485 16.4203 428.295 16.6103 428.295 16.9903L428.39 18.3203C428.453 19.3337 428.928 20.1887 429.815 20.8853C430.702 21.582 431.842 21.962 433.235 22.0253L459.36 22.0253C460.817 22.0253 461.988 21.677 462.875 20.9803C463.762 20.2837 464.205 19.3653 464.205 18.2253L464.205 16.9903C464.205 16.6103 464.015 16.4203 463.635 16.4203L428.865 16.4203ZM434.66 83.7182C434.217 83.7182 433.868 83.5915 433.615 83.3382C433.362 83.0848 433.235 82.7365 433.235 82.2932L433.235 62.1532C433.235 61.7732 433.045 61.5832 432.665 61.5832L430.575 61.5832C429.688 61.5832 428.96 61.7732 428.39 62.1532C427.82 62.5965 427.535 63.1348 427.535 63.7682C427.535 64.4015 427.757 64.8765 428.2 65.1932C428.643 65.5732 429.213 65.8265 429.91 65.9532C430.797 66.2698 431.208 66.8082 431.145 67.5682L430.195 82.1032C430.068 83.0532 429.562 83.4965 428.675 83.4332C423.102 83.1165 418.953 81.3432 416.23 78.1132C413.57 74.9465 412.24 70.1648 412.24 63.7682C412.24 57.4348 413.697 52.4948 416.61 48.9482C419.587 45.4648 423.767 43.7232 429.15 43.7232L446.25 43.7232C451.38 43.7232 455.465 45.4965 458.505 49.0432C461.608 52.5898 463.16 57.4982 463.16 63.7682C463.16 70.0382 461.608 74.9148 458.505 78.3982C455.465 81.9448 451.38 83.7182 446.25 83.7182L434.66 83.7182ZM447.865 63.7682C447.865 63.1348 447.58 62.5965 447.01 62.1532C446.44 61.7732 445.712 61.5832 444.825 61.5832L442.545 61.5832C442.165 61.5832 441.975 61.7732 441.975 62.1532L441.975 65.2882C441.975 65.6682 442.165 65.8582 442.545 65.8582L444.825 65.8582C445.712 65.8582 446.44 65.6682 447.01 65.2882C447.58 64.9082 447.865 64.4015 447.865 63.7682ZM412.24 106.431C412.24 100.351 413.665 95.4739 416.515 91.8006C419.365 88.1906 423.133 86.3856 427.82 86.3856L428.105 86.3856C428.548 86.3856 428.897 86.5123 429.15 86.7656C429.403 87.0189 429.53 87.3673 429.53 87.8106L429.53 102.061C429.53 102.504 429.403 102.852 429.15 103.106C428.96 103.359 428.675 103.486 428.295 103.486C427.345 103.486 426.617 103.771 426.11 104.341C425.603 104.911 425.35 105.544 425.35 106.241C425.35 106.811 425.508 107.254 425.825 107.571C426.205 107.887 426.648 108.046 427.155 108.046C428.105 108.046 428.802 107.571 429.245 106.621C429.752 105.671 430.322 104.087 430.955 101.871C431.145 101.111 431.398 100.224 431.715 99.2106C432.792 95.8539 434.533 92.9723 436.94 90.5656C439.41 88.2223 442.767 87.0506 447.01 87.0506C451.95 87.0506 455.877 88.7606 458.79 92.1806C461.703 95.6006 463.16 100.097 463.16 105.671C463.16 111.497 461.577 116.152 458.41 119.636C455.243 123.119 451.063 124.861 445.87 124.861C445.617 124.861 445.395 124.734 445.205 124.481C445.015 124.227 444.92 123.879 444.92 123.436L444.92 109.661C444.92 109.217 445.047 108.869 445.3 108.616C445.553 108.362 445.902 108.236 446.345 108.236L446.915 108.236C447.675 108.236 448.277 108.014 448.72 107.571C449.163 107.191 449.385 106.716 449.385 106.146C449.385 105.512 449.132 105.006 448.625 104.626C448.118 104.309 447.548 104.151 446.915 104.151C445.648 104.151 444.667 104.752 443.97 105.956C443.273 107.222 442.64 108.837 442.07 110.801C440.74 115.361 439.03 119.034 436.94 121.821C434.85 124.607 431.652 126.001 427.345 126.001C422.658 126.001 418.953 124.196 416.23 120.586C413.57 117.039 412.24 112.321 412.24 106.431ZM465.725 137.541C465.725 134.944 466.548 132.791 468.195 131.081C469.905 129.434 472.058 128.611 474.655 128.611C477.315 128.611 479.468 129.434 481.115 131.081C482.762 132.791 483.585 134.944 483.585 137.541C483.585 140.138 482.762 142.259 481.115 143.906C479.468 145.616 477.315 146.471 474.655 146.471C472.122 146.471 470 145.616 468.29 143.906C466.58 142.259 465.725 140.138 465.725 137.541ZM413 130.226C413 129.783 413.127 129.434 413.38 129.181C413.633 128.928 413.982 128.801 414.425 128.801L460.975 128.801C461.418 128.801 461.767 128.928 462.02 129.181C462.273 129.434 462.4 129.783 462.4 130.226L462.4 145.236C462.4 145.679 462.273 146.028 462.02 146.281C461.767 146.534 461.418 146.661 460.975 146.661L414.425 146.661C413.982 146.661 413.633 146.534 413.38 146.281C413.127 146.028 413 145.679 413 145.236L413 130.226ZM460.975 172.082C461.418 172.082 461.767 172.208 462.02 172.462C462.273 172.715 462.4 173.063 462.4 173.507L462.4 188.517C462.4 188.96 462.273 189.308 462.02 189.562C461.767 189.815 461.418 189.942 460.975 189.942L416.23 189.942C411.48 189.942 407.427 189.245 404.07 187.852C400.713 186.522 398.053 184.02 396.09 180.347C394.063 176.673 393.05 171.512 393.05 164.862C393.05 162.392 393.113 160.46 393.24 159.067C393.24 158.117 393.715 157.642 394.665 157.642L407.3 157.642C408.313 157.642 408.757 158.148 408.63 159.162L408.535 161.537C408.535 165.083 409.042 167.585 410.055 169.042C411.005 170.562 412.43 171.512 414.33 171.892C414.52 171.892 414.678 171.67 414.805 171.227C414.932 170.847 414.932 170.562 414.805 170.372C413.095 168.598 412.24 166.16 412.24 163.057C412.24 158.497 413.697 155.172 416.61 153.082C419.523 151.055 423.703 150.042 429.15 150.042L446.25 150.042C451.887 150.042 456.098 151.087 458.885 153.177C461.735 155.267 463.16 158.56 463.16 163.057C463.16 166.73 461.767 169.517 458.98 171.417C458.727 171.543 458.6 171.67 458.6 171.797C458.663 171.987 458.822 172.082 459.075 172.082L460.975 172.082ZM427.535 169.897C427.535 170.53 427.82 171.037 428.39 171.417C428.96 171.86 429.688 172.082 430.575 172.082L444.825 172.082C445.712 172.082 446.44 171.86 447.01 171.417C447.58 171.037 447.865 170.53 447.865 169.897C447.865 169.263 447.58 168.757 447.01 168.377C446.44 168.06 445.712 167.902 444.825 167.902L430.575 167.902C429.688 167.902 428.96 168.06 428.39 168.377C427.82 168.757 427.535 169.263 427.535 169.897ZM463.16 220.528C463.16 229.521 457.46 234.018 446.06 234.018L414.425 234.018C413.982 234.018 413.633 233.891 413.38 233.638C413.127 233.384 413 233.036 413 232.593L413 217.583C413 217.139 413.127 216.791 413.38 216.538C413.633 216.284 413.982 216.158 414.425 216.158L444.825 216.158C446.852 216.158 447.865 215.493 447.865 214.163C447.865 212.706 446.852 211.978 444.825 211.978L414.425 211.978C413.982 211.978 413.633 211.851 413.38 211.598C413.127 211.344 413 210.996 413 210.553L413 195.543C413 195.099 413.127 194.751 413.38 194.498C413.633 194.244 413.982 194.118 414.425 194.118L460.975 194.118C461.418 194.118 461.767 194.244 462.02 194.498C462.273 194.751 462.4 195.099 462.4 195.543L462.4 210.553C462.4 210.996 462.273 211.344 462.02 211.598C461.767 211.851 461.418 211.978 460.975 211.978L459.55 211.978C459.423 211.978 459.36 212.041 459.36 212.168C459.36 212.484 459.645 212.864 460.215 213.308C462.178 215.144 463.16 217.551 463.16 220.528Z" fill="#333333"/>
</g>
</svg>
