<svg width="341" height="292" viewBox="0 0 341 292" fill="none" xmlns="http://www.w3.org/2000/svg">
<path d="M62.1162 112.019C60.3156 112.019 58.8602 111.464 57.7502 110.354C56.6649 109.219 56.1222 107.714 56.1222 105.84V91.6317C56.1222 89.7817 56.6649 88.3017 57.7502 87.1917C58.8602 86.0817 60.3156 85.5267 62.1162 85.5267C63.9416 85.5267 65.3969 86.0817 66.4822 87.1917C67.5922 88.3017 68.1472 89.7817 68.1472 91.6317V92.3347C68.1472 92.458 68.1102 92.5567 68.0362 92.6307C67.9622 92.7047 67.8759 92.7417 67.7772 92.7417L66.5562 92.8157C66.3096 92.8157 66.1862 92.6923 66.1862 92.4457V91.5207C66.1862 90.238 65.8162 89.2143 65.0762 88.4497C64.3362 87.6603 63.3496 87.2657 62.1162 87.2657C60.9076 87.2657 59.9332 87.6603 59.1932 88.4497C58.4532 89.2143 58.0832 90.238 58.0832 91.5207V105.988C58.0832 107.27 58.4532 108.306 59.1932 109.096C59.9332 109.885 60.9076 110.28 62.1162 110.28C63.3249 110.28 64.2992 109.885 65.0392 109.096C65.8039 108.306 66.1862 107.27 66.1862 105.988V105.137C66.1862 104.89 66.3096 104.767 66.5562 104.767L67.7772 104.841C68.0239 104.841 68.1472 104.964 68.1472 105.211V105.84C68.1472 107.714 67.5922 109.219 66.4822 110.354C65.3969 111.464 63.9416 112.019 62.1162 112.019ZM78.4113 92.9267C79.0279 92.9267 79.5583 93.05 80.0023 93.2967C80.1749 93.3953 80.2366 93.5557 80.1873 93.7777L79.8913 95.0357C79.8173 95.2577 79.6569 95.3193 79.4103 95.2207C79.0156 95.0727 78.5346 95.011 77.9673 95.0357C76.9806 95.0603 76.1789 95.5537 75.5623 96.5157C74.9456 97.4777 74.6373 98.6617 74.6373 100.068V111.353C74.6373 111.599 74.5139 111.723 74.2673 111.723H73.0463C72.7996 111.723 72.6763 111.599 72.6763 111.353V93.4447C72.6763 93.198 72.7996 93.0747 73.0463 93.0747H74.2673C74.5139 93.0747 74.6373 93.198 74.6373 93.4447V95.7387C74.6373 95.8127 74.6619 95.8497 74.7113 95.8497C74.7606 95.8497 74.7976 95.8127 74.8223 95.7387C75.1676 94.8507 75.6363 94.16 76.2283 93.6667C76.8449 93.1733 77.5726 92.9267 78.4113 92.9267ZM93.6275 102.732C93.6275 102.978 93.5042 103.102 93.2575 103.102H84.7475C84.6488 103.102 84.5995 103.151 84.5995 103.25V106.395C84.5995 107.529 84.9202 108.467 85.5615 109.207C86.2275 109.922 87.0785 110.28 88.1145 110.28C88.9778 110.28 89.7178 110.021 90.3345 109.503C90.9512 108.985 91.3582 108.306 91.5555 107.468C91.6295 107.246 91.7652 107.135 91.9625 107.135L93.1465 107.209C93.2452 107.209 93.3315 107.233 93.4055 107.283C93.4795 107.332 93.5042 107.406 93.4795 107.505V107.653C93.2328 109.009 92.6408 110.082 91.7035 110.872C90.7662 111.636 89.5698 112.019 88.1145 112.019C86.4865 112.019 85.1668 111.513 84.1555 110.502C83.1442 109.466 82.6385 108.134 82.6385 106.506V98.3287C82.6385 96.7007 83.1442 95.3687 84.1555 94.3327C85.1668 93.2967 86.4865 92.7787 88.1145 92.7787C89.7672 92.7787 91.0992 93.2967 92.1105 94.3327C93.1218 95.3687 93.6275 96.7007 93.6275 98.3287V102.732ZM88.1145 94.5177C87.0785 94.5177 86.2275 94.8877 85.5615 95.6277C84.9202 96.343 84.5995 97.2803 84.5995 98.4397V101.252C84.5995 101.35 84.6488 101.4 84.7475 101.4H91.5185C91.6172 101.4 91.6665 101.35 91.6665 101.252V98.4397C91.6665 97.2803 91.3335 96.343 90.6675 95.6277C90.0262 94.8877 89.1752 94.5177 88.1145 94.5177ZM102.858 92.7787C104.535 92.7787 105.842 93.346 106.78 94.4807C107.742 95.5907 108.223 97.083 108.223 98.9577V111.353C108.223 111.599 108.099 111.723 107.853 111.723H106.632C106.385 111.723 106.262 111.599 106.262 111.353V110.021C106.262 109.947 106.237 109.91 106.188 109.91C106.163 109.885 106.126 109.897 106.077 109.947C105.164 111.328 103.733 112.019 101.785 112.019C100.477 112.019 99.3426 111.636 98.3806 110.872C97.4186 110.107 96.9376 108.763 96.9376 106.839C96.9376 104.791 97.5049 103.287 98.6396 102.325C99.7989 101.363 101.328 100.882 103.228 100.882H106.114C106.212 100.882 106.262 100.832 106.262 100.734V99.0317C106.262 97.6503 105.953 96.5527 105.337 95.7387C104.72 94.9247 103.869 94.5177 102.784 94.5177C101.945 94.5177 101.205 94.789 100.564 95.3317C99.9469 95.8743 99.5892 96.5773 99.4906 97.4407C99.4906 97.6873 99.3672 97.8107 99.1206 97.8107L97.7886 97.7367C97.6652 97.7367 97.5666 97.6997 97.4926 97.6257C97.4432 97.5517 97.4309 97.4653 97.4556 97.3667C97.6036 95.9853 98.1832 94.8753 99.1946 94.0367C100.206 93.198 101.427 92.7787 102.858 92.7787ZM102.192 110.28C103.302 110.28 104.251 109.922 105.041 109.207C105.855 108.491 106.262 107.48 106.262 106.173V102.658C106.262 102.559 106.212 102.51 106.114 102.51H103.228C101.945 102.51 100.909 102.867 100.12 103.583C99.3549 104.273 98.9726 105.309 98.9726 106.691C98.9726 107.899 99.2686 108.8 99.8606 109.392C100.453 109.984 101.23 110.28 102.192 110.28ZM118.779 94.2587C118.779 94.5053 118.655 94.6287 118.409 94.6287H115.449C115.35 94.6287 115.301 94.678 115.301 94.7767V106.691C115.301 107.924 115.51 108.787 115.93 109.281C116.349 109.749 117.015 109.984 117.928 109.984H118.298C118.544 109.984 118.668 110.107 118.668 110.354V111.353C118.668 111.599 118.544 111.723 118.298 111.723H117.558C116.176 111.723 115.128 111.402 114.413 110.761C113.722 110.119 113.377 108.923 113.377 107.172V94.7767C113.377 94.678 113.327 94.6287 113.229 94.6287H111.712C111.465 94.6287 111.342 94.5053 111.342 94.2587V93.4447C111.342 93.198 111.465 93.0747 111.712 93.0747H113.229C113.327 93.0747 113.377 93.0253 113.377 92.9267V88.7827C113.377 88.536 113.5 88.4127 113.747 88.4127H114.931C115.177 88.4127 115.301 88.536 115.301 88.7827V92.9267C115.301 93.0253 115.35 93.0747 115.449 93.0747H118.409C118.655 93.0747 118.779 93.198 118.779 93.4447V94.2587ZM123.69 89.3377C123.147 89.3377 122.703 89.165 122.358 88.8197C122.013 88.4743 121.84 88.0303 121.84 87.4877C121.84 86.945 122.013 86.501 122.358 86.1557C122.703 85.8103 123.147 85.6377 123.69 85.6377C124.233 85.6377 124.677 85.8103 125.022 86.1557C125.367 86.501 125.54 86.945 125.54 87.4877C125.54 88.0303 125.367 88.4743 125.022 88.8197C124.677 89.165 124.233 89.3377 123.69 89.3377ZM123.098 111.723C122.851 111.723 122.728 111.599 122.728 111.353V93.4447C122.728 93.198 122.851 93.0747 123.098 93.0747H124.319C124.566 93.0747 124.689 93.198 124.689 93.4447V111.353C124.689 111.599 124.566 111.723 124.319 111.723H123.098ZM136.051 92.8157C137.556 92.8157 138.715 93.3213 139.529 94.3327C140.343 95.344 140.75 96.7623 140.75 98.5877V111.353C140.75 111.599 140.627 111.723 140.38 111.723H139.159C138.912 111.723 138.789 111.599 138.789 111.353V98.7727C138.789 97.4407 138.493 96.4047 137.901 95.6647C137.309 94.9247 136.483 94.5547 135.422 94.5547C134.337 94.5547 133.486 94.9493 132.869 95.7387C132.252 96.528 131.944 97.6133 131.944 98.9947V111.353C131.944 111.599 131.821 111.723 131.574 111.723H130.353C130.106 111.723 129.983 111.599 129.983 111.353V93.4447C129.983 93.198 130.106 93.0747 130.353 93.0747H131.574C131.821 93.0747 131.944 93.198 131.944 93.4447V94.8507C131.944 94.9247 131.956 94.9617 131.981 94.9617C132.03 94.9617 132.08 94.937 132.129 94.8877C132.968 93.5063 134.275 92.8157 136.051 92.8157ZM153.958 93.4447C153.958 93.198 154.081 93.0747 154.328 93.0747H155.586C155.832 93.0747 155.956 93.198 155.956 93.4447V111.501C155.956 114.041 155.376 115.978 154.217 117.31C153.057 118.642 151.195 119.258 148.63 119.16C148.383 119.16 148.26 119.036 148.26 118.79V117.791C148.26 117.544 148.42 117.421 148.741 117.421C150.615 117.421 151.947 116.915 152.737 115.904C153.551 114.892 153.958 113.375 153.958 111.353V109.947C153.958 109.873 153.933 109.836 153.884 109.836C153.834 109.811 153.797 109.836 153.773 109.91C153.353 110.576 152.811 111.081 152.145 111.427C151.503 111.747 150.788 111.908 149.999 111.908C148.469 111.908 147.248 111.402 146.336 110.391C145.448 109.355 145.004 108.01 145.004 106.358V98.3287C145.004 96.676 145.448 95.344 146.336 94.3327C147.248 93.2967 148.469 92.7787 149.999 92.7787C150.788 92.7787 151.516 92.9513 152.182 93.2967C152.848 93.642 153.378 94.1353 153.773 94.7767C153.822 94.826 153.859 94.8507 153.884 94.8507C153.933 94.8507 153.958 94.8137 153.958 94.7397V93.4447ZM150.517 110.169C151.528 110.169 152.354 109.811 152.996 109.096C153.637 108.38 153.958 107.443 153.958 106.284V98.4397C153.958 97.2803 153.637 96.343 152.996 95.6277C152.354 94.8877 151.528 94.5177 150.517 94.5177C149.481 94.5177 148.63 94.8877 147.964 95.6277C147.298 96.343 146.965 97.2803 146.965 98.4397V106.284C146.965 107.418 147.298 108.356 147.964 109.096C148.63 109.811 149.481 110.169 150.517 110.169ZM70.5427 155.908C68.9394 155.908 67.6444 155.476 66.6577 154.613C65.6957 153.725 65.2147 152.59 65.2147 151.209V150.987C65.2147 150.74 65.338 150.617 65.5847 150.617H66.7317C66.9784 150.617 67.1017 150.74 67.1017 150.987V151.209C67.1017 152.097 67.4224 152.837 68.0637 153.429C68.705 154.021 69.5314 154.317 70.5427 154.317C71.5294 154.317 72.3187 154.021 72.9107 153.429C73.5274 152.812 73.8357 152.023 73.8357 151.061C73.8357 150.345 73.663 149.753 73.3177 149.285C72.9724 148.816 72.5407 148.446 72.0227 148.175C71.5047 147.879 70.8017 147.546 69.9137 147.176C68.9517 146.781 68.1624 146.399 67.5457 146.029C66.929 145.634 66.3987 145.104 65.9547 144.438C65.5354 143.747 65.3257 142.884 65.3257 141.848C65.3257 140.343 65.7944 139.147 66.7317 138.259C67.669 137.371 68.9147 136.927 70.4687 136.927C72.0474 136.927 73.3054 137.383 74.2427 138.296C75.18 139.208 75.6487 140.392 75.6487 141.848V141.959C75.6487 142.205 75.5254 142.329 75.2787 142.329H74.1687C73.922 142.329 73.7987 142.205 73.7987 141.959V141.774C73.7987 140.861 73.4904 140.096 72.8737 139.48C72.257 138.863 71.4554 138.555 70.4687 138.555C69.482 138.555 68.6927 138.863 68.1007 139.48C67.5087 140.072 67.2127 140.849 67.2127 141.811C67.2127 142.477 67.373 143.032 67.6937 143.476C68.0144 143.92 68.409 144.277 68.8777 144.549C69.371 144.82 70.0494 145.153 70.9127 145.548C71.924 145.967 72.7504 146.374 73.3917 146.769C74.0577 147.139 74.625 147.669 75.0937 148.36C75.5624 149.05 75.7967 149.926 75.7967 150.987C75.7967 152.467 75.3157 153.663 74.3537 154.576C73.3917 155.464 72.1214 155.908 70.5427 155.908ZM78.4384 163.123C78.3891 163.123 78.3398 163.086 78.2904 163.012C78.2411 162.938 78.2164 162.851 78.2164 162.753V161.791C78.2164 161.544 78.3398 161.421 78.5864 161.421H78.6234C79.3634 161.396 79.9308 161.236 80.3254 160.94C80.7448 160.668 81.0901 160.15 81.3614 159.386C81.6574 158.621 81.9658 157.437 82.2864 155.834C82.3111 155.784 82.3111 155.747 82.2864 155.723C82.2864 155.673 82.2864 155.636 82.2864 155.612L77.5504 137.482L77.5134 137.371C77.5134 137.173 77.6368 137.075 77.8834 137.075H79.1784C79.4004 137.075 79.5361 137.186 79.5854 137.408L83.2484 152.837C83.2731 152.911 83.2978 152.948 83.3224 152.948C83.3471 152.948 83.3718 152.911 83.3964 152.837L87.0224 137.408C87.0718 137.186 87.2074 137.075 87.4294 137.075L88.7614 137.112C88.8848 137.112 88.9711 137.149 89.0204 137.223C89.0944 137.297 89.1068 137.395 89.0574 137.519L83.8404 157.61C83.4211 159.213 83.0018 160.397 82.5824 161.162C82.1878 161.926 81.6944 162.444 81.1024 162.716C80.5104 162.987 79.6841 163.123 78.6234 163.123H78.4384ZM98.3644 136.816C99.8691 136.816 101.028 137.321 101.842 138.333C102.656 139.344 103.063 140.762 103.063 142.588V155.353C103.063 155.599 102.94 155.723 102.693 155.723H101.472C101.226 155.723 101.102 155.599 101.102 155.353V142.773C101.102 141.441 100.806 140.405 100.214 139.665C99.6224 138.925 98.796 138.555 97.7354 138.555C96.65 138.555 95.799 138.949 95.1824 139.739C94.5657 140.528 94.2574 141.613 94.2574 142.995V155.353C94.2574 155.599 94.134 155.723 93.8874 155.723H92.6664C92.4197 155.723 92.2964 155.599 92.2964 155.353V137.445C92.2964 137.198 92.4197 137.075 92.6664 137.075H93.8874C94.134 137.075 94.2574 137.198 94.2574 137.445V138.851C94.2574 138.925 94.2697 138.962 94.2944 138.962C94.3437 138.962 94.393 138.937 94.4424 138.888C95.281 137.506 96.5884 136.816 98.3644 136.816ZM118.306 146.732C118.306 146.978 118.183 147.102 117.936 147.102H109.426C109.328 147.102 109.278 147.151 109.278 147.25V150.395C109.278 151.529 109.599 152.467 110.24 153.207C110.906 153.922 111.757 154.28 112.793 154.28C113.657 154.28 114.397 154.021 115.013 153.503C115.63 152.985 116.037 152.306 116.234 151.468C116.308 151.246 116.444 151.135 116.641 151.135L117.825 151.209C117.924 151.209 118.01 151.233 118.084 151.283C118.158 151.332 118.183 151.406 118.158 151.505V151.653C117.912 153.009 117.32 154.082 116.382 154.872C115.445 155.636 114.249 156.019 112.793 156.019C111.165 156.019 109.846 155.513 108.834 154.502C107.823 153.466 107.317 152.134 107.317 150.506V142.329C107.317 140.701 107.823 139.369 108.834 138.333C109.846 137.297 111.165 136.779 112.793 136.779C114.446 136.779 115.778 137.297 116.789 138.333C117.801 139.369 118.306 140.701 118.306 142.329V146.732ZM112.793 138.518C111.757 138.518 110.906 138.888 110.24 139.628C109.599 140.343 109.278 141.28 109.278 142.44V145.252C109.278 145.35 109.328 145.4 109.426 145.4H116.197C116.296 145.4 116.345 145.35 116.345 145.252V142.44C116.345 141.28 116.012 140.343 115.346 139.628C114.705 138.888 113.854 138.518 112.793 138.518ZM128.311 136.927C128.927 136.927 129.458 137.05 129.902 137.297C130.074 137.395 130.136 137.556 130.087 137.778L129.791 139.036C129.717 139.258 129.556 139.319 129.31 139.221C128.915 139.073 128.434 139.011 127.867 139.036C126.88 139.06 126.078 139.554 125.462 140.516C124.845 141.478 124.537 142.662 124.537 144.068V155.353C124.537 155.599 124.413 155.723 124.167 155.723H122.946C122.699 155.723 122.576 155.599 122.576 155.353V137.445C122.576 137.198 122.699 137.075 122.946 137.075H124.167C124.413 137.075 124.537 137.198 124.537 137.445V139.739C124.537 139.813 124.561 139.85 124.611 139.85C124.66 139.85 124.697 139.813 124.722 139.739C125.067 138.851 125.536 138.16 126.128 137.667C126.744 137.173 127.472 136.927 128.311 136.927ZM141.492 137.445C141.492 137.198 141.615 137.075 141.862 137.075H143.12C143.367 137.075 143.49 137.198 143.49 137.445V155.501C143.49 158.041 142.91 159.978 141.751 161.31C140.592 162.642 138.729 163.258 136.164 163.16C135.917 163.16 135.794 163.036 135.794 162.79V161.791C135.794 161.544 135.954 161.421 136.275 161.421C138.15 161.421 139.482 160.915 140.271 159.904C141.085 158.892 141.492 157.375 141.492 155.353V153.947C141.492 153.873 141.467 153.836 141.418 153.836C141.369 153.811 141.332 153.836 141.307 153.91C140.888 154.576 140.345 155.081 139.679 155.427C139.038 155.747 138.322 155.908 137.533 155.908C136.004 155.908 134.783 155.402 133.87 154.391C132.982 153.355 132.538 152.01 132.538 150.358V142.329C132.538 140.676 132.982 139.344 133.87 138.333C134.783 137.297 136.004 136.779 137.533 136.779C138.322 136.779 139.05 136.951 139.716 137.297C140.382 137.642 140.912 138.135 141.307 138.777C141.356 138.826 141.393 138.851 141.418 138.851C141.467 138.851 141.492 138.814 141.492 138.74V137.445ZM138.051 154.169C139.062 154.169 139.889 153.811 140.53 153.096C141.171 152.38 141.492 151.443 141.492 150.284V142.44C141.492 141.28 141.171 140.343 140.53 139.628C139.889 138.888 139.062 138.518 138.051 138.518C137.015 138.518 136.164 138.888 135.498 139.628C134.832 140.343 134.499 141.28 134.499 142.44V150.284C134.499 151.418 134.832 152.356 135.498 153.096C136.164 153.811 137.015 154.169 138.051 154.169ZM146.621 163.123C146.572 163.123 146.522 163.086 146.473 163.012C146.424 162.938 146.399 162.851 146.399 162.753V161.791C146.399 161.544 146.522 161.421 146.769 161.421H146.806C147.546 161.396 148.113 161.236 148.508 160.94C148.927 160.668 149.273 160.15 149.544 159.386C149.84 158.621 150.148 157.437 150.469 155.834C150.494 155.784 150.494 155.747 150.469 155.723C150.469 155.673 150.469 155.636 150.469 155.612L145.733 137.482L145.696 137.371C145.696 137.173 145.819 137.075 146.066 137.075H147.361C147.583 137.075 147.719 137.186 147.768 137.408L151.431 152.837C151.456 152.911 151.48 152.948 151.505 152.948C151.53 152.948 151.554 152.911 151.579 152.837L155.205 137.408C155.254 137.186 155.39 137.075 155.612 137.075L156.944 137.112C157.067 137.112 157.154 137.149 157.203 137.223C157.277 137.297 157.289 137.395 157.24 137.519L152.023 157.61C151.604 159.213 151.184 160.397 150.765 161.162C150.37 161.926 149.877 162.444 149.285 162.716C148.693 162.987 147.867 163.123 146.806 163.123H146.621ZM69.9631 182.259C69.9631 182.505 69.8398 182.629 69.5931 182.629H66.6331C66.5345 182.629 66.4851 182.678 66.4851 182.777V194.691C66.4851 195.924 66.6948 196.787 67.1141 197.281C67.5335 197.749 68.1995 197.984 69.1121 197.984H69.4821C69.7288 197.984 69.8521 198.107 69.8521 198.354V199.353C69.8521 199.599 69.7288 199.723 69.4821 199.723H68.7421C67.3608 199.723 66.3125 199.402 65.5971 198.761C64.9065 198.119 64.5611 196.923 64.5611 195.172V182.777C64.5611 182.678 64.5118 182.629 64.4131 182.629H62.8961C62.6495 182.629 62.5261 182.505 62.5261 182.259V181.445C62.5261 181.198 62.6495 181.075 62.8961 181.075H64.4131C64.5118 181.075 64.5611 181.025 64.5611 180.927V176.783C64.5611 176.536 64.6845 176.413 64.9311 176.413H66.1151C66.3618 176.413 66.4851 176.536 66.4851 176.783V180.927C66.4851 181.025 66.5345 181.075 66.6331 181.075H69.5931C69.8398 181.075 69.9631 181.198 69.9631 181.445V182.259ZM79.6476 180.816C81.1523 180.816 82.3116 181.321 83.1256 182.333C83.9396 183.344 84.3466 184.762 84.3466 186.588V199.353C84.3466 199.599 84.2233 199.723 83.9766 199.723H82.7556C82.5089 199.723 82.3856 199.599 82.3856 199.353V186.773C82.3856 185.441 82.0896 184.405 81.4976 183.665C80.9056 182.925 80.0793 182.555 79.0186 182.555C77.9333 182.555 77.0823 182.949 76.4656 183.739C75.8489 184.528 75.5406 185.613 75.5406 186.995V199.353C75.5406 199.599 75.4173 199.723 75.1706 199.723H73.9496C73.7029 199.723 73.5796 199.599 73.5796 199.353V174.193C73.5796 173.946 73.7029 173.823 73.9496 173.823H75.1706C75.4173 173.823 75.5406 173.946 75.5406 174.193V182.851C75.5406 182.925 75.5529 182.962 75.5776 182.962C75.6269 182.962 75.6763 182.937 75.7256 182.888C76.5643 181.506 77.8716 180.816 79.6476 180.816ZM94.7794 180.927C95.3961 180.927 95.9264 181.05 96.3704 181.297C96.5431 181.395 96.6048 181.556 96.5554 181.778L96.2594 183.036C96.1854 183.258 96.0251 183.319 95.7784 183.221C95.3838 183.073 94.9028 183.011 94.3354 183.036C93.3488 183.06 92.5471 183.554 91.9304 184.516C91.3138 185.478 91.0054 186.662 91.0054 188.068V199.353C91.0054 199.599 90.8821 199.723 90.6354 199.723H89.4144C89.1678 199.723 89.0444 199.599 89.0444 199.353V181.445C89.0444 181.198 89.1678 181.075 89.4144 181.075H90.6354C90.8821 181.075 91.0054 181.198 91.0054 181.445V183.739C91.0054 183.813 91.0301 183.85 91.0794 183.85C91.1288 183.85 91.1658 183.813 91.1904 183.739C91.5358 182.851 92.0044 182.16 92.5964 181.667C93.2131 181.173 93.9408 180.927 94.7794 180.927ZM104.483 200.019C102.83 200.019 101.498 199.513 100.487 198.502C99.5 197.466 99.0067 196.121 99.0067 194.469V186.329C99.0067 184.701 99.5123 183.369 100.524 182.333C101.535 181.297 102.855 180.779 104.483 180.779C106.16 180.779 107.504 181.297 108.516 182.333C109.527 183.344 110.033 184.676 110.033 186.329V194.469C110.033 196.121 109.527 197.466 108.516 198.502C107.504 199.513 106.16 200.019 104.483 200.019ZM104.483 198.28C105.543 198.28 106.407 197.922 107.073 197.207C107.739 196.467 108.072 195.529 108.072 194.395V186.44C108.072 185.28 107.739 184.343 107.073 183.628C106.407 182.888 105.543 182.518 104.483 182.518C103.447 182.518 102.596 182.888 101.93 183.628C101.288 184.343 100.968 185.28 100.968 186.44V194.395C100.968 195.529 101.288 196.467 101.93 197.207C102.596 197.922 103.447 198.28 104.483 198.28ZM123.065 181.445C123.065 181.198 123.188 181.075 123.435 181.075H124.656C124.903 181.075 125.026 181.198 125.026 181.445V199.353C125.026 199.599 124.903 199.723 124.656 199.723H123.435C123.188 199.723 123.065 199.599 123.065 199.353V198.021C123.065 197.947 123.04 197.91 122.991 197.91C122.966 197.885 122.929 197.897 122.88 197.947C122.091 199.303 120.833 199.982 119.106 199.982C117.626 199.982 116.454 199.538 115.591 198.65C114.728 197.737 114.296 196.38 114.296 194.58V181.445C114.296 181.198 114.419 181.075 114.666 181.075H115.887C116.134 181.075 116.257 181.198 116.257 181.445V194.136C116.257 195.492 116.541 196.516 117.108 197.207C117.7 197.897 118.526 198.243 119.587 198.243C120.672 198.243 121.523 197.848 122.14 197.059C122.757 196.269 123.065 195.184 123.065 193.803V181.445ZM138.493 181.445C138.493 181.198 138.616 181.075 138.863 181.075H140.121C140.368 181.075 140.491 181.198 140.491 181.445V199.501C140.491 202.041 139.911 203.978 138.752 205.31C137.593 206.642 135.73 207.258 133.165 207.16C132.918 207.16 132.795 207.036 132.795 206.79V205.791C132.795 205.544 132.955 205.421 133.276 205.421C135.151 205.421 136.483 204.915 137.272 203.904C138.086 202.892 138.493 201.375 138.493 199.353V197.947C138.493 197.873 138.468 197.836 138.419 197.836C138.37 197.811 138.333 197.836 138.308 197.91C137.889 198.576 137.346 199.081 136.68 199.427C136.039 199.747 135.323 199.908 134.534 199.908C133.005 199.908 131.784 199.402 130.871 198.391C129.983 197.355 129.539 196.01 129.539 194.358V186.329C129.539 184.676 129.983 183.344 130.871 182.333C131.784 181.297 133.005 180.779 134.534 180.779C135.323 180.779 136.051 180.951 136.717 181.297C137.383 181.642 137.913 182.135 138.308 182.777C138.357 182.826 138.394 182.851 138.419 182.851C138.468 182.851 138.493 182.814 138.493 182.74V181.445ZM135.052 198.169C136.063 198.169 136.89 197.811 137.531 197.096C138.172 196.38 138.493 195.443 138.493 194.284V186.44C138.493 185.28 138.172 184.343 137.531 183.628C136.89 182.888 136.063 182.518 135.052 182.518C134.016 182.518 133.165 182.888 132.499 183.628C131.833 184.343 131.5 185.28 131.5 186.44V194.284C131.5 195.418 131.833 196.356 132.499 197.096C133.165 197.811 134.016 198.169 135.052 198.169ZM151.082 180.816C152.587 180.816 153.746 181.321 154.56 182.333C155.374 183.344 155.781 184.762 155.781 186.588V199.353C155.781 199.599 155.658 199.723 155.411 199.723H154.19C153.943 199.723 153.82 199.599 153.82 199.353V186.773C153.82 185.441 153.524 184.405 152.932 183.665C152.34 182.925 151.514 182.555 150.453 182.555C149.368 182.555 148.517 182.949 147.9 183.739C147.283 184.528 146.975 185.613 146.975 186.995V199.353C146.975 199.599 146.852 199.723 146.605 199.723H145.384C145.137 199.723 145.014 199.599 145.014 199.353V174.193C145.014 173.946 145.137 173.823 145.384 173.823H146.605C146.852 173.823 146.975 173.946 146.975 174.193V182.851C146.975 182.925 146.987 182.962 147.012 182.962C147.061 182.962 147.111 182.937 147.16 182.888C147.999 181.506 149.306 180.816 151.082 180.816Z" fill="#023246"/>
<path opacity="0.1" d="M250 26.3217C250 25.8644 250.131 25.505 250.392 25.2437C250.653 24.9824 251.013 24.8517 251.47 24.8517L317.13 24.8517C317.587 24.8517 317.947 24.9824 318.208 25.2437C318.469 25.505 318.6 25.8644 318.6 26.3217L318.6 45.6277C318.6 49.9397 317.783 53.729 316.15 56.9957C314.517 60.3277 312.197 62.9084 309.192 64.7377C306.252 66.567 302.855 67.4817 299 67.4817L269.6 67.4817C265.745 67.4817 262.315 66.567 259.31 64.7377C256.37 62.9084 254.083 60.3277 252.45 56.9957C250.817 53.729 250 49.9397 250 45.6277L250 26.3217ZM266.366 43.2757C265.974 43.2757 265.778 43.4717 265.778 43.8637L265.876 45.2357C265.941 46.281 266.431 47.163 267.346 47.8817C268.261 48.6004 269.437 48.9924 270.874 49.0577L297.824 49.0577C299.327 49.0577 300.535 48.6984 301.45 47.9797C302.365 47.261 302.822 46.3137 302.822 45.1377L302.822 43.8637C302.822 43.4717 302.626 43.2757 302.234 43.2757L266.366 43.2757ZM272.344 112.699C271.887 112.699 271.527 112.568 271.266 112.307C271.005 112.045 270.874 111.686 270.874 111.229L270.874 90.4528C270.874 90.0608 270.678 89.8648 270.286 89.8648L268.13 89.8648C267.215 89.8648 266.464 90.0608 265.876 90.4528C265.288 90.9101 264.994 91.4654 264.994 92.1188C264.994 92.7721 265.223 93.2621 265.68 93.5888C266.137 93.9808 266.725 94.2421 267.444 94.3728C268.359 94.6994 268.783 95.2548 268.718 96.0388L267.738 111.033C267.607 112.013 267.085 112.47 266.17 112.405C260.421 112.078 256.141 110.249 253.332 106.917C250.588 103.65 249.216 98.7174 249.216 92.1188C249.216 85.5854 250.719 80.4894 253.724 76.8308C256.795 73.2374 261.107 71.4408 266.66 71.4408L284.3 71.4408C289.592 71.4408 293.806 73.2701 296.942 76.9288C300.143 80.5874 301.744 85.6508 301.744 92.1188C301.744 98.5868 300.143 103.617 296.942 107.211C293.806 110.869 289.592 112.699 284.3 112.699L272.344 112.699ZM285.966 92.1188C285.966 91.4654 285.672 90.9101 285.084 90.4528C284.496 90.0608 283.745 89.8648 282.83 89.8648L280.478 89.8648C280.086 89.8648 279.89 90.0608 279.89 90.4528L279.89 93.6868C279.89 94.0788 280.086 94.2748 280.478 94.2748L282.83 94.2748C283.745 94.2748 284.496 94.0788 285.084 93.6868C285.672 93.2948 285.966 92.7721 285.966 92.1188ZM249.216 136.128C249.216 129.856 250.686 124.826 253.626 121.036C256.566 117.312 260.453 115.45 265.288 115.45L265.582 115.45C266.039 115.45 266.399 115.581 266.66 115.842C266.921 116.104 267.052 116.463 267.052 116.92L267.052 131.62C267.052 132.078 266.921 132.437 266.66 132.698C266.464 132.96 266.17 133.09 265.778 133.09C264.798 133.09 264.047 133.384 263.524 133.972C263.001 134.56 262.74 135.214 262.74 135.932C262.74 136.52 262.903 136.978 263.23 137.304C263.622 137.631 264.079 137.794 264.602 137.794C265.582 137.794 266.301 137.304 266.758 136.324C267.281 135.344 267.869 133.711 268.522 131.424C268.718 130.64 268.979 129.726 269.306 128.68C270.417 125.218 272.213 122.245 274.696 119.762C277.244 117.345 280.707 116.136 285.084 116.136C290.18 116.136 294.231 117.9 297.236 121.428C300.241 124.956 301.744 129.595 301.744 135.344C301.744 141.355 300.111 146.157 296.844 149.75C293.577 153.344 289.265 155.14 283.908 155.14C283.647 155.14 283.418 155.01 283.222 154.748C283.026 154.487 282.928 154.128 282.928 153.67L282.928 139.46C282.928 139.003 283.059 138.644 283.32 138.382C283.581 138.121 283.941 137.99 284.398 137.99L284.986 137.99C285.77 137.99 286.391 137.762 286.848 137.304C287.305 136.912 287.534 136.422 287.534 135.834C287.534 135.181 287.273 134.658 286.75 134.266C286.227 133.94 285.639 133.776 284.986 133.776C283.679 133.776 282.667 134.397 281.948 135.638C281.229 136.945 280.576 138.611 279.988 140.636C278.616 145.34 276.852 149.13 274.696 152.004C272.54 154.879 269.241 156.316 264.798 156.316C259.963 156.316 256.141 154.454 253.332 150.73C250.588 147.072 249.216 142.204 249.216 136.128ZM304.39 168.221C304.39 165.542 305.239 163.321 306.938 161.557C308.702 159.858 310.923 159.009 313.602 159.009C316.346 159.009 318.567 159.858 320.266 161.557C321.965 163.321 322.814 165.542 322.814 168.221C322.814 170.9 321.965 173.088 320.266 174.787C318.567 176.551 316.346 177.433 313.602 177.433C310.989 177.433 308.8 176.551 307.036 174.787C305.272 173.088 304.39 170.9 304.39 168.221ZM250 160.675C250 160.218 250.131 159.858 250.392 159.597C250.653 159.336 251.013 159.205 251.47 159.205L299.49 159.205C299.947 159.205 300.307 159.336 300.568 159.597C300.829 159.858 300.96 160.218 300.96 160.675L300.96 176.159C300.96 176.616 300.829 176.976 300.568 177.237C300.307 177.498 299.947 177.629 299.49 177.629L251.47 177.629C251.013 177.629 250.653 177.498 250.392 177.237C250.131 176.976 250 176.616 250 176.159L250 160.675ZM299.49 203.853C299.947 203.853 300.307 203.983 300.568 204.245C300.829 204.506 300.96 204.865 300.96 205.323L300.96 220.807C300.96 221.264 300.829 221.623 300.568 221.885C300.307 222.146 299.947 222.277 299.49 222.277L253.332 222.277C248.432 222.277 244.251 221.558 240.788 220.121C237.325 218.749 234.581 216.168 232.556 212.379C230.465 208.589 229.42 203.265 229.42 196.405C229.42 193.857 229.485 191.864 229.616 190.427C229.616 189.447 230.106 188.957 231.086 188.957L244.12 188.957C245.165 188.957 245.623 189.479 245.492 190.525L245.394 192.975C245.394 196.633 245.917 199.214 246.962 200.717C247.942 202.285 249.412 203.265 251.372 203.657C251.568 203.657 251.731 203.428 251.862 202.971C251.993 202.579 251.993 202.285 251.862 202.089C250.098 200.259 249.216 197.744 249.216 194.543C249.216 189.839 250.719 186.409 253.724 184.253C256.729 182.162 261.041 181.117 266.66 181.117L284.3 181.117C290.115 181.117 294.459 182.195 297.334 184.351C300.274 186.507 301.744 189.904 301.744 194.543C301.744 198.332 300.307 201.207 297.432 203.167C297.171 203.297 297.04 203.428 297.04 203.559C297.105 203.755 297.269 203.853 297.53 203.853L299.49 203.853ZM264.994 201.599C264.994 202.252 265.288 202.775 265.876 203.167C266.464 203.624 267.215 203.853 268.13 203.853L282.83 203.853C283.745 203.853 284.496 203.624 285.084 203.167C285.672 202.775 285.966 202.252 285.966 201.599C285.966 200.945 285.672 200.423 285.084 200.031C284.496 199.704 283.745 199.541 282.83 199.541L268.13 199.541C267.215 199.541 266.464 199.704 265.876 200.031C265.288 200.423 264.994 200.945 264.994 201.599ZM301.744 253.829C301.744 263.106 295.864 267.745 284.104 267.745L251.47 267.745C251.013 267.745 250.653 267.614 250.392 267.353C250.131 267.091 250 266.732 250 266.275L250 250.791C250 250.333 250.131 249.974 250.392 249.713C250.653 249.451 251.013 249.321 251.47 249.321L282.83 249.321C284.921 249.321 285.966 248.635 285.966 247.263C285.966 245.76 284.921 245.009 282.83 245.009L251.47 245.009C251.013 245.009 250.653 244.878 250.392 244.617C250.131 244.355 250 243.996 250 243.539L250 228.055C250 227.597 250.131 227.238 250.392 226.977C250.653 226.715 251.013 226.585 251.47 226.585L299.49 226.585C299.947 226.585 300.307 226.715 300.568 226.977C300.829 227.238 300.96 227.597 300.96 228.055L300.96 243.539C300.96 243.996 300.829 244.355 300.568 244.617C300.307 244.878 299.947 245.009 299.49 245.009L298.02 245.009C297.889 245.009 297.824 245.074 297.824 245.205C297.824 245.531 298.118 245.923 298.706 246.381C300.731 248.275 301.744 250.758 301.744 253.829Z" fill="#333333"/>
<rect x="210.5" y="0.5" width="129.746" height="291" stroke="#023246"/>
</svg>
