<svg width="930" height="667" viewBox="0 0 930 667" fill="none" xmlns="http://www.w3.org/2000/svg">
<mask id="mask0" mask-type="alpha" maskUnits="userSpaceOnUse" x="0" y="0" width="930" height="667">
<rect width="930" height="667" fill="#C4C4C4"/>
</mask>
<g mask="url(#mask0)">
<rect x="3" y="1" width="651" height="666" fill="#023246"/>
<path d="M415.123 275C414.696 275 414.483 274.787 414.483 274.36V230.84C414.483 230.413 414.696 230.2 415.123 230.2H418.387C418.814 230.2 419.027 230.413 419.027 230.84V274.36C419.027 274.787 418.814 275 418.387 275H415.123ZM440.598 275C440.171 275 439.958 274.787 439.958 274.36V230.84C439.958 230.413 440.171 230.2 440.598 230.2H443.862C444.288 230.2 444.502 230.413 444.502 230.84V274.36C444.502 274.787 444.288 275 443.862 275H440.598ZM461.248 275.512C458.176 275.512 455.723 274.616 453.888 272.824C452.096 271.032 451.2 268.664 451.2 265.72V251.96C451.2 249.059 452.117 246.691 453.952 244.856C455.787 243.021 458.219 242.104 461.248 242.104C464.32 242.104 466.773 243.021 468.608 244.856C470.443 246.691 471.36 249.059 471.36 251.96V265.72C471.36 268.664 470.443 271.032 468.608 272.824C466.773 274.616 464.32 275.512 461.248 275.512ZM461.248 271.48C462.869 271.48 464.192 270.925 465.216 269.816C466.283 268.707 466.816 267.235 466.816 265.4V252.216C466.816 250.381 466.283 248.909 465.216 247.8C464.192 246.648 462.869 246.072 461.248 246.072C459.627 246.072 458.304 246.648 457.28 247.8C456.256 248.909 455.744 250.381 455.744 252.216V265.4C455.744 267.235 456.256 268.707 457.28 269.816C458.304 270.925 459.627 271.48 461.248 271.48ZM483.928 275C483.544 275 483.309 274.808 483.224 274.424L475.288 243.32L475.224 243.064C475.224 242.765 475.416 242.616 475.799 242.616H479.512C479.896 242.616 480.13 242.808 480.216 243.192L485.72 267.448C485.762 267.576 485.805 267.64 485.848 267.64C485.89 267.64 485.933 267.576 485.976 267.448L491.416 243.192C491.501 242.808 491.736 242.616 492.12 242.616L495.832 242.68C496.045 242.68 496.194 242.744 496.28 242.872C496.408 243 496.429 243.171 496.344 243.384L488.472 274.424C488.429 274.808 488.194 275 487.768 275H483.928ZM520.732 259.896C520.732 260.323 520.519 260.536 520.092 260.536H505.5C505.329 260.536 505.244 260.621 505.244 260.792V265.464C505.244 267.256 505.735 268.728 506.716 269.88C507.74 270.989 509.063 271.544 510.684 271.544C512.049 271.544 513.201 271.139 514.14 270.328C515.121 269.475 515.761 268.387 516.06 267.064C516.188 266.68 516.423 266.488 516.764 266.488L519.964 266.616C520.135 266.616 520.284 266.68 520.412 266.808C520.54 266.936 520.583 267.107 520.54 267.32C520.199 269.837 519.153 271.843 517.404 273.336C515.697 274.787 513.457 275.512 510.684 275.512C507.655 275.512 505.223 274.616 503.388 272.824C501.596 271.032 500.7 268.664 500.7 265.72V251.896C500.7 248.995 501.596 246.648 503.388 244.856C505.223 243.021 507.655 242.104 510.684 242.104C513.756 242.104 516.188 243.021 517.98 244.856C519.815 246.648 520.732 248.995 520.732 251.896V259.896ZM510.684 246.072C509.063 246.072 507.74 246.648 506.716 247.8C505.735 248.909 505.244 250.381 505.244 252.216V256.504C505.244 256.675 505.329 256.76 505.5 256.76H515.996C516.167 256.76 516.252 256.675 516.252 256.504V252.216C516.252 250.381 515.74 248.909 514.716 247.8C513.692 246.648 512.348 246.072 510.684 246.072ZM551.671 245.368C551.671 245.795 551.458 246.008 551.031 246.008H546.167C545.996 246.008 545.911 246.093 545.911 246.264V265.848C545.911 267.811 546.252 269.176 546.935 269.944C547.618 270.669 548.663 271.011 550.071 270.968H550.711C551.138 270.968 551.351 271.181 551.351 271.608V274.36C551.351 274.787 551.138 275 550.711 275H549.111C546.594 275 544.674 274.467 543.351 273.4C542.071 272.291 541.431 270.221 541.431 267.192V246.264C541.431 246.093 541.346 246.008 541.175 246.008H538.679C538.252 246.008 538.039 245.795 538.039 245.368V243.256C538.039 242.829 538.252 242.616 538.679 242.616H541.175C541.346 242.616 541.431 242.531 541.431 242.36V235.192C541.431 234.765 541.644 234.552 542.071 234.552H545.271C545.698 234.552 545.911 234.765 545.911 235.192V242.36C545.911 242.531 545.996 242.616 546.167 242.616H551.031C551.458 242.616 551.671 242.829 551.671 243.256V245.368ZM566.686 275.512C563.614 275.512 561.16 274.616 559.326 272.824C557.534 271.032 556.638 268.664 556.638 265.72V251.96C556.638 249.059 557.555 246.691 559.39 244.856C561.224 243.021 563.656 242.104 566.686 242.104C569.758 242.104 572.211 243.021 574.046 244.856C575.88 246.691 576.798 249.059 576.798 251.96V265.72C576.798 268.664 575.88 271.032 574.046 272.824C572.211 274.616 569.758 275.512 566.686 275.512ZM566.686 271.48C568.307 271.48 569.63 270.925 570.654 269.816C571.72 268.707 572.253 267.235 572.253 265.4V252.216C572.253 250.381 571.72 248.909 570.654 247.8C569.63 246.648 568.307 246.072 566.686 246.072C565.064 246.072 563.742 246.648 562.718 247.8C561.694 248.909 561.182 250.381 561.182 252.216V265.4C561.182 267.235 561.694 268.707 562.718 269.816C563.742 270.925 565.064 271.48 566.686 271.48ZM453.622 352.512C450.592 352.512 448.16 351.616 446.326 349.824C444.534 348.032 443.638 345.664 443.638 342.72V328.896C443.638 325.995 444.555 323.648 446.39 321.856C448.224 320.021 450.635 319.104 453.622 319.104C455.627 319.104 457.398 319.509 458.934 320.32C460.47 321.131 461.643 322.219 462.454 323.584C463.307 324.907 463.734 326.379 463.734 328V328.64C463.734 329.067 463.52 329.28 463.094 329.28L459.83 329.408C459.403 329.408 459.19 329.195 459.19 328.768V328.32C459.19 326.912 458.656 325.696 457.59 324.672C456.566 323.605 455.243 323.072 453.622 323.072C452 323.072 450.678 323.648 449.654 324.8C448.672 325.909 448.182 327.381 448.182 329.216V342.4C448.182 344.235 448.672 345.728 449.654 346.88C450.678 347.989 452 348.544 453.622 348.544C455.243 348.544 456.566 348.032 457.59 347.008C458.656 345.941 459.19 344.704 459.19 343.296V342.848C459.19 342.421 459.403 342.208 459.83 342.208L463.094 342.272C463.52 342.272 463.734 342.485 463.734 342.912V343.616C463.734 346.176 462.795 348.309 460.918 350.016C459.083 351.68 456.651 352.512 453.622 352.512ZM481.036 319.296C482.102 319.296 483.02 319.531 483.788 320C484.086 320.171 484.193 320.448 484.108 320.832L483.34 324.16C483.297 324.544 483.041 324.672 482.572 324.544C482.06 324.288 481.42 324.16 480.652 324.16C480.31 324.16 480.054 324.181 479.884 324.224C478.348 324.309 477.089 325.12 476.108 326.656C475.126 328.149 474.635 329.984 474.635 332.16V351.36C474.635 351.787 474.422 352 473.996 352H470.732C470.305 352 470.092 351.787 470.092 351.36V320.256C470.092 319.829 470.305 319.616 470.732 319.616H473.996C474.422 319.616 474.635 319.829 474.635 320.256V324.096C474.635 324.224 474.657 324.288 474.7 324.288C474.785 324.288 474.87 324.245 474.956 324.16C476.193 320.917 478.22 319.296 481.036 319.296ZM507.857 336.896C507.857 337.323 507.644 337.536 507.217 337.536H492.625C492.454 337.536 492.369 337.621 492.369 337.792V342.464C492.369 344.256 492.86 345.728 493.841 346.88C494.865 347.989 496.188 348.544 497.809 348.544C499.174 348.544 500.326 348.139 501.265 347.328C502.246 346.475 502.886 345.387 503.185 344.064C503.313 343.68 503.548 343.488 503.889 343.488L507.089 343.616C507.26 343.616 507.409 343.68 507.537 343.808C507.665 343.936 507.708 344.107 507.665 344.32C507.324 346.837 506.278 348.843 504.529 350.336C502.822 351.787 500.582 352.512 497.809 352.512C494.78 352.512 492.348 351.616 490.513 349.824C488.721 348.032 487.825 345.664 487.825 342.72V328.896C487.825 325.995 488.721 323.648 490.513 321.856C492.348 320.021 494.78 319.104 497.809 319.104C500.881 319.104 503.313 320.021 505.105 321.856C506.94 323.648 507.857 325.995 507.857 328.896V336.896ZM497.809 323.072C496.188 323.072 494.865 323.648 493.841 324.8C492.86 325.909 492.369 327.381 492.369 329.216V333.504C492.369 333.675 492.454 333.76 492.625 333.76H503.121C503.292 333.76 503.377 333.675 503.377 333.504V329.216C503.377 327.381 502.865 325.909 501.841 324.8C500.817 323.648 499.473 323.072 497.809 323.072ZM523.814 319.104C526.8 319.104 529.19 320.085 530.982 322.048C532.774 323.968 533.67 326.549 533.67 329.792V351.36C533.67 351.787 533.456 352 533.03 352H529.766C529.339 352 529.126 351.787 529.126 351.36V349.44C529.126 349.355 529.083 349.312 528.998 349.312C528.955 349.269 528.891 349.291 528.806 349.376C527.227 351.467 524.859 352.512 521.702 352.512C519.355 352.512 517.307 351.851 515.558 350.528C513.851 349.163 512.998 346.773 512.998 343.36C512.998 339.733 514.043 337.088 516.134 335.424C518.224 333.717 520.976 332.864 524.39 332.864H528.87C529.04 332.864 529.126 332.779 529.126 332.608V330.112C529.126 327.979 528.635 326.272 527.654 324.992C526.672 323.712 525.35 323.072 523.686 323.072C522.406 323.072 521.296 323.499 520.358 324.352C519.462 325.205 518.928 326.293 518.758 327.616C518.758 328.043 518.544 328.256 518.118 328.256L514.534 328.192C514.32 328.192 514.15 328.128 514.022 328C513.936 327.872 513.915 327.723 513.958 327.552C514.171 325.035 515.195 323.008 517.03 321.472C518.864 319.893 521.126 319.104 523.814 319.104ZM522.662 348.544C524.411 348.544 525.926 347.989 527.206 346.88C528.486 345.728 529.126 344.149 529.126 342.144V336.768C529.126 336.597 529.04 336.512 528.87 336.512H524.326C522.278 336.512 520.656 337.067 519.462 338.176C518.267 339.243 517.67 340.843 517.67 342.976C517.67 344.853 518.118 346.261 519.014 347.2C519.952 348.096 521.168 348.544 522.662 348.544ZM552.171 322.368C552.171 322.795 551.958 323.008 551.531 323.008H546.667C546.496 323.008 546.411 323.093 546.411 323.264V342.848C546.411 344.811 546.752 346.176 547.435 346.944C548.118 347.669 549.163 348.011 550.571 347.968H551.211C551.638 347.968 551.851 348.181 551.851 348.608V351.36C551.851 351.787 551.638 352 551.211 352H549.611C547.094 352 545.174 351.467 543.851 350.4C542.571 349.291 541.931 347.221 541.931 344.192V323.264C541.931 323.093 541.846 323.008 541.675 323.008H539.179C538.752 323.008 538.539 322.795 538.539 322.368V320.256C538.539 319.829 538.752 319.616 539.179 319.616H541.675C541.846 319.616 541.931 319.531 541.931 319.36V312.192C541.931 311.765 542.144 311.552 542.571 311.552H545.771C546.198 311.552 546.411 311.765 546.411 312.192V319.36C546.411 319.531 546.496 319.616 546.667 319.616H551.531C551.958 319.616 552.171 319.829 552.171 320.256V322.368ZM577.17 336.896C577.17 337.323 576.956 337.536 576.53 337.536H561.938C561.767 337.536 561.682 337.621 561.682 337.792V342.464C561.682 344.256 562.172 345.728 563.154 346.88C564.178 347.989 565.5 348.544 567.122 348.544C568.487 348.544 569.639 348.139 570.578 347.328C571.559 346.475 572.199 345.387 572.498 344.064C572.626 343.68 572.86 343.488 573.202 343.488L576.402 343.616C576.572 343.616 576.722 343.68 576.85 343.808C576.978 343.936 577.02 344.107 576.978 344.32C576.636 346.837 575.591 348.843 573.842 350.336C572.135 351.787 569.895 352.512 567.122 352.512C564.092 352.512 561.66 351.616 559.826 349.824C558.034 348.032 557.138 345.664 557.138 342.72V328.896C557.138 325.995 558.034 323.648 559.826 321.856C561.66 320.021 564.092 319.104 567.122 319.104C570.194 319.104 572.626 320.021 574.418 321.856C576.252 323.648 577.17 325.995 577.17 328.896V336.896ZM567.122 323.072C565.5 323.072 564.178 323.648 563.154 324.8C562.172 325.909 561.682 327.381 561.682 329.216V333.504C561.682 333.675 561.767 333.76 561.938 333.76H572.434C572.604 333.76 572.69 333.675 572.69 333.504V329.216C572.69 327.381 572.178 325.909 571.154 324.8C570.13 323.648 568.786 323.072 567.122 323.072ZM424.727 429.32C421.783 429.32 419.415 428.573 417.623 427.08C415.874 425.544 414.999 423.517 414.999 421V420.552C414.999 420.125 415.212 419.912 415.639 419.912H418.711C419.138 419.912 419.351 420.125 419.351 420.552V420.936C419.351 422.301 419.842 423.453 420.823 424.392C421.847 425.331 423.17 425.8 424.791 425.8C426.327 425.8 427.564 425.331 428.503 424.392C429.442 423.453 429.911 422.259 429.911 420.808C429.911 419.699 429.612 418.781 429.015 418.056C428.418 417.288 427.714 416.691 426.903 416.264C426.135 415.837 424.962 415.283 423.383 414.6C421.719 413.917 420.332 413.256 419.223 412.616C418.156 411.933 417.218 410.995 416.407 409.8C415.639 408.563 415.255 407.005 415.255 405.128C415.255 402.397 416.087 400.243 417.751 398.664C419.458 397.085 421.74 396.296 424.599 396.296C427.5 396.296 429.804 397.107 431.511 398.728C433.218 400.349 434.071 402.504 434.071 405.192V405.384C434.071 405.811 433.858 406.024 433.431 406.024H430.487C430.06 406.024 429.847 405.811 429.847 405.384V405C429.847 403.549 429.356 402.355 428.375 401.416C427.436 400.477 426.199 400.008 424.663 400.008C423.127 400.008 421.89 400.499 420.951 401.48C420.055 402.419 419.607 403.592 419.607 405C419.607 406.024 419.884 406.899 420.439 407.624C420.994 408.307 421.676 408.883 422.487 409.352C423.298 409.779 424.428 410.312 425.879 410.952C427.628 411.72 429.058 412.445 430.167 413.128C431.319 413.811 432.322 414.771 433.175 416.008C434.028 417.245 434.455 418.781 434.455 420.616C434.455 423.261 433.58 425.373 431.831 426.952C430.082 428.531 427.714 429.32 424.727 429.32ZM438.566 441.8C438.481 441.8 438.395 441.736 438.31 441.608C438.225 441.48 438.182 441.331 438.182 441.16V438.6C438.182 438.173 438.395 437.96 438.822 437.96C440.145 437.917 441.169 437.661 441.894 437.192C442.662 436.723 443.281 435.891 443.75 434.696C444.219 433.501 444.689 431.667 445.158 429.192C445.201 429.107 445.201 429.043 445.158 429C445.158 428.915 445.158 428.851 445.158 428.808L437.03 397.32L436.966 397.128C436.966 396.787 437.179 396.616 437.606 396.616H441.062C441.489 396.616 441.723 396.808 441.766 397.192L447.398 422.344C447.441 422.472 447.483 422.536 447.526 422.536C447.569 422.536 447.611 422.472 447.654 422.344L453.222 397.192C453.307 396.808 453.542 396.616 453.926 396.616L457.51 396.68C457.723 396.68 457.873 396.744 457.958 396.872C458.086 397 458.107 397.171 458.022 397.384L449.126 431.816C448.358 434.675 447.59 436.787 446.822 438.152C446.097 439.517 445.137 440.456 443.942 440.968C442.747 441.523 441.062 441.8 438.886 441.8H438.566ZM474.737 396.168C477.339 396.168 479.345 397.064 480.753 398.856C482.203 400.648 482.929 403.144 482.929 406.344V428.36C482.929 428.787 482.715 429 482.289 429H479.025C478.598 429 478.385 428.787 478.385 428.36V406.728C478.385 404.637 477.915 403.016 476.977 401.864C476.081 400.712 474.822 400.136 473.201 400.136C471.494 400.136 470.15 400.755 469.169 401.992C468.23 403.229 467.76 404.915 467.76 407.048V428.36C467.76 428.787 467.547 429 467.121 429H463.857C463.43 429 463.217 428.787 463.217 428.36V397.256C463.217 396.829 463.43 396.616 463.857 396.616H467.121C467.547 396.616 467.76 396.829 467.76 397.256V399.304C467.76 399.389 467.803 399.453 467.889 399.496C467.974 399.539 468.038 399.496 468.081 399.368C468.849 398.301 469.809 397.512 470.961 397C472.155 396.445 473.414 396.168 474.737 396.168ZM509.67 413.896C509.67 414.323 509.456 414.536 509.03 414.536H494.438C494.267 414.536 494.182 414.621 494.182 414.792V419.464C494.182 421.256 494.672 422.728 495.654 423.88C496.678 424.989 498 425.544 499.622 425.544C500.987 425.544 502.139 425.139 503.078 424.328C504.059 423.475 504.699 422.387 504.998 421.064C505.126 420.68 505.36 420.488 505.702 420.488L508.902 420.616C509.072 420.616 509.222 420.68 509.35 420.808C509.478 420.936 509.52 421.107 509.478 421.32C509.136 423.837 508.091 425.843 506.342 427.336C504.635 428.787 502.395 429.512 499.622 429.512C496.592 429.512 494.16 428.616 492.326 426.824C490.534 425.032 489.638 422.664 489.638 419.72V405.896C489.638 402.995 490.534 400.648 492.326 398.856C494.16 397.021 496.592 396.104 499.622 396.104C502.694 396.104 505.126 397.021 506.918 398.856C508.752 400.648 509.67 402.995 509.67 405.896V413.896ZM499.622 400.072C498 400.072 496.678 400.648 495.654 401.8C494.672 402.909 494.182 404.381 494.182 406.216V410.504C494.182 410.675 494.267 410.76 494.438 410.76H504.934C505.104 410.76 505.19 410.675 505.19 410.504V406.216C505.19 404.381 504.678 402.909 503.654 401.8C502.63 400.648 501.286 400.072 499.622 400.072ZM527.348 396.296C528.415 396.296 529.332 396.531 530.1 397C530.399 397.171 530.505 397.448 530.42 397.832L529.652 401.16C529.609 401.544 529.353 401.672 528.884 401.544C528.372 401.288 527.732 401.16 526.964 401.16C526.623 401.16 526.367 401.181 526.196 401.224C524.66 401.309 523.401 402.12 522.42 403.656C521.439 405.149 520.948 406.984 520.948 409.16V428.36C520.948 428.787 520.735 429 520.308 429H517.044C516.617 429 516.404 428.787 516.404 428.36V397.256C516.404 396.829 516.617 396.616 517.044 396.616H520.308C520.735 396.616 520.948 396.829 520.948 397.256V401.096C520.948 401.224 520.969 401.288 521.012 401.288C521.097 401.288 521.183 401.245 521.268 401.16C522.505 397.917 524.532 396.296 527.348 396.296ZM549.499 397.256C549.499 396.829 549.712 396.616 550.139 396.616H553.403C553.83 396.616 554.043 396.829 554.043 397.256V428.36C554.043 432.925 552.976 436.381 550.843 438.728C548.752 441.117 545.232 442.205 540.283 441.992C539.856 441.949 539.643 441.715 539.643 441.288V438.536C539.643 438.109 539.856 437.896 540.283 437.896C543.696 437.981 546.086 437.192 547.451 435.528C548.816 433.907 549.499 431.389 549.499 427.976V426.056C549.499 425.971 549.456 425.907 549.371 425.864C549.328 425.821 549.264 425.843 549.179 425.928C548.454 426.995 547.515 427.805 546.363 428.36C545.254 428.915 544.059 429.192 542.779 429.192C540.091 429.192 537.958 428.296 536.379 426.504C534.843 424.712 534.075 422.344 534.075 419.4V405.896C534.075 402.909 534.843 400.541 536.379 398.792C537.958 397 540.091 396.104 542.779 396.104C544.059 396.104 545.254 396.381 546.363 396.936C547.515 397.448 548.454 398.237 549.179 399.304C549.264 399.432 549.328 399.496 549.371 399.496C549.456 399.453 549.499 399.368 549.499 399.24V397.256ZM544.123 425.224C545.702 425.224 546.982 424.669 547.963 423.56C548.987 422.408 549.499 420.936 549.499 419.144V406.216C549.499 404.381 548.987 402.909 547.963 401.8C546.982 400.648 545.702 400.072 544.123 400.072C542.502 400.072 541.179 400.648 540.155 401.8C539.131 402.909 538.619 404.381 538.619 406.216V419.144C538.619 420.936 539.131 422.408 540.155 423.56C541.179 424.669 542.502 425.224 544.123 425.224ZM559.254 441.8C559.168 441.8 559.083 441.736 558.998 441.608C558.912 441.48 558.87 441.331 558.87 441.16V438.6C558.87 438.173 559.083 437.96 559.51 437.96C560.832 437.917 561.856 437.661 562.582 437.192C563.35 436.723 563.968 435.891 564.438 434.696C564.907 433.501 565.376 431.667 565.845 429.192C565.888 429.107 565.888 429.043 565.845 429C565.845 428.915 565.845 428.851 565.845 428.808L557.718 397.32L557.654 397.128C557.654 396.787 557.867 396.616 558.294 396.616H561.75C562.176 396.616 562.411 396.808 562.454 397.192L568.086 422.344C568.128 422.472 568.171 422.536 568.214 422.536C568.256 422.536 568.299 422.472 568.342 422.344L573.91 397.192C573.995 396.808 574.23 396.616 574.614 396.616L578.198 396.68C578.411 396.68 578.56 396.744 578.646 396.872C578.774 397 578.795 397.171 578.71 397.384L569.814 431.816C569.046 434.675 568.278 436.787 567.51 438.152C566.784 439.517 565.824 440.456 564.63 440.968C563.435 441.523 561.75 441.8 559.574 441.8H559.254Z" fill="#F6F6F6"/>
<path opacity="0.1" d="M728 3.9953C728 2.73996 728.359 1.75363 729.076 1.0363C729.793 0.318964 730.78 -0.0397029 732.035 -0.0397028L912.265 -0.039695C913.52 -0.0396949 914.507 0.318972 915.224 1.03631C915.941 1.75364 916.3 2.73997 916.3 3.99531L916.3 56.9883C916.3 68.8243 914.058 79.2256 909.575 88.1923C905.092 97.3383 898.725 104.422 890.476 109.443C882.406 114.465 873.081 116.975 862.5 116.975L781.8 116.975C771.219 116.975 761.804 114.465 753.555 109.443C745.485 104.422 739.208 97.3383 734.725 88.1923C730.242 79.2256 728 68.8243 728 56.9883L728 3.9953ZM772.923 50.5323C771.847 50.5323 771.309 51.0703 771.309 52.1463L771.578 55.9123C771.757 58.7816 773.102 61.2026 775.613 63.1753C778.124 65.148 781.352 66.224 785.297 66.4033L859.272 66.4033C863.397 66.4033 866.714 65.417 869.225 63.4443C871.736 61.4716 872.991 58.8713 872.991 55.6433L872.991 52.1463C872.991 51.0703 872.453 50.5323 871.377 50.5323L772.923 50.5323ZM789.332 241.091C788.077 241.091 787.09 240.733 786.373 240.015C785.656 239.298 785.297 238.312 785.297 237.056L785.297 180.028C785.297 178.952 784.759 178.414 783.683 178.414L777.765 178.414C775.254 178.414 773.192 178.952 771.578 180.028C769.964 181.284 769.157 182.808 769.157 184.601C769.157 186.395 769.785 187.74 771.04 188.636C772.295 189.712 773.909 190.43 775.882 190.788C778.393 191.685 779.558 193.209 779.379 195.361L776.689 236.518C776.33 239.208 774.896 240.464 772.385 240.284C756.604 239.388 744.857 234.366 737.146 225.22C729.614 216.254 725.848 202.714 725.848 184.601C725.848 166.668 729.973 152.68 738.222 142.637C746.651 132.774 758.487 127.842 773.73 127.842L822.15 127.842C836.676 127.842 848.243 132.864 856.851 142.906C865.638 152.949 870.032 166.847 870.032 184.601C870.032 202.355 865.638 216.164 856.851 226.027C848.243 236.07 836.676 241.091 822.15 241.091L789.332 241.091ZM826.723 184.601C826.723 182.808 825.916 181.284 824.302 180.028C822.688 178.952 820.626 178.414 818.115 178.414L811.659 178.414C810.583 178.414 810.045 178.952 810.045 180.028L810.045 188.905C810.045 189.981 810.583 190.519 811.659 190.519L818.115 190.519C820.626 190.519 822.688 189.981 824.302 188.905C825.916 187.829 826.723 186.395 826.723 184.601ZM725.848 305.403C725.848 288.187 729.883 274.379 737.953 263.977C746.023 253.755 756.693 248.644 769.964 248.644L770.771 248.644C772.026 248.644 773.013 249.003 773.73 249.72C774.447 250.438 774.806 251.424 774.806 252.679L774.806 293.029C774.806 294.285 774.447 295.271 773.73 295.988C773.192 296.706 772.385 297.064 771.309 297.064C768.619 297.064 766.557 297.871 765.122 299.485C763.687 301.099 762.97 302.893 762.97 304.865C762.97 306.479 763.418 307.735 764.315 308.631C765.391 309.528 766.646 309.976 768.081 309.976C770.771 309.976 772.744 308.631 773.999 305.941C775.434 303.251 777.048 298.768 778.841 292.491C779.379 290.339 780.096 287.829 780.993 284.959C784.042 275.455 788.973 267.295 795.788 260.48C802.782 253.845 812.287 250.527 824.302 250.527C838.29 250.527 849.409 255.369 857.658 265.053C865.907 274.737 870.032 287.47 870.032 303.251C870.032 319.75 865.549 332.931 856.582 342.795C847.615 352.658 835.779 357.59 821.074 357.59C820.357 357.59 819.729 357.231 819.191 356.514C818.653 355.796 818.384 354.81 818.384 353.554L818.384 314.549C818.384 313.294 818.743 312.308 819.46 311.59C820.177 310.873 821.164 310.514 822.419 310.514L824.033 310.515C826.185 310.515 827.889 309.887 829.144 308.632C830.399 307.556 831.027 306.211 831.027 304.597C831.027 302.803 830.31 301.368 828.875 300.292C827.44 299.396 825.826 298.948 824.033 298.948C820.446 298.948 817.667 300.651 815.694 304.058C813.721 307.645 811.928 312.218 810.314 317.778C806.548 330.69 801.706 341.091 795.788 348.982C789.87 356.872 780.814 360.817 768.619 360.817C755.348 360.817 744.857 355.706 737.146 345.484C729.614 335.442 725.848 322.081 725.848 305.403ZM877.295 393.495C877.295 386.142 879.626 380.045 884.289 375.203C889.131 370.54 895.228 368.209 902.581 368.209C910.113 368.209 916.21 370.54 920.873 375.203C925.536 380.045 927.867 386.142 927.867 393.495C927.867 400.847 925.536 406.855 920.873 411.518C916.21 416.36 910.113 418.781 902.581 418.781C895.408 418.781 889.4 416.36 884.558 411.518C879.716 406.855 877.295 400.847 877.295 393.495ZM728 372.782C728 371.526 728.359 370.54 729.076 369.823C729.793 369.105 730.78 368.747 732.035 368.747L863.845 368.747C865.1 368.747 866.087 369.105 866.804 369.823C867.521 370.54 867.88 371.526 867.88 372.782L867.88 415.284C867.88 416.539 867.521 417.525 866.804 418.243C866.087 418.96 865.1 419.319 863.845 419.319L732.035 419.319C730.78 419.319 729.793 418.96 729.076 418.243C728.359 417.525 728 416.539 728 415.284L728 372.782ZM863.845 491.299C865.1 491.299 866.087 491.658 866.804 492.375C867.521 493.093 867.88 494.079 867.88 495.334L867.88 537.836C867.88 539.092 867.521 540.078 866.804 540.795C866.087 541.513 865.1 541.871 863.845 541.871L737.146 541.871C723.696 541.871 712.219 539.899 702.714 535.953C693.209 532.187 685.677 525.104 680.118 514.702C674.379 504.301 671.51 489.685 671.51 470.855C671.51 463.861 671.689 458.392 672.048 454.446C672.048 451.756 673.393 450.411 676.083 450.411L711.86 450.411C714.729 450.411 715.985 451.846 715.626 454.715L715.357 461.44C715.357 471.483 716.792 478.567 719.661 482.691C722.351 486.995 726.386 489.685 731.766 490.761C732.304 490.761 732.752 490.134 733.111 488.878C733.47 487.802 733.47 486.995 733.111 486.457C728.269 481.436 725.848 474.532 725.848 465.744C725.848 452.832 729.973 443.417 738.222 437.499C746.471 431.761 758.307 428.891 773.73 428.891L822.15 428.891C838.111 428.891 850.036 431.85 857.927 437.768C865.997 443.686 870.032 453.012 870.032 465.744C870.032 476.146 866.087 484.036 858.196 489.416C857.479 489.775 857.12 490.134 857.12 490.492C857.299 491.03 857.748 491.299 858.465 491.299L863.845 491.299ZM769.157 485.112C769.157 486.906 769.964 488.34 771.578 489.416C773.192 490.672 775.254 491.299 777.765 491.299L818.115 491.299C820.626 491.299 822.688 490.672 824.302 489.416C825.916 488.34 826.723 486.906 826.723 485.112C826.723 483.319 825.916 481.884 824.302 480.808C822.688 479.912 820.626 479.463 818.115 479.463L777.765 479.463C775.254 479.463 773.192 479.912 771.578 480.808C769.964 481.884 769.157 483.319 769.157 485.112ZM870.032 628.479C870.032 653.944 853.892 666.677 821.612 666.677L732.035 666.677C730.78 666.677 729.793 666.318 729.076 665.601C728.359 664.883 728 663.897 728 662.642L728 620.14C728 618.884 728.359 617.898 729.076 617.181C729.793 616.463 730.78 616.105 732.035 616.105L818.115 616.105C823.854 616.105 826.723 614.222 826.723 610.456C826.723 606.331 823.854 604.269 818.115 604.269L732.035 604.269C730.78 604.269 729.793 603.91 729.076 603.193C728.359 602.475 728 601.489 728 600.234L728 557.732C728 556.476 728.359 555.49 729.076 554.773C729.793 554.055 730.78 553.697 732.035 553.697L863.845 553.697C865.1 553.697 866.087 554.055 866.804 554.773C867.521 555.49 867.88 556.476 867.88 557.732L867.88 600.234C867.88 601.489 867.521 602.475 866.804 603.193C866.087 603.91 865.1 604.269 863.845 604.269L859.81 604.269C859.451 604.269 859.272 604.448 859.272 604.807C859.272 605.703 860.079 606.779 861.693 608.035C867.252 613.235 870.032 620.05 870.032 628.479Z" fill="#333333"/>
</g>
</svg>
