<svg width="531" height="360" viewBox="0 0 531 360" fill="none" xmlns="http://www.w3.org/2000/svg">
<mask id="mask0" mask-type="alpha" maskUnits="userSpaceOnUse" x="0" y="0" width="531" height="360">
<rect width="531" height="360" fill="#C4C4C4"/>
</mask>
<g mask="url(#mask0)">
<rect width="371" height="360" fill="#287094"/>
<path d="M209.461 129C209.108 129 208.931 128.823 208.931 128.47V92.43C208.931 92.0767 209.108 91.9 209.461 91.9H212.164C212.518 91.9 212.694 92.0767 212.694 92.43V128.47C212.694 128.823 212.518 129 212.164 129H209.461ZM230.557 129C230.204 129 230.027 128.823 230.027 128.47V92.43C230.027 92.0767 230.204 91.9 230.557 91.9H233.26C233.614 91.9 233.79 92.0767 233.79 92.43V128.47C233.79 128.823 233.614 129 233.26 129H230.557ZM247.659 129.424C245.115 129.424 243.083 128.682 241.564 127.198C240.08 125.714 239.338 123.753 239.338 121.315V109.92C239.338 107.517 240.097 105.556 241.617 104.037C243.136 102.518 245.15 101.758 247.659 101.758C250.203 101.758 252.234 102.518 253.754 104.037C255.273 105.556 256.033 107.517 256.033 109.92V121.315C256.033 123.753 255.273 125.714 253.754 127.198C252.234 128.682 250.203 129.424 247.659 129.424ZM247.659 126.085C249.001 126.085 250.097 125.626 250.945 124.707C251.828 123.788 252.269 122.569 252.269 121.05V110.132C252.269 108.613 251.828 107.394 250.945 106.475C250.097 105.521 249.001 105.044 247.659 105.044C246.316 105.044 245.221 105.521 244.373 106.475C243.525 107.394 243.101 108.613 243.101 110.132V121.05C243.101 122.569 243.525 123.788 244.373 124.707C245.221 125.626 246.316 126.085 247.659 126.085ZM266.44 129C266.122 129 265.928 128.841 265.857 128.523L259.285 102.765L259.232 102.553C259.232 102.306 259.391 102.182 259.709 102.182H262.783C263.101 102.182 263.295 102.341 263.366 102.659L267.924 122.746C267.959 122.852 267.995 122.905 268.03 122.905C268.065 122.905 268.101 122.852 268.136 122.746L272.641 102.659C272.712 102.341 272.906 102.182 273.224 102.182L276.298 102.235C276.475 102.235 276.598 102.288 276.669 102.394C276.775 102.5 276.793 102.641 276.722 102.818L270.203 128.523C270.168 128.841 269.973 129 269.62 129H266.44ZM296.919 116.492C296.919 116.845 296.742 117.022 296.389 117.022H284.305C284.163 117.022 284.093 117.093 284.093 117.234V121.103C284.093 122.587 284.499 123.806 285.312 124.76C286.16 125.679 287.255 126.138 288.598 126.138C289.728 126.138 290.682 125.802 291.46 125.131C292.272 124.424 292.802 123.523 293.05 122.428C293.156 122.11 293.35 121.951 293.633 121.951L296.283 122.057C296.424 122.057 296.548 122.11 296.654 122.216C296.76 122.322 296.795 122.463 296.76 122.64C296.477 124.725 295.611 126.385 294.163 127.622C292.749 128.823 290.894 129.424 288.598 129.424C286.089 129.424 284.075 128.682 282.556 127.198C281.072 125.714 280.33 123.753 280.33 121.315V109.867C280.33 107.464 281.072 105.521 282.556 104.037C284.075 102.518 286.089 101.758 288.598 101.758C291.142 101.758 293.156 102.518 294.64 104.037C296.159 105.521 296.919 107.464 296.919 109.867V116.492ZM288.598 105.044C287.255 105.044 286.16 105.521 285.312 106.475C284.499 107.394 284.093 108.613 284.093 110.132V113.683C284.093 113.824 284.163 113.895 284.305 113.895H292.997C293.138 113.895 293.209 113.824 293.209 113.683V110.132C293.209 108.613 292.785 107.394 291.937 106.475C291.089 105.521 289.976 105.044 288.598 105.044ZM322.54 104.461C322.54 104.814 322.363 104.991 322.01 104.991H317.982C317.841 104.991 317.77 105.062 317.77 105.203V121.421C317.77 123.046 318.053 124.177 318.618 124.813C319.183 125.414 320.049 125.696 321.215 125.661H321.745C322.098 125.661 322.275 125.838 322.275 126.191V128.47C322.275 128.823 322.098 129 321.745 129H320.42C318.335 129 316.745 128.558 315.65 127.675C314.59 126.756 314.06 125.043 314.06 122.534V105.203C314.06 105.062 313.989 104.991 313.848 104.991H311.781C311.428 104.991 311.251 104.814 311.251 104.461V102.712C311.251 102.359 311.428 102.182 311.781 102.182H313.848C313.989 102.182 314.06 102.111 314.06 101.97V96.034C314.06 95.6807 314.237 95.504 314.59 95.504H317.24C317.593 95.504 317.77 95.6807 317.77 96.034V101.97C317.77 102.111 317.841 102.182 317.982 102.182H322.01C322.363 102.182 322.54 102.359 322.54 102.712V104.461ZM334.974 129.424C332.43 129.424 330.398 128.682 328.879 127.198C327.395 125.714 326.653 123.753 326.653 121.315V109.92C326.653 107.517 327.413 105.556 328.932 104.037C330.451 102.518 332.465 101.758 334.974 101.758C337.518 101.758 339.55 102.518 341.069 104.037C342.588 105.556 343.348 107.517 343.348 109.92V121.315C343.348 123.753 342.588 125.714 341.069 127.198C339.55 128.682 337.518 129.424 334.974 129.424ZM334.974 126.085C336.317 126.085 337.412 125.626 338.26 124.707C339.143 123.788 339.585 122.569 339.585 121.05V110.132C339.585 108.613 339.143 107.394 338.26 106.475C337.412 105.521 336.317 105.044 334.974 105.044C333.631 105.044 332.536 105.521 331.688 106.475C330.84 107.394 330.416 108.613 330.416 110.132V121.05C330.416 122.569 330.84 123.788 331.688 124.707C332.536 125.626 333.631 126.085 334.974 126.085ZM241.343 193.424C238.834 193.424 236.82 192.682 235.301 191.198C233.817 189.714 233.075 187.753 233.075 185.315V173.867C233.075 171.464 233.834 169.521 235.354 168.037C236.873 166.518 238.869 165.758 241.343 165.758C243.003 165.758 244.47 166.094 245.742 166.765C247.014 167.436 247.985 168.337 248.657 169.468C249.363 170.563 249.717 171.782 249.717 173.125V173.655C249.717 174.008 249.54 174.185 249.187 174.185L246.484 174.291C246.13 174.291 245.954 174.114 245.954 173.761V173.39C245.954 172.224 245.512 171.217 244.629 170.369C243.781 169.486 242.685 169.044 241.343 169.044C240 169.044 238.905 169.521 238.057 170.475C237.244 171.394 236.838 172.613 236.838 174.132V185.05C236.838 186.569 237.244 187.806 238.057 188.76C238.905 189.679 240 190.138 241.343 190.138C242.685 190.138 243.781 189.714 244.629 188.866C245.512 187.983 245.954 186.958 245.954 185.792V185.421C245.954 185.068 246.13 184.891 246.484 184.891L249.187 184.944C249.54 184.944 249.717 185.121 249.717 185.474V186.057C249.717 188.177 248.939 189.944 247.385 191.357C245.865 192.735 243.851 193.424 241.343 193.424ZM264.045 165.917C264.928 165.917 265.688 166.111 266.324 166.5C266.571 166.641 266.66 166.871 266.589 167.189L265.953 169.945C265.918 170.263 265.706 170.369 265.317 170.263C264.893 170.051 264.363 169.945 263.727 169.945C263.444 169.945 263.232 169.963 263.091 169.998C261.819 170.069 260.777 170.74 259.964 172.012C259.151 173.249 258.745 174.768 258.745 176.57V192.47C258.745 192.823 258.568 193 258.215 193H255.512C255.159 193 254.982 192.823 254.982 192.47V166.712C254.982 166.359 255.159 166.182 255.512 166.182H258.215C258.568 166.182 258.745 166.359 258.745 166.712V169.892C258.745 169.998 258.763 170.051 258.798 170.051C258.869 170.051 258.939 170.016 259.01 169.945C260.035 167.26 261.713 165.917 264.045 165.917ZM286.257 180.492C286.257 180.845 286.08 181.022 285.727 181.022H273.643C273.501 181.022 273.431 181.093 273.431 181.234V185.103C273.431 186.587 273.837 187.806 274.65 188.76C275.498 189.679 276.593 190.138 277.936 190.138C279.066 190.138 280.02 189.802 280.798 189.131C281.61 188.424 282.14 187.523 282.388 186.428C282.494 186.11 282.688 185.951 282.971 185.951L285.621 186.057C285.762 186.057 285.886 186.11 285.992 186.216C286.098 186.322 286.133 186.463 286.098 186.64C285.815 188.725 284.949 190.385 283.501 191.622C282.087 192.823 280.232 193.424 277.936 193.424C275.427 193.424 273.413 192.682 271.894 191.198C270.41 189.714 269.668 187.753 269.668 185.315V173.867C269.668 171.464 270.41 169.521 271.894 168.037C273.413 166.518 275.427 165.758 277.936 165.758C280.48 165.758 282.494 166.518 283.978 168.037C285.497 169.521 286.257 171.464 286.257 173.867V180.492ZM277.936 169.044C276.593 169.044 275.498 169.521 274.65 170.475C273.837 171.394 273.431 172.613 273.431 174.132V177.683C273.431 177.824 273.501 177.895 273.643 177.895H282.335C282.476 177.895 282.547 177.824 282.547 177.683V174.132C282.547 172.613 282.123 171.394 281.275 170.475C280.427 169.521 279.314 169.044 277.936 169.044ZM299.471 165.758C301.944 165.758 303.923 166.571 305.407 168.196C306.891 169.786 307.633 171.924 307.633 174.609V192.47C307.633 192.823 307.456 193 307.103 193H304.4C304.046 193 303.87 192.823 303.87 192.47V190.88C303.87 190.809 303.834 190.774 303.764 190.774C303.728 190.739 303.675 190.756 303.605 190.827C302.297 192.558 300.336 193.424 297.722 193.424C295.778 193.424 294.082 192.876 292.634 191.781C291.22 190.65 290.514 188.672 290.514 185.845C290.514 182.842 291.379 180.651 293.111 179.273C294.842 177.86 297.121 177.153 299.948 177.153H303.658C303.799 177.153 303.87 177.082 303.87 176.941V174.874C303.87 173.107 303.463 171.694 302.651 170.634C301.838 169.574 300.743 169.044 299.365 169.044C298.305 169.044 297.386 169.397 296.609 170.104C295.867 170.811 295.425 171.712 295.284 172.807C295.284 173.16 295.107 173.337 294.754 173.337L291.786 173.284C291.609 173.284 291.468 173.231 291.362 173.125C291.291 173.019 291.273 172.895 291.309 172.754C291.485 170.669 292.333 168.991 293.853 167.719C295.372 166.412 297.245 165.758 299.471 165.758ZM298.517 190.138C299.965 190.138 301.22 189.679 302.28 188.76C303.34 187.806 303.87 186.499 303.87 184.838V180.386C303.87 180.245 303.799 180.174 303.658 180.174H299.895C298.199 180.174 296.856 180.633 295.867 181.552C294.877 182.435 294.383 183.76 294.383 185.527C294.383 187.082 294.754 188.248 295.496 189.025C296.273 189.767 297.28 190.138 298.517 190.138ZM322.954 168.461C322.954 168.814 322.777 168.991 322.424 168.991H318.396C318.255 168.991 318.184 169.062 318.184 169.203V185.421C318.184 187.046 318.467 188.177 319.032 188.813C319.597 189.414 320.463 189.696 321.629 189.661H322.159C322.512 189.661 322.689 189.838 322.689 190.191V192.47C322.689 192.823 322.512 193 322.159 193H320.834C318.749 193 317.159 192.558 316.064 191.675C315.004 190.756 314.474 189.043 314.474 186.534V169.203C314.474 169.062 314.403 168.991 314.262 168.991H312.195C311.842 168.991 311.665 168.814 311.665 168.461V166.712C311.665 166.359 311.842 166.182 312.195 166.182H314.262C314.403 166.182 314.474 166.111 314.474 165.97V160.034C314.474 159.681 314.651 159.504 315.004 159.504H317.654C318.007 159.504 318.184 159.681 318.184 160.034V165.97C318.184 166.111 318.255 166.182 318.396 166.182H322.424C322.777 166.182 322.954 166.359 322.954 166.712V168.461ZM343.656 180.492C343.656 180.845 343.479 181.022 343.126 181.022H331.042C330.901 181.022 330.83 181.093 330.83 181.234V185.103C330.83 186.587 331.236 187.806 332.049 188.76C332.897 189.679 333.992 190.138 335.335 190.138C336.466 190.138 337.42 189.802 338.197 189.131C339.01 188.424 339.54 187.523 339.787 186.428C339.893 186.11 340.087 185.951 340.37 185.951L343.02 186.057C343.161 186.057 343.285 186.11 343.391 186.216C343.497 186.322 343.532 186.463 343.497 186.64C343.214 188.725 342.349 190.385 340.9 191.622C339.487 192.823 337.632 193.424 335.335 193.424C332.826 193.424 330.812 192.682 329.293 191.198C327.809 189.714 327.067 187.753 327.067 185.315V173.867C327.067 171.464 327.809 169.521 329.293 168.037C330.812 166.518 332.826 165.758 335.335 165.758C337.879 165.758 339.893 166.518 341.377 168.037C342.896 169.521 343.656 171.464 343.656 173.867V180.492ZM335.335 169.044C333.992 169.044 332.897 169.521 332.049 170.475C331.236 171.394 330.83 172.613 330.83 174.132V177.683C330.83 177.824 330.901 177.895 331.042 177.895H339.734C339.875 177.895 339.946 177.824 339.946 177.683V174.132C339.946 172.613 339.522 171.394 338.674 170.475C337.826 169.521 336.713 169.044 335.335 169.044ZM217.415 257.265C214.977 257.265 213.016 256.647 211.532 255.41C210.083 254.138 209.359 252.46 209.359 250.375V250.004C209.359 249.651 209.535 249.474 209.889 249.474H212.433C212.786 249.474 212.963 249.651 212.963 250.004V250.322C212.963 251.453 213.369 252.407 214.182 253.184C215.03 253.961 216.125 254.35 217.468 254.35C218.74 254.35 219.764 253.961 220.542 253.184C221.319 252.407 221.708 251.417 221.708 250.216C221.708 249.297 221.46 248.538 220.966 247.937C220.471 247.301 219.888 246.806 219.217 246.453C218.581 246.1 217.609 245.64 216.302 245.075C214.924 244.51 213.775 243.962 212.857 243.432C211.973 242.867 211.196 242.089 210.525 241.1C209.889 240.075 209.571 238.786 209.571 237.231C209.571 234.97 210.26 233.185 211.638 231.878C213.051 230.571 214.941 229.917 217.309 229.917C219.711 229.917 221.619 230.588 223.033 231.931C224.446 233.274 225.153 235.058 225.153 237.284V237.443C225.153 237.796 224.976 237.973 224.623 237.973H222.185C221.831 237.973 221.655 237.796 221.655 237.443V237.125C221.655 235.924 221.248 234.934 220.436 234.157C219.658 233.38 218.634 232.991 217.362 232.991C216.09 232.991 215.065 233.397 214.288 234.21C213.546 234.987 213.175 235.959 213.175 237.125C213.175 237.973 213.404 238.697 213.864 239.298C214.323 239.863 214.888 240.34 215.56 240.729C216.231 241.082 217.167 241.524 218.369 242.054C219.817 242.69 221.001 243.291 221.92 243.856C222.874 244.421 223.704 245.216 224.411 246.241C225.117 247.266 225.471 248.538 225.471 250.057C225.471 252.248 224.746 253.997 223.298 255.304C221.849 256.611 219.888 257.265 217.415 257.265ZM228.875 267.6C228.804 267.6 228.734 267.547 228.663 267.441C228.592 267.335 228.557 267.211 228.557 267.07V264.95C228.557 264.597 228.734 264.42 229.087 264.42C230.182 264.385 231.03 264.173 231.631 263.784C232.267 263.395 232.779 262.706 233.168 261.717C233.557 260.728 233.945 259.208 234.334 257.159C234.369 257.088 234.369 257.035 234.334 257C234.334 256.929 234.334 256.876 234.334 256.841L227.603 230.765L227.55 230.606C227.55 230.323 227.727 230.182 228.08 230.182H230.942C231.295 230.182 231.49 230.341 231.525 230.659L236.189 251.488C236.224 251.594 236.26 251.647 236.295 251.647C236.33 251.647 236.366 251.594 236.401 251.488L241.012 230.659C241.083 230.341 241.277 230.182 241.595 230.182L244.563 230.235C244.74 230.235 244.863 230.288 244.934 230.394C245.04 230.5 245.058 230.641 244.987 230.818L237.62 259.332C236.984 261.699 236.348 263.448 235.712 264.579C235.111 265.71 234.316 266.487 233.327 266.911C232.338 267.37 230.942 267.6 229.14 267.6H228.875ZM258.829 229.811C260.984 229.811 262.645 230.553 263.811 232.037C265.012 233.521 265.613 235.588 265.613 238.238V256.47C265.613 256.823 265.436 257 265.083 257H262.38C262.026 257 261.85 256.823 261.85 256.47V238.556C261.85 236.825 261.461 235.482 260.684 234.528C259.942 233.574 258.899 233.097 257.557 233.097C256.143 233.097 255.03 233.609 254.218 234.634C253.44 235.659 253.052 237.054 253.052 238.821V256.47C253.052 256.823 252.875 257 252.522 257H249.819C249.465 257 249.289 256.823 249.289 256.47V230.712C249.289 230.359 249.465 230.182 249.819 230.182H252.522C252.875 230.182 253.052 230.359 253.052 230.712V232.408C253.052 232.479 253.087 232.532 253.158 232.567C253.228 232.602 253.281 232.567 253.317 232.461C253.953 231.578 254.748 230.924 255.702 230.5C256.691 230.041 257.733 229.811 258.829 229.811ZM287.758 244.492C287.758 244.845 287.581 245.022 287.228 245.022H275.144C275.002 245.022 274.932 245.093 274.932 245.234V249.103C274.932 250.587 275.338 251.806 276.151 252.76C276.999 253.679 278.094 254.138 279.437 254.138C280.567 254.138 281.521 253.802 282.299 253.131C283.111 252.424 283.641 251.523 283.889 250.428C283.995 250.11 284.189 249.951 284.472 249.951L287.122 250.057C287.263 250.057 287.387 250.11 287.493 250.216C287.599 250.322 287.634 250.463 287.599 250.64C287.316 252.725 286.45 254.385 285.002 255.622C283.588 256.823 281.733 257.424 279.437 257.424C276.928 257.424 274.914 256.682 273.395 255.198C271.911 253.714 271.169 251.753 271.169 249.315V237.867C271.169 235.464 271.911 233.521 273.395 232.037C274.914 230.518 276.928 229.758 279.437 229.758C281.981 229.758 283.995 230.518 285.479 232.037C286.998 233.521 287.758 235.464 287.758 237.867V244.492ZM279.437 233.044C278.094 233.044 276.999 233.521 276.151 234.475C275.338 235.394 274.932 236.613 274.932 238.132V241.683C274.932 241.824 275.002 241.895 275.144 241.895H283.836C283.977 241.895 284.048 241.824 284.048 241.683V238.132C284.048 236.613 283.624 235.394 282.776 234.475C281.928 233.521 280.815 233.044 279.437 233.044ZM302.398 229.917C303.281 229.917 304.041 230.111 304.677 230.5C304.924 230.641 305.012 230.871 304.942 231.189L304.306 233.945C304.27 234.263 304.058 234.369 303.67 234.263C303.246 234.051 302.716 233.945 302.08 233.945C301.797 233.945 301.585 233.963 301.444 233.998C300.172 234.069 299.129 234.74 298.317 236.012C297.504 237.249 297.098 238.768 297.098 240.57V256.47C297.098 256.823 296.921 257 296.568 257H293.865C293.511 257 293.335 256.823 293.335 256.47V230.712C293.335 230.359 293.511 230.182 293.865 230.182H296.568C296.921 230.182 297.098 230.359 297.098 230.712V233.892C297.098 233.998 297.115 234.051 297.151 234.051C297.221 234.051 297.292 234.016 297.363 233.945C298.387 231.26 300.066 229.917 302.398 229.917ZM320.741 230.712C320.741 230.359 320.918 230.182 321.271 230.182H323.974C324.328 230.182 324.504 230.359 324.504 230.712V256.47C324.504 260.251 323.621 263.113 321.854 265.056C320.123 267.035 317.208 267.936 313.109 267.759C312.756 267.724 312.579 267.529 312.579 267.176V264.897C312.579 264.544 312.756 264.367 313.109 264.367C315.936 264.438 317.915 263.784 319.045 262.406C320.176 261.063 320.741 258.979 320.741 256.152V254.562C320.741 254.491 320.706 254.438 320.635 254.403C320.6 254.368 320.547 254.385 320.476 254.456C319.876 255.339 319.098 256.011 318.144 256.47C317.226 256.929 316.236 257.159 315.176 257.159C312.95 257.159 311.184 256.417 309.876 254.933C308.604 253.449 307.968 251.488 307.968 249.05V237.867C307.968 235.394 308.604 233.433 309.876 231.984C311.184 230.5 312.95 229.758 315.176 229.758C316.236 229.758 317.226 229.988 318.144 230.447C319.098 230.871 319.876 231.525 320.476 232.408C320.547 232.514 320.6 232.567 320.635 232.567C320.706 232.532 320.741 232.461 320.741 232.355V230.712ZM316.289 253.873C317.597 253.873 318.657 253.414 319.469 252.495C320.317 251.541 320.741 250.322 320.741 248.838V238.132C320.741 236.613 320.317 235.394 319.469 234.475C318.657 233.521 317.597 233.044 316.289 233.044C314.947 233.044 313.851 233.521 313.003 234.475C312.155 235.394 311.731 236.613 311.731 238.132V248.838C311.731 250.322 312.155 251.541 313.003 252.495C313.851 253.414 314.947 253.873 316.289 253.873ZM328.819 267.6C328.749 267.6 328.678 267.547 328.607 267.441C328.537 267.335 328.501 267.211 328.501 267.07V264.95C328.501 264.597 328.678 264.42 329.031 264.42C330.127 264.385 330.975 264.173 331.575 263.784C332.211 263.395 332.724 262.706 333.112 261.717C333.501 260.728 333.89 259.208 334.278 257.159C334.314 257.088 334.314 257.035 334.278 257C334.278 256.929 334.278 256.876 334.278 256.841L327.547 230.765L327.494 230.606C327.494 230.323 327.671 230.182 328.024 230.182H330.886C331.24 230.182 331.434 230.341 331.469 230.659L336.133 251.488C336.169 251.594 336.204 251.647 336.239 251.647C336.275 251.647 336.31 251.594 336.345 251.488L340.956 230.659C341.027 230.341 341.221 230.182 341.539 230.182L344.507 230.235C344.684 230.235 344.808 230.288 344.878 230.394C344.984 230.5 345.002 230.641 344.931 230.818L337.564 259.332C336.928 261.699 336.292 263.448 335.656 264.579C335.056 265.71 334.261 266.487 333.271 266.911C332.282 267.37 330.886 267.6 329.084 267.6H328.819Z" fill="#F6F6F6"/>
<path opacity="0.1" d="M416 2.42497C416 1.74831 416.193 1.21664 416.58 0.829974C416.967 0.443308 417.498 0.249974 418.175 0.249974L515.325 0.249979C516.002 0.249979 516.533 0.443312 516.92 0.829979C517.307 1.21665 517.5 1.74831 517.5 2.42498L517.5 30.99C517.5 37.37 516.292 42.9766 513.875 47.81C511.458 52.74 508.027 56.5583 503.58 59.265C499.23 61.9716 494.203 63.325 488.5 63.325L445 63.325C439.297 63.325 434.222 61.9716 429.775 59.265C425.425 56.5583 422.042 52.74 419.625 47.81C417.208 42.9766 416 37.37 416 30.99L416 2.42497ZM440.215 27.51C439.635 27.51 439.345 27.8 439.345 28.38L439.49 30.41C439.587 31.9566 440.312 33.2616 441.665 34.325C443.018 35.3883 444.758 35.9683 446.885 36.065L486.76 36.065C488.983 36.065 490.772 35.5333 492.125 34.47C493.478 33.4066 494.155 32.005 494.155 30.265L494.155 28.38C494.155 27.8 493.865 27.51 493.285 27.51L440.215 27.51ZM449.06 130.228C448.383 130.228 447.852 130.034 447.465 129.648C447.078 129.261 446.885 128.729 446.885 128.053L446.885 97.3128C446.885 96.7328 446.595 96.4428 446.015 96.4428L442.825 96.4428C441.472 96.4428 440.36 96.7328 439.49 97.3128C438.62 97.9894 438.185 98.8111 438.185 99.7778C438.185 100.744 438.523 101.469 439.2 101.953C439.877 102.533 440.747 102.919 441.81 103.113C443.163 103.596 443.792 104.418 443.695 105.578L442.245 127.763C442.052 129.213 441.278 129.889 439.925 129.793C431.418 129.309 425.087 126.603 420.93 121.673C416.87 116.839 414.84 109.541 414.84 99.7777C414.84 90.1111 417.063 82.5711 421.51 77.1577C426.053 71.8411 432.433 69.1827 440.65 69.1827L466.75 69.1827C474.58 69.1828 480.815 71.8894 485.455 77.3028C490.192 82.7161 492.56 90.2078 492.56 99.7778C492.56 109.348 490.192 116.791 485.455 122.108C480.815 127.521 474.58 130.228 466.75 130.228L449.06 130.228ZM469.215 99.7778C469.215 98.8111 468.78 97.9894 467.91 97.3128C467.04 96.7328 465.928 96.4428 464.575 96.4428L461.095 96.4428C460.515 96.4428 460.225 96.7328 460.225 97.3128L460.225 102.098C460.225 102.678 460.515 102.968 461.095 102.968L464.575 102.968C465.928 102.968 467.04 102.678 467.91 102.098C468.78 101.518 469.215 100.744 469.215 99.7778ZM414.84 164.894C414.84 155.614 417.015 148.171 421.365 142.564C425.715 137.054 431.467 134.299 438.62 134.299L439.055 134.299C439.732 134.299 440.263 134.492 440.65 134.879C441.037 135.266 441.23 135.797 441.23 136.474L441.23 158.224C441.23 158.901 441.037 159.432 440.65 159.819C440.36 160.206 439.925 160.399 439.345 160.399C437.895 160.399 436.783 160.834 436.01 161.704C435.237 162.574 434.85 163.541 434.85 164.604C434.85 165.474 435.092 166.151 435.575 166.634C436.155 167.117 436.832 167.359 437.605 167.359C439.055 167.359 440.118 166.634 440.795 165.184C441.568 163.734 442.438 161.317 443.405 157.934C443.695 156.774 444.082 155.421 444.565 153.874C446.208 148.751 448.867 144.352 452.54 140.679C456.31 137.102 461.433 135.314 467.91 135.314C475.45 135.314 481.443 137.924 485.89 143.144C490.337 148.364 492.56 155.227 492.56 163.734C492.56 172.627 490.143 179.732 485.31 185.049C480.477 190.366 474.097 193.024 466.17 193.024C465.783 193.024 465.445 192.831 465.155 192.444C464.865 192.057 464.72 191.526 464.72 190.849L464.72 169.824C464.72 169.147 464.913 168.616 465.3 168.229C465.687 167.842 466.218 167.649 466.895 167.649L467.765 167.649C468.925 167.649 469.843 167.311 470.52 166.634C471.197 166.054 471.535 165.329 471.535 164.459C471.535 163.492 471.148 162.719 470.375 162.139C469.602 161.656 468.732 161.414 467.765 161.414C465.832 161.414 464.333 162.332 463.27 164.169C462.207 166.102 461.24 168.567 460.37 171.564C458.34 178.524 455.73 184.131 452.54 188.384C449.35 192.637 444.468 194.764 437.895 194.764C430.742 194.764 425.087 192.009 420.93 186.499C416.87 181.086 414.84 173.884 414.84 164.894ZM496.475 212.378C496.475 208.415 497.732 205.128 500.245 202.518C502.855 200.005 506.142 198.748 510.105 198.748C514.165 198.748 517.452 200.005 519.965 202.518C522.478 205.128 523.735 208.415 523.735 212.378C523.735 216.342 522.478 219.58 519.965 222.093C517.452 224.703 514.165 226.008 510.105 226.008C506.238 226.008 503 224.703 500.39 222.093C497.78 219.58 496.475 216.342 496.475 212.378ZM416 201.213C416 200.537 416.193 200.005 416.58 199.618C416.967 199.232 417.498 199.038 418.175 199.038L489.225 199.038C489.902 199.038 490.433 199.232 490.82 199.618C491.207 200.005 491.4 200.537 491.4 201.213L491.4 224.123C491.4 224.8 491.207 225.332 490.82 225.718C490.433 226.105 489.902 226.298 489.225 226.298L418.175 226.298C417.498 226.298 416.967 226.105 416.58 225.718C416.193 225.332 416 224.8 416 224.123L416 201.213ZM489.225 265.098C489.902 265.098 490.433 265.291 490.82 265.678C491.207 266.065 491.4 266.596 491.4 267.273L491.4 290.183C491.4 290.86 491.207 291.391 490.82 291.778C490.433 292.165 489.902 292.358 489.225 292.358L420.93 292.358C413.68 292.358 407.493 291.295 402.37 289.168C397.247 287.138 393.187 283.32 390.19 277.713C387.097 272.106 385.55 264.228 385.55 254.078C385.55 250.308 385.647 247.36 385.84 245.233C385.84 243.783 386.565 243.058 388.015 243.058L407.3 243.058C408.847 243.058 409.523 243.831 409.33 245.378L409.185 249.003C409.185 254.416 409.958 258.235 411.505 260.458C412.955 262.778 415.13 264.228 418.03 264.808C418.32 264.808 418.562 264.47 418.755 263.793C418.948 263.213 418.948 262.778 418.755 262.488C416.145 259.781 414.84 256.06 414.84 251.323C414.84 244.363 417.063 239.288 421.51 236.098C425.957 233.005 432.337 231.458 440.65 231.458L466.75 231.458C475.353 231.458 481.782 233.053 486.035 236.243C490.385 239.433 492.56 244.46 492.56 251.323C492.56 256.93 490.433 261.183 486.18 264.083C485.793 264.276 485.6 264.47 485.6 264.663C485.697 264.953 485.938 265.098 486.325 265.098L489.225 265.098ZM438.185 261.763C438.185 262.73 438.62 263.503 439.49 264.083C440.36 264.76 441.472 265.098 442.825 265.098L464.575 265.098C465.928 265.098 467.04 264.76 467.91 264.083C468.78 263.503 469.215 262.73 469.215 261.763C469.215 260.796 468.78 260.023 467.91 259.443C467.04 258.96 465.928 258.718 464.575 258.718L442.825 258.718C441.472 258.718 440.36 258.96 439.49 259.443C438.62 260.023 438.185 260.796 438.185 261.763ZM492.56 339.042C492.56 352.769 483.86 359.632 466.46 359.632L418.175 359.632C417.498 359.632 416.967 359.439 416.58 359.052C416.193 358.666 416 358.134 416 357.457L416 334.547C416 333.871 416.193 333.339 416.58 332.952C416.967 332.566 417.498 332.372 418.175 332.372L464.575 332.372C467.668 332.372 469.215 331.357 469.215 329.327C469.215 327.104 467.668 325.992 464.575 325.992L418.175 325.992C417.498 325.992 416.967 325.799 416.58 325.412C416.193 325.026 416 324.494 416 323.817L416 300.907C416 300.231 416.193 299.699 416.58 299.312C416.967 298.926 417.498 298.732 418.175 298.732L489.225 298.732C489.902 298.732 490.433 298.926 490.82 299.312C491.207 299.699 491.4 300.231 491.4 300.907L491.4 323.817C491.4 324.494 491.207 325.026 490.82 325.412C490.433 325.799 489.902 325.992 489.225 325.992L487.05 325.992C486.857 325.992 486.76 326.089 486.76 326.282C486.76 326.766 487.195 327.346 488.065 328.022C491.062 330.826 492.56 334.499 492.56 339.042Z" fill="#333333"/>
</g>
</svg>
