<svg width="316" height="268" viewBox="0 0 316 268" fill="none" xmlns="http://www.w3.org/2000/svg">
<path d="M10.6127 99.2059C8.25139 99.2059 6.35006 98.4852 4.90873 97.0439C3.49806 95.6026 2.79273 93.6706 2.79273 91.2479V74.1819C2.79273 71.7899 3.49806 69.8732 4.90873 68.4319C6.35006 66.9906 8.25139 66.2699 10.6127 66.2699C13.0047 66.2699 14.9061 66.9906 16.3167 68.4319C17.7581 69.8426 18.4787 71.7592 18.4787 74.1819V74.9639C18.4787 75.2706 18.3254 75.4239 18.0187 75.4239L15.6267 75.5619C15.3201 75.5619 15.1667 75.4086 15.1667 75.1019V73.9519C15.1667 72.5106 14.7527 71.3452 13.9247 70.4559C13.0967 69.5666 11.9927 69.1219 10.6127 69.1219C9.26339 69.1219 8.15939 69.5666 7.30073 70.4559C6.47273 71.3452 6.05873 72.5106 6.05873 73.9519V91.5239C6.05873 92.9652 6.47273 94.1306 7.30073 95.0199C8.15939 95.9092 9.26339 96.3539 10.6127 96.3539C11.9927 96.3539 13.0967 95.9092 13.9247 95.0199C14.7527 94.1306 15.1667 92.9652 15.1667 91.5239V90.3739C15.1667 90.0672 15.3201 89.9139 15.6267 89.9139L18.0187 90.0519C18.3254 90.0519 18.4787 90.2052 18.4787 90.5119V91.2479C18.4787 93.6706 17.7581 95.6026 16.3167 97.0439C14.8754 98.4852 12.9741 99.2059 10.6127 99.2059ZM31.464 75.3319C32.2307 75.3319 32.89 75.5006 33.442 75.8379C33.6567 75.9606 33.7334 76.1599 33.672 76.4359L33.12 78.8279C33.0894 79.1039 32.9054 79.1959 32.568 79.1039C32.2 78.9199 31.74 78.8279 31.188 78.8279C30.9427 78.8279 30.7587 78.8432 30.636 78.8739C29.532 78.9352 28.6274 79.5179 27.922 80.6219C27.2167 81.6952 26.864 83.0139 26.864 84.5779V98.3779C26.864 98.6846 26.7107 98.8379 26.404 98.8379H24.058C23.7514 98.8379 23.598 98.6846 23.598 98.3779V76.0219C23.598 75.7152 23.7514 75.5619 24.058 75.5619H26.404C26.7107 75.5619 26.864 75.7152 26.864 76.0219V78.7819C26.864 78.8739 26.8794 78.9199 26.91 78.9199C26.9714 78.9199 27.0327 78.8892 27.094 78.8279C27.9834 76.4972 29.44 75.3319 31.464 75.3319ZM50.742 87.9819C50.742 88.2886 50.5886 88.4419 50.282 88.4419H39.794C39.6713 88.4419 39.61 88.5032 39.61 88.6259V91.9839C39.61 93.2719 39.9626 94.3299 40.668 95.1579C41.404 95.9552 42.3546 96.3539 43.52 96.3539C44.5013 96.3539 45.3293 96.0626 46.004 95.4799C46.7093 94.8666 47.1693 94.0846 47.384 93.1339C47.476 92.8579 47.6446 92.7199 47.89 92.7199L50.19 92.8119C50.3126 92.8119 50.42 92.8579 50.512 92.9499C50.604 93.0419 50.6346 93.1646 50.604 93.3179C50.3586 95.1272 49.6073 96.5686 48.35 97.6419C47.1233 98.6846 45.5133 99.2059 43.52 99.2059C41.3426 99.2059 39.5946 98.5619 38.276 97.2739C36.988 95.9859 36.344 94.2839 36.344 92.1679V82.2319C36.344 80.1466 36.988 78.4599 38.276 77.1719C39.5946 75.8532 41.3426 75.1939 43.52 75.1939C45.728 75.1939 47.476 75.8532 48.764 77.1719C50.0826 78.4599 50.742 80.1466 50.742 82.2319V87.9819ZM43.52 78.0459C42.3546 78.0459 41.404 78.4599 40.668 79.2879C39.9626 80.0852 39.61 81.1432 39.61 82.4619V85.5439C39.61 85.6666 39.6713 85.7279 39.794 85.7279H47.338C47.4606 85.7279 47.522 85.6666 47.522 85.5439V82.4619C47.522 81.1432 47.154 80.0852 46.418 79.2879C45.682 78.4599 44.716 78.0459 43.52 78.0459ZM62.2107 75.1939C64.3574 75.1939 66.0747 75.8992 67.3627 77.3099C68.6507 78.6899 69.2947 80.5452 69.2947 82.8759V98.3779C69.2947 98.6846 69.1414 98.8379 68.8347 98.8379H66.4887C66.182 98.8379 66.0287 98.6846 66.0287 98.3779V96.9979C66.0287 96.9366 65.998 96.9059 65.9367 96.9059C65.906 96.8752 65.86 96.8906 65.7987 96.9519C64.664 98.4546 62.962 99.2059 60.6927 99.2059C59.006 99.2059 57.534 98.7306 56.2767 97.7799C55.05 96.7986 54.4367 95.0812 54.4367 92.6279C54.4367 90.0212 55.188 88.1199 56.6907 86.9239C58.1934 85.6972 60.1714 85.0839 62.6247 85.0839H65.8447C65.9674 85.0839 66.0287 85.0226 66.0287 84.8999V83.1059C66.0287 81.5726 65.676 80.3459 64.9707 79.4259C64.2654 78.5059 63.3147 78.0459 62.1187 78.0459C61.1987 78.0459 60.4014 78.3526 59.7267 78.9659C59.0827 79.5792 58.6994 80.3612 58.5767 81.3119C58.5767 81.6186 58.4234 81.7719 58.1167 81.7719L55.5407 81.7259C55.3874 81.7259 55.2647 81.6799 55.1727 81.5879C55.1114 81.4959 55.096 81.3886 55.1267 81.2659C55.28 79.4566 56.016 77.9999 57.3347 76.8959C58.6534 75.7612 60.2787 75.1939 62.2107 75.1939ZM61.3827 96.3539C62.64 96.3539 63.7287 95.9552 64.6487 95.1579C65.5687 94.3299 66.0287 93.1952 66.0287 91.7539V87.8899C66.0287 87.7672 65.9674 87.7059 65.8447 87.7059H62.5787C61.1067 87.7059 59.9414 88.1046 59.0827 88.9019C58.224 89.6686 57.7947 90.8186 57.7947 92.3519C57.7947 93.7012 58.1167 94.7132 58.7607 95.3879C59.4354 96.0319 60.3094 96.3539 61.3827 96.3539ZM82.5927 77.5399C82.5927 77.8466 82.4393 77.9999 82.1327 77.9999H78.6367C78.514 77.9999 78.4527 78.0612 78.4527 78.1839V92.2599C78.4527 93.6706 78.698 94.6519 79.1887 95.2039C79.6793 95.7252 80.4307 95.9706 81.4427 95.9399H81.9027C82.2093 95.9399 82.3627 96.0932 82.3627 96.3999V98.3779C82.3627 98.6846 82.2093 98.8379 81.9027 98.8379H80.7527C78.9433 98.8379 77.5633 98.4546 76.6127 97.6879C75.6927 96.8906 75.2327 95.4032 75.2327 93.2259V78.1839C75.2327 78.0612 75.1713 77.9999 75.0487 77.9999H73.2547C72.948 77.9999 72.7947 77.8466 72.7947 77.5399V76.0219C72.7947 75.7152 72.948 75.5619 73.2547 75.5619H75.0487C75.1713 75.5619 75.2327 75.5006 75.2327 75.3779V70.2259C75.2327 69.9192 75.386 69.7659 75.6927 69.7659H77.9927C78.2993 69.7659 78.4527 69.9192 78.4527 70.2259V75.3779C78.4527 75.5006 78.514 75.5619 78.6367 75.5619H82.1327C82.4393 75.5619 82.5927 75.7152 82.5927 76.0219V77.5399ZM88.6463 71.3299C87.8797 71.3299 87.251 71.0846 86.7603 70.5939C86.3003 70.1032 86.0703 69.4899 86.0703 68.7539C86.0703 67.9872 86.3003 67.3739 86.7603 66.9139C87.251 66.4232 87.8797 66.1779 88.6463 66.1779C89.3823 66.1779 89.9803 66.4232 90.4403 66.9139C90.931 67.3739 91.1763 67.9872 91.1763 68.7539C91.1763 69.4899 90.931 70.1032 90.4403 70.5939C89.9803 71.0846 89.3823 71.3299 88.6463 71.3299ZM87.4963 98.8379C87.1897 98.8379 87.0363 98.6846 87.0363 98.3779V76.0219C87.0363 75.7152 87.1897 75.5619 87.4963 75.5619H89.8423C90.149 75.5619 90.3023 75.7152 90.3023 76.0219V98.3779C90.3023 98.6846 90.149 98.8379 89.8423 98.8379H87.4963ZM104.517 75.2399C106.387 75.2399 107.829 75.8839 108.841 77.1719C109.883 78.4599 110.405 80.2539 110.405 82.5539V98.3779C110.405 98.6846 110.251 98.8379 109.945 98.8379H107.599C107.292 98.8379 107.139 98.6846 107.139 98.3779V82.8299C107.139 81.3272 106.801 80.1619 106.127 79.3339C105.483 78.5059 104.578 78.0919 103.413 78.0919C102.186 78.0919 101.22 78.5366 100.515 79.4259C99.84 80.3152 99.5027 81.5266 99.5027 83.0599V98.3779C99.5027 98.6846 99.3494 98.8379 99.0427 98.8379H96.6967C96.39 98.8379 96.2367 98.6846 96.2367 98.3779V76.0219C96.2367 75.7152 96.39 75.5619 96.6967 75.5619H99.0427C99.3494 75.5619 99.5027 75.7152 99.5027 76.0219V77.4939C99.5027 77.5552 99.5334 77.6012 99.5947 77.6319C99.656 77.6626 99.702 77.6319 99.7327 77.5399C100.285 76.7732 100.975 76.2059 101.803 75.8379C102.661 75.4392 103.566 75.2399 104.517 75.2399ZM126.313 76.0219C126.313 75.7152 126.466 75.5619 126.773 75.5619H129.119C129.425 75.5619 129.579 75.7152 129.579 76.0219V98.3779C129.579 101.659 128.812 104.143 127.279 105.83C125.776 107.547 123.246 108.329 119.689 108.176C119.382 108.145 119.229 107.977 119.229 107.67V105.692C119.229 105.385 119.382 105.232 119.689 105.232C122.142 105.293 123.859 104.726 124.841 103.53C125.822 102.365 126.313 100.555 126.313 98.1019V96.7219C126.313 96.6606 126.282 96.6146 126.221 96.5839C126.19 96.5532 126.144 96.5686 126.083 96.6299C125.561 97.3966 124.887 97.9792 124.059 98.3779C123.261 98.7766 122.403 98.9759 121.483 98.9759C119.551 98.9759 118.017 98.3319 116.883 97.0439C115.779 95.7559 115.227 94.0539 115.227 91.9379V82.2319C115.227 80.0852 115.779 78.3832 116.883 77.1259C118.017 75.8379 119.551 75.1939 121.483 75.1939C122.403 75.1939 123.261 75.3932 124.059 75.7919C124.887 76.1599 125.561 76.7272 126.083 77.4939C126.144 77.5859 126.19 77.6319 126.221 77.6319C126.282 77.6012 126.313 77.5399 126.313 77.4479V76.0219ZM122.449 96.1239C123.583 96.1239 124.503 95.7252 125.209 94.9279C125.945 94.0999 126.313 93.0419 126.313 91.7539V82.4619C126.313 81.1432 125.945 80.0852 125.209 79.2879C124.503 78.4599 123.583 78.0459 122.449 78.0459C121.283 78.0459 120.333 78.4599 119.597 79.2879C118.861 80.0852 118.493 81.1432 118.493 82.4619V91.7539C118.493 93.0419 118.861 94.0999 119.597 94.9279C120.333 95.7252 121.283 96.1239 122.449 96.1239ZM20.3263 154.068C18.2103 154.068 16.5083 153.531 15.2203 152.458C13.9629 151.354 13.3343 149.897 13.3343 148.088V147.766C13.3343 147.459 13.4876 147.306 13.7943 147.306H16.0023C16.3089 147.306 16.4623 147.459 16.4623 147.766V148.042C16.4623 149.023 16.8149 149.851 17.5203 150.526C18.2563 151.201 19.2069 151.538 20.3723 151.538C21.4763 151.538 22.3656 151.201 23.0403 150.526C23.7149 149.851 24.0523 148.993 24.0523 147.95C24.0523 147.153 23.8376 146.493 23.4083 145.972C22.9789 145.42 22.4729 144.991 21.8903 144.684C21.3383 144.377 20.4949 143.979 19.3603 143.488C18.1643 142.997 17.1676 142.522 16.3703 142.062C15.6036 141.571 14.9289 140.897 14.3463 140.038C13.7943 139.149 13.5183 138.029 13.5183 136.68C13.5183 134.717 14.1163 133.169 15.3123 132.034C16.5389 130.899 18.1796 130.332 20.2343 130.332C22.3196 130.332 23.9756 130.915 25.2023 132.08C26.4289 133.245 27.0423 134.794 27.0423 136.726V136.864C27.0423 137.171 26.8889 137.324 26.5823 137.324H24.4663C24.1596 137.324 24.0063 137.171 24.0063 136.864V136.588C24.0063 135.545 23.6536 134.687 22.9483 134.012C22.2736 133.337 21.3843 133 20.2803 133C19.1763 133 18.2869 133.353 17.6123 134.058C16.9683 134.733 16.6463 135.576 16.6463 136.588C16.6463 137.324 16.8456 137.953 17.2443 138.474C17.6429 138.965 18.1336 139.379 18.7163 139.716C19.2989 140.023 20.1116 140.406 21.1543 140.866C22.4116 141.418 23.4389 141.939 24.2363 142.43C25.0643 142.921 25.7849 143.611 26.3983 144.5C27.0116 145.389 27.3183 146.493 27.3183 147.812C27.3183 149.713 26.6896 151.231 25.4323 152.366C24.1749 153.501 22.4729 154.068 20.3263 154.068ZM30.2731 163.038C30.2117 163.038 30.1504 162.992 30.0891 162.9C30.0277 162.808 29.9971 162.701 29.9971 162.578V160.738C29.9971 160.431 30.1504 160.278 30.4571 160.278C31.4077 160.247 32.1437 160.063 32.6651 159.726C33.2171 159.389 33.6617 158.791 33.9991 157.932C34.3364 157.073 34.6737 155.755 35.0111 153.976C35.0417 153.915 35.0417 153.869 35.0111 153.838C35.0111 153.777 35.0111 153.731 35.0111 153.7L29.1691 131.068L29.1231 130.93C29.1231 130.685 29.2764 130.562 29.5831 130.562H32.0671C32.3737 130.562 32.5424 130.7 32.5731 130.976L36.6211 149.054C36.6517 149.146 36.6824 149.192 36.7131 149.192C36.7437 149.192 36.7744 149.146 36.8051 149.054L40.8071 130.976C40.8684 130.7 41.0371 130.562 41.3131 130.562L43.8891 130.608C44.0424 130.608 44.1497 130.654 44.2111 130.746C44.3031 130.838 44.3184 130.961 44.2571 131.114L37.8631 155.862C37.3111 157.917 36.7591 159.435 36.2071 160.416C35.6857 161.397 34.9957 162.072 34.1371 162.44C33.2784 162.839 32.0671 163.038 30.5031 163.038H30.2731ZM56.2706 130.24C58.1413 130.24 59.5826 130.884 60.5946 132.172C61.6373 133.46 62.1586 135.254 62.1586 137.554V153.378C62.1586 153.685 62.0053 153.838 61.6986 153.838H59.3526C59.0459 153.838 58.8926 153.685 58.8926 153.378V137.83C58.8926 136.327 58.5553 135.162 57.8806 134.334C57.2366 133.506 56.3319 133.092 55.1666 133.092C53.9399 133.092 52.9739 133.537 52.2686 134.426C51.5939 135.315 51.2566 136.527 51.2566 138.06V153.378C51.2566 153.685 51.1033 153.838 50.7966 153.838H48.4506C48.1439 153.838 47.9906 153.685 47.9906 153.378V131.022C47.9906 130.715 48.1439 130.562 48.4506 130.562H50.7966C51.1033 130.562 51.2566 130.715 51.2566 131.022V132.494C51.2566 132.555 51.2873 132.601 51.3486 132.632C51.4099 132.663 51.4559 132.632 51.4866 132.54C52.0386 131.773 52.7286 131.206 53.5566 130.838C54.4153 130.439 55.3199 130.24 56.2706 130.24ZM81.3787 142.982C81.3787 143.289 81.2254 143.442 80.9187 143.442H70.4307C70.308 143.442 70.2467 143.503 70.2467 143.626V146.984C70.2467 148.272 70.5994 149.33 71.3047 150.158C72.0407 150.955 72.9914 151.354 74.1567 151.354C75.138 151.354 75.966 151.063 76.6407 150.48C77.346 149.867 77.806 149.085 78.0207 148.134C78.1127 147.858 78.2814 147.72 78.5267 147.72L80.8267 147.812C80.9494 147.812 81.0567 147.858 81.1487 147.95C81.2407 148.042 81.2714 148.165 81.2407 148.318C80.9954 150.127 80.244 151.569 78.9867 152.642C77.76 153.685 76.15 154.206 74.1567 154.206C71.9794 154.206 70.2314 153.562 68.9127 152.274C67.6247 150.986 66.9807 149.284 66.9807 147.168V137.232C66.9807 135.147 67.6247 133.46 68.9127 132.172C70.2314 130.853 71.9794 130.194 74.1567 130.194C76.3647 130.194 78.1127 130.853 79.4007 132.172C80.7194 133.46 81.3787 135.147 81.3787 137.232V142.982ZM74.1567 133.046C72.9914 133.046 72.0407 133.46 71.3047 134.288C70.5994 135.085 70.2467 136.143 70.2467 137.462V140.544C70.2467 140.667 70.308 140.728 70.4307 140.728H77.9747C78.0974 140.728 78.1587 140.667 78.1587 140.544V137.462C78.1587 136.143 77.7907 135.085 77.0547 134.288C76.3187 133.46 75.3527 133.046 74.1567 133.046ZM94.0851 130.332C94.8518 130.332 95.5111 130.501 96.0631 130.838C96.2778 130.961 96.3544 131.16 96.2931 131.436L95.7411 133.828C95.7105 134.104 95.5265 134.196 95.1891 134.104C94.8211 133.92 94.3611 133.828 93.8091 133.828C93.5638 133.828 93.3798 133.843 93.2571 133.874C92.1531 133.935 91.2484 134.518 90.5431 135.622C89.8378 136.695 89.4851 138.014 89.4851 139.578V153.378C89.4851 153.685 89.3318 153.838 89.0251 153.838H86.6791C86.3724 153.838 86.2191 153.685 86.2191 153.378V131.022C86.2191 130.715 86.3724 130.562 86.6791 130.562H89.0251C89.3318 130.562 89.4851 130.715 89.4851 131.022V133.782C89.4851 133.874 89.5004 133.92 89.5311 133.92C89.5924 133.92 89.6538 133.889 89.7151 133.828C90.6045 131.497 92.0611 130.332 94.0851 130.332ZM110.006 131.022C110.006 130.715 110.159 130.562 110.466 130.562H112.812C113.119 130.562 113.272 130.715 113.272 131.022V153.378C113.272 156.659 112.505 159.143 110.972 160.83C109.469 162.547 106.939 163.329 103.382 163.176C103.075 163.145 102.922 162.977 102.922 162.67V160.692C102.922 160.385 103.075 160.232 103.382 160.232C105.835 160.293 107.553 159.726 108.534 158.53C109.515 157.365 110.006 155.555 110.006 153.102V151.722C110.006 151.661 109.975 151.615 109.914 151.584C109.883 151.553 109.837 151.569 109.776 151.63C109.255 152.397 108.58 152.979 107.752 153.378C106.955 153.777 106.096 153.976 105.176 153.976C103.244 153.976 101.711 153.332 100.576 152.044C99.4721 150.756 98.9201 149.054 98.9201 146.938V137.232C98.9201 135.085 99.4721 133.383 100.576 132.126C101.711 130.838 103.244 130.194 105.176 130.194C106.096 130.194 106.955 130.393 107.752 130.792C108.58 131.16 109.255 131.727 109.776 132.494C109.837 132.586 109.883 132.632 109.914 132.632C109.975 132.601 110.006 132.54 110.006 132.448V131.022ZM106.142 151.124C107.277 151.124 108.197 150.725 108.902 149.928C109.638 149.1 110.006 148.042 110.006 146.754V137.462C110.006 136.143 109.638 135.085 108.902 134.288C108.197 133.46 107.277 133.046 106.142 133.046C104.977 133.046 104.026 133.46 103.29 134.288C102.554 135.085 102.186 136.143 102.186 137.462V146.754C102.186 148.042 102.554 149.1 103.29 149.928C104.026 150.725 104.977 151.124 106.142 151.124ZM117.017 163.038C116.956 163.038 116.895 162.992 116.833 162.9C116.772 162.808 116.741 162.701 116.741 162.578V160.738C116.741 160.431 116.895 160.278 117.201 160.278C118.152 160.247 118.888 160.063 119.409 159.726C119.961 159.389 120.406 158.791 120.743 157.932C121.081 157.073 121.418 155.755 121.755 153.976C121.786 153.915 121.786 153.869 121.755 153.838C121.755 153.777 121.755 153.731 121.755 153.7L115.913 131.068L115.867 130.93C115.867 130.685 116.021 130.562 116.327 130.562H118.811C119.118 130.562 119.287 130.7 119.317 130.976L123.365 149.054C123.396 149.146 123.427 149.192 123.457 149.192C123.488 149.192 123.519 149.146 123.549 149.054L127.551 130.976C127.613 130.7 127.781 130.562 128.057 130.562L130.633 130.608C130.787 130.608 130.894 130.654 130.955 130.746C131.047 130.838 131.063 130.961 131.001 131.114L124.607 155.862C124.055 157.917 123.503 159.435 122.951 160.416C122.43 161.397 121.74 162.072 120.881 162.44C120.023 162.839 118.811 163.038 117.247 163.038H117.017ZM20.8251 187.54C20.8251 187.847 20.6718 188 20.3651 188H16.8691C16.7464 188 16.6851 188.061 16.6851 188.184V202.26C16.6851 203.671 16.9304 204.652 17.4211 205.204C17.9118 205.725 18.6631 205.971 19.6751 205.94H20.1351C20.4418 205.94 20.5951 206.093 20.5951 206.4V208.378C20.5951 208.685 20.4418 208.838 20.1351 208.838H18.9851C17.1758 208.838 15.7958 208.455 14.8451 207.688C13.9251 206.891 13.4651 205.403 13.4651 203.226V188.184C13.4651 188.061 13.4038 188 13.2811 188H11.4871C11.1804 188 11.0271 187.847 11.0271 187.54V186.022C11.0271 185.715 11.1804 185.562 11.4871 185.562H13.2811C13.4038 185.562 13.4651 185.501 13.4651 185.378V180.226C13.4651 179.919 13.6184 179.766 13.9251 179.766H16.2251C16.5318 179.766 16.6851 179.919 16.6851 180.226V185.378C16.6851 185.501 16.7464 185.562 16.8691 185.562H20.3651C20.6718 185.562 20.8251 185.715 20.8251 186.022V187.54ZM33.1808 185.24C35.0514 185.24 36.4928 185.884 37.5048 187.172C38.5474 188.46 39.0688 190.254 39.0688 192.554V208.378C39.0688 208.685 38.9154 208.838 38.6088 208.838H36.2628C35.9561 208.838 35.8028 208.685 35.8028 208.378V192.83C35.8028 191.327 35.4654 190.162 34.7908 189.334C34.1468 188.506 33.2421 188.092 32.0768 188.092C30.8501 188.092 29.8841 188.537 29.1788 189.426C28.5041 190.315 28.1668 191.527 28.1668 193.06V208.378C28.1668 208.685 28.0134 208.838 27.7068 208.838H25.3608C25.0541 208.838 24.9008 208.685 24.9008 208.378V177.098C24.9008 176.791 25.0541 176.638 25.3608 176.638H27.7068C28.0134 176.638 28.1668 176.791 28.1668 177.098V187.494C28.1668 187.555 28.1974 187.601 28.2588 187.632C28.3201 187.663 28.3661 187.632 28.3968 187.54C28.9488 186.773 29.6388 186.206 30.4668 185.838C31.3254 185.439 32.2301 185.24 33.1808 185.24ZM52.2629 185.332C53.0295 185.332 53.6889 185.501 54.2409 185.838C54.4555 185.961 54.5322 186.16 54.4709 186.436L53.9189 188.828C53.8882 189.104 53.7042 189.196 53.3669 189.104C52.9989 188.92 52.5389 188.828 51.9869 188.828C51.7415 188.828 51.5575 188.843 51.4349 188.874C50.3309 188.935 49.4262 189.518 48.7209 190.622C48.0155 191.695 47.6629 193.014 47.6629 194.578V208.378C47.6629 208.685 47.5095 208.838 47.2029 208.838H44.8569C44.5502 208.838 44.3969 208.685 44.3969 208.378V186.022C44.3969 185.715 44.5502 185.562 44.8569 185.562H47.2029C47.5095 185.562 47.6629 185.715 47.6629 186.022V188.782C47.6629 188.874 47.6782 188.92 47.7089 188.92C47.7702 188.92 47.8315 188.889 47.8929 188.828C48.7822 186.497 50.2389 185.332 52.2629 185.332ZM64.3648 209.206C62.1568 209.206 60.3935 208.562 59.0748 207.274C57.7868 205.986 57.1428 204.284 57.1428 202.168V192.278C57.1428 190.193 57.8021 188.491 59.1208 187.172C60.4395 185.853 62.1875 185.194 64.3648 185.194C66.5728 185.194 68.3361 185.853 69.6548 187.172C70.9735 188.491 71.6328 190.193 71.6328 192.278V202.168C71.6328 204.284 70.9735 205.986 69.6548 207.274C68.3361 208.562 66.5728 209.206 64.3648 209.206ZM64.3648 206.308C65.5301 206.308 66.4808 205.909 67.2168 205.112C67.9835 204.315 68.3668 203.257 68.3668 201.938V192.462C68.3668 191.143 67.9835 190.085 67.2168 189.288C66.4808 188.46 65.5301 188.046 64.3648 188.046C63.1995 188.046 62.2488 188.46 61.5128 189.288C60.7768 190.085 60.4088 191.143 60.4088 192.462V201.938C60.4088 203.257 60.7768 204.315 61.5128 205.112C62.2488 205.909 63.1995 206.308 64.3648 206.308ZM87.3666 186.022C87.3666 185.715 87.5199 185.562 87.8266 185.562H90.1726C90.4793 185.562 90.6326 185.715 90.6326 186.022V208.378C90.6326 208.685 90.4793 208.838 90.1726 208.838H87.8266C87.5199 208.838 87.3666 208.685 87.3666 208.378V206.814C87.3666 206.722 87.3359 206.676 87.2746 206.676C87.2439 206.676 87.1979 206.707 87.1366 206.768C86.1859 208.363 84.6526 209.16 82.5366 209.16C80.6966 209.16 79.2246 208.608 78.1206 207.504C77.0473 206.369 76.5106 204.667 76.5106 202.398V186.022C76.5106 185.715 76.6639 185.562 76.9706 185.562H79.3166C79.6233 185.562 79.7766 185.715 79.7766 186.022V201.662C79.7766 203.195 80.0833 204.361 80.6966 205.158C81.3406 205.925 82.2606 206.308 83.4566 206.308C84.6833 206.308 85.6339 205.863 86.3086 204.974C87.0139 204.085 87.3666 202.873 87.3666 201.34V186.022ZM106.817 186.022C106.817 185.715 106.97 185.562 107.277 185.562H109.623C109.929 185.562 110.083 185.715 110.083 186.022V208.378C110.083 211.659 109.316 214.143 107.783 215.83C106.28 217.547 103.75 218.329 100.193 218.176C99.886 218.145 99.7327 217.977 99.7327 217.67V215.692C99.7327 215.385 99.886 215.232 100.193 215.232C102.646 215.293 104.363 214.726 105.345 213.53C106.326 212.365 106.817 210.555 106.817 208.102V206.722C106.817 206.661 106.786 206.615 106.725 206.584C106.694 206.553 106.648 206.569 106.587 206.63C106.065 207.397 105.391 207.979 104.563 208.378C103.765 208.777 102.907 208.976 101.987 208.976C100.055 208.976 98.5214 208.332 97.3867 207.044C96.2827 205.756 95.7307 204.054 95.7307 201.938V192.232C95.7307 190.085 96.2827 188.383 97.3867 187.126C98.5214 185.838 100.055 185.194 101.987 185.194C102.907 185.194 103.765 185.393 104.563 185.792C105.391 186.16 106.065 186.727 106.587 187.494C106.648 187.586 106.694 187.632 106.725 187.632C106.786 187.601 106.817 187.54 106.817 187.448V186.022ZM102.953 206.124C104.087 206.124 105.007 205.725 105.713 204.928C106.449 204.1 106.817 203.042 106.817 201.754V192.462C106.817 191.143 106.449 190.085 105.713 189.288C105.007 188.46 104.087 188.046 102.953 188.046C101.787 188.046 100.837 188.46 100.101 189.288C99.3647 190.085 98.9967 191.143 98.9967 192.462V201.754C98.9967 203.042 99.3647 204.1 100.101 204.928C100.837 205.725 101.787 206.124 102.953 206.124ZM123.519 185.24C125.389 185.24 126.831 185.884 127.843 187.172C128.885 188.46 129.407 190.254 129.407 192.554V208.378C129.407 208.685 129.253 208.838 128.947 208.838H126.601C126.294 208.838 126.141 208.685 126.141 208.378V192.83C126.141 191.327 125.803 190.162 125.129 189.334C124.485 188.506 123.58 188.092 122.415 188.092C121.188 188.092 120.222 188.537 119.517 189.426C118.842 190.315 118.505 191.527 118.505 193.06V208.378C118.505 208.685 118.351 208.838 118.045 208.838H115.699C115.392 208.838 115.239 208.685 115.239 208.378V177.098C115.239 176.791 115.392 176.638 115.699 176.638H118.045C118.351 176.638 118.505 176.791 118.505 177.098V187.494C118.505 187.555 118.535 187.601 118.597 187.632C118.658 187.663 118.704 187.632 118.735 187.54C119.287 186.773 119.977 186.206 120.805 185.838C121.663 185.439 122.568 185.24 123.519 185.24Z" fill="#023246"/>
<path opacity="0.1" d="M234 27.0338C234 26.6231 234.117 26.3004 234.352 26.0658C234.587 25.8311 234.909 25.7138 235.32 25.7138L294.28 25.7138C294.691 25.7138 295.013 25.8311 295.248 26.0658C295.483 26.3004 295.6 26.6231 295.6 27.0338L295.6 44.3698C295.6 48.2418 294.867 51.6444 293.4 54.5778C291.933 57.5698 289.851 59.8871 287.152 61.5298C284.512 63.1724 281.461 63.9938 278 63.9938L251.6 63.9938C248.139 63.9938 245.059 63.1724 242.36 61.5298C239.72 59.8871 237.667 57.5698 236.2 54.5778C234.733 51.6444 234 48.2418 234 44.3698L234 27.0338ZM248.696 42.2578C248.344 42.2578 248.168 42.4338 248.168 42.7858L248.256 44.0178C248.315 44.9564 248.755 45.7484 249.576 46.3938C250.397 47.0391 251.453 47.3911 252.744 47.4498L276.944 47.4498C278.293 47.4498 279.379 47.1271 280.2 46.4818C281.021 45.8364 281.432 44.9858 281.432 43.9298L281.432 42.7858C281.432 42.4338 281.256 42.2578 280.904 42.2578L248.696 42.2578ZM254.064 104.597C253.653 104.597 253.331 104.48 253.096 104.245C252.861 104.01 252.744 103.688 252.744 103.277L252.744 84.6208C252.744 84.2688 252.568 84.0928 252.216 84.0928L250.28 84.0928C249.459 84.0928 248.784 84.2688 248.256 84.6208C247.728 85.0315 247.464 85.5302 247.464 86.1168C247.464 86.7035 247.669 87.1435 248.08 87.4368C248.491 87.7888 249.019 88.0235 249.664 88.1408C250.485 88.4342 250.867 88.9328 250.808 89.6368L249.928 103.101C249.811 103.981 249.341 104.392 248.52 104.333C243.357 104.04 239.515 102.397 236.992 99.4048C234.528 96.4715 233.296 92.0422 233.296 86.1168C233.296 80.2502 234.645 75.6742 237.344 72.3888C240.101 69.1622 243.973 67.5488 248.96 67.5488L264.8 67.5488C269.552 67.5488 273.336 69.1915 276.152 72.4768C279.027 75.7622 280.464 80.3088 280.464 86.1168C280.464 91.9248 279.027 96.4422 276.152 99.6688C273.336 102.954 269.552 104.597 264.8 104.597L254.064 104.597ZM266.296 86.1168C266.296 85.5302 266.032 85.0315 265.504 84.6208C264.976 84.2688 264.301 84.0928 263.48 84.0928L261.368 84.0928C261.016 84.0928 260.84 84.2688 260.84 84.6208L260.84 87.5248C260.84 87.8768 261.016 88.0528 261.368 88.0528L263.48 88.0528C264.301 88.0528 264.976 87.8768 265.504 87.5248C266.032 87.1728 266.296 86.7035 266.296 86.1168ZM233.296 125.636C233.296 120.004 234.616 115.486 237.256 112.084C239.896 108.74 243.387 107.068 247.728 107.068L247.992 107.068C248.403 107.068 248.725 107.185 248.96 107.42C249.195 107.654 249.312 107.977 249.312 108.388L249.312 121.588C249.312 121.998 249.195 122.321 248.96 122.556C248.784 122.79 248.52 122.908 248.168 122.908C247.288 122.908 246.613 123.172 246.144 123.7C245.675 124.228 245.44 124.814 245.44 125.46C245.44 125.988 245.587 126.398 245.88 126.692C246.232 126.985 246.643 127.132 247.112 127.132C247.992 127.132 248.637 126.692 249.048 125.812C249.517 124.932 250.045 123.465 250.632 121.412C250.808 120.708 251.043 119.886 251.336 118.948C252.333 115.838 253.947 113.169 256.176 110.94C258.464 108.769 261.573 107.684 265.504 107.684C270.08 107.684 273.717 109.268 276.416 112.436C279.115 115.604 280.464 119.769 280.464 124.932C280.464 130.329 278.997 134.641 276.064 137.868C273.131 141.094 269.259 142.708 264.448 142.708C264.213 142.708 264.008 142.59 263.832 142.356C263.656 142.121 263.568 141.798 263.568 141.388L263.568 128.628C263.568 128.217 263.685 127.894 263.92 127.66C264.155 127.425 264.477 127.308 264.888 127.308L265.416 127.308C266.12 127.308 266.677 127.102 267.088 126.692C267.499 126.34 267.704 125.9 267.704 125.372C267.704 124.785 267.469 124.316 267 123.964C266.531 123.67 266.003 123.524 265.416 123.524C264.243 123.524 263.333 124.081 262.688 125.196C262.043 126.369 261.456 127.865 260.928 129.684C259.696 133.908 258.112 137.31 256.176 139.892C254.24 142.473 251.277 143.764 247.288 143.764C242.947 143.764 239.515 142.092 236.992 138.748C234.528 135.462 233.296 131.092 233.296 125.636ZM282.84 154.454C282.84 152.048 283.603 150.054 285.128 148.47C286.712 146.944 288.707 146.182 291.112 146.182C293.576 146.182 295.571 146.944 297.096 148.47C298.621 150.054 299.384 152.048 299.384 154.454C299.384 156.859 298.621 158.824 297.096 160.35C295.571 161.934 293.576 162.726 291.112 162.726C288.765 162.726 286.8 161.934 285.216 160.35C283.632 158.824 282.84 156.859 282.84 154.454ZM234 147.678C234 147.267 234.117 146.944 234.352 146.71C234.587 146.475 234.909 146.358 235.32 146.358L278.44 146.358C278.851 146.358 279.173 146.475 279.408 146.71C279.643 146.944 279.76 147.267 279.76 147.678L279.76 161.582C279.76 161.992 279.643 162.315 279.408 162.55C279.173 162.784 278.851 162.902 278.44 162.902L235.32 162.902C234.909 162.902 234.587 162.784 234.352 162.55C234.117 162.315 234 161.992 234 161.582L234 147.678ZM278.44 186.449C278.851 186.449 279.173 186.567 279.408 186.801C279.643 187.036 279.76 187.359 279.76 187.769L279.76 201.673C279.76 202.084 279.643 202.407 279.408 202.641C279.173 202.876 278.851 202.993 278.44 202.993L236.992 202.993C232.592 202.993 228.837 202.348 225.728 201.057C222.619 199.825 220.155 197.508 218.336 194.105C216.459 190.703 215.52 185.921 215.52 179.761C215.52 177.473 215.579 175.684 215.696 174.393C215.696 173.513 216.136 173.073 217.016 173.073L228.72 173.073C229.659 173.073 230.069 173.543 229.952 174.481L229.864 176.681C229.864 179.967 230.333 182.284 231.272 183.633C232.152 185.041 233.472 185.921 235.232 186.273C235.408 186.273 235.555 186.068 235.672 185.657C235.789 185.305 235.789 185.041 235.672 184.865C234.088 183.223 233.296 180.964 233.296 178.089C233.296 173.865 234.645 170.785 237.344 168.849C240.043 166.972 243.915 166.033 248.96 166.033L264.8 166.033C270.021 166.033 273.923 167.001 276.504 168.937C279.144 170.873 280.464 173.924 280.464 178.089C280.464 181.492 279.173 184.073 276.592 185.833C276.357 185.951 276.24 186.068 276.24 186.185C276.299 186.361 276.445 186.449 276.68 186.449L278.44 186.449ZM247.464 184.425C247.464 185.012 247.728 185.481 248.256 185.833C248.784 186.244 249.459 186.449 250.28 186.449L263.48 186.449C264.301 186.449 264.976 186.244 265.504 185.833C266.032 185.481 266.296 185.012 266.296 184.425C266.296 183.839 266.032 183.369 265.504 183.017C264.976 182.724 264.301 182.577 263.48 182.577L250.28 182.577C249.459 182.577 248.784 182.724 248.256 183.017C247.728 183.369 247.464 183.839 247.464 184.425ZM280.464 231.326C280.464 239.656 275.184 243.822 264.624 243.822L235.32 243.822C234.909 243.822 234.587 243.704 234.352 243.47C234.117 243.235 234 242.912 234 242.502L234 228.598C234 228.187 234.117 227.864 234.352 227.63C234.587 227.395 234.909 227.278 235.32 227.278L263.48 227.278C265.357 227.278 266.296 226.662 266.296 225.43C266.296 224.08 265.357 223.406 263.48 223.406L235.32 223.406C234.909 223.406 234.587 223.288 234.352 223.054C234.117 222.819 234 222.496 234 222.086L234 208.182C234 207.771 234.117 207.448 234.352 207.214C234.587 206.979 234.909 206.862 235.32 206.862L278.44 206.862C278.851 206.862 279.173 206.979 279.408 207.214C279.643 207.448 279.76 207.771 279.76 208.182L279.76 222.086C279.76 222.496 279.643 222.819 279.408 223.054C279.173 223.288 278.851 223.406 278.44 223.406L277.12 223.406C277.003 223.406 276.944 223.464 276.944 223.582C276.944 223.875 277.208 224.227 277.736 224.638C279.555 226.339 280.464 228.568 280.464 231.326Z" fill="#333333"/>
<rect x="196.5" y="0.5" width="119" height="267" stroke="#023246"/>
</svg>
