<svg width="312" height="319" viewBox="0 0 312 319" fill="none" xmlns="http://www.w3.org/2000/svg">
<mask id="mask0" mask-type="alpha" maskUnits="userSpaceOnUse" x="0" y="0" width="312" height="319">
<rect width="312" height="319" fill="#C4C4C4"/>
</mask>
<g mask="url(#mask0)">
<rect opacity="0.1" width="180" height="319" fill="#F6F6F6"/>
<path d="M28.2229 112.424C25.5022 112.424 23.3115 111.594 21.6509 109.933C20.0255 108.272 19.2129 106.046 19.2129 103.255V83.592C19.2129 80.836 20.0255 78.6277 21.6509 76.967C23.3115 75.3063 25.5022 74.476 28.2229 74.476C30.9789 74.476 33.1695 75.3063 34.7949 76.967C36.4555 78.5923 37.2859 80.8007 37.2859 83.592V84.493C37.2859 84.8463 37.1092 85.023 36.7559 85.023L33.9999 85.182C33.6465 85.182 33.4699 85.0053 33.4699 84.652V83.327C33.4699 81.6663 32.9929 80.3237 32.0389 79.299C31.0849 78.2743 29.8129 77.762 28.2229 77.762C26.6682 77.762 25.3962 78.2743 24.4069 79.299C23.4529 80.3237 22.9759 81.6663 22.9759 83.327V103.573C22.9759 105.234 23.4529 106.576 24.4069 107.601C25.3962 108.626 26.6682 109.138 28.2229 109.138C29.8129 109.138 31.0849 108.626 32.0389 107.601C32.9929 106.576 33.4699 105.234 33.4699 103.573V102.248C33.4699 101.895 33.6465 101.718 33.9999 101.718L36.7559 101.877C37.1092 101.877 37.2859 102.054 37.2859 102.407V103.255C37.2859 106.046 36.4555 108.272 34.7949 109.933C33.1342 111.594 30.9435 112.424 28.2229 112.424ZM52.2472 84.917C53.1305 84.917 53.8902 85.1113 54.5262 85.5C54.7735 85.6413 54.8618 85.871 54.7912 86.189L54.1552 88.945C54.1198 89.263 53.9078 89.369 53.5192 89.263C53.0952 89.051 52.5652 88.945 51.9292 88.945C51.6465 88.945 51.4345 88.9627 51.2932 88.998C50.0212 89.0687 48.9788 89.74 48.1662 91.012C47.3535 92.2487 46.9472 93.768 46.9472 95.57V111.47C46.9472 111.823 46.7705 112 46.4172 112H43.7142C43.3608 112 43.1842 111.823 43.1842 111.47V85.712C43.1842 85.3587 43.3608 85.182 43.7142 85.182H46.4172C46.7705 85.182 46.9472 85.3587 46.9472 85.712V88.892C46.9472 88.998 46.9648 89.051 47.0002 89.051C47.0708 89.051 47.1415 89.0157 47.2122 88.945C48.2368 86.2597 49.9152 84.917 52.2472 84.917ZM74.4587 99.492C74.4587 99.8453 74.2821 100.022 73.9287 100.022H61.8447C61.7034 100.022 61.6327 100.093 61.6327 100.234V104.103C61.6327 105.587 62.0391 106.806 62.8517 107.76C63.6997 108.679 64.7951 109.138 66.1377 109.138C67.2684 109.138 68.2224 108.802 68.9997 108.131C69.8124 107.424 70.3424 106.523 70.5897 105.428C70.6957 105.11 70.8901 104.951 71.1727 104.951L73.8227 105.057C73.9641 105.057 74.0877 105.11 74.1937 105.216C74.2997 105.322 74.3351 105.463 74.2997 105.64C74.0171 107.725 73.1514 109.385 71.7027 110.622C70.2894 111.823 68.4344 112.424 66.1377 112.424C63.6291 112.424 61.6151 111.682 60.0957 110.198C58.6117 108.714 57.8697 106.753 57.8697 104.315V92.867C57.8697 90.4643 58.6117 88.521 60.0957 87.037C61.6151 85.5177 63.6291 84.758 66.1377 84.758C68.6817 84.758 70.6957 85.5177 72.1797 87.037C73.6991 88.521 74.4587 90.4643 74.4587 92.867V99.492ZM66.1377 88.044C64.7951 88.044 63.6997 88.521 62.8517 89.475C62.0391 90.3937 61.6327 91.6127 61.6327 93.132V96.683C61.6327 96.8243 61.7034 96.895 61.8447 96.895H70.5367C70.6781 96.895 70.7487 96.8243 70.7487 96.683V93.132C70.7487 91.6127 70.3247 90.3937 69.4767 89.475C68.6287 88.521 67.5157 88.044 66.1377 88.044ZM87.6727 84.758C90.146 84.758 92.1247 85.5707 93.6087 87.196C95.0927 88.786 95.8347 90.9237 95.8347 93.609V111.47C95.8347 111.823 95.658 112 95.3047 112H92.6017C92.2484 112 92.0717 111.823 92.0717 111.47V109.88C92.0717 109.809 92.0364 109.774 91.9657 109.774C91.9304 109.739 91.8774 109.756 91.8067 109.827C90.4994 111.558 88.5384 112.424 85.9237 112.424C83.9804 112.424 82.2844 111.876 80.8357 110.781C79.4224 109.65 78.7157 107.672 78.7157 104.845C78.7157 101.842 79.5814 99.651 81.3127 98.273C83.044 96.8597 85.323 96.153 88.1497 96.153H91.8597C92.001 96.153 92.0717 96.0823 92.0717 95.941V93.874C92.0717 92.1073 91.6654 90.694 90.8527 89.634C90.04 88.574 88.9447 88.044 87.5667 88.044C86.5067 88.044 85.588 88.3973 84.8107 89.104C84.0687 89.8107 83.627 90.7117 83.4857 91.807C83.4857 92.1603 83.309 92.337 82.9557 92.337L79.9877 92.284C79.811 92.284 79.6697 92.231 79.5637 92.125C79.493 92.019 79.4754 91.8953 79.5107 91.754C79.6874 89.6693 80.5354 87.991 82.0547 86.719C83.574 85.4117 85.4467 84.758 87.6727 84.758ZM86.7187 109.138C88.1674 109.138 89.4217 108.679 90.4817 107.76C91.5417 106.806 92.0717 105.499 92.0717 103.838V99.386C92.0717 99.2447 92.001 99.174 91.8597 99.174H88.0967C86.4007 99.174 85.058 99.6333 84.0687 100.552C83.0794 101.435 82.5847 102.76 82.5847 104.527C82.5847 106.082 82.9557 107.248 83.6977 108.025C84.475 108.767 85.482 109.138 86.7187 109.138ZM111.156 87.461C111.156 87.8143 110.98 87.991 110.626 87.991H106.598C106.457 87.991 106.386 88.0617 106.386 88.203V104.421C106.386 106.046 106.669 107.177 107.234 107.813C107.8 108.414 108.665 108.696 109.831 108.661H110.361C110.715 108.661 110.891 108.838 110.891 109.191V111.47C110.891 111.823 110.715 112 110.361 112H109.036C106.952 112 105.362 111.558 104.266 110.675C103.206 109.756 102.676 108.043 102.676 105.534V88.203C102.676 88.0617 102.606 87.991 102.464 87.991H100.397C100.044 87.991 99.8673 87.8143 99.8673 87.461V85.712C99.8673 85.3587 100.044 85.182 100.397 85.182H102.464C102.606 85.182 102.676 85.1113 102.676 84.97V79.034C102.676 78.6807 102.853 78.504 103.206 78.504H105.856C106.21 78.504 106.386 78.6807 106.386 79.034V84.97C106.386 85.1113 106.457 85.182 106.598 85.182H110.626C110.98 85.182 111.156 85.3587 111.156 85.712V87.461ZM118.131 80.306C117.248 80.306 116.523 80.0233 115.958 79.458C115.428 78.8927 115.163 78.186 115.163 77.338C115.163 76.4547 115.428 75.748 115.958 75.218C116.523 74.6527 117.248 74.37 118.131 74.37C118.979 74.37 119.668 74.6527 120.198 75.218C120.763 75.748 121.046 76.4547 121.046 77.338C121.046 78.186 120.763 78.8927 120.198 79.458C119.668 80.0233 118.979 80.306 118.131 80.306ZM116.806 112C116.453 112 116.276 111.823 116.276 111.47V85.712C116.276 85.3587 116.453 85.182 116.806 85.182H119.509C119.862 85.182 120.039 85.3587 120.039 85.712V111.47C120.039 111.823 119.862 112 119.509 112H116.806ZM136.417 84.811C138.572 84.811 140.233 85.553 141.399 87.037C142.6 88.521 143.201 90.588 143.201 93.238V111.47C143.201 111.823 143.024 112 142.671 112H139.968C139.614 112 139.438 111.823 139.438 111.47V93.556C139.438 91.8247 139.049 90.482 138.272 89.528C137.53 88.574 136.487 88.097 135.145 88.097C133.731 88.097 132.618 88.6093 131.806 89.634C131.028 90.6587 130.64 92.0543 130.64 93.821V111.47C130.64 111.823 130.463 112 130.11 112H127.407C127.053 112 126.877 111.823 126.877 111.47V85.712C126.877 85.3587 127.053 85.182 127.407 85.182H130.11C130.463 85.182 130.64 85.3587 130.64 85.712V87.408C130.64 87.4787 130.675 87.5317 130.746 87.567C130.816 87.6023 130.869 87.567 130.905 87.461C131.541 86.5777 132.336 85.924 133.29 85.5C134.279 85.0407 135.321 84.811 136.417 84.811ZM161.529 85.712C161.529 85.3587 161.706 85.182 162.059 85.182H164.762C165.116 85.182 165.292 85.3587 165.292 85.712V111.47C165.292 115.251 164.409 118.113 162.642 120.056C160.911 122.035 157.996 122.936 153.897 122.759C153.544 122.724 153.367 122.529 153.367 122.176V119.897C153.367 119.544 153.544 119.367 153.897 119.367C156.724 119.438 158.703 118.784 159.833 117.406C160.964 116.063 161.529 113.979 161.529 111.152V109.562C161.529 109.491 161.494 109.438 161.423 109.403C161.388 109.368 161.335 109.385 161.264 109.456C160.664 110.339 159.886 111.011 158.932 111.47C158.014 111.929 157.024 112.159 155.964 112.159C153.738 112.159 151.972 111.417 150.664 109.933C149.392 108.449 148.756 106.488 148.756 104.05V92.867C148.756 90.3937 149.392 88.4327 150.664 86.984C151.972 85.5 153.738 84.758 155.964 84.758C157.024 84.758 158.014 84.9877 158.932 85.447C159.886 85.871 160.664 86.5247 161.264 87.408C161.335 87.514 161.388 87.567 161.423 87.567C161.494 87.5317 161.529 87.461 161.529 87.355V85.712ZM157.077 108.873C158.385 108.873 159.445 108.414 160.257 107.495C161.105 106.541 161.529 105.322 161.529 103.838V93.132C161.529 91.6127 161.105 90.3937 160.257 89.475C159.445 88.521 158.385 88.044 157.077 88.044C155.735 88.044 154.639 88.521 153.791 89.475C152.943 90.3937 152.519 91.6127 152.519 93.132V103.838C152.519 105.322 152.943 106.541 153.791 107.495C154.639 108.414 155.735 108.873 157.077 108.873ZM39.4145 176.265C36.9765 176.265 35.0155 175.647 33.5315 174.41C32.0829 173.138 31.3585 171.46 31.3585 169.375V169.004C31.3585 168.651 31.5352 168.474 31.8885 168.474H34.4325C34.7859 168.474 34.9625 168.651 34.9625 169.004V169.322C34.9625 170.453 35.3689 171.407 36.1815 172.184C37.0295 172.961 38.1249 173.35 39.4675 173.35C40.7395 173.35 41.7642 172.961 42.5415 172.184C43.3189 171.407 43.7075 170.417 43.7075 169.216C43.7075 168.297 43.4602 167.538 42.9655 166.937C42.4709 166.301 41.8879 165.806 41.2165 165.453C40.5805 165.1 39.6089 164.64 38.3015 164.075C36.9235 163.51 35.7752 162.962 34.8565 162.432C33.9732 161.867 33.1959 161.089 32.5245 160.1C31.8885 159.075 31.5705 157.786 31.5705 156.231C31.5705 153.97 32.2595 152.185 33.6375 150.878C35.0509 149.571 36.9412 148.917 39.3085 148.917C41.7112 148.917 43.6192 149.588 45.0325 150.931C46.4459 152.274 47.1525 154.058 47.1525 156.284V156.443C47.1525 156.796 46.9759 156.973 46.6225 156.973H44.1845C43.8312 156.973 43.6545 156.796 43.6545 156.443V156.125C43.6545 154.924 43.2482 153.934 42.4355 153.157C41.6582 152.38 40.6335 151.991 39.3615 151.991C38.0895 151.991 37.0649 152.397 36.2875 153.21C35.5455 153.987 35.1745 154.959 35.1745 156.125C35.1745 156.973 35.4042 157.697 35.8635 158.298C36.3229 158.863 36.8882 159.34 37.5595 159.729C38.2309 160.082 39.1672 160.524 40.3685 161.054C41.8172 161.69 43.0009 162.291 43.9195 162.856C44.8735 163.421 45.7039 164.216 46.4105 165.241C47.1172 166.266 47.4705 167.538 47.4705 169.057C47.4705 171.248 46.7462 172.997 45.2975 174.304C43.8489 175.611 41.8879 176.265 39.4145 176.265ZM50.875 186.6C50.8043 186.6 50.7336 186.547 50.663 186.441C50.5923 186.335 50.557 186.211 50.557 186.07V183.95C50.557 183.597 50.7336 183.42 51.087 183.42C52.1823 183.385 53.0303 183.173 53.631 182.784C54.267 182.395 54.7793 181.706 55.168 180.717C55.5566 179.728 55.9453 178.208 56.334 176.159C56.3693 176.088 56.3693 176.035 56.334 176C56.334 175.929 56.334 175.876 56.334 175.841L49.603 149.765L49.55 149.606C49.55 149.323 49.7266 149.182 50.08 149.182H52.942C53.2953 149.182 53.4896 149.341 53.525 149.659L58.189 170.488C58.2243 170.594 58.2596 170.647 58.295 170.647C58.3303 170.647 58.3656 170.594 58.401 170.488L63.012 149.659C63.0826 149.341 63.277 149.182 63.595 149.182L66.563 149.235C66.7396 149.235 66.8633 149.288 66.934 149.394C67.04 149.5 67.0576 149.641 66.987 149.818L59.62 178.332C58.984 180.699 58.348 182.448 57.712 183.579C57.1113 184.71 56.3163 185.487 55.327 185.911C54.3376 186.37 52.942 186.6 51.14 186.6H50.875ZM80.8287 148.811C82.984 148.811 84.6447 149.553 85.8107 151.037C87.012 152.521 87.6127 154.588 87.6127 157.238V175.47C87.6127 175.823 87.436 176 87.0827 176H84.3797C84.0263 176 83.8497 175.823 83.8497 175.47V157.556C83.8497 155.825 83.461 154.482 82.6837 153.528C81.9417 152.574 80.8993 152.097 79.5567 152.097C78.1433 152.097 77.0303 152.609 76.2177 153.634C75.4403 154.659 75.0517 156.054 75.0517 157.821V175.47C75.0517 175.823 74.875 176 74.5217 176H71.8187C71.4653 176 71.2887 175.823 71.2887 175.47V149.712C71.2887 149.359 71.4653 149.182 71.8187 149.182H74.5217C74.875 149.182 75.0517 149.359 75.0517 149.712V151.408C75.0517 151.479 75.087 151.532 75.1577 151.567C75.2283 151.602 75.2813 151.567 75.3167 151.461C75.9527 150.578 76.7477 149.924 77.7017 149.5C78.691 149.041 79.7333 148.811 80.8287 148.811ZM109.758 163.492C109.758 163.845 109.581 164.022 109.228 164.022H97.1436C97.0022 164.022 96.9316 164.093 96.9316 164.234V168.103C96.9316 169.587 97.3379 170.806 98.1506 171.76C98.9986 172.679 100.094 173.138 101.437 173.138C102.567 173.138 103.521 172.802 104.299 172.131C105.111 171.424 105.641 170.523 105.889 169.428C105.995 169.11 106.189 168.951 106.472 168.951L109.122 169.057C109.263 169.057 109.387 169.11 109.493 169.216C109.599 169.322 109.634 169.463 109.599 169.64C109.316 171.725 108.45 173.385 107.002 174.622C105.588 175.823 103.733 176.424 101.437 176.424C98.9279 176.424 96.9139 175.682 95.3946 174.198C93.9106 172.714 93.1686 170.753 93.1686 168.315V156.867C93.1686 154.464 93.9106 152.521 95.3946 151.037C96.9139 149.518 98.9279 148.758 101.437 148.758C103.981 148.758 105.995 149.518 107.479 151.037C108.998 152.521 109.758 154.464 109.758 156.867V163.492ZM101.437 152.044C100.094 152.044 98.9986 152.521 98.1506 153.475C97.3379 154.394 96.9316 155.613 96.9316 157.132V160.683C96.9316 160.824 97.0022 160.895 97.1436 160.895H105.836C105.977 160.895 106.048 160.824 106.048 160.683V157.132C106.048 155.613 105.624 154.394 104.776 153.475C103.928 152.521 102.815 152.044 101.437 152.044ZM124.398 148.917C125.281 148.917 126.041 149.111 126.677 149.5C126.924 149.641 127.012 149.871 126.942 150.189L126.306 152.945C126.27 153.263 126.058 153.369 125.67 153.263C125.246 153.051 124.716 152.945 124.08 152.945C123.797 152.945 123.585 152.963 123.444 152.998C122.172 153.069 121.129 153.74 120.317 155.012C119.504 156.249 119.098 157.768 119.098 159.57V175.47C119.098 175.823 118.921 176 118.568 176H115.865C115.511 176 115.335 175.823 115.335 175.47V149.712C115.335 149.359 115.511 149.182 115.865 149.182H118.568C118.921 149.182 119.098 149.359 119.098 149.712V152.892C119.098 152.998 119.115 153.051 119.151 153.051C119.221 153.051 119.292 153.016 119.363 152.945C120.387 150.26 122.066 148.917 124.398 148.917ZM142.741 149.712C142.741 149.359 142.918 149.182 143.271 149.182H145.974C146.328 149.182 146.504 149.359 146.504 149.712V175.47C146.504 179.251 145.621 182.113 143.854 184.056C142.123 186.035 139.208 186.936 135.109 186.759C134.756 186.724 134.579 186.529 134.579 186.176V183.897C134.579 183.544 134.756 183.367 135.109 183.367C137.936 183.438 139.915 182.784 141.045 181.406C142.176 180.063 142.741 177.979 142.741 175.152V173.562C142.741 173.491 142.706 173.438 142.635 173.403C142.6 173.368 142.547 173.385 142.476 173.456C141.876 174.339 141.098 175.011 140.144 175.47C139.226 175.929 138.236 176.159 137.176 176.159C134.95 176.159 133.184 175.417 131.876 173.933C130.604 172.449 129.968 170.488 129.968 168.05V156.867C129.968 154.394 130.604 152.433 131.876 150.984C133.184 149.5 134.95 148.758 137.176 148.758C138.236 148.758 139.226 148.988 140.144 149.447C141.098 149.871 141.876 150.525 142.476 151.408C142.547 151.514 142.6 151.567 142.635 151.567C142.706 151.532 142.741 151.461 142.741 151.355V149.712ZM138.289 172.873C139.597 172.873 140.657 172.414 141.469 171.495C142.317 170.541 142.741 169.322 142.741 167.838V157.132C142.741 155.613 142.317 154.394 141.469 153.475C140.657 152.521 139.597 152.044 138.289 152.044C136.947 152.044 135.851 152.521 135.003 153.475C134.155 154.394 133.731 155.613 133.731 157.132V167.838C133.731 169.322 134.155 170.541 135.003 171.495C135.851 172.414 136.947 172.873 138.289 172.873ZM150.819 186.6C150.749 186.6 150.678 186.547 150.607 186.441C150.537 186.335 150.501 186.211 150.501 186.07V183.95C150.501 183.597 150.678 183.42 151.031 183.42C152.127 183.385 152.975 183.173 153.575 182.784C154.211 182.395 154.724 181.706 155.112 180.717C155.501 179.728 155.89 178.208 156.278 176.159C156.314 176.088 156.314 176.035 156.278 176C156.278 175.929 156.278 175.876 156.278 175.841L149.547 149.765L149.494 149.606C149.494 149.323 149.671 149.182 150.024 149.182H152.886C153.24 149.182 153.434 149.341 153.469 149.659L158.133 170.488C158.169 170.594 158.204 170.647 158.239 170.647C158.275 170.647 158.31 170.594 158.345 170.488L162.956 149.659C163.027 149.341 163.221 149.182 163.539 149.182L166.507 149.235C166.684 149.235 166.808 149.288 166.878 149.394C166.984 149.5 167.002 149.641 166.931 149.818L159.564 178.332C158.928 180.699 158.292 182.448 157.656 183.579C157.056 184.71 156.261 185.487 155.271 185.911C154.282 186.37 152.886 186.6 151.084 186.6H150.819ZM39.9893 215.461C39.9893 215.814 39.8126 215.991 39.4593 215.991H35.4313C35.2899 215.991 35.2193 216.062 35.2193 216.203V232.421C35.2193 234.046 35.5019 235.177 36.0673 235.813C36.6326 236.414 37.4983 236.696 38.6643 236.661H39.1943C39.5476 236.661 39.7243 236.838 39.7243 237.191V239.47C39.7243 239.823 39.5476 240 39.1943 240H37.8693C35.7846 240 34.1946 239.558 33.0993 238.675C32.0393 237.756 31.5093 236.043 31.5093 233.534V216.203C31.5093 216.062 31.4386 215.991 31.2973 215.991H29.2303C28.8769 215.991 28.7003 215.814 28.7003 215.461V213.712C28.7003 213.359 28.8769 213.182 29.2303 213.182H31.2973C31.4386 213.182 31.5093 213.111 31.5093 212.97V207.034C31.5093 206.681 31.6859 206.504 32.0393 206.504H34.6893C35.0426 206.504 35.2193 206.681 35.2193 207.034V212.97C35.2193 213.111 35.2899 213.182 35.4313 213.182H39.4593C39.8126 213.182 39.9893 213.359 39.9893 213.712V215.461ZM54.2251 212.811C56.3805 212.811 58.0411 213.553 59.2071 215.037C60.4085 216.521 61.0091 218.588 61.0091 221.238V239.47C61.0091 239.823 60.8325 240 60.4791 240H57.7761C57.4228 240 57.2461 239.823 57.2461 239.47V221.556C57.2461 219.825 56.8575 218.482 56.0801 217.528C55.3381 216.574 54.2958 216.097 52.9531 216.097C51.5398 216.097 50.4268 216.609 49.6141 217.634C48.8368 218.659 48.4481 220.054 48.4481 221.821V239.47C48.4481 239.823 48.2715 240 47.9181 240H45.2151C44.8618 240 44.6851 239.823 44.6851 239.47V203.43C44.6851 203.077 44.8618 202.9 45.2151 202.9H47.9181C48.2715 202.9 48.4481 203.077 48.4481 203.43V215.408C48.4481 215.479 48.4835 215.532 48.5541 215.567C48.6248 215.602 48.6778 215.567 48.7131 215.461C49.3491 214.578 50.1441 213.924 51.0981 213.5C52.0875 213.041 53.1298 212.811 54.2251 212.811ZM76.211 212.917C77.0944 212.917 77.854 213.111 78.49 213.5C78.7374 213.641 78.8257 213.871 78.755 214.189L78.119 216.945C78.0837 217.263 77.8717 217.369 77.483 217.263C77.059 217.051 76.529 216.945 75.893 216.945C75.6104 216.945 75.3984 216.963 75.257 216.998C73.985 217.069 72.9427 217.74 72.13 219.012C71.3174 220.249 70.911 221.768 70.911 223.57V239.47C70.911 239.823 70.7344 240 70.381 240H67.678C67.3247 240 67.148 239.823 67.148 239.47V213.712C67.148 213.359 67.3247 213.182 67.678 213.182H70.381C70.7344 213.182 70.911 213.359 70.911 213.712V216.892C70.911 216.998 70.9287 217.051 70.964 217.051C71.0347 217.051 71.1054 217.016 71.176 216.945C72.2007 214.26 73.879 212.917 76.211 212.917ZM90.1546 240.424C87.6106 240.424 85.5789 239.682 84.0596 238.198C82.5756 236.714 81.8336 234.753 81.8336 232.315V220.92C81.8336 218.517 82.5933 216.556 84.1126 215.037C85.6319 213.518 87.6459 212.758 90.1546 212.758C92.6986 212.758 94.7303 213.518 96.2496 215.037C97.7689 216.556 98.5286 218.517 98.5286 220.92V232.315C98.5286 234.753 97.7689 236.714 96.2496 238.198C94.7303 239.682 92.6986 240.424 90.1546 240.424ZM90.1546 237.085C91.4973 237.085 92.5926 236.626 93.4406 235.707C94.3239 234.788 94.7656 233.569 94.7656 232.05V221.132C94.7656 219.613 94.3239 218.394 93.4406 217.475C92.5926 216.521 91.4973 216.044 90.1546 216.044C88.8119 216.044 87.7166 216.521 86.8686 217.475C86.0206 218.394 85.5966 219.613 85.5966 221.132V232.05C85.5966 233.569 86.0206 234.788 86.8686 235.707C87.7166 236.626 88.8119 237.085 90.1546 237.085ZM116.657 213.712C116.657 213.359 116.833 213.182 117.187 213.182H119.89C120.243 213.182 120.42 213.359 120.42 213.712V239.47C120.42 239.823 120.243 240 119.89 240H117.187C116.833 240 116.657 239.823 116.657 239.47V237.668C116.657 237.562 116.621 237.509 116.551 237.509C116.515 237.509 116.462 237.544 116.392 237.615C115.296 239.452 113.53 240.371 111.092 240.371C108.972 240.371 107.276 239.735 106.004 238.463C104.767 237.156 104.149 235.195 104.149 232.58V213.712C104.149 213.359 104.325 213.182 104.679 213.182H107.382C107.735 213.182 107.912 213.359 107.912 213.712V231.732C107.912 233.499 108.265 234.841 108.972 235.76C109.714 236.643 110.774 237.085 112.152 237.085C113.565 237.085 114.66 236.573 115.438 235.548C116.25 234.523 116.657 233.128 116.657 231.361V213.712ZM139.067 213.712C139.067 213.359 139.243 213.182 139.597 213.182H142.3C142.653 213.182 142.83 213.359 142.83 213.712V239.47C142.83 243.251 141.946 246.113 140.18 248.056C138.448 250.035 135.533 250.936 131.435 250.759C131.081 250.724 130.905 250.529 130.905 250.176V247.897C130.905 247.544 131.081 247.367 131.435 247.367C134.261 247.438 136.24 246.784 137.371 245.406C138.501 244.063 139.067 241.979 139.067 239.152V237.562C139.067 237.491 139.031 237.438 138.961 237.403C138.925 237.368 138.872 237.385 138.802 237.456C138.201 238.339 137.424 239.011 136.47 239.47C135.551 239.929 134.562 240.159 133.502 240.159C131.276 240.159 129.509 239.417 128.202 237.933C126.93 236.449 126.294 234.488 126.294 232.05V220.867C126.294 218.394 126.93 216.433 128.202 214.984C129.509 213.5 131.276 212.758 133.502 212.758C134.562 212.758 135.551 212.988 136.47 213.447C137.424 213.871 138.201 214.525 138.802 215.408C138.872 215.514 138.925 215.567 138.961 215.567C139.031 215.532 139.067 215.461 139.067 215.355V213.712ZM134.615 236.873C135.922 236.873 136.982 236.414 137.795 235.495C138.643 234.541 139.067 233.322 139.067 231.838V221.132C139.067 219.613 138.643 218.394 137.795 217.475C136.982 216.521 135.922 216.044 134.615 216.044C133.272 216.044 132.177 216.521 131.329 217.475C130.481 218.394 130.057 219.613 130.057 221.132V231.838C130.057 233.322 130.481 234.541 131.329 235.495C132.177 236.414 133.272 236.873 134.615 236.873ZM158.31 212.811C160.465 212.811 162.126 213.553 163.292 215.037C164.493 216.521 165.094 218.588 165.094 221.238V239.47C165.094 239.823 164.917 240 164.564 240H161.861C161.508 240 161.331 239.823 161.331 239.47V221.556C161.331 219.825 160.942 218.482 160.165 217.528C159.423 216.574 158.381 216.097 157.038 216.097C155.625 216.097 154.512 216.609 153.699 217.634C152.922 218.659 152.533 220.054 152.533 221.821V239.47C152.533 239.823 152.356 240 152.003 240H149.3C148.947 240 148.77 239.823 148.77 239.47V203.43C148.77 203.077 148.947 202.9 149.3 202.9H152.003C152.356 202.9 152.533 203.077 152.533 203.43V215.408C152.533 215.479 152.568 215.532 152.639 215.567C152.71 215.602 152.763 215.567 152.798 215.461C153.434 214.578 154.229 213.924 155.183 213.5C156.172 213.041 157.215 212.811 158.31 212.811Z" fill="#287094"/>
<path opacity="0.1" d="M216 2.68549C216 2.08816 216.171 1.61883 216.512 1.27749C216.853 0.936161 217.323 0.765494 217.92 0.765494L303.68 0.765498C304.277 0.765498 304.747 0.936165 305.088 1.2775C305.429 1.61883 305.6 2.08817 305.6 2.6855L305.6 27.9015C305.6 33.5335 304.533 38.4828 302.4 42.7495C300.267 47.1015 297.237 50.4722 293.312 52.8615C289.472 55.2508 285.035 56.4455 280 56.4455L241.6 56.4455C236.565 56.4455 232.085 55.2508 228.16 52.8615C224.32 50.4722 221.333 47.1015 219.2 42.7495C217.067 38.4828 216 33.5335 216 27.9015L216 2.68549ZM237.376 24.8295C236.864 24.8295 236.608 25.0855 236.608 25.5975L236.736 27.3895C236.821 28.7548 237.461 29.9068 238.656 30.8455C239.851 31.7842 241.387 32.2962 243.264 32.3815L278.464 32.3815C280.427 32.3815 282.005 31.9122 283.2 30.9735C284.395 30.0348 284.992 28.7975 284.992 27.2615L284.992 25.5975C284.992 25.0855 284.736 24.8295 284.224 24.8295L237.376 24.8295ZM245.184 115.504C244.587 115.504 244.117 115.334 243.776 114.992C243.435 114.651 243.264 114.182 243.264 113.584L243.264 86.4485C243.264 85.9365 243.008 85.6805 242.496 85.6805L239.68 85.6805C238.485 85.6805 237.504 85.9365 236.736 86.4485C235.968 87.0458 235.584 87.7712 235.584 88.6245C235.584 89.4778 235.883 90.1178 236.48 90.5445C237.077 91.0565 237.845 91.3978 238.784 91.5685C239.979 91.9952 240.533 92.7205 240.448 93.7445L239.168 113.328C238.997 114.608 238.315 115.206 237.12 115.12C229.611 114.694 224.021 112.304 220.352 107.952C216.768 103.686 214.976 97.2432 214.976 88.6245C214.976 80.0912 216.939 73.4352 220.864 68.6565C224.875 63.9632 230.507 61.6165 237.76 61.6165L260.8 61.6165C267.712 61.6165 273.216 64.0058 277.312 68.7845C281.493 73.5632 283.584 80.1765 283.584 88.6245C283.584 97.0725 281.493 103.643 277.312 108.336C273.216 113.115 267.712 115.504 260.8 115.504L245.184 115.504ZM262.976 88.6245C262.976 87.7712 262.592 87.0458 261.824 86.4485C261.056 85.9365 260.075 85.6805 258.88 85.6805L255.808 85.6805C255.296 85.6805 255.04 85.9365 255.04 86.4485L255.04 90.6725C255.04 91.1845 255.296 91.4405 255.808 91.4405L258.88 91.4405C260.075 91.4405 261.056 91.1845 261.824 90.6725C262.592 90.1605 262.976 89.4778 262.976 88.6245ZM214.976 146.106C214.976 137.914 216.896 131.344 220.736 126.394C224.576 121.53 229.653 119.098 235.968 119.098L236.352 119.098C236.949 119.098 237.419 119.269 237.76 119.61C238.101 119.952 238.272 120.421 238.272 121.018L238.272 140.218C238.272 140.816 238.101 141.285 237.76 141.626C237.504 141.968 237.12 142.138 236.608 142.138C235.328 142.138 234.347 142.522 233.664 143.29C232.981 144.058 232.64 144.912 232.64 145.85C232.64 146.618 232.853 147.216 233.28 147.642C233.792 148.069 234.389 148.282 235.072 148.282C236.352 148.282 237.291 147.642 237.888 146.362C238.571 145.082 239.339 142.949 240.192 139.962C240.448 138.938 240.789 137.744 241.216 136.378C242.667 131.856 245.013 127.973 248.256 124.73C251.584 121.573 256.107 119.994 261.824 119.994C268.48 119.994 273.771 122.298 277.696 126.906C281.621 131.514 283.584 137.573 283.584 145.082C283.584 152.933 281.451 159.205 277.184 163.898C272.917 168.592 267.285 170.938 260.288 170.938C259.947 170.938 259.648 170.768 259.392 170.426C259.136 170.085 259.008 169.616 259.008 169.018L259.008 150.458C259.008 149.861 259.179 149.392 259.52 149.05C259.861 148.709 260.331 148.538 260.928 148.538L261.696 148.538C262.72 148.538 263.531 148.24 264.128 147.642C264.725 147.13 265.024 146.49 265.024 145.722C265.024 144.869 264.683 144.186 264 143.674C263.317 143.248 262.549 143.034 261.696 143.034C259.989 143.034 258.667 143.845 257.728 145.466C256.789 147.173 255.936 149.349 255.168 151.994C253.376 158.138 251.072 163.088 248.256 166.842C245.44 170.597 241.131 172.474 235.328 172.474C229.013 172.474 224.021 170.042 220.352 165.178C216.768 160.4 214.976 154.042 214.976 146.106ZM287.04 188.023C287.04 184.525 288.149 181.623 290.368 179.319C292.672 177.101 295.573 175.991 299.072 175.991C302.656 175.991 305.557 177.101 307.776 179.319C309.995 181.623 311.104 184.525 311.104 188.023C311.104 191.522 309.995 194.381 307.776 196.599C305.557 198.903 302.656 200.056 299.072 200.055C295.659 200.055 292.8 198.903 290.496 196.599C288.192 194.381 287.04 191.522 287.04 188.023ZM216 178.167C216 177.57 216.171 177.101 216.512 176.759C216.853 176.418 217.323 176.247 217.92 176.247L280.64 176.247C281.237 176.247 281.707 176.418 282.048 176.759C282.389 177.101 282.56 177.57 282.56 178.167L282.56 198.391C282.56 198.989 282.389 199.458 282.048 199.799C281.707 200.141 281.237 200.311 280.64 200.311L217.92 200.311C217.323 200.311 216.853 200.141 216.512 199.799C216.171 199.458 216 198.989 216 198.391L216 178.167ZM280.64 234.562C281.237 234.562 281.707 234.733 282.048 235.074C282.389 235.416 282.56 235.885 282.56 236.482L282.56 256.706C282.56 257.304 282.389 257.773 282.048 258.114C281.707 258.456 281.237 258.627 280.64 258.627L220.352 258.626C213.952 258.626 208.491 257.688 203.968 255.81C199.445 254.018 195.861 250.648 193.216 245.698C190.485 240.749 189.12 233.794 189.12 224.834C189.12 221.506 189.205 218.904 189.376 217.026C189.376 215.746 190.016 215.106 191.296 215.106L208.32 215.106C209.685 215.106 210.283 215.789 210.112 217.154L209.984 220.354C209.984 225.133 210.667 228.504 212.032 230.466C213.312 232.514 215.232 233.794 217.792 234.306C218.048 234.306 218.261 234.008 218.432 233.41C218.603 232.898 218.603 232.514 218.432 232.258C216.128 229.869 214.976 226.584 214.976 222.402C214.976 216.258 216.939 211.778 220.864 208.962C224.789 206.232 230.421 204.866 237.76 204.866L260.8 204.866C268.395 204.866 274.069 206.274 277.824 209.09C281.664 211.906 283.584 216.344 283.584 222.402C283.584 227.352 281.707 231.106 277.952 233.666C277.611 233.837 277.44 234.008 277.44 234.178C277.525 234.434 277.739 234.562 278.08 234.562L280.64 234.562ZM235.584 231.618C235.584 232.472 235.968 233.154 236.736 233.666C237.504 234.264 238.485 234.562 239.68 234.562L258.88 234.562C260.075 234.562 261.056 234.264 261.824 233.666C262.592 233.154 262.976 232.472 262.976 231.618C262.976 230.765 262.592 230.082 261.824 229.57C261.056 229.144 260.075 228.93 258.88 228.93L239.68 228.93C238.485 228.93 237.504 229.144 236.736 229.57C235.968 230.082 235.584 230.765 235.584 231.618ZM283.584 299.837C283.584 311.955 275.904 318.014 260.544 318.014L217.92 318.013C217.323 318.013 216.853 317.843 216.512 317.501C216.171 317.16 216 316.691 216 316.093L216 295.869C216 295.272 216.171 294.803 216.512 294.461C216.853 294.12 217.323 293.949 217.92 293.949L258.88 293.949C261.611 293.949 262.976 293.053 262.976 291.261C262.976 289.299 261.611 288.317 258.88 288.317L217.92 288.317C217.323 288.317 216.853 288.147 216.512 287.805C216.171 287.464 216 286.995 216 286.397L216 266.173C216 265.576 216.171 265.107 216.512 264.765C216.853 264.424 217.323 264.253 217.92 264.253L280.64 264.253C281.237 264.253 281.707 264.424 282.048 264.765C282.389 265.107 282.56 265.576 282.56 266.173L282.56 286.397C282.56 286.995 282.389 287.464 282.048 287.805C281.707 288.147 281.237 288.317 280.64 288.317L278.72 288.317C278.549 288.317 278.464 288.403 278.464 288.573C278.464 289 278.848 289.512 279.616 290.109C282.261 292.584 283.584 295.827 283.584 299.837Z" fill="#333333"/>
</g>
</svg>
