<svg width="312" height="319" viewBox="0 0 312 319" fill="none" xmlns="http://www.w3.org/2000/svg">
<mask id="mask0" mask-type="alpha" maskUnits="userSpaceOnUse" x="0" y="0" width="312" height="319">
<rect width="312" height="319" fill="#C4C4C4"/>
</mask>
<g mask="url(#mask0)">
<rect width="180" height="319" fill="#287094"/>
<path d="M31.4612 112C31.1079 112 30.9312 111.823 30.9312 111.47V75.43C30.9312 75.0767 31.1079 74.9 31.4612 74.9H34.1642C34.5176 74.9 34.6942 75.0767 34.6942 75.43V111.47C34.6942 111.823 34.5176 112 34.1642 112H31.4612ZM52.5573 112C52.204 112 52.0273 111.823 52.0273 111.47V75.43C52.0273 75.0767 52.204 74.9 52.5573 74.9H55.2603C55.6136 74.9 55.7903 75.0767 55.7903 75.43V111.47C55.7903 111.823 55.6136 112 55.2603 112H52.5573ZM69.6585 112.424C67.1145 112.424 65.0828 111.682 63.5635 110.198C62.0795 108.714 61.3375 106.753 61.3375 104.315V92.92C61.3375 90.5173 62.0972 88.5563 63.6165 87.037C65.1358 85.5177 67.1498 84.758 69.6585 84.758C72.2025 84.758 74.2342 85.5177 75.7535 87.037C77.2728 88.5563 78.0325 90.5173 78.0325 92.92V104.315C78.0325 106.753 77.2728 108.714 75.7535 110.198C74.2342 111.682 72.2025 112.424 69.6585 112.424ZM69.6585 109.085C71.0012 109.085 72.0965 108.626 72.9445 107.707C73.8278 106.788 74.2695 105.569 74.2695 104.05V93.132C74.2695 91.6127 73.8278 90.3937 72.9445 89.475C72.0965 88.521 71.0012 88.044 69.6585 88.044C68.3158 88.044 67.2205 88.521 66.3725 89.475C65.5245 90.3937 65.1005 91.6127 65.1005 93.132V104.05C65.1005 105.569 65.5245 106.788 66.3725 107.707C67.2205 108.626 68.3158 109.085 69.6585 109.085ZM88.44 112C88.122 112 87.9276 111.841 87.857 111.523L81.285 85.765L81.232 85.553C81.232 85.3057 81.391 85.182 81.709 85.182H84.783C85.101 85.182 85.2953 85.341 85.366 85.659L89.924 105.746C89.9593 105.852 89.9946 105.905 90.03 105.905C90.0653 105.905 90.1006 105.852 90.136 105.746L94.641 85.659C94.7116 85.341 94.906 85.182 95.224 85.182L98.298 85.235C98.4746 85.235 98.5983 85.288 98.669 85.394C98.775 85.5 98.7926 85.6413 98.722 85.818L92.203 111.523C92.1676 111.841 91.9733 112 91.62 112H88.44ZM118.919 99.492C118.919 99.8453 118.742 100.022 118.389 100.022H106.305C106.163 100.022 106.093 100.093 106.093 100.234V104.103C106.093 105.587 106.499 106.806 107.312 107.76C108.16 108.679 109.255 109.138 110.598 109.138C111.728 109.138 112.682 108.802 113.46 108.131C114.272 107.424 114.802 106.523 115.05 105.428C115.156 105.11 115.35 104.951 115.633 104.951L118.283 105.057C118.424 105.057 118.548 105.11 118.654 105.216C118.76 105.322 118.795 105.463 118.76 105.64C118.477 107.725 117.611 109.385 116.163 110.622C114.749 111.823 112.894 112.424 110.598 112.424C108.089 112.424 106.075 111.682 104.556 110.198C103.072 108.714 102.33 106.753 102.33 104.315V92.867C102.33 90.4643 103.072 88.521 104.556 87.037C106.075 85.5177 108.089 84.758 110.598 84.758C113.142 84.758 115.156 85.5177 116.64 87.037C118.159 88.521 118.919 90.4643 118.919 92.867V99.492ZM110.598 88.044C109.255 88.044 108.16 88.521 107.312 89.475C106.499 90.3937 106.093 91.6127 106.093 93.132V96.683C106.093 96.8243 106.163 96.895 106.305 96.895H114.997C115.138 96.895 115.209 96.8243 115.209 96.683V93.132C115.209 91.6127 114.785 90.3937 113.937 89.475C113.089 88.521 111.976 88.044 110.598 88.044ZM144.54 87.461C144.54 87.8143 144.363 87.991 144.01 87.991H139.982C139.841 87.991 139.77 88.0617 139.77 88.203V104.421C139.77 106.046 140.053 107.177 140.618 107.813C141.183 108.414 142.049 108.696 143.215 108.661H143.745C144.098 108.661 144.275 108.838 144.275 109.191V111.47C144.275 111.823 144.098 112 143.745 112H142.42C140.335 112 138.745 111.558 137.65 110.675C136.59 109.756 136.06 108.043 136.06 105.534V88.203C136.06 88.0617 135.989 87.991 135.848 87.991H133.781C133.428 87.991 133.251 87.8143 133.251 87.461V85.712C133.251 85.3587 133.428 85.182 133.781 85.182H135.848C135.989 85.182 136.06 85.1113 136.06 84.97V79.034C136.06 78.6807 136.237 78.504 136.59 78.504H139.24C139.593 78.504 139.77 78.6807 139.77 79.034V84.97C139.77 85.1113 139.841 85.182 139.982 85.182H144.01C144.363 85.182 144.54 85.3587 144.54 85.712V87.461ZM156.974 112.424C154.43 112.424 152.398 111.682 150.879 110.198C149.395 108.714 148.653 106.753 148.653 104.315V92.92C148.653 90.5173 149.413 88.5563 150.932 87.037C152.451 85.5177 154.465 84.758 156.974 84.758C159.518 84.758 161.55 85.5177 163.069 87.037C164.588 88.5563 165.348 90.5173 165.348 92.92V104.315C165.348 106.753 164.588 108.714 163.069 110.198C161.55 111.682 159.518 112.424 156.974 112.424ZM156.974 109.085C158.317 109.085 159.412 108.626 160.26 107.707C161.143 106.788 161.585 105.569 161.585 104.05V93.132C161.585 91.6127 161.143 90.3937 160.26 89.475C159.412 88.521 158.317 88.044 156.974 88.044C155.631 88.044 154.536 88.521 153.688 89.475C152.84 90.3937 152.416 91.6127 152.416 93.132V104.05C152.416 105.569 152.84 106.788 153.688 107.707C154.536 108.626 155.631 109.085 156.974 109.085ZM63.3428 176.424C60.8341 176.424 58.8201 175.682 57.3008 174.198C55.8168 172.714 55.0748 170.753 55.0748 168.315V156.867C55.0748 154.464 55.8345 152.521 57.3538 151.037C58.8731 149.518 60.8695 148.758 63.3428 148.758C65.0035 148.758 66.4698 149.094 67.7418 149.765C69.0138 150.436 69.9855 151.337 70.6568 152.468C71.3635 153.563 71.7168 154.782 71.7168 156.125V156.655C71.7168 157.008 71.5401 157.185 71.1868 157.185L68.4838 157.291C68.1305 157.291 67.9538 157.114 67.9538 156.761V156.39C67.9538 155.224 67.5121 154.217 66.6288 153.369C65.7808 152.486 64.6855 152.044 63.3428 152.044C62.0001 152.044 60.9048 152.521 60.0568 153.475C59.2441 154.394 58.8378 155.613 58.8378 157.132V168.05C58.8378 169.569 59.2441 170.806 60.0568 171.76C60.9048 172.679 62.0001 173.138 63.3428 173.138C64.6855 173.138 65.7808 172.714 66.6288 171.866C67.5121 170.983 67.9538 169.958 67.9538 168.792V168.421C67.9538 168.068 68.1305 167.891 68.4838 167.891L71.1868 167.944C71.5401 167.944 71.7168 168.121 71.7168 168.474V169.057C71.7168 171.177 70.9395 172.944 69.3848 174.357C67.8655 175.735 65.8515 176.424 63.3428 176.424ZM86.045 148.917C86.9284 148.917 87.688 149.111 88.324 149.5C88.5714 149.641 88.6597 149.871 88.589 150.189L87.953 152.945C87.9177 153.263 87.7057 153.369 87.317 153.263C86.893 153.051 86.363 152.945 85.727 152.945C85.4444 152.945 85.2324 152.963 85.091 152.998C83.819 153.069 82.7767 153.74 81.964 155.012C81.1514 156.249 80.745 157.768 80.745 159.57V175.47C80.745 175.823 80.5684 176 80.215 176H77.512C77.1587 176 76.982 175.823 76.982 175.47V149.712C76.982 149.359 77.1587 149.182 77.512 149.182H80.215C80.5684 149.182 80.745 149.359 80.745 149.712V152.892C80.745 152.998 80.7627 153.051 80.798 153.051C80.8687 153.051 80.9394 153.016 81.01 152.945C82.0347 150.26 83.713 148.917 86.045 148.917ZM108.257 163.492C108.257 163.845 108.08 164.022 107.727 164.022H95.6426C95.5012 164.022 95.4306 164.093 95.4306 164.234V168.103C95.4306 169.587 95.8369 170.806 96.6496 171.76C97.4976 172.679 98.5929 173.138 99.9356 173.138C101.066 173.138 102.02 172.802 102.798 172.131C103.61 171.424 104.14 170.523 104.388 169.428C104.494 169.11 104.688 168.951 104.971 168.951L107.621 169.057C107.762 169.057 107.886 169.11 107.992 169.216C108.098 169.322 108.133 169.463 108.098 169.64C107.815 171.725 106.949 173.385 105.501 174.622C104.087 175.823 102.232 176.424 99.9356 176.424C97.4269 176.424 95.4129 175.682 93.8936 174.198C92.4096 172.714 91.6676 170.753 91.6676 168.315V156.867C91.6676 154.464 92.4096 152.521 93.8936 151.037C95.4129 149.518 97.4269 148.758 99.9356 148.758C102.48 148.758 104.494 149.518 105.978 151.037C107.497 152.521 108.257 154.464 108.257 156.867V163.492ZM99.9356 152.044C98.5929 152.044 97.4976 152.521 96.6496 153.475C95.8369 154.394 95.4306 155.613 95.4306 157.132V160.683C95.4306 160.824 95.5012 160.895 95.6426 160.895H104.335C104.476 160.895 104.547 160.824 104.547 160.683V157.132C104.547 155.613 104.123 154.394 103.275 153.475C102.427 152.521 101.314 152.044 99.9356 152.044ZM121.471 148.758C123.944 148.758 125.923 149.571 127.407 151.196C128.891 152.786 129.633 154.924 129.633 157.609V175.47C129.633 175.823 129.456 176 129.103 176H126.4C126.046 176 125.87 175.823 125.87 175.47V173.88C125.87 173.809 125.834 173.774 125.764 173.774C125.728 173.739 125.675 173.756 125.605 173.827C124.297 175.558 122.336 176.424 119.722 176.424C117.778 176.424 116.082 175.876 114.634 174.781C113.22 173.65 112.514 171.672 112.514 168.845C112.514 165.842 113.379 163.651 115.111 162.273C116.842 160.86 119.121 160.153 121.948 160.153H125.658C125.799 160.153 125.87 160.082 125.87 159.941V157.874C125.87 156.107 125.463 154.694 124.651 153.634C123.838 152.574 122.743 152.044 121.365 152.044C120.305 152.044 119.386 152.397 118.609 153.104C117.867 153.811 117.425 154.712 117.284 155.807C117.284 156.16 117.107 156.337 116.754 156.337L113.786 156.284C113.609 156.284 113.468 156.231 113.362 156.125C113.291 156.019 113.273 155.895 113.309 155.754C113.485 153.669 114.333 151.991 115.853 150.719C117.372 149.412 119.245 148.758 121.471 148.758ZM120.517 173.138C121.965 173.138 123.22 172.679 124.28 171.76C125.34 170.806 125.87 169.499 125.87 167.838V163.386C125.87 163.245 125.799 163.174 125.658 163.174H121.895C120.199 163.174 118.856 163.633 117.867 164.552C116.877 165.435 116.383 166.76 116.383 168.527C116.383 170.082 116.754 171.248 117.496 172.025C118.273 172.767 119.28 173.138 120.517 173.138ZM144.954 151.461C144.954 151.814 144.777 151.991 144.424 151.991H140.396C140.255 151.991 140.184 152.062 140.184 152.203V168.421C140.184 170.046 140.467 171.177 141.032 171.813C141.597 172.414 142.463 172.696 143.629 172.661H144.159C144.512 172.661 144.689 172.838 144.689 173.191V175.47C144.689 175.823 144.512 176 144.159 176H142.834C140.749 176 139.159 175.558 138.064 174.675C137.004 173.756 136.474 172.043 136.474 169.534V152.203C136.474 152.062 136.403 151.991 136.262 151.991H134.195C133.842 151.991 133.665 151.814 133.665 151.461V149.712C133.665 149.359 133.842 149.182 134.195 149.182H136.262C136.403 149.182 136.474 149.111 136.474 148.97V143.034C136.474 142.681 136.651 142.504 137.004 142.504H139.654C140.007 142.504 140.184 142.681 140.184 143.034V148.97C140.184 149.111 140.255 149.182 140.396 149.182H144.424C144.777 149.182 144.954 149.359 144.954 149.712V151.461ZM165.656 163.492C165.656 163.845 165.479 164.022 165.126 164.022H153.042C152.901 164.022 152.83 164.093 152.83 164.234V168.103C152.83 169.587 153.236 170.806 154.049 171.76C154.897 172.679 155.992 173.138 157.335 173.138C158.466 173.138 159.42 172.802 160.197 172.131C161.01 171.424 161.54 170.523 161.787 169.428C161.893 169.11 162.087 168.951 162.37 168.951L165.02 169.057C165.161 169.057 165.285 169.11 165.391 169.216C165.497 169.322 165.532 169.463 165.497 169.64C165.214 171.725 164.349 173.385 162.9 174.622C161.487 175.823 159.632 176.424 157.335 176.424C154.826 176.424 152.812 175.682 151.293 174.198C149.809 172.714 149.067 170.753 149.067 168.315V156.867C149.067 154.464 149.809 152.521 151.293 151.037C152.812 149.518 154.826 148.758 157.335 148.758C159.879 148.758 161.893 149.518 163.377 151.037C164.896 152.521 165.656 154.464 165.656 156.867V163.492ZM157.335 152.044C155.992 152.044 154.897 152.521 154.049 153.475C153.236 154.394 152.83 155.613 152.83 157.132V160.683C152.83 160.824 152.901 160.895 153.042 160.895H161.734C161.875 160.895 161.946 160.824 161.946 160.683V157.132C161.946 155.613 161.522 154.394 160.674 153.475C159.826 152.521 158.713 152.044 157.335 152.044ZM39.4145 240.265C36.9765 240.265 35.0155 239.647 33.5315 238.41C32.0829 237.138 31.3585 235.46 31.3585 233.375V233.004C31.3585 232.651 31.5352 232.474 31.8885 232.474H34.4325C34.7859 232.474 34.9625 232.651 34.9625 233.004V233.322C34.9625 234.453 35.3689 235.407 36.1815 236.184C37.0295 236.961 38.1249 237.35 39.4675 237.35C40.7395 237.35 41.7642 236.961 42.5415 236.184C43.3189 235.407 43.7075 234.417 43.7075 233.216C43.7075 232.297 43.4602 231.538 42.9655 230.937C42.4709 230.301 41.8879 229.806 41.2165 229.453C40.5805 229.1 39.6089 228.64 38.3015 228.075C36.9235 227.51 35.7752 226.962 34.8565 226.432C33.9732 225.867 33.1959 225.089 32.5245 224.1C31.8885 223.075 31.5705 221.786 31.5705 220.231C31.5705 217.97 32.2595 216.185 33.6375 214.878C35.0509 213.571 36.9412 212.917 39.3085 212.917C41.7112 212.917 43.6192 213.588 45.0325 214.931C46.4459 216.274 47.1525 218.058 47.1525 220.284V220.443C47.1525 220.796 46.9759 220.973 46.6225 220.973H44.1845C43.8312 220.973 43.6545 220.796 43.6545 220.443V220.125C43.6545 218.924 43.2482 217.934 42.4355 217.157C41.6582 216.38 40.6335 215.991 39.3615 215.991C38.0895 215.991 37.0649 216.397 36.2875 217.21C35.5455 217.987 35.1745 218.959 35.1745 220.125C35.1745 220.973 35.4042 221.697 35.8635 222.298C36.3229 222.863 36.8882 223.34 37.5595 223.729C38.2309 224.082 39.1672 224.524 40.3685 225.054C41.8172 225.69 43.0009 226.291 43.9195 226.856C44.8735 227.421 45.7039 228.216 46.4105 229.241C47.1172 230.266 47.4705 231.538 47.4705 233.057C47.4705 235.248 46.7462 236.997 45.2975 238.304C43.8489 239.611 41.8879 240.265 39.4145 240.265ZM50.875 250.6C50.8043 250.6 50.7336 250.547 50.663 250.441C50.5923 250.335 50.557 250.211 50.557 250.07V247.95C50.557 247.597 50.7336 247.42 51.087 247.42C52.1823 247.385 53.0303 247.173 53.631 246.784C54.267 246.395 54.7793 245.706 55.168 244.717C55.5566 243.728 55.9453 242.208 56.334 240.159C56.3693 240.088 56.3693 240.035 56.334 240C56.334 239.929 56.334 239.876 56.334 239.841L49.603 213.765L49.55 213.606C49.55 213.323 49.7266 213.182 50.08 213.182H52.942C53.2953 213.182 53.4896 213.341 53.525 213.659L58.189 234.488C58.2243 234.594 58.2596 234.647 58.295 234.647C58.3303 234.647 58.3656 234.594 58.401 234.488L63.012 213.659C63.0826 213.341 63.277 213.182 63.595 213.182L66.563 213.235C66.7396 213.235 66.8633 213.288 66.934 213.394C67.04 213.5 67.0576 213.641 66.987 213.818L59.62 242.332C58.984 244.699 58.348 246.448 57.712 247.579C57.1113 248.71 56.3163 249.487 55.327 249.911C54.3376 250.37 52.942 250.6 51.14 250.6H50.875ZM80.8287 212.811C82.984 212.811 84.6447 213.553 85.8107 215.037C87.012 216.521 87.6127 218.588 87.6127 221.238V239.47C87.6127 239.823 87.436 240 87.0827 240H84.3797C84.0263 240 83.8497 239.823 83.8497 239.47V221.556C83.8497 219.825 83.461 218.482 82.6837 217.528C81.9417 216.574 80.8993 216.097 79.5567 216.097C78.1433 216.097 77.0303 216.609 76.2177 217.634C75.4403 218.659 75.0517 220.054 75.0517 221.821V239.47C75.0517 239.823 74.875 240 74.5217 240H71.8187C71.4653 240 71.2887 239.823 71.2887 239.47V213.712C71.2887 213.359 71.4653 213.182 71.8187 213.182H74.5217C74.875 213.182 75.0517 213.359 75.0517 213.712V215.408C75.0517 215.479 75.087 215.532 75.1577 215.567C75.2283 215.602 75.2813 215.567 75.3167 215.461C75.9527 214.578 76.7477 213.924 77.7017 213.5C78.691 213.041 79.7333 212.811 80.8287 212.811ZM109.758 227.492C109.758 227.845 109.581 228.022 109.228 228.022H97.1436C97.0022 228.022 96.9316 228.093 96.9316 228.234V232.103C96.9316 233.587 97.3379 234.806 98.1506 235.76C98.9986 236.679 100.094 237.138 101.437 237.138C102.567 237.138 103.521 236.802 104.299 236.131C105.111 235.424 105.641 234.523 105.889 233.428C105.995 233.11 106.189 232.951 106.472 232.951L109.122 233.057C109.263 233.057 109.387 233.11 109.493 233.216C109.599 233.322 109.634 233.463 109.599 233.64C109.316 235.725 108.45 237.385 107.002 238.622C105.588 239.823 103.733 240.424 101.437 240.424C98.9279 240.424 96.9139 239.682 95.3946 238.198C93.9106 236.714 93.1686 234.753 93.1686 232.315V220.867C93.1686 218.464 93.9106 216.521 95.3946 215.037C96.9139 213.518 98.9279 212.758 101.437 212.758C103.981 212.758 105.995 213.518 107.479 215.037C108.998 216.521 109.758 218.464 109.758 220.867V227.492ZM101.437 216.044C100.094 216.044 98.9986 216.521 98.1506 217.475C97.3379 218.394 96.9316 219.613 96.9316 221.132V224.683C96.9316 224.824 97.0022 224.895 97.1436 224.895H105.836C105.977 224.895 106.048 224.824 106.048 224.683V221.132C106.048 219.613 105.624 218.394 104.776 217.475C103.928 216.521 102.815 216.044 101.437 216.044ZM124.398 212.917C125.281 212.917 126.041 213.111 126.677 213.5C126.924 213.641 127.012 213.871 126.942 214.189L126.306 216.945C126.27 217.263 126.058 217.369 125.67 217.263C125.246 217.051 124.716 216.945 124.08 216.945C123.797 216.945 123.585 216.963 123.444 216.998C122.172 217.069 121.129 217.74 120.317 219.012C119.504 220.249 119.098 221.768 119.098 223.57V239.47C119.098 239.823 118.921 240 118.568 240H115.865C115.511 240 115.335 239.823 115.335 239.47V213.712C115.335 213.359 115.511 213.182 115.865 213.182H118.568C118.921 213.182 119.098 213.359 119.098 213.712V216.892C119.098 216.998 119.115 217.051 119.151 217.051C119.221 217.051 119.292 217.016 119.363 216.945C120.387 214.26 122.066 212.917 124.398 212.917ZM142.741 213.712C142.741 213.359 142.918 213.182 143.271 213.182H145.974C146.328 213.182 146.504 213.359 146.504 213.712V239.47C146.504 243.251 145.621 246.113 143.854 248.056C142.123 250.035 139.208 250.936 135.109 250.759C134.756 250.724 134.579 250.529 134.579 250.176V247.897C134.579 247.544 134.756 247.367 135.109 247.367C137.936 247.438 139.915 246.784 141.045 245.406C142.176 244.063 142.741 241.979 142.741 239.152V237.562C142.741 237.491 142.706 237.438 142.635 237.403C142.6 237.368 142.547 237.385 142.476 237.456C141.876 238.339 141.098 239.011 140.144 239.47C139.226 239.929 138.236 240.159 137.176 240.159C134.95 240.159 133.184 239.417 131.876 237.933C130.604 236.449 129.968 234.488 129.968 232.05V220.867C129.968 218.394 130.604 216.433 131.876 214.984C133.184 213.5 134.95 212.758 137.176 212.758C138.236 212.758 139.226 212.988 140.144 213.447C141.098 213.871 141.876 214.525 142.476 215.408C142.547 215.514 142.6 215.567 142.635 215.567C142.706 215.532 142.741 215.461 142.741 215.355V213.712ZM138.289 236.873C139.597 236.873 140.657 236.414 141.469 235.495C142.317 234.541 142.741 233.322 142.741 231.838V221.132C142.741 219.613 142.317 218.394 141.469 217.475C140.657 216.521 139.597 216.044 138.289 216.044C136.947 216.044 135.851 216.521 135.003 217.475C134.155 218.394 133.731 219.613 133.731 221.132V231.838C133.731 233.322 134.155 234.541 135.003 235.495C135.851 236.414 136.947 236.873 138.289 236.873ZM150.819 250.6C150.749 250.6 150.678 250.547 150.607 250.441C150.537 250.335 150.501 250.211 150.501 250.07V247.95C150.501 247.597 150.678 247.42 151.031 247.42C152.127 247.385 152.975 247.173 153.575 246.784C154.211 246.395 154.724 245.706 155.112 244.717C155.501 243.728 155.89 242.208 156.278 240.159C156.314 240.088 156.314 240.035 156.278 240C156.278 239.929 156.278 239.876 156.278 239.841L149.547 213.765L149.494 213.606C149.494 213.323 149.671 213.182 150.024 213.182H152.886C153.24 213.182 153.434 213.341 153.469 213.659L158.133 234.488C158.169 234.594 158.204 234.647 158.239 234.647C158.275 234.647 158.31 234.594 158.345 234.488L162.956 213.659C163.027 213.341 163.221 213.182 163.539 213.182L166.507 213.235C166.684 213.235 166.808 213.288 166.878 213.394C166.984 213.5 167.002 213.641 166.931 213.818L159.564 242.332C158.928 244.699 158.292 246.448 157.656 247.579C157.056 248.71 156.261 249.487 155.271 249.911C154.282 250.37 152.886 250.6 151.084 250.6H150.819Z" fill="#F6F6F6"/>
<path opacity="0.1" d="M216 2.68549C216 2.08816 216.171 1.61883 216.512 1.27749C216.853 0.936161 217.323 0.765494 217.92 0.765494L303.68 0.765498C304.277 0.765498 304.747 0.936165 305.088 1.2775C305.429 1.61883 305.6 2.08817 305.6 2.6855L305.6 27.9015C305.6 33.5335 304.533 38.4828 302.4 42.7495C300.267 47.1015 297.237 50.4722 293.312 52.8615C289.472 55.2508 285.035 56.4455 280 56.4455L241.6 56.4455C236.565 56.4455 232.085 55.2508 228.16 52.8615C224.32 50.4722 221.333 47.1015 219.2 42.7495C217.067 38.4828 216 33.5335 216 27.9015L216 2.68549ZM237.376 24.8295C236.864 24.8295 236.608 25.0855 236.608 25.5975L236.736 27.3895C236.821 28.7548 237.461 29.9068 238.656 30.8455C239.851 31.7842 241.387 32.2962 243.264 32.3815L278.464 32.3815C280.427 32.3815 282.005 31.9122 283.2 30.9735C284.395 30.0348 284.992 28.7975 284.992 27.2615L284.992 25.5975C284.992 25.0855 284.736 24.8295 284.224 24.8295L237.376 24.8295ZM245.184 115.504C244.587 115.504 244.117 115.334 243.776 114.992C243.435 114.651 243.264 114.182 243.264 113.584L243.264 86.4485C243.264 85.9365 243.008 85.6805 242.496 85.6805L239.68 85.6805C238.485 85.6805 237.504 85.9365 236.736 86.4485C235.968 87.0458 235.584 87.7712 235.584 88.6245C235.584 89.4778 235.883 90.1178 236.48 90.5445C237.077 91.0565 237.845 91.3978 238.784 91.5685C239.979 91.9952 240.533 92.7205 240.448 93.7445L239.168 113.328C238.997 114.608 238.315 115.206 237.12 115.12C229.611 114.694 224.021 112.304 220.352 107.952C216.768 103.686 214.976 97.2432 214.976 88.6245C214.976 80.0912 216.939 73.4352 220.864 68.6565C224.875 63.9632 230.507 61.6165 237.76 61.6165L260.8 61.6165C267.712 61.6165 273.216 64.0058 277.312 68.7845C281.493 73.5632 283.584 80.1765 283.584 88.6245C283.584 97.0725 281.493 103.643 277.312 108.336C273.216 113.115 267.712 115.504 260.8 115.504L245.184 115.504ZM262.976 88.6245C262.976 87.7712 262.592 87.0458 261.824 86.4485C261.056 85.9365 260.075 85.6805 258.88 85.6805L255.808 85.6805C255.296 85.6805 255.04 85.9365 255.04 86.4485L255.04 90.6725C255.04 91.1845 255.296 91.4405 255.808 91.4405L258.88 91.4405C260.075 91.4405 261.056 91.1845 261.824 90.6725C262.592 90.1605 262.976 89.4778 262.976 88.6245ZM214.976 146.106C214.976 137.914 216.896 131.344 220.736 126.394C224.576 121.53 229.653 119.098 235.968 119.098L236.352 119.098C236.949 119.098 237.419 119.269 237.76 119.61C238.101 119.952 238.272 120.421 238.272 121.018L238.272 140.218C238.272 140.816 238.101 141.285 237.76 141.626C237.504 141.968 237.12 142.138 236.608 142.138C235.328 142.138 234.347 142.522 233.664 143.29C232.981 144.058 232.64 144.912 232.64 145.85C232.64 146.618 232.853 147.216 233.28 147.642C233.792 148.069 234.389 148.282 235.072 148.282C236.352 148.282 237.291 147.642 237.888 146.362C238.571 145.082 239.339 142.949 240.192 139.962C240.448 138.938 240.789 137.744 241.216 136.378C242.667 131.856 245.013 127.973 248.256 124.73C251.584 121.573 256.107 119.994 261.824 119.994C268.48 119.994 273.771 122.298 277.696 126.906C281.621 131.514 283.584 137.573 283.584 145.082C283.584 152.933 281.451 159.205 277.184 163.898C272.917 168.592 267.285 170.938 260.288 170.938C259.947 170.938 259.648 170.768 259.392 170.426C259.136 170.085 259.008 169.616 259.008 169.018L259.008 150.458C259.008 149.861 259.179 149.392 259.52 149.05C259.861 148.709 260.331 148.538 260.928 148.538L261.696 148.538C262.72 148.538 263.531 148.24 264.128 147.642C264.725 147.13 265.024 146.49 265.024 145.722C265.024 144.869 264.683 144.186 264 143.674C263.317 143.248 262.549 143.034 261.696 143.034C259.989 143.034 258.667 143.845 257.728 145.466C256.789 147.173 255.936 149.349 255.168 151.994C253.376 158.138 251.072 163.088 248.256 166.842C245.44 170.597 241.131 172.474 235.328 172.474C229.013 172.474 224.021 170.042 220.352 165.178C216.768 160.4 214.976 154.042 214.976 146.106ZM287.04 188.023C287.04 184.525 288.149 181.623 290.368 179.319C292.672 177.101 295.573 175.991 299.072 175.991C302.656 175.991 305.557 177.101 307.776 179.319C309.995 181.623 311.104 184.525 311.104 188.023C311.104 191.522 309.995 194.381 307.776 196.599C305.557 198.903 302.656 200.056 299.072 200.055C295.659 200.055 292.8 198.903 290.496 196.599C288.192 194.381 287.04 191.522 287.04 188.023ZM216 178.167C216 177.57 216.171 177.101 216.512 176.759C216.853 176.418 217.323 176.247 217.92 176.247L280.64 176.247C281.237 176.247 281.707 176.418 282.048 176.759C282.389 177.101 282.56 177.57 282.56 178.167L282.56 198.391C282.56 198.989 282.389 199.458 282.048 199.799C281.707 200.141 281.237 200.311 280.64 200.311L217.92 200.311C217.323 200.311 216.853 200.141 216.512 199.799C216.171 199.458 216 198.989 216 198.391L216 178.167ZM280.64 234.562C281.237 234.562 281.707 234.733 282.048 235.074C282.389 235.416 282.56 235.885 282.56 236.482L282.56 256.706C282.56 257.304 282.389 257.773 282.048 258.114C281.707 258.456 281.237 258.627 280.64 258.627L220.352 258.626C213.952 258.626 208.491 257.688 203.968 255.81C199.445 254.018 195.861 250.648 193.216 245.698C190.485 240.749 189.12 233.794 189.12 224.834C189.12 221.506 189.205 218.904 189.376 217.026C189.376 215.746 190.016 215.106 191.296 215.106L208.32 215.106C209.685 215.106 210.283 215.789 210.112 217.154L209.984 220.354C209.984 225.133 210.667 228.504 212.032 230.466C213.312 232.514 215.232 233.794 217.792 234.306C218.048 234.306 218.261 234.008 218.432 233.41C218.603 232.898 218.603 232.514 218.432 232.258C216.128 229.869 214.976 226.584 214.976 222.402C214.976 216.258 216.939 211.778 220.864 208.962C224.789 206.232 230.421 204.866 237.76 204.866L260.8 204.866C268.395 204.866 274.069 206.274 277.824 209.09C281.664 211.906 283.584 216.344 283.584 222.402C283.584 227.352 281.707 231.106 277.952 233.666C277.611 233.837 277.44 234.008 277.44 234.178C277.525 234.434 277.739 234.562 278.08 234.562L280.64 234.562ZM235.584 231.618C235.584 232.472 235.968 233.154 236.736 233.666C237.504 234.264 238.485 234.562 239.68 234.562L258.88 234.562C260.075 234.562 261.056 234.264 261.824 233.666C262.592 233.154 262.976 232.472 262.976 231.618C262.976 230.765 262.592 230.082 261.824 229.57C261.056 229.144 260.075 228.93 258.88 228.93L239.68 228.93C238.485 228.93 237.504 229.144 236.736 229.57C235.968 230.082 235.584 230.765 235.584 231.618ZM283.584 299.837C283.584 311.955 275.904 318.014 260.544 318.014L217.92 318.013C217.323 318.013 216.853 317.843 216.512 317.501C216.171 317.16 216 316.691 216 316.093L216 295.869C216 295.272 216.171 294.803 216.512 294.461C216.853 294.12 217.323 293.949 217.92 293.949L258.88 293.949C261.611 293.949 262.976 293.053 262.976 291.261C262.976 289.299 261.611 288.317 258.88 288.317L217.92 288.317C217.323 288.317 216.853 288.147 216.512 287.805C216.171 287.464 216 286.995 216 286.397L216 266.173C216 265.576 216.171 265.107 216.512 264.765C216.853 264.424 217.323 264.253 217.92 264.253L280.64 264.253C281.237 264.253 281.707 264.424 282.048 264.765C282.389 265.107 282.56 265.576 282.56 266.173L282.56 286.397C282.56 286.995 282.389 287.464 282.048 287.805C281.707 288.147 281.237 288.317 280.64 288.317L278.72 288.317C278.549 288.317 278.464 288.403 278.464 288.573C278.464 289 278.848 289.512 279.616 290.109C282.261 292.584 283.584 295.827 283.584 299.837Z" fill="#333333"/>
</g>
</svg>
