<svg width="484" height="234" viewBox="0 0 484 234" fill="none" xmlns="http://www.w3.org/2000/svg">
<mask id="mask0" mask-type="alpha" maskUnits="userSpaceOnUse" x="0" y="0" width="484" height="234">
<rect width="484" height="234" fill="#C4C4C4"/>
</mask>
<g mask="url(#mask0)">
<rect opacity="0.1" width="371" height="234" fill="#F6F6F6"/>
<path d="M215.596 76.344C213.389 76.344 211.611 75.6703 210.264 74.323C208.945 72.9757 208.286 71.1697 208.286 68.905V52.952C208.286 50.716 208.945 48.9243 210.264 47.577C211.611 46.2297 213.389 45.556 215.596 45.556C217.832 45.556 219.609 46.2297 220.928 47.577C222.275 48.8957 222.949 50.6873 222.949 52.952V53.683C222.949 53.9697 222.806 54.113 222.519 54.113L220.283 54.242C219.996 54.242 219.853 54.0987 219.853 53.812V52.737C219.853 51.3897 219.466 50.3003 218.692 49.469C217.918 48.6377 216.886 48.222 215.596 48.222C214.335 48.222 213.303 48.6377 212.5 49.469C211.726 50.3003 211.339 51.3897 211.339 52.737V69.163C211.339 70.5103 211.726 71.5997 212.5 72.431C213.303 73.2623 214.335 73.678 215.596 73.678C216.886 73.678 217.918 73.2623 218.692 72.431C219.466 71.5997 219.853 70.5103 219.853 69.163V68.088C219.853 67.8013 219.996 67.658 220.283 67.658L222.519 67.787C222.806 67.787 222.949 67.9303 222.949 68.217V68.905C222.949 71.1697 222.275 72.9757 220.928 74.323C219.581 75.6703 217.803 76.344 215.596 76.344ZM235.087 54.027C235.804 54.027 236.42 54.1847 236.936 54.5C237.137 54.6147 237.209 54.801 237.151 55.059L236.635 57.295C236.607 57.553 236.435 57.639 236.119 57.553C235.775 57.381 235.345 57.295 234.829 57.295C234.6 57.295 234.428 57.3093 234.313 57.338C233.281 57.3953 232.436 57.94 231.776 58.972C231.117 59.9753 230.787 61.208 230.787 62.67V75.57C230.787 75.8567 230.644 76 230.357 76H228.164C227.878 76 227.734 75.8567 227.734 75.57V54.672C227.734 54.3853 227.878 54.242 228.164 54.242H230.357C230.644 54.242 230.787 54.3853 230.787 54.672V57.252C230.787 57.338 230.802 57.381 230.83 57.381C230.888 57.381 230.945 57.3523 231.002 57.295C231.834 55.1163 233.195 54.027 235.087 54.027ZM253.108 65.852C253.108 66.1387 252.965 66.282 252.678 66.282H242.874C242.759 66.282 242.702 66.3393 242.702 66.454V69.593C242.702 70.797 243.032 71.786 243.691 72.56C244.379 73.3053 245.268 73.678 246.357 73.678C247.274 73.678 248.048 73.4057 248.679 72.861C249.338 72.2877 249.768 71.5567 249.969 70.668C250.055 70.41 250.213 70.281 250.442 70.281L252.592 70.367C252.707 70.367 252.807 70.41 252.893 70.496C252.979 70.582 253.008 70.6967 252.979 70.84C252.75 72.5313 252.047 73.8787 250.872 74.882C249.725 75.8567 248.22 76.344 246.357 76.344C244.322 76.344 242.688 75.742 241.455 74.538C240.251 73.334 239.649 71.743 239.649 69.765V60.477C239.649 58.5277 240.251 56.951 241.455 55.747C242.688 54.5143 244.322 53.898 246.357 53.898C248.421 53.898 250.055 54.5143 251.259 55.747C252.492 56.951 253.108 58.5277 253.108 60.477V65.852ZM246.357 56.564C245.268 56.564 244.379 56.951 243.691 57.725C243.032 58.4703 242.702 59.4593 242.702 60.692V63.573C242.702 63.6877 242.759 63.745 242.874 63.745H249.926C250.041 63.745 250.098 63.6877 250.098 63.573V60.692C250.098 59.4593 249.754 58.4703 249.066 57.725C248.378 56.951 247.475 56.564 246.357 56.564ZM263.829 53.898C265.835 53.898 267.441 54.5573 268.645 55.876C269.849 57.166 270.451 58.9003 270.451 61.079V75.57C270.451 75.8567 270.307 76 270.021 76H267.828C267.541 76 267.398 75.8567 267.398 75.57V74.28C267.398 74.2227 267.369 74.194 267.312 74.194C267.283 74.1653 267.24 74.1797 267.183 74.237C266.122 75.6417 264.531 76.344 262.41 76.344C260.833 76.344 259.457 75.8997 258.282 75.011C257.135 74.0937 256.562 72.4883 256.562 70.195C256.562 67.7583 257.264 65.981 258.669 64.863C260.073 63.7163 261.922 63.143 264.216 63.143H267.226C267.34 63.143 267.398 63.0857 267.398 62.971V61.294C267.398 59.8607 267.068 58.714 266.409 57.854C265.749 56.994 264.861 56.564 263.743 56.564C262.883 56.564 262.137 56.8507 261.507 57.424C260.905 57.9973 260.546 58.7283 260.432 59.617C260.432 59.9037 260.288 60.047 260.002 60.047L257.594 60.004C257.45 60.004 257.336 59.961 257.25 59.875C257.192 59.789 257.178 59.6887 257.207 59.574C257.35 57.8827 258.038 56.521 259.271 55.489C260.503 54.4283 262.023 53.898 263.829 53.898ZM263.055 73.678C264.23 73.678 265.248 73.3053 266.108 72.56C266.968 71.786 267.398 70.7253 267.398 69.378V65.766C267.398 65.6513 267.34 65.594 267.226 65.594H264.173C262.797 65.594 261.707 65.9667 260.905 66.712C260.102 67.4287 259.701 68.5037 259.701 69.937C259.701 71.1983 260.002 72.1443 260.604 72.775C261.234 73.377 262.051 73.678 263.055 73.678ZM282.881 56.091C282.881 56.3777 282.738 56.521 282.451 56.521H279.183C279.069 56.521 279.011 56.5783 279.011 56.693V69.851C279.011 71.1697 279.241 72.087 279.699 72.603C280.158 73.0903 280.86 73.3197 281.806 73.291H282.236C282.523 73.291 282.666 73.4343 282.666 73.721V75.57C282.666 75.8567 282.523 76 282.236 76H281.161C279.47 76 278.18 75.6417 277.291 74.925C276.431 74.1797 276.001 72.7893 276.001 70.754V56.693C276.001 56.5783 275.944 56.521 275.829 56.521H274.152C273.866 56.521 273.722 56.3777 273.722 56.091V54.672C273.722 54.3853 273.866 54.242 274.152 54.242H275.829C275.944 54.242 276.001 54.1847 276.001 54.07V49.254C276.001 48.9673 276.145 48.824 276.431 48.824H278.581C278.868 48.824 279.011 48.9673 279.011 49.254V54.07C279.011 54.1847 279.069 54.242 279.183 54.242H282.451C282.738 54.242 282.881 54.3853 282.881 54.672V56.091ZM288.54 50.286C287.824 50.286 287.236 50.0567 286.777 49.598C286.347 49.1393 286.132 48.566 286.132 47.878C286.132 47.1613 286.347 46.588 286.777 46.158C287.236 45.6993 287.824 45.47 288.54 45.47C289.228 45.47 289.787 45.6993 290.217 46.158C290.676 46.588 290.905 47.1613 290.905 47.878C290.905 48.566 290.676 49.1393 290.217 49.598C289.787 50.0567 289.228 50.286 288.54 50.286ZM287.465 76C287.179 76 287.035 75.8567 287.035 75.57V54.672C287.035 54.3853 287.179 54.242 287.465 54.242H289.658C289.945 54.242 290.088 54.3853 290.088 54.672V75.57C290.088 75.8567 289.945 76 289.658 76H287.465ZM303.376 53.941C305.124 53.941 306.472 54.543 307.418 55.747C308.392 56.951 308.88 58.628 308.88 60.778V75.57C308.88 75.8567 308.736 76 308.45 76H306.257C305.97 76 305.827 75.8567 305.827 75.57V61.036C305.827 59.6313 305.511 58.542 304.881 57.768C304.279 56.994 303.433 56.607 302.344 56.607C301.197 56.607 300.294 57.0227 299.635 57.854C299.004 58.6853 298.689 59.8177 298.689 61.251V75.57C298.689 75.8567 298.545 76 298.259 76H296.066C295.779 76 295.636 75.8567 295.636 75.57V54.672C295.636 54.3853 295.779 54.242 296.066 54.242H298.259C298.545 54.242 298.689 54.3853 298.689 54.672V56.048C298.689 56.1053 298.717 56.1483 298.775 56.177C298.832 56.2057 298.875 56.177 298.904 56.091C299.42 55.3743 300.065 54.844 300.839 54.5C301.641 54.1273 302.487 53.941 303.376 53.941ZM323.75 54.672C323.75 54.3853 323.894 54.242 324.18 54.242H326.373C326.66 54.242 326.803 54.3853 326.803 54.672V75.57C326.803 78.6373 326.087 80.9593 324.653 82.536C323.249 84.1413 320.884 84.8723 317.558 84.729C317.272 84.7003 317.128 84.5427 317.128 84.256V82.407C317.128 82.1203 317.272 81.977 317.558 81.977C319.852 82.0343 321.457 81.504 322.374 80.386C323.292 79.2967 323.75 77.6053 323.75 75.312V74.022C323.75 73.9647 323.722 73.9217 323.664 73.893C323.636 73.8643 323.593 73.8787 323.535 73.936C323.048 74.6527 322.417 75.1973 321.643 75.57C320.898 75.9427 320.095 76.129 319.235 76.129C317.429 76.129 315.996 75.527 314.935 74.323C313.903 73.119 313.387 71.528 313.387 69.55V60.477C313.387 58.4703 313.903 56.8793 314.935 55.704C315.996 54.5 317.429 53.898 319.235 53.898C320.095 53.898 320.898 54.0843 321.643 54.457C322.417 54.801 323.048 55.3313 323.535 56.048C323.593 56.134 323.636 56.177 323.664 56.177C323.722 56.1483 323.75 56.091 323.75 56.005V54.672ZM320.138 73.463C321.199 73.463 322.059 73.0903 322.718 72.345C323.406 71.571 323.75 70.582 323.75 69.378V60.692C323.75 59.4593 323.406 58.4703 322.718 57.725C322.059 56.951 321.199 56.564 320.138 56.564C319.049 56.564 318.16 56.951 317.472 57.725C316.784 58.4703 316.44 59.4593 316.44 60.692V69.378C316.44 70.582 316.784 71.571 317.472 72.345C318.16 73.0903 319.049 73.463 320.138 73.463ZM224.676 128.215C222.698 128.215 221.107 127.713 219.903 126.71C218.728 125.678 218.14 124.316 218.14 122.625V122.324C218.14 122.037 218.283 121.894 218.57 121.894H220.634C220.921 121.894 221.064 122.037 221.064 122.324V122.582C221.064 123.499 221.394 124.273 222.053 124.904C222.741 125.535 223.63 125.85 224.719 125.85C225.751 125.85 226.582 125.535 227.213 124.904C227.844 124.273 228.159 123.471 228.159 122.496C228.159 121.751 227.958 121.134 227.557 120.647C227.156 120.131 226.683 119.73 226.138 119.443C225.622 119.156 224.834 118.784 223.773 118.325C222.655 117.866 221.723 117.422 220.978 116.992C220.261 116.533 219.631 115.903 219.086 115.1C218.57 114.269 218.312 113.222 218.312 111.961C218.312 110.126 218.871 108.679 219.989 107.618C221.136 106.557 222.669 106.027 224.59 106.027C226.539 106.027 228.087 106.572 229.234 107.661C230.381 108.75 230.954 110.198 230.954 112.004V112.133C230.954 112.42 230.811 112.563 230.524 112.563H228.546C228.259 112.563 228.116 112.42 228.116 112.133V111.875C228.116 110.9 227.786 110.098 227.127 109.467C226.496 108.836 225.665 108.521 224.633 108.521C223.601 108.521 222.77 108.851 222.139 109.51C221.537 110.141 221.236 110.929 221.236 111.875C221.236 112.563 221.422 113.151 221.795 113.638C222.168 114.097 222.626 114.484 223.171 114.799C223.716 115.086 224.475 115.444 225.45 115.874C226.625 116.39 227.586 116.877 228.331 117.336C229.105 117.795 229.779 118.44 230.352 119.271C230.925 120.102 231.212 121.134 231.212 122.367C231.212 124.144 230.624 125.563 229.449 126.624C228.274 127.685 226.683 128.215 224.676 128.215ZM233.974 136.6C233.917 136.6 233.859 136.557 233.802 136.471C233.745 136.385 233.716 136.285 233.716 136.17V134.45C233.716 134.163 233.859 134.02 234.146 134.02C235.035 133.991 235.723 133.819 236.21 133.504C236.726 133.189 237.142 132.63 237.457 131.827C237.772 131.024 238.088 129.792 238.403 128.129C238.432 128.072 238.432 128.029 238.403 128C238.403 127.943 238.403 127.9 238.403 127.871L232.942 106.715L232.899 106.586C232.899 106.357 233.042 106.242 233.329 106.242H235.651C235.938 106.242 236.095 106.371 236.124 106.629L239.908 123.528C239.937 123.614 239.965 123.657 239.994 123.657C240.023 123.657 240.051 123.614 240.08 123.528L243.821 106.629C243.878 106.371 244.036 106.242 244.294 106.242L246.702 106.285C246.845 106.285 246.946 106.328 247.003 106.414C247.089 106.5 247.103 106.615 247.046 106.758L241.069 129.892C240.553 131.813 240.037 133.232 239.521 134.149C239.034 135.066 238.389 135.697 237.586 136.041C236.783 136.414 235.651 136.6 234.189 136.6H233.974ZM258.276 105.941C260.025 105.941 261.372 106.543 262.318 107.747C263.293 108.951 263.78 110.628 263.78 112.778V127.57C263.78 127.857 263.637 128 263.35 128H261.157C260.87 128 260.727 127.857 260.727 127.57V113.036C260.727 111.631 260.412 110.542 259.781 109.768C259.179 108.994 258.333 108.607 257.244 108.607C256.097 108.607 255.194 109.023 254.535 109.854C253.904 110.685 253.589 111.818 253.589 113.251V127.57C253.589 127.857 253.446 128 253.159 128H250.966C250.679 128 250.536 127.857 250.536 127.57V106.672C250.536 106.385 250.679 106.242 250.966 106.242H253.159C253.446 106.242 253.589 106.385 253.589 106.672V108.048C253.589 108.105 253.618 108.148 253.675 108.177C253.732 108.206 253.775 108.177 253.804 108.091C254.32 107.374 254.965 106.844 255.739 106.5C256.542 106.127 257.387 105.941 258.276 105.941ZM281.747 117.852C281.747 118.139 281.603 118.282 281.317 118.282H271.513C271.398 118.282 271.341 118.339 271.341 118.454V121.593C271.341 122.797 271.67 123.786 272.33 124.56C273.018 125.305 273.906 125.678 274.996 125.678C275.913 125.678 276.687 125.406 277.318 124.861C277.977 124.288 278.407 123.557 278.608 122.668C278.694 122.41 278.851 122.281 279.081 122.281L281.231 122.367C281.345 122.367 281.446 122.41 281.532 122.496C281.618 122.582 281.646 122.697 281.618 122.84C281.388 124.531 280.686 125.879 279.511 126.882C278.364 127.857 276.859 128.344 274.996 128.344C272.96 128.344 271.326 127.742 270.094 126.538C268.89 125.334 268.288 123.743 268.288 121.765V112.477C268.288 110.528 268.89 108.951 270.094 107.747C271.326 106.514 272.96 105.898 274.996 105.898C277.06 105.898 278.694 106.514 279.898 107.747C281.13 108.951 281.747 110.528 281.747 112.477V117.852ZM274.996 108.564C273.906 108.564 273.018 108.951 272.33 109.725C271.67 110.47 271.341 111.459 271.341 112.692V115.573C271.341 115.688 271.398 115.745 271.513 115.745H278.565C278.679 115.745 278.737 115.688 278.737 115.573V112.692C278.737 111.459 278.393 110.47 277.705 109.725C277.017 108.951 276.114 108.564 274.996 108.564ZM293.624 106.027C294.341 106.027 294.957 106.185 295.473 106.5C295.674 106.615 295.746 106.801 295.688 107.059L295.172 109.295C295.144 109.553 294.972 109.639 294.656 109.553C294.312 109.381 293.882 109.295 293.366 109.295C293.137 109.295 292.965 109.309 292.85 109.338C291.818 109.395 290.973 109.94 290.313 110.972C289.654 111.975 289.324 113.208 289.324 114.67V127.57C289.324 127.857 289.181 128 288.894 128H286.701C286.415 128 286.271 127.857 286.271 127.57V106.672C286.271 106.385 286.415 106.242 286.701 106.242H288.894C289.181 106.242 289.324 106.385 289.324 106.672V109.252C289.324 109.338 289.339 109.381 289.367 109.381C289.425 109.381 289.482 109.352 289.539 109.295C290.371 107.116 291.732 106.027 293.624 106.027ZM308.507 106.672C308.507 106.385 308.65 106.242 308.937 106.242H311.13C311.417 106.242 311.56 106.385 311.56 106.672V127.57C311.56 130.637 310.843 132.959 309.41 134.536C308.005 136.141 305.64 136.872 302.315 136.729C302.028 136.7 301.885 136.543 301.885 136.256V134.407C301.885 134.12 302.028 133.977 302.315 133.977C304.608 134.034 306.214 133.504 307.131 132.386C308.048 131.297 308.507 129.605 308.507 127.312V126.022C308.507 125.965 308.478 125.922 308.421 125.893C308.392 125.864 308.349 125.879 308.292 125.936C307.805 126.653 307.174 127.197 306.4 127.57C305.655 127.943 304.852 128.129 303.992 128.129C302.186 128.129 300.753 127.527 299.692 126.323C298.66 125.119 298.144 123.528 298.144 121.55V112.477C298.144 110.47 298.66 108.879 299.692 107.704C300.753 106.5 302.186 105.898 303.992 105.898C304.852 105.898 305.655 106.084 306.4 106.457C307.174 106.801 307.805 107.331 308.292 108.048C308.349 108.134 308.392 108.177 308.421 108.177C308.478 108.148 308.507 108.091 308.507 108.005V106.672ZM304.895 125.463C305.956 125.463 306.816 125.09 307.475 124.345C308.163 123.571 308.507 122.582 308.507 121.378V112.692C308.507 111.459 308.163 110.47 307.475 109.725C306.816 108.951 305.956 108.564 304.895 108.564C303.806 108.564 302.917 108.951 302.229 109.725C301.541 110.47 301.197 111.459 301.197 112.692V121.378C301.197 122.582 301.541 123.571 302.229 124.345C302.917 125.09 303.806 125.463 304.895 125.463ZM315.061 136.6C315.004 136.6 314.946 136.557 314.889 136.471C314.832 136.385 314.803 136.285 314.803 136.17V134.45C314.803 134.163 314.946 134.02 315.233 134.02C316.122 133.991 316.81 133.819 317.297 133.504C317.813 133.189 318.229 132.63 318.544 131.827C318.859 131.024 319.175 129.792 319.49 128.129C319.519 128.072 319.519 128.029 319.49 128C319.49 127.943 319.49 127.9 319.49 127.871L314.029 106.715L313.986 106.586C313.986 106.357 314.129 106.242 314.416 106.242H316.738C317.025 106.242 317.182 106.371 317.211 106.629L320.995 123.528C321.024 123.614 321.052 123.657 321.081 123.657C321.11 123.657 321.138 123.614 321.167 123.528L324.908 106.629C324.965 106.371 325.123 106.242 325.381 106.242L327.789 106.285C327.932 106.285 328.033 106.328 328.09 106.414C328.176 106.5 328.19 106.615 328.133 106.758L322.156 129.892C321.64 131.813 321.124 133.232 320.608 134.149C320.121 135.066 319.476 135.697 318.673 136.041C317.87 136.414 316.738 136.6 315.276 136.6H315.061ZM225.142 160.091C225.142 160.378 224.999 160.521 224.712 160.521H221.444C221.33 160.521 221.272 160.578 221.272 160.693V173.851C221.272 175.17 221.502 176.087 221.96 176.603C222.419 177.09 223.121 177.32 224.067 177.291H224.497C224.784 177.291 224.927 177.434 224.927 177.721V179.57C224.927 179.857 224.784 180 224.497 180H223.422C221.731 180 220.441 179.642 219.552 178.925C218.692 178.18 218.262 176.789 218.262 174.754V160.693C218.262 160.578 218.205 160.521 218.09 160.521H216.413C216.127 160.521 215.983 160.378 215.983 160.091V158.672C215.983 158.385 216.127 158.242 216.413 158.242H218.09C218.205 158.242 218.262 158.185 218.262 158.07V153.254C218.262 152.967 218.406 152.824 218.692 152.824H220.842C221.129 152.824 221.272 152.967 221.272 153.254V158.07C221.272 158.185 221.33 158.242 221.444 158.242H224.712C224.999 158.242 225.142 158.385 225.142 158.672V160.091ZM236.692 157.941C238.441 157.941 239.788 158.543 240.734 159.747C241.709 160.951 242.196 162.628 242.196 164.778V179.57C242.196 179.857 242.053 180 241.766 180H239.573C239.286 180 239.143 179.857 239.143 179.57V165.036C239.143 163.631 238.828 162.542 238.197 161.768C237.595 160.994 236.749 160.607 235.66 160.607C234.513 160.607 233.61 161.023 232.951 161.854C232.32 162.685 232.005 163.818 232.005 165.251V179.57C232.005 179.857 231.862 180 231.575 180H229.382C229.095 180 228.952 179.857 228.952 179.57V150.33C228.952 150.043 229.095 149.9 229.382 149.9H231.575C231.862 149.9 232.005 150.043 232.005 150.33V160.048C232.005 160.105 232.034 160.148 232.091 160.177C232.148 160.206 232.191 160.177 232.22 160.091C232.736 159.374 233.381 158.844 234.155 158.5C234.958 158.127 235.803 157.941 236.692 157.941ZM254.53 158.027C255.246 158.027 255.863 158.185 256.379 158.5C256.579 158.615 256.651 158.801 256.594 159.059L256.078 161.295C256.049 161.553 255.877 161.639 255.562 161.553C255.218 161.381 254.788 161.295 254.272 161.295C254.042 161.295 253.87 161.309 253.756 161.338C252.724 161.395 251.878 161.94 251.219 162.972C250.559 163.975 250.23 165.208 250.23 166.67V179.57C250.23 179.857 250.086 180 249.8 180H247.607C247.32 180 247.177 179.857 247.177 179.57V158.672C247.177 158.385 247.32 158.242 247.607 158.242H249.8C250.086 158.242 250.23 158.385 250.23 158.672V161.252C250.23 161.338 250.244 161.381 250.273 161.381C250.33 161.381 250.387 161.352 250.445 161.295C251.276 159.116 252.638 158.027 254.53 158.027ZM265.842 180.344C263.778 180.344 262.13 179.742 260.897 178.538C259.693 177.334 259.091 175.743 259.091 173.765V164.52C259.091 162.571 259.708 160.98 260.94 159.747C262.173 158.514 263.807 157.898 265.842 157.898C267.906 157.898 269.555 158.514 270.787 159.747C272.02 160.98 272.636 162.571 272.636 164.52V173.765C272.636 175.743 272.02 177.334 270.787 178.538C269.555 179.742 267.906 180.344 265.842 180.344ZM265.842 177.635C266.932 177.635 267.82 177.262 268.508 176.517C269.225 175.772 269.583 174.783 269.583 173.55V164.692C269.583 163.459 269.225 162.47 268.508 161.725C267.82 160.951 266.932 160.564 265.842 160.564C264.753 160.564 263.864 160.951 263.176 161.725C262.488 162.47 262.144 163.459 262.144 164.692V173.55C262.144 174.783 262.488 175.772 263.176 176.517C263.864 177.262 264.753 177.635 265.842 177.635ZM287.344 158.672C287.344 158.385 287.487 158.242 287.774 158.242H289.967C290.254 158.242 290.397 158.385 290.397 158.672V179.57C290.397 179.857 290.254 180 289.967 180H287.774C287.487 180 287.344 179.857 287.344 179.57V178.108C287.344 178.022 287.315 177.979 287.258 177.979C287.229 177.979 287.186 178.008 287.129 178.065C286.24 179.556 284.807 180.301 282.829 180.301C281.109 180.301 279.733 179.785 278.701 178.753C277.698 177.692 277.196 176.101 277.196 173.98V158.672C277.196 158.385 277.339 158.242 277.626 158.242H279.819C280.106 158.242 280.249 158.385 280.249 158.672V173.292C280.249 174.725 280.536 175.815 281.109 176.56C281.711 177.277 282.571 177.635 283.689 177.635C284.836 177.635 285.724 177.219 286.355 176.388C287.014 175.557 287.344 174.424 287.344 172.991V158.672ZM305.526 158.672C305.526 158.385 305.669 158.242 305.956 158.242H308.149C308.435 158.242 308.579 158.385 308.579 158.672V179.57C308.579 182.637 307.862 184.959 306.429 186.536C305.024 188.141 302.659 188.872 299.334 188.729C299.047 188.7 298.904 188.543 298.904 188.256V186.407C298.904 186.12 299.047 185.977 299.334 185.977C301.627 186.034 303.232 185.504 304.15 184.386C305.067 183.297 305.526 181.605 305.526 179.312V178.022C305.526 177.965 305.497 177.922 305.44 177.893C305.411 177.864 305.368 177.879 305.311 177.936C304.823 178.653 304.193 179.197 303.419 179.57C302.673 179.943 301.871 180.129 301.011 180.129C299.205 180.129 297.771 179.527 296.711 178.323C295.679 177.119 295.163 175.528 295.163 173.55V164.477C295.163 162.47 295.679 160.879 296.711 159.704C297.771 158.5 299.205 157.898 301.011 157.898C301.871 157.898 302.673 158.084 303.419 158.457C304.193 158.801 304.823 159.331 305.311 160.048C305.368 160.134 305.411 160.177 305.44 160.177C305.497 160.148 305.526 160.091 305.526 160.005V158.672ZM301.914 177.463C302.974 177.463 303.834 177.09 304.494 176.345C305.182 175.571 305.526 174.582 305.526 173.378V164.692C305.526 163.459 305.182 162.47 304.494 161.725C303.834 160.951 302.974 160.564 301.914 160.564C300.824 160.564 299.936 160.951 299.248 161.725C298.56 162.47 298.216 163.459 298.216 164.692V173.378C298.216 174.582 298.56 175.571 299.248 176.345C299.936 177.09 300.824 177.463 301.914 177.463ZM321.138 157.941C322.887 157.941 324.234 158.543 325.18 159.747C326.155 160.951 326.642 162.628 326.642 164.778V179.57C326.642 179.857 326.499 180 326.212 180H324.019C323.733 180 323.589 179.857 323.589 179.57V165.036C323.589 163.631 323.274 162.542 322.643 161.768C322.041 160.994 321.196 160.607 320.106 160.607C318.96 160.607 318.057 161.023 317.397 161.854C316.767 162.685 316.451 163.818 316.451 165.251V179.57C316.451 179.857 316.308 180 316.021 180H313.828C313.542 180 313.398 179.857 313.398 179.57V150.33C313.398 150.043 313.542 149.9 313.828 149.9H316.021C316.308 149.9 316.451 150.043 316.451 150.33V160.048C316.451 160.105 316.48 160.148 316.537 160.177C316.595 160.206 316.638 160.177 316.666 160.091C317.182 159.374 317.827 158.844 318.601 158.5C319.404 158.127 320.25 157.941 321.138 157.941Z" fill="#287094"/>
<path opacity="0.1" d="M413 -0.014672C413 -0.458005 413.127 -0.806339 413.38 -1.05967C413.633 -1.31301 413.982 -1.43967 414.425 -1.43967L478.075 -1.43967C478.518 -1.43967 478.867 -1.313 479.12 -1.05967C479.373 -0.806336 479.5 -0.458002 479.5 -0.0146691L479.5 18.7003C479.5 22.8803 478.708 26.5537 477.125 29.7203C475.542 32.9503 473.293 35.452 470.38 37.2253C467.53 38.9987 464.237 39.8853 460.5 39.8853L432 39.8853C428.263 39.8853 424.938 38.9987 422.025 37.2253C419.175 35.452 416.958 32.9503 415.375 29.7203C413.792 26.5537 413 22.8803 413 18.7003L413 -0.014672ZM428.865 16.4203C428.485 16.4203 428.295 16.6103 428.295 16.9903L428.39 18.3203C428.453 19.3337 428.928 20.1887 429.815 20.8853C430.702 21.582 431.842 21.962 433.235 22.0253L459.36 22.0253C460.817 22.0253 461.988 21.677 462.875 20.9803C463.762 20.2837 464.205 19.3653 464.205 18.2253L464.205 16.9903C464.205 16.6103 464.015 16.4203 463.635 16.4203L428.865 16.4203ZM434.66 83.7182C434.217 83.7182 433.868 83.5915 433.615 83.3382C433.362 83.0848 433.235 82.7365 433.235 82.2932L433.235 62.1532C433.235 61.7732 433.045 61.5832 432.665 61.5832L430.575 61.5832C429.688 61.5832 428.96 61.7732 428.39 62.1532C427.82 62.5965 427.535 63.1348 427.535 63.7682C427.535 64.4015 427.757 64.8765 428.2 65.1932C428.643 65.5732 429.213 65.8265 429.91 65.9532C430.797 66.2698 431.208 66.8082 431.145 67.5682L430.195 82.1032C430.068 83.0532 429.562 83.4965 428.675 83.4332C423.102 83.1165 418.953 81.3432 416.23 78.1132C413.57 74.9465 412.24 70.1648 412.24 63.7682C412.24 57.4348 413.697 52.4948 416.61 48.9482C419.587 45.4648 423.767 43.7232 429.15 43.7232L446.25 43.7232C451.38 43.7232 455.465 45.4965 458.505 49.0432C461.608 52.5898 463.16 57.4982 463.16 63.7682C463.16 70.0382 461.608 74.9148 458.505 78.3982C455.465 81.9448 451.38 83.7182 446.25 83.7182L434.66 83.7182ZM447.865 63.7682C447.865 63.1348 447.58 62.5965 447.01 62.1532C446.44 61.7732 445.712 61.5832 444.825 61.5832L442.545 61.5832C442.165 61.5832 441.975 61.7732 441.975 62.1532L441.975 65.2882C441.975 65.6682 442.165 65.8582 442.545 65.8582L444.825 65.8582C445.712 65.8582 446.44 65.6682 447.01 65.2882C447.58 64.9082 447.865 64.4015 447.865 63.7682ZM412.24 106.431C412.24 100.351 413.665 95.4739 416.515 91.8006C419.365 88.1906 423.133 86.3856 427.82 86.3856L428.105 86.3856C428.548 86.3856 428.897 86.5123 429.15 86.7656C429.403 87.0189 429.53 87.3673 429.53 87.8106L429.53 102.061C429.53 102.504 429.403 102.852 429.15 103.106C428.96 103.359 428.675 103.486 428.295 103.486C427.345 103.486 426.617 103.771 426.11 104.341C425.603 104.911 425.35 105.544 425.35 106.241C425.35 106.811 425.508 107.254 425.825 107.571C426.205 107.887 426.648 108.046 427.155 108.046C428.105 108.046 428.802 107.571 429.245 106.621C429.752 105.671 430.322 104.087 430.955 101.871C431.145 101.111 431.398 100.224 431.715 99.2106C432.792 95.8539 434.533 92.9723 436.94 90.5656C439.41 88.2223 442.767 87.0506 447.01 87.0506C451.95 87.0506 455.877 88.7606 458.79 92.1806C461.703 95.6006 463.16 100.097 463.16 105.671C463.16 111.497 461.577 116.152 458.41 119.636C455.243 123.119 451.063 124.861 445.87 124.861C445.617 124.861 445.395 124.734 445.205 124.481C445.015 124.227 444.92 123.879 444.92 123.436L444.92 109.661C444.92 109.217 445.047 108.869 445.3 108.616C445.553 108.362 445.902 108.236 446.345 108.236L446.915 108.236C447.675 108.236 448.277 108.014 448.72 107.571C449.163 107.191 449.385 106.716 449.385 106.146C449.385 105.512 449.132 105.006 448.625 104.626C448.118 104.309 447.548 104.151 446.915 104.151C445.648 104.151 444.667 104.752 443.97 105.956C443.273 107.222 442.64 108.837 442.07 110.801C440.74 115.361 439.03 119.034 436.94 121.821C434.85 124.607 431.652 126.001 427.345 126.001C422.658 126.001 418.953 124.196 416.23 120.586C413.57 117.039 412.24 112.321 412.24 106.431ZM465.725 137.541C465.725 134.944 466.548 132.791 468.195 131.081C469.905 129.434 472.058 128.611 474.655 128.611C477.315 128.611 479.468 129.434 481.115 131.081C482.762 132.791 483.585 134.944 483.585 137.541C483.585 140.138 482.762 142.259 481.115 143.906C479.468 145.616 477.315 146.471 474.655 146.471C472.122 146.471 470 145.616 468.29 143.906C466.58 142.259 465.725 140.138 465.725 137.541ZM413 130.226C413 129.783 413.127 129.434 413.38 129.181C413.633 128.928 413.982 128.801 414.425 128.801L460.975 128.801C461.418 128.801 461.767 128.928 462.02 129.181C462.273 129.434 462.4 129.783 462.4 130.226L462.4 145.236C462.4 145.679 462.273 146.028 462.02 146.281C461.767 146.534 461.418 146.661 460.975 146.661L414.425 146.661C413.982 146.661 413.633 146.534 413.38 146.281C413.127 146.028 413 145.679 413 145.236L413 130.226ZM460.975 172.082C461.418 172.082 461.767 172.208 462.02 172.462C462.273 172.715 462.4 173.063 462.4 173.507L462.4 188.517C462.4 188.96 462.273 189.308 462.02 189.562C461.767 189.815 461.418 189.942 460.975 189.942L416.23 189.942C411.48 189.942 407.427 189.245 404.07 187.852C400.713 186.522 398.053 184.02 396.09 180.347C394.063 176.673 393.05 171.512 393.05 164.862C393.05 162.392 393.113 160.46 393.24 159.067C393.24 158.117 393.715 157.642 394.665 157.642L407.3 157.642C408.313 157.642 408.757 158.148 408.63 159.162L408.535 161.537C408.535 165.083 409.042 167.585 410.055 169.042C411.005 170.562 412.43 171.512 414.33 171.892C414.52 171.892 414.678 171.67 414.805 171.227C414.932 170.847 414.932 170.562 414.805 170.372C413.095 168.598 412.24 166.16 412.24 163.057C412.24 158.497 413.697 155.172 416.61 153.082C419.523 151.055 423.703 150.042 429.15 150.042L446.25 150.042C451.887 150.042 456.098 151.087 458.885 153.177C461.735 155.267 463.16 158.56 463.16 163.057C463.16 166.73 461.767 169.517 458.98 171.417C458.727 171.543 458.6 171.67 458.6 171.797C458.663 171.987 458.822 172.082 459.075 172.082L460.975 172.082ZM427.535 169.897C427.535 170.53 427.82 171.037 428.39 171.417C428.96 171.86 429.688 172.082 430.575 172.082L444.825 172.082C445.712 172.082 446.44 171.86 447.01 171.417C447.58 171.037 447.865 170.53 447.865 169.897C447.865 169.263 447.58 168.757 447.01 168.377C446.44 168.06 445.712 167.902 444.825 167.902L430.575 167.902C429.688 167.902 428.96 168.06 428.39 168.377C427.82 168.757 427.535 169.263 427.535 169.897ZM463.16 220.528C463.16 229.521 457.46 234.018 446.06 234.018L414.425 234.018C413.982 234.018 413.633 233.891 413.38 233.638C413.127 233.384 413 233.036 413 232.593L413 217.583C413 217.139 413.127 216.791 413.38 216.538C413.633 216.284 413.982 216.158 414.425 216.158L444.825 216.158C446.852 216.158 447.865 215.493 447.865 214.163C447.865 212.706 446.852 211.978 444.825 211.978L414.425 211.978C413.982 211.978 413.633 211.851 413.38 211.598C413.127 211.344 413 210.996 413 210.553L413 195.543C413 195.099 413.127 194.751 413.38 194.498C413.633 194.244 413.982 194.118 414.425 194.118L460.975 194.118C461.418 194.118 461.767 194.244 462.02 194.498C462.273 194.751 462.4 195.099 462.4 195.543L462.4 210.553C462.4 210.996 462.273 211.344 462.02 211.598C461.767 211.851 461.418 211.978 460.975 211.978L459.55 211.978C459.423 211.978 459.36 212.041 459.36 212.168C459.36 212.484 459.645 212.864 460.215 213.308C462.178 215.144 463.16 217.551 463.16 220.528Z" fill="#333333"/>
</g>
</svg>
