<svg width="30" height="30" viewBox="0 0 30 30" fill="none" xmlns="http://www.w3.org/2000/svg">
<path d="M0 15C0 6.71575 6.71575 0 15 0C23.2843 0 30 6.71575 30 15C30 23.2843 23.2843 30 15 30C6.71575 30 0 23.2843 0 15Z" fill="#FF2BC2"/>
<path d="M1.5 15C1.5 7.54418 7.54418 1.5 15 1.5C22.4558 1.5 28.5 7.54418 28.5 15C28.5 22.4558 22.4558 28.5 15 28.5C7.54418 28.5 1.5 22.4558 1.5 15Z" fill="url(#paint0_radial)"/>
<path d="M20.611 13.8468C20.4586 13.7757 20.2656 13.7453 20.0219 13.7453C18.7422 13.7453 17.8891 14.7304 17.8891 16.3656C17.8891 18.2343 18.7625 18.9859 19.9 18.9859C20.1438 18.9859 20.4078 18.9554 20.6008 18.8741V13.8468H20.611ZM16.061 16.4468C16.061 14.0804 17.5844 12.232 20.0828 12.232C20.2961 12.232 20.4078 12.232 20.611 12.2523V9.61172C20.611 9.55078 20.6617 9.51016 20.7125 9.51016H22.3477C22.4289 9.51016 22.4492 9.54063 22.4492 9.59141V18.8741C22.4492 19.1484 22.4492 19.4937 22.5 19.8694C22.5 19.9405 22.5 19.9507 22.4391 19.9812C21.5859 20.3874 20.6922 20.5702 19.8391 20.5702C17.6352 20.5702 16.061 19.2093 16.061 16.4468ZM12.5977 14.8015L15.4415 20.3163C15.4922 20.3976 15.4618 20.4788 15.3805 20.4788H13.6134C13.5016 20.4788 13.4509 20.4483 13.4001 20.3468C12.7501 19.0062 12.0899 17.6148 11.4095 16.1726H11.3892C10.7798 17.5335 10.1095 19.0163 9.45949 20.3569C9.40871 20.4382 9.35793 20.4687 9.27668 20.4687H7.59076C7.4892 20.4687 7.47904 20.3874 7.52982 20.3265L10.3126 14.9742L7.62123 9.65234C7.56029 9.57109 7.62123 9.5 7.69232 9.5H9.43918C9.54074 9.5 9.59152 9.52031 9.62199 9.61172C10.2618 10.9625 10.9118 12.2929 11.5212 13.6539H11.5415C12.1306 12.3133 12.7806 10.9625 13.4001 9.63203C13.4509 9.55078 13.4813 9.5 13.5829 9.5H15.218C15.2993 9.5 15.3298 9.56094 15.279 9.65234L12.5977 14.8015Z" fill="#FED7F0"/>
<defs>
<radialGradient id="paint0_radial" cx="0" cy="0" r="1" gradientUnits="userSpaceOnUse" gradientTransform="translate(12.2644 10.494) scale(17.603)">
<stop stop-color="#0E0E17" stop-opacity="0.85"/>
<stop offset="0.767" stop-color="#0E0E17"/>
</radialGradient>
</defs>
</svg>
