<svg width="30" height="30" viewBox="0 0 30 30" fill="none" xmlns="http://www.w3.org/2000/svg">
<path d="M0 15C0 6.71575 6.71575 0 15 0C23.2843 0 30 6.71575 30 15C30 23.2843 23.2843 30 15 30C6.71575 30 0 23.2843 0 15Z" fill="#31C5F0"/>
<path d="M1.5 15C1.5 7.54418 7.54418 1.5 15 1.5C22.4558 1.5 28.5 7.54418 28.5 15C28.5 22.4558 22.4558 28.5 15 28.5C7.54418 28.5 1.5 22.4558 1.5 15Z" fill="url(#paint0_radial)"/>
<path fill-rule="evenodd" clip-rule="evenodd" d="M7.5 8.69602C7.5 8.61761 7.6681 8.55881 7.76611 8.55881C8.53059 8.5196 9.65301 8.5 10.829 8.5C14.1221 8.5 15.4047 10.3034 15.4047 12.6164C15.4047 15.6351 13.2155 16.9288 10.53 16.9288C10.0791 16.9288 9.92233 16.9091 9.60869 16.9091V21.4734C9.60869 21.5715 9.56949 21.6107 9.47148 21.6107H7.63721C7.5392 21.6107 7.5 21.5715 7.5 21.4734V8.69602ZM9.60869 15.0078C9.88312 15.0273 10.0987 15.0273 10.5692 15.0273C11.9609 15.0273 13.2681 14.5373 13.2681 12.6555C13.2681 11.146 12.3334 10.3817 10.7456 10.3817C10.2752 10.3817 9.82432 10.4012 9.60869 10.4209V15.0077V15.0078ZM19.834 13.5965C18.8931 13.5965 18.5795 14.067 18.5795 14.459C18.5795 14.8902 18.7951 15.1841 20.0498 15.8311C21.9119 16.7328 22.5 17.5953 22.5 18.8693C22.5 20.7708 21.0495 21.7901 19.0893 21.7901C18.0504 21.7901 17.1661 21.5744 16.6565 21.2805C16.5781 21.2413 16.5585 21.1825 16.5585 21.0844V19.3399C16.5585 19.2223 16.6173 19.1831 16.6957 19.2417C17.4406 19.7317 18.3051 19.9474 19.0893 19.9474C20.0302 19.9474 20.4222 19.5554 20.4222 19.0261C20.4222 18.5949 20.1478 18.2223 18.952 17.5952C17.2663 16.7914 16.5606 15.9681 16.5606 14.5961C16.5606 13.0671 17.7563 11.7929 19.834 11.7929C20.8533 11.7929 21.573 11.9497 21.965 12.126C22.0631 12.1849 22.0827 12.2828 22.0827 12.3612V13.9885C22.0827 14.0864 22.0239 14.1454 21.9062 14.1062C21.3771 13.7925 20.5986 13.5965 19.834 13.5965Z" fill="#31C5F0"/>
<defs>
<radialGradient id="paint0_radial" cx="0" cy="0" r="1" gradientUnits="userSpaceOnUse" gradientTransform="translate(12.2644 10.494) scale(17.603)">
<stop stop-color="#0E0E17" stop-opacity="0.85"/>
<stop offset="0.767" stop-color="#0E0E17"/>
</radialGradient>
</defs>
</svg>
