<svg width="30" height="30" viewBox="0 0 30 30" fill="none" xmlns="http://www.w3.org/2000/svg">
<path d="M29.5 15C29.5 23.0081 23.0081 29.5 15 29.5C6.99187 29.5 0.5 23.0081 0.5 15C0.5 6.99187 6.99187 0.5 15 0.5C23.0081 0.5 29.5 6.99187 29.5 15Z" fill="white" stroke="#D4D4CE"/>
<mask id="mask0" mask-type="alpha" maskUnits="userSpaceOnUse" x="6" y="8" width="18" height="17">
<path d="M9.92433 8.53589L14.9933 8L20.0622 8.53589L23.9865 13.804L14.9933 24.2765L6 13.804L9.92433 8.53589Z" fill="white"/>
</mask>
<g mask="url(#mask0)">
<path fill-rule="evenodd" clip-rule="evenodd" d="M5.77148 24.5054H24.2155V7.77148H5.77148V24.5054Z" fill="#FDB300"/>
</g>
<mask id="mask1" mask-type="alpha" maskUnits="userSpaceOnUse" x="6" y="13" width="9" height="12">
<path d="M9.64273 13.8047L14.9933 24.2773L6 13.8047H9.64273Z" fill="white"/>
</mask>
<g mask="url(#mask1)">
<path fill-rule="evenodd" clip-rule="evenodd" d="M5.77148 24.5042H15.2222V13.5742H5.77148V24.5042Z" fill="#EA6C00"/>
</g>
<mask id="mask2" mask-type="alpha" maskUnits="userSpaceOnUse" x="14" y="13" width="10" height="12">
<path d="M20.3427 13.8047L14.9922 24.2773L23.9855 13.8047H20.3427Z" fill="white"/>
</mask>
<g mask="url(#mask2)">
<path fill-rule="evenodd" clip-rule="evenodd" d="M14.7656 24.5042H24.2163V13.5742H14.7656V24.5042Z" fill="#EA6C00"/>
</g>
<mask id="mask3" mask-type="alpha" maskUnits="userSpaceOnUse" x="9" y="13" width="12" height="12">
<path d="M9.64258 13.8047H20.3437L14.9931 24.2773L9.64258 13.8047Z" fill="white"/>
</mask>
<g mask="url(#mask3)">
<path fill-rule="evenodd" clip-rule="evenodd" d="M9.41406 24.5042H20.5726V13.5742H9.41406V24.5042Z" fill="#FDAD00"/>
</g>
<mask id="mask4" mask-type="alpha" maskUnits="userSpaceOnUse" x="9" y="8" width="6" height="6">
<path d="M14.9931 8L9.92419 8.53589L9.64258 13.804L14.9931 8Z" fill="white"/>
</mask>
<g mask="url(#mask4)">
<path fill-rule="evenodd" clip-rule="evenodd" d="M9.41406 14.0329H15.222V7.77148H9.41406V14.0329Z" fill="#FDD231"/>
</g>
<mask id="mask5" mask-type="alpha" maskUnits="userSpaceOnUse" x="14" y="8" width="7" height="6">
<path d="M14.9922 8L20.0611 8.53589L20.3427 13.804L14.9922 8Z" fill="white"/>
</mask>
<g mask="url(#mask5)">
<path fill-rule="evenodd" clip-rule="evenodd" d="M14.7656 14.0329H20.5736V7.77148H14.7656V14.0329Z" fill="#FDD231"/>
</g>
<mask id="mask6" mask-type="alpha" maskUnits="userSpaceOnUse" x="20" y="8" width="4" height="6">
<path d="M23.9868 13.8032L20.0625 8.53516L20.3441 13.8032H23.9868Z" fill="white"/>
</mask>
<g mask="url(#mask6)">
<path fill-rule="evenodd" clip-rule="evenodd" d="M19.834 14.0341H24.2158V8.30859H19.834V14.0341Z" fill="#FDAD00"/>
</g>
<mask id="mask7" mask-type="alpha" maskUnits="userSpaceOnUse" x="6" y="8" width="4" height="6">
<path d="M6 13.8032L9.92433 8.53516L9.64273 13.8032H6Z" fill="white"/>
</mask>
<g mask="url(#mask7)">
<path fill-rule="evenodd" clip-rule="evenodd" d="M5.77148 14.0341H10.1533V8.30859H5.77148V14.0341Z" fill="#FDAD00"/>
</g>
<mask id="mask8" mask-type="alpha" maskUnits="userSpaceOnUse" x="9" y="8" width="12" height="6">
<path d="M14.9931 8L9.64258 13.804H20.3437L14.9931 8Z" fill="white"/>
</mask>
<g mask="url(#mask8)">
<path fill-rule="evenodd" clip-rule="evenodd" d="M9.41406 14.0329H20.5726V7.77148H9.41406V14.0329Z" fill="#FEEEB7"/>
</g>
</svg>
