<svg width="30" height="30" viewBox="0 0 30 30" fill="none" xmlns="http://www.w3.org/2000/svg">
<path d="M0 15C0 6.71575 6.71575 0 15 0C23.2843 0 30 6.71575 30 15C30 23.2843 23.2843 30 15 30C6.71575 30 0 23.2843 0 15Z" fill="#F37021"/>
<path d="M1.5 15C1.5 7.54418 7.54418 1.5 15 1.5C22.4558 1.5 28.5 7.54418 28.5 15C28.5 22.4558 22.4558 28.5 15 28.5C7.54418 28.5 1.5 22.4558 1.5 15Z" fill="url(#paint0_radial)"/>
<path fill-rule="evenodd" clip-rule="evenodd" d="M10.0165 17.8771L9.08446 21.4054C9.06516 21.5024 9.02621 21.5251 8.90983 21.5251H7.18137C7.06511 21.5251 7.04581 21.4863 7.06511 21.3504L10.4048 9.64755C10.4631 9.43396 10.5019 9.25015 10.5213 8.66764C10.5213 8.58998 10.5601 8.55114 10.6185 8.55114H13.0843C13.162 8.55114 13.2008 8.57056 13.2204 8.66764L16.9677 21.3698C16.9871 21.4667 16.9677 21.5251 16.8706 21.5251H14.9289C14.832 21.5251 14.7736 21.5024 14.7543 21.4247L13.7835 17.8771H10.0166H10.0165ZM13.298 15.9648C12.9679 14.6639 12.1912 11.8126 11.9 10.434H11.8806C11.6281 11.8126 11.0067 14.1397 10.5214 15.9648H13.298ZM18.5926 9.42455C18.5926 8.66729 19.1168 8.2207 19.7964 8.2207C20.5149 8.2207 21.0003 8.70612 21.0003 9.42455C21.0003 10.2012 20.4954 10.6284 19.777 10.6284C19.078 10.6284 18.5926 10.2012 18.5926 9.42455ZM18.7244 12.0997C18.7244 12.0026 18.7632 11.9638 18.8603 11.9638H20.7067C20.8038 11.9638 20.8426 12.0026 20.8426 12.0997V21.3892C20.8426 21.4863 20.8232 21.5251 20.7067 21.5251H18.8797C18.7632 21.5251 18.7244 21.4667 18.7244 21.3698V12.0997Z" fill="#FF7F18"/>
<defs>
<radialGradient id="paint0_radial" cx="0" cy="0" r="1" gradientUnits="userSpaceOnUse" gradientTransform="translate(12.2644 10.494) scale(17.603)">
<stop stop-color="#1C0A00" stop-opacity="0.85"/>
<stop offset="0.767" stop-color="#1C0A00"/>
</radialGradient>
</defs>
</svg>
