<svg width="30" height="30" viewBox="0 0 30 30" fill="none" xmlns="http://www.w3.org/2000/svg">
<path fill-rule="evenodd" clip-rule="evenodd" d="M15.0001 0C6.71687 0 0 6.88559 0 15.3798C0 22.1749 4.29799 27.9399 10.258 29.9736C11.0077 30.1159 11.2829 29.6399 11.2829 29.2337C11.2829 28.867 11.269 27.6554 11.2625 26.3703C7.08946 27.3007 6.2089 24.5557 6.2089 24.5557C5.52656 22.778 4.54341 22.3053 4.54341 22.3053C3.18245 21.3508 4.64599 21.3704 4.64599 21.3704C6.15227 21.4789 6.94539 22.9553 6.94539 22.9553C8.28325 25.3065 10.4545 24.6268 11.3105 24.2338C11.4451 23.2398 11.8338 22.5613 12.2628 22.1772C8.93107 21.7883 5.42869 20.4696 5.42869 14.5765C5.42869 12.8974 6.01466 11.5254 6.97421 10.4483C6.81846 10.061 6.30503 8.49671 7.11952 6.37827C7.11952 6.37827 8.37913 5.96492 11.2456 7.95475C12.4421 7.61398 13.7254 7.44309 15.0001 7.43723C16.2749 7.44309 17.5591 7.61398 18.7579 7.95475C21.6209 5.96492 22.8787 6.37827 22.8787 6.37827C23.6952 8.49671 23.1815 10.061 23.0258 10.4483C23.9876 11.5254 24.5696 12.8974 24.5696 14.5765C24.5696 20.4836 21.0605 21.7843 17.7203 22.165C18.2583 22.6423 18.7377 23.5782 18.7377 25.0131C18.7377 27.071 18.7203 28.7272 18.7203 29.2337C18.7203 29.643 18.9904 30.1226 19.7507 29.9715C25.7075 27.9356 30 22.1726 30 15.3798C30 6.88559 23.2841 0 15.0001 0Z" fill="#161514"/>
<path fill-rule="evenodd" clip-rule="evenodd" d="M5.72519 21.975C5.69222 22.0507 5.57519 22.0734 5.46858 22.0214C5.35999 21.9717 5.299 21.8686 5.3342 21.7927C5.36643 21.7148 5.48371 21.6931 5.59205 21.7453C5.7009 21.795 5.76288 21.8991 5.72519 21.975Z" fill="#161514"/>
<path fill-rule="evenodd" clip-rule="evenodd" d="M6.33114 22.6644C6.25974 22.7318 6.12015 22.7005 6.02544 22.5941C5.92751 22.4879 5.90916 22.3459 5.98155 22.2776C6.05519 22.2103 6.19056 22.2418 6.28875 22.348C6.38668 22.4554 6.40577 22.5963 6.33114 22.6644Z" fill="#161514"/>
<path fill-rule="evenodd" clip-rule="evenodd" d="M6.92255 23.5404C6.83081 23.6052 6.68081 23.5445 6.58809 23.409C6.49635 23.2736 6.49635 23.1112 6.59007 23.0462C6.68305 22.9811 6.83081 23.0396 6.92478 23.174C7.01627 23.3117 7.01627 23.4741 6.92255 23.5404Z" fill="#161514"/>
<path fill-rule="evenodd" clip-rule="evenodd" d="M7.73244 24.3893C7.65038 24.4814 7.47558 24.4566 7.34765 24.3311C7.21674 24.2083 7.18029 24.034 7.26261 23.942C7.34567 23.8497 7.52145 23.8756 7.65038 24.0002C7.78029 24.1228 7.81996 24.2983 7.73244 24.3893Z" fill="#161514"/>
<path fill-rule="evenodd" clip-rule="evenodd" d="M8.84699 24.8795C8.81079 24.9988 8.64244 25.053 8.47286 25.0023C8.30352 24.9501 8.19269 24.8104 8.22691 24.6898C8.26211 24.5698 8.4312 24.5133 8.60203 24.5675C8.77112 24.6195 8.8822 24.7582 8.84699 24.8795Z" fill="#161514"/>
<path fill-rule="evenodd" clip-rule="evenodd" d="M10.0731 24.9703C10.0773 25.0959 9.93349 25.2 9.75547 25.2023C9.57646 25.2063 9.43167 25.1047 9.42969 24.9811C9.42969 24.8543 9.57027 24.7512 9.74927 24.7481C9.92729 24.7446 10.0731 24.8455 10.0731 24.9703Z" fill="#161514"/>
<path fill-rule="evenodd" clip-rule="evenodd" d="M11.2126 24.7757C11.2339 24.8982 11.1102 25.0241 10.9334 25.0576C10.7596 25.0899 10.5987 25.0142 10.5766 24.8927C10.5551 24.7671 10.681 24.6413 10.8546 24.6087C11.0316 24.5775 11.19 24.6511 11.2126 24.7757Z" fill="#161514"/>
</svg>
