<svg width="30" height="30" viewBox="0 0 30 30" fill="none" xmlns="http://www.w3.org/2000/svg">
<path fill-rule="evenodd" clip-rule="evenodd" d="M0 15C0 6.71573 6.71573 0 15 0C23.2843 0 30 6.71573 30 15C30 23.2843 23.2843 30 15 30C6.71573 30 0 23.2843 0 15Z" fill="#FF3366"/>
<path fill-rule="evenodd" clip-rule="evenodd" d="M20.8568 22.7629C19.2138 22.7629 18.4283 21.7872 18.4283 20.4532C18.4283 20.0726 18.4757 19.6675 18.5947 19.2627L19.3807 16.453C19.4758 16.1433 19.4997 15.8578 19.4997 15.5957C19.4997 14.6912 18.9521 14.1433 18.071 14.1433C16.9517 14.1433 16.2136 14.925 15.8327 16.4728L14.3086 22.5642H11.6418L12.1204 20.6647C11.3366 21.9524 10.248 22.7607 8.9049 22.7607C7.28569 22.7607 6.52372 21.8333 6.52372 20.4282C6.52372 20.0716 6.57148 19.6494 6.66663 19.2445L7.88101 14.2985H6L6.57148 12.184H11.0957L9.30963 19.2593C9.19054 19.7121 9.14297 20.083 9.14297 20.3445C9.14297 20.7975 9.36595 20.9277 9.71464 21.0063C9.92695 21.0538 11.6191 21.0317 12.5404 18.984L13.7134 14.2985H11.8084L12.3799 12.184H16.4517L15.928 14.5685C16.6422 13.2348 18.071 11.9631 19.4758 11.9631C20.9759 11.9631 22.2142 13.0294 22.2142 15.0772C22.2142 15.6008 22.1428 16.1698 21.9523 16.8125L21.1902 19.5494C21.119 19.8357 21.0711 20.0733 21.0711 20.2875C21.0711 20.7636 21.2618 21.0015 21.619 21.0015C21.9761 21.0015 22.4286 20.7389 22.9525 19.2871L24 19.6916C23.3809 21.8585 22.2618 22.7629 20.8568 22.7629ZM10.024 7.5C10.9052 7.5 11.6432 8.19047 11.6432 9.09498C11.6432 10.0002 10.9052 10.6907 10.024 10.6907C9.14297 10.6907 8.40492 10.0002 8.40492 9.09498C8.40492 8.19047 9.14297 7.5 10.024 7.5Z" fill="white"/>
</svg>
