<svg width="44" height="44" viewBox="0 0 44 44" fill="none" xmlns="http://www.w3.org/2000/svg">
<path d="M22.0009 0C9.85015 0 0 9.85193 0 22.0009C0 34.1516 9.85015 44 22.0009 44C34.1516 44 44 34.1516 44 22.0009C44 9.85193 34.1507 0 22.0009 0ZM33.0831 17.565C33.0947 17.8026 33.0992 18.0412 33.0992 18.2824C33.0992 25.6095 27.5223 34.0569 17.3246 34.0569C14.194 34.0569 11.2788 33.1394 8.82537 31.5669C9.25958 31.6179 9.70005 31.6438 10.1477 31.6438C12.7458 31.6438 15.1366 30.7575 17.0334 29.2708C14.6077 29.2252 12.5608 27.6215 11.855 25.4192C12.1927 25.4853 12.5403 25.5184 12.8977 25.5184C13.4033 25.5184 13.8929 25.4522 14.3584 25.3245C11.8211 24.8152 9.91001 22.5727 9.91001 19.8888C9.91001 19.8647 9.91001 19.8415 9.9109 19.8173C10.6578 20.2328 11.5128 20.4821 12.4224 20.5115C10.9339 19.5154 9.95557 17.8205 9.95557 15.896C9.95557 14.8802 10.229 13.9269 10.7061 13.1085C13.4409 16.4625 17.5266 18.6702 22.1349 18.9007C22.0402 18.4959 21.9911 18.0716 21.9911 17.6373C21.9911 14.5764 24.473 12.0936 27.5357 12.0936C29.1305 12.0936 30.5707 12.7672 31.5821 13.8438C32.8454 13.5963 34.0319 13.1335 35.1032 12.4983C34.6877 13.7938 33.8095 14.8802 32.6641 15.5655C33.7871 15.4314 34.8557 15.133 35.8492 14.6926C35.1076 15.8067 34.1668 16.7832 33.0831 17.565Z" fill="#38C1F9"/>
</svg>
